<?xml version="1.0" encoding="utf-8" standalone="no"?>
<!DOCTYPE svg PUBLIC "-//W3C//DTD SVG 1.1//EN"
  "http://www.w3.org/Graphics/SVG/1.1/DTD/svg11.dtd">
<svg xmlns:xlink="http://www.w3.org/1999/xlink" width="181.8pt" height="180.72pt" viewBox="0 0 181.8 180.72" xmlns="http://www.w3.org/2000/svg" version="1.1">
 <metadata>
  <rdf:RDF xmlns:dc="http://purl.org/dc/elements/1.1/" xmlns:cc="http://creativecommons.org/ns#" xmlns:rdf="http://www.w3.org/1999/02/22-rdf-syntax-ns#">
   <cc:Work>
    <dc:type rdf:resource="http://purl.org/dc/dcmitype/StillImage"/>
    <dc:date>2025-12-19T18:34:52.989403</dc:date>
    <dc:format>image/svg+xml</dc:format>
    <dc:creator>
     <cc:Agent>
      <dc:title>Matplotlib v3.10.5, https://matplotlib.org/</dc:title>
     </cc:Agent>
    </dc:creator>
   </cc:Work>
  </rdf:RDF>
 </metadata>
 <defs>
  <style type="text/css">*{stroke-linejoin: round; stroke-linecap: butt}</style>
 </defs>
 <g id="figure_1">
  <g id="patch_1">
   <path d="M 0 180.72 
L 181.8 180.72 
L 181.8 0 
L 0 0 
z
" style="fill: #ffffff"/>
  </g>
  <g id="axes_1">
   <g id="line2d_1">
    <path d="M 14.809091 33.634962 
L 16.789435 31.174227 
L 18.160442 29.808941 
L 19.226781 29.022176 
L 20.29312 28.518599 
L 21.207125 28.331138 
L 22.12113 28.376437 
L 23.035135 28.652891 
L 23.94914 29.150706 
L 25.015479 29.98733 
L 26.234152 31.230418 
L 27.909828 33.297745 
L 32.327518 38.962067 
L 33.546192 40.122558 
L 34.612531 40.870887 
L 35.526536 41.284466 
L 36.440541 41.471927 
L 37.354545 41.426628 
L 38.26855 41.150174 
L 39.182555 40.652359 
L 40.248894 39.815735 
L 41.467568 38.572647 
L 43.143243 36.50532 
L 47.560934 30.840998 
L 48.779607 29.680506 
L 49.845946 28.932178 
L 50.759951 28.518599 
L 51.673956 28.331138 
L 52.587961 28.376437 
L 53.501966 28.652891 
L 54.415971 29.150706 
L 55.48231 29.98733 
L 56.700983 31.230418 
L 58.376658 33.297745 
L 62.794349 38.962067 
L 64.013022 40.122558 
L 65.079361 40.870887 
L 65.993366 41.284466 
L 66.907371 41.471927 
L 67.821376 41.426628 
L 68.735381 41.150174 
L 69.649386 40.652359 
L 70.715725 39.815735 
L 71.934398 38.572647 
L 73.610074 36.50532 
L 78.027764 30.840998 
L 79.246437 29.680506 
L 80.312776 28.932178 
L 81.226781 28.518599 
L 82.140786 28.331138 
L 83.054791 28.376437 
L 83.968796 28.652891 
L 84.882801 29.150706 
L 85.94914 29.98733 
L 87.167813 31.230418 
L 88.843489 33.297745 
L 93.261179 38.962067 
L 94.479853 40.122558 
L 95.546192 40.870887 
L 96.460197 41.284466 
L 97.374201 41.471927 
L 98.288206 41.426628 
L 99.202211 41.150174 
L 100.116216 40.652359 
L 101.182555 39.815735 
L 102.401229 38.572647 
L 104.076904 36.50532 
L 108.494595 30.840998 
L 109.713268 29.680506 
L 110.779607 28.932178 
L 111.693612 28.518599 
L 112.607617 28.331138 
L 113.521622 28.376437 
L 114.435627 28.652891 
L 115.349631 29.150706 
L 116.415971 29.98733 
L 117.634644 31.230418 
L 119.310319 33.297745 
L 123.72801 38.962067 
L 124.946683 40.122558 
L 126.013022 40.870887 
L 126.927027 41.284466 
L 127.841032 41.471927 
L 128.755037 41.426628 
L 129.669042 41.150174 
L 130.583047 40.652359 
L 131.649386 39.815735 
L 132.868059 38.572647 
L 134.543735 36.50532 
L 138.961425 30.840998 
L 140.180098 29.680506 
L 141.246437 28.932178 
L 142.160442 28.518599 
L 143.074447 28.331138 
L 143.988452 28.376437 
L 144.902457 28.652891 
L 145.816462 29.150706 
L 146.882801 29.98733 
L 148.101474 31.230418 
L 149.77715 33.297745 
L 154.19484 38.962067 
L 155.413514 40.122558 
L 156.479853 40.870887 
L 157.393857 41.284466 
L 158.307862 41.471927 
L 159.221867 41.426628 
L 160.135872 41.150174 
L 161.049877 40.652359 
L 162.116216 39.815735 
L 163.334889 38.572647 
L 165.010565 36.50532 
L 166.990909 33.838447 
L 166.990909 33.838447 
" clip-path="url(#p5cdc951440)" style="fill: none; stroke: #000000; stroke-width: 2; stroke-linecap: square"/>
   </g>
  </g>
  <g id="axes_2">
   <g id="line2d_2">
    <path d="M 14.809091 75.234879 
L 17.855774 73.619645 
L 20.750123 72.329361 
L 23.492138 71.343488 
L 26.081818 70.635317 
L 28.671499 70.151977 
L 31.261179 69.898976 
L 33.85086 69.879199 
L 36.440541 70.09287 
L 39.030221 70.537555 
L 41.619902 71.208184 
L 44.361916 72.155997 
L 47.103931 73.33641 
L 49.99828 74.818034 
L 53.197297 76.71205 
L 56.700983 79.057367 
L 60.661671 81.989568 
L 65.536364 85.895627 
L 83.207125 100.356063 
L 87.015479 103.032992 
L 90.36683 105.132567 
L 93.565848 106.874323 
L 96.460197 108.203544 
L 99.202211 109.228771 
L 101.944226 110.012905 
L 104.533907 110.523032 
L 107.123587 110.803332 
L 109.713268 110.850611 
L 112.302948 110.664329 
L 114.892629 110.24661 
L 117.48231 109.602215 
L 120.224324 108.68105 
L 122.966339 107.525789 
L 125.860688 106.068738 
L 129.059705 104.199105 
L 132.563391 101.876668 
L 136.524079 98.964936 
L 141.246437 95.200718 
L 149.472482 88.294558 
L 156.02285 82.925573 
L 160.440541 79.586625 
L 164.09656 77.088645 
L 166.990909 75.32213 
L 166.990909 75.32213 
" clip-path="url(#p9d228a4578)" style="fill: none; stroke: #000000; stroke-width: 2; stroke-linecap: square"/>
   </g>
  </g>
  <g id="axes_3">
   <g id="line2d_3">
    <path d="M 14.809091 152.739274 
L 16.484767 148.078171 
L 19.988452 138.152902 
L 21.207125 135.381628 
L 22.273464 133.48972 
L 23.187469 132.338026 
L 23.94914 131.741846 
L 24.558477 131.514045 
L 25.167813 131.511832 
L 25.77715 131.735244 
L 26.386486 132.180756 
L 27.148157 133.038948 
L 28.062162 134.481735 
L 29.128501 136.668176 
L 30.347174 139.699485 
L 32.327518 145.350622 
L 34.917199 152.708396 
L 36.288206 155.941547 
L 37.354545 157.911467 
L 38.26855 159.139225 
L 39.030221 159.803234 
L 39.639558 160.08701 
L 40.248894 160.145762 
L 40.858231 159.978565 
L 41.467568 159.588054 
L 42.229238 158.795592 
L 42.990909 157.68359 
L 43.904914 155.966463 
L 45.123587 153.130137 
L 46.646929 148.962486 
L 50.607617 137.776241 
L 51.82629 135.078166 
L 52.892629 133.266138 
L 53.6543 132.338026 
L 54.415971 131.741846 
L 55.025307 131.514045 
L 55.634644 131.511832 
L 56.24398 131.735244 
L 56.853317 132.180756 
L 57.614988 133.038948 
L 58.528993 134.481735 
L 59.595332 136.668176 
L 60.814005 139.699485 
L 62.794349 145.350622 
L 65.384029 152.708396 
L 66.755037 155.941547 
L 67.821376 157.911467 
L 68.735381 159.139225 
L 69.497052 159.803234 
L 70.106388 160.08701 
L 70.715725 160.145762 
L 71.325061 159.978565 
L 71.934398 159.588054 
L 72.696069 158.795592 
L 73.45774 157.68359 
L 74.371744 155.966463 
L 75.590418 153.130137 
L 77.113759 148.962486 
L 81.074447 137.776241 
L 82.29312 135.078166 
L 83.359459 133.266138 
L 84.12113 132.338026 
L 84.882801 131.741846 
L 85.492138 131.514045 
L 86.101474 131.511832 
L 86.710811 131.735244 
L 87.320147 132.180756 
L 88.081818 133.038948 
L 88.995823 134.481735 
L 90.062162 136.668176 
L 91.280835 139.699485 
L 93.261179 145.350622 
L 95.85086 152.708396 
L 97.221867 155.941547 
L 98.288206 157.911467 
L 99.202211 159.139225 
L 99.963882 159.803234 
L 100.573219 160.08701 
L 101.182555 160.145762 
L 101.791892 159.978565 
L 102.401229 159.588054 
L 103.162899 158.795592 
L 103.92457 157.68359 
L 104.838575 155.966463 
L 106.057248 153.130137 
L 107.58059 148.962486 
L 111.541278 137.776241 
L 112.759951 135.078166 
L 113.82629 133.266138 
L 114.587961 132.338026 
L 115.349631 131.741846 
L 115.958968 131.514045 
L 116.568305 131.511832 
L 117.177641 131.735244 
L 117.786978 132.180756 
L 118.548649 133.038948 
L 119.462654 134.481735 
L 120.528993 136.668176 
L 121.747666 139.699485 
L 123.72801 145.350622 
L 126.31769 152.708396 
L 127.688698 155.941547 
L 128.755037 157.911467 
L 129.669042 159.139225 
L 130.430713 159.803234 
L 131.040049 160.08701 
L 131.649386 160.145762 
L 132.258722 159.978565 
L 132.868059 159.588054 
L 133.62973 158.795592 
L 134.3914 157.68359 
L 135.305405 155.966463 
L 136.524079 153.130137 
L 138.04742 148.962486 
L 142.008108 137.776241 
L 143.226781 135.078166 
L 144.29312 133.266138 
L 145.054791 132.338026 
L 145.816462 131.741846 
L 146.425799 131.514045 
L 147.035135 131.511832 
L 147.644472 131.735244 
L 148.253808 132.180756 
L 149.015479 133.038948 
L 149.929484 134.481735 
L 150.995823 136.668176 
L 152.214496 139.699485 
L 154.19484 145.350622 
L 156.784521 152.708396 
L 158.155528 155.941547 
L 159.221867 157.911467 
L 160.135872 159.139225 
L 160.897543 159.803234 
L 161.50688 160.08701 
L 162.116216 160.145762 
L 162.725553 159.978565 
L 163.334889 159.588054 
L 164.09656 158.795592 
L 164.858231 157.68359 
L 165.772236 155.966463 
L 166.990909 153.130137 
L 166.990909 153.130137 
" clip-path="url(#pd23a74ff40)" style="fill: none; stroke: #000000; stroke-width: 2; stroke-linecap: square"/>
   </g>
  </g>
 </g>
 <defs>
  <clipPath id="p5cdc951440">
   <rect x="7.2" y="7.2" width="167.4" height="55.403065"/>
  </clipPath>
  <clipPath id="p9d228a4578">
   <rect x="7.2" y="62.658468" width="167.4" height="55.403065"/>
  </clipPath>
  <clipPath id="pd23a74ff40">
   <rect x="7.2" y="118.116935" width="167.4" height="55.403065"/>
  </clipPath>
 </defs>
</svg>
