<?xml version="1.0" encoding="utf-8" standalone="no"?>
<!DOCTYPE svg PUBLIC "-//W3C//DTD SVG 1.1//EN"
  "http://www.w3.org/Graphics/SVG/1.1/DTD/svg11.dtd">
<svg xmlns:xlink="http://www.w3.org/1999/xlink" width="225.763068pt" height="427.265906pt" viewBox="0 0 225.763068 427.265906" xmlns="http://www.w3.org/2000/svg" version="1.1">
 <metadata>
  <rdf:RDF xmlns:dc="http://purl.org/dc/elements/1.1/" xmlns:cc="http://creativecommons.org/ns#" xmlns:rdf="http://www.w3.org/1999/02/22-rdf-syntax-ns#">
   <cc:Work>
    <dc:type rdf:resource="http://purl.org/dc/dcmitype/StillImage"/>
    <dc:date>2025-12-17T17:11:29.882103</dc:date>
    <dc:format>image/svg+xml</dc:format>
    <dc:creator>
     <cc:Agent>
      <dc:title>Matplotlib v3.10.5, https://matplotlib.org/</dc:title>
     </cc:Agent>
    </dc:creator>
   </cc:Work>
  </rdf:RDF>
 </metadata>
 <defs>
  <style type="text/css">*{stroke-linejoin: round; stroke-linecap: butt}</style>
 </defs>
 <g id="figure_1">
  <g id="patch_1">
   <path d="M 0 427.265906 
L 225.763068 427.265906 
L 225.763068 0 
L 0 0 
z
" style="fill: #ffffff"/>
  </g>
  <g id="axes_1">
   <g id="patch_2">
    <path d="M 43.145156 182.292 
L 218.237156 182.292 
L 218.237156 7.2 
L 43.145156 7.2 
z
" style="fill: #ffffff"/>
   </g>
   <g id="matplotlib.axis_1">
    <g id="xtick_1">
     <g id="line2d_1">
      <defs>
       <path id="m6e3258038a" d="M 0 0 
L 0 -3.5 
" style="stroke: #000000; stroke-width: 0.8"/>
      </defs>
      <g>
       <use xlink:href="#m6e3258038a" x="62.386035" y="182.292" style="stroke: #000000; stroke-width: 0.8"/>
      </g>
     </g>
     <g id="text_1">
      <!-- 0 -->
      <g transform="translate(60.136035 192.041375) scale(0.09 -0.09)">
       <defs>
        <path id="TimesNewRomanPSMT-30" d="M 231 2094 
Q 231 2819 450 3342 
Q 669 3866 1031 4122 
Q 1313 4325 1613 4325 
Q 2100 4325 2488 3828 
Q 2972 3213 2972 2159 
Q 2972 1422 2759 906 
Q 2547 391 2217 158 
Q 1888 -75 1581 -75 
Q 975 -75 572 641 
Q 231 1244 231 2094 
z
M 844 2016 
Q 844 1141 1059 588 
Q 1238 122 1591 122 
Q 1759 122 1940 273 
Q 2122 425 2216 781 
Q 2359 1319 2359 2297 
Q 2359 3022 2209 3506 
Q 2097 3866 1919 4016 
Q 1791 4119 1609 4119 
Q 1397 4119 1231 3928 
Q 1006 3669 925 3112 
Q 844 2556 844 2016 
z
" transform="scale(0.015625)"/>
       </defs>
       <use xlink:href="#TimesNewRomanPSMT-30"/>
      </g>
     </g>
    </g>
    <g id="xtick_2">
     <g id="line2d_2">
      <g>
       <use xlink:href="#m6e3258038a" x="100.867794" y="182.292" style="stroke: #000000; stroke-width: 0.8"/>
      </g>
     </g>
     <g id="text_2">
      <!-- 2 -->
      <g transform="translate(98.617794 192.041375) scale(0.09 -0.09)">
       <defs>
        <path id="TimesNewRomanPSMT-32" d="M 2934 816 
L 2638 0 
L 138 0 
L 138 116 
Q 1241 1122 1691 1759 
Q 2141 2397 2141 2925 
Q 2141 3328 1894 3587 
Q 1647 3847 1303 3847 
Q 991 3847 742 3664 
Q 494 3481 375 3128 
L 259 3128 
Q 338 3706 661 4015 
Q 984 4325 1469 4325 
Q 1984 4325 2329 3994 
Q 2675 3663 2675 3213 
Q 2675 2891 2525 2569 
Q 2294 2063 1775 1497 
Q 997 647 803 472 
L 1909 472 
Q 2247 472 2383 497 
Q 2519 522 2628 598 
Q 2738 675 2819 816 
L 2934 816 
z
" transform="scale(0.015625)"/>
       </defs>
       <use xlink:href="#TimesNewRomanPSMT-32"/>
      </g>
     </g>
    </g>
    <g id="xtick_3">
     <g id="line2d_3">
      <g>
       <use xlink:href="#m6e3258038a" x="139.349552" y="182.292" style="stroke: #000000; stroke-width: 0.8"/>
      </g>
     </g>
     <g id="text_3">
      <!-- 4 -->
      <g transform="translate(137.099552 192.041375) scale(0.09 -0.09)">
       <defs>
        <path id="TimesNewRomanPSMT-34" d="M 2978 1563 
L 2978 1119 
L 2409 1119 
L 2409 0 
L 1894 0 
L 1894 1119 
L 100 1119 
L 100 1519 
L 2066 4325 
L 2409 4325 
L 2409 1563 
L 2978 1563 
z
M 1894 1563 
L 1894 3666 
L 406 1563 
L 1894 1563 
z
" transform="scale(0.015625)"/>
       </defs>
       <use xlink:href="#TimesNewRomanPSMT-34"/>
      </g>
     </g>
    </g>
    <g id="xtick_4">
     <g id="line2d_4">
      <g>
       <use xlink:href="#m6e3258038a" x="177.83131" y="182.292" style="stroke: #000000; stroke-width: 0.8"/>
      </g>
     </g>
     <g id="text_4">
      <!-- 6 -->
      <g transform="translate(175.58131 192.041375) scale(0.09 -0.09)">
       <defs>
        <path id="TimesNewRomanPSMT-36" d="M 2869 4325 
L 2869 4209 
Q 2456 4169 2195 4045 
Q 1934 3922 1679 3669 
Q 1425 3416 1258 3105 
Q 1091 2794 978 2366 
Q 1428 2675 1881 2675 
Q 2316 2675 2634 2325 
Q 2953 1975 2953 1425 
Q 2953 894 2631 456 
Q 2244 -75 1606 -75 
Q 1172 -75 869 213 
Q 275 772 275 1663 
Q 275 2231 503 2743 
Q 731 3256 1154 3653 
Q 1578 4050 1965 4187 
Q 2353 4325 2688 4325 
L 2869 4325 
z
M 925 2138 
Q 869 1716 869 1456 
Q 869 1156 980 804 
Q 1091 453 1309 247 
Q 1469 100 1697 100 
Q 1969 100 2183 356 
Q 2397 613 2397 1088 
Q 2397 1622 2184 2012 
Q 1972 2403 1581 2403 
Q 1463 2403 1327 2353 
Q 1191 2303 925 2138 
z
" transform="scale(0.015625)"/>
       </defs>
       <use xlink:href="#TimesNewRomanPSMT-36"/>
      </g>
     </g>
    </g>
    <g id="xtick_5">
     <g id="line2d_5">
      <g>
       <use xlink:href="#m6e3258038a" x="216.313068" y="182.292" style="stroke: #000000; stroke-width: 0.8"/>
      </g>
     </g>
     <g id="text_5">
      <!-- 8 -->
      <g transform="translate(214.063068 192.041375) scale(0.09 -0.09)">
       <defs>
        <path id="TimesNewRomanPSMT-38" d="M 1228 2134 
Q 725 2547 579 2797 
Q 434 3047 434 3316 
Q 434 3728 753 4026 
Q 1072 4325 1600 4325 
Q 2113 4325 2425 4047 
Q 2738 3769 2738 3413 
Q 2738 3175 2569 2928 
Q 2400 2681 1866 2347 
Q 2416 1922 2594 1678 
Q 2831 1359 2831 1006 
Q 2831 559 2490 242 
Q 2150 -75 1597 -75 
Q 994 -75 656 303 
Q 388 606 388 966 
Q 388 1247 577 1523 
Q 766 1800 1228 2134 
z
M 1719 2469 
Q 2094 2806 2194 3001 
Q 2294 3197 2294 3444 
Q 2294 3772 2109 3958 
Q 1925 4144 1606 4144 
Q 1288 4144 1088 3959 
Q 888 3775 888 3528 
Q 888 3366 970 3203 
Q 1053 3041 1206 2894 
L 1719 2469 
z
M 1375 2016 
Q 1116 1797 991 1539 
Q 866 1281 866 981 
Q 866 578 1086 336 
Q 1306 94 1647 94 
Q 1984 94 2187 284 
Q 2391 475 2391 747 
Q 2391 972 2272 1150 
Q 2050 1481 1375 2016 
z
" transform="scale(0.015625)"/>
       </defs>
       <use xlink:href="#TimesNewRomanPSMT-38"/>
      </g>
     </g>
    </g>
    <g id="text_6">
     <!-- Accumulated Train Time [s] -->
     <g transform="translate(62.848031 206.299031) scale(0.12 -0.12)">
      <defs>
       <path id="TimesNewRomanPSMT-41" d="M 2928 1419 
L 1288 1419 
L 1000 750 
Q 894 503 894 381 
Q 894 284 986 211 
Q 1078 138 1384 116 
L 1384 0 
L 50 0 
L 50 116 
Q 316 163 394 238 
Q 553 388 747 847 
L 2238 4334 
L 2347 4334 
L 3822 809 
Q 4000 384 4145 257 
Q 4291 131 4550 116 
L 4550 0 
L 2878 0 
L 2878 116 
Q 3131 128 3220 200 
Q 3309 272 3309 375 
Q 3309 513 3184 809 
L 2928 1419 
z
M 2841 1650 
L 2122 3363 
L 1384 1650 
L 2841 1650 
z
" transform="scale(0.015625)"/>
       <path id="TimesNewRomanPSMT-63" d="M 2631 1088 
Q 2516 522 2178 217 
Q 1841 -88 1431 -88 
Q 944 -88 581 321 
Q 219 731 219 1428 
Q 219 2103 620 2525 
Q 1022 2947 1584 2947 
Q 2006 2947 2278 2723 
Q 2550 2500 2550 2259 
Q 2550 2141 2473 2067 
Q 2397 1994 2259 1994 
Q 2075 1994 1981 2113 
Q 1928 2178 1911 2362 
Q 1894 2547 1784 2644 
Q 1675 2738 1481 2738 
Q 1169 2738 978 2506 
Q 725 2200 725 1697 
Q 725 1184 976 792 
Q 1228 400 1656 400 
Q 1963 400 2206 609 
Q 2378 753 2541 1131 
L 2631 1088 
z
" transform="scale(0.015625)"/>
       <path id="TimesNewRomanPSMT-75" d="M 2709 2863 
L 2709 1128 
Q 2709 631 2732 520 
Q 2756 409 2807 365 
Q 2859 322 2928 322 
Q 3025 322 3147 375 
L 3191 266 
L 2334 -88 
L 2194 -88 
L 2194 519 
Q 1825 119 1631 15 
Q 1438 -88 1222 -88 
Q 981 -88 804 51 
Q 628 191 559 409 
Q 491 628 491 1028 
L 491 2306 
Q 491 2509 447 2587 
Q 403 2666 317 2708 
Q 231 2750 6 2747 
L 6 2863 
L 1009 2863 
L 1009 947 
Q 1009 547 1148 422 
Q 1288 297 1484 297 
Q 1619 297 1789 381 
Q 1959 466 2194 703 
L 2194 2325 
Q 2194 2569 2105 2655 
Q 2016 2741 1734 2747 
L 1734 2863 
L 2709 2863 
z
" transform="scale(0.015625)"/>
       <path id="TimesNewRomanPSMT-6d" d="M 1050 2338 
Q 1363 2650 1419 2697 
Q 1559 2816 1721 2881 
Q 1884 2947 2044 2947 
Q 2313 2947 2506 2790 
Q 2700 2634 2766 2338 
Q 3088 2713 3309 2830 
Q 3531 2947 3766 2947 
Q 3994 2947 4170 2830 
Q 4347 2713 4450 2447 
Q 4519 2266 4519 1878 
L 4519 647 
Q 4519 378 4559 278 
Q 4591 209 4675 161 
Q 4759 113 4950 113 
L 4950 0 
L 3538 0 
L 3538 113 
L 3597 113 
Q 3781 113 3884 184 
Q 3956 234 3988 344 
Q 4000 397 4000 647 
L 4000 1878 
Q 4000 2228 3916 2372 
Q 3794 2572 3525 2572 
Q 3359 2572 3192 2489 
Q 3025 2406 2788 2181 
L 2781 2147 
L 2788 2013 
L 2788 647 
Q 2788 353 2820 281 
Q 2853 209 2943 161 
Q 3034 113 3253 113 
L 3253 0 
L 1806 0 
L 1806 113 
Q 2044 113 2133 169 
Q 2222 225 2256 338 
Q 2272 391 2272 647 
L 2272 1878 
Q 2272 2228 2169 2381 
Q 2031 2581 1784 2581 
Q 1616 2581 1450 2491 
Q 1191 2353 1050 2181 
L 1050 647 
Q 1050 366 1089 281 
Q 1128 197 1204 155 
Q 1281 113 1516 113 
L 1516 0 
L 100 0 
L 100 113 
Q 297 113 375 155 
Q 453 197 493 289 
Q 534 381 534 647 
L 534 1741 
Q 534 2213 506 2350 
Q 484 2453 437 2492 
Q 391 2531 309 2531 
Q 222 2531 100 2484 
L 53 2597 
L 916 2947 
L 1050 2947 
L 1050 2338 
z
" transform="scale(0.015625)"/>
       <path id="TimesNewRomanPSMT-6c" d="M 1184 4444 
L 1184 647 
Q 1184 378 1223 290 
Q 1263 203 1344 158 
Q 1425 113 1647 113 
L 1647 0 
L 244 0 
L 244 113 
Q 441 113 512 153 
Q 584 194 625 287 
Q 666 381 666 647 
L 666 3247 
Q 666 3731 644 3842 
Q 622 3953 573 3993 
Q 525 4034 450 4034 
Q 369 4034 244 3984 
L 191 4094 
L 1044 4444 
L 1184 4444 
z
" transform="scale(0.015625)"/>
       <path id="TimesNewRomanPSMT-61" d="M 1822 413 
Q 1381 72 1269 19 
Q 1100 -59 909 -59 
Q 613 -59 420 144 
Q 228 347 228 678 
Q 228 888 322 1041 
Q 450 1253 767 1440 
Q 1084 1628 1822 1897 
L 1822 2009 
Q 1822 2438 1686 2597 
Q 1550 2756 1291 2756 
Q 1094 2756 978 2650 
Q 859 2544 859 2406 
L 866 2225 
Q 866 2081 792 2003 
Q 719 1925 600 1925 
Q 484 1925 411 2006 
Q 338 2088 338 2228 
Q 338 2497 613 2722 
Q 888 2947 1384 2947 
Q 1766 2947 2009 2819 
Q 2194 2722 2281 2516 
Q 2338 2381 2338 1966 
L 2338 994 
Q 2338 584 2353 492 
Q 2369 400 2405 369 
Q 2441 338 2488 338 
Q 2538 338 2575 359 
Q 2641 400 2828 588 
L 2828 413 
Q 2478 -56 2159 -56 
Q 2006 -56 1915 50 
Q 1825 156 1822 413 
z
M 1822 616 
L 1822 1706 
Q 1350 1519 1213 1441 
Q 966 1303 859 1153 
Q 753 1003 753 825 
Q 753 600 887 451 
Q 1022 303 1197 303 
Q 1434 303 1822 616 
z
" transform="scale(0.015625)"/>
       <path id="TimesNewRomanPSMT-74" d="M 1031 3803 
L 1031 2863 
L 1700 2863 
L 1700 2644 
L 1031 2644 
L 1031 788 
Q 1031 509 1111 412 
Q 1191 316 1316 316 
Q 1419 316 1516 380 
Q 1613 444 1666 569 
L 1788 569 
Q 1678 263 1478 108 
Q 1278 -47 1066 -47 
Q 922 -47 784 33 
Q 647 113 581 261 
Q 516 409 516 719 
L 516 2644 
L 63 2644 
L 63 2747 
Q 234 2816 414 2980 
Q 594 3144 734 3369 
Q 806 3488 934 3803 
L 1031 3803 
z
" transform="scale(0.015625)"/>
       <path id="TimesNewRomanPSMT-65" d="M 681 1784 
Q 678 1147 991 784 
Q 1303 422 1725 422 
Q 2006 422 2214 576 
Q 2422 731 2563 1106 
L 2659 1044 
Q 2594 616 2278 264 
Q 1963 -88 1488 -88 
Q 972 -88 605 314 
Q 238 716 238 1394 
Q 238 2128 614 2539 
Q 991 2950 1559 2950 
Q 2041 2950 2350 2633 
Q 2659 2316 2659 1784 
L 681 1784 
z
M 681 1966 
L 2006 1966 
Q 1991 2241 1941 2353 
Q 1863 2528 1708 2628 
Q 1553 2728 1384 2728 
Q 1125 2728 920 2526 
Q 716 2325 681 1966 
z
" transform="scale(0.015625)"/>
       <path id="TimesNewRomanPSMT-64" d="M 2222 322 
Q 2013 103 1813 7 
Q 1613 -88 1381 -88 
Q 913 -88 563 304 
Q 213 697 213 1313 
Q 213 1928 600 2439 
Q 988 2950 1597 2950 
Q 1975 2950 2222 2709 
L 2222 3238 
Q 2222 3728 2198 3840 
Q 2175 3953 2125 3993 
Q 2075 4034 2000 4034 
Q 1919 4034 1784 3984 
L 1744 4094 
L 2597 4444 
L 2738 4444 
L 2738 1134 
Q 2738 631 2761 520 
Q 2784 409 2836 365 
Q 2888 322 2956 322 
Q 3041 322 3181 375 
L 3216 266 
L 2366 -88 
L 2222 -88 
L 2222 322 
z
M 2222 541 
L 2222 2016 
Q 2203 2228 2109 2403 
Q 2016 2578 1861 2667 
Q 1706 2756 1559 2756 
Q 1284 2756 1069 2509 
Q 784 2184 784 1559 
Q 784 928 1059 592 
Q 1334 256 1672 256 
Q 1956 256 2222 541 
z
" transform="scale(0.015625)"/>
       <path id="TimesNewRomanPSMT-20" transform="scale(0.015625)"/>
       <path id="TimesNewRomanPSMT-54" d="M 3703 4238 
L 3750 3244 
L 3631 3244 
Q 3597 3506 3538 3619 
Q 3441 3800 3280 3886 
Q 3119 3972 2856 3972 
L 2259 3972 
L 2259 734 
Q 2259 344 2344 247 
Q 2463 116 2709 116 
L 2856 116 
L 2856 0 
L 1059 0 
L 1059 116 
L 1209 116 
Q 1478 116 1591 278 
Q 1659 378 1659 734 
L 1659 3972 
L 1150 3972 
Q 853 3972 728 3928 
Q 566 3869 450 3700 
Q 334 3531 313 3244 
L 194 3244 
L 244 4238 
L 3703 4238 
z
" transform="scale(0.015625)"/>
       <path id="TimesNewRomanPSMT-72" d="M 1038 2947 
L 1038 2303 
Q 1397 2947 1775 2947 
Q 1947 2947 2059 2842 
Q 2172 2738 2172 2600 
Q 2172 2478 2090 2393 
Q 2009 2309 1897 2309 
Q 1788 2309 1652 2417 
Q 1516 2525 1450 2525 
Q 1394 2525 1328 2463 
Q 1188 2334 1038 2041 
L 1038 669 
Q 1038 431 1097 309 
Q 1138 225 1241 169 
Q 1344 113 1538 113 
L 1538 0 
L 72 0 
L 72 113 
Q 291 113 397 181 
Q 475 231 506 341 
Q 522 394 522 644 
L 522 1753 
Q 522 2253 501 2348 
Q 481 2444 426 2487 
Q 372 2531 291 2531 
Q 194 2531 72 2484 
L 41 2597 
L 906 2947 
L 1038 2947 
z
" transform="scale(0.015625)"/>
       <path id="TimesNewRomanPSMT-69" d="M 928 4444 
Q 1059 4444 1151 4351 
Q 1244 4259 1244 4128 
Q 1244 3997 1151 3903 
Q 1059 3809 928 3809 
Q 797 3809 703 3903 
Q 609 3997 609 4128 
Q 609 4259 701 4351 
Q 794 4444 928 4444 
z
M 1188 2947 
L 1188 647 
Q 1188 378 1227 289 
Q 1266 200 1342 156 
Q 1419 113 1622 113 
L 1622 0 
L 231 0 
L 231 113 
Q 441 113 512 153 
Q 584 194 626 287 
Q 669 381 669 647 
L 669 1750 
Q 669 2216 641 2353 
Q 619 2453 572 2492 
Q 525 2531 444 2531 
Q 356 2531 231 2484 
L 188 2597 
L 1050 2947 
L 1188 2947 
z
" transform="scale(0.015625)"/>
       <path id="TimesNewRomanPSMT-6e" d="M 1034 2341 
Q 1538 2947 1994 2947 
Q 2228 2947 2397 2830 
Q 2566 2713 2666 2444 
Q 2734 2256 2734 1869 
L 2734 647 
Q 2734 375 2778 278 
Q 2813 200 2889 156 
Q 2966 113 3172 113 
L 3172 0 
L 1756 0 
L 1756 113 
L 1816 113 
Q 2016 113 2095 173 
Q 2175 234 2206 353 
Q 2219 400 2219 647 
L 2219 1819 
Q 2219 2209 2117 2386 
Q 2016 2563 1775 2563 
Q 1403 2563 1034 2156 
L 1034 647 
Q 1034 356 1069 288 
Q 1113 197 1189 155 
Q 1266 113 1500 113 
L 1500 0 
L 84 0 
L 84 113 
L 147 113 
Q 366 113 442 223 
Q 519 334 519 647 
L 519 1709 
Q 519 2225 495 2337 
Q 472 2450 423 2490 
Q 375 2531 294 2531 
Q 206 2531 84 2484 
L 38 2597 
L 900 2947 
L 1034 2947 
L 1034 2341 
z
" transform="scale(0.015625)"/>
       <path id="TimesNewRomanPSMT-5b" d="M 1900 -1269 
L 525 -1269 
L 525 4334 
L 1900 4334 
L 1900 4088 
L 994 4088 
L 994 -1025 
L 1900 -1025 
L 1900 -1269 
z
" transform="scale(0.015625)"/>
       <path id="TimesNewRomanPSMT-73" d="M 2050 2947 
L 2050 1972 
L 1947 1972 
Q 1828 2431 1642 2597 
Q 1456 2763 1169 2763 
Q 950 2763 815 2647 
Q 681 2531 681 2391 
Q 681 2216 781 2091 
Q 878 1963 1175 1819 
L 1631 1597 
Q 2266 1288 2266 781 
Q 2266 391 1970 151 
Q 1675 -88 1309 -88 
Q 1047 -88 709 6 
Q 606 38 541 38 
Q 469 38 428 -44 
L 325 -44 
L 325 978 
L 428 978 
Q 516 541 762 319 
Q 1009 97 1316 97 
Q 1531 97 1667 223 
Q 1803 350 1803 528 
Q 1803 744 1651 891 
Q 1500 1038 1047 1263 
Q 594 1488 453 1669 
Q 313 1847 313 2119 
Q 313 2472 555 2709 
Q 797 2947 1181 2947 
Q 1350 2947 1591 2875 
Q 1750 2828 1803 2828 
Q 1853 2828 1881 2850 
Q 1909 2872 1947 2947 
L 2050 2947 
z
" transform="scale(0.015625)"/>
       <path id="TimesNewRomanPSMT-5d" d="M 234 4334 
L 1609 4334 
L 1609 -1272 
L 234 -1272 
L 234 -1025 
L 1141 -1025 
L 1141 4088 
L 234 4088 
L 234 4334 
z
" transform="scale(0.015625)"/>
      </defs>
      <use xlink:href="#TimesNewRomanPSMT-41"/>
      <use xlink:href="#TimesNewRomanPSMT-63" transform="translate(72.216797 0)"/>
      <use xlink:href="#TimesNewRomanPSMT-63" transform="translate(116.601562 0)"/>
      <use xlink:href="#TimesNewRomanPSMT-75" transform="translate(160.986328 0)"/>
      <use xlink:href="#TimesNewRomanPSMT-6d" transform="translate(210.986328 0)"/>
      <use xlink:href="#TimesNewRomanPSMT-75" transform="translate(288.769531 0)"/>
      <use xlink:href="#TimesNewRomanPSMT-6c" transform="translate(338.769531 0)"/>
      <use xlink:href="#TimesNewRomanPSMT-61" transform="translate(366.552734 0)"/>
      <use xlink:href="#TimesNewRomanPSMT-74" transform="translate(410.9375 0)"/>
      <use xlink:href="#TimesNewRomanPSMT-65" transform="translate(438.720703 0)"/>
      <use xlink:href="#TimesNewRomanPSMT-64" transform="translate(483.105469 0)"/>
      <use xlink:href="#TimesNewRomanPSMT-20" transform="translate(533.105469 0)"/>
      <use xlink:href="#TimesNewRomanPSMT-54" transform="translate(556.355469 0)"/>
      <use xlink:href="#TimesNewRomanPSMT-72" transform="translate(613.939453 0)"/>
      <use xlink:href="#TimesNewRomanPSMT-61" transform="translate(647.240234 0)"/>
      <use xlink:href="#TimesNewRomanPSMT-69" transform="translate(691.625 0)"/>
      <use xlink:href="#TimesNewRomanPSMT-6e" transform="translate(719.408203 0)"/>
      <use xlink:href="#TimesNewRomanPSMT-20" transform="translate(769.408203 0)"/>
      <use xlink:href="#TimesNewRomanPSMT-54" transform="translate(792.658203 0)"/>
      <use xlink:href="#TimesNewRomanPSMT-69" transform="translate(850.242188 0)"/>
      <use xlink:href="#TimesNewRomanPSMT-6d" transform="translate(878.025391 0)"/>
      <use xlink:href="#TimesNewRomanPSMT-65" transform="translate(955.808594 0)"/>
      <use xlink:href="#TimesNewRomanPSMT-20" transform="translate(1000.193359 0)"/>
      <use xlink:href="#TimesNewRomanPSMT-5b" transform="translate(1025.193359 0)"/>
      <use xlink:href="#TimesNewRomanPSMT-73" transform="translate(1058.494141 0)"/>
      <use xlink:href="#TimesNewRomanPSMT-5d" transform="translate(1097.410156 0)"/>
     </g>
    </g>
   </g>
   <g id="matplotlib.axis_2">
    <g id="ytick_1">
     <g id="line2d_6">
      <defs>
       <path id="me6d81b0500" d="M 0 0 
L 3.5 0 
" style="stroke: #000000; stroke-width: 0.8"/>
      </defs>
      <g>
       <use xlink:href="#me6d81b0500" x="43.145156" y="166.455808" style="stroke: #000000; stroke-width: 0.8"/>
      </g>
     </g>
     <g id="text_7">
      <!-- −5.5 -->
      <g transform="translate(23.32 169.580495) scale(0.09 -0.09)">
       <defs>
        <path id="TimesNewRomanPSMT-2212" d="M 3484 2000 
L 116 2000 
L 116 2256 
L 3484 2256 
L 3484 2000 
z
" transform="scale(0.015625)"/>
        <path id="TimesNewRomanPSMT-35" d="M 2778 4238 
L 2534 3706 
L 1259 3706 
L 981 3138 
Q 1809 3016 2294 2522 
Q 2709 2097 2709 1522 
Q 2709 1188 2573 903 
Q 2438 619 2231 419 
Q 2025 219 1772 97 
Q 1413 -75 1034 -75 
Q 653 -75 479 54 
Q 306 184 306 341 
Q 306 428 378 495 
Q 450 563 559 563 
Q 641 563 702 538 
Q 763 513 909 409 
Q 1144 247 1384 247 
Q 1750 247 2026 523 
Q 2303 800 2303 1197 
Q 2303 1581 2056 1914 
Q 1809 2247 1375 2428 
Q 1034 2569 447 2591 
L 1259 4238 
L 2778 4238 
z
" transform="scale(0.015625)"/>
        <path id="TimesNewRomanPSMT-2e" d="M 800 606 
Q 947 606 1047 504 
Q 1147 403 1147 259 
Q 1147 116 1045 14 
Q 944 -88 800 -88 
Q 656 -88 554 14 
Q 453 116 453 259 
Q 453 406 554 506 
Q 656 606 800 606 
z
" transform="scale(0.015625)"/>
       </defs>
       <use xlink:href="#TimesNewRomanPSMT-2212"/>
       <use xlink:href="#TimesNewRomanPSMT-35" transform="translate(56.396484 0)"/>
       <use xlink:href="#TimesNewRomanPSMT-2e" transform="translate(106.396484 0)"/>
       <use xlink:href="#TimesNewRomanPSMT-35" transform="translate(131.396484 0)"/>
      </g>
     </g>
    </g>
    <g id="ytick_2">
     <g id="line2d_7">
      <g>
       <use xlink:href="#me6d81b0500" x="43.145156" y="146.31142" style="stroke: #000000; stroke-width: 0.8"/>
      </g>
     </g>
     <g id="text_8">
      <!-- −5.0 -->
      <g transform="translate(23.32 149.436107) scale(0.09 -0.09)">
       <use xlink:href="#TimesNewRomanPSMT-2212"/>
       <use xlink:href="#TimesNewRomanPSMT-35" transform="translate(56.396484 0)"/>
       <use xlink:href="#TimesNewRomanPSMT-2e" transform="translate(106.396484 0)"/>
       <use xlink:href="#TimesNewRomanPSMT-30" transform="translate(131.396484 0)"/>
      </g>
     </g>
    </g>
    <g id="ytick_3">
     <g id="line2d_8">
      <g>
       <use xlink:href="#me6d81b0500" x="43.145156" y="126.167032" style="stroke: #000000; stroke-width: 0.8"/>
      </g>
     </g>
     <g id="text_9">
      <!-- −4.5 -->
      <g transform="translate(23.32 129.291719) scale(0.09 -0.09)">
       <use xlink:href="#TimesNewRomanPSMT-2212"/>
       <use xlink:href="#TimesNewRomanPSMT-34" transform="translate(56.396484 0)"/>
       <use xlink:href="#TimesNewRomanPSMT-2e" transform="translate(106.396484 0)"/>
       <use xlink:href="#TimesNewRomanPSMT-35" transform="translate(131.396484 0)"/>
      </g>
     </g>
    </g>
    <g id="ytick_4">
     <g id="line2d_9">
      <g>
       <use xlink:href="#me6d81b0500" x="43.145156" y="106.022644" style="stroke: #000000; stroke-width: 0.8"/>
      </g>
     </g>
     <g id="text_10">
      <!-- −4.0 -->
      <g transform="translate(23.32 109.147331) scale(0.09 -0.09)">
       <use xlink:href="#TimesNewRomanPSMT-2212"/>
       <use xlink:href="#TimesNewRomanPSMT-34" transform="translate(56.396484 0)"/>
       <use xlink:href="#TimesNewRomanPSMT-2e" transform="translate(106.396484 0)"/>
       <use xlink:href="#TimesNewRomanPSMT-30" transform="translate(131.396484 0)"/>
      </g>
     </g>
    </g>
    <g id="ytick_5">
     <g id="line2d_10">
      <g>
       <use xlink:href="#me6d81b0500" x="43.145156" y="85.878255" style="stroke: #000000; stroke-width: 0.8"/>
      </g>
     </g>
     <g id="text_11">
      <!-- −3.5 -->
      <g transform="translate(23.32 89.002943) scale(0.09 -0.09)">
       <defs>
        <path id="TimesNewRomanPSMT-33" d="M 325 3431 
Q 506 3859 782 4092 
Q 1059 4325 1472 4325 
Q 1981 4325 2253 3994 
Q 2459 3747 2459 3466 
Q 2459 3003 1878 2509 
Q 2269 2356 2469 2072 
Q 2669 1788 2669 1403 
Q 2669 853 2319 450 
Q 1863 -75 997 -75 
Q 569 -75 414 31 
Q 259 138 259 259 
Q 259 350 332 419 
Q 406 488 509 488 
Q 588 488 669 463 
Q 722 447 909 348 
Q 1097 250 1169 231 
Q 1284 197 1416 197 
Q 1734 197 1970 444 
Q 2206 691 2206 1028 
Q 2206 1275 2097 1509 
Q 2016 1684 1919 1775 
Q 1784 1900 1550 2001 
Q 1316 2103 1072 2103 
L 972 2103 
L 972 2197 
Q 1219 2228 1467 2375 
Q 1716 2522 1828 2728 
Q 1941 2934 1941 3181 
Q 1941 3503 1739 3701 
Q 1538 3900 1238 3900 
Q 753 3900 428 3381 
L 325 3431 
z
" transform="scale(0.015625)"/>
       </defs>
       <use xlink:href="#TimesNewRomanPSMT-2212"/>
       <use xlink:href="#TimesNewRomanPSMT-33" transform="translate(56.396484 0)"/>
       <use xlink:href="#TimesNewRomanPSMT-2e" transform="translate(106.396484 0)"/>
       <use xlink:href="#TimesNewRomanPSMT-35" transform="translate(131.396484 0)"/>
      </g>
     </g>
    </g>
    <g id="ytick_6">
     <g id="line2d_11">
      <g>
       <use xlink:href="#me6d81b0500" x="43.145156" y="65.733867" style="stroke: #000000; stroke-width: 0.8"/>
      </g>
     </g>
     <g id="text_12">
      <!-- −3.0 -->
      <g transform="translate(23.32 68.858555) scale(0.09 -0.09)">
       <use xlink:href="#TimesNewRomanPSMT-2212"/>
       <use xlink:href="#TimesNewRomanPSMT-33" transform="translate(56.396484 0)"/>
       <use xlink:href="#TimesNewRomanPSMT-2e" transform="translate(106.396484 0)"/>
       <use xlink:href="#TimesNewRomanPSMT-30" transform="translate(131.396484 0)"/>
      </g>
     </g>
    </g>
    <g id="ytick_7">
     <g id="line2d_12">
      <g>
       <use xlink:href="#me6d81b0500" x="43.145156" y="45.589479" style="stroke: #000000; stroke-width: 0.8"/>
      </g>
     </g>
     <g id="text_13">
      <!-- −2.5 -->
      <g transform="translate(23.32 48.714167) scale(0.09 -0.09)">
       <use xlink:href="#TimesNewRomanPSMT-2212"/>
       <use xlink:href="#TimesNewRomanPSMT-32" transform="translate(56.396484 0)"/>
       <use xlink:href="#TimesNewRomanPSMT-2e" transform="translate(106.396484 0)"/>
       <use xlink:href="#TimesNewRomanPSMT-35" transform="translate(131.396484 0)"/>
      </g>
     </g>
    </g>
    <g id="ytick_8">
     <g id="line2d_13">
      <g>
       <use xlink:href="#me6d81b0500" x="43.145156" y="25.445091" style="stroke: #000000; stroke-width: 0.8"/>
      </g>
     </g>
     <g id="text_14">
      <!-- −2.0 -->
      <g transform="translate(23.32 28.569779) scale(0.09 -0.09)">
       <use xlink:href="#TimesNewRomanPSMT-2212"/>
       <use xlink:href="#TimesNewRomanPSMT-32" transform="translate(56.396484 0)"/>
       <use xlink:href="#TimesNewRomanPSMT-2e" transform="translate(106.396484 0)"/>
       <use xlink:href="#TimesNewRomanPSMT-30" transform="translate(131.396484 0)"/>
      </g>
     </g>
    </g>
    <g id="text_15">
     <!-- $\log (|\Delta W|/|W_0)$ -->
     <g transform="translate(16.44 136.386) rotate(-90) scale(0.12 -0.12)">
      <defs>
       <path id="DejaVuSerif-6c" d="M 1313 331 
L 1856 331 
L 1856 0 
L 184 0 
L 184 331 
L 738 331 
L 738 4531 
L 184 4531 
L 184 4863 
L 1313 4863 
L 1313 331 
z
" transform="scale(0.015625)"/>
       <path id="DejaVuSerif-6f" d="M 1925 219 
Q 2388 219 2623 584 
Q 2859 950 2859 1663 
Q 2859 2375 2623 2739 
Q 2388 3103 1925 3103 
Q 1463 3103 1227 2739 
Q 991 2375 991 1663 
Q 991 950 1228 584 
Q 1466 219 1925 219 
z
M 1925 -91 
Q 1200 -91 759 389 
Q 319 869 319 1663 
Q 319 2456 758 2934 
Q 1197 3413 1925 3413 
Q 2653 3413 3092 2934 
Q 3531 2456 3531 1663 
Q 3531 869 3092 389 
Q 2653 -91 1925 -91 
z
" transform="scale(0.015625)"/>
       <path id="DejaVuSerif-67" d="M 3359 2988 
L 3359 72 
Q 3359 -644 2965 -1033 
Q 2572 -1422 1844 -1422 
Q 1516 -1422 1216 -1362 
Q 916 -1303 641 -1184 
L 641 -488 
L 941 -488 
Q 997 -813 1206 -963 
Q 1416 -1113 1806 -1113 
Q 2313 -1113 2548 -827 
Q 2784 -541 2784 72 
L 2784 519 
Q 2616 206 2355 57 
Q 2094 -91 1709 -91 
Q 1097 -91 708 395 
Q 319 881 319 1663 
Q 319 2444 706 2928 
Q 1094 3413 1709 3413 
Q 2094 3413 2355 3264 
Q 2616 3116 2784 2803 
L 2784 3322 
L 3909 3322 
L 3909 2988 
L 3359 2988 
z
M 2784 1825 
Q 2784 2422 2554 2737 
Q 2325 3053 1888 3053 
Q 1444 3053 1217 2703 
Q 991 2353 991 1663 
Q 991 975 1217 622 
Q 1444 269 1888 269 
Q 2325 269 2554 583 
Q 2784 897 2784 1497 
L 2784 1825 
z
" transform="scale(0.015625)"/>
       <path id="DejaVuSerif-28" d="M 2041 -997 
Q 1281 -656 893 83 
Q 506 822 506 1931 
Q 506 3044 893 3783 
Q 1281 4522 2041 4863 
L 2041 4556 
Q 1559 4225 1350 3623 
Q 1141 3022 1141 1931 
Q 1141 844 1350 242 
Q 1559 -359 2041 -691 
L 2041 -997 
z
" transform="scale(0.015625)"/>
       <path id="DejaVuSerif-7c" d="M 1331 4891 
L 1331 -1509 
L 825 -1509 
L 825 4891 
L 1331 4891 
z
" transform="scale(0.015625)"/>
       <path id="DejaVuSerif-394" d="M 4350 0 
L 244 0 
L 2034 4666 
L 2559 4666 
L 4350 0 
z
M 3506 331 
L 2138 3909 
L 763 331 
L 3506 331 
z
" transform="scale(0.015625)"/>
       <path id="DejaVuSerif-Italic-57" d="M 4425 0 
L 3913 0 
L 3581 3794 
L 1775 0 
L 1263 0 
L 881 4331 
L 419 4331 
L 484 4666 
L 2188 4666 
L 2122 4331 
L 1541 4331 
L 1844 884 
L 3641 4666 
L 4147 4666 
L 4484 844 
L 6141 4331 
L 5603 4331 
L 5669 4666 
L 7013 4666 
L 6947 4331 
L 6488 4331 
L 4425 0 
z
" transform="scale(0.015625)"/>
       <path id="DejaVuSerif-2f" d="M 1656 4666 
L 2156 4666 
L 500 -594 
L 0 -594 
L 1656 4666 
z
" transform="scale(0.015625)"/>
       <path id="DejaVuSerif-30" d="M 2034 219 
Q 2513 219 2750 744 
Q 2988 1269 2988 2328 
Q 2988 3391 2750 3916 
Q 2513 4441 2034 4441 
Q 1556 4441 1318 3916 
Q 1081 3391 1081 2328 
Q 1081 1269 1318 744 
Q 1556 219 2034 219 
z
M 2034 -91 
Q 1275 -91 848 546 
Q 422 1184 422 2328 
Q 422 3475 848 4112 
Q 1275 4750 2034 4750 
Q 2797 4750 3222 4112 
Q 3647 3475 3647 2328 
Q 3647 1184 3222 546 
Q 2797 -91 2034 -91 
z
" transform="scale(0.015625)"/>
       <path id="DejaVuSerif-29" d="M 453 -997 
L 453 -691 
Q 934 -359 1145 242 
Q 1356 844 1356 1931 
Q 1356 3022 1145 3623 
Q 934 4225 453 4556 
L 453 4863 
Q 1216 4522 1603 3783 
Q 1991 3044 1991 1931 
Q 1991 822 1603 83 
Q 1216 -656 453 -997 
z
" transform="scale(0.015625)"/>
      </defs>
      <use xlink:href="#DejaVuSerif-6c" transform="translate(0 0.578125)"/>
      <use xlink:href="#DejaVuSerif-6f" transform="translate(31.982422 0.578125)"/>
      <use xlink:href="#DejaVuSerif-67" transform="translate(92.1875 0.578125)"/>
      <use xlink:href="#DejaVuSerif-28" transform="translate(156.201172 0.578125)"/>
      <use xlink:href="#DejaVuSerif-7c" transform="translate(195.214844 0.578125)"/>
      <use xlink:href="#DejaVuSerif-394" transform="translate(228.90625 0.578125)"/>
      <use xlink:href="#DejaVuSerif-Italic-57" transform="translate(301.123047 0.578125)"/>
      <use xlink:href="#DejaVuSerif-7c" transform="translate(403.90625 0.578125)"/>
      <use xlink:href="#DejaVuSerif-2f" transform="translate(437.597656 0.578125)"/>
      <use xlink:href="#DejaVuSerif-7c" transform="translate(471.289062 0.578125)"/>
      <use xlink:href="#DejaVuSerif-Italic-57" transform="translate(504.980469 0.578125)"/>
      <use xlink:href="#DejaVuSerif-30" transform="translate(607.763672 -14.99375) scale(0.7)"/>
      <use xlink:href="#DejaVuSerif-29" transform="translate(654.895117 0.578125)"/>
     </g>
    </g>
   </g>
   <g id="line2d_14">
    <path d="M 62.578444 23.84659 
L 62.770853 20.980083 
L 62.963262 41.159428 
L 63.155671 47.098497 
L 63.348079 35.92758 
L 63.540488 36.906648 
L 63.732897 24.298502 
L 63.925306 28.68222 
L 64.117714 26.272454 
L 64.310123 15.396946 
L 64.694941 24.09877 
L 64.88735 24.172667 
L 65.079758 30.626287 
L 65.272167 15.158727 
L 65.464576 19.312154 
L 65.656985 25.956247 
L 65.849394 25.251668 
L 66.041802 31.030441 
L 66.234211 42.972487 
L 66.42662 34.748507 
L 66.619029 15.786411 
L 67.003846 23.325635 
L 67.196255 29.099914 
L 67.388664 22.913162 
L 67.581073 22.187184 
L 67.773482 19.301209 
L 67.96589 28.356954 
L 68.158299 17.760868 
L 68.543117 27.924654 
L 68.735525 23.20356 
L 68.927934 31.829965 
L 69.120343 32.694142 
L 69.312752 44.335572 
L 69.889978 27.256545 
L 70.082387 36.687091 
L 70.274796 33.209609 
L 70.467205 37.748144 
L 70.852022 27.797441 
L 71.044431 42.331676 
L 71.429249 26.215489 
L 71.621657 38.018223 
L 71.814066 30.879627 
L 72.198884 26.477624 
L 72.391293 34.450217 
L 72.583701 24.757367 
L 72.968519 33.446624 
L 73.160928 25.776637 
L 73.353336 25.636539 
L 73.545745 23.875558 
L 73.738154 32.545828 
L 73.930563 32.01415 
L 74.122972 22.27079 
L 74.31538 22.793837 
L 74.507789 37.729316 
L 74.700198 22.053599 
L 74.892607 32.67242 
L 75.085016 34.903791 
L 75.277424 34.775099 
L 75.469833 35.448665 
L 75.662242 32.15701 
L 76.04706 37.474447 
L 76.239468 25.071796 
L 76.431877 27.965816 
L 76.624286 36.067184 
L 76.816695 28.265937 
L 77.009104 32.684659 
L 77.201512 27.082895 
L 77.393921 34.091899 
L 77.58633 34.220507 
L 77.971147 23.576928 
L 78.163556 50.709259 
L 78.355965 44.694889 
L 78.548374 54.12994 
L 78.740783 43.26041 
L 78.933191 43.366459 
L 79.1256 41.104406 
L 79.318009 71.318858 
L 79.510418 39.458049 
L 79.702827 54.122313 
L 79.895235 60.296542 
L 80.087644 59.738288 
L 80.280053 50.712316 
L 80.472462 64.704311 
L 80.664871 56.015302 
L 80.857279 62.389157 
L 81.049688 48.012974 
L 81.242097 42.649478 
L 81.434506 56.080215 
L 81.626914 50.070527 
L 81.819323 58.695578 
L 82.011732 41.702112 
L 82.204141 50.911375 
L 82.39655 50.636053 
L 82.588958 63.19716 
L 82.781367 50.42404 
L 82.973776 45.452152 
L 83.358594 68.348235 
L 83.551002 54.270783 
L 83.743411 62.115916 
L 83.93582 54.022946 
L 84.128229 53.106021 
L 84.320638 60.859367 
L 84.705455 52.380898 
L 84.897864 57.081417 
L 85.090273 56.147767 
L 85.282682 48.52974 
L 85.47509 62.413276 
L 85.667499 48.54147 
L 85.859908 57.217639 
L 86.052317 51.781663 
L 86.244725 41.246627 
L 86.437134 64.081067 
L 86.629543 57.12796 
L 86.821952 55.881488 
L 87.014361 49.835781 
L 87.206769 52.567613 
L 87.591587 68.359592 
L 87.976405 51.275352 
L 88.168813 58.334451 
L 88.361222 47.482674 
L 88.553631 61.272722 
L 88.74604 62.581627 
L 88.938449 51.16894 
L 89.130857 60.76979 
L 89.323266 51.835577 
L 89.515675 52.130834 
L 89.708084 58.607752 
L 89.900493 52.557835 
L 90.092901 64.307057 
L 90.28531 65.72832 
L 90.477719 55.950838 
L 90.670128 60.360926 
L 90.862536 54.456708 
L 91.054945 76.287393 
L 91.247354 63.075017 
L 91.439763 67.883675 
L 91.632172 65.120477 
L 91.82458 70.421557 
L 92.016989 57.576258 
L 92.209398 55.734458 
L 92.401807 57.395925 
L 92.786624 68.112886 
L 92.979033 61.996968 
L 93.363851 67.5517 
L 93.55626 95.597146 
L 93.748668 74.493293 
L 93.941077 73.110276 
L 94.133486 68.801929 
L 94.325895 67.307261 
L 94.518304 72.327169 
L 94.710712 72.305686 
L 94.903121 62.702788 
L 95.287939 83.946329 
L 95.480347 82.614418 
L 95.672756 73.911355 
L 96.057574 86.602127 
L 96.249983 88.785323 
L 96.442391 79.112196 
L 96.6348 75.414861 
L 96.827209 77.320574 
L 97.019618 71.990526 
L 97.212027 74.156185 
L 97.404435 73.706599 
L 97.596844 62.096086 
L 97.789253 85.909879 
L 97.981662 76.997608 
L 98.174071 73.907625 
L 98.366479 77.13998 
L 98.558888 73.457745 
L 98.751297 80.752102 
L 98.943706 80.256142 
L 99.136114 79.319584 
L 99.328523 72.701587 
L 99.520932 70.799577 
L 99.713341 79.755648 
L 99.90575 77.704428 
L 100.098158 71.768563 
L 100.290567 71.262512 
L 100.482976 78.22465 
L 100.675385 74.571952 
L 100.867794 83.808631 
L 101.060202 81.555879 
L 101.44502 71.766098 
L 101.637429 85.023505 
L 101.829838 71.699708 
L 102.022246 88.840813 
L 102.214655 63.17632 
L 102.407064 76.313627 
L 102.599473 74.186301 
L 102.791882 89.968606 
L 102.98429 60.170375 
L 103.176699 79.665048 
L 103.369108 78.881129 
L 103.561517 73.337612 
L 103.753925 71.945236 
L 103.946334 68.86525 
L 104.138743 84.22876 
L 104.331152 82.721672 
L 104.523561 68.31543 
L 104.908378 82.7198 
L 105.100787 71.970209 
L 105.293196 84.152353 
L 105.485605 66.62717 
L 105.678013 64.699508 
L 105.870422 70.021064 
L 106.062831 71.713738 
L 106.25524 74.605475 
L 106.640057 66.620233 
L 106.832466 90.608765 
L 107.217284 71.369111 
L 107.409693 71.009528 
L 107.602101 73.246285 
L 107.79451 66.7396 
L 107.986919 82.093619 
L 108.371736 74.410469 
L 108.756554 73.457426 
L 108.948963 113.190343 
L 109.141372 90.942444 
L 109.33378 87.053927 
L 109.526189 99.120246 
L 109.718598 82.965835 
L 109.911007 88.705645 
L 110.103416 103.754747 
L 110.295824 87.222442 
L 110.680642 124.175478 
L 111.06546 99.322002 
L 111.257868 107.401325 
L 111.450277 90.021374 
L 111.642686 106.853462 
L 112.027504 95.069154 
L 112.412321 99.311245 
L 112.60473 90.668924 
L 112.797139 99.476259 
L 113.181956 89.786554 
L 113.374365 103.023011 
L 113.566774 91.812471 
L 113.759183 91.366555 
L 114.144 96.383035 
L 114.336409 86.260887 
L 114.528818 87.868521 
L 114.721227 99.426885 
L 114.913635 96.64934 
L 115.106044 97.043547 
L 115.298453 83.56539 
L 115.683271 91.258339 
L 115.875679 87.408652 
L 116.068088 93.153384 
L 116.260497 90.578743 
L 116.452906 80.421781 
L 116.645314 83.996342 
L 116.837723 75.404496 
L 117.030132 78.385028 
L 117.222541 72.802796 
L 117.41495 75.724213 
L 117.607358 75.235889 
L 117.799767 79.163413 
L 117.992176 77.795282 
L 118.184585 80.825413 
L 118.376994 81.611226 
L 118.761811 89.414981 
L 118.95422 81.21877 
L 119.146629 89.848687 
L 119.339038 85.174244 
L 119.531446 97.869875 
L 119.723855 86.946488 
L 119.916264 92.59828 
L 120.108673 87.439742 
L 120.301082 95.98374 
L 120.49349 96.909977 
L 120.685899 92.06817 
L 120.878308 90.385823 
L 121.070717 85.717177 
L 121.263125 100.633646 
L 121.455534 101.381712 
L 121.647943 93.021336 
L 121.840352 93.768726 
L 122.032761 95.296725 
L 122.225169 89.880635 
L 122.417578 91.689615 
L 122.609987 106.821427 
L 122.802396 103.169363 
L 122.994805 88.291112 
L 123.187213 95.281557 
L 123.379622 87.754435 
L 123.572031 86.707943 
L 123.76444 74.997841 
L 124.149257 95.512121 
L 124.341666 126.520002 
L 124.534075 107.660027 
L 124.726484 112.917 
L 125.111301 97.438281 
L 125.30371 112.352103 
L 125.496119 111.570384 
L 125.688528 99.141397 
L 125.880936 123.111694 
L 126.073345 106.250559 
L 126.265754 121.257752 
L 126.650572 114.024244 
L 126.84298 103.554089 
L 127.035389 119.050934 
L 127.227798 109.500815 
L 127.420207 110.465674 
L 127.612616 117.785097 
L 127.805024 106.854613 
L 127.997433 114.039175 
L 128.57466 104.982149 
L 128.767068 105.541298 
L 128.959477 101.169693 
L 129.151886 114.681527 
L 129.344295 97.495513 
L 129.536704 105.974325 
L 129.729112 102.49544 
L 129.921521 121.676382 
L 130.11393 105.82611 
L 130.306339 115.243164 
L 130.498747 112.585982 
L 130.691156 106.460362 
L 130.883565 108.639147 
L 131.075974 106.286443 
L 131.268383 105.686521 
L 131.460791 96.395587 
L 131.845609 104.940819 
L 132.038018 90.539764 
L 132.230427 95.048257 
L 132.422835 94.803271 
L 132.615244 87.201562 
L 132.807653 103.410983 
L 133.000062 82.092506 
L 133.192471 90.699385 
L 133.384879 88.221764 
L 133.577288 91.256135 
L 133.769697 80.238606 
L 133.962106 83.829338 
L 134.154514 96.718452 
L 134.346923 81.537181 
L 134.539332 85.855771 
L 134.731741 87.238921 
L 134.92415 87.671759 
L 135.116558 90.168382 
L 135.308967 79.718781 
L 135.501376 92.910312 
L 136.078602 83.461269 
L 136.271011 87.980357 
L 136.46342 84.752368 
L 136.655829 75.037593 
L 136.848238 86.896899 
L 137.040646 81.581519 
L 137.233055 85.527619 
L 137.425464 85.918277 
L 137.617873 77.581634 
L 137.810282 78.295582 
L 138.00269 84.661632 
L 138.387508 73.064792 
L 138.772325 83.173208 
L 139.157143 75.447748 
L 139.541961 103.428199 
L 139.734369 141.43109 
L 139.926778 120.124892 
L 140.119187 112.078826 
L 140.311596 110.364871 
L 140.504005 103.373357 
L 140.696413 105.334522 
L 140.888822 117.331308 
L 141.081231 97.610635 
L 141.27364 116.43213 
L 141.466049 116.503446 
L 141.658457 112.899822 
L 142.043275 121.518008 
L 142.235684 113.167914 
L 142.428093 116.487034 
L 142.620501 104.826166 
L 143.005319 116.30382 
L 143.197728 118.236629 
L 143.390136 118.3037 
L 143.582545 110.121526 
L 143.774954 117.575588 
L 143.967363 103.391913 
L 144.159772 117.517346 
L 144.35218 105.380957 
L 144.544589 118.415525 
L 144.736998 123.918909 
L 144.929407 114.632945 
L 145.121816 115.037847 
L 145.314224 113.458513 
L 145.506633 115.940237 
L 145.699042 115.447591 
L 145.891451 110.856622 
L 146.08386 120.135376 
L 146.468677 100.773257 
L 146.661086 106.676939 
L 146.853495 104.733152 
L 147.045904 94.318067 
L 147.238312 105.487909 
L 147.430721 100.833701 
L 147.62313 108.21398 
L 147.815539 91.399976 
L 148.007947 99.529047 
L 148.200356 96.211206 
L 148.392765 96.462465 
L 148.585174 97.360389 
L 148.777583 97.008816 
L 148.969991 97.615923 
L 149.1624 85.846317 
L 149.354809 97.069744 
L 149.547218 96.796331 
L 149.739627 93.019564 
L 149.932035 93.587595 
L 150.124444 101.015563 
L 150.316853 94.224661 
L 150.509262 111.13179 
L 150.701671 104.864742 
L 150.894079 93.337202 
L 151.086488 106.524294 
L 151.278897 104.833178 
L 151.471306 100.284903 
L 151.663714 106.210326 
L 151.856123 97.938206 
L 152.048532 105.87285 
L 152.43335 109.209807 
L 153.010576 99.514508 
L 153.202985 108.538976 
L 153.395394 103.511546 
L 153.587802 113.510093 
L 153.97262 86.348803 
L 154.165029 92.797466 
L 154.357438 93.079682 
L 154.549846 97.812913 
L 154.934664 119.090143 
L 155.127073 137.688556 
L 155.319482 119.285648 
L 155.51189 134.830133 
L 155.896708 117.529622 
L 156.089117 127.914596 
L 156.281525 122.652044 
L 156.473934 121.147776 
L 156.666343 128.597002 
L 156.858752 141.358532 
L 157.051161 139.199666 
L 157.243569 120.968317 
L 157.435978 128.909674 
L 157.628387 129.516151 
L 157.820796 117.087055 
L 158.013205 122.511278 
L 158.205613 119.747553 
L 158.398022 123.539291 
L 158.590431 134.686891 
L 158.78284 122.615678 
L 158.975249 131.968887 
L 159.167657 127.463128 
L 159.360066 114.235118 
L 159.552475 113.057415 
L 160.129701 136.652168 
L 160.32211 122.52307 
L 160.514519 135.612839 
L 160.706928 118.240497 
L 161.091745 130.405176 
L 161.284154 115.895749 
L 161.476563 124.439012 
L 161.668972 138.44913 
L 161.86138 126.628947 
L 162.053789 122.903377 
L 162.246198 127.097693 
L 162.438607 120.73237 
L 162.631016 132.353916 
L 162.823424 116.450214 
L 163.208242 115.235228 
L 163.400651 116.810343 
L 163.59306 110.99177 
L 163.785468 116.092141 
L 163.977877 111.275613 
L 164.170286 112.643811 
L 164.555104 111.761859 
L 164.747512 120.230404 
L 164.939921 112.340274 
L 165.13233 120.454131 
L 165.324739 108.237718 
L 165.709556 116.011294 
L 165.901965 108.001875 
L 166.094374 113.480977 
L 166.286783 107.948401 
L 166.479191 108.510474 
L 166.6716 112.371019 
L 166.864009 107.489759 
L 167.056418 110.314285 
L 167.248827 105.930902 
L 167.441235 110.057129 
L 167.633644 107.312822 
L 167.826053 106.884212 
L 168.018462 97.159844 
L 168.210871 100.119656 
L 168.403279 108.000092 
L 168.595688 98.817481 
L 168.788097 99.283135 
L 168.980506 98.429086 
L 169.172914 98.708272 
L 169.365323 97.609235 
L 169.557732 97.357377 
L 169.94255 98.072477 
L 170.327367 129.353989 
L 170.519776 154.850725 
L 170.904594 124.576684 
L 171.097002 141.50841 
L 171.289411 124.600874 
L 171.48182 121.633455 
L 171.674229 128.997767 
L 171.866638 126.413922 
L 172.059046 137.978924 
L 172.251455 134.019483 
L 172.443864 147.509808 
L 172.636273 127.81101 
L 172.828682 143.149356 
L 173.213499 138.220836 
L 173.405908 140.761884 
L 173.598317 130.714541 
L 173.790725 135.982401 
L 173.983134 128.238949 
L 174.175543 140.25814 
L 174.560361 121.658023 
L 174.945178 129.446162 
L 175.137587 118.733084 
L 175.522405 131.595476 
L 175.714813 128.536464 
L 175.907222 132.707925 
L 176.099631 141.371465 
L 176.29204 132.521029 
L 176.484449 131.457696 
L 176.869266 127.135192 
L 177.061675 128.855621 
L 177.254084 128.926953 
L 177.446493 122.545969 
L 177.638901 125.06477 
L 177.83131 130.536965 
L 178.023719 127.331561 
L 178.216128 115.920353 
L 178.408536 123.451463 
L 178.600945 125.572131 
L 178.985763 120.217582 
L 179.178172 121.123472 
L 179.37058 116.648794 
L 179.562989 125.493045 
L 179.755398 121.416281 
L 179.947807 114.827297 
L 180.332624 130.276275 
L 180.525033 121.478279 
L 180.717442 119.316633 
L 180.909851 122.496441 
L 181.10226 131.35361 
L 181.487077 116.497367 
L 181.871895 130.104865 
L 182.064304 122.386136 
L 182.256712 122.313315 
L 182.449121 115.15547 
L 182.64153 129.093634 
L 182.833939 117.825531 
L 183.026347 117.753169 
L 183.411165 127.034547 
L 183.603574 121.090122 
L 183.988391 103.280988 
L 184.1808 117.884261 
L 184.373209 121.318779 
L 184.565618 119.28102 
L 184.758027 113.972449 
L 184.950435 114.449519 
L 185.142844 110.809819 
L 185.335253 104.771541 
L 185.720071 127.200114 
L 185.912479 164.296335 
L 186.297297 128.872373 
L 186.489706 141.817378 
L 186.682114 137.076602 
L 186.874523 136.560553 
L 187.066932 145.325914 
L 187.259341 124.526112 
L 187.45175 125.061645 
L 187.644158 143.3901 
L 187.836567 145.393837 
L 188.028976 132.004921 
L 188.221385 141.597616 
L 188.606202 145.50618 
L 188.798611 143.28506 
L 189.183429 136.419479 
L 189.375838 137.659667 
L 189.568246 143.939612 
L 189.760655 140.358194 
L 189.953064 147.459735 
L 190.337882 122.815507 
L 190.53029 149.516505 
L 190.722699 126.295246 
L 190.915108 136.341749 
L 191.107517 125.076953 
L 191.299925 129.993378 
L 191.492334 144.475531 
L 191.684743 131.164625 
L 192.069561 141.839369 
L 192.261969 141.376414 
L 192.839196 126.797824 
L 193.031605 142.036086 
L 193.416422 118.886369 
L 193.608831 123.212836 
L 193.80124 124.858749 
L 193.993649 128.269494 
L 194.186057 118.293781 
L 194.378466 118.772601 
L 194.570875 120.4194 
L 194.763284 124.912649 
L 194.955693 118.79573 
L 195.148101 120.524305 
L 195.34051 120.250828 
L 195.725328 127.817436 
L 195.917736 127.663119 
L 196.302554 108.095376 
L 196.494963 121.259812 
L 196.687372 122.037048 
L 196.87978 113.695859 
L 197.072189 130.004189 
L 197.264598 116.559526 
L 197.457007 116.383081 
L 197.649416 118.987046 
L 198.034233 113.677891 
L 198.226642 113.633418 
L 198.419051 112.59705 
L 198.61146 116.854391 
L 198.803868 101.815163 
L 198.996277 114.887878 
L 199.188686 114.86262 
L 199.381095 112.334355 
L 199.573504 104.869762 
L 199.765912 102.466543 
L 199.958321 107.541947 
L 200.15073 105.637649 
L 200.343139 107.918847 
L 200.535547 102.080115 
L 200.727956 105.281579 
L 201.112774 127.953891 
L 201.305183 174.333273 
L 201.497591 149.882958 
L 201.69 142.747298 
L 201.882409 143.897781 
L 202.074818 131.245355 
L 202.267227 128.011226 
L 202.459635 136.456383 
L 202.652044 137.798188 
L 202.844453 133.816387 
L 203.036862 147.003982 
L 203.229271 139.914522 
L 203.614088 159.46832 
L 203.806497 141.533732 
L 204.191314 153.422995 
L 204.383723 134.180702 
L 204.768541 141.446402 
L 204.96095 134.985304 
L 205.153358 136.646166 
L 205.345767 143.457236 
L 205.538176 136.720931 
L 205.730585 147.126574 
L 205.922994 144.295048 
L 206.115402 132.317268 
L 206.307811 127.258699 
L 206.692629 156.699936 
L 206.885038 144.387315 
L 207.077446 145.625417 
L 207.269855 145.327588 
L 207.462264 153.535458 
L 207.654673 139.603158 
L 207.847082 137.586687 
L 208.03949 143.30828 
L 208.231899 143.353571 
L 208.424308 145.810727 
L 208.809125 141.197048 
L 209.001534 140.788737 
L 209.193943 125.032663 
L 209.386352 139.659843 
L 209.771169 136.954423 
L 209.963578 126.60377 
L 210.155987 133.739175 
L 210.540805 117.002618 
L 211.118031 133.484389 
L 211.31044 124.935235 
L 211.502849 132.977457 
L 211.695257 127.22389 
L 211.887666 128.298428 
L 212.080075 130.741286 
L 212.272484 123.425624 
L 212.464893 131.96898 
L 212.657301 128.589926 
L 212.84971 141.453542 
L 213.042119 131.688855 
L 213.234528 135.62734 
L 213.426936 129.622708 
L 213.619345 133.206374 
L 213.811754 129.634547 
L 214.004163 129.773734 
L 214.196572 128.803602 
L 214.581389 134.678871 
L 214.773798 123.936712 
L 214.966207 124.839899 
L 215.158616 135.800566 
L 215.543433 120.927158 
L 215.735842 115.321733 
L 215.928251 124.078414 
L 216.12066 114.611359 
L 216.12066 114.611359 
" clip-path="url(#p3ae0643e94)" style="fill: none; stroke: #000000; stroke-width: 1.5; stroke-linecap: square"/>
   </g>
   <g id="line2d_15">
    <path d="M 62.386035 182.292 
L 62.386035 7.2 
" clip-path="url(#p3ae0643e94)" style="fill: none; stroke-dasharray: 3.7,1.6; stroke-dashoffset: 0; stroke: #9370db"/>
   </g>
   <g id="line2d_16">
    <path d="M 77.778739 182.292 
L 77.778739 7.2 
" clip-path="url(#p3ae0643e94)" style="fill: none; stroke-dasharray: 3.7,1.6; stroke-dashoffset: 0; stroke: #9370db"/>
   </g>
   <g id="line2d_17">
    <path d="M 93.171442 182.292 
L 93.171442 7.2 
" clip-path="url(#p3ae0643e94)" style="fill: none; stroke-dasharray: 3.7,1.6; stroke-dashoffset: 0; stroke: #9370db"/>
   </g>
   <g id="line2d_18">
    <path d="M 108.564145 182.292 
L 108.564145 7.2 
" clip-path="url(#p3ae0643e94)" style="fill: none; stroke-dasharray: 3.7,1.6; stroke-dashoffset: 0; stroke: #9370db"/>
   </g>
   <g id="line2d_19">
    <path d="M 123.956849 182.292 
L 123.956849 7.2 
" clip-path="url(#p3ae0643e94)" style="fill: none; stroke-dasharray: 3.7,1.6; stroke-dashoffset: 0; stroke: #9370db"/>
   </g>
   <g id="line2d_20">
    <path d="M 139.349552 182.292 
L 139.349552 7.2 
" clip-path="url(#p3ae0643e94)" style="fill: none; stroke-dasharray: 3.7,1.6; stroke-dashoffset: 0; stroke: #9370db"/>
   </g>
   <g id="line2d_21">
    <path d="M 154.742255 182.292 
L 154.742255 7.2 
" clip-path="url(#p3ae0643e94)" style="fill: none; stroke-dasharray: 3.7,1.6; stroke-dashoffset: 0; stroke: #9370db"/>
   </g>
   <g id="line2d_22">
    <path d="M 170.134958 182.292 
L 170.134958 7.2 
" clip-path="url(#p3ae0643e94)" style="fill: none; stroke-dasharray: 3.7,1.6; stroke-dashoffset: 0; stroke: #9370db"/>
   </g>
   <g id="line2d_23">
    <path d="M 185.527662 182.292 
L 185.527662 7.2 
" clip-path="url(#p3ae0643e94)" style="fill: none; stroke-dasharray: 3.7,1.6; stroke-dashoffset: 0; stroke: #9370db"/>
   </g>
   <g id="line2d_24">
    <path d="M 200.920365 182.292 
L 200.920365 7.2 
" clip-path="url(#p3ae0643e94)" style="fill: none; stroke-dasharray: 3.7,1.6; stroke-dashoffset: 0; stroke: #9370db"/>
   </g>
   <g id="patch_3">
    <path d="M 43.145156 182.292 
L 43.145156 7.2 
" style="fill: none; stroke: #000000; stroke-width: 0.8; stroke-linejoin: miter; stroke-linecap: square"/>
   </g>
   <g id="patch_4">
    <path d="M 218.237156 182.292 
L 218.237156 7.2 
" style="fill: none; stroke: #000000; stroke-width: 0.8; stroke-linejoin: miter; stroke-linecap: square"/>
   </g>
   <g id="patch_5">
    <path d="M 43.145156 182.292 
L 218.237156 182.292 
" style="fill: none; stroke: #000000; stroke-width: 0.8; stroke-linejoin: miter; stroke-linecap: square"/>
   </g>
   <g id="patch_6">
    <path d="M 43.145156 7.2 
L 218.237156 7.2 
" style="fill: none; stroke: #000000; stroke-width: 0.8; stroke-linejoin: miter; stroke-linecap: square"/>
   </g>
   <g id="legend_1">
    <g id="patch_7">
     <path d="M 108.214031 33.789375 
L 209.837156 33.789375 
Q 212.237156 33.789375 212.237156 31.389375 
L 212.237156 15.6 
Q 212.237156 13.2 209.837156 13.2 
L 108.214031 13.2 
Q 105.814031 13.2 105.814031 15.6 
L 105.814031 31.389375 
Q 105.814031 33.789375 108.214031 33.789375 
z
" style="fill: #ffffff; opacity: 0.8"/>
    </g>
    <g id="line2d_25">
     <path d="M 110.614031 22.2 
L 122.614031 22.2 
L 134.614031 22.2 
" style="fill: none; stroke-dasharray: 3.7,1.6; stroke-dashoffset: 0; stroke: #9370db"/>
    </g>
    <g id="text_16">
     <!-- Training trial -->
     <g transform="translate(144.214031 26.4) scale(0.12 -0.12)">
      <defs>
       <path id="TimesNewRomanPSMT-67" d="M 966 1044 
Q 703 1172 562 1401 
Q 422 1631 422 1909 
Q 422 2334 742 2640 
Q 1063 2947 1563 2947 
Q 1972 2947 2272 2747 
L 2878 2747 
Q 3013 2747 3034 2739 
Q 3056 2731 3066 2713 
Q 3084 2684 3084 2613 
Q 3084 2531 3069 2500 
Q 3059 2484 3036 2475 
Q 3013 2466 2878 2466 
L 2506 2466 
Q 2681 2241 2681 1891 
Q 2681 1491 2375 1206 
Q 2069 922 1553 922 
Q 1341 922 1119 984 
Q 981 866 932 777 
Q 884 688 884 625 
Q 884 572 936 522 
Q 988 472 1138 450 
Q 1225 438 1575 428 
Q 2219 413 2409 384 
Q 2700 344 2873 169 
Q 3047 -6 3047 -263 
Q 3047 -616 2716 -925 
Q 2228 -1381 1444 -1381 
Q 841 -1381 425 -1109 
Q 191 -953 191 -784 
Q 191 -709 225 -634 
Q 278 -519 444 -313 
Q 466 -284 763 25 
Q 600 122 533 198 
Q 466 275 466 372 
Q 466 481 555 628 
Q 644 775 966 1044 
z
M 1509 2797 
Q 1278 2797 1122 2612 
Q 966 2428 966 2047 
Q 966 1553 1178 1281 
Q 1341 1075 1591 1075 
Q 1828 1075 1981 1253 
Q 2134 1431 2134 1813 
Q 2134 2309 1919 2591 
Q 1759 2797 1509 2797 
z
M 934 0 
Q 788 -159 713 -296 
Q 638 -434 638 -550 
Q 638 -700 819 -813 
Q 1131 -1006 1722 -1006 
Q 2284 -1006 2551 -807 
Q 2819 -609 2819 -384 
Q 2819 -222 2659 -153 
Q 2497 -84 2016 -72 
Q 1313 -53 934 0 
z
" transform="scale(0.015625)"/>
      </defs>
      <use xlink:href="#TimesNewRomanPSMT-54"/>
      <use xlink:href="#TimesNewRomanPSMT-72" transform="translate(57.583984 0)"/>
      <use xlink:href="#TimesNewRomanPSMT-61" transform="translate(90.884766 0)"/>
      <use xlink:href="#TimesNewRomanPSMT-69" transform="translate(135.269531 0)"/>
      <use xlink:href="#TimesNewRomanPSMT-6e" transform="translate(163.052734 0)"/>
      <use xlink:href="#TimesNewRomanPSMT-69" transform="translate(213.052734 0)"/>
      <use xlink:href="#TimesNewRomanPSMT-6e" transform="translate(240.835938 0)"/>
      <use xlink:href="#TimesNewRomanPSMT-67" transform="translate(290.835938 0)"/>
      <use xlink:href="#TimesNewRomanPSMT-20" transform="translate(340.835938 0)"/>
      <use xlink:href="#TimesNewRomanPSMT-74" transform="translate(365.835938 0)"/>
      <use xlink:href="#TimesNewRomanPSMT-72" transform="translate(393.619141 0)"/>
      <use xlink:href="#TimesNewRomanPSMT-69" transform="translate(426.919922 0)"/>
      <use xlink:href="#TimesNewRomanPSMT-61" transform="translate(454.703125 0)"/>
      <use xlink:href="#TimesNewRomanPSMT-6c" transform="translate(499.087891 0)"/>
     </g>
    </g>
   </g>
  </g>
  <g id="axes_2">
   <g id="patch_8">
    <path d="M 43.145156 393.492 
L 218.237156 393.492 
L 218.237156 218.4 
L 43.145156 218.4 
z
" style="fill: #ffffff"/>
   </g>
   <g id="matplotlib.axis_3">
    <g id="xtick_6">
     <g id="line2d_26">
      <g>
       <use xlink:href="#m6e3258038a" x="51.103884" y="393.492" style="stroke: #000000; stroke-width: 0.8"/>
      </g>
     </g>
     <g id="text_17">
      <!-- 0 -->
      <g transform="translate(48.853884 403.241375) scale(0.09 -0.09)">
       <use xlink:href="#TimesNewRomanPSMT-30"/>
      </g>
     </g>
    </g>
    <g id="xtick_7">
     <g id="line2d_27">
      <g>
       <use xlink:href="#m6e3258038a" x="104.162065" y="393.492" style="stroke: #000000; stroke-width: 0.8"/>
      </g>
     </g>
     <g id="text_18">
      <!-- 5 -->
      <g transform="translate(101.912065 403.241375) scale(0.09 -0.09)">
       <use xlink:href="#TimesNewRomanPSMT-35"/>
      </g>
     </g>
    </g>
    <g id="xtick_8">
     <g id="line2d_28">
      <g>
       <use xlink:href="#m6e3258038a" x="157.220247" y="393.492" style="stroke: #000000; stroke-width: 0.8"/>
      </g>
     </g>
     <g id="text_19">
      <!-- 10 -->
      <g transform="translate(152.720247 403.241375) scale(0.09 -0.09)">
       <defs>
        <path id="TimesNewRomanPSMT-31" d="M 750 3822 
L 1781 4325 
L 1884 4325 
L 1884 747 
Q 1884 391 1914 303 
Q 1944 216 2037 169 
Q 2131 122 2419 116 
L 2419 0 
L 825 0 
L 825 116 
Q 1125 122 1212 167 
Q 1300 213 1334 289 
Q 1369 366 1369 747 
L 1369 3034 
Q 1369 3497 1338 3628 
Q 1316 3728 1258 3775 
Q 1200 3822 1119 3822 
Q 1003 3822 797 3725 
L 750 3822 
z
" transform="scale(0.015625)"/>
       </defs>
       <use xlink:href="#TimesNewRomanPSMT-31"/>
       <use xlink:href="#TimesNewRomanPSMT-30" transform="translate(50 0)"/>
      </g>
     </g>
    </g>
    <g id="xtick_9">
     <g id="line2d_29">
      <g>
       <use xlink:href="#m6e3258038a" x="210.278429" y="393.492" style="stroke: #000000; stroke-width: 0.8"/>
      </g>
     </g>
     <g id="text_20">
      <!-- 15 -->
      <g transform="translate(205.778429 403.241375) scale(0.09 -0.09)">
       <use xlink:href="#TimesNewRomanPSMT-31"/>
       <use xlink:href="#TimesNewRomanPSMT-35" transform="translate(50 0)"/>
      </g>
     </g>
    </g>
    <g id="text_21">
     <!-- Trial -->
     <g transform="translate(119.241469 417.499031) scale(0.12 -0.12)">
      <use xlink:href="#TimesNewRomanPSMT-54"/>
      <use xlink:href="#TimesNewRomanPSMT-72" transform="translate(57.583984 0)"/>
      <use xlink:href="#TimesNewRomanPSMT-69" transform="translate(90.884766 0)"/>
      <use xlink:href="#TimesNewRomanPSMT-61" transform="translate(118.667969 0)"/>
      <use xlink:href="#TimesNewRomanPSMT-6c" transform="translate(163.052734 0)"/>
     </g>
    </g>
   </g>
   <g id="matplotlib.axis_4">
    <g id="ytick_9">
     <g id="line2d_30">
      <g>
       <use xlink:href="#me6d81b0500" x="43.145156" y="376.609514" style="stroke: #000000; stroke-width: 0.8"/>
      </g>
     </g>
     <g id="text_22">
      <!-- 0.0 -->
      <g transform="translate(28.395156 379.734201) scale(0.09 -0.09)">
       <use xlink:href="#TimesNewRomanPSMT-30"/>
       <use xlink:href="#TimesNewRomanPSMT-2e" transform="translate(50 0)"/>
       <use xlink:href="#TimesNewRomanPSMT-30" transform="translate(75 0)"/>
      </g>
     </g>
    </g>
    <g id="ytick_10">
     <g id="line2d_31">
      <g>
       <use xlink:href="#me6d81b0500" x="43.145156" y="346.284292" style="stroke: #000000; stroke-width: 0.8"/>
      </g>
     </g>
     <g id="text_23">
      <!-- 0.2 -->
      <g transform="translate(28.395156 349.40898) scale(0.09 -0.09)">
       <use xlink:href="#TimesNewRomanPSMT-30"/>
       <use xlink:href="#TimesNewRomanPSMT-2e" transform="translate(50 0)"/>
       <use xlink:href="#TimesNewRomanPSMT-32" transform="translate(75 0)"/>
      </g>
     </g>
    </g>
    <g id="ytick_11">
     <g id="line2d_32">
      <g>
       <use xlink:href="#me6d81b0500" x="43.145156" y="315.959071" style="stroke: #000000; stroke-width: 0.8"/>
      </g>
     </g>
     <g id="text_24">
      <!-- 0.4 -->
      <g transform="translate(28.395156 319.083758) scale(0.09 -0.09)">
       <use xlink:href="#TimesNewRomanPSMT-30"/>
       <use xlink:href="#TimesNewRomanPSMT-2e" transform="translate(50 0)"/>
       <use xlink:href="#TimesNewRomanPSMT-34" transform="translate(75 0)"/>
      </g>
     </g>
    </g>
    <g id="ytick_12">
     <g id="line2d_33">
      <g>
       <use xlink:href="#me6d81b0500" x="43.145156" y="285.633849" style="stroke: #000000; stroke-width: 0.8"/>
      </g>
     </g>
     <g id="text_25">
      <!-- 0.6 -->
      <g transform="translate(28.395156 288.758537) scale(0.09 -0.09)">
       <use xlink:href="#TimesNewRomanPSMT-30"/>
       <use xlink:href="#TimesNewRomanPSMT-2e" transform="translate(50 0)"/>
       <use xlink:href="#TimesNewRomanPSMT-36" transform="translate(75 0)"/>
      </g>
     </g>
    </g>
    <g id="ytick_13">
     <g id="line2d_34">
      <g>
       <use xlink:href="#me6d81b0500" x="43.145156" y="255.308628" style="stroke: #000000; stroke-width: 0.8"/>
      </g>
     </g>
     <g id="text_26">
      <!-- 0.8 -->
      <g transform="translate(28.395156 258.433315) scale(0.09 -0.09)">
       <use xlink:href="#TimesNewRomanPSMT-30"/>
       <use xlink:href="#TimesNewRomanPSMT-2e" transform="translate(50 0)"/>
       <use xlink:href="#TimesNewRomanPSMT-38" transform="translate(75 0)"/>
      </g>
     </g>
    </g>
    <g id="ytick_14">
     <g id="line2d_35">
      <g>
       <use xlink:href="#me6d81b0500" x="43.145156" y="224.983406" style="stroke: #000000; stroke-width: 0.8"/>
      </g>
     </g>
     <g id="text_27">
      <!-- 1.0 -->
      <g transform="translate(28.395156 228.108094) scale(0.09 -0.09)">
       <use xlink:href="#TimesNewRomanPSMT-31"/>
       <use xlink:href="#TimesNewRomanPSMT-2e" transform="translate(50 0)"/>
       <use xlink:href="#TimesNewRomanPSMT-30" transform="translate(75 0)"/>
      </g>
     </g>
    </g>
    <g id="text_28">
     <!-- Pearson Correlation -->
     <g transform="translate(21.828281 353.767875) rotate(-90) scale(0.12 -0.12)">
      <defs>
       <path id="TimesNewRomanPSMT-50" d="M 1313 1984 
L 1313 750 
Q 1313 350 1400 253 
Q 1519 116 1759 116 
L 1922 116 
L 1922 0 
L 106 0 
L 106 116 
L 266 116 
Q 534 116 650 291 
Q 713 388 713 750 
L 713 3488 
Q 713 3888 628 3984 
Q 506 4122 266 4122 
L 106 4122 
L 106 4238 
L 1659 4238 
Q 2228 4238 2556 4120 
Q 2884 4003 3109 3725 
Q 3334 3447 3334 3066 
Q 3334 2547 2992 2222 
Q 2650 1897 2025 1897 
Q 1872 1897 1694 1919 
Q 1516 1941 1313 1984 
z
M 1313 2163 
Q 1478 2131 1606 2115 
Q 1734 2100 1825 2100 
Q 2150 2100 2386 2351 
Q 2622 2603 2622 3003 
Q 2622 3278 2509 3514 
Q 2397 3750 2190 3867 
Q 1984 3984 1722 3984 
Q 1563 3984 1313 3925 
L 1313 2163 
z
" transform="scale(0.015625)"/>
       <path id="TimesNewRomanPSMT-6f" d="M 1600 2947 
Q 2250 2947 2644 2453 
Q 2978 2031 2978 1484 
Q 2978 1100 2793 706 
Q 2609 313 2286 112 
Q 1963 -88 1566 -88 
Q 919 -88 538 428 
Q 216 863 216 1403 
Q 216 1797 411 2186 
Q 606 2575 925 2761 
Q 1244 2947 1600 2947 
z
M 1503 2744 
Q 1338 2744 1170 2645 
Q 1003 2547 900 2300 
Q 797 2053 797 1666 
Q 797 1041 1045 587 
Q 1294 134 1700 134 
Q 2003 134 2200 384 
Q 2397 634 2397 1244 
Q 2397 2006 2069 2444 
Q 1847 2744 1503 2744 
z
" transform="scale(0.015625)"/>
       <path id="TimesNewRomanPSMT-43" d="M 3853 4334 
L 3950 2894 
L 3853 2894 
Q 3659 3541 3300 3825 
Q 2941 4109 2438 4109 
Q 2016 4109 1675 3895 
Q 1334 3681 1139 3212 
Q 944 2744 944 2047 
Q 944 1472 1128 1050 
Q 1313 628 1683 403 
Q 2053 178 2528 178 
Q 2941 178 3256 354 
Q 3572 531 3950 1056 
L 4047 994 
Q 3728 428 3303 165 
Q 2878 -97 2294 -97 
Q 1241 -97 663 684 
Q 231 1266 231 2053 
Q 231 2688 515 3219 
Q 800 3750 1298 4042 
Q 1797 4334 2388 4334 
Q 2847 4334 3294 4109 
Q 3425 4041 3481 4041 
Q 3566 4041 3628 4100 
Q 3709 4184 3744 4334 
L 3853 4334 
z
" transform="scale(0.015625)"/>
      </defs>
      <use xlink:href="#TimesNewRomanPSMT-50"/>
      <use xlink:href="#TimesNewRomanPSMT-65" transform="translate(55.615234 0)"/>
      <use xlink:href="#TimesNewRomanPSMT-61" transform="translate(100 0)"/>
      <use xlink:href="#TimesNewRomanPSMT-72" transform="translate(144.384766 0)"/>
      <use xlink:href="#TimesNewRomanPSMT-73" transform="translate(177.685547 0)"/>
      <use xlink:href="#TimesNewRomanPSMT-6f" transform="translate(216.601562 0)"/>
      <use xlink:href="#TimesNewRomanPSMT-6e" transform="translate(266.601562 0)"/>
      <use xlink:href="#TimesNewRomanPSMT-20" transform="translate(316.601562 0)"/>
      <use xlink:href="#TimesNewRomanPSMT-43" transform="translate(341.601562 0)"/>
      <use xlink:href="#TimesNewRomanPSMT-6f" transform="translate(408.300781 0)"/>
      <use xlink:href="#TimesNewRomanPSMT-72" transform="translate(458.300781 0)"/>
      <use xlink:href="#TimesNewRomanPSMT-72" transform="translate(491.601562 0)"/>
      <use xlink:href="#TimesNewRomanPSMT-65" transform="translate(524.902344 0)"/>
      <use xlink:href="#TimesNewRomanPSMT-6c" transform="translate(569.287109 0)"/>
      <use xlink:href="#TimesNewRomanPSMT-61" transform="translate(597.070312 0)"/>
      <use xlink:href="#TimesNewRomanPSMT-74" transform="translate(641.455078 0)"/>
      <use xlink:href="#TimesNewRomanPSMT-69" transform="translate(669.238281 0)"/>
      <use xlink:href="#TimesNewRomanPSMT-6f" transform="translate(697.021484 0)"/>
      <use xlink:href="#TimesNewRomanPSMT-6e" transform="translate(747.021484 0)"/>
     </g>
    </g>
   </g>
   <g id="line2d_36">
    <path d="M 51.103884 382.963167 
L 61.71552 226.358727 
L 72.327156 227.40669 
L 82.938793 228.068055 
L 93.550429 231.466752 
L 104.162065 228.318815 
L 114.773702 239.462734 
L 125.385338 234.140985 
L 135.996974 230.937193 
L 146.608611 229.977988 
L 157.220247 235.821421 
L 167.831884 244.896278 
L 178.44352 229.055521 
L 189.055156 237.877741 
L 199.666793 243.086633 
L 210.278429 244.308076 
" clip-path="url(#paf0a703171)" style="fill: none; stroke: #b22222; stroke-opacity: 0.8; stroke-width: 1.5; stroke-linecap: square"/>
   </g>
   <g id="line2d_37">
    <defs>
     <path id="me3d51f7db1" d="M 0 5 
C 1.326016 5 2.597899 4.473168 3.535534 3.535534 
C 4.473168 2.597899 5 1.326016 5 0 
C 5 -1.326016 4.473168 -2.597899 3.535534 -3.535534 
C 2.597899 -4.473168 1.326016 -5 0 -5 
C -1.326016 -5 -2.597899 -4.473168 -3.535534 -3.535534 
C -4.473168 -2.597899 -5 -1.326016 -5 0 
C -5 1.326016 -4.473168 2.597899 -3.535534 3.535534 
C -2.597899 4.473168 -1.326016 5 0 5 
z
" style="stroke: #b22222"/>
    </defs>
    <g clip-path="url(#paf0a703171)">
     <use xlink:href="#me3d51f7db1" x="61.71552" y="226.358727" style="fill-opacity: 0; stroke: #b22222"/>
     <use xlink:href="#me3d51f7db1" x="72.327156" y="227.40669" style="fill-opacity: 0; stroke: #b22222"/>
     <use xlink:href="#me3d51f7db1" x="82.938793" y="228.068055" style="fill-opacity: 0; stroke: #b22222"/>
     <use xlink:href="#me3d51f7db1" x="93.550429" y="231.466752" style="fill-opacity: 0; stroke: #b22222"/>
     <use xlink:href="#me3d51f7db1" x="104.162065" y="228.318815" style="fill-opacity: 0; stroke: #b22222"/>
     <use xlink:href="#me3d51f7db1" x="114.773702" y="239.462734" style="fill-opacity: 0; stroke: #b22222"/>
     <use xlink:href="#me3d51f7db1" x="125.385338" y="234.140985" style="fill-opacity: 0; stroke: #b22222"/>
     <use xlink:href="#me3d51f7db1" x="135.996974" y="230.937193" style="fill-opacity: 0; stroke: #b22222"/>
     <use xlink:href="#me3d51f7db1" x="146.608611" y="229.977988" style="fill-opacity: 0; stroke: #b22222"/>
     <use xlink:href="#me3d51f7db1" x="157.220247" y="235.821421" style="fill-opacity: 0; stroke: #b22222"/>
    </g>
   </g>
   <g id="line2d_38">
    <defs>
     <path id="md8107a1084" d="M 0 5 
C 1.326016 5 2.597899 4.473168 3.535534 3.535534 
C 4.473168 2.597899 5 1.326016 5 0 
C 5 -1.326016 4.473168 -2.597899 3.535534 -3.535534 
C 2.597899 -4.473168 1.326016 -5 0 -5 
C -1.326016 -5 -2.597899 -4.473168 -3.535534 -3.535534 
C -4.473168 -2.597899 -5 -1.326016 -5 0 
C -5 1.326016 -4.473168 2.597899 -3.535534 3.535534 
C -2.597899 4.473168 -1.326016 5 0 5 
z
" style="stroke: #b22222"/>
    </defs>
    <g clip-path="url(#paf0a703171)">
     <use xlink:href="#md8107a1084" x="167.831884" y="244.896278" style="fill: #b22222; stroke: #b22222"/>
     <use xlink:href="#md8107a1084" x="178.44352" y="229.055521" style="fill: #b22222; stroke: #b22222"/>
     <use xlink:href="#md8107a1084" x="189.055156" y="237.877741" style="fill: #b22222; stroke: #b22222"/>
     <use xlink:href="#md8107a1084" x="199.666793" y="243.086633" style="fill: #b22222; stroke: #b22222"/>
     <use xlink:href="#md8107a1084" x="210.278429" y="244.308076" style="fill: #b22222; stroke: #b22222"/>
    </g>
   </g>
   <g id="line2d_39">
    <g clip-path="url(#paf0a703171)">
     <use xlink:href="#md8107a1084" x="51.103884" y="382.963167" style="fill: #b22222; stroke: #b22222"/>
    </g>
   </g>
   <g id="line2d_40">
    <path d="M 51.103884 380.128766 
L 61.71552 226.360184 
L 72.327156 227.690295 
L 82.938793 228.040783 
L 93.550429 227.606172 
L 104.162065 229.219763 
L 114.773702 228.825829 
L 125.385338 227.665926 
L 135.996974 227.613511 
L 146.608611 228.771603 
L 157.220247 228.253613 
L 167.831884 241.250328 
L 178.44352 239.785707 
L 189.055156 232.660923 
L 199.666793 230.413056 
L 210.278429 228.005577 
" clip-path="url(#paf0a703171)" style="fill: none; stroke: #228b22; stroke-opacity: 0.8; stroke-width: 1.5; stroke-linecap: square"/>
   </g>
   <g id="line2d_41">
    <defs>
     <path id="md7cb93f785" d="M 0 5 
C 1.326016 5 2.597899 4.473168 3.535534 3.535534 
C 4.473168 2.597899 5 1.326016 5 0 
C 5 -1.326016 4.473168 -2.597899 3.535534 -3.535534 
C 2.597899 -4.473168 1.326016 -5 0 -5 
C -1.326016 -5 -2.597899 -4.473168 -3.535534 -3.535534 
C -4.473168 -2.597899 -5 -1.326016 -5 0 
C -5 1.326016 -4.473168 2.597899 -3.535534 3.535534 
C -2.597899 4.473168 -1.326016 5 0 5 
z
" style="stroke: #228b22"/>
    </defs>
    <g clip-path="url(#paf0a703171)">
     <use xlink:href="#md7cb93f785" x="61.71552" y="226.360184" style="fill-opacity: 0; stroke: #228b22"/>
     <use xlink:href="#md7cb93f785" x="72.327156" y="227.690295" style="fill-opacity: 0; stroke: #228b22"/>
     <use xlink:href="#md7cb93f785" x="82.938793" y="228.040783" style="fill-opacity: 0; stroke: #228b22"/>
     <use xlink:href="#md7cb93f785" x="93.550429" y="227.606172" style="fill-opacity: 0; stroke: #228b22"/>
     <use xlink:href="#md7cb93f785" x="104.162065" y="229.219763" style="fill-opacity: 0; stroke: #228b22"/>
     <use xlink:href="#md7cb93f785" x="114.773702" y="228.825829" style="fill-opacity: 0; stroke: #228b22"/>
     <use xlink:href="#md7cb93f785" x="125.385338" y="227.665926" style="fill-opacity: 0; stroke: #228b22"/>
     <use xlink:href="#md7cb93f785" x="135.996974" y="227.613511" style="fill-opacity: 0; stroke: #228b22"/>
     <use xlink:href="#md7cb93f785" x="146.608611" y="228.771603" style="fill-opacity: 0; stroke: #228b22"/>
     <use xlink:href="#md7cb93f785" x="157.220247" y="228.253613" style="fill-opacity: 0; stroke: #228b22"/>
    </g>
   </g>
   <g id="line2d_42">
    <defs>
     <path id="m5d8e38fd27" d="M 0 5 
C 1.326016 5 2.597899 4.473168 3.535534 3.535534 
C 4.473168 2.597899 5 1.326016 5 0 
C 5 -1.326016 4.473168 -2.597899 3.535534 -3.535534 
C 2.597899 -4.473168 1.326016 -5 0 -5 
C -1.326016 -5 -2.597899 -4.473168 -3.535534 -3.535534 
C -4.473168 -2.597899 -5 -1.326016 -5 0 
C -5 1.326016 -4.473168 2.597899 -3.535534 3.535534 
C -2.597899 4.473168 -1.326016 5 0 5 
z
" style="stroke: #228b22"/>
    </defs>
    <g clip-path="url(#paf0a703171)">
     <use xlink:href="#m5d8e38fd27" x="167.831884" y="241.250328" style="fill: #228b22; stroke: #228b22"/>
     <use xlink:href="#m5d8e38fd27" x="178.44352" y="239.785707" style="fill: #228b22; stroke: #228b22"/>
     <use xlink:href="#m5d8e38fd27" x="189.055156" y="232.660923" style="fill: #228b22; stroke: #228b22"/>
     <use xlink:href="#m5d8e38fd27" x="199.666793" y="230.413056" style="fill: #228b22; stroke: #228b22"/>
     <use xlink:href="#m5d8e38fd27" x="210.278429" y="228.005577" style="fill: #228b22; stroke: #228b22"/>
    </g>
   </g>
   <g id="line2d_43">
    <g clip-path="url(#paf0a703171)">
     <use xlink:href="#m5d8e38fd27" x="51.103884" y="380.128766" style="fill: #228b22; stroke: #228b22"/>
    </g>
   </g>
   <g id="line2d_44">
    <path d="M 51.103884 385.533273 
L 61.71552 226.382858 
L 72.327156 226.989333 
L 82.938793 227.260451 
L 93.550429 230.462546 
L 104.162065 227.51532 
L 114.773702 228.783075 
L 125.385338 236.957936 
L 135.996974 227.759076 
L 146.608611 227.773449 
L 157.220247 227.910047 
L 167.831884 237.174027 
L 178.44352 242.515972 
L 189.055156 246.602353 
L 199.666793 227.595938 
L 210.278429 238.765754 
" clip-path="url(#paf0a703171)" style="fill: none; stroke: #4682b4; stroke-opacity: 0.8; stroke-width: 1.5; stroke-linecap: square"/>
   </g>
   <g id="line2d_45">
    <defs>
     <path id="mcf51f5860e" d="M 0 5 
C 1.326016 5 2.597899 4.473168 3.535534 3.535534 
C 4.473168 2.597899 5 1.326016 5 0 
C 5 -1.326016 4.473168 -2.597899 3.535534 -3.535534 
C 2.597899 -4.473168 1.326016 -5 0 -5 
C -1.326016 -5 -2.597899 -4.473168 -3.535534 -3.535534 
C -4.473168 -2.597899 -5 -1.326016 -5 0 
C -5 1.326016 -4.473168 2.597899 -3.535534 3.535534 
C -2.597899 4.473168 -1.326016 5 0 5 
z
" style="stroke: #4682b4"/>
    </defs>
    <g clip-path="url(#paf0a703171)">
     <use xlink:href="#mcf51f5860e" x="61.71552" y="226.382858" style="fill-opacity: 0; stroke: #4682b4"/>
     <use xlink:href="#mcf51f5860e" x="72.327156" y="226.989333" style="fill-opacity: 0; stroke: #4682b4"/>
     <use xlink:href="#mcf51f5860e" x="82.938793" y="227.260451" style="fill-opacity: 0; stroke: #4682b4"/>
     <use xlink:href="#mcf51f5860e" x="93.550429" y="230.462546" style="fill-opacity: 0; stroke: #4682b4"/>
     <use xlink:href="#mcf51f5860e" x="104.162065" y="227.51532" style="fill-opacity: 0; stroke: #4682b4"/>
     <use xlink:href="#mcf51f5860e" x="114.773702" y="228.783075" style="fill-opacity: 0; stroke: #4682b4"/>
     <use xlink:href="#mcf51f5860e" x="125.385338" y="236.957936" style="fill-opacity: 0; stroke: #4682b4"/>
     <use xlink:href="#mcf51f5860e" x="135.996974" y="227.759076" style="fill-opacity: 0; stroke: #4682b4"/>
     <use xlink:href="#mcf51f5860e" x="146.608611" y="227.773449" style="fill-opacity: 0; stroke: #4682b4"/>
     <use xlink:href="#mcf51f5860e" x="157.220247" y="227.910047" style="fill-opacity: 0; stroke: #4682b4"/>
    </g>
   </g>
   <g id="line2d_46">
    <defs>
     <path id="mc5c2e2c61a" d="M 0 5 
C 1.326016 5 2.597899 4.473168 3.535534 3.535534 
C 4.473168 2.597899 5 1.326016 5 0 
C 5 -1.326016 4.473168 -2.597899 3.535534 -3.535534 
C 2.597899 -4.473168 1.326016 -5 0 -5 
C -1.326016 -5 -2.597899 -4.473168 -3.535534 -3.535534 
C -4.473168 -2.597899 -5 -1.326016 -5 0 
C -5 1.326016 -4.473168 2.597899 -3.535534 3.535534 
C -2.597899 4.473168 -1.326016 5 0 5 
z
" style="stroke: #4682b4"/>
    </defs>
    <g clip-path="url(#paf0a703171)">
     <use xlink:href="#mc5c2e2c61a" x="167.831884" y="237.174027" style="fill: #4682b4; stroke: #4682b4"/>
     <use xlink:href="#mc5c2e2c61a" x="178.44352" y="242.515972" style="fill: #4682b4; stroke: #4682b4"/>
     <use xlink:href="#mc5c2e2c61a" x="189.055156" y="246.602353" style="fill: #4682b4; stroke: #4682b4"/>
     <use xlink:href="#mc5c2e2c61a" x="199.666793" y="227.595938" style="fill: #4682b4; stroke: #4682b4"/>
     <use xlink:href="#mc5c2e2c61a" x="210.278429" y="238.765754" style="fill: #4682b4; stroke: #4682b4"/>
    </g>
   </g>
   <g id="line2d_47">
    <g clip-path="url(#paf0a703171)">
     <use xlink:href="#mc5c2e2c61a" x="51.103884" y="385.533273" style="fill: #4682b4; stroke: #4682b4"/>
    </g>
   </g>
   <g id="patch_9">
    <path d="M 43.145156 393.492 
L 43.145156 218.4 
" style="fill: none; stroke: #000000; stroke-width: 0.8; stroke-linejoin: miter; stroke-linecap: square"/>
   </g>
   <g id="patch_10">
    <path d="M 218.237156 393.492 
L 218.237156 218.4 
" style="fill: none; stroke: #000000; stroke-width: 0.8; stroke-linejoin: miter; stroke-linecap: square"/>
   </g>
   <g id="patch_11">
    <path d="M 43.145156 393.492 
L 218.237156 393.492 
" style="fill: none; stroke: #000000; stroke-width: 0.8; stroke-linejoin: miter; stroke-linecap: square"/>
   </g>
   <g id="patch_12">
    <path d="M 43.145156 218.4 
L 218.237156 218.4 
" style="fill: none; stroke: #000000; stroke-width: 0.8; stroke-linejoin: miter; stroke-linecap: square"/>
   </g>
   <g id="legend_2">
    <g id="line2d_48">
     <path d="M 132.937781 308.012625 
L 144.937781 308.012625 
L 156.937781 308.012625 
" style="fill: none; stroke: #808080; stroke-width: 1.5; stroke-linecap: square"/>
     <defs>
      <path id="m186bd40086" d="M 0 4 
C 1.060812 4 2.078319 3.578535 2.828427 2.828427 
C 3.578535 2.078319 4 1.060812 4 0 
C 4 -1.060812 3.578535 -2.078319 2.828427 -2.828427 
C 2.078319 -3.578535 1.060812 -4 0 -4 
C -1.060812 -4 -2.078319 -3.578535 -2.828427 -2.828427 
C -3.578535 -2.078319 -4 -1.060812 -4 0 
C -4 1.060812 -3.578535 2.078319 -2.828427 2.828427 
C -2.078319 3.578535 -1.060812 4 0 4 
z
" style="stroke: #808080"/>
     </defs>
     <g>
      <use xlink:href="#m186bd40086" x="144.937781" y="308.012625" style="fill-opacity: 0; stroke: #808080"/>
     </g>
    </g>
    <g id="text_29">
     <!-- Training -->
     <g transform="translate(166.537781 312.212625) scale(0.12 -0.12)">
      <use xlink:href="#TimesNewRomanPSMT-54"/>
      <use xlink:href="#TimesNewRomanPSMT-72" transform="translate(57.583984 0)"/>
      <use xlink:href="#TimesNewRomanPSMT-61" transform="translate(90.884766 0)"/>
      <use xlink:href="#TimesNewRomanPSMT-69" transform="translate(135.269531 0)"/>
      <use xlink:href="#TimesNewRomanPSMT-6e" transform="translate(163.052734 0)"/>
      <use xlink:href="#TimesNewRomanPSMT-69" transform="translate(213.052734 0)"/>
      <use xlink:href="#TimesNewRomanPSMT-6e" transform="translate(240.835938 0)"/>
      <use xlink:href="#TimesNewRomanPSMT-67" transform="translate(290.835938 0)"/>
     </g>
    </g>
    <g id="line2d_49">
     <path d="M 132.937781 325.002 
L 144.937781 325.002 
L 156.937781 325.002 
" style="fill: none; stroke: #808080; stroke-width: 1.5; stroke-linecap: square"/>
     <defs>
      <path id="m49b50ba3a8" d="M 0 4 
C 1.060812 4 2.078319 3.578535 2.828427 2.828427 
C 3.578535 2.078319 4 1.060812 4 0 
C 4 -1.060812 3.578535 -2.078319 2.828427 -2.828427 
C 2.078319 -3.578535 1.060812 -4 0 -4 
C -1.060812 -4 -2.078319 -3.578535 -2.828427 -2.828427 
C -3.578535 -2.078319 -4 -1.060812 -4 0 
C -4 1.060812 -3.578535 2.078319 -2.828427 2.828427 
C -2.078319 3.578535 -1.060812 4 0 4 
z
" style="stroke: #808080"/>
     </defs>
     <g>
      <use xlink:href="#m49b50ba3a8" x="144.937781" y="325.002" style="fill: #808080; stroke: #808080"/>
     </g>
    </g>
    <g id="text_30">
     <!-- Testing -->
     <g transform="translate(166.537781 329.202) scale(0.12 -0.12)">
      <use xlink:href="#TimesNewRomanPSMT-54"/>
      <use xlink:href="#TimesNewRomanPSMT-65" transform="translate(54.083984 0)"/>
      <use xlink:href="#TimesNewRomanPSMT-73" transform="translate(98.46875 0)"/>
      <use xlink:href="#TimesNewRomanPSMT-74" transform="translate(137.384766 0)"/>
      <use xlink:href="#TimesNewRomanPSMT-69" transform="translate(165.167969 0)"/>
      <use xlink:href="#TimesNewRomanPSMT-6e" transform="translate(192.951172 0)"/>
      <use xlink:href="#TimesNewRomanPSMT-67" transform="translate(242.951172 0)"/>
     </g>
    </g>
    <g id="line2d_50">
     <g>
      <use xlink:href="#md8107a1084" x="144.937781" y="341.991375" style="fill: #b22222; stroke: #b22222"/>
     </g>
    </g>
    <g id="text_31">
     <!-- LIF -->
     <g transform="translate(166.537781 346.191375) scale(0.12 -0.12)">
      <defs>
       <path id="TimesNewRomanPSMT-4c" d="M 3669 1172 
L 3772 1150 
L 3409 0 
L 128 0 
L 128 116 
L 288 116 
Q 556 116 672 291 
Q 738 391 738 753 
L 738 3488 
Q 738 3884 650 3984 
Q 528 4122 288 4122 
L 128 4122 
L 128 4238 
L 2047 4238 
L 2047 4122 
Q 1709 4125 1573 4059 
Q 1438 3994 1388 3894 
Q 1338 3794 1338 3416 
L 1338 753 
Q 1338 494 1388 397 
Q 1425 331 1503 300 
Q 1581 269 1991 269 
L 2300 269 
Q 2788 269 2984 341 
Q 3181 413 3343 595 
Q 3506 778 3669 1172 
z
" transform="scale(0.015625)"/>
       <path id="TimesNewRomanPSMT-49" d="M 1975 116 
L 1975 0 
L 159 0 
L 159 116 
L 309 116 
Q 572 116 691 269 
Q 766 369 766 750 
L 766 3488 
Q 766 3809 725 3913 
Q 694 3991 597 4047 
Q 459 4122 309 4122 
L 159 4122 
L 159 4238 
L 1975 4238 
L 1975 4122 
L 1822 4122 
Q 1563 4122 1444 3969 
Q 1366 3869 1366 3488 
L 1366 750 
Q 1366 428 1406 325 
Q 1438 247 1538 191 
Q 1672 116 1822 116 
L 1975 116 
z
" transform="scale(0.015625)"/>
       <path id="TimesNewRomanPSMT-46" d="M 1309 4006 
L 1309 2341 
L 2081 2341 
Q 2347 2341 2470 2458 
Q 2594 2575 2634 2922 
L 2750 2922 
L 2750 1488 
L 2634 1488 
Q 2631 1734 2570 1850 
Q 2509 1966 2401 2023 
Q 2294 2081 2081 2081 
L 1309 2081 
L 1309 750 
Q 1309 428 1350 325 
Q 1381 247 1481 191 
Q 1619 116 1769 116 
L 1922 116 
L 1922 0 
L 103 0 
L 103 116 
L 253 116 
Q 516 116 634 269 
Q 709 369 709 750 
L 709 3488 
Q 709 3809 669 3913 
Q 638 3991 541 4047 
Q 406 4122 253 4122 
L 103 4122 
L 103 4238 
L 3256 4238 
L 3297 3306 
L 3188 3306 
Q 3106 3603 2998 3742 
Q 2891 3881 2733 3943 
Q 2575 4006 2244 4006 
L 1309 4006 
z
" transform="scale(0.015625)"/>
      </defs>
      <use xlink:href="#TimesNewRomanPSMT-4c"/>
      <use xlink:href="#TimesNewRomanPSMT-49" transform="translate(61.083984 0)"/>
      <use xlink:href="#TimesNewRomanPSMT-46" transform="translate(94.384766 0)"/>
     </g>
    </g>
    <g id="line2d_51">
     <g>
      <use xlink:href="#m5d8e38fd27" x="144.937781" y="358.95825" style="fill: #228b22; stroke: #228b22"/>
     </g>
    </g>
    <g id="text_32">
     <!-- MIX -->
     <g transform="translate(166.537781 363.15825) scale(0.12 -0.12)">
      <defs>
       <path id="TimesNewRomanPSMT-4d" d="M 2619 0 
L 981 3566 
L 981 734 
Q 981 344 1066 247 
Q 1181 116 1431 116 
L 1581 116 
L 1581 0 
L 106 0 
L 106 116 
L 256 116 
Q 525 116 638 278 
Q 706 378 706 734 
L 706 3503 
Q 706 3784 644 3909 
Q 600 4000 483 4061 
Q 366 4122 106 4122 
L 106 4238 
L 1306 4238 
L 2844 922 
L 4356 4238 
L 5556 4238 
L 5556 4122 
L 5409 4122 
Q 5138 4122 5025 3959 
Q 4956 3859 4956 3503 
L 4956 734 
Q 4956 344 5044 247 
Q 5159 116 5409 116 
L 5556 116 
L 5556 0 
L 3756 0 
L 3756 116 
L 3906 116 
Q 4178 116 4288 278 
Q 4356 378 4356 734 
L 4356 3566 
L 2722 0 
L 2619 0 
z
" transform="scale(0.015625)"/>
       <path id="TimesNewRomanPSMT-58" d="M 2613 2347 
L 3522 991 
Q 3900 428 4083 279 
Q 4266 131 4547 116 
L 4547 0 
L 2728 0 
L 2728 116 
Q 2909 119 2997 153 
Q 3063 181 3105 239 
Q 3147 297 3147 356 
Q 3147 428 3119 500 
Q 3097 553 2947 775 
L 2228 1863 
L 1341 725 
Q 1200 544 1172 483 
Q 1144 422 1144 356 
Q 1144 256 1228 190 
Q 1313 125 1550 116 
L 1550 0 
L 47 0 
L 47 116 
Q 206 131 322 181 
Q 516 263 691 400 
Q 866 538 1091 822 
L 2091 2084 
L 1256 3306 
Q 916 3803 678 3958 
Q 441 4113 131 4122 
L 131 4238 
L 2091 4238 
L 2091 4122 
Q 1841 4113 1748 4041 
Q 1656 3969 1656 3881 
Q 1656 3766 1806 3544 
L 2456 2572 
L 3209 3525 
Q 3341 3694 3370 3756 
Q 3400 3819 3400 3884 
Q 3400 3950 3363 4000 
Q 3316 4066 3244 4092 
Q 3172 4119 2947 4122 
L 2947 4238 
L 4450 4238 
L 4450 4122 
Q 4272 4113 4159 4066 
Q 3991 3994 3850 3872 
Q 3709 3750 3453 3422 
L 2613 2347 
z
" transform="scale(0.015625)"/>
      </defs>
      <use xlink:href="#TimesNewRomanPSMT-4d"/>
      <use xlink:href="#TimesNewRomanPSMT-49" transform="translate(88.916016 0)"/>
      <use xlink:href="#TimesNewRomanPSMT-58" transform="translate(122.216797 0)"/>
     </g>
    </g>
    <g id="line2d_52">
     <g>
      <use xlink:href="#mc5c2e2c61a" x="144.937781" y="375.925125" style="fill: #4682b4; stroke: #4682b4"/>
     </g>
    </g>
    <g id="text_33">
     <!-- QIF -->
     <g transform="translate(166.537781 380.125125) scale(0.12 -0.12)">
      <defs>
       <path id="TimesNewRomanPSMT-51" d="M 2819 -47 
Q 3138 -597 3508 -856 
Q 3878 -1116 4350 -1153 
L 4350 -1253 
Q 3919 -1238 3428 -1080 
Q 2938 -922 2498 -642 
Q 2059 -363 1741 -47 
Q 1291 134 1028 338 
Q 647 641 436 1083 
Q 225 1525 225 2128 
Q 225 3078 840 3706 
Q 1456 4334 2331 4334 
Q 3163 4334 3770 3704 
Q 4378 3075 4378 2116 
Q 4378 1338 3945 750 
Q 3513 163 2819 -47 
z
M 2294 4094 
Q 1725 4094 1378 3688 
Q 941 3178 941 2128 
Q 941 1100 1384 544 
Q 1728 116 2294 116 
Q 2881 116 3241 544 
Q 3663 1050 3663 2038 
Q 3663 2797 3431 3316 
Q 3253 3716 2958 3905 
Q 2663 4094 2294 4094 
z
" transform="scale(0.015625)"/>
      </defs>
      <use xlink:href="#TimesNewRomanPSMT-51"/>
      <use xlink:href="#TimesNewRomanPSMT-49" transform="translate(72.216797 0)"/>
      <use xlink:href="#TimesNewRomanPSMT-46" transform="translate(105.517578 0)"/>
     </g>
    </g>
   </g>
  </g>
 </g>
 <defs>
  <clipPath id="p3ae0643e94">
   <rect x="43.145156" y="7.2" width="175.092" height="175.092"/>
  </clipPath>
  <clipPath id="paf0a703171">
   <rect x="43.145156" y="218.4" width="175.092" height="175.092"/>
  </clipPath>
 </defs>
</svg>
