<?xml version="1.0" encoding="utf-8" standalone="no"?>
<!DOCTYPE svg PUBLIC "-//W3C//DTD SVG 1.1//EN"
  "http://www.w3.org/Graphics/SVG/1.1/DTD/svg11.dtd">
<svg xmlns:xlink="http://www.w3.org/1999/xlink" width="504pt" height="504pt" viewBox="0 0 504 504" xmlns="http://www.w3.org/2000/svg" version="1.1">
 <metadata>
  <rdf:RDF xmlns:dc="http://purl.org/dc/elements/1.1/" xmlns:cc="http://creativecommons.org/ns#" xmlns:rdf="http://www.w3.org/1999/02/22-rdf-syntax-ns#">
   <cc:Work>
    <dc:type rdf:resource="http://purl.org/dc/dcmitype/StillImage"/>
    <dc:date>2025-12-17T12:10:34.191943</dc:date>
    <dc:format>image/svg+xml</dc:format>
    <dc:creator>
     <cc:Agent>
      <dc:title>Matplotlib v3.10.5, https://matplotlib.org/</dc:title>
     </cc:Agent>
    </dc:creator>
   </cc:Work>
  </rdf:RDF>
 </metadata>
 <defs>
  <style type="text/css">*{stroke-linejoin: round; stroke-linecap: butt}</style>
 </defs>
 <g id="figure_1">
  <g id="patch_1">
   <path d="M 0 504 
L 504 504 
L 504 0 
L 0 0 
z
" style="fill: #ffffff"/>
  </g>
  <g id="axes_1">
   <g id="patch_2">
    <path d="M 103.7 424.3975 
L 471.6 424.3975 
L 471.6 32.4 
L 103.7 32.4 
z
" style="fill: #ffffff"/>
   </g>
   <g id="matplotlib.axis_1">
    <g id="xtick_1">
     <g id="line2d_1">
      <defs>
       <path id="m2d2bb05213" d="M 0 0 
L 0 3.5 
" style="stroke: #000000; stroke-width: 0.8"/>
      </defs>
      <g>
       <use xlink:href="#m2d2bb05213" x="120.003611" y="424.3975" style="stroke: #000000; stroke-width: 0.8"/>
      </g>
     </g>
     <g id="text_1">
      <!-- 0 -->
      <g transform="translate(115.003611 445.056875) scale(0.2 -0.2)">
       <defs>
        <path id="STIXGeneral-Regular-30" d="M 3046 2112 
Q 3046 1683 2963 1302 
Q 2880 922 2717 602 
Q 2554 282 2266 96 
Q 1978 -90 1600 -90 
Q 1210 -90 915 108 
Q 621 307 461 640 
Q 301 973 227 1350 
Q 154 1728 154 2150 
Q 154 2746 301 3222 
Q 448 3699 790 4012 
Q 1133 4326 1626 4326 
Q 2253 4326 2649 3712 
Q 3046 3098 3046 2112 
z
M 2432 2080 
Q 2432 3091 2217 3625 
Q 2003 4160 1587 4160 
Q 1190 4160 979 3622 
Q 768 3085 768 2106 
Q 768 1120 979 598 
Q 1190 77 1600 77 
Q 2003 77 2217 598 
Q 2432 1120 2432 2080 
z
" transform="scale(0.015625)"/>
       </defs>
       <use xlink:href="#STIXGeneral-Regular-30"/>
      </g>
     </g>
    </g>
    <g id="xtick_2">
     <g id="line2d_2">
      <g>
       <use xlink:href="#m2d2bb05213" x="203.826806" y="424.3975" style="stroke: #000000; stroke-width: 0.8"/>
      </g>
     </g>
     <g id="text_2">
      <!-- 2 -->
      <g transform="translate(198.826806 445.056875) scale(0.2 -0.2)">
       <defs>
        <path id="STIXGeneral-Regular-32" d="M 3034 877 
L 2688 0 
L 186 0 
L 186 77 
L 1325 1286 
Q 1773 1754 1965 2144 
Q 2157 2534 2157 2950 
Q 2157 3379 1920 3616 
Q 1683 3853 1267 3853 
Q 922 3853 720 3673 
Q 518 3494 326 3021 
L 192 3053 
Q 301 3648 630 3987 
Q 960 4326 1523 4326 
Q 2054 4326 2380 4006 
Q 2707 3686 2707 3200 
Q 2707 2477 1888 1613 
L 832 486 
L 2330 486 
Q 2541 486 2665 569 
Q 2790 653 2944 915 
L 3034 877 
z
" transform="scale(0.015625)"/>
       </defs>
       <use xlink:href="#STIXGeneral-Regular-32"/>
      </g>
     </g>
    </g>
    <g id="xtick_3">
     <g id="line2d_3">
      <g>
       <use xlink:href="#m2d2bb05213" x="287.65" y="424.3975" style="stroke: #000000; stroke-width: 0.8"/>
      </g>
     </g>
     <g id="text_3">
      <!-- 4 -->
      <g transform="translate(282.65 445.056875) scale(0.2 -0.2)">
       <defs>
        <path id="STIXGeneral-Regular-34" d="M 3027 1069 
L 2368 1069 
L 2368 0 
L 1869 0 
L 1869 1069 
L 77 1069 
L 77 1478 
L 2086 4326 
L 2368 4326 
L 2368 1478 
L 3027 1478 
L 3027 1069 
z
M 1869 1478 
L 1869 3674 
L 333 1478 
L 1869 1478 
z
" transform="scale(0.015625)"/>
       </defs>
       <use xlink:href="#STIXGeneral-Regular-34"/>
      </g>
     </g>
    </g>
    <g id="xtick_4">
     <g id="line2d_4">
      <g>
       <use xlink:href="#m2d2bb05213" x="371.473194" y="424.3975" style="stroke: #000000; stroke-width: 0.8"/>
      </g>
     </g>
     <g id="text_4">
      <!-- 6 -->
      <g transform="translate(366.473194 445.056875) scale(0.2 -0.2)">
       <defs>
        <path id="STIXGeneral-Regular-36" d="M 2854 4378 
L 2867 4275 
Q 2112 4154 1606 3664 
Q 1101 3174 973 2451 
Q 1344 2739 1786 2739 
Q 2349 2739 2672 2380 
Q 2995 2022 2995 1402 
Q 2995 774 2669 378 
Q 2291 -90 1651 -90 
Q 870 -90 518 557 
Q 218 1107 218 1786 
Q 218 2835 915 3552 
Q 1312 3962 1731 4131 
Q 2150 4301 2854 4378 
z
M 2419 1203 
Q 2419 2445 1555 2445 
Q 1235 2445 1024 2275 
Q 813 2106 813 1702 
Q 813 954 1046 522 
Q 1280 90 1722 90 
Q 2061 90 2240 394 
Q 2419 698 2419 1203 
z
" transform="scale(0.015625)"/>
       </defs>
       <use xlink:href="#STIXGeneral-Regular-36"/>
      </g>
     </g>
    </g>
    <g id="xtick_5">
     <g id="line2d_5">
      <g>
       <use xlink:href="#m2d2bb05213" x="455.296389" y="424.3975" style="stroke: #000000; stroke-width: 0.8"/>
      </g>
     </g>
     <g id="text_5">
      <!-- 8 -->
      <g transform="translate(450.296389 445.056875) scale(0.2 -0.2)">
       <defs>
        <path id="STIXGeneral-Regular-38" d="M 2848 992 
Q 2848 499 2505 204 
Q 2163 -90 1587 -90 
Q 1050 -90 704 204 
Q 358 499 358 954 
Q 358 1293 524 1533 
Q 691 1773 1190 2125 
Q 710 2522 553 2765 
Q 397 3008 397 3328 
Q 397 3782 745 4054 
Q 1094 4326 1638 4326 
Q 2106 4326 2410 4060 
Q 2714 3795 2714 3411 
Q 2714 3059 2531 2848 
Q 2349 2637 1856 2374 
Q 2432 1990 2640 1689 
Q 2848 1389 2848 992 
z
M 2272 3411 
Q 2272 3744 2086 3945 
Q 1901 4147 1574 4147 
Q 1248 4147 1059 3977 
Q 870 3808 870 3513 
Q 870 3219 1059 2979 
Q 1248 2739 1670 2490 
Q 1997 2682 2134 2896 
Q 2272 3110 2272 3411 
z
M 1734 1741 
L 1357 1997 
Q 1075 1766 960 1545 
Q 845 1325 845 1011 
Q 845 576 1065 333 
Q 1286 90 1658 90 
Q 1971 90 2166 285 
Q 2362 480 2362 794 
Q 2362 1082 2214 1299 
Q 2067 1517 1734 1741 
z
" transform="scale(0.015625)"/>
       </defs>
       <use xlink:href="#STIXGeneral-Regular-38"/>
      </g>
     </g>
    </g>
    <g id="text_6">
     <!-- Acummulated Train Time [s] -->
     <g transform="translate(170.170312 467.056875) scale(0.2 -0.2)">
      <defs>
       <path id="STIXGeneral-Regular-41" d="M 4525 0 
L 2893 0 
L 2893 122 
Q 3149 122 3245 179 
Q 3334 224 3334 333 
Q 3334 499 3213 781 
L 2950 1382 
L 1274 1382 
L 979 653 
Q 922 506 922 384 
Q 922 237 1027 179 
Q 1133 122 1370 122 
L 1370 0 
L 96 0 
L 96 122 
Q 365 147 486 316 
Q 608 486 902 1190 
L 2221 4314 
L 2349 4314 
L 3923 710 
Q 4064 378 4176 262 
Q 4288 147 4525 122 
L 4525 0 
z
M 2861 1645 
L 2118 3405 
L 1382 1645 
L 2861 1645 
z
" transform="scale(0.015625)"/>
       <path id="STIXGeneral-Regular-63" d="M 2547 998 
L 2637 941 
Q 2362 403 2112 205 
Q 1786 -64 1376 -64 
Q 845 -64 502 336 
Q 160 736 160 1357 
Q 160 2170 698 2618 
Q 1094 2944 1562 2944 
Q 1965 2944 2256 2749 
Q 2547 2554 2547 2285 
Q 2547 2176 2457 2096 
Q 2368 2016 2246 2016 
Q 2022 2016 1939 2310 
L 1901 2451 
Q 1850 2630 1773 2694 
Q 1696 2758 1523 2758 
Q 1133 2758 893 2451 
Q 653 2144 653 1645 
Q 653 1094 928 745 
Q 1203 397 1645 397 
Q 1920 397 2118 528 
Q 2317 659 2547 998 
z
" transform="scale(0.015625)"/>
       <path id="STIXGeneral-Regular-75" d="M 3072 320 
L 3072 230 
Q 2573 96 2195 -58 
L 2163 -38 
L 2163 486 
L 2150 486 
Q 1747 -64 1235 -64 
Q 870 -64 662 160 
Q 454 384 454 755 
L 454 2362 
Q 454 2598 371 2688 
Q 288 2778 58 2790 
L 58 2880 
L 992 2880 
L 992 813 
Q 992 595 1123 451 
Q 1254 307 1446 307 
Q 1760 307 1984 506 
Q 2067 582 2099 649 
Q 2131 717 2131 877 
L 2131 2355 
Q 2131 2605 2041 2678 
Q 1952 2752 1658 2771 
L 1658 2880 
L 2669 2880 
L 2669 685 
Q 2669 461 2742 390 
Q 2816 320 3034 320 
L 3072 320 
z
" transform="scale(0.015625)"/>
       <path id="STIXGeneral-Regular-6d" d="M 4960 0 
L 3565 0 
L 3565 96 
Q 3834 122 3907 208 
Q 3981 294 3981 576 
L 3981 1894 
Q 3981 2278 3869 2444 
Q 3757 2611 3488 2611 
Q 3264 2611 3107 2521 
Q 2950 2432 2803 2221 
L 2803 608 
Q 2803 301 2896 201 
Q 2989 102 3264 96 
L 3264 0 
L 1830 0 
L 1830 96 
Q 2112 115 2189 188 
Q 2266 262 2266 550 
L 2266 1901 
Q 2266 2611 1850 2611 
Q 1670 2611 1468 2531 
Q 1267 2451 1171 2336 
Q 1088 2240 1088 2227 
L 1088 448 
Q 1088 243 1177 176 
Q 1267 109 1523 96 
L 1523 0 
L 102 0 
L 102 96 
Q 371 102 460 195 
Q 550 288 550 563 
L 550 2150 
Q 550 2387 499 2480 
Q 448 2573 326 2573 
Q 230 2573 122 2547 
L 122 2656 
Q 557 2778 1011 2944 
L 1062 2925 
L 1062 2451 
L 1075 2451 
Q 1363 2752 1584 2848 
Q 1805 2944 2054 2944 
Q 2560 2944 2733 2406 
Q 3232 2944 3776 2944 
Q 4518 2944 4518 1792 
L 4518 493 
Q 4518 282 4582 202 
Q 4646 122 4794 109 
L 4960 96 
L 4960 0 
z
" transform="scale(0.015625)"/>
       <path id="STIXGeneral-Regular-6c" d="M 1645 0 
L 134 0 
L 134 96 
Q 435 122 531 221 
Q 627 320 627 589 
L 627 3590 
Q 627 3821 569 3910 
Q 512 4000 358 4000 
Q 224 4000 122 3987 
L 122 4090 
Q 730 4237 1133 4371 
L 1165 4346 
L 1165 557 
Q 1165 288 1254 201 
Q 1344 115 1645 96 
L 1645 0 
z
" transform="scale(0.015625)"/>
       <path id="STIXGeneral-Regular-61" d="M 2829 422 
L 2829 243 
Q 2586 -64 2253 -64 
Q 1888 -64 1843 403 
L 1837 403 
Q 1427 -64 909 -64 
Q 608 -64 422 112 
Q 237 288 237 602 
Q 237 1050 685 1350 
Q 992 1555 1837 1869 
L 1837 2214 
Q 1837 2502 1699 2646 
Q 1562 2790 1338 2790 
Q 1146 2790 1018 2697 
Q 890 2605 890 2477 
Q 890 2419 909 2348 
Q 928 2278 928 2208 
Q 928 2112 841 2029 
Q 755 1946 634 1946 
Q 525 1946 441 2029 
Q 358 2112 358 2240 
Q 358 2547 685 2752 
Q 986 2944 1421 2944 
Q 1939 2944 2176 2656 
Q 2291 2522 2323 2384 
Q 2355 2246 2355 1946 
L 2355 723 
Q 2355 301 2554 301 
Q 2682 301 2829 422 
z
M 1837 813 
L 1837 1715 
Q 1248 1510 1018 1293 
Q 800 1094 800 800 
Q 800 557 921 432 
Q 1043 307 1242 307 
Q 1453 307 1613 410 
Q 1747 506 1792 589 
Q 1837 672 1837 813 
z
" transform="scale(0.015625)"/>
       <path id="STIXGeneral-Regular-74" d="M 1702 493 
L 1786 422 
Q 1478 -64 1011 -64 
Q 448 -64 448 749 
L 448 2675 
L 109 2675 
Q 83 2694 83 2720 
Q 83 2771 192 2842 
Q 435 2982 813 3526 
Q 826 3546 874 3606 
Q 922 3667 941 3706 
Q 986 3706 986 3622 
L 986 2880 
L 1632 2880 
L 1632 2675 
L 986 2675 
L 986 845 
Q 986 538 1062 403 
Q 1139 269 1318 269 
Q 1510 269 1702 493 
z
" transform="scale(0.015625)"/>
       <path id="STIXGeneral-Regular-65" d="M 2611 1050 
L 2714 1005 
Q 2330 -64 1376 -64 
Q 813 -64 486 329 
Q 160 723 160 1389 
Q 160 2074 525 2509 
Q 890 2944 1485 2944 
Q 2061 2944 2374 2502 
Q 2560 2246 2592 1773 
L 621 1773 
Q 646 1370 700 1158 
Q 755 947 915 730 
Q 1184 378 1626 378 
Q 1939 378 2153 531 
Q 2368 685 2611 1050 
z
M 634 1978 
L 1939 1978 
Q 1882 2381 1750 2547 
Q 1619 2714 1312 2714 
Q 1043 2714 864 2525 
Q 685 2336 634 1978 
z
" transform="scale(0.015625)"/>
       <path id="STIXGeneral-Regular-64" d="M 3142 269 
L 2202 -64 
L 2176 -45 
L 2176 365 
Q 1869 -64 1357 -64 
Q 826 -64 499 317 
Q 173 698 173 1312 
Q 173 1990 563 2467 
Q 954 2944 1504 2944 
Q 1850 2944 2176 2669 
L 2176 3667 
Q 2176 3866 2118 3930 
Q 2061 3994 1882 3994 
Q 1792 3994 1741 3987 
L 1741 4090 
Q 2323 4243 2682 4371 
L 2714 4358 
L 2714 730 
Q 2714 506 2768 435 
Q 2822 365 2995 365 
Q 3034 365 3142 371 
L 3142 269 
z
M 2176 653 
L 2176 2125 
Q 2176 2381 1981 2573 
Q 1786 2765 1523 2765 
Q 1158 2765 940 2438 
Q 723 2112 723 1568 
Q 723 979 963 624 
Q 1203 269 1606 269 
Q 1907 269 2080 474 
Q 2176 582 2176 653 
z
" transform="scale(0.015625)"/>
       <path id="STIXGeneral-Regular-20" transform="scale(0.015625)"/>
       <path id="STIXGeneral-Regular-54" d="M 3795 3149 
L 3642 3149 
Q 3539 3674 3353 3821 
Q 3168 3968 2656 3968 
L 2278 3968 
L 2278 710 
Q 2278 346 2387 243 
Q 2496 141 2893 122 
L 2893 0 
L 1024 0 
L 1024 122 
Q 1427 147 1526 256 
Q 1626 365 1626 787 
L 1626 3968 
L 1242 3968 
Q 723 3968 540 3817 
Q 358 3667 262 3149 
L 109 3149 
L 154 4237 
L 3750 4237 
L 3795 3149 
z
" transform="scale(0.015625)"/>
       <path id="STIXGeneral-Regular-72" d="M 1024 2931 
L 1024 2342 
Q 1267 2688 1430 2816 
Q 1594 2944 1792 2944 
Q 1958 2944 2051 2854 
Q 2144 2765 2144 2605 
Q 2144 2470 2077 2393 
Q 2010 2317 1894 2317 
Q 1773 2317 1638 2445 
Q 1536 2541 1472 2541 
Q 1338 2541 1181 2355 
Q 1024 2170 1024 2016 
L 1024 576 
Q 1024 301 1133 205 
Q 1242 109 1568 96 
L 1568 0 
L 32 0 
L 32 96 
Q 339 154 412 224 
Q 486 294 486 538 
L 486 2138 
Q 486 2349 438 2435 
Q 390 2522 269 2522 
Q 166 2522 45 2496 
L 45 2598 
Q 448 2726 992 2944 
L 1024 2931 
z
" transform="scale(0.015625)"/>
       <path id="STIXGeneral-Regular-69" d="M 1152 4045 
Q 1152 3904 1056 3811 
Q 960 3718 819 3718 
Q 685 3718 592 3811 
Q 499 3904 499 4045 
Q 499 4179 595 4275 
Q 691 4371 826 4371 
Q 966 4371 1059 4275 
Q 1152 4179 1152 4045 
z
M 1619 0 
L 102 0 
L 102 96 
Q 435 115 521 211 
Q 608 307 608 666 
L 608 2118 
Q 608 2342 563 2432 
Q 518 2522 397 2522 
Q 243 2522 128 2490 
L 128 2592 
L 1120 2944 
L 1146 2918 
L 1146 672 
Q 1146 314 1226 218 
Q 1306 122 1619 96 
L 1619 0 
z
" transform="scale(0.015625)"/>
       <path id="STIXGeneral-Regular-6e" d="M 3104 0 
L 1773 0 
L 1779 96 
Q 2016 115 2096 233 
Q 2176 352 2176 672 
L 2176 1946 
Q 2176 2592 1709 2592 
Q 1549 2592 1408 2515 
Q 1267 2438 1050 2227 
L 1050 461 
Q 1050 269 1136 192 
Q 1222 115 1466 96 
L 1466 0 
L 115 0 
L 115 96 
Q 358 115 435 214 
Q 512 314 512 602 
L 512 2157 
Q 512 2394 467 2483 
Q 422 2573 288 2573 
Q 160 2573 102 2547 
L 102 2656 
Q 550 2784 979 2944 
L 1030 2925 
L 1030 2426 
L 1037 2426 
Q 1491 2944 1958 2944 
Q 2323 2944 2518 2688 
Q 2714 2432 2714 1958 
L 2714 544 
Q 2714 288 2790 205 
Q 2867 122 3104 96 
L 3104 0 
z
" transform="scale(0.015625)"/>
       <path id="STIXGeneral-Regular-5b" d="M 1914 -998 
L 563 -998 
L 563 4237 
L 1914 4237 
L 1914 4077 
L 1382 4077 
Q 1216 4077 1133 4006 
Q 1050 3936 1050 3770 
L 1050 -493 
Q 1050 -838 1382 -838 
L 1914 -838 
L 1914 -998 
z
" transform="scale(0.015625)"/>
       <path id="STIXGeneral-Regular-73" d="M 998 1926 
L 1664 1523 
Q 1984 1331 2105 1164 
Q 2227 998 2227 736 
Q 2227 416 1961 176 
Q 1696 -64 1331 -64 
Q 1030 -64 864 -6 
Q 691 51 570 51 
Q 461 51 416 -26 
L 333 -26 
L 333 979 
L 435 979 
Q 538 512 730 294 
Q 922 77 1248 77 
Q 1485 77 1632 211 
Q 1779 346 1779 550 
Q 1779 845 1440 1030 
L 1094 1222 
Q 326 1651 326 2150 
Q 326 2522 566 2730 
Q 806 2938 1210 2938 
Q 1491 2938 1638 2867 
Q 1754 2816 1818 2816 
Q 1862 2816 1920 2880 
L 1990 2880 
L 2022 2010 
L 1926 2010 
Q 1818 2445 1654 2621 
Q 1491 2797 1203 2797 
Q 986 2797 854 2688 
Q 723 2579 723 2362 
Q 723 2253 796 2128 
Q 870 2003 998 1926 
z
" transform="scale(0.015625)"/>
       <path id="STIXGeneral-Regular-5d" d="M 1568 -998 
L 218 -998 
L 218 -838 
L 781 -838 
Q 947 -838 1014 -768 
Q 1082 -698 1082 -544 
L 1082 3731 
Q 1082 4077 755 4077 
L 218 4077 
L 218 4237 
L 1568 4237 
L 1568 -998 
z
" transform="scale(0.015625)"/>
      </defs>
      <use xlink:href="#STIXGeneral-Regular-41"/>
      <use xlink:href="#STIXGeneral-Regular-63" transform="translate(72.199982 0)"/>
      <use xlink:href="#STIXGeneral-Regular-75" transform="translate(116.599976 0)"/>
      <use xlink:href="#STIXGeneral-Regular-6d" transform="translate(166.59996 0)"/>
      <use xlink:href="#STIXGeneral-Regular-6d" transform="translate(244.399948 0)"/>
      <use xlink:href="#STIXGeneral-Regular-75" transform="translate(322.199936 0)"/>
      <use xlink:href="#STIXGeneral-Regular-6c" transform="translate(372.199921 0)"/>
      <use xlink:href="#STIXGeneral-Regular-61" transform="translate(399.999908 0)"/>
      <use xlink:href="#STIXGeneral-Regular-74" transform="translate(444.399902 0)"/>
      <use xlink:href="#STIXGeneral-Regular-65" transform="translate(472.19989 0)"/>
      <use xlink:href="#STIXGeneral-Regular-64" transform="translate(516.599884 0)"/>
      <use xlink:href="#STIXGeneral-Regular-20" transform="translate(566.599869 0)"/>
      <use xlink:href="#STIXGeneral-Regular-54" transform="translate(591.599854 0)"/>
      <use xlink:href="#STIXGeneral-Regular-72" transform="translate(652.699844 0)"/>
      <use xlink:href="#STIXGeneral-Regular-61" transform="translate(685.999832 0)"/>
      <use xlink:href="#STIXGeneral-Regular-69" transform="translate(730.399826 0)"/>
      <use xlink:href="#STIXGeneral-Regular-6e" transform="translate(758.199814 0)"/>
      <use xlink:href="#STIXGeneral-Regular-20" transform="translate(808.199799 0)"/>
      <use xlink:href="#STIXGeneral-Regular-54" transform="translate(833.199783 0)"/>
      <use xlink:href="#STIXGeneral-Regular-69" transform="translate(894.299774 0)"/>
      <use xlink:href="#STIXGeneral-Regular-6d" transform="translate(922.099762 0)"/>
      <use xlink:href="#STIXGeneral-Regular-65" transform="translate(999.89975 0)"/>
      <use xlink:href="#STIXGeneral-Regular-20" transform="translate(1044.299744 0)"/>
      <use xlink:href="#STIXGeneral-Regular-5b" transform="translate(1069.299728 0)"/>
      <use xlink:href="#STIXGeneral-Regular-73" transform="translate(1102.599716 0)"/>
      <use xlink:href="#STIXGeneral-Regular-5d" transform="translate(1141.49971 0)"/>
     </g>
    </g>
   </g>
   <g id="matplotlib.axis_2">
    <g id="ytick_1">
     <g id="line2d_6">
      <defs>
       <path id="mb78652e7b8" d="M 0 0 
L -3.5 0 
" style="stroke: #000000; stroke-width: 0.8"/>
      </defs>
      <g>
       <use xlink:href="#mb78652e7b8" x="103.7" y="387.833567" style="stroke: #000000; stroke-width: 0.8"/>
      </g>
     </g>
     <g id="text_7">
      <!-- −5.0 -->
      <g transform="translate(58 394.663254) scale(0.2 -0.2)">
       <defs>
        <path id="STIXGeneral-Regular-2212" d="M 3974 1408 
L 410 1408 
L 410 1830 
L 3974 1830 
L 3974 1408 
z
" transform="scale(0.015625)"/>
        <path id="STIXGeneral-Regular-35" d="M 2803 4358 
L 2573 3814 
Q 2534 3731 2400 3731 
L 1158 3731 
L 902 3187 
Q 1606 3053 1920 2896 
Q 2234 2739 2502 2368 
Q 2726 2061 2726 1555 
Q 2726 1094 2576 780 
Q 2426 467 2099 224 
Q 1664 -90 1011 -90 
Q 646 -90 422 19 
Q 198 128 198 307 
Q 198 550 486 550 
Q 717 550 960 352 
Q 1210 147 1414 147 
Q 1747 147 2012 480 
Q 2278 813 2278 1229 
Q 2278 1843 1850 2189 
Q 1293 2637 486 2637 
Q 410 2637 410 2688 
L 416 2720 
L 1114 4237 
L 2438 4237 
Q 2547 4237 2608 4269 
Q 2669 4301 2746 4403 
L 2803 4358 
z
" transform="scale(0.015625)"/>
        <path id="STIXGeneral-Regular-2e" d="M 1158 275 
Q 1158 134 1052 32 
Q 947 -70 800 -70 
Q 653 -70 550 32 
Q 448 134 448 281 
Q 448 429 553 534 
Q 659 640 806 640 
Q 947 640 1052 531 
Q 1158 422 1158 275 
z
" transform="scale(0.015625)"/>
       </defs>
       <use xlink:href="#STIXGeneral-Regular-2212"/>
       <use xlink:href="#STIXGeneral-Regular-35" transform="translate(68.499985 0)"/>
       <use xlink:href="#STIXGeneral-Regular-2e" transform="translate(118.499969 0)"/>
       <use xlink:href="#STIXGeneral-Regular-30" transform="translate(143.499954 0)"/>
      </g>
     </g>
    </g>
    <g id="ytick_2">
     <g id="line2d_7">
      <g>
       <use xlink:href="#mb78652e7b8" x="103.7" y="341.669017" style="stroke: #000000; stroke-width: 0.8"/>
      </g>
     </g>
     <g id="text_8">
      <!-- −4.5 -->
      <g transform="translate(58 348.498705) scale(0.2 -0.2)">
       <use xlink:href="#STIXGeneral-Regular-2212"/>
       <use xlink:href="#STIXGeneral-Regular-34" transform="translate(68.499985 0)"/>
       <use xlink:href="#STIXGeneral-Regular-2e" transform="translate(118.499969 0)"/>
       <use xlink:href="#STIXGeneral-Regular-35" transform="translate(143.499954 0)"/>
      </g>
     </g>
    </g>
    <g id="ytick_3">
     <g id="line2d_8">
      <g>
       <use xlink:href="#mb78652e7b8" x="103.7" y="295.504468" style="stroke: #000000; stroke-width: 0.8"/>
      </g>
     </g>
     <g id="text_9">
      <!-- −4.0 -->
      <g transform="translate(58 302.334156) scale(0.2 -0.2)">
       <use xlink:href="#STIXGeneral-Regular-2212"/>
       <use xlink:href="#STIXGeneral-Regular-34" transform="translate(68.499985 0)"/>
       <use xlink:href="#STIXGeneral-Regular-2e" transform="translate(118.499969 0)"/>
       <use xlink:href="#STIXGeneral-Regular-30" transform="translate(143.499954 0)"/>
      </g>
     </g>
    </g>
    <g id="ytick_4">
     <g id="line2d_9">
      <g>
       <use xlink:href="#mb78652e7b8" x="103.7" y="249.339919" style="stroke: #000000; stroke-width: 0.8"/>
      </g>
     </g>
     <g id="text_10">
      <!-- −3.5 -->
      <g transform="translate(58 256.169606) scale(0.2 -0.2)">
       <defs>
        <path id="STIXGeneral-Regular-33" d="M 390 3264 
L 288 3290 
Q 435 3770 748 4048 
Q 1062 4326 1542 4326 
Q 1990 4326 2265 4083 
Q 2541 3840 2541 3450 
Q 2541 2925 1946 2566 
Q 2298 2413 2477 2227 
Q 2758 1914 2758 1402 
Q 2758 890 2464 506 
Q 2246 211 1840 60 
Q 1434 -90 979 -90 
Q 262 -90 262 275 
Q 262 378 339 442 
Q 416 506 525 506 
Q 685 506 915 339 
Q 1197 141 1466 141 
Q 1818 141 2058 425 
Q 2298 710 2298 1120 
Q 2298 1856 1632 2048 
Q 1434 2112 979 2112 
L 979 2202 
Q 1338 2323 1517 2432 
Q 2035 2726 2035 3290 
Q 2035 3610 1852 3776 
Q 1670 3942 1344 3942 
Q 768 3942 390 3264 
z
" transform="scale(0.015625)"/>
       </defs>
       <use xlink:href="#STIXGeneral-Regular-2212"/>
       <use xlink:href="#STIXGeneral-Regular-33" transform="translate(68.499985 0)"/>
       <use xlink:href="#STIXGeneral-Regular-2e" transform="translate(118.499969 0)"/>
       <use xlink:href="#STIXGeneral-Regular-35" transform="translate(143.499954 0)"/>
      </g>
     </g>
    </g>
    <g id="ytick_5">
     <g id="line2d_10">
      <g>
       <use xlink:href="#mb78652e7b8" x="103.7" y="203.175369" style="stroke: #000000; stroke-width: 0.8"/>
      </g>
     </g>
     <g id="text_11">
      <!-- −3.0 -->
      <g transform="translate(58 210.005057) scale(0.2 -0.2)">
       <use xlink:href="#STIXGeneral-Regular-2212"/>
       <use xlink:href="#STIXGeneral-Regular-33" transform="translate(68.499985 0)"/>
       <use xlink:href="#STIXGeneral-Regular-2e" transform="translate(118.499969 0)"/>
       <use xlink:href="#STIXGeneral-Regular-30" transform="translate(143.499954 0)"/>
      </g>
     </g>
    </g>
    <g id="ytick_6">
     <g id="line2d_11">
      <g>
       <use xlink:href="#mb78652e7b8" x="103.7" y="157.01082" style="stroke: #000000; stroke-width: 0.8"/>
      </g>
     </g>
     <g id="text_12">
      <!-- −2.5 -->
      <g transform="translate(58 163.840508) scale(0.2 -0.2)">
       <use xlink:href="#STIXGeneral-Regular-2212"/>
       <use xlink:href="#STIXGeneral-Regular-32" transform="translate(68.499985 0)"/>
       <use xlink:href="#STIXGeneral-Regular-2e" transform="translate(118.499969 0)"/>
       <use xlink:href="#STIXGeneral-Regular-35" transform="translate(143.499954 0)"/>
      </g>
     </g>
    </g>
    <g id="ytick_7">
     <g id="line2d_12">
      <g>
       <use xlink:href="#mb78652e7b8" x="103.7" y="110.846271" style="stroke: #000000; stroke-width: 0.8"/>
      </g>
     </g>
     <g id="text_13">
      <!-- −2.0 -->
      <g transform="translate(58 117.675958) scale(0.2 -0.2)">
       <use xlink:href="#STIXGeneral-Regular-2212"/>
       <use xlink:href="#STIXGeneral-Regular-32" transform="translate(68.499985 0)"/>
       <use xlink:href="#STIXGeneral-Regular-2e" transform="translate(118.499969 0)"/>
       <use xlink:href="#STIXGeneral-Regular-30" transform="translate(143.499954 0)"/>
      </g>
     </g>
    </g>
    <g id="ytick_8">
     <g id="line2d_13">
      <g>
       <use xlink:href="#mb78652e7b8" x="103.7" y="64.681722" style="stroke: #000000; stroke-width: 0.8"/>
      </g>
     </g>
     <g id="text_14">
      <!-- −1.5 -->
      <g transform="translate(58 71.511409) scale(0.2 -0.2)">
       <defs>
        <path id="STIXGeneral-Regular-31" d="M 2522 0 
L 755 0 
L 755 96 
Q 1107 115 1235 227 
Q 1363 339 1363 608 
L 1363 3482 
Q 1363 3795 1171 3795 
Q 1082 3795 883 3718 
L 710 3654 
L 710 3744 
L 1856 4326 
L 1914 4307 
L 1914 486 
Q 1914 275 2042 185 
Q 2170 96 2522 96 
L 2522 0 
z
" transform="scale(0.015625)"/>
       </defs>
       <use xlink:href="#STIXGeneral-Regular-2212"/>
       <use xlink:href="#STIXGeneral-Regular-31" transform="translate(68.499985 0)"/>
       <use xlink:href="#STIXGeneral-Regular-2e" transform="translate(118.499969 0)"/>
       <use xlink:href="#STIXGeneral-Regular-35" transform="translate(143.499954 0)"/>
      </g>
     </g>
    </g>
    <g id="text_15">
     <!-- $\log (|\Delta W|/|W_0)$ -->
     <g transform="translate(49.6 284.49875) rotate(-90) scale(0.2 -0.2)">
      <defs>
       <path id="STIXGeneral-Regular-6f" d="M 3008 1478 
Q 3008 806 2608 371 
Q 2208 -64 1568 -64 
Q 979 -64 582 368 
Q 186 800 186 1459 
Q 186 2125 582 2534 
Q 979 2944 1626 2944 
Q 2221 2944 2614 2537 
Q 3008 2131 3008 1478 
z
M 2432 1306 
Q 2432 2035 2112 2445 
Q 1856 2765 1504 2765 
Q 1171 2765 966 2493 
Q 762 2221 762 1747 
Q 762 928 1101 435 
Q 1318 115 1677 115 
Q 2029 115 2230 432 
Q 2432 749 2432 1306 
z
" transform="scale(0.015625)"/>
       <path id="STIXGeneral-Regular-67" d="M 3008 2483 
L 2477 2483 
Q 2598 2208 2598 1946 
Q 2598 1453 2265 1203 
Q 1933 954 1600 954 
Q 1530 954 1357 973 
L 1235 986 
Q 1107 947 979 812 
Q 851 678 851 582 
Q 851 435 1350 410 
L 2176 371 
Q 2528 358 2739 172 
Q 2950 -13 2950 -314 
Q 2950 -685 2566 -986 
Q 2035 -1395 1286 -1395 
Q 826 -1395 502 -1212 
Q 179 -1030 179 -774 
Q 179 -595 320 -419 
Q 461 -243 806 6 
Q 602 102 534 172 
Q 467 243 467 346 
Q 467 531 762 787 
Q 909 915 1037 1043 
Q 717 1203 579 1401 
Q 442 1600 442 1901 
Q 442 2336 752 2640 
Q 1062 2944 1510 2944 
Q 1766 2944 2022 2848 
L 2163 2797 
Q 2349 2733 2515 2733 
L 3008 2733 
L 3008 2483 
z
M 973 2163 
L 973 2144 
Q 973 1683 1155 1398 
Q 1338 1114 1632 1114 
Q 1850 1114 1978 1270 
Q 2106 1427 2106 1690 
Q 2106 2112 1914 2464 
Q 1754 2765 1446 2765 
Q 1222 2765 1097 2605 
Q 973 2445 973 2163 
z
M 2771 -410 
Q 2771 -230 2595 -163 
Q 2419 -96 1978 -96 
Q 1344 -96 941 -13 
Q 749 -243 688 -348 
Q 627 -454 627 -563 
Q 627 -774 880 -902 
Q 1133 -1030 1555 -1030 
Q 2099 -1030 2435 -860 
Q 2771 -691 2771 -410 
z
" transform="scale(0.015625)"/>
       <path id="STIXGeneral-Regular-28" d="M 1946 -1030 
L 1869 -1133 
Q 1126 -710 716 32 
Q 307 774 307 1613 
Q 307 3386 1888 4326 
L 1946 4224 
Q 1293 3667 1075 3126 
Q 858 2586 858 1632 
Q 858 685 1082 96 
Q 1306 -493 1946 -1030 
z
" transform="scale(0.015625)"/>
       <path id="STIXGeneral-Regular-7c" d="M 851 -90 
L 429 -90 
L 429 4326 
L 851 4326 
L 851 -90 
z
" transform="scale(0.015625)"/>
       <path id="STIXGeneral-Regular-394" d="M 4320 0 
L 307 0 
L 2221 4314 
L 2349 4314 
L 4320 0 
z
M 3354 589 
L 2118 3405 
L 870 589 
L 3354 589 
z
" transform="scale(0.015625)"/>
       <path id="STIXGeneral-Italic-57" d="M 5798 4179 
L 5798 4077 
Q 5613 4019 5526 3936 
Q 5440 3853 5306 3597 
L 3379 -115 
L 3251 -115 
L 2931 2784 
L 2899 2784 
L 1478 -115 
L 1357 -115 
L 966 3174 
Q 915 3622 883 3766 
Q 851 3910 781 3981 
Q 717 4045 454 4077 
L 454 4179 
L 1958 4179 
L 1958 4077 
Q 1696 4051 1597 3987 
Q 1498 3923 1498 3750 
Q 1498 3667 1504 3622 
L 1786 1037 
L 2886 3264 
L 2835 3680 
Q 2810 3923 2723 3993 
Q 2637 4064 2355 4077 
L 2355 4179 
L 3866 4179 
L 3866 4077 
Q 3616 4051 3523 3987 
Q 3430 3923 3430 3770 
Q 3430 3750 3436 3715 
Q 3443 3680 3443 3674 
L 3699 1037 
L 4902 3373 
Q 5050 3654 5050 3808 
Q 5050 4070 4621 4077 
L 4621 4179 
L 5798 4179 
z
" transform="scale(0.015625)"/>
       <path id="STIXGeneral-Regular-2f" d="M 1837 4326 
L 378 -90 
L -58 -90 
L 1408 4326 
L 1837 4326 
z
" transform="scale(0.015625)"/>
       <path id="STIXGeneral-Regular-29" d="M 186 4224 
L 262 4326 
Q 992 3891 1408 3148 
Q 1824 2406 1824 1581 
Q 1824 -166 243 -1133 
L 186 -1030 
Q 845 -486 1059 54 
Q 1274 595 1274 1562 
Q 1274 2534 1059 3120 
Q 845 3706 186 4224 
z
" transform="scale(0.015625)"/>
      </defs>
      <use xlink:href="#STIXGeneral-Regular-6c" transform="translate(0 0.703125)"/>
      <use xlink:href="#STIXGeneral-Regular-6f" transform="translate(27.799988 0.703125)"/>
      <use xlink:href="#STIXGeneral-Regular-67" transform="translate(77.799973 0.703125)"/>
      <use xlink:href="#STIXGeneral-Regular-28" transform="translate(127.799957 0.703125)"/>
      <use xlink:href="#STIXGeneral-Regular-7c" transform="translate(161.099945 0.703125)"/>
      <use xlink:href="#STIXGeneral-Regular-394" transform="translate(181.09993 0.703125)"/>
      <use xlink:href="#STIXGeneral-Italic-57" transform="translate(253.299911 0.703125)"/>
      <use xlink:href="#STIXGeneral-Regular-7c" transform="translate(336.599899 0.703125)"/>
      <use xlink:href="#STIXGeneral-Regular-2f" transform="translate(356.599884 0.703125)"/>
      <use xlink:href="#STIXGeneral-Regular-7c" transform="translate(384.399872 0.703125)"/>
      <use xlink:href="#STIXGeneral-Italic-57" transform="translate(404.399857 0.703125)"/>
      <use xlink:href="#STIXGeneral-Regular-30" transform="translate(487.699844 -12.525) scale(0.7)"/>
      <use xlink:href="#STIXGeneral-Regular-29" transform="translate(527.109209 0.703125)"/>
     </g>
    </g>
   </g>
   <g id="line2d_14">
    <path d="M 120.422727 91.731026 
L 120.841843 68.933475 
L 121.260959 56.64094 
L 121.680075 73.970435 
L 122.099191 84.425493 
L 122.518307 65.931576 
L 122.937423 52.813891 
L 123.356539 57.965184 
L 123.775655 51.643911 
L 124.194771 56.520086 
L 124.613887 75.712941 
L 125.033003 74.636528 
L 125.452119 60.707797 
L 125.871235 50.955805 
L 126.290351 108.065171 
L 126.709467 61.159337 
L 127.128583 72.310423 
L 127.547699 95.3694 
L 127.966815 81.677132 
L 128.805047 106.905268 
L 129.224163 113.924583 
L 129.643279 50.218068 
L 130.062395 69.37855 
L 130.481511 76.870454 
L 130.900627 71.298636 
L 131.319743 96.730994 
L 131.738859 93.969451 
L 132.157974 98.835158 
L 132.57709 96.940505 
L 132.996206 116.11576 
L 133.415322 118.346193 
L 133.834438 119.884115 
L 134.253554 104.362114 
L 134.67267 80.113602 
L 135.091786 97.41414 
L 135.510902 123.686792 
L 135.930018 90.923915 
L 136.349134 143.765061 
L 136.76825 138.533984 
L 137.187366 98.012134 
L 137.606482 112.066596 
L 138.025598 86.649855 
L 138.444714 121.655603 
L 138.86383 143.705213 
L 139.282946 113.223195 
L 139.702062 115.344169 
L 140.121178 106.287193 
L 140.540294 138.911831 
L 140.95941 122.067965 
L 141.378526 121.441878 
L 142.216758 137.41529 
L 142.635874 107.804988 
L 143.05499 134.527768 
L 143.474106 143.987227 
L 143.893222 119.692558 
L 144.312338 109.914849 
L 144.731454 150.227349 
L 145.15057 142.394971 
L 145.569686 140.608878 
L 145.988802 126.638 
L 146.407918 122.307075 
L 146.827033 126.151332 
L 147.665265 139.193693 
L 148.084381 154.624107 
L 148.503497 141.153669 
L 148.922613 152.806604 
L 149.341729 185.647066 
L 149.760845 127.368237 
L 150.179961 155.745639 
L 150.599077 144.178865 
L 151.018193 168.674084 
L 151.437309 174.008678 
L 151.856425 153.888858 
L 152.275541 165.297603 
L 152.694657 161.144395 
L 153.113773 145.906874 
L 153.952005 125.819053 
L 154.371121 178.702163 
L 154.790237 134.555749 
L 155.209353 134.678133 
L 155.628469 157.787691 
L 156.047585 142.193654 
L 156.466701 159.305318 
L 156.885817 170.486899 
L 157.304933 160.608422 
L 157.724049 166.466382 
L 158.562281 150.686639 
L 158.981397 159.071279 
L 159.400513 132.147849 
L 160.238745 202.82024 
L 161.076977 163.232691 
L 161.496093 175.723317 
L 161.915208 172.625148 
L 162.334324 171.200038 
L 162.75344 183.688686 
L 163.591672 196.557828 
L 164.010788 204.012602 
L 164.429904 183.784899 
L 164.84902 205.846709 
L 165.268136 209.929221 
L 165.687252 182.228027 
L 166.106368 209.641005 
L 166.525484 181.903835 
L 166.9446 165.279023 
L 167.363716 181.645785 
L 167.782832 188.093594 
L 168.201948 201.795076 
L 168.621064 178.770898 
L 169.04018 223.263448 
L 169.459296 190.797909 
L 169.878412 207.360149 
L 170.297528 210.593755 
L 170.716644 223.657062 
L 171.13576 208.756957 
L 171.554876 214.268766 
L 171.973992 202.365842 
L 172.393108 213.482729 
L 172.812224 197.20147 
L 173.650456 216.683937 
L 174.069572 205.274118 
L 174.907804 191.848964 
L 175.32692 199.083186 
L 175.746036 189.845382 
L 176.165152 205.264951 
L 176.584267 214.563004 
L 177.003383 205.889823 
L 177.422499 172.895604 
L 177.841615 204.704927 
L 178.260731 216.000371 
L 178.679847 201.025629 
L 179.098963 214.517001 
L 179.518079 199.416414 
L 179.937195 208.52468 
L 180.356311 187.252845 
L 180.775427 209.457866 
L 181.194543 172.239765 
L 181.613659 195.301848 
L 182.032775 231.667462 
L 182.451891 226.764304 
L 182.871007 198.135955 
L 183.290123 237.137067 
L 183.709239 225.595598 
L 184.128355 209.002226 
L 184.547471 219.24263 
L 184.966587 246.807197 
L 185.385703 228.122543 
L 185.804819 186.622677 
L 186.223935 228.979943 
L 186.643051 217.214644 
L 187.481283 186.104869 
L 187.900399 183.492985 
L 188.319515 209.03787 
L 188.738631 201.831266 
L 189.157747 230.577314 
L 189.576863 229.668324 
L 189.995979 225.416685 
L 190.834211 200.476902 
L 191.253326 215.134452 
L 191.672442 202.326286 
L 192.091558 195.542855 
L 192.510674 209.276678 
L 193.348906 267.412459 
L 194.187138 219.287622 
L 194.606254 251.64959 
L 195.02537 235.819736 
L 195.444486 278.802885 
L 195.863602 234.46461 
L 196.282718 239.374004 
L 196.701834 239.963546 
L 197.12095 240.851331 
L 197.540066 259.546562 
L 197.959182 253.63107 
L 198.378298 212.768437 
L 198.797414 240.364744 
L 199.21653 225.4716 
L 199.635646 226.877868 
L 200.054762 238.129799 
L 200.473878 230.871795 
L 200.892994 275.437086 
L 201.31211 248.23803 
L 201.731226 276.623653 
L 202.150342 265.964348 
L 202.569458 240.521832 
L 202.988574 263.886361 
L 203.826806 273.263215 
L 204.245922 240.525474 
L 205.084154 266.918119 
L 205.50327 242.465668 
L 205.922386 258.982116 
L 206.341501 248.140399 
L 206.760617 273.775557 
L 207.179733 280.026765 
L 208.017965 262.067408 
L 208.437081 265.981124 
L 208.856197 245.385885 
L 209.275313 261.867517 
L 209.694429 255.627564 
L 210.113545 243.611311 
L 210.532661 249.105867 
L 210.951777 238.346114 
L 211.370893 256.26008 
L 211.790009 235.338045 
L 212.628241 260.507296 
L 213.047357 230.314491 
L 213.466473 256.174331 
L 213.885589 266.431377 
L 214.304705 269.270049 
L 214.723821 245.389789 
L 215.142937 248.700936 
L 215.562053 280.724712 
L 215.981169 267.31843 
L 217.238517 247.807085 
L 217.657633 280.859139 
L 218.076749 273.673283 
L 218.495865 270.391692 
L 219.334097 280.743845 
L 219.753213 260.559504 
L 220.172329 264.521832 
L 221.01056 253.114948 
L 221.429676 212.633567 
L 221.848792 253.230971 
L 222.267908 258.362988 
L 222.687024 257.532813 
L 223.10614 254.727402 
L 223.525256 249.108159 
L 223.944372 246.457174 
L 224.363488 266.002125 
L 224.782604 241.967501 
L 225.20172 242.438068 
L 225.620836 234.198723 
L 226.039952 237.473975 
L 226.459068 282.286111 
L 226.878184 275.979309 
L 227.2973 280.725211 
L 227.716416 257.242483 
L 228.135532 272.284788 
L 228.554648 280.012645 
L 228.973764 284.181753 
L 229.39288 260.820045 
L 229.811996 254.223032 
L 230.231112 274.668218 
L 230.650228 264.57056 
L 231.069344 270.51108 
L 231.907576 292.917123 
L 232.326692 278.702234 
L 232.745808 295.480255 
L 233.164924 273.306351 
L 233.58404 303.788228 
L 234.003156 291.055707 
L 234.422272 283.894066 
L 234.841388 269.459281 
L 235.260504 270.851892 
L 235.67962 297.591402 
L 236.098735 296.487845 
L 236.517851 291.706081 
L 236.936967 282.672352 
L 237.356083 287.26196 
L 237.775199 287.605557 
L 238.194315 278.760309 
L 238.613431 288.928464 
L 239.032547 281.000011 
L 239.451663 290.033879 
L 239.870779 277.432116 
L 240.289895 260.944499 
L 240.709011 305.117947 
L 241.128127 249.787025 
L 241.547243 284.814126 
L 241.966359 246.771033 
L 242.804591 275.566089 
L 243.223707 272.993512 
L 243.642823 283.657618 
L 244.061939 280.884283 
L 244.481055 266.004327 
L 244.900171 268.010826 
L 245.319287 292.235997 
L 245.738403 273.745467 
L 246.157519 285.757345 
L 246.576635 281.635533 
L 246.995751 285.910243 
L 247.414867 285.600279 
L 247.833983 262.547081 
L 248.253099 283.913552 
L 248.672215 272.983698 
L 249.091331 270.254502 
L 249.510447 290.210982 
L 249.929563 262.322836 
L 250.348679 244.909231 
L 251.18691 268.138624 
L 251.606026 247.403047 
L 252.025142 263.217218 
L 252.444258 286.08471 
L 252.863374 285.147673 
L 253.28249 316.692468 
L 253.701606 281.734179 
L 254.539838 291.134943 
L 254.958954 303.973801 
L 255.37807 278.263856 
L 255.797186 281.903588 
L 256.216302 290.168023 
L 256.635418 309.244709 
L 257.47365 269.636301 
L 257.892766 273.295586 
L 258.311882 292.088562 
L 258.730998 273.836954 
L 259.150114 281.532283 
L 259.56923 284.976919 
L 259.988346 284.793229 
L 260.407462 259.399278 
L 260.826578 315.946529 
L 261.245694 267.855161 
L 261.66481 302.78256 
L 262.083926 264.653534 
L 262.503042 320.421088 
L 262.922158 298.232663 
L 263.341274 293.509989 
L 263.76039 296.64419 
L 264.179506 317.998622 
L 264.598622 292.870866 
L 265.017738 314.67568 
L 265.436853 290.034739 
L 265.855969 307.67468 
L 266.275085 313.429497 
L 266.694201 316.120097 
L 267.113317 281.900265 
L 267.532433 307.48023 
L 267.951549 292.435015 
L 268.789781 326.2308 
L 269.208897 319.12997 
L 269.628013 305.41598 
L 270.047129 322.821766 
L 270.466245 321.467049 
L 270.885361 317.303638 
L 271.304477 287.886309 
L 271.723593 316.042543 
L 272.142709 312.126007 
L 272.561825 319.033957 
L 272.980941 333.7143 
L 273.400057 321.983217 
L 273.819173 323.273309 
L 274.238289 326.139095 
L 274.657405 316.287595 
L 275.076521 339.595721 
L 275.495637 303.107303 
L 275.914753 322.063515 
L 276.333869 322.669281 
L 276.752985 330.342004 
L 277.172101 308.714576 
L 277.591217 344.676589 
L 278.010333 306.50106 
L 278.429449 312.098779 
L 278.848565 305.500113 
L 279.267681 319.628067 
L 279.686797 299.25014 
L 280.105913 309.054582 
L 280.525028 322.409418 
L 281.36326 297.135649 
L 281.782376 310.01366 
L 282.201492 309.841048 
L 282.620608 315.194438 
L 283.039724 309.752569 
L 283.45884 311.977216 
L 283.877956 299.863085 
L 284.297072 334.600982 
L 284.716188 323.466268 
L 285.135304 342.327847 
L 285.55442 308.189874 
L 285.973536 307.21692 
L 286.392652 281.629244 
L 286.811768 291.462668 
L 287.230884 287.700103 
L 288.069116 326.944942 
L 288.488232 272.507975 
L 288.907348 314.502438 
L 289.326464 287.010234 
L 289.74558 330.744092 
L 290.164696 297.775251 
L 290.583812 311.010552 
L 291.002928 255.705893 
L 291.422044 284.300488 
L 291.84116 304.096873 
L 292.260276 284.178418 
L 292.679392 314.81826 
L 293.098508 319.464127 
L 293.517624 310.506264 
L 293.93674 342.046215 
L 294.355856 293.017907 
L 294.774972 312.77118 
L 295.194087 321.958964 
L 295.613203 325.826594 
L 296.032319 328.184865 
L 296.451435 319.403462 
L 296.870551 307.032097 
L 297.289667 298.670372 
L 297.708783 308.084477 
L 298.127899 306.666093 
L 298.547015 329.054425 
L 298.966131 318.058645 
L 299.385247 301.856627 
L 299.804363 332.682695 
L 300.223479 338.734253 
L 300.642595 330.813231 
L 301.061711 331.12195 
L 301.480827 349.002491 
L 302.319059 325.884666 
L 302.738175 351.66091 
L 303.157291 297.903279 
L 303.576407 323.315733 
L 304.414639 319.86222 
L 304.833755 314.103614 
L 305.252871 283.286994 
L 305.671987 315.714117 
L 306.091103 296.595098 
L 306.510219 320.654958 
L 306.929335 303.259573 
L 307.348451 290.596363 
L 307.767567 368.561207 
L 308.186683 339.142713 
L 308.605799 334.389626 
L 309.024915 306.179201 
L 309.444031 347.136497 
L 309.863147 322.06772 
L 310.282262 314.394361 
L 310.701378 303.465315 
L 311.120494 304.762609 
L 311.53961 273.335642 
L 311.958726 291.186175 
L 312.377842 315.052395 
L 312.796958 292.658425 
L 313.216074 328.078496 
L 313.63519 295.443621 
L 314.054306 316.29499 
L 314.473422 304.979148 
L 314.892538 317.749894 
L 315.311654 339.53347 
L 315.73077 326.238935 
L 316.149886 339.887593 
L 316.569002 348.669891 
L 317.407234 297.624654 
L 317.82635 316.549766 
L 318.245466 316.592448 
L 318.664582 339.457899 
L 319.083698 332.804237 
L 319.502814 333.055172 
L 319.92193 330.943194 
L 320.341046 339.074286 
L 321.598394 355.751723 
L 322.01751 330.295676 
L 322.436626 314.952011 
L 322.855742 319.120171 
L 323.274858 299.756738 
L 323.693974 335.679963 
L 324.11309 307.686693 
L 324.532206 312.419479 
L 324.951321 281.582874 
L 325.370437 293.990464 
L 325.789553 273.819605 
L 326.208669 266.976 
L 326.627785 255.294969 
L 327.046901 261.861298 
L 327.466017 258.933706 
L 327.885133 309.401267 
L 328.304249 277.967993 
L 328.723365 292.134631 
L 329.142481 313.822479 
L 329.561597 296.645526 
L 329.980713 323.219182 
L 330.399829 321.021648 
L 330.818945 332.067649 
L 331.238061 293.267454 
L 331.657177 282.066375 
L 332.076293 311.619966 
L 332.495409 314.183517 
L 332.914525 293.561548 
L 333.333641 302.334637 
L 333.752757 313.584312 
L 334.171873 292.872913 
L 334.590989 307.87529 
L 335.010105 296.037521 
L 335.429221 333.028006 
L 335.848337 316.93297 
L 336.267453 356.088311 
L 337.105685 317.120274 
L 337.524801 325.650774 
L 337.943917 349.357364 
L 338.363033 346.962874 
L 338.782149 348.590689 
L 339.201265 353.721617 
L 339.62038 331.867874 
L 340.039496 337.363766 
L 340.458612 346.113388 
L 340.877728 317.218988 
L 341.71596 323.270248 
L 342.135076 327.316196 
L 342.554192 343.153315 
L 342.973308 342.349914 
L 343.392424 349.045702 
L 343.81154 344.230526 
L 344.230656 331.103733 
L 344.649772 365.144436 
L 345.068888 345.185767 
L 345.488004 354.692576 
L 345.90712 345.88091 
L 346.326236 371.480596 
L 346.745352 351.877741 
L 347.164468 350.359283 
L 347.583584 349.490689 
L 348.0027 325.407953 
L 348.421816 358.610562 
L 348.840932 363.172798 
L 349.260048 365.376864 
L 349.679164 353.888184 
L 350.09828 362.90968 
L 350.517396 322.175545 
L 350.936512 361.117665 
L 351.355628 348.911017 
L 351.774744 358.942989 
L 352.19386 360.63061 
L 352.612976 371.968667 
L 353.032092 346.806042 
L 353.451208 348.178408 
L 354.28944 333.474485 
L 355.127671 370.779224 
L 355.546787 343.911584 
L 355.965903 368.507355 
L 356.385019 308.380273 
L 356.804135 346.793357 
L 357.223251 364.210965 
L 357.642367 362.166484 
L 358.061483 372.085595 
L 358.480599 373.460241 
L 358.899715 357.10818 
L 359.318831 315.839521 
L 359.737947 314.209776 
L 360.157063 339.376926 
L 360.576179 335.356424 
L 360.995295 357.378637 
L 361.833527 348.68732 
L 362.252643 373.485115 
L 362.671759 353.075608 
L 363.509991 362.630138 
L 363.929107 314.238419 
L 364.348223 361.825407 
L 364.767339 352.929685 
L 365.186455 350.729884 
L 365.605571 374.13227 
L 366.024687 340.876317 
L 366.443803 376.050145 
L 366.862919 367.434671 
L 367.282035 340.399961 
L 367.701151 355.389555 
L 368.120267 343.399856 
L 368.539383 342.591995 
L 368.958499 365.671849 
L 369.377614 337.501189 
L 369.79673 389.426202 
L 370.215846 357.158143 
L 370.634962 355.108099 
L 371.054078 344.687657 
L 371.473194 388.342869 
L 371.89231 378.62867 
L 372.311426 347.97486 
L 372.730542 391.95775 
L 373.149658 338.442963 
L 373.568774 382.233456 
L 373.98789 369.345412 
L 374.407006 364.039564 
L 374.826122 339.354816 
L 375.245238 369.860939 
L 375.664354 350.057624 
L 376.08347 374.796579 
L 376.502586 341.900638 
L 376.921702 339.182309 
L 377.340818 368.187635 
L 377.759934 406.328611 
L 378.598166 350.23636 
L 379.017282 365.465926 
L 379.436398 358.31943 
L 379.855514 343.31738 
L 380.27463 384.105278 
L 380.693746 327.795693 
L 381.112862 314.377864 
L 381.531978 345.873648 
L 381.951094 357.101815 
L 382.37021 383.558079 
L 382.789326 349.514989 
L 383.208442 365.410079 
L 384.046674 337.614592 
L 384.465789 373.383203 
L 384.884905 357.777487 
L 385.304021 379.565446 
L 385.723137 349.35258 
L 386.142253 375.96378 
L 386.561369 343.217497 
L 386.980485 293.465941 
L 387.399601 343.88577 
L 387.818717 316.545144 
L 388.656949 376.417571 
L 389.076065 344.218142 
L 389.495181 365.365264 
L 389.914297 341.674972 
L 390.333413 364.67765 
L 391.171645 321.105544 
L 391.590761 359.773724 
L 392.009877 374.10309 
L 392.428993 338.917567 
L 392.848109 360.324542 
L 393.267225 360.304009 
L 393.686341 307.593412 
L 394.105457 368.784564 
L 394.524573 358.054469 
L 394.943689 357.994951 
L 395.362805 379.708348 
L 395.781921 347.39816 
L 396.201037 351.340898 
L 396.620153 366.403249 
L 397.039269 364.16104 
L 397.458385 314.286751 
L 398.296617 355.656418 
L 398.715733 344.63727 
L 399.134848 371.38148 
L 399.97308 343.764395 
L 400.392196 357.296739 
L 401.230428 354.554523 
L 401.649544 363.523638 
L 402.06866 359.841034 
L 402.487776 347.289762 
L 402.906892 360.519802 
L 403.326008 319.358704 
L 403.745124 319.28856 
L 404.16424 331.334302 
L 404.583356 354.292797 
L 405.421588 338.159966 
L 405.840704 342.959586 
L 406.25982 357.705055 
L 406.678936 342.327341 
L 407.098052 351.127191 
L 407.517168 368.464154 
L 407.936284 340.656748 
L 408.3554 378.804483 
L 408.774516 323.76799 
L 409.193632 338.373686 
L 409.612748 325.19565 
L 410.031864 359.283133 
L 410.45098 323.408924 
L 410.870096 319.039238 
L 411.289212 330.299038 
L 411.708328 338.500427 
L 412.127444 312.444664 
L 412.54656 313.598139 
L 413.384792 342.663802 
L 413.803907 332.161102 
L 414.223023 342.843639 
L 414.642139 330.753203 
L 415.061255 338.966764 
L 415.480371 358.40726 
L 415.899487 331.058295 
L 416.318603 379.001837 
L 416.737719 340.598649 
L 417.156835 349.6784 
L 417.575951 361.922773 
L 417.995067 339.490184 
L 418.414183 357.306004 
L 418.833299 382.069766 
L 419.252415 344.301787 
L 419.671531 343.036239 
L 420.090647 368.444237 
L 420.509763 340.013515 
L 420.928879 332.328903 
L 421.347995 364.516674 
L 422.186227 373.2137 
L 422.605343 382.44026 
L 423.024459 346.546656 
L 423.443575 330.365812 
L 423.862691 340.792968 
L 424.281807 324.780899 
L 424.700923 356.008322 
L 425.120039 335.254031 
L 425.539155 338.059439 
L 425.958271 330.210953 
L 426.377387 303.000982 
L 426.796503 324.643063 
L 427.215619 315.166278 
L 427.634735 345.068425 
L 428.053851 327.762486 
L 428.892082 359.330647 
L 429.311198 361.53092 
L 429.730314 374.850713 
L 430.14943 373.893845 
L 430.568546 386.874928 
L 430.987662 383.579432 
L 431.406778 392.88222 
L 431.825894 339.563735 
L 432.24501 384.404562 
L 432.664126 351.710129 
L 433.083242 359.458602 
L 433.502358 392.197963 
L 433.921474 374.274963 
L 434.34059 378.615384 
L 434.759706 372.482935 
L 435.178822 363.227041 
L 435.597938 393.053223 
L 436.017054 374.129686 
L 436.43617 365.005584 
L 436.855286 389.03605 
L 437.274402 393.23591 
L 437.693518 383.819172 
L 438.112634 406.579432 
L 438.53175 397.081483 
L 439.369982 369.700305 
L 439.789098 372.758064 
L 440.208214 358.662459 
L 440.62733 365.582033 
L 441.046446 363.901443 
L 441.465562 380.230956 
L 441.884678 370.095658 
L 442.303794 377.934328 
L 442.72291 379.424667 
L 443.142026 374.237854 
L 443.561141 395.729883 
L 443.980257 372.303372 
L 444.399373 378.450968 
L 444.818489 344.099316 
L 445.237605 391.085131 
L 445.656721 382.062729 
L 446.075837 379.679049 
L 446.494953 380.510276 
L 446.914069 376.632799 
L 447.333185 389.289874 
L 447.752301 384.265507 
L 448.590533 361.521503 
L 449.009649 362.483297 
L 449.428765 364.196742 
L 449.847881 374.798407 
L 450.266997 374.070869 
L 450.686113 340.963906 
L 451.524345 378.112665 
L 451.943461 345.060472 
L 452.362577 377.202056 
L 452.781693 367.897037 
L 453.200809 332.937144 
L 453.619925 367.772992 
L 454.039041 358.574475 
L 454.458157 372.586076 
L 454.877273 380.053133 
L 454.877273 380.053133 
" clip-path="url(#pb758738def)" style="fill: none; stroke: #000000; stroke-width: 1.5; stroke-linecap: square"/>
   </g>
   <g id="patch_3">
    <path d="M 103.7 424.3975 
L 103.7 32.4 
" style="fill: none; stroke: #000000; stroke-width: 0.8; stroke-linejoin: miter; stroke-linecap: square"/>
   </g>
   <g id="patch_4">
    <path d="M 471.6 424.3975 
L 471.6 32.4 
" style="fill: none; stroke: #000000; stroke-width: 0.8; stroke-linejoin: miter; stroke-linecap: square"/>
   </g>
   <g id="patch_5">
    <path d="M 103.7 424.3975 
L 471.6 424.3975 
" style="fill: none; stroke: #000000; stroke-width: 0.8; stroke-linejoin: miter; stroke-linecap: square"/>
   </g>
   <g id="patch_6">
    <path d="M 103.7 32.4 
L 471.6 32.4 
" style="fill: none; stroke: #000000; stroke-width: 0.8; stroke-linejoin: miter; stroke-linecap: square"/>
   </g>
  </g>
 </g>
 <defs>
  <clipPath id="pb758738def">
   <rect x="103.7" y="32.4" width="367.9" height="391.9975"/>
  </clipPath>
 </defs>
</svg>
