<?xml version="1.0" encoding="utf-8" standalone="no"?>
<!DOCTYPE svg PUBLIC "-//W3C//DTD SVG 1.1//EN"
  "http://www.w3.org/Graphics/SVG/1.1/DTD/svg11.dtd">
<svg xmlns:xlink="http://www.w3.org/1999/xlink" width="132.601031pt" height="276.545906pt" viewBox="0 0 132.601031 276.545906" xmlns="http://www.w3.org/2000/svg" version="1.1">
 <metadata>
  <rdf:RDF xmlns:dc="http://purl.org/dc/elements/1.1/" xmlns:cc="http://creativecommons.org/ns#" xmlns:rdf="http://www.w3.org/1999/02/22-rdf-syntax-ns#">
   <cc:Work>
    <dc:type rdf:resource="http://purl.org/dc/dcmitype/StillImage"/>
    <dc:date>2025-12-19T18:34:55.158880</dc:date>
    <dc:format>image/svg+xml</dc:format>
    <dc:creator>
     <cc:Agent>
      <dc:title>Matplotlib v3.10.5, https://matplotlib.org/</dc:title>
     </cc:Agent>
    </dc:creator>
   </cc:Work>
  </rdf:RDF>
 </metadata>
 <defs>
  <style type="text/css">*{stroke-linejoin: round; stroke-linecap: butt}</style>
 </defs>
 <g id="figure_1">
  <g id="patch_1">
   <path d="M 0 276.545906 
L 132.601031 276.545906 
L 132.601031 0 
L 0 0 
z
" style="fill: #ffffff"/>
  </g>
  <g id="axes_1">
   <g id="patch_2">
    <path d="M 35.197031 242.772 
L 125.401031 242.772 
L 125.401031 7.2 
L 35.197031 7.2 
z
" style="fill: #ffffff"/>
   </g>
   <g id="matplotlib.axis_1">
    <g id="xtick_1">
     <g id="line2d_1">
      <defs>
       <path id="md200c17457" d="M 0 0 
L 0 -3.5 
" style="stroke: #000000; stroke-width: 0.8"/>
      </defs>
      <g>
       <use xlink:href="#md200c17457" x="39.297213" y="242.772" style="stroke: #000000; stroke-width: 0.8"/>
      </g>
     </g>
     <g id="text_1">
      <!-- 0 -->
      <g transform="translate(37.047213 252.521375) scale(0.09 -0.09)">
       <defs>
        <path id="TimesNewRomanPSMT-30" d="M 231 2094 
Q 231 2819 450 3342 
Q 669 3866 1031 4122 
Q 1313 4325 1613 4325 
Q 2100 4325 2488 3828 
Q 2972 3213 2972 2159 
Q 2972 1422 2759 906 
Q 2547 391 2217 158 
Q 1888 -75 1581 -75 
Q 975 -75 572 641 
Q 231 1244 231 2094 
z
M 844 2016 
Q 844 1141 1059 588 
Q 1238 122 1591 122 
Q 1759 122 1940 273 
Q 2122 425 2216 781 
Q 2359 1319 2359 2297 
Q 2359 3022 2209 3506 
Q 2097 3866 1919 4016 
Q 1791 4119 1609 4119 
Q 1397 4119 1231 3928 
Q 1006 3669 925 3112 
Q 844 2556 844 2016 
z
" transform="scale(0.015625)"/>
       </defs>
       <use xlink:href="#TimesNewRomanPSMT-30"/>
      </g>
     </g>
    </g>
    <g id="xtick_2">
     <g id="line2d_2">
      <g>
       <use xlink:href="#md200c17457" x="90.677938" y="242.772" style="stroke: #000000; stroke-width: 0.8"/>
      </g>
     </g>
     <g id="text_2">
      <!-- 500 -->
      <g transform="translate(83.927938 252.521375) scale(0.09 -0.09)">
       <defs>
        <path id="TimesNewRomanPSMT-35" d="M 2778 4238 
L 2534 3706 
L 1259 3706 
L 981 3138 
Q 1809 3016 2294 2522 
Q 2709 2097 2709 1522 
Q 2709 1188 2573 903 
Q 2438 619 2231 419 
Q 2025 219 1772 97 
Q 1413 -75 1034 -75 
Q 653 -75 479 54 
Q 306 184 306 341 
Q 306 428 378 495 
Q 450 563 559 563 
Q 641 563 702 538 
Q 763 513 909 409 
Q 1144 247 1384 247 
Q 1750 247 2026 523 
Q 2303 800 2303 1197 
Q 2303 1581 2056 1914 
Q 1809 2247 1375 2428 
Q 1034 2569 447 2591 
L 1259 4238 
L 2778 4238 
z
" transform="scale(0.015625)"/>
       </defs>
       <use xlink:href="#TimesNewRomanPSMT-35"/>
       <use xlink:href="#TimesNewRomanPSMT-30" transform="translate(50 0)"/>
       <use xlink:href="#TimesNewRomanPSMT-30" transform="translate(100 0)"/>
      </g>
     </g>
    </g>
    <g id="text_3">
     <!-- time -->
     <g transform="translate(69.634969 266.779031) scale(0.12 -0.12)">
      <defs>
       <path id="TimesNewRomanPSMT-74" d="M 1031 3803 
L 1031 2863 
L 1700 2863 
L 1700 2644 
L 1031 2644 
L 1031 788 
Q 1031 509 1111 412 
Q 1191 316 1316 316 
Q 1419 316 1516 380 
Q 1613 444 1666 569 
L 1788 569 
Q 1678 263 1478 108 
Q 1278 -47 1066 -47 
Q 922 -47 784 33 
Q 647 113 581 261 
Q 516 409 516 719 
L 516 2644 
L 63 2644 
L 63 2747 
Q 234 2816 414 2980 
Q 594 3144 734 3369 
Q 806 3488 934 3803 
L 1031 3803 
z
" transform="scale(0.015625)"/>
       <path id="TimesNewRomanPSMT-69" d="M 928 4444 
Q 1059 4444 1151 4351 
Q 1244 4259 1244 4128 
Q 1244 3997 1151 3903 
Q 1059 3809 928 3809 
Q 797 3809 703 3903 
Q 609 3997 609 4128 
Q 609 4259 701 4351 
Q 794 4444 928 4444 
z
M 1188 2947 
L 1188 647 
Q 1188 378 1227 289 
Q 1266 200 1342 156 
Q 1419 113 1622 113 
L 1622 0 
L 231 0 
L 231 113 
Q 441 113 512 153 
Q 584 194 626 287 
Q 669 381 669 647 
L 669 1750 
Q 669 2216 641 2353 
Q 619 2453 572 2492 
Q 525 2531 444 2531 
Q 356 2531 231 2484 
L 188 2597 
L 1050 2947 
L 1188 2947 
z
" transform="scale(0.015625)"/>
       <path id="TimesNewRomanPSMT-6d" d="M 1050 2338 
Q 1363 2650 1419 2697 
Q 1559 2816 1721 2881 
Q 1884 2947 2044 2947 
Q 2313 2947 2506 2790 
Q 2700 2634 2766 2338 
Q 3088 2713 3309 2830 
Q 3531 2947 3766 2947 
Q 3994 2947 4170 2830 
Q 4347 2713 4450 2447 
Q 4519 2266 4519 1878 
L 4519 647 
Q 4519 378 4559 278 
Q 4591 209 4675 161 
Q 4759 113 4950 113 
L 4950 0 
L 3538 0 
L 3538 113 
L 3597 113 
Q 3781 113 3884 184 
Q 3956 234 3988 344 
Q 4000 397 4000 647 
L 4000 1878 
Q 4000 2228 3916 2372 
Q 3794 2572 3525 2572 
Q 3359 2572 3192 2489 
Q 3025 2406 2788 2181 
L 2781 2147 
L 2788 2013 
L 2788 647 
Q 2788 353 2820 281 
Q 2853 209 2943 161 
Q 3034 113 3253 113 
L 3253 0 
L 1806 0 
L 1806 113 
Q 2044 113 2133 169 
Q 2222 225 2256 338 
Q 2272 391 2272 647 
L 2272 1878 
Q 2272 2228 2169 2381 
Q 2031 2581 1784 2581 
Q 1616 2581 1450 2491 
Q 1191 2353 1050 2181 
L 1050 647 
Q 1050 366 1089 281 
Q 1128 197 1204 155 
Q 1281 113 1516 113 
L 1516 0 
L 100 0 
L 100 113 
Q 297 113 375 155 
Q 453 197 493 289 
Q 534 381 534 647 
L 534 1741 
Q 534 2213 506 2350 
Q 484 2453 437 2492 
Q 391 2531 309 2531 
Q 222 2531 100 2484 
L 53 2597 
L 916 2947 
L 1050 2947 
L 1050 2338 
z
" transform="scale(0.015625)"/>
       <path id="TimesNewRomanPSMT-65" d="M 681 1784 
Q 678 1147 991 784 
Q 1303 422 1725 422 
Q 2006 422 2214 576 
Q 2422 731 2563 1106 
L 2659 1044 
Q 2594 616 2278 264 
Q 1963 -88 1488 -88 
Q 972 -88 605 314 
Q 238 716 238 1394 
Q 238 2128 614 2539 
Q 991 2950 1559 2950 
Q 2041 2950 2350 2633 
Q 2659 2316 2659 1784 
L 681 1784 
z
M 681 1966 
L 2006 1966 
Q 1991 2241 1941 2353 
Q 1863 2528 1708 2628 
Q 1553 2728 1384 2728 
Q 1125 2728 920 2526 
Q 716 2325 681 1966 
z
" transform="scale(0.015625)"/>
      </defs>
      <use xlink:href="#TimesNewRomanPSMT-74"/>
      <use xlink:href="#TimesNewRomanPSMT-69" transform="translate(27.783203 0)"/>
      <use xlink:href="#TimesNewRomanPSMT-6d" transform="translate(55.566406 0)"/>
      <use xlink:href="#TimesNewRomanPSMT-65" transform="translate(133.349609 0)"/>
     </g>
    </g>
   </g>
   <g id="matplotlib.axis_2">
    <g id="ytick_1">
     <g id="line2d_3">
      <defs>
       <path id="mbba66d89ad" d="M 0 0 
L 3.5 0 
" style="stroke: #000000; stroke-width: 0.8"/>
      </defs>
      <g>
       <use xlink:href="#mbba66d89ad" x="35.197031" y="219.2148" style="stroke: #000000; stroke-width: 0.8"/>
      </g>
     </g>
     <g id="text_4">
      <!-- −4 -->
      <g transform="translate(22.121875 222.339487) scale(0.09 -0.09)">
       <defs>
        <path id="TimesNewRomanPSMT-2212" d="M 3484 2000 
L 116 2000 
L 116 2256 
L 3484 2256 
L 3484 2000 
z
" transform="scale(0.015625)"/>
        <path id="TimesNewRomanPSMT-34" d="M 2978 1563 
L 2978 1119 
L 2409 1119 
L 2409 0 
L 1894 0 
L 1894 1119 
L 100 1119 
L 100 1519 
L 2066 4325 
L 2409 4325 
L 2409 1563 
L 2978 1563 
z
M 1894 1563 
L 1894 3666 
L 406 1563 
L 1894 1563 
z
" transform="scale(0.015625)"/>
       </defs>
       <use xlink:href="#TimesNewRomanPSMT-2212"/>
       <use xlink:href="#TimesNewRomanPSMT-34" transform="translate(56.396484 0)"/>
      </g>
     </g>
    </g>
    <g id="ytick_2">
     <g id="line2d_4">
      <g>
       <use xlink:href="#mbba66d89ad" x="35.197031" y="172.1004" style="stroke: #000000; stroke-width: 0.8"/>
      </g>
     </g>
     <g id="text_5">
      <!-- −2 -->
      <g transform="translate(22.121875 175.225087) scale(0.09 -0.09)">
       <defs>
        <path id="TimesNewRomanPSMT-32" d="M 2934 816 
L 2638 0 
L 138 0 
L 138 116 
Q 1241 1122 1691 1759 
Q 2141 2397 2141 2925 
Q 2141 3328 1894 3587 
Q 1647 3847 1303 3847 
Q 991 3847 742 3664 
Q 494 3481 375 3128 
L 259 3128 
Q 338 3706 661 4015 
Q 984 4325 1469 4325 
Q 1984 4325 2329 3994 
Q 2675 3663 2675 3213 
Q 2675 2891 2525 2569 
Q 2294 2063 1775 1497 
Q 997 647 803 472 
L 1909 472 
Q 2247 472 2383 497 
Q 2519 522 2628 598 
Q 2738 675 2819 816 
L 2934 816 
z
" transform="scale(0.015625)"/>
       </defs>
       <use xlink:href="#TimesNewRomanPSMT-2212"/>
       <use xlink:href="#TimesNewRomanPSMT-32" transform="translate(56.396484 0)"/>
      </g>
     </g>
    </g>
    <g id="ytick_3">
     <g id="line2d_5">
      <g>
       <use xlink:href="#mbba66d89ad" x="35.197031" y="124.986" style="stroke: #000000; stroke-width: 0.8"/>
      </g>
     </g>
     <g id="text_6">
      <!-- 0 -->
      <g transform="translate(27.197031 128.110687) scale(0.09 -0.09)">
       <use xlink:href="#TimesNewRomanPSMT-30"/>
      </g>
     </g>
    </g>
    <g id="ytick_4">
     <g id="line2d_6">
      <g>
       <use xlink:href="#mbba66d89ad" x="35.197031" y="77.8716" style="stroke: #000000; stroke-width: 0.8"/>
      </g>
     </g>
     <g id="text_7">
      <!-- 2 -->
      <g transform="translate(27.197031 80.996287) scale(0.09 -0.09)">
       <use xlink:href="#TimesNewRomanPSMT-32"/>
      </g>
     </g>
    </g>
    <g id="ytick_5">
     <g id="line2d_7">
      <g>
       <use xlink:href="#mbba66d89ad" x="35.197031" y="30.7572" style="stroke: #000000; stroke-width: 0.8"/>
      </g>
     </g>
     <g id="text_8">
      <!-- 4 -->
      <g transform="translate(27.197031 33.881888) scale(0.09 -0.09)">
       <use xlink:href="#TimesNewRomanPSMT-34"/>
      </g>
     </g>
    </g>
    <g id="text_9">
     <!-- Activity -->
     <g transform="translate(15.5325 144.650062) rotate(-90) scale(0.12 -0.12)">
      <defs>
       <path id="TimesNewRomanPSMT-41" d="M 2928 1419 
L 1288 1419 
L 1000 750 
Q 894 503 894 381 
Q 894 284 986 211 
Q 1078 138 1384 116 
L 1384 0 
L 50 0 
L 50 116 
Q 316 163 394 238 
Q 553 388 747 847 
L 2238 4334 
L 2347 4334 
L 3822 809 
Q 4000 384 4145 257 
Q 4291 131 4550 116 
L 4550 0 
L 2878 0 
L 2878 116 
Q 3131 128 3220 200 
Q 3309 272 3309 375 
Q 3309 513 3184 809 
L 2928 1419 
z
M 2841 1650 
L 2122 3363 
L 1384 1650 
L 2841 1650 
z
" transform="scale(0.015625)"/>
       <path id="TimesNewRomanPSMT-63" d="M 2631 1088 
Q 2516 522 2178 217 
Q 1841 -88 1431 -88 
Q 944 -88 581 321 
Q 219 731 219 1428 
Q 219 2103 620 2525 
Q 1022 2947 1584 2947 
Q 2006 2947 2278 2723 
Q 2550 2500 2550 2259 
Q 2550 2141 2473 2067 
Q 2397 1994 2259 1994 
Q 2075 1994 1981 2113 
Q 1928 2178 1911 2362 
Q 1894 2547 1784 2644 
Q 1675 2738 1481 2738 
Q 1169 2738 978 2506 
Q 725 2200 725 1697 
Q 725 1184 976 792 
Q 1228 400 1656 400 
Q 1963 400 2206 609 
Q 2378 753 2541 1131 
L 2631 1088 
z
" transform="scale(0.015625)"/>
       <path id="TimesNewRomanPSMT-76" d="M 53 2863 
L 1400 2863 
L 1400 2747 
L 1313 2747 
Q 1191 2747 1127 2687 
Q 1063 2628 1063 2528 
Q 1063 2419 1128 2269 
L 1794 688 
L 2463 2328 
Q 2534 2503 2534 2594 
Q 2534 2638 2509 2666 
Q 2475 2713 2422 2730 
Q 2369 2747 2206 2747 
L 2206 2863 
L 3141 2863 
L 3141 2747 
Q 2978 2734 2916 2681 
Q 2806 2588 2719 2369 
L 1703 -88 
L 1575 -88 
L 553 2328 
Q 484 2497 421 2570 
Q 359 2644 263 2694 
Q 209 2722 53 2747 
L 53 2863 
z
" transform="scale(0.015625)"/>
       <path id="TimesNewRomanPSMT-79" d="M 38 2863 
L 1372 2863 
L 1372 2747 
L 1306 2747 
Q 1166 2747 1095 2686 
Q 1025 2625 1025 2534 
Q 1025 2413 1128 2197 
L 1825 753 
L 2466 2334 
Q 2519 2463 2519 2588 
Q 2519 2644 2497 2672 
Q 2472 2706 2419 2726 
Q 2366 2747 2231 2747 
L 2231 2863 
L 3163 2863 
L 3163 2747 
Q 3047 2734 2984 2696 
Q 2922 2659 2847 2556 
Q 2819 2513 2741 2316 
L 1575 -541 
Q 1406 -956 1132 -1168 
Q 859 -1381 606 -1381 
Q 422 -1381 303 -1275 
Q 184 -1169 184 -1031 
Q 184 -900 270 -820 
Q 356 -741 506 -741 
Q 609 -741 788 -809 
Q 913 -856 944 -856 
Q 1038 -856 1148 -759 
Q 1259 -663 1372 -384 
L 1575 113 
L 547 2272 
Q 500 2369 397 2513 
Q 319 2622 269 2659 
Q 197 2709 38 2747 
L 38 2863 
z
" transform="scale(0.015625)"/>
      </defs>
      <use xlink:href="#TimesNewRomanPSMT-41"/>
      <use xlink:href="#TimesNewRomanPSMT-63" transform="translate(72.216797 0)"/>
      <use xlink:href="#TimesNewRomanPSMT-74" transform="translate(116.601562 0)"/>
      <use xlink:href="#TimesNewRomanPSMT-69" transform="translate(144.384766 0)"/>
      <use xlink:href="#TimesNewRomanPSMT-76" transform="translate(172.167969 0)"/>
      <use xlink:href="#TimesNewRomanPSMT-69" transform="translate(222.167969 0)"/>
      <use xlink:href="#TimesNewRomanPSMT-74" transform="translate(249.951172 0)"/>
      <use xlink:href="#TimesNewRomanPSMT-79" transform="translate(277.734375 0)"/>
     </g>
    </g>
   </g>
   <g id="line2d_8">
    <path d="M 39.297213 104.623777 
L 40.53035 85.265112 
L 41.352442 75.319458 
L 42.071772 69.160269 
L 42.585579 66.39485 
L 42.996625 65.219181 
L 43.30491 64.955526 
L 43.510432 65.075826 
L 43.818717 65.699194 
L 44.229763 67.347307 
L 44.74357 70.681305 
L 45.360139 76.437584 
L 46.079469 85.309159 
L 47.107083 101.17197 
L 48.956789 134.405834 
L 50.498211 160.29478 
L 51.423064 172.437375 
L 52.142394 179.315698 
L 52.758963 183.137808 
L 53.170009 184.546795 
L 53.478293 184.987774 
L 53.683816 184.98593 
L 53.889339 184.747293 
L 54.197623 183.947667 
L 54.608669 182.0693 
L 55.122476 178.460214 
L 55.739045 172.401384 
L 56.561137 161.755901 
L 57.588751 145.292973 
L 61.288163 82.517284 
L 62.110255 73.300303 
L 62.726823 68.494536 
L 63.240631 66.013329 
L 63.651676 65.072139 
L 63.857199 64.955526 
L 64.062722 65.075826 
L 64.371007 65.699194 
L 64.782052 67.347307 
L 65.29586 70.681305 
L 65.912428 76.437584 
L 66.631759 85.309159 
L 67.659373 101.17197 
L 69.509079 134.405834 
L 71.050501 160.29478 
L 71.975354 172.437375 
L 72.694684 179.315698 
L 73.311253 183.137808 
L 73.722299 184.546795 
L 74.030583 184.987774 
L 74.236106 184.98593 
L 74.441629 184.747293 
L 74.749913 183.947667 
L 75.160959 182.0693 
L 75.674766 178.460214 
L 76.291335 172.401384 
L 77.113426 161.755901 
L 78.141041 145.292973 
L 81.840453 82.517284 
L 82.662545 73.300303 
L 83.279113 68.494536 
L 83.792921 66.013329 
L 84.203966 65.072139 
L 84.409489 64.955526 
L 84.615012 65.075826 
L 84.923296 65.699194 
L 85.334342 67.347307 
L 85.84815 70.681305 
L 86.464718 76.437584 
L 87.184048 85.309159 
L 88.211663 101.17197 
L 90.061369 134.405834 
L 91.602791 160.29478 
L 92.527644 172.437375 
L 93.246974 179.315698 
L 93.863543 183.137808 
L 94.274588 184.546795 
L 94.582873 184.987774 
L 94.788396 184.98593 
L 94.993918 184.747293 
L 95.302203 183.947667 
L 95.713249 182.0693 
L 96.227056 178.460214 
L 96.843625 172.401384 
L 97.665716 161.755901 
L 98.693331 145.292973 
L 102.392743 82.517284 
L 103.214834 73.300303 
L 103.831403 68.494536 
L 104.34521 66.013329 
L 104.756256 65.072139 
L 104.961779 64.955526 
L 105.167302 65.075826 
L 105.475586 65.699194 
L 105.886632 67.347307 
L 106.400439 70.681305 
L 107.017008 76.437584 
L 107.736338 85.309159 
L 108.763953 101.17197 
L 110.613659 134.405834 
L 112.15508 160.29478 
L 113.079934 172.437375 
L 113.799264 179.315698 
L 114.415832 183.137808 
L 114.826878 184.546795 
L 115.135162 184.987774 
L 115.340685 184.98593 
L 115.546208 184.747293 
L 115.854493 183.947667 
L 116.265538 182.0693 
L 116.779346 178.460214 
L 117.395914 172.401384 
L 118.218006 161.755901 
L 119.24562 145.292973 
L 121.300849 108.209837 
L 121.300849 108.209837 
" clip-path="url(#p26e12517ec)" style="fill: none; stroke: #ff0000; stroke-width: 2; stroke-linecap: square"/>
   </g>
   <g id="line2d_9">
    <path d="M 39.297213 98.033253 
L 39.708259 84.399773 
L 39.913782 90.264131 
L 40.119305 91.731672 
L 40.222066 90.338617 
L 40.838635 94.876804 
L 41.044158 80.178206 
L 41.146919 79.150256 
L 41.249681 76.104917 
L 41.455203 78.021445 
L 41.660726 76.928125 
L 42.174534 81.501142 
L 42.277295 81.174059 
L 42.482818 69.383307 
L 42.585579 69.817957 
L 42.688341 71.355471 
L 42.791102 66.167647 
L 42.893864 67.33225 
L 42.996625 64.178462 
L 43.099387 67.315504 
L 43.30491 66.342252 
L 43.510432 71.771991 
L 43.613194 72.065175 
L 43.715955 71.970869 
L 44.127001 75.450139 
L 44.229763 72.478062 
L 44.332524 73.517719 
L 44.435286 72.040113 
L 44.74357 76.078192 
L 44.846331 76.678903 
L 45.051854 68.464015 
L 45.154616 70.834264 
L 45.257377 78.817146 
L 45.4629 76.300522 
L 45.565661 77.264494 
L 45.873946 86.168774 
L 46.387753 89.61572 
L 46.490515 89.708449 
L 46.696037 94.096874 
L 46.798799 94.708478 
L 46.90156 93.358552 
L 47.415368 114.163233 
L 47.518129 114.377524 
L 47.62089 113.906171 
L 47.723652 114.579948 
L 47.826413 112.11039 
L 47.929175 112.157305 
L 48.031936 124.231489 
L 48.134698 124.046322 
L 48.237459 117.333157 
L 48.340221 117.953769 
L 48.545743 125.829992 
L 48.648505 129.500965 
L 48.751266 129.411569 
L 48.854028 130.19365 
L 49.059551 129.989468 
L 49.162312 133.494473 
L 49.367835 144.582503 
L 49.470597 144.194492 
L 49.573358 147.674569 
L 49.676119 146.083197 
L 49.778881 147.887195 
L 49.984404 147.170306 
L 50.189927 166.144165 
L 50.292688 162.817626 
L 50.39545 166.428101 
L 50.498211 165.607547 
L 50.600972 167.55608 
L 50.909257 164.363386 
L 51.012018 164.055883 
L 51.217541 165.392752 
L 51.320303 164.592699 
L 51.525826 169.65784 
L 51.628587 175.500755 
L 51.731348 174.500563 
L 51.83411 170.268827 
L 52.039633 184.977543 
L 52.142394 185.08791 
L 52.245156 187.105158 
L 52.347917 185.98351 
L 52.450679 189.13513 
L 52.758963 182.939225 
L 52.861724 182.661458 
L 52.964486 181.519484 
L 53.067247 183.935765 
L 53.170009 182.133051 
L 53.27277 185.023555 
L 53.375532 183.999056 
L 53.478293 181.50875 
L 53.581054 186.486005 
L 53.683816 186.065169 
L 53.889339 184.861164 
L 53.9921 179.152897 
L 54.094862 186.336892 
L 54.300385 183.931448 
L 54.505908 179.351625 
L 55.019715 174.598098 
L 55.122476 165.318001 
L 55.225238 168.983391 
L 55.533522 165.684323 
L 55.739045 164.416337 
L 55.841806 170.202539 
L 56.047329 168.429691 
L 56.252852 161.552672 
L 56.458375 159.892398 
L 56.561137 159.655647 
L 56.766659 157.66012 
L 56.972182 156.379035 
L 57.074944 158.350645 
L 57.280467 146.642035 
L 57.383228 141.780034 
L 57.48599 143.562892 
L 57.691512 142.626507 
L 57.897035 136.487401 
L 58.102558 136.036454 
L 58.20532 128.920439 
L 58.308081 129.296933 
L 58.410843 129.607932 
L 58.616365 127.515893 
L 58.821888 117.601149 
L 58.92465 117.747369 
L 59.130173 116.81102 
L 59.438457 117.297964 
L 59.541219 108.219111 
L 59.64398 108.885428 
L 59.746741 104.639433 
L 59.849503 105.042295 
L 59.952264 105.904586 
L 60.157787 95.622768 
L 60.260549 95.770759 
L 60.36331 96.803616 
L 60.466072 89.386352 
L 60.671594 90.185679 
L 60.774356 88.378047 
L 60.979879 90.395822 
L 61.288163 92.410065 
L 61.493686 85.491075 
L 61.596448 85.211445 
L 61.699209 85.998981 
L 61.904732 83.823905 
L 62.110255 78.127135 
L 62.315778 70.421342 
L 62.521301 63.01209 
L 62.624062 63.480929 
L 62.726823 57.788682 
L 63.240631 64.146277 
L 63.343392 62.008156 
L 63.446154 63.255117 
L 63.548915 62.46581 
L 63.651676 65.474343 
L 63.754438 65.350747 
L 63.857199 65.389388 
L 63.959961 67.324851 
L 64.165484 55.113126 
L 64.782052 63.511507 
L 64.987575 60.206067 
L 65.090337 61.488709 
L 65.193098 61.130866 
L 65.29586 62.679163 
L 65.398621 60.778719 
L 65.604144 63.914259 
L 65.706905 71.073342 
L 65.809667 71.056677 
L 66.220713 75.385681 
L 66.528997 85.060076 
L 66.837281 87.488233 
L 66.940043 84.13581 
L 67.351089 94.897952 
L 67.45385 95.493695 
L 67.659373 106.787003 
L 67.762134 108.29487 
L 67.967657 105.446319 
L 68.17318 106.693241 
L 68.378703 120.19797 
L 68.584226 124.050681 
L 68.789749 121.134153 
L 68.995272 128.010182 
L 69.098033 127.950303 
L 69.200795 134.802287 
L 69.303556 133.972416 
L 69.406318 142.224036 
L 69.509079 140.640085 
L 69.611841 140.78453 
L 69.714602 140.471719 
L 69.817363 139.374641 
L 70.228409 153.982007 
L 70.433932 153.204227 
L 70.536694 155.794701 
L 70.639455 162.066045 
L 70.742216 158.785976 
L 70.844978 159.294297 
L 70.947739 171.100627 
L 71.050501 170.187557 
L 71.153262 168.764473 
L 71.358785 178.108491 
L 71.461547 179.089132 
L 71.66707 176.967858 
L 71.769831 174.636692 
L 71.872592 181.92904 
L 72.180877 178.967748 
L 72.283638 179.486049 
L 72.3864 185.075402 
L 72.489161 182.642994 
L 72.591923 188.043546 
L 72.797445 185.282354 
L 73.002968 189.580918 
L 73.208491 187.400268 
L 73.414014 181.747409 
L 73.516776 182.410498 
L 73.619537 179.971567 
L 73.722299 183.242224 
L 73.82506 182.08875 
L 73.927821 188.59409 
L 74.338867 184.641701 
L 74.54439 195.443836 
L 74.852674 191.15112 
L 75.058197 188.556921 
L 75.160959 191.038936 
L 75.880289 171.852446 
L 75.98305 173.342997 
L 76.085812 172.458203 
L 76.188573 176.669442 
L 76.291335 171.547231 
L 76.394096 172.451279 
L 76.496858 171.511466 
L 76.702381 183.379907 
L 76.805142 182.567198 
L 77.113426 178.641074 
L 77.318949 176.485514 
L 77.524472 166.279418 
L 78.243802 161.333569 
L 78.75761 140.554247 
L 78.860371 140.60509 
L 79.065894 139.992697 
L 79.271417 133.786353 
L 79.374178 133.720418 
L 79.579701 121.660602 
L 79.887985 121.854245 
L 79.990747 121.289871 
L 80.093508 121.435728 
L 80.401793 111.434017 
L 80.607316 111.965363 
L 80.710077 107.253723 
L 80.812838 107.9958 
L 80.9156 106.983055 
L 81.018361 107.339513 
L 81.429407 84.006193 
L 81.737692 86.29395 
L 81.943214 87.487304 
L 82.045976 87.633316 
L 82.35426 83.211255 
L 82.457022 84.038395 
L 82.662545 79.251227 
L 82.765306 78.752669 
L 82.868067 72.936319 
L 83.07359 74.97708 
L 83.279113 68.498166 
L 83.484636 64.171387 
L 83.587398 65.051835 
L 84.101205 70.713339 
L 84.203966 70.6458 
L 84.409489 73.043036 
L 84.512251 70.137958 
L 84.615012 70.168744 
L 84.717774 70.610473 
L 84.820535 74.245272 
L 84.923296 72.742289 
L 85.026058 73.776715 
L 85.231581 72.753695 
L 85.334342 72.802199 
L 85.437104 52.52938 
L 85.539865 53.964021 
L 85.84815 56.95761 
L 85.950911 57.70811 
L 86.156434 61.57816 
L 86.361957 71.234454 
L 86.56748 75.193896 
L 86.773003 77.146143 
L 86.875764 85.644356 
L 86.978525 82.419406 
L 87.081287 82.50398 
L 87.184048 83.619458 
L 87.389571 81.173215 
L 87.492333 81.4052 
L 87.697856 83.113914 
L 87.800617 82.800844 
L 88.00614 84.009568 
L 88.622709 105.588122 
L 88.72547 105.9722 
L 88.828232 113.677716 
L 88.930993 112.461529 
L 89.033754 112.709513 
L 89.136516 120.264879 
L 89.239277 118.954251 
L 89.342039 119.07368 
L 89.4448 119.525076 
L 89.650323 118.174394 
L 90.061369 124.030946 
L 90.16413 130.960533 
L 90.266892 130.388982 
L 90.369653 133.258502 
L 90.472415 141.798912 
L 90.575176 141.466016 
L 90.677938 141.139712 
L 90.780699 140.061623 
L 91.088983 149.120338 
L 91.191745 157.395589 
L 91.397268 155.044769 
L 91.500029 156.409926 
L 91.602791 155.513468 
L 91.705552 161.411571 
L 91.808314 159.250253 
L 91.911075 160.358786 
L 92.013836 165.614475 
L 92.219359 164.021515 
L 92.424882 171.473842 
L 92.938689 167.134381 
L 93.041451 169.669092 
L 93.144212 180.159356 
L 93.246974 179.732236 
L 93.452497 179.871549 
L 93.65802 177.075946 
L 93.863543 185.15192 
L 93.966304 183.960635 
L 94.171827 182.689932 
L 94.274588 183.207657 
L 95.09668 173.480391 
L 95.302203 191.379037 
L 95.404964 192.286177 
L 95.507726 190.822059 
L 95.610487 198.319527 
L 95.713249 197.414654 
L 96.124294 188.643435 
L 96.227056 187.383018 
L 96.329817 184.375391 
L 96.53534 176.873174 
L 96.638102 175.845808 
L 96.740863 176.812021 
L 96.843625 175.785866 
L 96.946386 170.346817 
L 97.049147 173.593583 
L 97.357432 171.047303 
L 97.460193 170.13529 
L 97.665716 165.466633 
L 97.974 162.336757 
L 98.076762 167.805041 
L 98.282285 165.433018 
L 98.385046 159.353979 
L 98.487808 164.819829 
L 98.590569 163.547208 
L 98.693331 163.97448 
L 99.207138 159.758002 
L 99.412661 153.2787 
L 99.618184 149.179201 
L 99.926468 134.762519 
L 100.029229 133.925291 
L 100.234752 128.27215 
L 100.337514 128.207085 
L 100.440275 119.600712 
L 100.543037 119.707341 
L 100.74856 119.914307 
L 100.851321 109.330068 
L 100.954083 109.640056 
L 101.056844 109.943906 
L 101.159605 109.796469 
L 101.262367 108.854584 
L 101.570651 109.793943 
L 101.776174 95.741729 
L 101.878936 96.320766 
L 101.981697 96.888338 
L 102.084458 96.846725 
L 102.18722 96.76023 
L 102.495504 82.33629 
L 102.598266 81.823584 
L 102.803789 83.515894 
L 102.90655 82.818304 
L 103.112073 84.471613 
L 103.214834 83.654785 
L 103.420357 73.85826 
L 103.62588 65.975073 
L 104.036926 70.460624 
L 104.139687 67.587339 
L 104.242449 67.805916 
L 104.34521 68.938082 
L 104.447972 65.614619 
L 104.550733 68.51561 
L 104.653495 66.987351 
L 104.756256 67.375271 
L 105.270063 71.873057 
L 105.372825 60.851603 
L 105.475586 62.121465 
L 105.578348 66.342681 
L 105.681109 60.593772 
L 105.886632 63.11846 
L 105.989394 62.903345 
L 106.194916 59.372757 
L 106.708724 65.0634 
L 106.811485 65.489414 
L 107.017008 67.17857 
L 107.119769 73.876664 
L 107.222531 70.438115 
L 107.428054 72.860791 
L 107.633577 76.941344 
L 107.736338 77.133413 
L 107.8391 76.838256 
L 108.147384 78.836197 
L 108.250145 83.488978 
L 108.352907 82.486304 
L 108.455668 82.567345 
L 108.763953 85.037453 
L 108.866714 91.547676 
L 108.969476 90.769663 
L 109.174998 101.861561 
L 109.483283 110.340143 
L 109.586044 109.986479 
L 110.099851 111.41378 
L 110.202613 125.476006 
L 110.305374 123.925954 
L 110.510897 119.627962 
L 110.921943 132.64521 
L 111.024705 132.493558 
L 111.127466 131.891652 
L 111.230227 133.806454 
L 111.43575 144.144958 
L 111.538512 147.224581 
L 111.641273 146.784257 
L 111.744035 148.945844 
L 111.949558 156.789084 
L 112.052319 156.159383 
L 112.15508 157.960657 
L 112.257842 157.307759 
L 112.360603 159.746239 
L 112.463365 155.79358 
L 112.668888 161.106749 
L 112.874411 159.690528 
L 112.977172 160.790343 
L 113.079934 159.807153 
L 113.593741 183.047475 
L 113.696502 181.897858 
L 113.902025 178.378884 
L 114.210309 175.55969 
L 114.415832 182.988854 
L 114.518594 180.016083 
L 114.724117 185.539828 
L 114.92964 183.165636 
L 115.032401 186.098786 
L 115.237924 183.702678 
L 115.340685 190.176061 
L 115.546208 187.620092 
L 115.64897 189.152465 
L 115.957254 184.768461 
L 116.162777 176.288366 
L 116.265538 175.272579 
L 116.3683 177.037367 
L 116.471061 176.553882 
L 116.573823 178.199748 
L 116.676584 188.278876 
L 116.779346 182.99136 
L 116.882107 189.194724 
L 117.190391 185.181481 
L 117.293153 185.904311 
L 117.498676 183.515828 
L 117.601437 177.923726 
L 117.704199 184.511533 
L 117.909722 182.708805 
L 118.012483 177.273268 
L 118.115245 183.015858 
L 118.423529 178.495183 
L 118.937336 173.125294 
L 119.040098 173.959101 
L 119.553905 169.619875 
L 119.964951 148.052554 
L 120.375996 146.155316 
L 120.581519 136.340093 
L 120.684281 136.115282 
L 120.787042 136.780767 
L 120.992565 135.512536 
L 121.095327 135.304111 
L 121.198088 136.33706 
L 121.300849 136.112309 
L 121.300849 136.112309 
" clip-path="url(#p26e12517ec)" style="fill: none; stroke: #000000; stroke-linecap: square"/>
   </g>
   <g id="line2d_10">
    <path d="M 39.297213 124.96979 
L 41.044158 124.974462 
L 41.146919 120.26325 
L 41.249681 120.356761 
L 42.585579 121.416555 
L 43.30491 121.882844 
L 43.407671 117.232847 
L 43.510432 117.386359 
L 44.74357 119.007814 
L 45.4629 119.788765 
L 45.565661 115.18023 
L 45.668423 115.374385 
L 46.90156 117.425113 
L 48.134698 119.038299 
L 48.237459 114.444623 
L 48.340221 114.653343 
L 49.470597 116.693725 
L 50.703734 118.462959 
L 51.936871 119.854711 
L 53.27277 121.029442 
L 54.71143 121.995641 
L 56.252852 122.770643 
L 58.102558 123.44036 
L 60.260549 123.970413 
L 61.185402 124.1377 
L 61.288163 119.443057 
L 61.390925 119.552807 
L 62.726823 120.796654 
L 63.343392 121.270353 
L 63.446154 116.632483 
L 63.548915 116.797883 
L 64.782052 118.544894 
L 65.398621 119.273205 
L 65.501383 114.674879 
L 65.604144 114.879039 
L 66.73452 116.874853 
L 67.967657 118.605442 
L 68.070419 118.731777 
L 68.17318 114.144171 
L 68.275942 114.358839 
L 69.406318 116.457377 
L 70.639455 118.277038 
L 71.872592 119.708458 
L 73.208491 120.916671 
L 74.647152 121.910409 
L 76.188573 122.7075 
L 77.935518 123.364194 
L 79.990747 123.898842 
L 82.251499 124.28581 
L 82.35426 119.588233 
L 82.457022 119.695109 
L 83.792921 120.906378 
L 84.512251 121.439314 
L 84.615012 116.798098 
L 84.717774 116.960219 
L 85.950911 118.672594 
L 86.361957 119.15796 
L 86.464718 114.561916 
L 86.56748 114.768312 
L 87.697856 116.785992 
L 88.622709 118.136694 
L 88.72547 113.56087 
L 88.828232 113.787088 
L 89.958607 115.998528 
L 91.191745 117.91609 
L 92.424882 119.424521 
L 93.760781 120.697738 
L 95.199441 121.74494 
L 96.740863 122.584915 
L 98.487808 123.276939 
L 100.543037 123.840351 
L 103.009311 124.277069 
L 103.112073 119.579665 
L 103.214834 119.686711 
L 104.550733 120.899903 
L 105.372825 121.50402 
L 105.475586 116.861523 
L 105.578348 117.022388 
L 106.811485 118.721499 
L 107.222531 119.203105 
L 107.325292 114.606167 
L 107.428054 114.811687 
L 108.55843 116.820801 
L 109.791567 118.562923 
L 109.99709 118.814759 
L 110.099851 114.225509 
L 110.202613 114.438567 
L 111.332989 116.521361 
L 112.566126 118.327371 
L 113.799264 119.748052 
L 115.135162 120.947201 
L 116.573823 121.933483 
L 118.115245 122.724594 
L 119.862189 123.376361 
L 121.300849 123.769438 
L 121.300849 123.769438 
" clip-path="url(#p26e12517ec)" style="fill: none; stroke: #0000ff; stroke-linecap: square"/>
   </g>
   <g id="patch_3">
    <path d="M 35.197031 242.772 
L 35.197031 7.2 
" style="fill: none; stroke: #000000; stroke-width: 0.8; stroke-linejoin: miter; stroke-linecap: square"/>
   </g>
   <g id="patch_4">
    <path d="M 125.401031 242.772 
L 125.401031 7.2 
" style="fill: none; stroke: #000000; stroke-width: 0.8; stroke-linejoin: miter; stroke-linecap: square"/>
   </g>
   <g id="patch_5">
    <path d="M 35.197031 242.772 
L 125.401031 242.772 
" style="fill: none; stroke: #000000; stroke-width: 0.8; stroke-linejoin: miter; stroke-linecap: square"/>
   </g>
   <g id="patch_6">
    <path d="M 35.197031 7.2 
L 125.401031 7.2 
" style="fill: none; stroke: #000000; stroke-width: 0.8; stroke-linejoin: miter; stroke-linecap: square"/>
   </g>
   <g id="legend_1">
    <g id="line2d_11">
     <path d="M 45.997031 22.2 
L 57.997031 22.2 
L 69.997031 22.2 
" style="fill: none; stroke: #ff0000; stroke-width: 2; stroke-linecap: square"/>
    </g>
    <g id="text_10">
     <!-- target -->
     <g transform="translate(79.597031 26.4) scale(0.12 -0.12)">
      <defs>
       <path id="TimesNewRomanPSMT-61" d="M 1822 413 
Q 1381 72 1269 19 
Q 1100 -59 909 -59 
Q 613 -59 420 144 
Q 228 347 228 678 
Q 228 888 322 1041 
Q 450 1253 767 1440 
Q 1084 1628 1822 1897 
L 1822 2009 
Q 1822 2438 1686 2597 
Q 1550 2756 1291 2756 
Q 1094 2756 978 2650 
Q 859 2544 859 2406 
L 866 2225 
Q 866 2081 792 2003 
Q 719 1925 600 1925 
Q 484 1925 411 2006 
Q 338 2088 338 2228 
Q 338 2497 613 2722 
Q 888 2947 1384 2947 
Q 1766 2947 2009 2819 
Q 2194 2722 2281 2516 
Q 2338 2381 2338 1966 
L 2338 994 
Q 2338 584 2353 492 
Q 2369 400 2405 369 
Q 2441 338 2488 338 
Q 2538 338 2575 359 
Q 2641 400 2828 588 
L 2828 413 
Q 2478 -56 2159 -56 
Q 2006 -56 1915 50 
Q 1825 156 1822 413 
z
M 1822 616 
L 1822 1706 
Q 1350 1519 1213 1441 
Q 966 1303 859 1153 
Q 753 1003 753 825 
Q 753 600 887 451 
Q 1022 303 1197 303 
Q 1434 303 1822 616 
z
" transform="scale(0.015625)"/>
       <path id="TimesNewRomanPSMT-72" d="M 1038 2947 
L 1038 2303 
Q 1397 2947 1775 2947 
Q 1947 2947 2059 2842 
Q 2172 2738 2172 2600 
Q 2172 2478 2090 2393 
Q 2009 2309 1897 2309 
Q 1788 2309 1652 2417 
Q 1516 2525 1450 2525 
Q 1394 2525 1328 2463 
Q 1188 2334 1038 2041 
L 1038 669 
Q 1038 431 1097 309 
Q 1138 225 1241 169 
Q 1344 113 1538 113 
L 1538 0 
L 72 0 
L 72 113 
Q 291 113 397 181 
Q 475 231 506 341 
Q 522 394 522 644 
L 522 1753 
Q 522 2253 501 2348 
Q 481 2444 426 2487 
Q 372 2531 291 2531 
Q 194 2531 72 2484 
L 41 2597 
L 906 2947 
L 1038 2947 
z
" transform="scale(0.015625)"/>
       <path id="TimesNewRomanPSMT-67" d="M 966 1044 
Q 703 1172 562 1401 
Q 422 1631 422 1909 
Q 422 2334 742 2640 
Q 1063 2947 1563 2947 
Q 1972 2947 2272 2747 
L 2878 2747 
Q 3013 2747 3034 2739 
Q 3056 2731 3066 2713 
Q 3084 2684 3084 2613 
Q 3084 2531 3069 2500 
Q 3059 2484 3036 2475 
Q 3013 2466 2878 2466 
L 2506 2466 
Q 2681 2241 2681 1891 
Q 2681 1491 2375 1206 
Q 2069 922 1553 922 
Q 1341 922 1119 984 
Q 981 866 932 777 
Q 884 688 884 625 
Q 884 572 936 522 
Q 988 472 1138 450 
Q 1225 438 1575 428 
Q 2219 413 2409 384 
Q 2700 344 2873 169 
Q 3047 -6 3047 -263 
Q 3047 -616 2716 -925 
Q 2228 -1381 1444 -1381 
Q 841 -1381 425 -1109 
Q 191 -953 191 -784 
Q 191 -709 225 -634 
Q 278 -519 444 -313 
Q 466 -284 763 25 
Q 600 122 533 198 
Q 466 275 466 372 
Q 466 481 555 628 
Q 644 775 966 1044 
z
M 1509 2797 
Q 1278 2797 1122 2612 
Q 966 2428 966 2047 
Q 966 1553 1178 1281 
Q 1341 1075 1591 1075 
Q 1828 1075 1981 1253 
Q 2134 1431 2134 1813 
Q 2134 2309 1919 2591 
Q 1759 2797 1509 2797 
z
M 934 0 
Q 788 -159 713 -296 
Q 638 -434 638 -550 
Q 638 -700 819 -813 
Q 1131 -1006 1722 -1006 
Q 2284 -1006 2551 -807 
Q 2819 -609 2819 -384 
Q 2819 -222 2659 -153 
Q 2497 -84 2016 -72 
Q 1313 -53 934 0 
z
" transform="scale(0.015625)"/>
      </defs>
      <use xlink:href="#TimesNewRomanPSMT-74"/>
      <use xlink:href="#TimesNewRomanPSMT-61" transform="translate(27.783203 0)"/>
      <use xlink:href="#TimesNewRomanPSMT-72" transform="translate(72.167969 0)"/>
      <use xlink:href="#TimesNewRomanPSMT-67" transform="translate(103.71875 0)"/>
      <use xlink:href="#TimesNewRomanPSMT-65" transform="translate(153.71875 0)"/>
      <use xlink:href="#TimesNewRomanPSMT-74" transform="translate(198.103516 0)"/>
     </g>
    </g>
    <g id="line2d_12">
     <path d="M 45.997031 39.189375 
L 57.997031 39.189375 
L 69.997031 39.189375 
" style="fill: none; stroke: #000000; stroke-linecap: square"/>
    </g>
    <g id="text_11">
     <!-- input -->
     <g transform="translate(79.597031 43.389375) scale(0.12 -0.12)">
      <defs>
       <path id="TimesNewRomanPSMT-6e" d="M 1034 2341 
Q 1538 2947 1994 2947 
Q 2228 2947 2397 2830 
Q 2566 2713 2666 2444 
Q 2734 2256 2734 1869 
L 2734 647 
Q 2734 375 2778 278 
Q 2813 200 2889 156 
Q 2966 113 3172 113 
L 3172 0 
L 1756 0 
L 1756 113 
L 1816 113 
Q 2016 113 2095 173 
Q 2175 234 2206 353 
Q 2219 400 2219 647 
L 2219 1819 
Q 2219 2209 2117 2386 
Q 2016 2563 1775 2563 
Q 1403 2563 1034 2156 
L 1034 647 
Q 1034 356 1069 288 
Q 1113 197 1189 155 
Q 1266 113 1500 113 
L 1500 0 
L 84 0 
L 84 113 
L 147 113 
Q 366 113 442 223 
Q 519 334 519 647 
L 519 1709 
Q 519 2225 495 2337 
Q 472 2450 423 2490 
Q 375 2531 294 2531 
Q 206 2531 84 2484 
L 38 2597 
L 900 2947 
L 1034 2947 
L 1034 2341 
z
" transform="scale(0.015625)"/>
       <path id="TimesNewRomanPSMT-70" d="M -6 2578 
L 875 2934 
L 994 2934 
L 994 2266 
Q 1216 2644 1439 2795 
Q 1663 2947 1909 2947 
Q 2341 2947 2628 2609 
Q 2981 2197 2981 1534 
Q 2981 794 2556 309 
Q 2206 -88 1675 -88 
Q 1444 -88 1275 -22 
Q 1150 25 994 166 
L 994 -706 
Q 994 -1000 1030 -1079 
Q 1066 -1159 1155 -1206 
Q 1244 -1253 1478 -1253 
L 1478 -1369 
L -22 -1369 
L -22 -1253 
L 56 -1253 
Q 228 -1256 350 -1188 
Q 409 -1153 442 -1076 
Q 475 -1000 475 -688 
L 475 2019 
Q 475 2297 450 2372 
Q 425 2447 370 2484 
Q 316 2522 222 2522 
Q 147 2522 31 2478 
L -6 2578 
z
M 994 2081 
L 994 1013 
Q 994 666 1022 556 
Q 1066 375 1236 237 
Q 1406 100 1666 100 
Q 1978 100 2172 344 
Q 2425 663 2425 1241 
Q 2425 1897 2138 2250 
Q 1938 2494 1663 2494 
Q 1513 2494 1366 2419 
Q 1253 2363 994 2081 
z
" transform="scale(0.015625)"/>
       <path id="TimesNewRomanPSMT-75" d="M 2709 2863 
L 2709 1128 
Q 2709 631 2732 520 
Q 2756 409 2807 365 
Q 2859 322 2928 322 
Q 3025 322 3147 375 
L 3191 266 
L 2334 -88 
L 2194 -88 
L 2194 519 
Q 1825 119 1631 15 
Q 1438 -88 1222 -88 
Q 981 -88 804 51 
Q 628 191 559 409 
Q 491 628 491 1028 
L 491 2306 
Q 491 2509 447 2587 
Q 403 2666 317 2708 
Q 231 2750 6 2747 
L 6 2863 
L 1009 2863 
L 1009 947 
Q 1009 547 1148 422 
Q 1288 297 1484 297 
Q 1619 297 1789 381 
Q 1959 466 2194 703 
L 2194 2325 
Q 2194 2569 2105 2655 
Q 2016 2741 1734 2747 
L 1734 2863 
L 2709 2863 
z
" transform="scale(0.015625)"/>
      </defs>
      <use xlink:href="#TimesNewRomanPSMT-69"/>
      <use xlink:href="#TimesNewRomanPSMT-6e" transform="translate(27.783203 0)"/>
      <use xlink:href="#TimesNewRomanPSMT-70" transform="translate(77.783203 0)"/>
      <use xlink:href="#TimesNewRomanPSMT-75" transform="translate(127.783203 0)"/>
      <use xlink:href="#TimesNewRomanPSMT-74" transform="translate(177.783203 0)"/>
     </g>
    </g>
    <g id="line2d_13">
     <path d="M 45.997031 56.15625 
L 57.997031 56.15625 
L 69.997031 56.15625 
" style="fill: none; stroke: #0000ff; stroke-linecap: square"/>
    </g>
    <g id="text_12">
     <!-- output -->
     <g transform="translate(79.597031 60.35625) scale(0.12 -0.12)">
      <defs>
       <path id="TimesNewRomanPSMT-6f" d="M 1600 2947 
Q 2250 2947 2644 2453 
Q 2978 2031 2978 1484 
Q 2978 1100 2793 706 
Q 2609 313 2286 112 
Q 1963 -88 1566 -88 
Q 919 -88 538 428 
Q 216 863 216 1403 
Q 216 1797 411 2186 
Q 606 2575 925 2761 
Q 1244 2947 1600 2947 
z
M 1503 2744 
Q 1338 2744 1170 2645 
Q 1003 2547 900 2300 
Q 797 2053 797 1666 
Q 797 1041 1045 587 
Q 1294 134 1700 134 
Q 2003 134 2200 384 
Q 2397 634 2397 1244 
Q 2397 2006 2069 2444 
Q 1847 2744 1503 2744 
z
" transform="scale(0.015625)"/>
      </defs>
      <use xlink:href="#TimesNewRomanPSMT-6f"/>
      <use xlink:href="#TimesNewRomanPSMT-75" transform="translate(50 0)"/>
      <use xlink:href="#TimesNewRomanPSMT-74" transform="translate(100 0)"/>
      <use xlink:href="#TimesNewRomanPSMT-70" transform="translate(127.783203 0)"/>
      <use xlink:href="#TimesNewRomanPSMT-75" transform="translate(177.783203 0)"/>
      <use xlink:href="#TimesNewRomanPSMT-74" transform="translate(227.783203 0)"/>
     </g>
    </g>
   </g>
  </g>
  <g id="axes_2">
   <g id="patch_7">
    <path d="M 90.850031 78.093 
L 113.401031 78.093 
L 113.401031 19.2 
L 90.850031 19.2 
z
" style="fill: #ffffff"/>
   </g>
   <g id="matplotlib.axis_3">
    <g id="xtick_3">
     <g id="line2d_14">
      <g>
       <use xlink:href="#md200c17457" x="91.875077" y="78.093" style="stroke: #000000; stroke-width: 0.8"/>
      </g>
     </g>
     <g id="text_13">
      <!-- 0 -->
      <g transform="translate(89.625077 87.842375) scale(0.09 -0.09)">
       <use xlink:href="#TimesNewRomanPSMT-30"/>
      </g>
     </g>
    </g>
    <g id="xtick_4">
     <g id="line2d_15">
      <g>
       <use xlink:href="#md200c17457" x="104.720258" y="78.093" style="stroke: #000000; stroke-width: 0.8"/>
      </g>
     </g>
     <g id="text_14">
      <!-- 500 -->
      <g transform="translate(97.970258 87.842375) scale(0.09 -0.09)">
       <use xlink:href="#TimesNewRomanPSMT-35"/>
       <use xlink:href="#TimesNewRomanPSMT-30" transform="translate(50 0)"/>
       <use xlink:href="#TimesNewRomanPSMT-30" transform="translate(100 0)"/>
      </g>
     </g>
    </g>
   </g>
   <g id="matplotlib.axis_4">
    <g id="ytick_6">
     <g id="line2d_16">
      <g>
       <use xlink:href="#mbba66d89ad" x="90.850031" y="53.841974" style="stroke: #000000; stroke-width: 0.8"/>
      </g>
     </g>
     <g id="text_15">
      <!-- 0.2 -->
      <g transform="translate(76.100031 56.966661) scale(0.09 -0.09)">
       <defs>
        <path id="TimesNewRomanPSMT-2e" d="M 800 606 
Q 947 606 1047 504 
Q 1147 403 1147 259 
Q 1147 116 1045 14 
Q 944 -88 800 -88 
Q 656 -88 554 14 
Q 453 116 453 259 
Q 453 406 554 506 
Q 656 606 800 606 
z
" transform="scale(0.015625)"/>
       </defs>
       <use xlink:href="#TimesNewRomanPSMT-30"/>
       <use xlink:href="#TimesNewRomanPSMT-2e" transform="translate(50 0)"/>
       <use xlink:href="#TimesNewRomanPSMT-32" transform="translate(75 0)"/>
      </g>
     </g>
    </g>
    <g id="ytick_7">
     <g id="line2d_17">
      <g>
       <use xlink:href="#mbba66d89ad" x="90.850031" y="29.531411" style="stroke: #000000; stroke-width: 0.8"/>
      </g>
     </g>
     <g id="text_16">
      <!-- 0.4 -->
      <g transform="translate(76.100031 32.656099) scale(0.09 -0.09)">
       <use xlink:href="#TimesNewRomanPSMT-30"/>
       <use xlink:href="#TimesNewRomanPSMT-2e" transform="translate(50 0)"/>
       <use xlink:href="#TimesNewRomanPSMT-34" transform="translate(75 0)"/>
      </g>
     </g>
    </g>
   </g>
   <g id="line2d_18">
    <path d="M 91.875077 78.068893 
L 92.311813 78.093 
L 92.337503 53.783616 
L 92.440265 55.657066 
L 92.877001 62.14056 
L 92.902691 38.147034 
L 93.005453 41.222604 
L 93.416498 51.33532 
L 93.442189 27.555739 
L 93.54495 31.445552 
L 94.084448 47.462989 
L 94.110138 23.760079 
L 94.2129 27.941698 
L 94.778088 45.813965 
L 95.343276 57.324698 
L 95.908464 64.73825 
L 96.473652 69.51299 
L 97.03884 72.588188 
L 97.347124 73.775394 
L 97.372814 49.551499 
L 97.475576 51.750308 
L 97.886621 58.980169 
L 97.912312 35.049219 
L 98.015073 38.362944 
L 98.400429 48.675083 
L 98.426119 24.948174 
L 98.528881 29.038454 
L 99.068378 45.881367 
L 99.094069 22.209774 
L 99.19683 26.510578 
L 99.762018 44.892244 
L 100.327206 56.731059 
L 100.892394 64.355914 
L 101.457582 69.266744 
L 102.02277 72.429592 
L 102.613648 74.539623 
L 102.639338 50.300596 
L 102.7421 52.441816 
L 103.178836 59.851987 
L 103.204526 35.903775 
L 103.307288 39.151803 
L 103.641263 48.08043 
L 103.666953 24.365295 
L 103.769714 28.500386 
L 104.206451 42.810796 
L 104.232141 19.2 
L 104.334902 23.732192 
L 104.90009 43.102809 
L 105.465278 55.578563 
L 106.030466 63.613642 
L 106.595654 68.78868 
L 107.160842 72.121692 
L 107.751721 74.345244 
L 107.803101 74.494521 
L 107.828792 50.256387 
L 107.931553 52.401005 
L 108.39398 60.185865 
L 108.41967 36.231042 
L 108.522431 39.453911 
L 108.856406 48.313374 
L 108.882097 24.593627 
L 108.984858 28.711164 
L 109.550046 46.309544 
L 109.575736 22.629472 
L 109.678498 26.898011 
L 110.243686 45.141772 
L 110.808874 56.891769 
L 111.374062 64.45942 
L 111.93925 69.333408 
L 112.375986 71.875198 
L 112.375986 71.875198 
" clip-path="url(#p44be5eb4ee)" style="fill: none; stroke: #0000ff; stroke-width: 1.5; stroke-linecap: square"/>
   </g>
   <g id="patch_8">
    <path d="M 90.850031 78.093 
L 90.850031 19.2 
" style="fill: none; stroke: #000000; stroke-width: 0.8; stroke-linejoin: miter; stroke-linecap: square"/>
   </g>
   <g id="patch_9">
    <path d="M 113.401031 78.093 
L 113.401031 19.2 
" style="fill: none; stroke: #000000; stroke-width: 0.8; stroke-linejoin: miter; stroke-linecap: square"/>
   </g>
   <g id="patch_10">
    <path d="M 90.850031 78.093 
L 113.401031 78.093 
" style="fill: none; stroke: #000000; stroke-width: 0.8; stroke-linejoin: miter; stroke-linecap: square"/>
   </g>
   <g id="patch_11">
    <path d="M 90.850031 19.2 
L 113.401031 19.2 
" style="fill: none; stroke: #000000; stroke-width: 0.8; stroke-linejoin: miter; stroke-linecap: square"/>
   </g>
  </g>
 </g>
 <defs>
  <clipPath id="p26e12517ec">
   <rect x="35.197031" y="7.2" width="90.204" height="235.572"/>
  </clipPath>
  <clipPath id="p44be5eb4ee">
   <rect x="90.850031" y="19.2" width="22.551" height="58.893"/>
  </clipPath>
 </defs>
</svg>
