<?xml version="1.0" encoding="utf-8" standalone="no"?>
<!DOCTYPE svg PUBLIC "-//W3C//DTD SVG 1.1//EN"
  "http://www.w3.org/Graphics/SVG/1.1/DTD/svg11.dtd">
<svg xmlns:xlink="http://www.w3.org/1999/xlink" width="216pt" height="144pt" viewBox="0 0 216 144" xmlns="http://www.w3.org/2000/svg" version="1.1">
 <metadata>
  <rdf:RDF xmlns:dc="http://purl.org/dc/elements/1.1/" xmlns:cc="http://creativecommons.org/ns#" xmlns:rdf="http://www.w3.org/1999/02/22-rdf-syntax-ns#">
   <cc:Work>
    <dc:type rdf:resource="http://purl.org/dc/dcmitype/StillImage"/>
    <dc:date>2025-12-19T18:34:54.729305</dc:date>
    <dc:format>image/svg+xml</dc:format>
    <dc:creator>
     <cc:Agent>
      <dc:title>Matplotlib v3.10.5, https://matplotlib.org/</dc:title>
     </cc:Agent>
    </dc:creator>
   </cc:Work>
  </rdf:RDF>
 </metadata>
 <defs>
  <style type="text/css">*{stroke-linejoin: round; stroke-linecap: butt}</style>
 </defs>
 <g id="figure_1">
  <g id="patch_1">
   <path d="M 0 144 
L 216 144 
L 216 0 
L 0 0 
z
" style="fill: #ffffff"/>
  </g>
  <g id="axes_1">
   <g id="patch_2">
    <path d="M 0 144 
L 14.4 144 
L 14.4 0 
L 0 0 
z
" clip-path="url(#pb459fdd2df)" style="fill: #808080; opacity: 0.1; stroke: #808080; stroke-linejoin: miter"/>
   </g>
   <g id="patch_3">
    <path d="M 0 144 
L 14.4 144 
L 14.4 0 
L 0 0 
z
" clip-path="url(#pb459fdd2df)" style="fill: #808080; opacity: 0.1; stroke: #808080; stroke-linejoin: miter"/>
   </g>
   <g id="patch_4">
    <path d="M 0 144 
L 14.4 144 
L 14.4 0 
L 0 0 
z
" clip-path="url(#pb459fdd2df)" style="fill: #808080; opacity: 0.1; stroke: #808080; stroke-linejoin: miter"/>
   </g>
   <g id="patch_5">
    <path d="M 72 144 
L 86.4 144 
L 86.4 0 
L 72 0 
z
" clip-path="url(#pb459fdd2df)" style="fill: #808080; opacity: 0.1; stroke: #808080; stroke-linejoin: miter"/>
   </g>
   <g id="patch_6">
    <path d="M 72 144 
L 86.4 144 
L 86.4 0 
L 72 0 
z
" clip-path="url(#pb459fdd2df)" style="fill: #808080; opacity: 0.1; stroke: #808080; stroke-linejoin: miter"/>
   </g>
   <g id="patch_7">
    <path d="M 72 144 
L 86.4 144 
L 86.4 0 
L 72 0 
z
" clip-path="url(#pb459fdd2df)" style="fill: #808080; opacity: 0.1; stroke: #808080; stroke-linejoin: miter"/>
   </g>
   <g id="patch_8">
    <path d="M 144 144 
L 158.4 144 
L 158.4 0 
L 144 0 
z
" clip-path="url(#pb459fdd2df)" style="fill: #808080; opacity: 0.1; stroke: #808080; stroke-linejoin: miter"/>
   </g>
   <g id="patch_9">
    <path d="M 144 144 
L 158.4 144 
L 158.4 0 
L 144 0 
z
" clip-path="url(#pb459fdd2df)" style="fill: #808080; opacity: 0.1; stroke: #808080; stroke-linejoin: miter"/>
   </g>
   <g id="patch_10">
    <path d="M 144 144 
L 158.4 144 
L 158.4 0 
L 144 0 
z
" clip-path="url(#pb459fdd2df)" style="fill: #808080; opacity: 0.1; stroke: #808080; stroke-linejoin: miter"/>
   </g>
   <g id="line2d_1">
    <path d="M 0 144 
L 0 0 
" clip-path="url(#pb459fdd2df)" style="fill: none; stroke: #808080; stroke-width: 1.5; stroke-linecap: square"/>
   </g>
   <g id="line2d_2">
    <path d="M 0 137.042873 
L 0.144 137.066732 
L 0.36 137.249802 
L 0.648 137.126538 
L 1.008 137.216672 
L 1.296 137.128274 
L 1.512 137.202571 
L 2.232 137.182979 
L 2.448 137.249721 
L 2.664 137.184938 
L 3.096 137.184622 
L 4.248 137.248219 
L 4.392 137.270517 
L 4.752 137.265173 
L 4.896 137.25617 
L 5.184 137.187843 
L 5.4 137.280374 
L 6.48 137.247104 
L 6.552 137.361654 
L 6.624 137.2726 
L 6.912 137.175915 
L 6.984 137.148958 
L 7.128 137.328346 
L 7.272 137.372432 
L 7.632 137.186108 
L 7.848 137.248906 
L 7.992 137.454545 
L 8.136 137.273887 
L 8.352 137.301814 
L 8.64 137.166487 
L 9.072 137.275007 
L 9.288 137.152996 
L 9.936 137.23945 
L 10.152 137.241229 
L 11.592 137.31064 
L 11.736 137.406776 
L 11.808 137.387625 
L 12.024 137.177585 
L 12.24 137.271487 
L 12.456 137.168044 
L 12.672 137.198874 
L 13.536 137.204237 
L 13.68 137.217672 
L 14.04 137.267792 
L 14.328 137.213597 
L 14.472 118.90747 
L 14.76 118.995843 
L 15.84 118.934559 
L 21.6 118.735134 
L 21.816 118.766318 
L 35.064 118.725535 
L 35.208 118.625407 
L 35.424 118.683509 
L 45.072 118.809665 
L 45.504 118.761947 
L 45.792 118.79399 
L 50.04 118.713951 
L 50.256 118.627139 
L 57.6 118.802731 
L 59.256 118.703654 
L 59.544 118.675245 
L 60.696 118.646981 
L 60.912 118.598909 
L 62.712 118.777361 
L 62.928 118.749268 
L 71.928 118.821176 
L 71.928 118.821176 
" clip-path="url(#pb459fdd2df)" style="fill: none; stroke: #000000; stroke-linecap: square"/>
   </g>
   <g id="line2d_3">
    <path d="M 0 118.768731 
L 22.752 118.768731 
L 22.896 118.271119 
L 25.632 118.536002 
L 29.88 118.697213 
L 30.6 118.710176 
L 30.672 118.203672 
L 30.744 118.21486 
L 33.336 118.49912 
L 37.224 118.677165 
L 37.296 118.171315 
L 37.368 118.183144 
L 39.888 118.477923 
L 43.632 118.665936 
L 50.688 118.754249 
L 54.36 118.763508 
L 54.504 118.266102 
L 57.24 118.533656 
L 61.416 118.695032 
L 64.656 118.738765 
L 64.728 118.231695 
L 64.8 118.242329 
L 67.464 118.517564 
L 71.496 118.686774 
L 71.928 118.696041 
L 71.928 118.696041 
" clip-path="url(#pb459fdd2df)" style="fill: none; stroke: #0000ff; stroke-linecap: square"/>
   </g>
   <g id="line2d_4">
    <path d="M 0 144 
L 0 0 
" clip-path="url(#pb459fdd2df)" style="fill: none; stroke: #808080; stroke-width: 1.5; stroke-linecap: square"/>
   </g>
   <g id="line2d_5">
    <path d="M 0 79.834612 
L 4.824 79.919847 
L 5.04 79.923967 
L 5.328 79.928467 
L 5.688 79.890636 
L 5.832 79.86756 
L 6.48 79.795371 
L 6.552 80.007918 
L 6.624 79.981002 
L 9.504 79.964436 
L 9.648 79.989583 
L 9.792 79.865839 
L 10.008 79.870709 
L 10.152 79.824987 
L 10.296 79.841439 
L 10.728 79.924695 
L 10.944 79.956952 
L 11.304 79.865527 
L 11.52 79.903972 
L 11.664 79.857786 
L 11.88 79.846573 
L 12.096 79.870938 
L 12.456 79.886859 
L 13.752 79.879137 
L 13.896 79.896403 
L 14.328 79.919718 
L 14.4 68.028752 
L 14.472 68.151921 
L 14.904 68.072566 
L 22.68 67.997261 
L 22.896 68.106448 
L 27.504 68.085116 
L 28.296 68.178219 
L 28.656 68.117273 
L 38.232 67.925431 
L 48.096 68.025427 
L 49.176 68.025592 
L 65.304 68.022127 
L 65.52 68.038089 
L 71.928 68.056554 
L 71.928 68.056554 
" clip-path="url(#pb459fdd2df)" style="fill: none; stroke: #000000; stroke-linecap: square"/>
   </g>
   <g id="line2d_6">
    <path d="M 0 68.002388 
L 31.032 68.002388 
L 31.176 67.504777 
L 33.912 67.76966 
L 38.16 67.93087 
L 42.912 67.983282 
L 42.984 67.475996 
L 43.056 67.486419 
L 45.72 67.7562 
L 49.824 67.923646 
L 50.4 67.935288 
L 50.472 67.428953 
L 50.544 67.440307 
L 53.136 67.728781 
L 56.952 67.907589 
L 59.832 67.95979 
L 59.904 67.45297 
L 59.976 67.463848 
L 62.568 67.74024 
L 66.528 67.91512 
L 71.928 67.982914 
L 71.928 67.982914 
" clip-path="url(#pb459fdd2df)" style="fill: none; stroke: #0000ff; stroke-linecap: square"/>
   </g>
   <g id="line2d_7">
    <path d="M 0 144 
L 0 0 
" clip-path="url(#pb459fdd2df)" style="fill: none; stroke: #808080; stroke-width: 1.5; stroke-linecap: square"/>
   </g>
   <g id="line2d_8">
    <path d="M 0 8.268972 
L 0.432 8.205134 
L 0.72 7.976036 
L 1.008 7.901657 
L 1.368 7.822303 
L 1.512 7.817611 
L 2.88 7.41805 
L 3.096 7.430632 
L 3.24 7.181861 
L 3.6 7.270109 
L 3.744 7.292325 
L 3.816 7.312986 
L 3.96 7.136758 
L 4.176 7.088004 
L 5.04 7.055275 
L 5.112 6.911315 
L 5.184 6.956276 
L 5.328 6.960704 
L 5.616 7.008969 
L 5.832 6.927018 
L 6.048 6.891076 
L 6.408 6.807313 
L 6.768 6.841036 
L 7.848 6.742074 
L 8.28 6.778042 
L 8.568 6.648537 
L 8.784 6.783558 
L 8.928 6.673023 
L 9.216 6.717181 
L 9.648 6.591521 
L 10.872 6.612719 
L 11.088 6.670607 
L 11.16 6.77098 
L 11.304 6.663043 
L 12.312 6.576708 
L 12.528 6.599191 
L 13.176 6.60898 
L 13.392 6.553342 
L 13.68 6.650597 
L 13.824 6.554452 
L 14.04 6.610917 
L 14.328 6.545455 
L 14.472 15.591196 
L 15.264 15.831695 
L 16.92 16.358007 
L 18.72 16.708446 
L 18.864 16.706194 
L 18.936 16.787479 
L 19.008 16.715669 
L 21.528 16.964104 
L 26.136 17.244778 
L 26.352 17.186254 
L 33.696 17.379851 
L 33.84 17.408259 
L 38.52 17.284403 
L 39.024 17.322121 
L 39.24 17.23958 
L 39.6 17.171429 
L 48.672 17.266191 
L 48.96 17.151248 
L 55.008 17.188448 
L 55.224 17.144294 
L 55.8 17.183546 
L 58.608 17.135394 
L 58.968 17.123369 
L 67.824 17.288895 
L 71.928 17.266 
L 71.928 17.266 
" clip-path="url(#pb459fdd2df)" style="fill: none; stroke: #000000; stroke-linecap: square"/>
   </g>
   <g id="line2d_9">
    <path d="M 0 17.236046 
L 0.648 17.236046 
L 0.792 16.738434 
L 1.656 16.844604 
L 1.728 16.344691 
L 1.8 16.36234 
L 2.736 16.562362 
L 2.808 16.068037 
L 2.88 16.091164 
L 3.816 16.353267 
L 3.888 15.863083 
L 3.96 15.890267 
L 4.896 16.198363 
L 4.968 15.711246 
L 5.04 15.741437 
L 6.048 16.106423 
L 6.12 15.621126 
L 6.192 15.653102 
L 7.056 15.990838 
L 7.128 15.507829 
L 7.2 15.542048 
L 8.208 15.955726 
L 8.28 15.473412 
L 8.352 15.508313 
L 9.288 15.903851 
L 9.36 15.422565 
L 9.432 15.458472 
L 10.44 15.892559 
L 10.512 15.411496 
L 10.584 15.447623 
L 11.448 15.829199 
L 11.52 15.349392 
L 11.592 15.386747 
L 12.456 15.781312 
L 12.528 15.302453 
L 12.6 15.340738 
L 13.536 15.77464 
L 13.608 15.295912 
L 13.68 15.334327 
L 14.688 15.79873 
L 14.76 15.319526 
L 14.832 15.357473 
L 16.272 15.976767 
L 17.64 16.374851 
L 17.712 15.884239 
L 17.784 15.911005 
L 19.44 16.399543 
L 21.528 16.767671 
L 24.336 17.021329 
L 26.568 17.120535 
L 26.64 16.615159 
L 26.712 16.627452 
L 29.16 16.927708 
L 32.76 17.122607 
L 39.312 17.217663 
L 49.032 17.23481 
L 49.176 16.737247 
L 51.912 17.002762 
L 56.16 17.164357 
L 61.2 17.218366 
L 61.272 16.711052 
L 61.344 16.721447 
L 64.008 16.990511 
L 68.112 17.157513 
L 71.928 17.208836 
L 71.928 17.208836 
" clip-path="url(#pb459fdd2df)" style="fill: none; stroke: #0000ff; stroke-linecap: square"/>
   </g>
   <g id="line2d_10">
    <path d="M 72 144 
L 72 0 
" clip-path="url(#pb459fdd2df)" style="fill: none; stroke: #808080; stroke-width: 1.5; stroke-linecap: square"/>
   </g>
   <g id="line2d_11">
    <path d="M 86.472 116.574676 
L 87.48 114.192675 
L 88.2 113.003946 
L 88.776 112.455463 
L 89.208 112.303466 
L 89.64 112.380505 
L 90.072 112.68385 
L 90.576 113.309011 
L 91.224 114.493503 
L 92.088 116.58063 
L 94.824 123.622809 
L 95.472 124.622822 
L 96.048 125.123108 
L 96.48 125.237088 
L 96.912 125.121923 
L 97.344 124.781692 
L 97.92 123.999882 
L 98.64 122.568176 
L 99.648 119.977672 
L 101.736 114.488756 
L 102.456 113.199534 
L 103.032 112.556326 
L 103.536 112.312939 
L 103.968 112.351775 
L 104.4 112.617935 
L 104.904 113.202754 
L 105.552 114.343142 
L 106.416 116.390511 
L 109.368 123.881674 
L 110.016 124.784022 
L 110.52 125.157946 
L 110.952 125.233797 
L 111.384 125.080619 
L 111.888 124.620128 
L 112.464 123.750669 
L 113.184 122.231979 
L 114.336 119.171725 
L 115.992 114.801729 
L 116.784 113.305621 
L 117.36 112.61598 
L 117.864 112.328783 
L 118.296 112.329378 
L 118.728 112.558091 
L 119.232 113.10199 
L 119.88 114.197149 
L 120.672 116.017501 
L 122.328 120.576383 
L 123.408 123.198932 
L 124.128 124.438519 
L 124.704 125.034659 
L 125.208 125.233995 
L 125.64 125.156957 
L 126.072 124.853612 
L 126.576 124.22845 
L 127.224 123.043959 
L 128.088 120.956832 
L 130.824 113.914652 
L 131.472 112.914639 
L 132.048 112.414353 
L 132.48 112.300374 
L 132.912 112.415539 
L 133.344 112.755769 
L 133.92 113.53758 
L 134.64 114.969285 
L 135.648 117.559789 
L 137.736 123.048705 
L 138.456 124.337928 
L 139.032 124.981136 
L 139.536 125.224523 
L 139.968 125.185686 
L 140.4 124.919526 
L 140.904 124.334707 
L 141.552 123.19432 
L 142.416 121.14695 
L 143.928 116.961079 
L 143.928 116.961079 
" clip-path="url(#pb459fdd2df)" style="fill: none; stroke: #ff0000; stroke-width: 2; stroke-linecap: square"/>
   </g>
   <g id="line2d_12">
    <path d="M 72 137.106247 
L 73.296 137.09678 
L 73.368 137.241264 
L 73.44 137.204309 
L 73.728 137.248878 
L 73.872 137.162828 
L 74.304 137.303275 
L 74.52 137.19117 
L 74.736 137.184631 
L 75.24 137.223432 
L 75.384 137.241326 
L 75.528 137.22722 
L 75.672 137.175438 
L 75.816 137.15088 
L 75.888 137.283481 
L 75.96 137.212696 
L 76.032 137.28576 
L 76.104 137.214437 
L 76.752 137.254097 
L 76.896 137.286025 
L 77.184 137.210537 
L 77.4 137.257091 
L 77.688 137.270832 
L 78.336 137.276234 
L 78.552 137.342759 
L 79.128 137.255679 
L 79.632 137.240477 
L 79.776 137.258603 
L 80.28 137.328991 
L 80.928 137.231396 
L 81.144 137.308259 
L 81.288 137.280766 
L 81.792 137.240833 
L 81.936 137.15792 
L 82.44 137.351214 
L 82.728 137.156514 
L 83.088 137.310017 
L 83.664 137.161432 
L 83.88 137.354208 
L 84.6 137.269792 
L 84.672 137.375081 
L 84.744 137.286266 
L 85.176 137.178653 
L 85.608 137.325524 
L 85.752 137.275064 
L 85.968 137.337164 
L 86.328 137.264582 
L 86.4 118.961727 
L 86.472 118.982099 
L 86.616 116.497476 
L 87.408 115.470577 
L 87.48 115.434495 
L 88.272 113.468398 
L 88.776 113.099963 
L 88.92 112.267477 
L 89.064 112.371181 
L 89.208 112.551846 
L 89.28 112.366021 
L 89.424 112.514961 
L 89.568 112.44968 
L 89.64 112.069675 
L 89.712 112.115743 
L 90 112.55476 
L 90.144 112.773619 
L 90.216 112.300847 
L 90.288 112.489455 
L 90.36 112.446432 
L 90.504 112.833186 
L 90.576 112.497769 
L 90.72 112.860221 
L 91.08 113.405432 
L 91.224 113.799632 
L 91.296 113.795131 
L 91.584 114.662321 
L 91.944 115.341048 
L 92.016 116.008269 
L 92.088 115.575 
L 92.88 118.152143 
L 93.096 118.357191 
L 93.312 119.104618 
L 93.888 121.493835 
L 93.96 121.493369 
L 94.032 121.732899 
L 94.104 121.520036 
L 94.176 121.611992 
L 94.392 122.488292 
L 94.752 123.328693 
L 94.824 123.291069 
L 94.968 123.563076 
L 95.04 123.565558 
L 95.184 123.830617 
L 95.4 124.007991 
L 95.544 124.650268 
L 95.616 124.522136 
L 95.688 124.484087 
L 95.76 124.772824 
L 95.832 124.707822 
L 95.976 124.734694 
L 96.192 125.226974 
L 96.408 125.427807 
L 96.696 125.008965 
L 96.84 125.106537 
L 96.912 125.026434 
L 97.128 125.416504 
L 97.2 125.403054 
L 97.416 124.524134 
L 97.488 124.773384 
L 97.632 124.941057 
L 97.92 124.354285 
L 97.992 124.38202 
L 98.064 124.211019 
L 98.208 123.531884 
L 98.352 123.331679 
L 98.712 123.052357 
L 98.856 122.473404 
L 98.928 122.534181 
L 99 122.357855 
L 99.072 122.522298 
L 99.288 121.822512 
L 99.432 121.170679 
L 99.504 121.182998 
L 99.792 120.459304 
L 100.08 118.657327 
L 100.296 118.746799 
L 100.512 118.537546 
L 100.656 117.891698 
L 101.16 116.972179 
L 101.448 114.806537 
L 101.52 115.135519 
L 101.664 114.472495 
L 101.88 114.656294 
L 101.952 114.662509 
L 102.096 114.324704 
L 102.24 114.308325 
L 102.384 114.038373 
L 102.672 112.817723 
L 102.816 113.217976 
L 102.888 112.931533 
L 102.96 112.98508 
L 103.032 113.03178 
L 103.104 112.899934 
L 103.176 113.124475 
L 103.248 112.437607 
L 103.32 112.533685 
L 103.464 112.659088 
L 103.536 112.14276 
L 103.608 112.500041 
L 103.68 112.141514 
L 103.752 112.286398 
L 103.824 112.400191 
L 103.968 112.080759 
L 104.112 112.538574 
L 104.184 112.273694 
L 104.256 112.412852 
L 104.472 112.794632 
L 104.544 112.854603 
L 104.688 112.601928 
L 104.832 112.783298 
L 104.904 112.284465 
L 104.976 112.976165 
L 105.048 112.748124 
L 105.336 113.915327 
L 105.48 113.635312 
L 105.768 114.936115 
L 105.912 114.902523 
L 105.984 114.798037 
L 106.056 114.869581 
L 106.128 115.020308 
L 106.272 116.289473 
L 106.416 116.122552 
L 106.632 116.401806 
L 106.92 118.378995 
L 106.992 118.138089 
L 107.064 118.598608 
L 107.136 118.519569 
L 107.208 118.323425 
L 107.28 118.365103 
L 107.424 118.549242 
L 107.568 119.323251 
L 107.64 119.287866 
L 107.712 120.005149 
L 107.784 119.792496 
L 107.928 119.816961 
L 108 120.178017 
L 108.072 120.10353 
L 108.144 120.201177 
L 108.432 121.761751 
L 108.504 121.83103 
L 108.576 122.320188 
L 108.648 122.177835 
L 108.72 122.373283 
L 108.864 123.221471 
L 108.936 123.086317 
L 109.08 123.302242 
L 109.224 123.195045 
L 109.368 123.512998 
L 109.584 123.167955 
L 109.656 123.250678 
L 109.8 123.874568 
L 109.872 123.79054 
L 109.944 124.636728 
L 110.016 124.492978 
L 110.16 124.324346 
L 110.232 124.709957 
L 110.304 124.567334 
L 110.736 125.923603 
L 111.168 125.059489 
L 111.312 125.788881 
L 111.528 124.861752 
L 111.6 124.911458 
L 111.672 125.399793 
L 111.744 125.216359 
L 112.176 124.402467 
L 112.248 124.507059 
L 112.608 123.569633 
L 112.968 122.310016 
L 113.184 122.197657 
L 113.256 122.648172 
L 113.328 122.395833 
L 113.688 121.539823 
L 113.832 121.072359 
L 113.976 120.287948 
L 114.12 119.739328 
L 114.192 119.905291 
L 114.552 118.932289 
L 114.696 118.84828 
L 114.84 118.370811 
L 114.984 118.264186 
L 115.128 118.040299 
L 115.344 117.400151 
L 115.56 116.96645 
L 115.92 114.809719 
L 115.992 115.226795 
L 116.064 114.316017 
L 116.136 114.448354 
L 116.208 114.341375 
L 116.352 114.508333 
L 116.496 114.233799 
L 116.568 113.440548 
L 116.64 113.482118 
L 116.712 113.718823 
L 116.784 113.574184 
L 117 112.711301 
L 117.072 112.49681 
L 117.144 112.836025 
L 117.216 112.4071 
L 117.288 112.573073 
L 117.504 112.874117 
L 117.648 113.497972 
L 117.792 113.119349 
L 118.008 112.864136 
L 118.08 113.287343 
L 118.152 113.227893 
L 118.368 113.237046 
L 118.44 113.28096 
L 118.584 111.731533 
L 118.8 112.350289 
L 118.872 111.885667 
L 118.944 112.1334 
L 119.16 113.149108 
L 119.232 112.591933 
L 119.304 112.846105 
L 119.376 113.475539 
L 119.448 113.218362 
L 119.592 113.493501 
L 119.736 114.279852 
L 119.952 114.299623 
L 120.024 114.710671 
L 120.096 114.428434 
L 120.168 114.487859 
L 120.312 114.701702 
L 120.744 116.291421 
L 120.816 116.32529 
L 120.96 116.898232 
L 121.104 116.955229 
L 121.176 117.165473 
L 121.32 118.03076 
L 121.464 117.564852 
L 121.68 119.280392 
L 121.752 119.199237 
L 121.896 118.933882 
L 121.968 118.99564 
L 122.328 120.68293 
L 122.4 120.637911 
L 122.472 121.02662 
L 122.544 120.999046 
L 122.616 121.060823 
L 122.904 122.389784 
L 122.976 122.099928 
L 123.048 123.170946 
L 123.12 122.80843 
L 123.192 123.111243 
L 123.264 122.980656 
L 123.336 122.896872 
L 123.48 123.355044 
L 123.552 123.123582 
L 123.624 123.566157 
L 123.696 123.496344 
L 123.768 123.451156 
L 123.84 123.823399 
L 123.912 123.761142 
L 124.056 123.68239 
L 124.2 124.659232 
L 124.272 124.536231 
L 124.56 124.305437 
L 124.632 124.812239 
L 124.704 124.652041 
L 124.776 124.589942 
L 124.848 124.772529 
L 124.92 124.701921 
L 125.136 124.642513 
L 125.208 124.596075 
L 125.352 125.308514 
L 125.496 125.07439 
L 125.568 125.365115 
L 125.64 124.88087 
L 125.712 125.23845 
L 125.784 125.040553 
L 126 124.725149 
L 126.144 124.595369 
L 126.216 125.051639 
L 126.36 123.988836 
L 126.504 124.505588 
L 126.864 123.171624 
L 127.008 124.107731 
L 127.08 124.232649 
L 127.296 123.689978 
L 127.368 123.751558 
L 127.728 122.977807 
L 127.872 121.85132 
L 127.944 121.761298 
L 128.088 121.051612 
L 128.16 121.002121 
L 128.304 120.603015 
L 128.376 120.548947 
L 128.52 119.660333 
L 128.592 119.757223 
L 128.736 119.670307 
L 128.88 118.953111 
L 129.024 118.927341 
L 129.096 118.870842 
L 129.312 117.251292 
L 129.528 117.354485 
L 129.6 117.342628 
L 129.816 116.740302 
L 130.104 115.208169 
L 130.392 115.454075 
L 130.536 115.436832 
L 130.824 113.504885 
L 131.184 114.105023 
L 131.256 113.836738 
L 131.328 113.869384 
L 131.4 112.818968 
L 131.472 112.94279 
L 131.544 112.706244 
L 131.616 112.826723 
L 131.976 113.192892 
L 132.048 113.217773 
L 132.192 112.568942 
L 132.336 112.65706 
L 132.408 112.7343 
L 132.48 113.003688 
L 132.768 112.05504 
L 133.344 113.154635 
L 133.416 113.17357 
L 133.56 112.559431 
L 133.632 112.715143 
L 133.704 112.101508 
L 134.136 113.918827 
L 134.208 114.005319 
L 134.352 114.910428 
L 134.856 115.10668 
L 135.144 116.278559 
L 135.216 116.133534 
L 135.36 116.905271 
L 135.576 118.048914 
L 135.648 117.992223 
L 135.72 118.634026 
L 135.792 118.302667 
L 135.864 118.275901 
L 135.936 118.795566 
L 136.008 118.757223 
L 136.296 118.780249 
L 136.44 120.098886 
L 136.656 119.979663 
L 136.872 121.395048 
L 136.944 121.30264 
L 137.016 120.996015 
L 137.232 122.308205 
L 137.304 122.288491 
L 137.376 121.910705 
L 137.448 121.933199 
L 137.592 123.115369 
L 137.736 122.826735 
L 137.88 123.069872 
L 137.952 122.769199 
L 138.024 123.332908 
L 138.096 123.247685 
L 138.528 123.100573 
L 138.744 124.883923 
L 138.888 125.344012 
L 139.032 124.837638 
L 139.104 124.912632 
L 139.32 125.766506 
L 139.896 124.363909 
L 140.112 124.248274 
L 140.256 123.776884 
L 140.4 123.973595 
L 140.616 123.522305 
L 140.76 124.108546 
L 140.976 123.928657 
L 141.336 122.765916 
L 141.48 122.91005 
L 141.552 122.183929 
L 141.624 122.743469 
L 141.696 122.587052 
L 141.768 122.548994 
L 141.912 122.701369 
L 141.984 122.602107 
L 142.056 122.914626 
L 142.128 122.767561 
L 142.2 122.901452 
L 142.344 121.915392 
L 142.416 121.802961 
L 142.488 121.896679 
L 142.56 121.813083 
L 142.776 121.040865 
L 142.848 120.914436 
L 142.992 119.850296 
L 143.064 119.990054 
L 143.208 119.328752 
L 143.352 119.243329 
L 143.496 118.53288 
L 143.712 118.327778 
L 143.856 117.584791 
L 143.928 117.571885 
L 143.928 117.571885 
" clip-path="url(#pb459fdd2df)" style="fill: none; stroke: #000000; stroke-linecap: square"/>
   </g>
   <g id="line2d_13">
    <path d="M 72 118.69748 
L 81 118.762881 
L 88.2 118.767939 
L 88.344 118.270358 
L 89.496 118.40683 
L 89.568 117.906332 
L 89.64 117.923408 
L 90.936 118.178955 
L 91.008 117.682969 
L 91.08 117.704467 
L 92.736 118.096857 
L 92.808 117.602497 
L 92.88 117.625589 
L 94.68 118.075356 
L 96.984 118.403104 
L 100.224 118.620069 
L 102.024 118.67856 
L 102.096 118.172682 
L 102.168 118.184483 
L 103.824 118.399893 
L 103.896 117.899533 
L 103.968 117.916743 
L 105.624 118.230868 
L 105.696 117.733854 
L 105.768 117.754345 
L 107.568 118.153454 
L 107.64 117.657973 
L 107.712 117.679966 
L 109.512 118.108339 
L 111.888 118.427391 
L 115.272 118.635386 
L 116.64 118.677539 
L 116.712 118.171681 
L 116.784 118.183503 
L 117.936 118.343759 
L 118.008 117.84451 
L 118.08 117.862809 
L 119.592 118.173481 
L 119.664 117.677603 
L 119.736 117.699208 
L 121.536 118.12001 
L 122.04 118.204755 
L 122.112 117.708258 
L 122.184 117.729256 
L 124.056 118.15072 
L 126.504 118.455621 
L 130.032 118.65121 
L 130.392 118.662392 
L 130.464 118.156835 
L 130.536 118.16895 
L 132.048 118.374636 
L 132.12 117.874775 
L 132.192 117.892476 
L 133.344 118.132425 
L 133.416 117.63736 
L 133.488 117.659762 
L 135 118.040065 
L 135.072 117.54683 
L 135.144 117.571023 
L 136.872 118.027585 
L 139.104 118.370019 
L 142.2 118.600001 
L 143.928 118.66432 
L 143.928 118.66432 
" clip-path="url(#pb459fdd2df)" style="fill: none; stroke: #0000ff; stroke-linecap: square"/>
   </g>
   <g id="line2d_14">
    <path d="M 72 144 
L 72 0 
" clip-path="url(#pb459fdd2df)" style="fill: none; stroke: #808080; stroke-width: 1.5; stroke-linecap: square"/>
   </g>
   <g id="line2d_15">
    <path d="M 86.472 70.983273 
L 89.568 71.305375 
L 92.52 71.389469 
L 95.472 71.250025 
L 98.496 70.88511 
L 101.808 70.257755 
L 105.768 69.267645 
L 113.256 67.095802 
L 118.008 65.857031 
L 121.536 65.162963 
L 124.704 64.765875 
L 127.656 64.616748 
L 130.608 64.691064 
L 133.632 64.993656 
L 136.872 65.548172 
L 140.544 66.409182 
L 143.928 67.348625 
L 143.928 67.348625 
" clip-path="url(#pb459fdd2df)" style="fill: none; stroke: #ff0000; stroke-width: 2; stroke-linecap: square"/>
   </g>
   <g id="line2d_16">
    <path d="M 72 79.887706 
L 72.36 79.819435 
L 72.576 79.830799 
L 74.664 79.879337 
L 74.808 79.977843 
L 75.24 79.842127 
L 78.624 79.942037 
L 79.272 79.950302 
L 79.632 79.884178 
L 80.064 79.860766 
L 80.208 79.892214 
L 80.424 79.85541 
L 80.496 79.995053 
L 80.568 79.947607 
L 80.928 79.934464 
L 81.432 79.87946 
L 81.576 79.888227 
L 81.864 79.812199 
L 82.296 79.877934 
L 82.728 79.850121 
L 82.872 79.955991 
L 83.304 79.899088 
L 83.736 79.918692 
L 84.168 79.832033 
L 84.384 79.921727 
L 84.528 79.954233 
L 86.328 79.923296 
L 86.472 68.048041 
L 86.616 70.962269 
L 87.48 70.799421 
L 87.768 70.982583 
L 88.272 70.996884 
L 88.488 71.028732 
L 88.632 70.98663 
L 88.848 71.256199 
L 88.992 71.330968 
L 89.208 71.211855 
L 89.352 71.226457 
L 90.288 71.395975 
L 90.36 71.332875 
L 90.432 71.458182 
L 90.504 71.362216 
L 90.648 71.363838 
L 91.152 71.396245 
L 91.224 71.492237 
L 91.296 71.414964 
L 91.584 71.208419 
L 91.728 71.399864 
L 92.088 71.247278 
L 92.304 71.219249 
L 92.52 71.303489 
L 92.808 71.238597 
L 93.168 71.534766 
L 93.528 71.228946 
L 93.6 71.165315 
L 93.816 71.35672 
L 93.96 71.275414 
L 94.32 71.3202 
L 94.392 71.444675 
L 94.464 71.364872 
L 94.752 71.272052 
L 94.896 71.264222 
L 95.04 71.181083 
L 95.112 71.275037 
L 95.256 71.200279 
L 95.544 71.136419 
L 95.688 71.129715 
L 95.832 71.138421 
L 96.048 71.238051 
L 96.192 71.170029 
L 96.408 71.172733 
L 97.056 71.034711 
L 97.2 71.12196 
L 97.488 70.922458 
L 97.704 71.179174 
L 98.064 70.90883 
L 99 70.774959 
L 99.144 70.656942 
L 99.576 70.704871 
L 99.864 70.659159 
L 100.008 70.638102 
L 100.08 70.758075 
L 100.152 70.686889 
L 100.656 70.419821 
L 100.872 70.629896 
L 101.16 70.495383 
L 102.096 70.39462 
L 102.168 70.531025 
L 102.24 70.469772 
L 102.456 70.310559 
L 102.6 70.231081 
L 102.816 70.179697 
L 102.888 70.247513 
L 102.96 70.168996 
L 103.104 70.179665 
L 103.392 70.117732 
L 103.608 69.963906 
L 103.752 69.93163 
L 103.896 69.82433 
L 103.968 69.930959 
L 104.04 69.869531 
L 104.328 69.860636 
L 104.688 69.647279 
L 104.832 69.723972 
L 105.12 69.544862 
L 105.264 69.575326 
L 105.48 69.474631 
L 105.624 69.463217 
L 105.696 69.309751 
L 105.768 69.363015 
L 106.128 69.267333 
L 106.272 69.252261 
L 106.488 69.103352 
L 106.704 69.083375 
L 106.776 69.226516 
L 106.848 69.171583 
L 106.992 69.189615 
L 108.144 68.747129 
L 108.216 68.612151 
L 108.288 68.665095 
L 108.864 68.513245 
L 109.008 68.646219 
L 109.152 68.378366 
L 110.304 68.183291 
L 110.448 68.191013 
L 110.52 68.160447 
L 110.664 67.984166 
L 111.168 67.791986 
L 111.312 67.717495 
L 111.456 67.749944 
L 111.528 67.566065 
L 111.672 67.686815 
L 111.816 67.66837 
L 111.96 67.455127 
L 112.536 67.496613 
L 112.68 67.402938 
L 112.896 67.412133 
L 113.04 67.018485 
L 113.112 67.052291 
L 113.472 67.074141 
L 113.616 67.031704 
L 113.976 67.07352 
L 114.12 66.976991 
L 114.336 66.998968 
L 114.408 66.754964 
L 114.48 66.863271 
L 114.624 66.721464 
L 115.128 66.848659 
L 115.344 66.633281 
L 115.416 66.642887 
L 115.488 66.434766 
L 115.56 66.467409 
L 115.632 66.494489 
L 115.776 66.417424 
L 116.064 66.564117 
L 116.136 66.57258 
L 116.28 66.406227 
L 116.64 66.429963 
L 116.712 66.214633 
L 116.784 66.334215 
L 116.928 66.416442 
L 117.072 66.30683 
L 117.576 66.261885 
L 117.648 66.053596 
L 117.72 66.105414 
L 117.864 66.112501 
L 117.936 65.910201 
L 118.008 65.981116 
L 118.656 66.047175 
L 118.728 65.888897 
L 118.8 65.97002 
L 119.16 65.967972 
L 119.304 65.460837 
L 119.376 65.520192 
L 119.808 65.686024 
L 119.88 65.627778 
L 120.024 65.709813 
L 120.312 65.698603 
L 120.528 65.378764 
L 120.816 65.568222 
L 120.888 65.403494 
L 120.96 65.439533 
L 121.032 65.472986 
L 121.104 65.339057 
L 121.248 65.499768 
L 121.464 65.414168 
L 121.608 65.470496 
L 121.824 65.130351 
L 122.256 65.422026 
L 122.4 65.274874 
L 122.544 65.329747 
L 122.76 65.048708 
L 123.048 65.215482 
L 123.12 64.857747 
L 123.192 64.903663 
L 123.624 65.127878 
L 123.912 65.221622 
L 124.056 64.939445 
L 124.272 65.020197 
L 124.488 64.689119 
L 124.776 64.918543 
L 124.848 64.7102 
L 124.92 64.773635 
L 125.496 65.095355 
L 125.784 65.133016 
L 125.928 65.06863 
L 126.072 64.489794 
L 126.288 64.72673 
L 126.36 64.505792 
L 126.432 64.581078 
L 126.504 64.498912 
L 126.792 64.782205 
L 127.152 64.907562 
L 127.296 64.945057 
L 127.368 64.562679 
L 127.44 64.629573 
L 127.728 64.834882 
L 127.8 64.60575 
L 127.872 64.669135 
L 127.944 64.536023 
L 128.016 64.605297 
L 128.304 64.7927 
L 128.448 64.887689 
L 128.52 64.654723 
L 128.592 64.709528 
L 128.952 64.935582 
L 129.168 64.364281 
L 129.24 64.410061 
L 129.384 64.487015 
L 129.456 64.198667 
L 129.528 64.325078 
L 129.888 64.715073 
L 130.032 64.759699 
L 130.104 64.813261 
L 130.392 64.366645 
L 130.608 64.49813 
L 130.68 64.103184 
L 130.752 64.224756 
L 130.968 64.487253 
L 131.4 64.871874 
L 131.544 64.883037 
L 131.832 65.03974 
L 131.904 64.746607 
L 131.976 64.796688 
L 132.192 64.92155 
L 132.336 64.586262 
L 132.552 64.865805 
L 132.624 64.757053 
L 132.696 64.825792 
L 132.84 64.80589 
L 132.984 64.590883 
L 133.2 64.641382 
L 133.488 65.040924 
L 133.56 65.030948 
L 133.704 64.802297 
L 133.992 65.065979 
L 134.208 64.563702 
L 134.856 65.31271 
L 135.504 65.355925 
L 135.648 65.169059 
L 135.864 65.376467 
L 136.008 65.297162 
L 136.08 65.067909 
L 136.224 65.385919 
L 136.296 65.26876 
L 136.368 65.351057 
L 136.8 65.567354 
L 137.016 65.630154 
L 137.16 65.367521 
L 137.232 65.435503 
L 137.304 65.550185 
L 137.376 65.356269 
L 137.448 65.469191 
L 137.736 65.626162 
L 137.88 65.479795 
L 138.168 65.626849 
L 138.24 65.427131 
L 138.312 65.516111 
L 138.528 65.718715 
L 138.6 65.526589 
L 138.672 65.56077 
L 138.744 65.639841 
L 138.96 66.148756 
L 139.104 66.196949 
L 139.248 66.094098 
L 139.392 66.327189 
L 139.608 65.905058 
L 139.896 66.074199 
L 139.968 65.97335 
L 140.04 66.033094 
L 140.112 66.086716 
L 140.184 65.968415 
L 140.4 66.193549 
L 141.12 66.51575 
L 141.408 66.6304 
L 141.552 66.93876 
L 141.768 66.669579 
L 141.84 66.761295 
L 141.912 66.425508 
L 141.984 66.4868 
L 142.272 66.98633 
L 143.28 67.02825 
L 143.424 67.419679 
L 143.568 67.316676 
L 143.928 67.380723 
L 143.928 67.380723 
" clip-path="url(#pb459fdd2df)" style="fill: none; stroke: #000000; stroke-linecap: square"/>
   </g>
   <g id="line2d_17">
    <path d="M 72 67.9833 
L 96.768 68.002369 
L 113.472 68.002388 
L 113.616 67.504776 
L 116.352 67.76966 
L 116.856 67.800062 
L 116.928 67.296405 
L 117 67.310383 
L 119.16 67.622592 
L 119.232 67.122449 
L 119.304 67.139872 
L 121.32 67.509692 
L 121.392 67.011784 
L 121.464 67.031398 
L 123.408 67.436525 
L 123.48 67.447729 
L 123.552 66.951048 
L 123.624 66.971864 
L 125.496 67.389699 
L 125.568 66.894167 
L 125.64 66.91611 
L 127.44 67.343505 
L 127.656 67.381873 
L 127.728 66.886495 
L 127.8 66.90859 
L 129.528 67.325542 
L 129.6 66.83128 
L 129.672 66.854468 
L 131.4 67.292051 
L 131.472 66.798453 
L 131.544 66.82229 
L 133.272 67.27214 
L 133.416 67.300771 
L 133.488 66.807 
L 133.56 66.830668 
L 135.288 67.277324 
L 135.648 67.346318 
L 135.72 66.851645 
L 135.792 66.87443 
L 137.592 67.318224 
L 137.808 67.358064 
L 137.88 66.863158 
L 137.952 66.885715 
L 139.752 67.325069 
L 140.112 67.38952 
L 140.184 66.893991 
L 140.256 66.915938 
L 142.056 67.3434 
L 143.568 67.56939 
L 143.64 67.0703 
L 143.712 67.088755 
L 143.928 67.141958 
L 143.928 67.141958 
" clip-path="url(#pb459fdd2df)" style="fill: none; stroke: #0000ff; stroke-linecap: square"/>
   </g>
   <g id="line2d_18">
    <path d="M 72 144 
L 72 0 
" clip-path="url(#pb459fdd2df)" style="fill: none; stroke: #808080; stroke-width: 1.5; stroke-linecap: square"/>
   </g>
   <g id="line2d_19">
    <path d="M 86.472 24.496878 
L 86.976 25.005671 
L 87.408 25.144363 
L 87.768 25.045841 
L 88.2 24.674324 
L 88.704 23.909295 
L 89.352 22.460361 
L 90.216 19.907933 
L 92.952 11.299038 
L 93.6 10.077237 
L 94.104 9.516573 
L 94.536 9.331399 
L 94.896 9.391015 
L 95.328 9.717075 
L 95.832 10.43279 
L 96.48 11.827822 
L 97.344 14.331677 
L 100.296 23.489376 
L 100.944 24.591736 
L 101.448 25.048155 
L 101.88 25.140228 
L 102.24 25.002899 
L 102.672 24.58629 
L 103.176 23.772704 
L 103.824 22.271297 
L 104.76 19.435293 
L 107.208 11.638791 
L 107.928 10.186326 
L 108.432 9.574344 
L 108.864 9.34287 
L 109.224 9.363522 
L 109.656 9.643803 
L 110.16 10.309498 
L 110.736 11.476194 
L 111.528 13.652335 
L 112.896 18.234559 
L 114.192 22.282696 
L 114.912 23.917222 
L 115.488 24.759588 
L 115.92 25.08293 
L 116.352 25.128293 
L 116.712 24.952291 
L 117.144 24.491003 
L 117.72 23.480309 
L 118.44 21.675062 
L 119.52 18.219882 
L 121.392 12.189396 
L 122.112 10.55487 
L 122.688 9.712504 
L 123.12 9.389161 
L 123.552 9.343798 
L 123.912 9.5198 
L 124.344 9.981089 
L 124.92 10.991783 
L 125.64 12.79703 
L 126.72 16.252209 
L 128.592 22.282696 
L 129.312 23.917222 
L 129.888 24.759588 
L 130.32 25.08293 
L 130.752 25.128293 
L 131.112 24.952291 
L 131.544 24.491003 
L 132.12 23.480309 
L 132.84 21.675062 
L 133.92 18.219882 
L 135.792 12.189396 
L 136.512 10.55487 
L 137.088 9.712504 
L 137.52 9.389161 
L 137.952 9.343798 
L 138.312 9.5198 
L 138.744 9.981089 
L 139.32 10.991783 
L 140.04 12.79703 
L 141.12 16.252209 
L 142.992 22.282696 
L 143.712 23.917222 
L 143.928 24.285766 
L 143.928 24.285766 
" clip-path="url(#pb459fdd2df)" style="fill: none; stroke: #ff0000; stroke-width: 2; stroke-linecap: square"/>
   </g>
   <g id="line2d_20">
    <path d="M 72 8.298334 
L 72.288 8.295255 
L 72.36 8.295303 
L 72.648 7.896265 
L 73.08 7.926 
L 73.44 7.727225 
L 74.016 7.593016 
L 74.16 7.598109 
L 74.448 7.414361 
L 76.752 7.035639 
L 76.968 6.974232 
L 77.184 7.012206 
L 79.056 6.933054 
L 79.128 6.959505 
L 79.2 6.801826 
L 79.272 6.84922 
L 79.56 6.875519 
L 79.992 6.816278 
L 80.136 6.717936 
L 80.28 6.766652 
L 80.64 6.794213 
L 80.784 6.725245 
L 81 6.794806 
L 81.504 6.754167 
L 81.648 6.828216 
L 81.792 6.751749 
L 82.08 6.700782 
L 82.368 6.777449 
L 82.584 6.815058 
L 82.656 6.706412 
L 82.728 6.756363 
L 82.944 6.719149 
L 83.088 6.687213 
L 83.376 6.730086 
L 84.528 6.717869 
L 84.744 6.596488 
L 85.104 6.715872 
L 85.608 6.650824 
L 85.824 6.712515 
L 85.968 6.680698 
L 86.184 6.705891 
L 86.328 6.723854 
L 86.544 24.404866 
L 86.832 24.575344 
L 87.192 24.448033 
L 87.336 24.505515 
L 87.408 24.477536 
L 87.696 24.872583 
L 87.984 24.716991 
L 88.272 24.530655 
L 88.488 24.223688 
L 88.632 24.022109 
L 88.848 24.252227 
L 88.92 24.305091 
L 89.064 23.73656 
L 89.136 23.81169 
L 90.936 18.692845 
L 91.152 17.845113 
L 91.224 17.651374 
L 91.296 17.847674 
L 91.728 16.104661 
L 91.8 15.889228 
L 91.944 15.068811 
L 92.232 14.81309 
L 92.448 13.435727 
L 93.312 10.918653 
L 93.384 11.002518 
L 93.456 10.427753 
L 93.528 10.508045 
L 93.6 10.677923 
L 93.816 9.887659 
L 93.888 9.983983 
L 94.032 9.583227 
L 94.104 10.144352 
L 94.176 10.128821 
L 94.32 9.737877 
L 94.464 9.17286 
L 94.608 9.147006 
L 94.68 8.889611 
L 95.04 9.647949 
L 95.112 9.430319 
L 95.184 9.564645 
L 95.472 9.959172 
L 95.544 9.665096 
L 95.76 10.156789 
L 95.832 10.102196 
L 95.904 9.767357 
L 95.976 9.85072 
L 96.12 10.123283 
L 96.264 10.092751 
L 96.48 10.613248 
L 96.912 12.692829 
L 96.984 12.129833 
L 97.056 12.453644 
L 97.128 12.074661 
L 97.416 13.569553 
L 97.632 14.101146 
L 97.704 13.832388 
L 97.992 14.954072 
L 98.208 16.876288 
L 98.424 17.378677 
L 98.712 17.789265 
L 98.856 18.858954 
L 98.928 18.913693 
L 99.072 19.817788 
L 99.288 19.913606 
L 99.36 20.827772 
L 99.432 20.582409 
L 99.504 20.091491 
L 99.648 21.019219 
L 99.72 20.670877 
L 99.792 20.841158 
L 100.008 22.482378 
L 100.08 24.020242 
L 100.152 23.512532 
L 100.368 23.269477 
L 100.512 23.270014 
L 100.584 23.742399 
L 100.656 23.679075 
L 100.8 23.780262 
L 100.872 23.68709 
L 101.016 25.743107 
L 101.232 24.758476 
L 101.304 24.791306 
L 101.448 25.807559 
L 101.52 25.549043 
L 101.592 26.281545 
L 101.664 25.896498 
L 102.168 23.769989 
L 102.312 25.267886 
L 102.384 25.150074 
L 102.456 25.483611 
L 102.528 25.354533 
L 102.744 24.601778 
L 103.176 23.691829 
L 103.248 23.020946 
L 103.32 23.02913 
L 103.464 22.86361 
L 103.536 23.071311 
L 103.896 21.867505 
L 103.968 22.027921 
L 104.256 21.549814 
L 104.328 21.716566 
L 104.544 21.197233 
L 104.76 19.096758 
L 104.832 19.131917 
L 104.904 19.561291 
L 104.976 19.424342 
L 105.12 19.148893 
L 105.264 18.108851 
L 105.336 18.24469 
L 105.48 17.794961 
L 105.552 17.916483 
L 105.696 17.602553 
L 106.056 15.891904 
L 106.128 16.087139 
L 106.272 15.355896 
L 106.344 15.274993 
L 106.416 15.435572 
L 106.56 15.163644 
L 106.848 13.393665 
L 107.064 12.775932 
L 107.136 11.527215 
L 107.208 11.641916 
L 107.28 11.8221 
L 107.424 11.259915 
L 107.496 11.354463 
L 107.64 11.495095 
L 107.784 11.077141 
L 107.928 11.062823 
L 108 10.260624 
L 108.072 10.496741 
L 108.216 10.473581 
L 108.288 10.010811 
L 108.36 10.087048 
L 108.432 9.868762 
L 108.504 10.170653 
L 108.576 10.150568 
L 108.648 9.772976 
L 108.72 9.844396 
L 108.792 9.667957 
L 109.008 9.915392 
L 109.08 9.604071 
L 109.152 9.706568 
L 109.656 10.297128 
L 109.8 9.498516 
L 109.872 9.672695 
L 110.16 10.253214 
L 110.376 9.656568 
L 110.736 10.615635 
L 110.88 12.619925 
L 110.952 12.599641 
L 111.096 11.995733 
L 111.168 12.136779 
L 111.24 11.625993 
L 111.384 12.218911 
L 111.456 12.307953 
L 111.528 14.269057 
L 111.6 14.245297 
L 111.672 13.906933 
L 111.744 13.988804 
L 112.32 14.826191 
L 112.608 16.866072 
L 112.752 18.696724 
L 112.824 18.549417 
L 112.896 18.977079 
L 112.968 18.892882 
L 113.184 18.768057 
L 113.256 19.139062 
L 113.328 18.59444 
L 113.4 18.685366 
L 113.616 18.937487 
L 113.76 20.013124 
L 113.832 19.899163 
L 114.12 23.07976 
L 114.192 22.795343 
L 114.336 22.509928 
L 114.408 22.988988 
L 114.48 22.869429 
L 114.696 22.687462 
L 114.768 23.17695 
L 114.84 23.121027 
L 114.912 22.662103 
L 114.984 22.800185 
L 115.056 23.627276 
L 115.128 23.579162 
L 115.272 23.665534 
L 115.344 23.657356 
L 115.416 24.289649 
L 115.488 24.207864 
L 115.56 24.135392 
L 115.632 23.64724 
L 115.704 24.645138 
L 115.776 24.584997 
L 115.992 24.296138 
L 116.064 25.344959 
L 116.136 25.177173 
L 116.208 25.03344 
L 116.28 25.897326 
L 116.352 25.633304 
L 116.424 25.447675 
L 116.496 24.846384 
L 116.712 25.836228 
L 117.216 23.943742 
L 117.288 24.082075 
L 117.36 23.982962 
L 117.576 23.662587 
L 117.72 22.774365 
L 117.864 22.551499 
L 117.936 22.506804 
L 118.296 20.907111 
L 118.44 21.084869 
L 118.512 20.922663 
L 118.584 21.411398 
L 118.656 21.311054 
L 118.872 20.98543 
L 118.944 21.096316 
L 119.088 19.67438 
L 119.16 19.630281 
L 119.592 18.206045 
L 119.664 18.169005 
L 119.808 17.484401 
L 119.88 17.623493 
L 119.952 17.554543 
L 120.024 17.479044 
L 120.312 15.820082 
L 120.528 15.73957 
L 120.672 14.238157 
L 120.816 14.334632 
L 120.888 13.514092 
L 120.96 13.591872 
L 121.032 13.646682 
L 121.176 13.56848 
L 121.464 13.573628 
L 121.608 13.043099 
L 121.752 10.941986 
L 121.968 11.29734 
L 122.04 11.148895 
L 122.112 11.217255 
L 122.184 11.587764 
L 122.328 10.665273 
L 122.4 10.798991 
L 122.544 10.29445 
L 122.76 10.632336 
L 122.832 9.248988 
L 122.904 9.427267 
L 122.976 9.784866 
L 123.048 8.989643 
L 123.12 9.180007 
L 123.192 9.194143 
L 123.552 10.055699 
L 123.624 10.755006 
L 123.696 10.518024 
L 123.768 10.194538 
L 123.84 10.254303 
L 123.912 10.10398 
L 123.984 9.534701 
L 124.056 9.679021 
L 124.128 9.816255 
L 124.272 9.213186 
L 124.56 9.766711 
L 124.632 10.860609 
L 124.704 10.687406 
L 124.776 10.796273 
L 124.92 11.519297 
L 124.992 11.58677 
L 125.136 11.950019 
L 125.208 12.009908 
L 125.28 11.725801 
L 125.352 11.834349 
L 125.568 12.176162 
L 125.64 13.37894 
L 125.712 13.090237 
L 125.784 12.739969 
L 125.856 12.863201 
L 126 13.11219 
L 126.144 12.477248 
L 126.432 14.426325 
L 126.648 14.875691 
L 126.864 18.039086 
L 127.008 17.179365 
L 127.152 17.205754 
L 127.368 17.516591 
L 127.44 17.424185 
L 127.584 17.689485 
L 127.8 19.922268 
L 127.944 19.846512 
L 128.232 22.035733 
L 128.304 21.892357 
L 128.376 21.779467 
L 128.448 22.185646 
L 128.52 22.07546 
L 128.664 21.911691 
L 128.736 21.54362 
L 129.168 23.944083 
L 129.24 23.718889 
L 129.384 23.519182 
L 129.6 24.725699 
L 129.672 24.566471 
L 129.744 25.57486 
L 129.816 24.897976 
L 129.888 25.201848 
L 129.96 25.023984 
L 130.032 25.391153 
L 130.176 26.55651 
L 130.392 25.771734 
L 130.464 25.563219 
L 130.536 24.839638 
L 130.752 26.486685 
L 130.824 26.525537 
L 131.328 24.024036 
L 131.4 24.416133 
L 131.544 24.209268 
L 131.688 23.796669 
L 131.904 23.434238 
L 132.048 21.686248 
L 132.12 22.192801 
L 132.192 21.22569 
L 132.264 21.370742 
L 132.336 22.088326 
L 132.552 21.270044 
L 132.624 21.360335 
L 132.696 21.73942 
L 132.768 20.701362 
L 132.912 21.459593 
L 133.056 21.397848 
L 133.272 20.934731 
L 133.704 18.710364 
L 133.848 18.672012 
L 133.992 18.031377 
L 134.064 17.992682 
L 134.136 17.203002 
L 134.208 17.222411 
L 134.352 17.209677 
L 134.568 17.865179 
L 134.64 17.291698 
L 134.784 15.789134 
L 134.928 15.724053 
L 135 15.860845 
L 135.072 15.741365 
L 135.216 13.346475 
L 135.36 13.448562 
L 135.504 13.66082 
L 135.72 12.548029 
L 135.936 12.7193 
L 136.152 12.184951 
L 136.224 10.62598 
L 136.296 10.657792 
L 136.512 11.09565 
L 136.728 11.248934 
L 136.872 9.699124 
L 136.944 10.06615 
L 137.088 10.277506 
L 137.16 9.838922 
L 137.232 9.957233 
L 137.376 10.160259 
L 137.448 9.846046 
L 137.664 10.50732 
L 137.88 10.186623 
L 137.952 10.308458 
L 138.024 10.845124 
L 138.096 10.4219 
L 138.168 10.456555 
L 138.384 10.192947 
L 138.456 10.264983 
L 138.528 10.342977 
L 138.672 8.912845 
L 138.816 10.217157 
L 138.888 9.977114 
L 139.032 10.271447 
L 139.104 10.132608 
L 139.536 10.868392 
L 139.608 10.981538 
L 139.752 11.89286 
L 140.04 12.334175 
L 140.112 13.589726 
L 140.184 13.253163 
L 140.328 13.525203 
L 140.4 13.603024 
L 140.688 14.858996 
L 140.76 14.200928 
L 140.832 14.328893 
L 140.976 15.482204 
L 141.048 15.534498 
L 141.12 15.824348 
L 141.192 17.022584 
L 141.264 16.987876 
L 141.336 16.780116 
L 141.552 18.352636 
L 141.696 18.024875 
L 141.984 18.0804 
L 142.128 18.830651 
L 142.2 18.505539 
L 142.344 19.324992 
L 142.56 19.595408 
L 142.632 19.660753 
L 142.704 21.488948 
L 142.776 21.41125 
L 142.848 21.356182 
L 142.92 22.456558 
L 142.992 22.201266 
L 143.136 22.029858 
L 143.28 22.939849 
L 143.64 22.564106 
L 143.856 24.54483 
L 143.928 24.415939 
L 143.928 24.415939 
" clip-path="url(#pb459fdd2df)" style="fill: none; stroke: #000000; stroke-linecap: square"/>
   </g>
   <g id="line2d_21">
    <path d="M 72 17.209374 
L 72.432 17.21239 
L 72.504 16.705195 
L 72.576 16.715706 
L 73.512 16.83483 
L 73.584 16.335111 
L 73.656 16.352949 
L 74.592 16.555121 
L 74.664 16.06094 
L 74.736 16.084207 
L 75.672 16.347903 
L 75.744 15.857825 
L 75.816 15.885113 
L 76.608 16.151881 
L 76.68 15.665684 
L 76.752 15.696777 
L 77.976 16.140415 
L 78.048 15.654445 
L 78.12 15.685761 
L 78.912 15.991894 
L 78.984 15.508865 
L 79.056 15.543063 
L 80.208 16.006661 
L 80.28 15.52334 
L 80.352 15.557251 
L 81.144 15.888762 
L 81.216 15.407774 
L 81.288 15.443974 
L 82.296 15.881602 
L 82.368 15.400756 
L 82.44 15.437095 
L 83.52 15.903323 
L 83.592 15.422048 
L 83.664 15.457965 
L 84.672 15.892176 
L 84.744 15.411121 
L 84.816 15.447254 
L 85.752 15.856771 
L 85.824 15.376417 
L 85.896 15.413238 
L 87.336 16.014148 
L 89.064 16.479931 
L 91.224 16.821064 
L 92.952 16.979254 
L 93.024 16.476675 
L 93.096 16.49171 
L 94.176 16.684617 
L 94.248 16.187872 
L 94.32 16.208626 
L 95.616 16.519222 
L 95.688 16.025752 
L 95.76 16.049715 
L 97.128 16.424739 
L 97.2 15.93314 
L 97.272 15.958937 
L 98.928 16.429803 
L 101.016 16.784614 
L 103.896 17.033193 
L 107.28 17.156801 
L 107.352 16.650707 
L 107.424 16.662296 
L 108.936 16.859055 
L 109.008 16.358856 
L 109.08 16.376224 
L 110.232 16.611674 
L 110.304 16.116373 
L 110.376 16.138542 
L 111.672 16.470325 
L 111.744 15.977823 
L 111.816 16.002736 
L 113.544 16.472869 
L 115.704 16.817189 
L 118.728 17.05521 
L 121.464 17.151471 
L 121.536 16.645482 
L 121.608 16.657175 
L 122.832 16.824013 
L 122.904 16.324508 
L 122.976 16.342557 
L 124.2 16.600072 
L 124.272 16.105001 
L 124.344 16.127396 
L 125.712 16.477863 
L 125.784 15.985212 
L 125.856 16.009978 
L 127.584 16.477351 
L 129.744 16.819648 
L 132.768 17.056272 
L 136.008 17.162951 
L 136.08 16.656735 
L 136.152 16.668205 
L 137.376 16.831864 
L 137.448 16.332204 
L 137.52 16.3501 
L 138.888 16.630166 
L 138.96 16.134499 
L 139.032 16.15631 
L 140.328 16.482721 
L 140.4 15.989973 
L 140.472 16.014646 
L 142.2 16.480239 
L 143.928 16.76835 
L 143.928 16.76835 
" clip-path="url(#pb459fdd2df)" style="fill: none; stroke: #0000ff; stroke-linecap: square"/>
   </g>
   <g id="line2d_22">
    <path d="M 144 144 
L 144 0 
" clip-path="url(#pb459fdd2df)" style="fill: none; stroke: #808080; stroke-width: 1.5; stroke-linecap: square"/>
   </g>
   <g id="line2d_23">
    <path d="M 158.472 116.574676 
L 159.48 114.192675 
L 160.2 113.003946 
L 160.776 112.455463 
L 161.208 112.303466 
L 161.64 112.380505 
L 162.072 112.68385 
L 162.576 113.309011 
L 163.224 114.493503 
L 164.088 116.58063 
L 166.824 123.622809 
L 167.472 124.622822 
L 168.048 125.123108 
L 168.48 125.237088 
L 168.912 125.121923 
L 169.344 124.781692 
L 169.92 123.999882 
L 170.64 122.568176 
L 171.648 119.977672 
L 173.736 114.488756 
L 174.456 113.199534 
L 175.032 112.556326 
L 175.536 112.312939 
L 175.968 112.351775 
L 176.4 112.617935 
L 176.904 113.202754 
L 177.552 114.343142 
L 178.416 116.390511 
L 181.368 123.881674 
L 182.016 124.784022 
L 182.52 125.157946 
L 182.952 125.233797 
L 183.384 125.080619 
L 183.888 124.620128 
L 184.464 123.750669 
L 185.184 122.231979 
L 186.336 119.171725 
L 187.992 114.801729 
L 188.784 113.305621 
L 189.36 112.61598 
L 189.864 112.328783 
L 190.296 112.329378 
L 190.728 112.558091 
L 191.232 113.10199 
L 191.88 114.197149 
L 192.672 116.017501 
L 194.328 120.576383 
L 195.408 123.198932 
L 196.128 124.438519 
L 196.704 125.034659 
L 197.208 125.233995 
L 197.64 125.156957 
L 198.072 124.853612 
L 198.576 124.22845 
L 199.224 123.043959 
L 200.088 120.956832 
L 202.824 113.914652 
L 203.472 112.914639 
L 204.048 112.414353 
L 204.48 112.300374 
L 204.912 112.415539 
L 205.344 112.755769 
L 205.92 113.53758 
L 206.64 114.969285 
L 207.648 117.559789 
L 209.736 123.048705 
L 210.456 124.337928 
L 211.032 124.981136 
L 211.536 125.224523 
L 211.968 125.185686 
L 212.4 124.919526 
L 212.904 124.334707 
L 213.552 123.19432 
L 214.416 121.14695 
L 215.928 116.961079 
L 215.928 116.961079 
" clip-path="url(#pb459fdd2df)" style="fill: none; stroke: #ff0000; stroke-width: 2; stroke-linecap: square"/>
   </g>
   <g id="line2d_24">
    <path d="M 144 135.092598 
L 144.216 135.318512 
L 144.36 133.307511 
L 144.432 133.584352 
L 144.504 134.971258 
L 144.576 134.560045 
L 144.648 134.271671 
L 144.72 134.326541 
L 144.864 133.959749 
L 144.936 133.390798 
L 145.008 134.506671 
L 145.152 132.876038 
L 145.224 134.229512 
L 145.296 133.821432 
L 145.44 134.291955 
L 145.512 134.194193 
L 145.584 133.394132 
L 145.8 134.692379 
L 145.944 133.24136 
L 146.016 133.481667 
L 146.088 132.821376 
L 146.232 133.755877 
L 146.304 133.781677 
L 146.448 134.383196 
L 146.592 134.454696 
L 146.736 132.279517 
L 146.808 132.439602 
L 146.88 133.463441 
L 146.952 133.165461 
L 147.096 134.627954 
L 147.168 134.401672 
L 147.24 133.659685 
L 147.312 133.930846 
L 147.528 132.659013 
L 147.672 134.321706 
L 147.816 133.90247 
L 147.888 133.985326 
L 148.104 132.525109 
L 148.176 133.095069 
L 148.248 132.158571 
L 148.32 132.876893 
L 148.464 132.214632 
L 148.608 134.342927 
L 148.752 132.439898 
L 148.824 133.002927 
L 148.896 132.30852 
L 149.04 133.430122 
L 149.112 133.087361 
L 149.184 133.490516 
L 149.256 132.457638 
L 149.328 132.641087 
L 149.472 132.174058 
L 149.544 132.315572 
L 149.616 133.605093 
L 149.688 133.349284 
L 149.832 133.700619 
L 149.904 133.288779 
L 149.976 134.120612 
L 150.12 131.712661 
L 150.336 132.787985 
L 150.552 134.022329 
L 150.912 131.160828 
L 151.2 133.502843 
L 151.272 132.900414 
L 151.344 133.135115 
L 151.416 134.010892 
L 151.56 131.784711 
L 151.704 132.279429 
L 151.992 133.298366 
L 152.064 134.574327 
L 152.136 134.01985 
L 152.208 132.257662 
L 152.28 132.35241 
L 152.352 132.83861 
L 152.424 132.165442 
L 152.496 132.315403 
L 152.712 132.992916 
L 152.784 131.732328 
L 152.856 132.611615 
L 152.928 131.538657 
L 153 131.575211 
L 153.216 133.21085 
L 153.288 133.003759 
L 153.36 133.518089 
L 153.576 130.802081 
L 153.72 132.418126 
L 153.792 132.501942 
L 154.008 133.654765 
L 154.152 132.63738 
L 154.224 131.625782 
L 154.296 132.148698 
L 154.368 132.064138 
L 154.44 132.93186 
L 154.512 132.898915 
L 154.584 133.037663 
L 154.656 132.442809 
L 154.728 132.849235 
L 154.872 131.916671 
L 154.944 132.660848 
L 155.088 131.95155 
L 155.16 132.144991 
L 155.304 133.096136 
L 155.52 131.019942 
L 155.664 133.267293 
L 155.808 132.534804 
L 155.952 132.742097 
L 156.024 133.267403 
L 156.096 131.605737 
L 156.168 131.674006 
L 156.312 133.65518 
L 156.456 132.905331 
L 156.528 132.76753 
L 156.672 130.285112 
L 156.816 131.47561 
L 157.032 133.619326 
L 157.248 132.11521 
L 157.32 130.845641 
L 157.392 131.675139 
L 157.464 131.4443 
L 157.536 131.555152 
L 157.896 133.697016 
L 158.256 131.411812 
L 158.328 131.076403 
L 158.472 114.410172 
L 158.688 115.601855 
L 158.76 115.780739 
L 158.904 114.991488 
L 159.048 115.370887 
L 159.336 115.465251 
L 159.696 114.052856 
L 159.768 114.114262 
L 160.128 114.299674 
L 160.272 113.557895 
L 160.416 113.629882 
L 160.488 113.60458 
L 160.704 113.356437 
L 160.848 113.436885 
L 160.992 112.007922 
L 161.064 112.385961 
L 161.136 112.135933 
L 161.208 112.172285 
L 161.352 112.981803 
L 161.496 113.11375 
L 161.568 112.824883 
L 161.64 112.911058 
L 161.712 112.992294 
L 161.784 113.58437 
L 161.856 113.248306 
L 161.928 113.457483 
L 162.072 113.090199 
L 162.288 113.623386 
L 162.504 112.794028 
L 162.648 113.020775 
L 162.792 114.362213 
L 162.864 114.352004 
L 162.936 114.389765 
L 163.08 115.056302 
L 163.224 114.430714 
L 163.44 114.559247 
L 163.584 114.709352 
L 163.728 115.156398 
L 163.8 114.662072 
L 164.016 117.189643 
L 164.088 117.573556 
L 164.16 117.506209 
L 164.304 117.350557 
L 164.376 118.112951 
L 164.448 117.828094 
L 164.52 117.823036 
L 164.592 118.689466 
L 164.664 118.599307 
L 164.736 118.570216 
L 164.808 118.293576 
L 165.024 119.086442 
L 165.096 119.071442 
L 165.312 119.777893 
L 165.528 120.843014 
L 165.6 120.807834 
L 165.816 121.705084 
L 166.104 123.575191 
L 166.392 122.989208 
L 166.536 123.764277 
L 166.896 123.190492 
L 166.968 123.552575 
L 167.04 123.483901 
L 167.112 122.936647 
L 167.328 123.706584 
L 167.4 123.441499 
L 167.616 125.627492 
L 167.76 125.18802 
L 167.832 125.636599 
L 167.904 125.619504 
L 167.976 125.453287 
L 168.048 125.810623 
L 168.12 125.632805 
L 168.264 125.047571 
L 168.336 125.102742 
L 168.552 124.605113 
L 168.696 124.696958 
L 168.768 124.614898 
L 168.84 124.828781 
L 168.912 125.410762 
L 168.984 125.268343 
L 169.272 124.000469 
L 169.344 124.225195 
L 169.416 123.997957 
L 169.488 124.617398 
L 169.56 124.509006 
L 169.704 123.591591 
L 169.848 123.822216 
L 170.136 123.616753 
L 170.208 123.867958 
L 170.28 123.747895 
L 170.352 122.943472 
L 170.424 122.974446 
L 170.496 122.763552 
L 170.568 122.085426 
L 170.64 122.168641 
L 170.712 122.132086 
L 170.856 122.47453 
L 170.928 122.37904 
L 171.072 122.185989 
L 171.216 121.708712 
L 171.288 122.32887 
L 171.504 120.644314 
L 171.576 120.727855 
L 171.792 120.124496 
L 171.864 120.271135 
L 172.008 119.492669 
L 172.224 118.009956 
L 172.368 118.118725 
L 172.584 117.361423 
L 172.656 117.387021 
L 172.944 115.362859 
L 173.016 115.685156 
L 173.088 115.627701 
L 173.16 115.710646 
L 173.232 115.562466 
L 173.304 115.627309 
L 173.448 115.623246 
L 173.592 114.166192 
L 173.736 114.824172 
L 173.952 113.12376 
L 174.024 113.464353 
L 174.096 113.049276 
L 174.168 113.203848 
L 174.24 113.133979 
L 174.384 113.372948 
L 174.456 113.236299 
L 174.528 113.338189 
L 174.744 112.934464 
L 174.816 112.351338 
L 174.888 112.496513 
L 174.96 112.624332 
L 175.032 111.912096 
L 175.104 112.086327 
L 175.248 112.30396 
L 175.392 112.032184 
L 175.608 112.254928 
L 175.68 111.927739 
L 175.752 112.014178 
L 175.896 112.770048 
L 175.968 112.85494 
L 176.04 112.310863 
L 176.184 112.786419 
L 176.4 112.884674 
L 176.544 113.974372 
L 176.616 113.670331 
L 176.832 112.833111 
L 176.976 113.036217 
L 177.048 112.943179 
L 177.264 114.078405 
L 177.48 114.294245 
L 177.552 114.077783 
L 177.624 113.486255 
L 177.696 113.642508 
L 178.416 116.499711 
L 178.632 116.111282 
L 178.704 116.161985 
L 178.92 117.894202 
L 178.992 117.524892 
L 179.136 117.660114 
L 179.208 117.539775 
L 179.424 119.182209 
L 179.568 119.879235 
L 179.64 119.811677 
L 179.712 119.717217 
L 179.928 120.114586 
L 180 119.62003 
L 180.072 119.78826 
L 180.36 121.644713 
L 180.432 121.968132 
L 180.504 121.821747 
L 180.648 121.822165 
L 180.864 123.844218 
L 180.936 123.485444 
L 181.008 123.369424 
L 181.152 124.220635 
L 181.224 124.447942 
L 181.368 124.006486 
L 181.512 123.601814 
L 181.584 123.649951 
L 181.656 124.444412 
L 181.728 124.156422 
L 181.944 124.939782 
L 182.16 124.692161 
L 182.304 124.47999 
L 182.664 125.262972 
L 182.808 124.654677 
L 183.168 125.579362 
L 183.24 125.526567 
L 183.312 125.201694 
L 183.456 124.143075 
L 183.6 124.066494 
L 183.816 125.081027 
L 184.032 124.077175 
L 184.32 123.457681 
L 184.464 123.78538 
L 184.968 122.023325 
L 185.256 122.336433 
L 185.328 122.409075 
L 185.4 122.301021 
L 185.472 122.416104 
L 185.904 121.725279 
L 186.048 119.952029 
L 186.12 120.024014 
L 186.264 118.926128 
L 186.336 118.951 
L 186.408 119.104471 
L 186.48 118.367295 
L 186.552 118.397834 
L 186.696 118.37747 
L 186.768 118.658788 
L 187.056 117.356065 
L 187.128 117.463038 
L 187.272 117.126202 
L 187.344 116.296786 
L 187.416 116.303948 
L 187.56 116.49855 
L 187.632 116.502796 
L 187.848 114.657021 
L 187.92 114.75751 
L 187.992 114.842617 
L 188.064 114.704936 
L 188.136 114.778897 
L 188.208 114.842361 
L 188.352 114.38618 
L 188.496 114.666147 
L 188.64 114.273723 
L 188.712 114.412075 
L 188.784 114.194838 
L 188.856 114.298076 
L 189.072 112.833681 
L 189.144 112.414047 
L 189.216 112.557485 
L 189.792 113.360108 
L 189.936 111.757845 
L 190.008 111.831947 
L 190.152 112.519252 
L 190.44 112.87668 
L 190.512 112.344119 
L 190.584 112.813393 
L 190.656 112.724718 
L 190.728 112.817093 
L 190.944 112.574375 
L 191.016 112.08003 
L 191.088 112.215276 
L 191.16 112.242072 
L 191.232 112.404528 
L 191.376 111.92068 
L 191.52 113.252425 
L 191.736 113.68864 
L 191.808 113.615382 
L 191.952 114.585645 
L 192.024 114.305085 
L 192.168 114.492886 
L 192.312 115.253377 
L 192.6 115.411374 
L 192.672 115.889601 
L 192.744 115.613164 
L 192.816 115.706264 
L 192.96 116.613858 
L 193.176 116.850118 
L 193.248 116.619899 
L 193.32 116.715 
L 193.464 116.621709 
L 193.752 118.507536 
L 193.896 118.540039 
L 193.968 118.506125 
L 194.256 120.496513 
L 194.328 120.263071 
L 194.472 120.260367 
L 194.616 121.406411 
L 194.688 121.353227 
L 194.832 122.116542 
L 194.904 122.040216 
L 194.976 122.150206 
L 195.048 122.81474 
L 195.12 122.710531 
L 195.192 123.026034 
L 195.336 122.63532 
L 195.408 122.732991 
L 195.48 122.604378 
L 195.696 123.541313 
L 195.768 123.38046 
L 195.84 123.32057 
L 196.056 124.395852 
L 196.272 124.324721 
L 196.344 124.234968 
L 196.416 124.942654 
L 196.488 124.7234 
L 196.776 124.290468 
L 196.848 124.932416 
L 196.92 124.672472 
L 197.064 124.639238 
L 197.136 124.654903 
L 197.28 124.361433 
L 197.424 125.464248 
L 197.496 125.325848 
L 197.64 124.948675 
L 197.856 124.051799 
L 197.928 124.984844 
L 198 124.920015 
L 198.144 124.650226 
L 198.216 124.441989 
L 198.288 125.069019 
L 198.432 124.539212 
L 198.504 124.675219 
L 198.648 123.807254 
L 199.224 123.081145 
L 199.368 122.33494 
L 199.44 122.55489 
L 199.728 121.942058 
L 199.872 121.886948 
L 200.232 121.508466 
L 200.448 119.749883 
L 200.736 119.671763 
L 200.808 119.00169 
L 200.88 119.024592 
L 201.024 118.668906 
L 201.168 117.020184 
L 201.24 117.092404 
L 201.384 117.340264 
L 201.816 117.400265 
L 201.888 116.520631 
L 201.96 116.547726 
L 202.032 116.759841 
L 202.248 115.733818 
L 202.32 115.765496 
L 202.392 115.790945 
L 202.464 115.401628 
L 202.536 115.54398 
L 202.608 115.41935 
L 202.824 113.751116 
L 202.968 113.415419 
L 203.184 113.715184 
L 203.256 113.08876 
L 203.328 113.201142 
L 203.4 113.124445 
L 203.616 113.438492 
L 203.688 113.155971 
L 203.76 113.244456 
L 203.832 113.074312 
L 203.904 113.154407 
L 204.048 113.158127 
L 204.12 113.227353 
L 204.624 111.281004 
L 204.696 111.5711 
L 204.768 111.74464 
L 204.84 111.524945 
L 204.912 110.789813 
L 204.984 111.210289 
L 205.056 111.055163 
L 205.2 111.216146 
L 205.272 110.902829 
L 205.704 112.28738 
L 205.776 112.942315 
L 205.848 112.837761 
L 205.992 112.804633 
L 206.064 112.765438 
L 206.28 113.20929 
L 206.496 113.983795 
L 206.64 114.221943 
L 206.712 114.114338 
L 207 114.853726 
L 207.432 117.851265 
L 207.504 117.745162 
L 207.72 117.874561 
L 207.792 118.363896 
L 207.864 117.860244 
L 207.936 117.896926 
L 208.008 117.737118 
L 208.152 118.079638 
L 208.44 118.315797 
L 208.656 120.768053 
L 208.728 120.586324 
L 208.944 121.152627 
L 209.088 120.518809 
L 209.16 121.393638 
L 209.232 121.192596 
L 209.304 121.32528 
L 209.448 121.963861 
L 209.52 121.927135 
L 209.664 122.202224 
L 209.88 123.661552 
L 210.24 123.243586 
L 210.456 124.299378 
L 210.672 123.907558 
L 210.888 124.45456 
L 211.032 124.350834 
L 211.104 125.083027 
L 211.176 124.961221 
L 211.32 124.662645 
L 211.392 125.366922 
L 211.464 125.235765 
L 211.536 125.39643 
L 211.608 125.359448 
L 211.824 124.456832 
L 211.968 124.317801 
L 212.04 124.444862 
L 212.112 125.220534 
L 212.184 125.094118 
L 212.328 124.069649 
L 212.4 124.061603 
L 212.472 124.751584 
L 212.544 124.682484 
L 212.832 124.268449 
L 212.976 123.736089 
L 213.336 123.234569 
L 213.84 121.886324 
L 213.912 122.15428 
L 213.984 122.101874 
L 214.2 121.994979 
L 214.416 120.36011 
L 214.56 120.375869 
L 214.704 119.934546 
L 214.776 119.865155 
L 214.848 118.558048 
L 214.92 118.614371 
L 215.208 118.838285 
L 215.28 118.678669 
L 215.352 118.098582 
L 215.424 118.250215 
L 215.568 118.269955 
L 215.712 118.042559 
L 215.928 118.015541 
L 215.928 118.015541 
" clip-path="url(#pb459fdd2df)" style="fill: none; stroke: #000000; stroke-linecap: square"/>
   </g>
   <g id="line2d_25">
    <path d="M 144 118.666388 
L 151.056 118.754313 
L 159.912 118.767499 
L 160.056 118.269935 
L 161.28 118.413695 
L 161.352 117.913061 
L 161.424 117.930003 
L 162.792 118.195143 
L 162.864 117.698836 
L 162.936 117.72002 
L 164.808 118.145229 
L 164.952 118.169675 
L 165.024 117.673873 
L 165.096 117.695551 
L 166.896 118.117792 
L 169.272 118.432277 
L 172.656 118.637294 
L 173.808 118.673286 
L 173.88 118.167513 
L 173.952 118.179417 
L 175.104 118.340792 
L 175.176 117.841601 
L 175.248 117.859959 
L 176.328 118.095482 
L 176.4 117.601149 
L 176.472 117.624267 
L 177.984 118.016743 
L 178.056 117.523969 
L 178.128 117.548615 
L 179.856 118.013719 
L 182.016 118.354355 
L 185.04 118.58983 
L 188.28 118.695991 
L 188.352 118.189768 
L 188.424 118.201231 
L 189.864 118.388314 
L 189.936 117.888183 
L 190.008 117.905618 
L 191.232 118.154378 
L 191.304 117.658879 
L 191.376 117.680854 
L 193.176 118.108878 
L 193.536 118.171667 
L 193.608 117.675826 
L 193.68 117.697465 
L 195.48 118.118953 
L 197.856 118.432877 
L 201.24 118.637529 
L 202.752 118.682522 
L 202.824 118.176566 
L 202.896 118.188291 
L 204.264 118.37178 
L 204.336 117.871976 
L 204.408 117.889732 
L 205.56 118.130433 
L 205.632 117.635408 
L 205.704 117.657847 
L 207.072 118.009021 
L 207.144 117.5164 
L 207.216 117.541196 
L 208.944 118.009128 
L 211.104 118.351835 
L 214.128 118.588742 
L 215.928 118.659558 
L 215.928 118.659558 
" clip-path="url(#pb459fdd2df)" style="fill: none; stroke: #0000ff; stroke-linecap: square"/>
   </g>
   <g id="line2d_26">
    <path d="M 144 144 
L 144 0 
" clip-path="url(#pb459fdd2df)" style="fill: none; stroke: #808080; stroke-width: 1.5; stroke-linecap: square"/>
   </g>
   <g id="line2d_27">
    <path d="M 158.472 70.983273 
L 161.568 71.305375 
L 164.52 71.389469 
L 167.472 71.250025 
L 170.496 70.88511 
L 173.808 70.257755 
L 177.768 69.267645 
L 185.256 67.095802 
L 190.008 65.857031 
L 193.536 65.162963 
L 196.704 64.765875 
L 199.656 64.616748 
L 202.608 64.691064 
L 205.632 64.993656 
L 208.872 65.548172 
L 212.544 66.409182 
L 215.928 67.348625 
L 215.928 67.348625 
" clip-path="url(#pb459fdd2df)" style="fill: none; stroke: #ff0000; stroke-width: 2; stroke-linecap: square"/>
   </g>
   <g id="line2d_28">
    <path d="M 144 79.221348 
L 144.216 79.189777 
L 144.288 79.590734 
L 144.36 79.554824 
L 144.648 80.085552 
L 144.792 80.075713 
L 145.008 80.589309 
L 145.08 80.280524 
L 145.296 80.847021 
L 145.44 81.107676 
L 145.584 80.922704 
L 145.656 81.083006 
L 145.728 80.616024 
L 145.8 80.755841 
L 145.872 80.777513 
L 146.016 81.122923 
L 146.088 81.232165 
L 146.232 81.844878 
L 146.52 81.525456 
L 146.736 81.572493 
L 146.952 82.14025 
L 147.096 81.906206 
L 147.168 82.130019 
L 147.312 81.791929 
L 147.384 82.251908 
L 147.456 82.224757 
L 147.528 82.446005 
L 147.672 82.191688 
L 147.816 82.202823 
L 147.96 82.545434 
L 148.032 82.49176 
L 148.104 83.040214 
L 148.176 82.682743 
L 148.248 82.776978 
L 148.32 82.872658 
L 148.392 82.812504 
L 148.464 82.579662 
L 148.536 82.637128 
L 148.68 83.237412 
L 148.824 82.866052 
L 148.968 82.78846 
L 149.256 83.269918 
L 149.328 83.212854 
L 149.616 83.371121 
L 149.76 83.214989 
L 149.904 83.486193 
L 150.12 83.08412 
L 150.336 83.447233 
L 150.408 83.656453 
L 150.48 83.58078 
L 150.552 83.419134 
L 150.696 83.778702 
L 150.768 83.706029 
L 150.84 83.708598 
L 150.984 83.494785 
L 151.2 84.32104 
L 151.344 83.802701 
L 151.416 83.912908 
L 151.488 83.848498 
L 151.56 84.136154 
L 151.632 84.069717 
L 151.704 83.956351 
L 151.848 84.10009 
L 151.992 83.643204 
L 152.064 83.947101 
L 152.136 83.919871 
L 152.424 84.074098 
L 152.496 84.337388 
L 152.64 83.936991 
L 152.856 84.566022 
L 152.928 84.512252 
L 153.072 84.186483 
L 153.288 84.316488 
L 153.36 84.247813 
L 153.504 83.826688 
L 153.648 83.728823 
L 153.792 84.19929 
L 153.864 84.114365 
L 153.936 84.180193 
L 154.08 84.398903 
L 154.296 83.775588 
L 154.512 84.498439 
L 154.728 84.102542 
L 154.944 84.730007 
L 155.016 84.332414 
L 155.088 84.503821 
L 155.376 84.174472 
L 155.52 84.710833 
L 155.736 84.137386 
L 155.808 84.34731 
L 156.024 84.062496 
L 156.168 84.328319 
L 156.24 84.239344 
L 156.456 84.717589 
L 156.672 84.35322 
L 156.744 84.363804 
L 156.816 84.554876 
L 156.888 84.494901 
L 157.176 84.387089 
L 157.32 84.522864 
L 157.536 84.362666 
L 157.752 84.449854 
L 157.896 84.294686 
L 158.04 84.244815 
L 158.112 84.676222 
L 158.184 84.580358 
L 158.328 84.310042 
L 158.4 72.256193 
L 158.472 72.304594 
L 158.616 71.52461 
L 158.688 71.759705 
L 158.76 71.653624 
L 158.832 71.668616 
L 158.976 71.400642 
L 159.048 71.486236 
L 159.192 71.422218 
L 159.264 71.545333 
L 159.696 71.054154 
L 159.84 71.323792 
L 159.912 71.251889 
L 160.128 71.172503 
L 160.2 71.174956 
L 160.344 71.536977 
L 160.56 71.228216 
L 160.632 71.448034 
L 160.704 71.3709 
L 161.064 71.08727 
L 161.208 71.26437 
L 161.28 71.203938 
L 161.352 71.53625 
L 161.424 71.45613 
L 161.712 71.258565 
L 161.784 71.376178 
L 161.856 71.290847 
L 161.928 71.374765 
L 162 71.245391 
L 162.072 71.365772 
L 162.144 71.302673 
L 162.288 71.208672 
L 162.504 71.543192 
L 162.576 71.465556 
L 162.792 71.661705 
L 162.864 71.577216 
L 163.08 71.87383 
L 163.224 71.547052 
L 163.368 71.291027 
L 163.512 71.260702 
L 163.8 71.501954 
L 163.944 71.264417 
L 164.016 71.44177 
L 164.088 71.374561 
L 164.232 71.252486 
L 164.304 71.511747 
L 164.376 71.439718 
L 164.592 71.504272 
L 164.736 71.36578 
L 164.952 71.48161 
L 165.312 71.312875 
L 165.384 71.448491 
L 165.456 71.379757 
L 165.672 71.110262 
L 165.744 71.292086 
L 165.816 71.233497 
L 165.888 71.174391 
L 166.104 71.520751 
L 166.176 71.44276 
L 166.248 71.415222 
L 166.32 71.606893 
L 166.392 71.520283 
L 166.68 71.076584 
L 166.896 70.820318 
L 167.112 70.712775 
L 167.184 70.792152 
L 167.256 71.093347 
L 167.328 70.9305 
L 167.544 71.259403 
L 167.688 71.250427 
L 168.192 71.090268 
L 168.336 71.32753 
L 168.624 71.180338 
L 168.768 71.515651 
L 168.84 71.458794 
L 168.912 71.418736 
L 169.128 71.0702 
L 169.92 70.946133 
L 169.992 71.106983 
L 170.064 71.041386 
L 170.424 70.607951 
L 170.568 71.047039 
L 170.64 70.98101 
L 170.856 70.901301 
L 170.928 71.098337 
L 171 71.024429 
L 171.216 70.810503 
L 171.36 71.041019 
L 171.576 70.762105 
L 171.648 70.755077 
L 171.72 70.891154 
L 171.792 70.824805 
L 172.368 70.39303 
L 172.584 70.674837 
L 172.656 70.615582 
L 172.728 70.272655 
L 172.872 70.558622 
L 173.016 70.780643 
L 173.088 70.711032 
L 173.88 69.964301 
L 173.952 70.060973 
L 174.024 70.291894 
L 174.096 69.952971 
L 174.168 70.071351 
L 175.32 69.650662 
L 175.464 69.673209 
L 175.608 69.542505 
L 175.68 69.737829 
L 175.752 69.707962 
L 176.04 69.388718 
L 176.184 69.5264 
L 176.328 69.484949 
L 176.472 69.357477 
L 176.616 69.542962 
L 176.76 69.490029 
L 176.976 69.661499 
L 177.192 69.159546 
L 177.336 68.803075 
L 177.408 69.028285 
L 177.696 69.078113 
L 177.768 69.128229 
L 177.984 68.78024 
L 178.128 68.851697 
L 178.416 69.095342 
L 178.704 68.915072 
L 178.848 68.798284 
L 178.992 68.886467 
L 179.136 68.493358 
L 179.424 68.523768 
L 179.568 68.250912 
L 179.712 68.410933 
L 179.928 68.442337 
L 180.144 68.787735 
L 180.216 68.761605 
L 180.432 68.416107 
L 180.792 68.366434 
L 180.864 68.134757 
L 180.936 68.234749 
L 181.08 68.431433 
L 181.224 68.297083 
L 181.368 68.455335 
L 181.512 68.139828 
L 181.584 68.173589 
L 181.728 68.166078 
L 181.944 67.95879 
L 182.232 67.931096 
L 182.304 67.646929 
L 182.376 67.670141 
L 182.736 67.742099 
L 182.808 67.463565 
L 182.88 67.490013 
L 183.384 67.608481 
L 183.744 67.298292 
L 183.888 67.468477 
L 183.96 67.479491 
L 184.104 67.385697 
L 184.176 67.39881 
L 184.248 67.125141 
L 184.32 67.150381 
L 184.752 67.29898 
L 184.896 67.480417 
L 185.04 67.497257 
L 185.256 67.051414 
L 185.4 67.089323 
L 185.472 66.857039 
L 185.544 66.885964 
L 185.688 66.935697 
L 185.832 66.867469 
L 186.048 66.908606 
L 186.12 66.821366 
L 186.192 66.527322 
L 186.264 66.570541 
L 186.984 66.925228 
L 187.344 66.183917 
L 187.416 66.230145 
L 187.56 66.083245 
L 187.632 66.131302 
L 187.704 65.893699 
L 187.776 65.948374 
L 188.424 66.291233 
L 188.496 66.259562 
L 188.568 66.360773 
L 188.712 66.247932 
L 188.856 66.254541 
L 189 65.969125 
L 189.144 66.169007 
L 189.288 65.693281 
L 189.36 65.748253 
L 189.648 65.915366 
L 189.792 65.900971 
L 189.936 66.05528 
L 190.008 65.814831 
L 190.08 65.858106 
L 190.368 66.046519 
L 190.512 65.815734 
L 190.584 65.855267 
L 190.8 65.476188 
L 191.016 65.578351 
L 191.16 65.322306 
L 191.52 65.500273 
L 191.592 65.369048 
L 191.664 65.424224 
L 191.736 65.476058 
L 191.808 65.2857 
L 191.88 65.343994 
L 192.096 65.498625 
L 192.168 65.35517 
L 192.312 65.526932 
L 192.384 65.301062 
L 192.456 65.354834 
L 192.6 65.428423 
L 192.672 65.115894 
L 192.744 65.1784 
L 193.176 65.46395 
L 193.248 65.155609 
L 193.32 65.262994 
L 193.896 65.625816 
L 194.04 65.079797 
L 194.112 65.135722 
L 194.184 64.944331 
L 194.256 65.057777 
L 194.4 65.053835 
L 194.688 65.139889 
L 194.76 65.189696 
L 194.832 64.967635 
L 194.904 65.025878 
L 194.976 65.232901 
L 195.048 64.967373 
L 195.12 65.022965 
L 195.48 65.206081 
L 195.696 64.875574 
L 195.84 64.896944 
L 195.912 64.954673 
L 196.128 64.548169 
L 196.2 64.625778 
L 196.272 64.5362 
L 196.344 64.613244 
L 196.848 65.038926 
L 196.992 65.052978 
L 197.136 65.14698 
L 197.352 64.769136 
L 197.568 64.943072 
L 197.856 64.397354 
L 198.432 64.899221 
L 198.504 64.660958 
L 198.576 64.725294 
L 198.72 64.846416 
L 198.792 64.635862 
L 198.864 64.701085 
L 199.08 64.882245 
L 199.152 64.673848 
L 199.224 64.737361 
L 199.368 64.85744 
L 199.512 64.487599 
L 199.584 64.558637 
L 199.872 64.518206 
L 200.232 64.805086 
L 200.304 64.589764 
L 200.376 64.655831 
L 200.952 65.069409 
L 201.096 64.611957 
L 201.24 64.843862 
L 201.384 64.37477 
L 201.6 64.600593 
L 201.744 64.413178 
L 202.104 64.770979 
L 202.176 64.543033 
L 202.248 64.613692 
L 202.536 65.015238 
L 202.608 64.807035 
L 202.752 64.828269 
L 202.896 65.046609 
L 202.968 64.898401 
L 203.04 64.950661 
L 203.112 65.00095 
L 203.256 64.901243 
L 203.544 65.130631 
L 203.616 64.886726 
L 203.688 64.943096 
L 203.76 64.997358 
L 203.832 64.764593 
L 203.904 64.827595 
L 204.264 65.251211 
L 204.48 64.897466 
L 204.696 64.541003 
L 204.768 64.623461 
L 204.912 64.76184 
L 205.128 65.204965 
L 205.56 65.487592 
L 205.632 65.228792 
L 205.704 65.271467 
L 205.92 65.372314 
L 206.064 65.018035 
L 206.136 65.058093 
L 206.352 65.221065 
L 206.424 65.103234 
L 206.496 65.15935 
L 207.072 65.590517 
L 207.432 65.690709 
L 207.504 65.385995 
L 207.576 65.432106 
L 207.72 65.632928 
L 207.792 65.450459 
L 207.864 65.199266 
L 207.936 65.258093 
L 208.08 65.088266 
L 208.44 65.29993 
L 208.512 65.3531 
L 208.656 65.621956 
L 209.664 66.108664 
L 209.88 65.776519 
L 209.952 65.817859 
L 210.096 66.09541 
L 210.312 66.136103 
L 210.384 65.9552 
L 210.456 65.990945 
L 210.6 66.35238 
L 210.672 66.090214 
L 210.744 66.120584 
L 210.816 66.178188 
L 210.96 65.928124 
L 211.392 66.192784 
L 211.464 66.371514 
L 211.536 66.291127 
L 211.968 66.503665 
L 212.04 66.229574 
L 212.112 66.265286 
L 212.184 66.299599 
L 212.256 66.59215 
L 212.328 66.457975 
L 212.472 66.347646 
L 212.544 66.152681 
L 212.616 66.199179 
L 212.904 66.360886 
L 213.12 66.980431 
L 213.336 66.976015 
L 213.48 66.7571 
L 213.768 66.839192 
L 213.84 66.572181 
L 213.912 66.604569 
L 214.056 66.665893 
L 214.2 66.911992 
L 214.416 66.963667 
L 215.064 67.126311 
L 215.208 67.030624 
L 215.28 67.054371 
L 215.424 67.275813 
L 215.928 67.329416 
L 215.928 67.329416 
" clip-path="url(#pb459fdd2df)" style="fill: none; stroke: #000000; stroke-linecap: square"/>
   </g>
   <g id="line2d_29">
    <path d="M 144 67.158994 
L 146.088 67.530155 
L 148.896 67.785902 
L 153.288 67.93847 
L 162.936 67.998005 
L 185.112 68.002379 
L 185.256 67.504768 
L 187.992 67.769656 
L 188.208 67.783208 
L 188.28 67.279885 
L 188.352 67.29419 
L 190.584 67.621401 
L 190.728 67.636339 
L 190.8 67.135923 
L 190.872 67.153079 
L 192.96 67.526843 
L 193.248 67.563402 
L 193.32 67.064431 
L 193.392 67.083002 
L 195.12 67.433469 
L 195.192 66.93707 
L 195.264 66.958163 
L 197.064 67.369012 
L 197.136 66.87389 
L 197.208 66.896234 
L 199.008 67.331449 
L 199.08 66.83707 
L 199.152 66.860144 
L 200.952 67.309558 
L 201.024 66.815613 
L 201.096 66.839111 
L 202.824 67.282548 
L 202.896 66.789138 
L 202.968 66.81316 
L 204.696 67.26649 
L 204.84 67.295343 
L 204.912 66.801679 
L 204.984 66.825453 
L 206.712 67.274097 
L 207 67.330087 
L 207.072 66.835735 
L 207.144 66.858835 
L 208.944 67.308764 
L 209.088 67.33596 
L 209.16 66.841492 
L 209.232 66.864478 
L 211.032 67.312187 
L 211.392 67.377864 
L 211.464 66.882566 
L 211.536 66.904739 
L 213.336 67.336608 
L 214.128 67.468079 
L 214.2 66.970995 
L 214.272 66.991416 
L 215.928 67.364158 
L 215.928 67.364158 
" clip-path="url(#pb459fdd2df)" style="fill: none; stroke: #0000ff; stroke-linecap: square"/>
   </g>
   <g id="line2d_30">
    <path d="M 144 144 
L 144 0 
" clip-path="url(#pb459fdd2df)" style="fill: none; stroke: #808080; stroke-width: 1.5; stroke-linecap: square"/>
   </g>
   <g id="line2d_31">
    <path d="M 158.472 24.496878 
L 158.976 25.005671 
L 159.408 25.144363 
L 159.768 25.045841 
L 160.2 24.674324 
L 160.704 23.909295 
L 161.352 22.460361 
L 162.216 19.907933 
L 164.952 11.299038 
L 165.6 10.077237 
L 166.104 9.516573 
L 166.536 9.331399 
L 166.896 9.391015 
L 167.328 9.717075 
L 167.832 10.43279 
L 168.48 11.827822 
L 169.344 14.331677 
L 172.296 23.489376 
L 172.944 24.591736 
L 173.448 25.048155 
L 173.88 25.140228 
L 174.24 25.002899 
L 174.672 24.58629 
L 175.176 23.772704 
L 175.824 22.271297 
L 176.76 19.435293 
L 179.208 11.638791 
L 179.928 10.186326 
L 180.432 9.574344 
L 180.864 9.34287 
L 181.224 9.363522 
L 181.656 9.643803 
L 182.16 10.309498 
L 182.736 11.476194 
L 183.528 13.652335 
L 184.896 18.234559 
L 186.192 22.282696 
L 186.912 23.917222 
L 187.488 24.759588 
L 187.92 25.08293 
L 188.352 25.128293 
L 188.712 24.952291 
L 189.144 24.491003 
L 189.72 23.480309 
L 190.44 21.675062 
L 191.52 18.219882 
L 193.392 12.189396 
L 194.112 10.55487 
L 194.688 9.712504 
L 195.12 9.389161 
L 195.552 9.343798 
L 195.912 9.5198 
L 196.344 9.981089 
L 196.92 10.991783 
L 197.64 12.79703 
L 198.72 16.252209 
L 200.592 22.282696 
L 201.312 23.917222 
L 201.888 24.759588 
L 202.32 25.08293 
L 202.752 25.128293 
L 203.112 24.952291 
L 203.544 24.491003 
L 204.12 23.480309 
L 204.84 21.675062 
L 205.92 18.219882 
L 207.792 12.189396 
L 208.512 10.55487 
L 209.088 9.712504 
L 209.52 9.389161 
L 209.952 9.343798 
L 210.312 9.5198 
L 210.744 9.981089 
L 211.32 10.991783 
L 212.04 12.79703 
L 213.12 16.252209 
L 214.992 22.282696 
L 215.712 23.917222 
L 215.928 24.285766 
L 215.928 24.285766 
" clip-path="url(#pb459fdd2df)" style="fill: none; stroke: #ff0000; stroke-width: 2; stroke-linecap: square"/>
   </g>
   <g id="line2d_32">
    <path d="M 144 15.833941 
L 144.216 15.393421 
L 144.576 18.383231 
L 144.72 17.152483 
L 144.864 16.813643 
L 145.08 18.53496 
L 145.224 18.14459 
L 145.512 15.746764 
L 145.584 15.921112 
L 145.656 15.652628 
L 145.728 17.244559 
L 145.8 17.066842 
L 145.944 17.465944 
L 146.016 16.923467 
L 146.088 17.481661 
L 146.232 16.930736 
L 146.376 18.259081 
L 146.448 17.550248 
L 146.52 17.518413 
L 146.592 17.101825 
L 146.664 18.19944 
L 146.736 18.002816 
L 146.808 16.950126 
L 146.88 17.305624 
L 146.952 17.894705 
L 147.168 17.157657 
L 147.24 17.790654 
L 147.312 17.602124 
L 147.528 16.041018 
L 147.6 16.442246 
L 147.672 16.193723 
L 147.744 17.584132 
L 147.816 17.422155 
L 147.888 16.803749 
L 147.96 17.361474 
L 148.032 17.181442 
L 148.176 16.002828 
L 148.248 16.368838 
L 148.32 16.320722 
L 148.464 17.718344 
L 148.608 16.077816 
L 148.68 16.421061 
L 148.752 16.248445 
L 148.824 15.741119 
L 148.896 16.018926 
L 148.968 16.624139 
L 149.04 16.12773 
L 149.256 18.253358 
L 149.328 17.643172 
L 149.4 17.466528 
L 149.472 16.488431 
L 149.544 16.556363 
L 149.76 17.585657 
L 149.832 17.401186 
L 149.904 17.381277 
L 149.976 16.989227 
L 150.048 17.391345 
L 150.12 17.210722 
L 150.192 17.141195 
L 150.264 15.954364 
L 150.336 16.201449 
L 150.408 15.459334 
L 150.48 16.097155 
L 150.696 15.034792 
L 150.768 16.434396 
L 150.84 16.27272 
L 150.984 16.923606 
L 151.056 16.722595 
L 151.416 15.682894 
L 151.488 15.027629 
L 151.632 17.255579 
L 151.704 16.819823 
L 151.776 16.915561 
L 151.92 15.993061 
L 151.992 17.12431 
L 152.136 15.323411 
L 152.208 16.536614 
L 152.28 16.372915 
L 152.352 16.311687 
L 152.64 14.182178 
L 152.784 16.168834 
L 152.856 15.925724 
L 152.928 16.329978 
L 153 15.909044 
L 153.072 16.368948 
L 153.144 15.3849 
L 153.216 15.430866 
L 153.288 15.751906 
L 153.36 15.084071 
L 153.504 16.46645 
L 153.576 16.510826 
L 153.648 16.916773 
L 153.72 16.745116 
L 153.792 16.447187 
L 153.936 14.80633 
L 154.008 15.783352 
L 154.08 15.462581 
L 154.152 15.526258 
L 154.296 16.554611 
L 154.512 15.309632 
L 154.584 15.553437 
L 154.656 16.797803 
L 154.728 16.787653 
L 154.944 17.434483 
L 155.088 15.863165 
L 155.16 15.882152 
L 155.304 15.039218 
L 155.52 17.693676 
L 155.736 15.819014 
L 155.808 15.740231 
L 156.024 14.498092 
L 156.168 16.501312 
L 156.24 16.22134 
L 156.312 16.24989 
L 156.384 16.338168 
L 156.528 15.850731 
L 156.672 16.437947 
L 156.816 15.878641 
L 156.888 16.77986 
L 157.104 14.732465 
L 157.32 15.951626 
L 157.464 14.945149 
L 157.608 14.411854 
L 157.68 15.646248 
L 157.752 15.351074 
L 157.824 15.210848 
L 158.04 16.462864 
L 158.256 14.960333 
L 158.328 14.932585 
L 158.472 25.803363 
L 158.544 25.471066 
L 158.616 25.9025 
L 158.76 24.115118 
L 158.904 23.718722 
L 158.976 23.794001 
L 159.336 23.996269 
L 159.48 24.707499 
L 159.552 24.553257 
L 159.624 23.521251 
L 159.696 23.535625 
L 159.84 23.439316 
L 159.912 23.426893 
L 159.984 23.585562 
L 160.128 22.801262 
L 160.272 22.879638 
L 160.416 23.128052 
L 160.488 23.136509 
L 160.704 22.66627 
L 160.776 21.173642 
L 160.848 21.292859 
L 160.992 21.948186 
L 161.064 21.18184 
L 161.136 21.554786 
L 161.208 21.579509 
L 161.28 22.230335 
L 161.352 22.1637 
L 161.64 20.19477 
L 161.712 20.252602 
L 161.784 20.801909 
L 161.928 20.248524 
L 162.144 19.657948 
L 162.216 20.047656 
L 162.288 19.79362 
L 162.432 17.981713 
L 162.648 18.165117 
L 162.864 17.969327 
L 163.008 17.419355 
L 163.08 17.318196 
L 163.224 16.879883 
L 163.44 16.819901 
L 163.512 15.689575 
L 163.584 15.727159 
L 163.656 15.289393 
L 163.728 15.306459 
L 163.8 15.127277 
L 163.944 13.059904 
L 164.016 13.102403 
L 164.088 12.690729 
L 164.16 12.82639 
L 164.52 13.530828 
L 164.736 12.391752 
L 164.88 12.521972 
L 164.952 12.819644 
L 165.024 12.788678 
L 165.096 12.164127 
L 165.168 10.416765 
L 165.24 10.570988 
L 165.456 11.566963 
L 165.6 9.637554 
L 165.744 9.926523 
L 165.888 8.537799 
L 165.96 8.904247 
L 166.032 8.835335 
L 166.104 8.625836 
L 166.752 10.410981 
L 166.896 10.254474 
L 167.04 10.595566 
L 167.112 10.645356 
L 167.328 9.585735 
L 167.472 10.660228 
L 167.544 10.642778 
L 167.616 9.931045 
L 167.688 10.076044 
L 167.76 10.216767 
L 167.832 10.780228 
L 167.904 10.469465 
L 168.336 11.322434 
L 168.48 12.177671 
L 168.552 12.258963 
L 168.696 13.737428 
L 168.768 13.547878 
L 168.84 13.685574 
L 168.912 14.08688 
L 168.984 13.62987 
L 169.056 13.872544 
L 169.344 15.742457 
L 169.416 15.700041 
L 169.488 14.658821 
L 169.56 14.714385 
L 169.848 16.312715 
L 170.136 16.251268 
L 170.208 15.868515 
L 170.28 15.962063 
L 170.568 19.30266 
L 170.64 19.22327 
L 170.856 18.848738 
L 171.072 18.855141 
L 171.36 22.021643 
L 171.432 21.843667 
L 171.576 23.307241 
L 171.792 22.993893 
L 171.936 22.881325 
L 172.008 23.241317 
L 172.08 23.026602 
L 172.152 24.231429 
L 172.224 24.050827 
L 172.368 23.559267 
L 172.44 23.844949 
L 172.512 23.717287 
L 172.584 25.084559 
L 172.656 24.88282 
L 172.728 25.253021 
L 172.8 26.340183 
L 172.872 26.323043 
L 172.944 26.740379 
L 173.16 25.812879 
L 173.376 25.415269 
L 173.448 25.175242 
L 173.52 25.77187 
L 173.592 25.579761 
L 173.736 25.190113 
L 173.808 25.454606 
L 173.952 24.870859 
L 174.024 25.59646 
L 174.096 25.481293 
L 174.24 24.460777 
L 174.456 24.282904 
L 174.528 24.314679 
L 174.6 24.703967 
L 174.672 24.561987 
L 174.744 24.038445 
L 174.816 24.638168 
L 174.888 24.484532 
L 174.96 22.233329 
L 175.032 22.395693 
L 175.248 22.408979 
L 175.392 22.159399 
L 175.608 22.117789 
L 175.68 22.306811 
L 175.968 21.090518 
L 176.04 21.717398 
L 176.184 21.273247 
L 176.256 19.756412 
L 176.328 19.783348 
L 176.4 19.78995 
L 176.472 19.338026 
L 176.544 19.356847 
L 176.616 19.315099 
L 176.76 19.074996 
L 176.832 19.057429 
L 176.976 19.122797 
L 177.192 19.029117 
L 177.264 17.457587 
L 177.336 17.464671 
L 177.552 16.904496 
L 177.624 17.396029 
L 177.696 15.949015 
L 177.768 15.983224 
L 177.912 16.023635 
L 177.984 16.481168 
L 178.056 16.446092 
L 178.344 15.025683 
L 178.56 15.026572 
L 178.92 12.992841 
L 178.992 12.835145 
L 179.064 12.40904 
L 179.136 11.097602 
L 179.208 11.263927 
L 179.352 11.373885 
L 179.496 11.109386 
L 179.928 11.624931 
L 180 11.501024 
L 180.072 11.554789 
L 180.144 10.436116 
L 180.216 10.541208 
L 180.36 9.668806 
L 180.432 9.811615 
L 180.72 10.301309 
L 180.792 9.712849 
L 180.936 10.657235 
L 181.008 10.738323 
L 181.08 10.609184 
L 181.152 10.66933 
L 181.296 11.596263 
L 181.584 11.691074 
L 181.8 10.663612 
L 181.944 10.73621 
L 182.016 10.623074 
L 182.232 10.764046 
L 182.376 10.499072 
L 182.52 10.766728 
L 182.664 10.462025 
L 182.952 11.127063 
L 183.024 10.553546 
L 183.096 10.739222 
L 183.168 10.917844 
L 183.312 13.433427 
L 183.456 14.350498 
L 183.528 14.378206 
L 183.672 14.652572 
L 184.104 14.950558 
L 184.392 15.262456 
L 184.608 17.456685 
L 184.68 17.028713 
L 184.824 19.274088 
L 184.896 19.176656 
L 185.112 18.893008 
L 185.184 19.960213 
L 185.256 19.891399 
L 185.688 19.517169 
L 185.832 19.594045 
L 186.192 21.734351 
L 186.264 23.335613 
L 186.336 23.184239 
L 186.48 23.043142 
L 186.552 22.930476 
L 186.624 22.466192 
L 186.696 23.362254 
L 186.768 23.248214 
L 186.84 23.143079 
L 186.912 23.56212 
L 186.984 23.45051 
L 187.056 23.346576 
L 187.128 23.998884 
L 187.2 23.878814 
L 187.272 23.767117 
L 187.344 24.801001 
L 187.416 24.704412 
L 187.632 24.427621 
L 187.848 26.287075 
L 187.92 26.070106 
L 188.208 25.492145 
L 188.28 26.547924 
L 188.352 26.290475 
L 188.568 25.036296 
L 188.64 25.6644 
L 188.712 25.472306 
L 188.856 24.968588 
L 188.928 25.511178 
L 189 25.226697 
L 189.288 23.908947 
L 189.576 23.45207 
L 189.648 23.613067 
L 189.792 21.915398 
L 189.864 22.567585 
L 189.936 22.486049 
L 190.08 21.915283 
L 190.224 21.868555 
L 190.368 21.824289 
L 190.512 21.294759 
L 190.584 21.221452 
L 190.728 20.252589 
L 190.944 21.686807 
L 191.016 22.096696 
L 191.088 21.91625 
L 191.304 19.19617 
L 191.448 18.579528 
L 191.592 18.513128 
L 191.664 18.67704 
L 191.736 18.607024 
L 191.88 18.112725 
L 191.952 18.256235 
L 192.096 17.843506 
L 192.168 17.779093 
L 192.24 17.37961 
L 192.312 17.495457 
L 192.384 17.439748 
L 192.456 15.818946 
L 192.528 15.82308 
L 192.744 15.66659 
L 192.816 15.645033 
L 192.888 13.70389 
L 192.96 13.768557 
L 193.032 13.822084 
L 193.176 14.135235 
L 193.248 14.151208 
L 193.392 13.929269 
L 193.536 14.022271 
L 193.752 12.491305 
L 193.896 12.522068 
L 193.968 12.144361 
L 194.04 10.197886 
L 194.112 10.353768 
L 194.472 11.036055 
L 194.616 10.510104 
L 194.76 10.780416 
L 194.832 9.728703 
L 194.904 9.865985 
L 194.976 9.994685 
L 195.048 9.44277 
L 195.12 9.590347 
L 195.552 10.286437 
L 195.624 9.954249 
L 195.696 10.108685 
L 196.272 10.853169 
L 196.344 10.950908 
L 196.416 10.384156 
L 196.488 10.506702 
L 196.632 10.669087 
L 196.704 10.597376 
L 196.848 11.894034 
L 196.92 11.584461 
L 196.992 11.674969 
L 197.064 11.767 
L 197.208 12.178182 
L 197.28 11.806504 
L 197.352 11.911592 
L 197.496 13.142564 
L 197.784 13.41142 
L 197.856 14.303544 
L 197.928 13.662888 
L 198 13.73024 
L 198.072 13.423562 
L 198.144 13.520881 
L 198.216 13.619224 
L 198.432 14.59854 
L 198.504 13.940281 
L 198.576 16.395149 
L 198.648 16.388157 
L 198.72 16.391488 
L 198.864 17.408745 
L 198.936 17.385073 
L 199.08 17.261291 
L 199.224 17.277279 
L 199.296 17.978 
L 199.368 17.970372 
L 199.44 17.606785 
L 199.512 18.76927 
L 199.584 18.745234 
L 199.8 18.710091 
L 199.944 19.106419 
L 200.088 19.096614 
L 200.16 18.631796 
L 200.232 18.673848 
L 200.448 22.618843 
L 200.88 21.740503 
L 201.096 24.185699 
L 201.24 23.879116 
L 201.384 23.630174 
L 201.456 24.140882 
L 201.528 24.009465 
L 201.6 24.077222 
L 201.672 25.167305 
L 201.744 24.991903 
L 201.816 24.830143 
L 201.888 25.844855 
L 201.96 25.673487 
L 202.104 25.557382 
L 202.608 24.390475 
L 202.752 27.269679 
L 202.824 28.180902 
L 203.04 26.477191 
L 203.184 26.033758 
L 203.256 26.243341 
L 203.472 25.575298 
L 203.544 25.902358 
L 203.688 24.299291 
L 203.832 24.034122 
L 203.976 24.894246 
L 204.12 24.270573 
L 204.264 22.915723 
L 204.408 23.948981 
L 204.48 23.805218 
L 204.552 24.044821 
L 204.768 23.468801 
L 204.84 21.993849 
L 204.912 22.799565 
L 205.056 21.106468 
L 205.2 20.949148 
L 205.272 21.196637 
L 205.344 21.088881 
L 205.488 20.873115 
L 205.632 19.094216 
L 205.704 18.582037 
L 205.776 18.603652 
L 205.848 18.580965 
L 205.992 19.065817 
L 206.064 18.996267 
L 206.136 18.925062 
L 206.424 17.455141 
L 206.568 17.567641 
L 206.64 17.494542 
L 206.784 17.01239 
L 206.928 16.905637 
L 207.072 13.767097 
L 207.144 13.732079 
L 207.216 13.33844 
L 207.288 13.433736 
L 207.36 13.513906 
L 207.504 12.231043 
L 207.576 12.399015 
L 207.864 12.754667 
L 207.936 12.223014 
L 208.008 12.303871 
L 208.152 12.026614 
L 208.224 12.242851 
L 208.296 12.03812 
L 208.368 12.068054 
L 208.44 12.101976 
L 208.512 12.59328 
L 208.656 10.625621 
L 208.8 9.251533 
L 208.944 9.577292 
L 209.016 9.598791 
L 209.088 9.751744 
L 209.16 8.549712 
L 209.232 8.751889 
L 209.376 9.115972 
L 209.52 9.796172 
L 209.592 9.490241 
L 209.664 9.636063 
L 209.952 10.24566 
L 210.024 9.816265 
L 210.096 9.908586 
L 210.312 10.400383 
L 210.384 11.099565 
L 210.456 10.118675 
L 210.528 10.230193 
L 210.6 10.340314 
L 210.672 10.872001 
L 210.744 9.883797 
L 210.816 10.027303 
L 210.888 10.166617 
L 211.032 10.844925 
L 211.104 10.639957 
L 211.176 10.764764 
L 211.248 10.887844 
L 211.32 10.832683 
L 211.392 10.856475 
L 211.464 10.619036 
L 211.536 10.770504 
L 211.608 10.386858 
L 211.68 10.558148 
L 211.752 10.723951 
L 211.896 12.069972 
L 211.968 12.03546 
L 212.04 12.646233 
L 212.112 11.992894 
L 212.184 12.125332 
L 212.4 12.717549 
L 212.544 14.257402 
L 212.76 14.447929 
L 212.904 16.150948 
L 213.264 15.261448 
L 213.48 17.222947 
L 213.552 17.232798 
L 213.768 18.668873 
L 214.056 18.585965 
L 214.2 18.069691 
L 214.272 18.107051 
L 214.344 18.277063 
L 214.632 20.787493 
L 214.776 20.697534 
L 214.992 22.107613 
L 215.064 22.329036 
L 215.136 21.982089 
L 215.28 23.971226 
L 215.352 23.690922 
L 215.496 23.418897 
L 215.568 23.738157 
L 215.784 23.371769 
L 215.928 23.178733 
L 215.928 23.178733 
" clip-path="url(#pb459fdd2df)" style="fill: none; stroke: #000000; stroke-linecap: square"/>
   </g>
   <g id="line2d_33">
    <path d="M 144 16.77761 
L 146.88 17.030046 
L 149.472 17.13577 
L 149.544 16.630092 
L 149.616 16.64209 
L 152.064 16.935124 
L 153.216 17.017527 
L 153.288 16.51419 
L 153.36 16.528483 
L 155.592 16.8554 
L 156.744 16.959634 
L 156.816 16.457444 
L 156.888 16.47286 
L 159.048 16.817184 
L 162.072 17.055208 
L 164.592 17.14624 
L 164.664 16.640355 
L 164.736 16.65215 
L 166.032 16.828665 
L 166.104 16.329068 
L 166.176 16.347026 
L 167.4 16.603253 
L 167.472 16.108119 
L 167.544 16.130452 
L 168.84 16.464681 
L 168.912 15.97229 
L 168.984 15.997313 
L 170.712 16.469513 
L 172.872 16.815347 
L 175.896 17.054415 
L 179.208 17.163658 
L 179.28 16.657428 
L 179.352 16.668885 
L 180.648 16.840341 
L 180.72 16.340513 
L 180.792 16.358244 
L 182.232 16.647622 
L 182.304 16.151609 
L 182.376 16.173081 
L 183.744 16.509107 
L 183.816 16.015836 
L 183.888 16.039997 
L 185.616 16.495926 
L 187.848 16.837886 
L 190.944 17.06755 
L 193.968 17.1633 
L 194.04 16.657077 
L 194.112 16.668541 
L 195.48 16.847941 
L 195.552 16.347962 
L 195.624 16.365546 
L 196.992 16.640729 
L 197.064 16.144853 
L 197.136 16.166459 
L 198.936 16.587286 
L 199.008 16.092468 
L 199.08 16.115111 
L 200.88 16.556142 
L 203.184 16.877522 
L 206.496 17.093158 
L 207.936 17.140263 
L 208.008 16.634496 
L 208.08 16.646407 
L 209.232 16.807871 
L 209.304 16.308685 
L 209.376 16.327047 
L 210.744 16.6144 
L 210.816 16.119046 
L 210.888 16.141162 
L 212.112 16.456722 
L 212.184 15.964489 
L 212.256 15.989666 
L 213.984 16.464782 
L 215.928 16.786577 
L 215.928 16.786577 
" clip-path="url(#pb459fdd2df)" style="fill: none; stroke: #0000ff; stroke-linecap: square"/>
   </g>
  </g>
 </g>
 <defs>
  <clipPath id="pb459fdd2df">
   <rect x="0" y="0" width="216" height="144"/>
  </clipPath>
 </defs>
</svg>
