<?xml version="1.0" encoding="utf-8" standalone="no"?>
<!DOCTYPE svg PUBLIC "-//W3C//DTD SVG 1.1//EN"
  "http://www.w3.org/Graphics/SVG/1.1/DTD/svg11.dtd">
<svg xmlns:xlink="http://www.w3.org/1999/xlink" width="204.601031pt" height="204.545906pt" viewBox="0 0 204.601031 204.545906" xmlns="http://www.w3.org/2000/svg" version="1.1">
 <metadata>
  <rdf:RDF xmlns:dc="http://purl.org/dc/elements/1.1/" xmlns:cc="http://creativecommons.org/ns#" xmlns:rdf="http://www.w3.org/1999/02/22-rdf-syntax-ns#">
   <cc:Work>
    <dc:type rdf:resource="http://purl.org/dc/dcmitype/StillImage"/>
    <dc:date>2025-12-18T17:12:48.409064</dc:date>
    <dc:format>image/svg+xml</dc:format>
    <dc:creator>
     <cc:Agent>
      <dc:title>Matplotlib v3.10.5, https://matplotlib.org/</dc:title>
     </cc:Agent>
    </dc:creator>
   </cc:Work>
  </rdf:RDF>
 </metadata>
 <defs>
  <style type="text/css">*{stroke-linejoin: round; stroke-linecap: butt}</style>
 </defs>
 <g id="figure_1">
  <g id="patch_1">
   <path d="M 0 204.545906 
L 204.601031 204.545906 
L 204.601031 0 
L 0 0 
z
" style="fill: #ffffff"/>
  </g>
  <g id="axes_1">
   <g id="patch_2">
    <path d="M 35.197031 170.772 
L 197.401031 170.772 
L 197.401031 7.2 
L 35.197031 7.2 
z
" style="fill: #ffffff"/>
   </g>
   <g id="matplotlib.axis_1">
    <g id="xtick_1">
     <g id="line2d_1">
      <defs>
       <path id="mcb910bd467" d="M 0 0 
L 0 -3.5 
" style="stroke: #000000; stroke-width: 0.8"/>
      </defs>
      <g>
       <use xlink:href="#mcb910bd467" x="42.56994" y="170.772" style="stroke: #000000; stroke-width: 0.8"/>
      </g>
     </g>
     <g id="text_1">
      <!-- 0 -->
      <g transform="translate(40.31994 180.521375) scale(0.09 -0.09)">
       <defs>
        <path id="TimesNewRomanPSMT-30" d="M 231 2094 
Q 231 2819 450 3342 
Q 669 3866 1031 4122 
Q 1313 4325 1613 4325 
Q 2100 4325 2488 3828 
Q 2972 3213 2972 2159 
Q 2972 1422 2759 906 
Q 2547 391 2217 158 
Q 1888 -75 1581 -75 
Q 975 -75 572 641 
Q 231 1244 231 2094 
z
M 844 2016 
Q 844 1141 1059 588 
Q 1238 122 1591 122 
Q 1759 122 1940 273 
Q 2122 425 2216 781 
Q 2359 1319 2359 2297 
Q 2359 3022 2209 3506 
Q 2097 3866 1919 4016 
Q 1791 4119 1609 4119 
Q 1397 4119 1231 3928 
Q 1006 3669 925 3112 
Q 844 2556 844 2016 
z
" transform="scale(0.015625)"/>
       </defs>
       <use xlink:href="#TimesNewRomanPSMT-30"/>
      </g>
     </g>
    </g>
    <g id="xtick_2">
     <g id="line2d_2">
      <g>
       <use xlink:href="#mcb910bd467" x="79.526878" y="170.772" style="stroke: #000000; stroke-width: 0.8"/>
      </g>
     </g>
     <g id="text_2">
      <!-- 200 -->
      <g transform="translate(72.776878 180.521375) scale(0.09 -0.09)">
       <defs>
        <path id="TimesNewRomanPSMT-32" d="M 2934 816 
L 2638 0 
L 138 0 
L 138 116 
Q 1241 1122 1691 1759 
Q 2141 2397 2141 2925 
Q 2141 3328 1894 3587 
Q 1647 3847 1303 3847 
Q 991 3847 742 3664 
Q 494 3481 375 3128 
L 259 3128 
Q 338 3706 661 4015 
Q 984 4325 1469 4325 
Q 1984 4325 2329 3994 
Q 2675 3663 2675 3213 
Q 2675 2891 2525 2569 
Q 2294 2063 1775 1497 
Q 997 647 803 472 
L 1909 472 
Q 2247 472 2383 497 
Q 2519 522 2628 598 
Q 2738 675 2819 816 
L 2934 816 
z
" transform="scale(0.015625)"/>
       </defs>
       <use xlink:href="#TimesNewRomanPSMT-32"/>
       <use xlink:href="#TimesNewRomanPSMT-30" transform="translate(50 0)"/>
       <use xlink:href="#TimesNewRomanPSMT-30" transform="translate(100 0)"/>
      </g>
     </g>
    </g>
    <g id="xtick_3">
     <g id="line2d_3">
      <g>
       <use xlink:href="#mcb910bd467" x="116.483816" y="170.772" style="stroke: #000000; stroke-width: 0.8"/>
      </g>
     </g>
     <g id="text_3">
      <!-- 400 -->
      <g transform="translate(109.733816 180.521375) scale(0.09 -0.09)">
       <defs>
        <path id="TimesNewRomanPSMT-34" d="M 2978 1563 
L 2978 1119 
L 2409 1119 
L 2409 0 
L 1894 0 
L 1894 1119 
L 100 1119 
L 100 1519 
L 2066 4325 
L 2409 4325 
L 2409 1563 
L 2978 1563 
z
M 1894 1563 
L 1894 3666 
L 406 1563 
L 1894 1563 
z
" transform="scale(0.015625)"/>
       </defs>
       <use xlink:href="#TimesNewRomanPSMT-34"/>
       <use xlink:href="#TimesNewRomanPSMT-30" transform="translate(50 0)"/>
       <use xlink:href="#TimesNewRomanPSMT-30" transform="translate(100 0)"/>
      </g>
     </g>
    </g>
    <g id="xtick_4">
     <g id="line2d_4">
      <g>
       <use xlink:href="#mcb910bd467" x="153.440754" y="170.772" style="stroke: #000000; stroke-width: 0.8"/>
      </g>
     </g>
     <g id="text_4">
      <!-- 600 -->
      <g transform="translate(146.690754 180.521375) scale(0.09 -0.09)">
       <defs>
        <path id="TimesNewRomanPSMT-36" d="M 2869 4325 
L 2869 4209 
Q 2456 4169 2195 4045 
Q 1934 3922 1679 3669 
Q 1425 3416 1258 3105 
Q 1091 2794 978 2366 
Q 1428 2675 1881 2675 
Q 2316 2675 2634 2325 
Q 2953 1975 2953 1425 
Q 2953 894 2631 456 
Q 2244 -75 1606 -75 
Q 1172 -75 869 213 
Q 275 772 275 1663 
Q 275 2231 503 2743 
Q 731 3256 1154 3653 
Q 1578 4050 1965 4187 
Q 2353 4325 2688 4325 
L 2869 4325 
z
M 925 2138 
Q 869 1716 869 1456 
Q 869 1156 980 804 
Q 1091 453 1309 247 
Q 1469 100 1697 100 
Q 1969 100 2183 356 
Q 2397 613 2397 1088 
Q 2397 1622 2184 2012 
Q 1972 2403 1581 2403 
Q 1463 2403 1327 2353 
Q 1191 2303 925 2138 
z
" transform="scale(0.015625)"/>
       </defs>
       <use xlink:href="#TimesNewRomanPSMT-36"/>
       <use xlink:href="#TimesNewRomanPSMT-30" transform="translate(50 0)"/>
       <use xlink:href="#TimesNewRomanPSMT-30" transform="translate(100 0)"/>
      </g>
     </g>
    </g>
    <g id="xtick_5">
     <g id="line2d_5">
      <g>
       <use xlink:href="#mcb910bd467" x="190.397692" y="170.772" style="stroke: #000000; stroke-width: 0.8"/>
      </g>
     </g>
     <g id="text_5">
      <!-- 800 -->
      <g transform="translate(183.647692 180.521375) scale(0.09 -0.09)">
       <defs>
        <path id="TimesNewRomanPSMT-38" d="M 1228 2134 
Q 725 2547 579 2797 
Q 434 3047 434 3316 
Q 434 3728 753 4026 
Q 1072 4325 1600 4325 
Q 2113 4325 2425 4047 
Q 2738 3769 2738 3413 
Q 2738 3175 2569 2928 
Q 2400 2681 1866 2347 
Q 2416 1922 2594 1678 
Q 2831 1359 2831 1006 
Q 2831 559 2490 242 
Q 2150 -75 1597 -75 
Q 994 -75 656 303 
Q 388 606 388 966 
Q 388 1247 577 1523 
Q 766 1800 1228 2134 
z
M 1719 2469 
Q 2094 2806 2194 3001 
Q 2294 3197 2294 3444 
Q 2294 3772 2109 3958 
Q 1925 4144 1606 4144 
Q 1288 4144 1088 3959 
Q 888 3775 888 3528 
Q 888 3366 970 3203 
Q 1053 3041 1206 2894 
L 1719 2469 
z
M 1375 2016 
Q 1116 1797 991 1539 
Q 866 1281 866 981 
Q 866 578 1086 336 
Q 1306 94 1647 94 
Q 1984 94 2187 284 
Q 2391 475 2391 747 
Q 2391 972 2272 1150 
Q 2050 1481 1375 2016 
z
" transform="scale(0.015625)"/>
       </defs>
       <use xlink:href="#TimesNewRomanPSMT-38"/>
       <use xlink:href="#TimesNewRomanPSMT-30" transform="translate(50 0)"/>
       <use xlink:href="#TimesNewRomanPSMT-30" transform="translate(100 0)"/>
      </g>
     </g>
    </g>
    <g id="text_6">
     <!-- time -->
     <g transform="translate(105.634969 194.779031) scale(0.12 -0.12)">
      <defs>
       <path id="TimesNewRomanPSMT-74" d="M 1031 3803 
L 1031 2863 
L 1700 2863 
L 1700 2644 
L 1031 2644 
L 1031 788 
Q 1031 509 1111 412 
Q 1191 316 1316 316 
Q 1419 316 1516 380 
Q 1613 444 1666 569 
L 1788 569 
Q 1678 263 1478 108 
Q 1278 -47 1066 -47 
Q 922 -47 784 33 
Q 647 113 581 261 
Q 516 409 516 719 
L 516 2644 
L 63 2644 
L 63 2747 
Q 234 2816 414 2980 
Q 594 3144 734 3369 
Q 806 3488 934 3803 
L 1031 3803 
z
" transform="scale(0.015625)"/>
       <path id="TimesNewRomanPSMT-69" d="M 928 4444 
Q 1059 4444 1151 4351 
Q 1244 4259 1244 4128 
Q 1244 3997 1151 3903 
Q 1059 3809 928 3809 
Q 797 3809 703 3903 
Q 609 3997 609 4128 
Q 609 4259 701 4351 
Q 794 4444 928 4444 
z
M 1188 2947 
L 1188 647 
Q 1188 378 1227 289 
Q 1266 200 1342 156 
Q 1419 113 1622 113 
L 1622 0 
L 231 0 
L 231 113 
Q 441 113 512 153 
Q 584 194 626 287 
Q 669 381 669 647 
L 669 1750 
Q 669 2216 641 2353 
Q 619 2453 572 2492 
Q 525 2531 444 2531 
Q 356 2531 231 2484 
L 188 2597 
L 1050 2947 
L 1188 2947 
z
" transform="scale(0.015625)"/>
       <path id="TimesNewRomanPSMT-6d" d="M 1050 2338 
Q 1363 2650 1419 2697 
Q 1559 2816 1721 2881 
Q 1884 2947 2044 2947 
Q 2313 2947 2506 2790 
Q 2700 2634 2766 2338 
Q 3088 2713 3309 2830 
Q 3531 2947 3766 2947 
Q 3994 2947 4170 2830 
Q 4347 2713 4450 2447 
Q 4519 2266 4519 1878 
L 4519 647 
Q 4519 378 4559 278 
Q 4591 209 4675 161 
Q 4759 113 4950 113 
L 4950 0 
L 3538 0 
L 3538 113 
L 3597 113 
Q 3781 113 3884 184 
Q 3956 234 3988 344 
Q 4000 397 4000 647 
L 4000 1878 
Q 4000 2228 3916 2372 
Q 3794 2572 3525 2572 
Q 3359 2572 3192 2489 
Q 3025 2406 2788 2181 
L 2781 2147 
L 2788 2013 
L 2788 647 
Q 2788 353 2820 281 
Q 2853 209 2943 161 
Q 3034 113 3253 113 
L 3253 0 
L 1806 0 
L 1806 113 
Q 2044 113 2133 169 
Q 2222 225 2256 338 
Q 2272 391 2272 647 
L 2272 1878 
Q 2272 2228 2169 2381 
Q 2031 2581 1784 2581 
Q 1616 2581 1450 2491 
Q 1191 2353 1050 2181 
L 1050 647 
Q 1050 366 1089 281 
Q 1128 197 1204 155 
Q 1281 113 1516 113 
L 1516 0 
L 100 0 
L 100 113 
Q 297 113 375 155 
Q 453 197 493 289 
Q 534 381 534 647 
L 534 1741 
Q 534 2213 506 2350 
Q 484 2453 437 2492 
Q 391 2531 309 2531 
Q 222 2531 100 2484 
L 53 2597 
L 916 2947 
L 1050 2947 
L 1050 2338 
z
" transform="scale(0.015625)"/>
       <path id="TimesNewRomanPSMT-65" d="M 681 1784 
Q 678 1147 991 784 
Q 1303 422 1725 422 
Q 2006 422 2214 576 
Q 2422 731 2563 1106 
L 2659 1044 
Q 2594 616 2278 264 
Q 1963 -88 1488 -88 
Q 972 -88 605 314 
Q 238 716 238 1394 
Q 238 2128 614 2539 
Q 991 2950 1559 2950 
Q 2041 2950 2350 2633 
Q 2659 2316 2659 1784 
L 681 1784 
z
M 681 1966 
L 2006 1966 
Q 1991 2241 1941 2353 
Q 1863 2528 1708 2628 
Q 1553 2728 1384 2728 
Q 1125 2728 920 2526 
Q 716 2325 681 1966 
z
" transform="scale(0.015625)"/>
      </defs>
      <use xlink:href="#TimesNewRomanPSMT-74"/>
      <use xlink:href="#TimesNewRomanPSMT-69" transform="translate(27.783203 0)"/>
      <use xlink:href="#TimesNewRomanPSMT-6d" transform="translate(55.566406 0)"/>
      <use xlink:href="#TimesNewRomanPSMT-65" transform="translate(133.349609 0)"/>
     </g>
    </g>
   </g>
   <g id="matplotlib.axis_2">
    <g id="ytick_1">
     <g id="line2d_6">
      <defs>
       <path id="m1ce2fcb7d9" d="M 0 0 
L 3.5 0 
" style="stroke: #000000; stroke-width: 0.8"/>
      </defs>
      <g>
       <use xlink:href="#m1ce2fcb7d9" x="35.197031" y="154.4148" style="stroke: #000000; stroke-width: 0.8"/>
      </g>
     </g>
     <g id="text_7">
      <!-- −4 -->
      <g transform="translate(22.121875 157.539488) scale(0.09 -0.09)">
       <defs>
        <path id="TimesNewRomanPSMT-2212" d="M 3484 2000 
L 116 2000 
L 116 2256 
L 3484 2256 
L 3484 2000 
z
" transform="scale(0.015625)"/>
       </defs>
       <use xlink:href="#TimesNewRomanPSMT-2212"/>
       <use xlink:href="#TimesNewRomanPSMT-34" transform="translate(56.396484 0)"/>
      </g>
     </g>
    </g>
    <g id="ytick_2">
     <g id="line2d_7">
      <g>
       <use xlink:href="#m1ce2fcb7d9" x="35.197031" y="121.7004" style="stroke: #000000; stroke-width: 0.8"/>
      </g>
     </g>
     <g id="text_8">
      <!-- −2 -->
      <g transform="translate(22.121875 124.825088) scale(0.09 -0.09)">
       <use xlink:href="#TimesNewRomanPSMT-2212"/>
       <use xlink:href="#TimesNewRomanPSMT-32" transform="translate(56.396484 0)"/>
      </g>
     </g>
    </g>
    <g id="ytick_3">
     <g id="line2d_8">
      <g>
       <use xlink:href="#m1ce2fcb7d9" x="35.197031" y="88.986" style="stroke: #000000; stroke-width: 0.8"/>
      </g>
     </g>
     <g id="text_9">
      <!-- 0 -->
      <g transform="translate(27.197031 92.110688) scale(0.09 -0.09)">
       <use xlink:href="#TimesNewRomanPSMT-30"/>
      </g>
     </g>
    </g>
    <g id="ytick_4">
     <g id="line2d_9">
      <g>
       <use xlink:href="#m1ce2fcb7d9" x="35.197031" y="56.2716" style="stroke: #000000; stroke-width: 0.8"/>
      </g>
     </g>
     <g id="text_10">
      <!-- 2 -->
      <g transform="translate(27.197031 59.396288) scale(0.09 -0.09)">
       <use xlink:href="#TimesNewRomanPSMT-32"/>
      </g>
     </g>
    </g>
    <g id="ytick_5">
     <g id="line2d_10">
      <g>
       <use xlink:href="#m1ce2fcb7d9" x="35.197031" y="23.5572" style="stroke: #000000; stroke-width: 0.8"/>
      </g>
     </g>
     <g id="text_11">
      <!-- 4 -->
      <g transform="translate(27.197031 26.681888) scale(0.09 -0.09)">
       <use xlink:href="#TimesNewRomanPSMT-34"/>
      </g>
     </g>
    </g>
    <g id="text_12">
     <!-- Activity -->
     <g transform="translate(15.5325 108.650063) rotate(-90) scale(0.12 -0.12)">
      <defs>
       <path id="TimesNewRomanPSMT-41" d="M 2928 1419 
L 1288 1419 
L 1000 750 
Q 894 503 894 381 
Q 894 284 986 211 
Q 1078 138 1384 116 
L 1384 0 
L 50 0 
L 50 116 
Q 316 163 394 238 
Q 553 388 747 847 
L 2238 4334 
L 2347 4334 
L 3822 809 
Q 4000 384 4145 257 
Q 4291 131 4550 116 
L 4550 0 
L 2878 0 
L 2878 116 
Q 3131 128 3220 200 
Q 3309 272 3309 375 
Q 3309 513 3184 809 
L 2928 1419 
z
M 2841 1650 
L 2122 3363 
L 1384 1650 
L 2841 1650 
z
" transform="scale(0.015625)"/>
       <path id="TimesNewRomanPSMT-63" d="M 2631 1088 
Q 2516 522 2178 217 
Q 1841 -88 1431 -88 
Q 944 -88 581 321 
Q 219 731 219 1428 
Q 219 2103 620 2525 
Q 1022 2947 1584 2947 
Q 2006 2947 2278 2723 
Q 2550 2500 2550 2259 
Q 2550 2141 2473 2067 
Q 2397 1994 2259 1994 
Q 2075 1994 1981 2113 
Q 1928 2178 1911 2362 
Q 1894 2547 1784 2644 
Q 1675 2738 1481 2738 
Q 1169 2738 978 2506 
Q 725 2200 725 1697 
Q 725 1184 976 792 
Q 1228 400 1656 400 
Q 1963 400 2206 609 
Q 2378 753 2541 1131 
L 2631 1088 
z
" transform="scale(0.015625)"/>
       <path id="TimesNewRomanPSMT-76" d="M 53 2863 
L 1400 2863 
L 1400 2747 
L 1313 2747 
Q 1191 2747 1127 2687 
Q 1063 2628 1063 2528 
Q 1063 2419 1128 2269 
L 1794 688 
L 2463 2328 
Q 2534 2503 2534 2594 
Q 2534 2638 2509 2666 
Q 2475 2713 2422 2730 
Q 2369 2747 2206 2747 
L 2206 2863 
L 3141 2863 
L 3141 2747 
Q 2978 2734 2916 2681 
Q 2806 2588 2719 2369 
L 1703 -88 
L 1575 -88 
L 553 2328 
Q 484 2497 421 2570 
Q 359 2644 263 2694 
Q 209 2722 53 2747 
L 53 2863 
z
" transform="scale(0.015625)"/>
       <path id="TimesNewRomanPSMT-79" d="M 38 2863 
L 1372 2863 
L 1372 2747 
L 1306 2747 
Q 1166 2747 1095 2686 
Q 1025 2625 1025 2534 
Q 1025 2413 1128 2197 
L 1825 753 
L 2466 2334 
Q 2519 2463 2519 2588 
Q 2519 2644 2497 2672 
Q 2472 2706 2419 2726 
Q 2366 2747 2231 2747 
L 2231 2863 
L 3163 2863 
L 3163 2747 
Q 3047 2734 2984 2696 
Q 2922 2659 2847 2556 
Q 2819 2513 2741 2316 
L 1575 -541 
Q 1406 -956 1132 -1168 
Q 859 -1381 606 -1381 
Q 422 -1381 303 -1275 
Q 184 -1169 184 -1031 
Q 184 -900 270 -820 
Q 356 -741 506 -741 
Q 609 -741 788 -809 
Q 913 -856 944 -856 
Q 1038 -856 1148 -759 
Q 1259 -663 1372 -384 
L 1575 113 
L 547 2272 
Q 500 2369 397 2513 
Q 319 2622 269 2659 
Q 197 2709 38 2747 
L 38 2863 
z
" transform="scale(0.015625)"/>
      </defs>
      <use xlink:href="#TimesNewRomanPSMT-41"/>
      <use xlink:href="#TimesNewRomanPSMT-63" transform="translate(72.216797 0)"/>
      <use xlink:href="#TimesNewRomanPSMT-74" transform="translate(116.601562 0)"/>
      <use xlink:href="#TimesNewRomanPSMT-69" transform="translate(144.384766 0)"/>
      <use xlink:href="#TimesNewRomanPSMT-76" transform="translate(172.167969 0)"/>
      <use xlink:href="#TimesNewRomanPSMT-69" transform="translate(222.167969 0)"/>
      <use xlink:href="#TimesNewRomanPSMT-74" transform="translate(249.951172 0)"/>
      <use xlink:href="#TimesNewRomanPSMT-79" transform="translate(277.734375 0)"/>
     </g>
    </g>
   </g>
   <g id="line2d_11">
    <path d="M 42.56994 74.847267 
L 44.233003 64.468961 
L 45.526495 57.705775 
L 46.635203 53.09747 
L 47.559127 50.222792 
L 48.298266 48.607655 
L 48.85262 47.813178 
L 49.406974 47.384154 
L 49.776543 47.303183 
L 50.146113 47.386714 
L 50.700467 47.819557 
L 51.254821 48.617795 
L 51.993959 50.237802 
L 52.733098 52.46889 
L 53.657022 56.062608 
L 54.76573 61.435951 
L 56.059223 68.923015 
L 57.90707 81.195445 
L 62.157117 110.221828 
L 63.635395 118.474619 
L 64.744103 123.472508 
L 65.668026 126.710421 
L 66.407165 128.635015 
L 67.146304 129.93432 
L 67.700658 130.485746 
L 68.255012 130.668817 
L 68.624581 130.585286 
L 69.178936 130.152443 
L 69.73329 129.354205 
L 70.472428 127.734198 
L 71.211567 125.50311 
L 72.135491 121.909392 
L 73.244199 116.536049 
L 74.537692 109.048985 
L 76.385538 96.776555 
L 80.635586 67.750172 
L 82.113864 59.497381 
L 83.222572 54.499492 
L 84.146495 51.261579 
L 84.885634 49.336985 
L 85.624773 48.03768 
L 86.179127 47.486254 
L 86.733481 47.303183 
L 87.10305 47.386714 
L 87.657404 47.819557 
L 88.211759 48.617795 
L 88.950897 50.237802 
L 89.690036 52.46889 
L 90.613959 56.062608 
L 91.722668 61.435951 
L 93.01616 68.923015 
L 94.864007 81.195445 
L 99.114055 110.221828 
L 100.592333 118.474619 
L 101.701041 123.472508 
L 102.624964 126.710421 
L 103.364103 128.635015 
L 104.103242 129.93432 
L 104.657596 130.485746 
L 105.21195 130.668817 
L 105.581519 130.585286 
L 106.135873 130.152443 
L 106.690227 129.354205 
L 107.429366 127.734198 
L 108.168505 125.50311 
L 109.092428 121.909392 
L 110.201137 116.536049 
L 111.494629 109.048985 
L 113.342476 96.776555 
L 117.592524 67.750172 
L 119.070802 59.497381 
L 120.17951 54.499492 
L 121.103433 51.261579 
L 121.842572 49.336985 
L 122.581711 48.03768 
L 123.136065 47.486254 
L 123.690419 47.303183 
L 124.059988 47.386714 
L 124.614342 47.819557 
L 125.168696 48.617795 
L 125.907835 50.237802 
L 126.646974 52.46889 
L 127.570897 56.062608 
L 128.679605 61.435951 
L 129.973098 68.923015 
L 131.820945 81.195445 
L 136.070993 110.221828 
L 137.54927 118.474619 
L 138.657979 123.472508 
L 139.581902 126.710421 
L 140.321041 128.635015 
L 141.06018 129.93432 
L 141.614534 130.485746 
L 142.168888 130.668817 
L 142.538457 130.585286 
L 143.092811 130.152443 
L 143.647165 129.354205 
L 144.386304 127.734198 
L 145.125443 125.50311 
L 146.049366 121.909392 
L 147.158074 116.536049 
L 148.451567 109.048985 
L 150.299414 96.776555 
L 154.549462 67.750172 
L 156.027739 59.497381 
L 157.136448 54.499492 
L 158.060371 51.261579 
L 158.79951 49.336985 
L 159.538648 48.03768 
L 160.093003 47.486254 
L 160.647357 47.303183 
L 161.016926 47.386714 
L 161.57128 47.819557 
L 162.125634 48.617795 
L 162.864773 50.237802 
L 163.603912 52.46889 
L 164.527835 56.062608 
L 165.636543 61.435951 
L 166.930036 68.923015 
L 168.777883 81.195445 
L 173.027931 110.221828 
L 174.506208 118.474619 
L 175.614916 123.472508 
L 176.53884 126.710421 
L 177.277979 128.635015 
L 178.017117 129.93432 
L 178.571471 130.485746 
L 179.125826 130.668817 
L 179.495395 130.585286 
L 180.049749 130.152443 
L 180.604103 129.354205 
L 181.343242 127.734198 
L 182.082381 125.50311 
L 183.006304 121.909392 
L 184.115012 116.536049 
L 185.408505 109.048985 
L 187.256352 96.776555 
L 190.028122 77.337287 
L 190.028122 77.337287 
" clip-path="url(#p6aebf33ce5)" style="fill: none; stroke: #ff0000; stroke-width: 2; stroke-linecap: square"/>
   </g>
   <g id="line2d_12">
    <path d="M 42.56994 70.271065 
L 42.754725 68.276791 
L 42.93951 64.519506 
L 43.124294 65.003942 
L 43.309079 60.804508 
L 43.493864 64.389479 
L 44.048218 65.895493 
L 44.233003 64.92821 
L 45.341711 68.07935 
L 45.71128 57.873217 
L 45.896065 57.159449 
L 46.080849 55.044884 
L 46.450419 56.375646 
L 46.819988 55.616488 
L 47.743912 58.791812 
L 47.928696 58.564699 
L 48.298266 50.377661 
L 48.48305 50.679464 
L 48.667835 51.747055 
L 48.85262 48.144832 
L 49.037404 48.953487 
L 49.222189 46.76362 
L 49.406974 48.941859 
L 49.591759 48.404932 
L 49.776543 48.266071 
L 49.961328 51.289886 
L 50.146113 52.036269 
L 50.330897 52.239845 
L 50.515682 52.174363 
L 51.070036 54.317965 
L 51.254821 54.590232 
L 51.439605 52.526538 
L 51.62439 53.248435 
L 51.809175 52.222443 
L 52.363529 55.026327 
L 52.548314 55.443438 
L 52.733098 51.009302 
L 52.917883 49.73934 
L 53.102668 51.385149 
L 53.287452 56.92815 
L 53.472237 55.329088 
L 53.657022 55.180705 
L 53.841806 55.850049 
L 54.39616 62.032834 
L 55.320084 64.426259 
L 55.504869 64.490646 
L 55.689653 67.536238 
L 55.874438 67.537797 
L 56.059223 67.962471 
L 56.244007 67.025135 
L 56.613577 71.956198 
L 56.798361 79.558794 
L 56.983146 79.745453 
L 57.167931 81.471093 
L 57.352715 81.619888 
L 57.5375 81.292599 
L 57.722285 81.760443 
L 57.90707 80.045679 
L 58.091854 80.078255 
L 58.276639 88.462097 
L 58.461424 88.333524 
L 58.646208 83.672165 
L 58.830993 84.103093 
L 59.015778 88.707423 
L 59.200562 89.572035 
L 59.385347 92.121015 
L 59.570132 92.058942 
L 59.754916 92.601989 
L 60.124486 92.460213 
L 60.30927 94.893952 
L 60.67884 102.593047 
L 60.863625 102.323627 
L 61.048409 104.740056 
L 61.233194 103.63507 
L 61.417979 104.887696 
L 61.787548 104.389916 
L 62.157117 117.564623 
L 62.341902 115.254804 
L 62.526687 117.761777 
L 62.711471 117.192017 
L 62.896256 118.545002 
L 63.265826 116.880429 
L 63.635395 116.114601 
L 63.82018 116.818254 
L 64.004964 117.042871 
L 64.189749 116.487345 
L 64.559318 120.004382 
L 64.744103 124.061474 
L 64.928888 123.366979 
L 65.113672 120.428627 
L 65.298457 129.004499 
L 65.483242 130.641785 
L 65.668026 130.71842 
L 65.852811 132.119118 
L 66.037596 131.34029 
L 66.222381 133.528652 
L 66.59195 130.039312 
L 66.776735 129.226457 
L 66.961519 129.033586 
L 67.146304 128.240644 
L 67.331089 129.918416 
L 67.515873 128.666681 
L 67.700658 130.673735 
L 67.885443 129.962362 
L 68.070227 128.233191 
L 68.255012 131.689202 
L 68.439797 131.396991 
L 68.624581 130.557253 
L 68.809366 130.560976 
L 68.994151 126.597379 
L 69.178936 131.585664 
L 69.548505 129.915418 
L 69.73329 127.497903 
L 70.657213 124.130566 
L 70.841998 123.434704 
L 71.026782 116.990967 
L 71.211567 119.536071 
L 71.581137 117.816164 
L 72.135491 116.364887 
L 72.320275 120.3826 
L 72.689845 119.151603 
L 72.874629 114.889356 
L 73.059414 114.37647 
L 73.244199 113.432466 
L 73.613768 113.059249 
L 73.798553 112.055831 
L 74.352907 110.784098 
L 74.537692 112.153107 
L 74.722476 106.013928 
L 74.907261 104.023105 
L 75.092046 100.647122 
L 75.27683 101.885068 
L 75.6464 101.23488 
L 75.831184 97.327384 
L 76.200754 96.813998 
L 76.385538 96.659004 
L 76.570323 91.717921 
L 76.939892 92.195289 
L 77.124677 90.778143 
L 77.309462 90.742659 
L 77.679031 83.858248 
L 77.863816 83.959777 
L 78.233385 83.309613 
L 78.787739 83.647728 
L 78.972524 77.343727 
L 79.157309 77.806391 
L 79.342093 74.858138 
L 79.526878 75.13787 
L 79.711663 75.736611 
L 79.896448 69.84728 
L 80.081232 68.597318 
L 80.266017 68.700077 
L 80.450802 69.417253 
L 80.635586 64.266994 
L 80.820371 64.75643 
L 81.005156 64.822016 
L 81.18994 63.566867 
L 81.374725 64.866963 
L 81.55951 64.967931 
L 82.113864 66.366542 
L 82.298648 62.140129 
L 82.483433 61.562266 
L 82.668218 61.368102 
L 82.853003 61.914936 
L 83.222572 60.404648 
L 83.407357 58.932218 
L 83.961711 51.098432 
L 84.146495 46.44115 
L 84.33128 45.953737 
L 84.516065 46.27928 
L 84.700849 42.326805 
L 85.624773 46.741271 
L 85.809558 45.256644 
L 85.994342 46.122485 
L 86.179127 45.574421 
L 86.363912 47.663428 
L 86.733481 47.604439 
L 86.918266 48.948349 
L 87.287835 40.469004 
L 88.396543 46.300512 
L 88.581328 44.400954 
L 88.766113 44.005343 
L 88.950897 44.89596 
L 89.135682 44.647488 
L 89.320467 45.722565 
L 89.505251 44.402971 
L 89.874821 46.580167 
L 90.059605 51.551155 
L 90.24439 51.539584 
L 90.613959 53.004176 
L 90.798744 54.281471 
L 90.983529 54.545475 
L 91.168314 57.823623 
L 91.353098 58.440638 
L 91.537883 61.262997 
L 92.092237 62.949015 
L 92.277022 60.621223 
L 92.831376 67.672017 
L 93.200945 68.507695 
L 93.570515 76.349327 
L 93.755299 77.396331 
L 94.124869 75.418408 
L 94.494438 76.284222 
L 94.679223 84.252574 
L 94.864007 85.661379 
L 95.048792 88.323432 
L 95.233577 88.336551 
L 95.603146 86.311428 
L 95.972715 91.085874 
L 96.1575 91.044296 
L 96.342285 95.802047 
L 96.52707 95.225817 
L 96.711854 100.955419 
L 96.896639 99.855586 
L 97.081424 99.955882 
L 97.266208 99.738679 
L 97.450993 98.976911 
L 97.635778 101.825561 
L 97.820562 101.697923 
L 98.190132 109.119695 
L 98.559701 108.579635 
L 98.744486 110.37836 
L 98.92927 114.732935 
L 99.114055 112.455383 
L 99.29884 112.808342 
L 99.483625 121.006196 
L 99.853194 119.384063 
L 100.222763 125.872184 
L 100.407548 126.553102 
L 100.777117 125.080173 
L 100.961902 123.461502 
L 101.146687 128.525024 
L 101.701041 126.468818 
L 101.885826 126.828706 
L 102.07061 130.709735 
L 102.255395 129.020766 
L 102.44018 132.770698 
L 102.809749 130.853434 
L 102.994534 133.481149 
L 103.179318 133.83819 
L 103.548888 132.324031 
L 103.733672 128.873158 
L 103.918457 128.398907 
L 104.103242 128.85933 
L 104.288026 127.165831 
L 104.472811 129.436847 
L 104.657596 128.635921 
L 104.842381 133.152974 
L 105.396735 131.008488 
L 105.581519 130.40859 
L 105.951089 137.909171 
L 106.320658 135.856513 
L 106.875012 133.127166 
L 107.059797 134.85058 
L 107.429366 130.864484 
L 107.614151 126.444908 
L 107.798936 125.403658 
L 107.98372 123.404193 
L 108.168505 122.722713 
L 108.35329 121.52823 
L 108.538074 122.563211 
L 108.722859 121.948844 
L 108.907644 124.872965 
L 109.092428 121.316301 
L 109.277213 121.944036 
L 109.461998 121.291467 
L 109.831567 129.53245 
L 110.016352 128.968136 
L 110.385921 126.994558 
L 110.940275 124.745252 
L 111.12506 118.237721 
L 111.864199 116.135385 
L 112.048983 115.869307 
L 112.603337 114.224333 
L 112.788122 110.947921 
L 113.157692 101.555542 
L 113.342476 101.306665 
L 113.527261 99.795983 
L 113.712046 99.831286 
L 114.081615 99.406065 
L 114.2664 95.220056 
L 114.635969 95.050839 
L 115.005538 86.676973 
L 115.559892 86.811432 
L 115.744677 86.419552 
L 115.929462 86.52083 
L 116.114247 84.057057 
L 116.299031 84.15465 
L 116.483816 79.576032 
L 116.853385 79.944978 
L 117.03817 76.673399 
L 117.222955 77.188669 
L 117.407739 76.485458 
L 117.592524 76.732969 
L 117.962093 68.330845 
L 118.146878 67.699781 
L 118.331663 60.531222 
L 118.516448 61.338818 
L 118.701232 61.577054 
L 119.255586 62.94837 
L 119.440371 63.049754 
L 119.625156 61.580897 
L 119.80994 61.16379 
L 119.994725 59.979248 
L 120.17951 60.553582 
L 120.364294 57.420595 
L 120.733864 56.88338 
L 120.918648 52.844733 
L 121.288218 54.261759 
L 121.473003 49.85102 
L 121.657787 49.763054 
L 122.027357 46.758707 
L 122.766495 49.277349 
L 123.136065 51.301183 
L 123.320849 51.254287 
L 123.690419 52.918834 
L 123.875203 50.901661 
L 124.059988 50.923038 
L 124.244773 51.229757 
L 124.429558 53.753619 
L 124.614342 52.710007 
L 124.799127 53.428271 
L 124.983912 52.865582 
L 125.168696 52.717927 
L 125.353481 52.751606 
L 125.538266 38.674952 
L 126.09262 41.604647 
L 126.277404 41.749742 
L 126.462189 42.270859 
L 126.831759 44.958072 
L 127.016543 50.628329 
L 127.201328 51.663025 
L 127.386113 54.029343 
L 127.570897 54.412307 
L 127.940467 55.767871 
L 128.125251 61.668698 
L 128.310036 59.429419 
L 128.494821 59.488144 
L 128.679605 60.262688 
L 129.049175 58.564113 
L 129.233959 58.725194 
L 129.603529 59.911658 
L 129.788314 59.694274 
L 130.157883 60.533565 
L 130.527452 66.235554 
L 130.712237 66.09752 
L 131.081806 74.551224 
L 131.266591 75.516871 
L 131.451376 75.78356 
L 131.63616 81.133969 
L 131.820945 80.289496 
L 132.00573 80.461687 
L 132.190515 85.707838 
L 132.375299 84.797789 
L 132.560084 84.880716 
L 132.744869 85.194148 
L 132.929653 84.47617 
L 133.114438 84.256287 
L 133.299223 85.328502 
L 133.484007 85.40092 
L 133.668792 88.032488 
L 133.853577 88.322848 
L 134.038361 93.134483 
L 134.223146 92.73762 
L 134.407931 94.730102 
L 134.592715 100.66023 
L 134.962285 100.202507 
L 135.14707 99.453924 
L 135.331854 101.174898 
L 135.516639 101.138963 
L 135.886208 111.489953 
L 136.255778 109.857636 
L 136.440562 110.805547 
L 136.625347 110.183082 
L 136.810132 114.278495 
L 136.994916 112.77776 
L 137.179701 113.547482 
L 137.364486 117.196827 
L 137.734055 116.090738 
L 137.91884 119.864538 
L 138.103625 121.265343 
L 138.288409 120.626212 
L 138.473194 120.390079 
L 139.027548 118.25219 
L 139.212333 120.012195 
L 139.397117 127.296224 
L 139.581902 126.999649 
L 139.951471 127.096383 
L 140.321041 125.155225 
L 140.505826 126.999658 
L 140.69061 130.762866 
L 141.06018 129.124881 
L 141.244964 129.053358 
L 141.429749 129.412845 
L 141.799318 127.603039 
L 141.984103 127.764497 
L 142.168888 126.996683 
L 142.538457 124.032723 
L 142.908026 122.658612 
L 143.277596 135.086733 
L 143.462381 135.716616 
L 143.647165 134.699989 
L 143.83195 139.905938 
L 144.016735 139.27763 
L 144.571089 134.253324 
L 144.940658 132.312053 
L 145.125443 130.223675 
L 145.310227 125.742201 
L 145.679797 124.301065 
L 145.864581 124.971966 
L 146.049366 124.259444 
L 146.234151 120.482781 
L 146.418936 122.737208 
L 146.788505 121.61523 
L 147.158074 120.335904 
L 147.342859 117.661955 
L 147.897213 115.900747 
L 148.081998 114.920908 
L 148.266782 118.71787 
L 148.636352 117.07083 
L 148.821137 112.849783 
L 149.005921 116.645055 
L 149.190706 115.761397 
L 149.375491 116.058078 
L 150.299414 113.13032 
L 150.484199 109.349262 
L 150.668983 108.631346 
L 151.038553 105.784814 
L 151.408122 96.105844 
L 151.592907 95.774433 
L 151.777692 95.193095 
L 151.962476 91.313866 
L 152.332046 91.222595 
L 152.51683 85.246667 
L 153.071184 85.464414 
L 153.255969 78.115132 
L 153.625538 78.541357 
L 153.810323 78.438983 
L 153.995108 77.784975 
L 154.549462 78.437229 
L 154.919031 68.67992 
L 155.288601 69.47608 
L 155.65817 69.387127 
L 156.027739 60.06582 
L 156.397309 59.015703 
L 156.766878 60.190778 
L 156.951663 59.706398 
L 157.321232 60.854392 
L 157.506017 60.287218 
L 157.690802 57.969036 
L 158.060371 48.845238 
L 158.245156 48.011116 
L 158.984294 51.125707 
L 159.169079 49.130611 
L 159.353864 49.282382 
L 159.538648 50.068514 
L 159.723433 47.760831 
L 159.908218 49.775166 
L 160.093003 48.714002 
L 160.277787 48.983359 
L 161.016926 52.058708 
L 161.201711 52.106446 
L 161.386495 44.453579 
L 161.57128 45.335321 
L 161.756065 48.266369 
L 161.940849 44.274551 
L 162.310419 46.027595 
L 162.495203 45.878228 
L 162.864773 43.426726 
L 163.603912 46.537608 
L 163.788696 47.378086 
L 163.973481 47.673894 
L 164.34305 48.846778 
L 164.527835 53.497673 
L 164.71262 51.110078 
L 165.082189 52.79229 
L 165.266974 54.951789 
L 165.451759 55.625667 
L 165.636543 55.759032 
L 165.821328 55.554086 
L 166.006113 56.216038 
L 166.190897 56.294078 
L 166.375682 56.941378 
L 166.560467 60.172088 
L 166.745251 59.475871 
L 166.930036 59.532142 
L 167.48439 61.247289 
L 167.669175 65.767734 
L 167.853959 65.227512 
L 168.223529 72.929292 
L 168.593098 76.348709 
L 168.777883 78.816489 
L 168.962668 78.570918 
L 169.886591 79.56198 
L 170.071376 89.326241 
L 170.25616 88.249946 
L 170.440945 85.772772 
L 170.62573 85.265588 
L 170.810515 87.675084 
L 170.995299 88.069848 
L 171.364869 94.304256 
L 171.549653 94.198955 
L 171.734438 93.781015 
L 171.919223 95.110579 
L 172.104007 101.557038 
L 172.288792 102.289233 
L 172.473577 104.427603 
L 172.658361 104.121859 
L 172.843146 105.622781 
L 173.027931 110.671356 
L 173.212715 111.06882 
L 173.3975 110.63158 
L 173.582285 111.882315 
L 173.76707 111.428968 
L 173.951854 113.122153 
L 174.136639 110.377581 
L 174.506208 114.066838 
L 174.875778 113.083469 
L 175.060562 113.847138 
L 175.245347 113.164449 
L 175.614916 121.240093 
L 175.799701 120.601462 
L 176.16927 129.301621 
L 176.354055 128.503372 
L 176.723625 126.059934 
L 177.277979 124.102396 
L 177.647548 129.260917 
L 177.832333 127.196741 
L 178.017117 130.750642 
L 178.201902 131.032214 
L 178.571471 129.383668 
L 178.756256 131.420333 
L 179.125826 129.756569 
L 179.31061 134.251434 
L 179.68018 132.476668 
L 179.864964 133.540688 
L 180.419318 130.496607 
L 180.604103 126.009729 
L 180.973672 123.903037 
L 181.158457 125.128437 
L 181.343242 124.792724 
L 181.528026 125.935549 
L 181.712811 132.934102 
L 181.897596 129.262658 
L 182.082381 133.570031 
L 182.636735 130.783392 
L 182.821519 131.285297 
L 183.191089 129.626828 
L 183.375873 125.74389 
L 183.560658 130.318206 
L 183.930227 129.066463 
L 184.115012 125.292238 
L 184.299797 129.279668 
L 184.669366 126.891211 
L 185.038936 125.405025 
L 185.22372 124.01563 
L 185.408505 124.148877 
L 185.778074 122.412046 
L 185.962859 122.991009 
L 186.147644 122.31771 
L 186.332428 122.088611 
L 186.886782 119.97802 
L 187.256352 113.790412 
L 187.810706 104.594028 
L 188.36506 103.685147 
L 188.549845 97.029092 
L 188.919414 96.713739 
L 189.104199 97.175826 
L 189.288983 96.442862 
L 189.658553 96.150493 
L 189.843337 96.867733 
L 190.028122 96.711675 
L 190.028122 96.711675 
" clip-path="url(#p6aebf33ce5)" style="fill: none; stroke: #000000; stroke-linecap: square"/>
   </g>
   <g id="line2d_13">
    <path d="M 42.56994 88.974744 
L 45.71128 88.977988 
L 45.896065 85.706707 
L 48.48305 86.507517 
L 49.776543 86.83129 
L 49.961328 83.602513 
L 51.993959 84.665586 
L 53.657022 85.377243 
L 53.841806 82.177256 
L 55.689653 83.411397 
L 57.722285 84.51221 
L 58.461424 84.856149 
L 58.646208 81.66648 
L 60.494055 82.993202 
L 62.526687 84.176596 
L 64.744103 85.202727 
L 67.146304 86.06885 
L 69.918074 86.824878 
L 73.059414 87.447742 
L 76.939892 87.975264 
L 81.744294 88.385076 
L 81.929079 88.396974 
L 82.113864 85.137197 
L 84.516065 86.018322 
L 85.809558 86.406 
L 85.994342 83.185644 
L 88.026974 84.331036 
L 89.505251 85.019258 
L 89.690036 81.82636 
L 91.537883 83.124103 
L 93.570515 84.281648 
L 94.309653 84.643312 
L 94.494438 81.457857 
L 96.342285 82.822394 
L 98.374916 84.039517 
L 100.592333 85.094895 
L 102.994534 85.985705 
L 105.766304 86.763282 
L 108.907644 87.403899 
L 112.603337 87.925457 
L 117.222955 88.342726 
L 119.80994 88.499815 
L 119.994725 85.238002 
L 122.396926 86.096049 
L 123.875203 86.52332 
L 124.059988 83.300641 
L 126.09262 84.423324 
L 127.201328 84.939237 
L 127.386113 81.747923 
L 129.233959 83.059883 
L 131.266591 84.230109 
L 131.451376 81.052836 
L 133.299223 82.490787 
L 135.331854 83.773392 
L 137.54927 84.88555 
L 139.951471 85.824286 
L 142.538457 86.596383 
L 145.495012 87.250744 
L 149.005921 87.799295 
L 153.440754 88.251663 
L 157.136448 88.493746 
L 157.321232 85.232052 
L 159.723433 86.091462 
L 161.386495 86.568249 
L 161.57128 83.34468 
L 163.603912 84.458668 
L 164.71262 84.970584 
L 164.897404 81.778649 
L 166.745251 83.08504 
L 168.777883 84.250298 
L 169.701806 84.700931 
L 169.886591 81.514335 
L 171.734438 82.868636 
L 173.76707 84.076627 
L 175.984486 85.124088 
L 178.386687 86.008214 
L 181.158457 86.779957 
L 184.299797 87.415768 
L 187.995491 87.933414 
L 190.028122 88.141267 
L 190.028122 88.141267 
" clip-path="url(#p6aebf33ce5)" style="fill: none; stroke: #0000ff; stroke-linecap: square"/>
   </g>
   <g id="patch_3">
    <path d="M 35.197031 170.772 
L 35.197031 7.2 
" style="fill: none; stroke: #000000; stroke-width: 0.8; stroke-linejoin: miter; stroke-linecap: square"/>
   </g>
   <g id="patch_4">
    <path d="M 197.401031 170.772 
L 197.401031 7.2 
" style="fill: none; stroke: #000000; stroke-width: 0.8; stroke-linejoin: miter; stroke-linecap: square"/>
   </g>
   <g id="patch_5">
    <path d="M 35.197031 170.772 
L 197.401031 170.772 
" style="fill: none; stroke: #000000; stroke-width: 0.8; stroke-linejoin: miter; stroke-linecap: square"/>
   </g>
   <g id="patch_6">
    <path d="M 35.197031 7.2 
L 197.401031 7.2 
" style="fill: none; stroke: #000000; stroke-width: 0.8; stroke-linejoin: miter; stroke-linecap: square"/>
   </g>
   <g id="legend_1">
    <g id="line2d_14">
     <path d="M 94.876531 17.2 
L 102.876531 17.2 
L 110.876531 17.2 
" style="fill: none; stroke: #ff0000; stroke-width: 2; stroke-linecap: square"/>
    </g>
    <g id="text_13">
     <!-- target -->
     <g transform="translate(117.276531 20) scale(0.08 -0.08)">
      <defs>
       <path id="TimesNewRomanPSMT-61" d="M 1822 413 
Q 1381 72 1269 19 
Q 1100 -59 909 -59 
Q 613 -59 420 144 
Q 228 347 228 678 
Q 228 888 322 1041 
Q 450 1253 767 1440 
Q 1084 1628 1822 1897 
L 1822 2009 
Q 1822 2438 1686 2597 
Q 1550 2756 1291 2756 
Q 1094 2756 978 2650 
Q 859 2544 859 2406 
L 866 2225 
Q 866 2081 792 2003 
Q 719 1925 600 1925 
Q 484 1925 411 2006 
Q 338 2088 338 2228 
Q 338 2497 613 2722 
Q 888 2947 1384 2947 
Q 1766 2947 2009 2819 
Q 2194 2722 2281 2516 
Q 2338 2381 2338 1966 
L 2338 994 
Q 2338 584 2353 492 
Q 2369 400 2405 369 
Q 2441 338 2488 338 
Q 2538 338 2575 359 
Q 2641 400 2828 588 
L 2828 413 
Q 2478 -56 2159 -56 
Q 2006 -56 1915 50 
Q 1825 156 1822 413 
z
M 1822 616 
L 1822 1706 
Q 1350 1519 1213 1441 
Q 966 1303 859 1153 
Q 753 1003 753 825 
Q 753 600 887 451 
Q 1022 303 1197 303 
Q 1434 303 1822 616 
z
" transform="scale(0.015625)"/>
       <path id="TimesNewRomanPSMT-72" d="M 1038 2947 
L 1038 2303 
Q 1397 2947 1775 2947 
Q 1947 2947 2059 2842 
Q 2172 2738 2172 2600 
Q 2172 2478 2090 2393 
Q 2009 2309 1897 2309 
Q 1788 2309 1652 2417 
Q 1516 2525 1450 2525 
Q 1394 2525 1328 2463 
Q 1188 2334 1038 2041 
L 1038 669 
Q 1038 431 1097 309 
Q 1138 225 1241 169 
Q 1344 113 1538 113 
L 1538 0 
L 72 0 
L 72 113 
Q 291 113 397 181 
Q 475 231 506 341 
Q 522 394 522 644 
L 522 1753 
Q 522 2253 501 2348 
Q 481 2444 426 2487 
Q 372 2531 291 2531 
Q 194 2531 72 2484 
L 41 2597 
L 906 2947 
L 1038 2947 
z
" transform="scale(0.015625)"/>
       <path id="TimesNewRomanPSMT-67" d="M 966 1044 
Q 703 1172 562 1401 
Q 422 1631 422 1909 
Q 422 2334 742 2640 
Q 1063 2947 1563 2947 
Q 1972 2947 2272 2747 
L 2878 2747 
Q 3013 2747 3034 2739 
Q 3056 2731 3066 2713 
Q 3084 2684 3084 2613 
Q 3084 2531 3069 2500 
Q 3059 2484 3036 2475 
Q 3013 2466 2878 2466 
L 2506 2466 
Q 2681 2241 2681 1891 
Q 2681 1491 2375 1206 
Q 2069 922 1553 922 
Q 1341 922 1119 984 
Q 981 866 932 777 
Q 884 688 884 625 
Q 884 572 936 522 
Q 988 472 1138 450 
Q 1225 438 1575 428 
Q 2219 413 2409 384 
Q 2700 344 2873 169 
Q 3047 -6 3047 -263 
Q 3047 -616 2716 -925 
Q 2228 -1381 1444 -1381 
Q 841 -1381 425 -1109 
Q 191 -953 191 -784 
Q 191 -709 225 -634 
Q 278 -519 444 -313 
Q 466 -284 763 25 
Q 600 122 533 198 
Q 466 275 466 372 
Q 466 481 555 628 
Q 644 775 966 1044 
z
M 1509 2797 
Q 1278 2797 1122 2612 
Q 966 2428 966 2047 
Q 966 1553 1178 1281 
Q 1341 1075 1591 1075 
Q 1828 1075 1981 1253 
Q 2134 1431 2134 1813 
Q 2134 2309 1919 2591 
Q 1759 2797 1509 2797 
z
M 934 0 
Q 788 -159 713 -296 
Q 638 -434 638 -550 
Q 638 -700 819 -813 
Q 1131 -1006 1722 -1006 
Q 2284 -1006 2551 -807 
Q 2819 -609 2819 -384 
Q 2819 -222 2659 -153 
Q 2497 -84 2016 -72 
Q 1313 -53 934 0 
z
" transform="scale(0.015625)"/>
      </defs>
      <use xlink:href="#TimesNewRomanPSMT-74"/>
      <use xlink:href="#TimesNewRomanPSMT-61" transform="translate(27.783203 0)"/>
      <use xlink:href="#TimesNewRomanPSMT-72" transform="translate(72.167969 0)"/>
      <use xlink:href="#TimesNewRomanPSMT-67" transform="translate(103.71875 0)"/>
      <use xlink:href="#TimesNewRomanPSMT-65" transform="translate(153.71875 0)"/>
      <use xlink:href="#TimesNewRomanPSMT-74" transform="translate(198.103516 0)"/>
     </g>
    </g>
    <g id="line2d_15">
     <path d="M 94.876531 28.52625 
L 102.876531 28.52625 
L 110.876531 28.52625 
" style="fill: none; stroke: #000000; stroke-linecap: square"/>
    </g>
    <g id="text_14">
     <!-- input -->
     <g transform="translate(117.276531 31.32625) scale(0.08 -0.08)">
      <defs>
       <path id="TimesNewRomanPSMT-6e" d="M 1034 2341 
Q 1538 2947 1994 2947 
Q 2228 2947 2397 2830 
Q 2566 2713 2666 2444 
Q 2734 2256 2734 1869 
L 2734 647 
Q 2734 375 2778 278 
Q 2813 200 2889 156 
Q 2966 113 3172 113 
L 3172 0 
L 1756 0 
L 1756 113 
L 1816 113 
Q 2016 113 2095 173 
Q 2175 234 2206 353 
Q 2219 400 2219 647 
L 2219 1819 
Q 2219 2209 2117 2386 
Q 2016 2563 1775 2563 
Q 1403 2563 1034 2156 
L 1034 647 
Q 1034 356 1069 288 
Q 1113 197 1189 155 
Q 1266 113 1500 113 
L 1500 0 
L 84 0 
L 84 113 
L 147 113 
Q 366 113 442 223 
Q 519 334 519 647 
L 519 1709 
Q 519 2225 495 2337 
Q 472 2450 423 2490 
Q 375 2531 294 2531 
Q 206 2531 84 2484 
L 38 2597 
L 900 2947 
L 1034 2947 
L 1034 2341 
z
" transform="scale(0.015625)"/>
       <path id="TimesNewRomanPSMT-70" d="M -6 2578 
L 875 2934 
L 994 2934 
L 994 2266 
Q 1216 2644 1439 2795 
Q 1663 2947 1909 2947 
Q 2341 2947 2628 2609 
Q 2981 2197 2981 1534 
Q 2981 794 2556 309 
Q 2206 -88 1675 -88 
Q 1444 -88 1275 -22 
Q 1150 25 994 166 
L 994 -706 
Q 994 -1000 1030 -1079 
Q 1066 -1159 1155 -1206 
Q 1244 -1253 1478 -1253 
L 1478 -1369 
L -22 -1369 
L -22 -1253 
L 56 -1253 
Q 228 -1256 350 -1188 
Q 409 -1153 442 -1076 
Q 475 -1000 475 -688 
L 475 2019 
Q 475 2297 450 2372 
Q 425 2447 370 2484 
Q 316 2522 222 2522 
Q 147 2522 31 2478 
L -6 2578 
z
M 994 2081 
L 994 1013 
Q 994 666 1022 556 
Q 1066 375 1236 237 
Q 1406 100 1666 100 
Q 1978 100 2172 344 
Q 2425 663 2425 1241 
Q 2425 1897 2138 2250 
Q 1938 2494 1663 2494 
Q 1513 2494 1366 2419 
Q 1253 2363 994 2081 
z
" transform="scale(0.015625)"/>
       <path id="TimesNewRomanPSMT-75" d="M 2709 2863 
L 2709 1128 
Q 2709 631 2732 520 
Q 2756 409 2807 365 
Q 2859 322 2928 322 
Q 3025 322 3147 375 
L 3191 266 
L 2334 -88 
L 2194 -88 
L 2194 519 
Q 1825 119 1631 15 
Q 1438 -88 1222 -88 
Q 981 -88 804 51 
Q 628 191 559 409 
Q 491 628 491 1028 
L 491 2306 
Q 491 2509 447 2587 
Q 403 2666 317 2708 
Q 231 2750 6 2747 
L 6 2863 
L 1009 2863 
L 1009 947 
Q 1009 547 1148 422 
Q 1288 297 1484 297 
Q 1619 297 1789 381 
Q 1959 466 2194 703 
L 2194 2325 
Q 2194 2569 2105 2655 
Q 2016 2741 1734 2747 
L 1734 2863 
L 2709 2863 
z
" transform="scale(0.015625)"/>
      </defs>
      <use xlink:href="#TimesNewRomanPSMT-69"/>
      <use xlink:href="#TimesNewRomanPSMT-6e" transform="translate(27.783203 0)"/>
      <use xlink:href="#TimesNewRomanPSMT-70" transform="translate(77.783203 0)"/>
      <use xlink:href="#TimesNewRomanPSMT-75" transform="translate(127.783203 0)"/>
      <use xlink:href="#TimesNewRomanPSMT-74" transform="translate(177.783203 0)"/>
     </g>
    </g>
    <g id="line2d_16">
     <path d="M 94.876531 39.8375 
L 102.876531 39.8375 
L 110.876531 39.8375 
" style="fill: none; stroke: #0000ff; stroke-linecap: square"/>
    </g>
    <g id="text_15">
     <!-- output -->
     <g transform="translate(117.276531 42.6375) scale(0.08 -0.08)">
      <defs>
       <path id="TimesNewRomanPSMT-6f" d="M 1600 2947 
Q 2250 2947 2644 2453 
Q 2978 2031 2978 1484 
Q 2978 1100 2793 706 
Q 2609 313 2286 112 
Q 1963 -88 1566 -88 
Q 919 -88 538 428 
Q 216 863 216 1403 
Q 216 1797 411 2186 
Q 606 2575 925 2761 
Q 1244 2947 1600 2947 
z
M 1503 2744 
Q 1338 2744 1170 2645 
Q 1003 2547 900 2300 
Q 797 2053 797 1666 
Q 797 1041 1045 587 
Q 1294 134 1700 134 
Q 2003 134 2200 384 
Q 2397 634 2397 1244 
Q 2397 2006 2069 2444 
Q 1847 2744 1503 2744 
z
" transform="scale(0.015625)"/>
      </defs>
      <use xlink:href="#TimesNewRomanPSMT-6f"/>
      <use xlink:href="#TimesNewRomanPSMT-75" transform="translate(50 0)"/>
      <use xlink:href="#TimesNewRomanPSMT-74" transform="translate(100 0)"/>
      <use xlink:href="#TimesNewRomanPSMT-70" transform="translate(127.783203 0)"/>
      <use xlink:href="#TimesNewRomanPSMT-75" transform="translate(177.783203 0)"/>
      <use xlink:href="#TimesNewRomanPSMT-74" transform="translate(227.783203 0)"/>
     </g>
    </g>
   </g>
  </g>
  <g id="axes_2">
   <g id="patch_7">
    <path d="M 112.409231 92.8074 
L 185.401031 92.8074 
L 185.401031 19.2 
L 112.409231 19.2 
z
" style="fill: #ffffff"/>
   </g>
   <g id="matplotlib.axis_3">
    <g id="xtick_6">
     <g id="line2d_17">
      <g>
       <use xlink:href="#mcb910bd467" x="115.72704" y="92.8074" style="stroke: #000000; stroke-width: 0.8"/>
      </g>
     </g>
     <g id="text_16">
      <!-- 0 -->
      <g transform="translate(113.47704 102.556775) scale(0.09 -0.09)">
       <use xlink:href="#TimesNewRomanPSMT-30"/>
      </g>
     </g>
    </g>
    <g id="xtick_7">
     <g id="line2d_18">
      <g>
       <use xlink:href="#mcb910bd467" x="157.303595" y="92.8074" style="stroke: #000000; stroke-width: 0.8"/>
      </g>
     </g>
     <g id="text_17">
      <!-- 500 -->
      <g transform="translate(150.553595 102.556775) scale(0.09 -0.09)">
       <defs>
        <path id="TimesNewRomanPSMT-35" d="M 2778 4238 
L 2534 3706 
L 1259 3706 
L 981 3138 
Q 1809 3016 2294 2522 
Q 2709 2097 2709 1522 
Q 2709 1188 2573 903 
Q 2438 619 2231 419 
Q 2025 219 1772 97 
Q 1413 -75 1034 -75 
Q 653 -75 479 54 
Q 306 184 306 341 
Q 306 428 378 495 
Q 450 563 559 563 
Q 641 563 702 538 
Q 763 513 909 409 
Q 1144 247 1384 247 
Q 1750 247 2026 523 
Q 2303 800 2303 1197 
Q 2303 1581 2056 1914 
Q 1809 2247 1375 2428 
Q 1034 2569 447 2591 
L 1259 4238 
L 2778 4238 
z
" transform="scale(0.015625)"/>
       </defs>
       <use xlink:href="#TimesNewRomanPSMT-35"/>
       <use xlink:href="#TimesNewRomanPSMT-30" transform="translate(50 0)"/>
       <use xlink:href="#TimesNewRomanPSMT-30" transform="translate(100 0)"/>
      </g>
     </g>
    </g>
   </g>
   <g id="matplotlib.axis_4">
    <g id="ytick_6">
     <g id="line2d_19">
      <g>
       <use xlink:href="#m1ce2fcb7d9" x="112.409231" y="62.497261" style="stroke: #000000; stroke-width: 0.8"/>
      </g>
     </g>
     <g id="text_18">
      <!-- 0.2 -->
      <g transform="translate(97.659231 65.621949) scale(0.09 -0.09)">
       <defs>
        <path id="TimesNewRomanPSMT-2e" d="M 800 606 
Q 947 606 1047 504 
Q 1147 403 1147 259 
Q 1147 116 1045 14 
Q 944 -88 800 -88 
Q 656 -88 554 14 
Q 453 116 453 259 
Q 453 406 554 506 
Q 656 606 800 606 
z
" transform="scale(0.015625)"/>
       </defs>
       <use xlink:href="#TimesNewRomanPSMT-30"/>
       <use xlink:href="#TimesNewRomanPSMT-2e" transform="translate(50 0)"/>
       <use xlink:href="#TimesNewRomanPSMT-32" transform="translate(75 0)"/>
      </g>
     </g>
    </g>
    <g id="ytick_7">
     <g id="line2d_20">
      <g>
       <use xlink:href="#m1ce2fcb7d9" x="112.409231" y="32.112711" style="stroke: #000000; stroke-width: 0.8"/>
      </g>
     </g>
     <g id="text_19">
      <!-- 0.4 -->
      <g transform="translate(97.659231 35.237399) scale(0.09 -0.09)">
       <use xlink:href="#TimesNewRomanPSMT-30"/>
       <use xlink:href="#TimesNewRomanPSMT-2e" transform="translate(50 0)"/>
       <use xlink:href="#TimesNewRomanPSMT-34" transform="translate(75 0)"/>
      </g>
     </g>
    </g>
   </g>
   <g id="line2d_21">
    <path d="M 115.72704 92.77727 
L 117.140643 92.8074 
L 117.223796 62.424323 
L 117.306949 63.027382 
L 118.304787 69.397104 
L 118.970012 72.869247 
L 119.053165 42.880946 
L 119.136318 43.870963 
L 120.134155 54.327886 
L 120.716227 59.364321 
L 120.79938 29.643418 
L 120.882533 30.895538 
L 121.88037 44.12089 
L 122.878208 54.524489 
L 122.961361 24.899414 
L 123.044514 26.245465 
L 124.042351 40.462954 
L 125.040189 51.647008 
L 126.038026 60.444839 
L 127.035863 67.365571 
L 128.033701 72.809699 
L 129.031538 77.092272 
L 130.029375 80.461118 
L 131.027213 83.111189 
L 132.108203 85.348025 
L 133.189193 87.072771 
L 133.438653 87.411041 
L 133.521806 57.134813 
L 133.604959 57.842603 
L 134.602796 65.318546 
L 135.184868 68.919233 
L 135.268021 39.009142 
L 135.351174 40.075821 
L 136.349012 51.342473 
L 136.84793 56.039424 
L 136.931083 26.384353 
L 137.014237 27.701003 
L 138.012074 41.607939 
L 139.009911 52.5477 
L 139.093064 22.961765 
L 139.176217 24.346182 
L 140.174055 38.9689 
L 141.171892 50.471724 
L 142.169729 59.520313 
L 143.167567 66.638301 
L 144.165404 72.2376 
L 145.163241 76.642236 
L 146.161079 80.107101 
L 147.158916 82.832705 
L 148.239906 85.133296 
L 149.320897 86.907201 
L 150.401887 88.274997 
L 150.48504 88.366212 
L 150.568193 58.071071 
L 150.651347 58.760324 
L 151.649184 66.040463 
L 152.314409 70.008875 
L 152.397562 40.077209 
L 152.480715 41.12274 
L 153.478552 52.166023 
L 153.811165 55.296198 
L 153.894318 25.655843 
L 153.977471 26.986917 
L 154.975308 41.04621 
L 155.640533 48.709947 
L 155.723686 19.2 
L 155.806839 20.6589 
L 156.804677 36.068334 
L 157.802514 48.190021 
L 158.800351 57.725433 
L 159.798189 65.226376 
L 160.796026 71.126922 
L 161.793863 75.768531 
L 162.791701 79.41981 
L 163.789538 82.292054 
L 164.787375 84.551478 
L 165.868366 86.458581 
L 166.949356 87.929082 
L 167.281969 88.309842 
L 167.365122 58.015817 
L 167.448275 58.706163 
L 168.446112 65.997858 
L 169.19449 70.426172 
L 169.277643 40.486244 
L 169.360796 41.523676 
L 170.358634 52.481415 
L 170.691246 55.587343 
L 170.774399 25.941224 
L 170.857552 27.266647 
L 171.85539 41.266257 
L 172.853227 52.278919 
L 172.93638 53.082856 
L 173.019533 23.486325 
L 173.102686 24.860356 
L 174.100524 39.37337 
L 175.098361 50.789897 
L 176.096198 59.770601 
L 177.094036 66.835188 
L 178.091873 72.392479 
L 179.08971 76.76407 
L 180.087548 80.202941 
L 181.085385 82.908096 
L 182.083222 85.036082 
L 182.083222 85.036082 
" clip-path="url(#pe282d5eed8)" style="fill: none; stroke: #0000ff; stroke-width: 1.5; stroke-linecap: square"/>
   </g>
   <g id="patch_8">
    <path d="M 112.409231 92.8074 
L 112.409231 19.2 
" style="fill: none; stroke: #000000; stroke-width: 0.8; stroke-linejoin: miter; stroke-linecap: square"/>
   </g>
   <g id="patch_9">
    <path d="M 185.401031 92.8074 
L 185.401031 19.2 
" style="fill: none; stroke: #000000; stroke-width: 0.8; stroke-linejoin: miter; stroke-linecap: square"/>
   </g>
   <g id="patch_10">
    <path d="M 112.409231 92.8074 
L 185.401031 92.8074 
" style="fill: none; stroke: #000000; stroke-width: 0.8; stroke-linejoin: miter; stroke-linecap: square"/>
   </g>
   <g id="patch_11">
    <path d="M 112.409231 19.2 
L 185.401031 19.2 
" style="fill: none; stroke: #000000; stroke-width: 0.8; stroke-linejoin: miter; stroke-linecap: square"/>
   </g>
   <g id="text_20">
    <!-- output (zoom) -->
    <g transform="translate(128.978647 13.2) scale(0.07 -0.07)">
     <defs>
      <path id="TimesNewRomanPSMT-20" transform="scale(0.015625)"/>
      <path id="TimesNewRomanPSMT-28" d="M 1988 -1253 
L 1988 -1369 
Q 1516 -1131 1200 -813 
Q 750 -359 506 256 
Q 263 872 263 1534 
Q 263 2503 741 3301 
Q 1219 4100 1988 4444 
L 1988 4313 
Q 1603 4100 1356 3731 
Q 1109 3363 987 2797 
Q 866 2231 866 1616 
Q 866 947 969 400 
Q 1050 -31 1165 -292 
Q 1281 -553 1476 -793 
Q 1672 -1034 1988 -1253 
z
" transform="scale(0.015625)"/>
      <path id="TimesNewRomanPSMT-7a" d="M 2688 878 
L 2653 0 
L 128 0 
L 128 113 
L 2028 2644 
L 1091 2644 
Q 788 2644 694 2605 
Q 600 2566 541 2456 
Q 456 2300 444 2069 
L 319 2069 
L 338 2863 
L 2738 2863 
L 2738 2747 
L 819 209 
L 1863 209 
Q 2191 209 2308 264 
Q 2425 319 2497 456 
Q 2547 556 2581 878 
L 2688 878 
z
" transform="scale(0.015625)"/>
      <path id="TimesNewRomanPSMT-29" d="M 144 4313 
L 144 4444 
Q 619 4209 934 3891 
Q 1381 3434 1625 2820 
Q 1869 2206 1869 1541 
Q 1869 572 1392 -226 
Q 916 -1025 144 -1369 
L 144 -1253 
Q 528 -1038 776 -670 
Q 1025 -303 1145 264 
Q 1266 831 1266 1447 
Q 1266 2113 1163 2663 
Q 1084 3094 967 3353 
Q 850 3613 656 3853 
Q 463 4094 144 4313 
z
" transform="scale(0.015625)"/>
     </defs>
     <use xlink:href="#TimesNewRomanPSMT-6f"/>
     <use xlink:href="#TimesNewRomanPSMT-75" transform="translate(50 0)"/>
     <use xlink:href="#TimesNewRomanPSMT-74" transform="translate(100 0)"/>
     <use xlink:href="#TimesNewRomanPSMT-70" transform="translate(127.783203 0)"/>
     <use xlink:href="#TimesNewRomanPSMT-75" transform="translate(177.783203 0)"/>
     <use xlink:href="#TimesNewRomanPSMT-74" transform="translate(227.783203 0)"/>
     <use xlink:href="#TimesNewRomanPSMT-20" transform="translate(255.566406 0)"/>
     <use xlink:href="#TimesNewRomanPSMT-28" transform="translate(280.566406 0)"/>
     <use xlink:href="#TimesNewRomanPSMT-7a" transform="translate(313.867188 0)"/>
     <use xlink:href="#TimesNewRomanPSMT-6f" transform="translate(358.251953 0)"/>
     <use xlink:href="#TimesNewRomanPSMT-6f" transform="translate(408.251953 0)"/>
     <use xlink:href="#TimesNewRomanPSMT-6d" transform="translate(458.251953 0)"/>
     <use xlink:href="#TimesNewRomanPSMT-29" transform="translate(536.035156 0)"/>
    </g>
   </g>
  </g>
 </g>
 <defs>
  <clipPath id="p6aebf33ce5">
   <rect x="35.197031" y="7.2" width="162.204" height="163.572"/>
  </clipPath>
  <clipPath id="pe282d5eed8">
   <rect x="112.409231" y="19.2" width="72.9918" height="73.6074"/>
  </clipPath>
 </defs>
</svg>
