<?xml version="1.0" encoding="utf-8" standalone="no"?>
<!DOCTYPE svg PUBLIC "-//W3C//DTD SVG 1.1//EN"
  "http://www.w3.org/Graphics/SVG/1.1/DTD/svg11.dtd">
<svg xmlns:xlink="http://www.w3.org/1999/xlink" width="211.351031pt" height="132.545906pt" viewBox="0 0 211.351031 132.545906" xmlns="http://www.w3.org/2000/svg" version="1.1">
 <metadata>
  <rdf:RDF xmlns:dc="http://purl.org/dc/elements/1.1/" xmlns:cc="http://creativecommons.org/ns#" xmlns:rdf="http://www.w3.org/1999/02/22-rdf-syntax-ns#">
   <cc:Work>
    <dc:type rdf:resource="http://purl.org/dc/dcmitype/StillImage"/>
    <dc:date>2025-12-18T17:07:50.786641</dc:date>
    <dc:format>image/svg+xml</dc:format>
    <dc:creator>
     <cc:Agent>
      <dc:title>Matplotlib v3.10.5, https://matplotlib.org/</dc:title>
     </cc:Agent>
    </dc:creator>
   </cc:Work>
  </rdf:RDF>
 </metadata>
 <defs>
  <style type="text/css">*{stroke-linejoin: round; stroke-linecap: butt}</style>
 </defs>
 <g id="figure_1">
  <g id="patch_1">
   <path d="M 0 132.545906 
L 211.351031 132.545906 
L 211.351031 0 
L 0 0 
z
" style="fill: #ffffff"/>
  </g>
  <g id="axes_1">
   <g id="patch_2">
    <path d="M 41.947031 98.772 
L 192.901031 98.772 
L 192.901031 7.2 
L 41.947031 7.2 
z
" style="fill: #ffffff"/>
   </g>
   <g id="patch_3">
    <path d="M 41.947031 98.772 
L 72.137831 98.772 
L 72.137831 7.2 
L 41.947031 7.2 
z
" clip-path="url(#p02471df70c)" style="fill: #808080; opacity: 0.1; stroke: #808080; stroke-linejoin: miter"/>
   </g>
   <g id="matplotlib.axis_1">
    <g id="xtick_1">
     <g id="line2d_1">
      <defs>
       <path id="m36de21bf3c" d="M 0 0 
L 0 -3.5 
" style="stroke: #000000; stroke-width: 0.8"/>
      </defs>
      <g>
       <use xlink:href="#m36de21bf3c" x="41.947031" y="98.772" style="stroke: #000000; stroke-width: 0.8"/>
      </g>
     </g>
     <g id="text_1">
      <!-- 11000 -->
      <g transform="translate(30.865781 108.521375) scale(0.09 -0.09)">
       <defs>
        <path id="TimesNewRomanPSMT-31" d="M 750 3822 
L 1781 4325 
L 1884 4325 
L 1884 747 
Q 1884 391 1914 303 
Q 1944 216 2037 169 
Q 2131 122 2419 116 
L 2419 0 
L 825 0 
L 825 116 
Q 1125 122 1212 167 
Q 1300 213 1334 289 
Q 1369 366 1369 747 
L 1369 3034 
Q 1369 3497 1338 3628 
Q 1316 3728 1258 3775 
Q 1200 3822 1119 3822 
Q 1003 3822 797 3725 
L 750 3822 
z
" transform="scale(0.015625)"/>
        <path id="TimesNewRomanPSMT-30" d="M 231 2094 
Q 231 2819 450 3342 
Q 669 3866 1031 4122 
Q 1313 4325 1613 4325 
Q 2100 4325 2488 3828 
Q 2972 3213 2972 2159 
Q 2972 1422 2759 906 
Q 2547 391 2217 158 
Q 1888 -75 1581 -75 
Q 975 -75 572 641 
Q 231 1244 231 2094 
z
M 844 2016 
Q 844 1141 1059 588 
Q 1238 122 1591 122 
Q 1759 122 1940 273 
Q 2122 425 2216 781 
Q 2359 1319 2359 2297 
Q 2359 3022 2209 3506 
Q 2097 3866 1919 4016 
Q 1791 4119 1609 4119 
Q 1397 4119 1231 3928 
Q 1006 3669 925 3112 
Q 844 2556 844 2016 
z
" transform="scale(0.015625)"/>
       </defs>
       <use xlink:href="#TimesNewRomanPSMT-31"/>
       <use xlink:href="#TimesNewRomanPSMT-31" transform="translate(46.25 0)"/>
       <use xlink:href="#TimesNewRomanPSMT-30" transform="translate(96.25 0)"/>
       <use xlink:href="#TimesNewRomanPSMT-30" transform="translate(146.25 0)"/>
       <use xlink:href="#TimesNewRomanPSMT-30" transform="translate(196.25 0)"/>
      </g>
     </g>
    </g>
    <g id="xtick_2">
     <g id="line2d_2">
      <g>
       <use xlink:href="#m36de21bf3c" x="72.137831" y="98.772" style="stroke: #000000; stroke-width: 0.8"/>
      </g>
     </g>
     <g id="text_2">
      <!-- 11200 -->
      <g transform="translate(61.056581 108.521375) scale(0.09 -0.09)">
       <defs>
        <path id="TimesNewRomanPSMT-32" d="M 2934 816 
L 2638 0 
L 138 0 
L 138 116 
Q 1241 1122 1691 1759 
Q 2141 2397 2141 2925 
Q 2141 3328 1894 3587 
Q 1647 3847 1303 3847 
Q 991 3847 742 3664 
Q 494 3481 375 3128 
L 259 3128 
Q 338 3706 661 4015 
Q 984 4325 1469 4325 
Q 1984 4325 2329 3994 
Q 2675 3663 2675 3213 
Q 2675 2891 2525 2569 
Q 2294 2063 1775 1497 
Q 997 647 803 472 
L 1909 472 
Q 2247 472 2383 497 
Q 2519 522 2628 598 
Q 2738 675 2819 816 
L 2934 816 
z
" transform="scale(0.015625)"/>
       </defs>
       <use xlink:href="#TimesNewRomanPSMT-31"/>
       <use xlink:href="#TimesNewRomanPSMT-31" transform="translate(46.25 0)"/>
       <use xlink:href="#TimesNewRomanPSMT-32" transform="translate(96.25 0)"/>
       <use xlink:href="#TimesNewRomanPSMT-30" transform="translate(146.25 0)"/>
       <use xlink:href="#TimesNewRomanPSMT-30" transform="translate(196.25 0)"/>
      </g>
     </g>
    </g>
    <g id="xtick_3">
     <g id="line2d_3">
      <g>
       <use xlink:href="#m36de21bf3c" x="102.328631" y="98.772" style="stroke: #000000; stroke-width: 0.8"/>
      </g>
     </g>
     <g id="text_3">
      <!-- 11400 -->
      <g transform="translate(91.247381 108.521375) scale(0.09 -0.09)">
       <defs>
        <path id="TimesNewRomanPSMT-34" d="M 2978 1563 
L 2978 1119 
L 2409 1119 
L 2409 0 
L 1894 0 
L 1894 1119 
L 100 1119 
L 100 1519 
L 2066 4325 
L 2409 4325 
L 2409 1563 
L 2978 1563 
z
M 1894 1563 
L 1894 3666 
L 406 1563 
L 1894 1563 
z
" transform="scale(0.015625)"/>
       </defs>
       <use xlink:href="#TimesNewRomanPSMT-31"/>
       <use xlink:href="#TimesNewRomanPSMT-31" transform="translate(46.25 0)"/>
       <use xlink:href="#TimesNewRomanPSMT-34" transform="translate(96.25 0)"/>
       <use xlink:href="#TimesNewRomanPSMT-30" transform="translate(146.25 0)"/>
       <use xlink:href="#TimesNewRomanPSMT-30" transform="translate(196.25 0)"/>
      </g>
     </g>
    </g>
    <g id="xtick_4">
     <g id="line2d_4">
      <g>
       <use xlink:href="#m36de21bf3c" x="132.519431" y="98.772" style="stroke: #000000; stroke-width: 0.8"/>
      </g>
     </g>
     <g id="text_4">
      <!-- 11600 -->
      <g transform="translate(121.438181 108.521375) scale(0.09 -0.09)">
       <defs>
        <path id="TimesNewRomanPSMT-36" d="M 2869 4325 
L 2869 4209 
Q 2456 4169 2195 4045 
Q 1934 3922 1679 3669 
Q 1425 3416 1258 3105 
Q 1091 2794 978 2366 
Q 1428 2675 1881 2675 
Q 2316 2675 2634 2325 
Q 2953 1975 2953 1425 
Q 2953 894 2631 456 
Q 2244 -75 1606 -75 
Q 1172 -75 869 213 
Q 275 772 275 1663 
Q 275 2231 503 2743 
Q 731 3256 1154 3653 
Q 1578 4050 1965 4187 
Q 2353 4325 2688 4325 
L 2869 4325 
z
M 925 2138 
Q 869 1716 869 1456 
Q 869 1156 980 804 
Q 1091 453 1309 247 
Q 1469 100 1697 100 
Q 1969 100 2183 356 
Q 2397 613 2397 1088 
Q 2397 1622 2184 2012 
Q 1972 2403 1581 2403 
Q 1463 2403 1327 2353 
Q 1191 2303 925 2138 
z
" transform="scale(0.015625)"/>
       </defs>
       <use xlink:href="#TimesNewRomanPSMT-31"/>
       <use xlink:href="#TimesNewRomanPSMT-31" transform="translate(46.25 0)"/>
       <use xlink:href="#TimesNewRomanPSMT-36" transform="translate(96.25 0)"/>
       <use xlink:href="#TimesNewRomanPSMT-30" transform="translate(146.25 0)"/>
       <use xlink:href="#TimesNewRomanPSMT-30" transform="translate(196.25 0)"/>
      </g>
     </g>
    </g>
    <g id="xtick_5">
     <g id="line2d_5">
      <g>
       <use xlink:href="#m36de21bf3c" x="162.710231" y="98.772" style="stroke: #000000; stroke-width: 0.8"/>
      </g>
     </g>
     <g id="text_5">
      <!-- 11800 -->
      <g transform="translate(151.628981 108.521375) scale(0.09 -0.09)">
       <defs>
        <path id="TimesNewRomanPSMT-38" d="M 1228 2134 
Q 725 2547 579 2797 
Q 434 3047 434 3316 
Q 434 3728 753 4026 
Q 1072 4325 1600 4325 
Q 2113 4325 2425 4047 
Q 2738 3769 2738 3413 
Q 2738 3175 2569 2928 
Q 2400 2681 1866 2347 
Q 2416 1922 2594 1678 
Q 2831 1359 2831 1006 
Q 2831 559 2490 242 
Q 2150 -75 1597 -75 
Q 994 -75 656 303 
Q 388 606 388 966 
Q 388 1247 577 1523 
Q 766 1800 1228 2134 
z
M 1719 2469 
Q 2094 2806 2194 3001 
Q 2294 3197 2294 3444 
Q 2294 3772 2109 3958 
Q 1925 4144 1606 4144 
Q 1288 4144 1088 3959 
Q 888 3775 888 3528 
Q 888 3366 970 3203 
Q 1053 3041 1206 2894 
L 1719 2469 
z
M 1375 2016 
Q 1116 1797 991 1539 
Q 866 1281 866 981 
Q 866 578 1086 336 
Q 1306 94 1647 94 
Q 1984 94 2187 284 
Q 2391 475 2391 747 
Q 2391 972 2272 1150 
Q 2050 1481 1375 2016 
z
" transform="scale(0.015625)"/>
       </defs>
       <use xlink:href="#TimesNewRomanPSMT-31"/>
       <use xlink:href="#TimesNewRomanPSMT-31" transform="translate(46.25 0)"/>
       <use xlink:href="#TimesNewRomanPSMT-38" transform="translate(96.25 0)"/>
       <use xlink:href="#TimesNewRomanPSMT-30" transform="translate(146.25 0)"/>
       <use xlink:href="#TimesNewRomanPSMT-30" transform="translate(196.25 0)"/>
      </g>
     </g>
    </g>
    <g id="xtick_6">
     <g id="line2d_6">
      <g>
       <use xlink:href="#m36de21bf3c" x="192.901031" y="98.772" style="stroke: #000000; stroke-width: 0.8"/>
      </g>
     </g>
     <g id="text_6">
      <!-- 12000 -->
      <g transform="translate(181.651031 108.521375) scale(0.09 -0.09)">
       <use xlink:href="#TimesNewRomanPSMT-31"/>
       <use xlink:href="#TimesNewRomanPSMT-32" transform="translate(50 0)"/>
       <use xlink:href="#TimesNewRomanPSMT-30" transform="translate(100 0)"/>
       <use xlink:href="#TimesNewRomanPSMT-30" transform="translate(150 0)"/>
       <use xlink:href="#TimesNewRomanPSMT-30" transform="translate(200 0)"/>
      </g>
     </g>
    </g>
    <g id="text_7">
     <!-- time -->
     <g transform="translate(106.759969 122.779031) scale(0.12 -0.12)">
      <defs>
       <path id="TimesNewRomanPSMT-74" d="M 1031 3803 
L 1031 2863 
L 1700 2863 
L 1700 2644 
L 1031 2644 
L 1031 788 
Q 1031 509 1111 412 
Q 1191 316 1316 316 
Q 1419 316 1516 380 
Q 1613 444 1666 569 
L 1788 569 
Q 1678 263 1478 108 
Q 1278 -47 1066 -47 
Q 922 -47 784 33 
Q 647 113 581 261 
Q 516 409 516 719 
L 516 2644 
L 63 2644 
L 63 2747 
Q 234 2816 414 2980 
Q 594 3144 734 3369 
Q 806 3488 934 3803 
L 1031 3803 
z
" transform="scale(0.015625)"/>
       <path id="TimesNewRomanPSMT-69" d="M 928 4444 
Q 1059 4444 1151 4351 
Q 1244 4259 1244 4128 
Q 1244 3997 1151 3903 
Q 1059 3809 928 3809 
Q 797 3809 703 3903 
Q 609 3997 609 4128 
Q 609 4259 701 4351 
Q 794 4444 928 4444 
z
M 1188 2947 
L 1188 647 
Q 1188 378 1227 289 
Q 1266 200 1342 156 
Q 1419 113 1622 113 
L 1622 0 
L 231 0 
L 231 113 
Q 441 113 512 153 
Q 584 194 626 287 
Q 669 381 669 647 
L 669 1750 
Q 669 2216 641 2353 
Q 619 2453 572 2492 
Q 525 2531 444 2531 
Q 356 2531 231 2484 
L 188 2597 
L 1050 2947 
L 1188 2947 
z
" transform="scale(0.015625)"/>
       <path id="TimesNewRomanPSMT-6d" d="M 1050 2338 
Q 1363 2650 1419 2697 
Q 1559 2816 1721 2881 
Q 1884 2947 2044 2947 
Q 2313 2947 2506 2790 
Q 2700 2634 2766 2338 
Q 3088 2713 3309 2830 
Q 3531 2947 3766 2947 
Q 3994 2947 4170 2830 
Q 4347 2713 4450 2447 
Q 4519 2266 4519 1878 
L 4519 647 
Q 4519 378 4559 278 
Q 4591 209 4675 161 
Q 4759 113 4950 113 
L 4950 0 
L 3538 0 
L 3538 113 
L 3597 113 
Q 3781 113 3884 184 
Q 3956 234 3988 344 
Q 4000 397 4000 647 
L 4000 1878 
Q 4000 2228 3916 2372 
Q 3794 2572 3525 2572 
Q 3359 2572 3192 2489 
Q 3025 2406 2788 2181 
L 2781 2147 
L 2788 2013 
L 2788 647 
Q 2788 353 2820 281 
Q 2853 209 2943 161 
Q 3034 113 3253 113 
L 3253 0 
L 1806 0 
L 1806 113 
Q 2044 113 2133 169 
Q 2222 225 2256 338 
Q 2272 391 2272 647 
L 2272 1878 
Q 2272 2228 2169 2381 
Q 2031 2581 1784 2581 
Q 1616 2581 1450 2491 
Q 1191 2353 1050 2181 
L 1050 647 
Q 1050 366 1089 281 
Q 1128 197 1204 155 
Q 1281 113 1516 113 
L 1516 0 
L 100 0 
L 100 113 
Q 297 113 375 155 
Q 453 197 493 289 
Q 534 381 534 647 
L 534 1741 
Q 534 2213 506 2350 
Q 484 2453 437 2492 
Q 391 2531 309 2531 
Q 222 2531 100 2484 
L 53 2597 
L 916 2947 
L 1050 2947 
L 1050 2338 
z
" transform="scale(0.015625)"/>
       <path id="TimesNewRomanPSMT-65" d="M 681 1784 
Q 678 1147 991 784 
Q 1303 422 1725 422 
Q 2006 422 2214 576 
Q 2422 731 2563 1106 
L 2659 1044 
Q 2594 616 2278 264 
Q 1963 -88 1488 -88 
Q 972 -88 605 314 
Q 238 716 238 1394 
Q 238 2128 614 2539 
Q 991 2950 1559 2950 
Q 2041 2950 2350 2633 
Q 2659 2316 2659 1784 
L 681 1784 
z
M 681 1966 
L 2006 1966 
Q 1991 2241 1941 2353 
Q 1863 2528 1708 2628 
Q 1553 2728 1384 2728 
Q 1125 2728 920 2526 
Q 716 2325 681 1966 
z
" transform="scale(0.015625)"/>
      </defs>
      <use xlink:href="#TimesNewRomanPSMT-74"/>
      <use xlink:href="#TimesNewRomanPSMT-69" transform="translate(27.783203 0)"/>
      <use xlink:href="#TimesNewRomanPSMT-6d" transform="translate(55.566406 0)"/>
      <use xlink:href="#TimesNewRomanPSMT-65" transform="translate(133.349609 0)"/>
     </g>
    </g>
   </g>
   <g id="matplotlib.axis_2">
    <g id="ytick_1">
     <g id="line2d_7">
      <defs>
       <path id="mf825cda36e" d="M 0 0 
L 3.5 0 
" style="stroke: #000000; stroke-width: 0.8"/>
      </defs>
      <g>
       <use xlink:href="#mf825cda36e" x="41.947031" y="80.232394" style="stroke: #000000; stroke-width: 0.8"/>
      </g>
     </g>
     <g id="text_8">
      <!-- −5.0 -->
      <g transform="translate(22.121875 83.357082) scale(0.09 -0.09)">
       <defs>
        <path id="TimesNewRomanPSMT-2212" d="M 3484 2000 
L 116 2000 
L 116 2256 
L 3484 2256 
L 3484 2000 
z
" transform="scale(0.015625)"/>
        <path id="TimesNewRomanPSMT-35" d="M 2778 4238 
L 2534 3706 
L 1259 3706 
L 981 3138 
Q 1809 3016 2294 2522 
Q 2709 2097 2709 1522 
Q 2709 1188 2573 903 
Q 2438 619 2231 419 
Q 2025 219 1772 97 
Q 1413 -75 1034 -75 
Q 653 -75 479 54 
Q 306 184 306 341 
Q 306 428 378 495 
Q 450 563 559 563 
Q 641 563 702 538 
Q 763 513 909 409 
Q 1144 247 1384 247 
Q 1750 247 2026 523 
Q 2303 800 2303 1197 
Q 2303 1581 2056 1914 
Q 1809 2247 1375 2428 
Q 1034 2569 447 2591 
L 1259 4238 
L 2778 4238 
z
" transform="scale(0.015625)"/>
        <path id="TimesNewRomanPSMT-2e" d="M 800 606 
Q 947 606 1047 504 
Q 1147 403 1147 259 
Q 1147 116 1045 14 
Q 944 -88 800 -88 
Q 656 -88 554 14 
Q 453 116 453 259 
Q 453 406 554 506 
Q 656 606 800 606 
z
" transform="scale(0.015625)"/>
       </defs>
       <use xlink:href="#TimesNewRomanPSMT-2212"/>
       <use xlink:href="#TimesNewRomanPSMT-35" transform="translate(56.396484 0)"/>
       <use xlink:href="#TimesNewRomanPSMT-2e" transform="translate(106.396484 0)"/>
       <use xlink:href="#TimesNewRomanPSMT-30" transform="translate(131.396484 0)"/>
      </g>
     </g>
    </g>
    <g id="ytick_2">
     <g id="line2d_8">
      <g>
       <use xlink:href="#mf825cda36e" x="41.947031" y="58.912446" style="stroke: #000000; stroke-width: 0.8"/>
      </g>
     </g>
     <g id="text_9">
      <!-- −2.5 -->
      <g transform="translate(22.121875 62.037134) scale(0.09 -0.09)">
       <use xlink:href="#TimesNewRomanPSMT-2212"/>
       <use xlink:href="#TimesNewRomanPSMT-32" transform="translate(56.396484 0)"/>
       <use xlink:href="#TimesNewRomanPSMT-2e" transform="translate(106.396484 0)"/>
       <use xlink:href="#TimesNewRomanPSMT-35" transform="translate(131.396484 0)"/>
      </g>
     </g>
    </g>
    <g id="ytick_3">
     <g id="line2d_9">
      <g>
       <use xlink:href="#mf825cda36e" x="41.947031" y="37.592499" style="stroke: #000000; stroke-width: 0.8"/>
      </g>
     </g>
     <g id="text_10">
      <!-- 0.0 -->
      <g transform="translate(27.197031 40.717186) scale(0.09 -0.09)">
       <use xlink:href="#TimesNewRomanPSMT-30"/>
       <use xlink:href="#TimesNewRomanPSMT-2e" transform="translate(50 0)"/>
       <use xlink:href="#TimesNewRomanPSMT-30" transform="translate(75 0)"/>
      </g>
     </g>
    </g>
    <g id="ytick_4">
     <g id="line2d_10">
      <g>
       <use xlink:href="#mf825cda36e" x="41.947031" y="16.272551" style="stroke: #000000; stroke-width: 0.8"/>
      </g>
     </g>
     <g id="text_11">
      <!-- 2.5 -->
      <g transform="translate(27.197031 19.397238) scale(0.09 -0.09)">
       <use xlink:href="#TimesNewRomanPSMT-32"/>
       <use xlink:href="#TimesNewRomanPSMT-2e" transform="translate(50 0)"/>
       <use xlink:href="#TimesNewRomanPSMT-35" transform="translate(75 0)"/>
      </g>
     </g>
    </g>
    <g id="text_12">
     <!-- activity -->
     <g transform="translate(15.5325 70.980375) rotate(-90) scale(0.12 -0.12)">
      <defs>
       <path id="TimesNewRomanPSMT-61" d="M 1822 413 
Q 1381 72 1269 19 
Q 1100 -59 909 -59 
Q 613 -59 420 144 
Q 228 347 228 678 
Q 228 888 322 1041 
Q 450 1253 767 1440 
Q 1084 1628 1822 1897 
L 1822 2009 
Q 1822 2438 1686 2597 
Q 1550 2756 1291 2756 
Q 1094 2756 978 2650 
Q 859 2544 859 2406 
L 866 2225 
Q 866 2081 792 2003 
Q 719 1925 600 1925 
Q 484 1925 411 2006 
Q 338 2088 338 2228 
Q 338 2497 613 2722 
Q 888 2947 1384 2947 
Q 1766 2947 2009 2819 
Q 2194 2722 2281 2516 
Q 2338 2381 2338 1966 
L 2338 994 
Q 2338 584 2353 492 
Q 2369 400 2405 369 
Q 2441 338 2488 338 
Q 2538 338 2575 359 
Q 2641 400 2828 588 
L 2828 413 
Q 2478 -56 2159 -56 
Q 2006 -56 1915 50 
Q 1825 156 1822 413 
z
M 1822 616 
L 1822 1706 
Q 1350 1519 1213 1441 
Q 966 1303 859 1153 
Q 753 1003 753 825 
Q 753 600 887 451 
Q 1022 303 1197 303 
Q 1434 303 1822 616 
z
" transform="scale(0.015625)"/>
       <path id="TimesNewRomanPSMT-63" d="M 2631 1088 
Q 2516 522 2178 217 
Q 1841 -88 1431 -88 
Q 944 -88 581 321 
Q 219 731 219 1428 
Q 219 2103 620 2525 
Q 1022 2947 1584 2947 
Q 2006 2947 2278 2723 
Q 2550 2500 2550 2259 
Q 2550 2141 2473 2067 
Q 2397 1994 2259 1994 
Q 2075 1994 1981 2113 
Q 1928 2178 1911 2362 
Q 1894 2547 1784 2644 
Q 1675 2738 1481 2738 
Q 1169 2738 978 2506 
Q 725 2200 725 1697 
Q 725 1184 976 792 
Q 1228 400 1656 400 
Q 1963 400 2206 609 
Q 2378 753 2541 1131 
L 2631 1088 
z
" transform="scale(0.015625)"/>
       <path id="TimesNewRomanPSMT-76" d="M 53 2863 
L 1400 2863 
L 1400 2747 
L 1313 2747 
Q 1191 2747 1127 2687 
Q 1063 2628 1063 2528 
Q 1063 2419 1128 2269 
L 1794 688 
L 2463 2328 
Q 2534 2503 2534 2594 
Q 2534 2638 2509 2666 
Q 2475 2713 2422 2730 
Q 2369 2747 2206 2747 
L 2206 2863 
L 3141 2863 
L 3141 2747 
Q 2978 2734 2916 2681 
Q 2806 2588 2719 2369 
L 1703 -88 
L 1575 -88 
L 553 2328 
Q 484 2497 421 2570 
Q 359 2644 263 2694 
Q 209 2722 53 2747 
L 53 2863 
z
" transform="scale(0.015625)"/>
       <path id="TimesNewRomanPSMT-79" d="M 38 2863 
L 1372 2863 
L 1372 2747 
L 1306 2747 
Q 1166 2747 1095 2686 
Q 1025 2625 1025 2534 
Q 1025 2413 1128 2197 
L 1825 753 
L 2466 2334 
Q 2519 2463 2519 2588 
Q 2519 2644 2497 2672 
Q 2472 2706 2419 2726 
Q 2366 2747 2231 2747 
L 2231 2863 
L 3163 2863 
L 3163 2747 
Q 3047 2734 2984 2696 
Q 2922 2659 2847 2556 
Q 2819 2513 2741 2316 
L 1575 -541 
Q 1406 -956 1132 -1168 
Q 859 -1381 606 -1381 
Q 422 -1381 303 -1275 
Q 184 -1169 184 -1031 
Q 184 -900 270 -820 
Q 356 -741 506 -741 
Q 609 -741 788 -809 
Q 913 -856 944 -856 
Q 1038 -856 1148 -759 
Q 1259 -663 1372 -384 
L 1575 113 
L 547 2272 
Q 500 2369 397 2513 
Q 319 2622 269 2659 
Q 197 2709 38 2747 
L 38 2863 
z
" transform="scale(0.015625)"/>
      </defs>
      <use xlink:href="#TimesNewRomanPSMT-61"/>
      <use xlink:href="#TimesNewRomanPSMT-63" transform="translate(44.384766 0)"/>
      <use xlink:href="#TimesNewRomanPSMT-74" transform="translate(88.769531 0)"/>
      <use xlink:href="#TimesNewRomanPSMT-69" transform="translate(116.552734 0)"/>
      <use xlink:href="#TimesNewRomanPSMT-76" transform="translate(144.335938 0)"/>
      <use xlink:href="#TimesNewRomanPSMT-69" transform="translate(194.335938 0)"/>
      <use xlink:href="#TimesNewRomanPSMT-74" transform="translate(222.119141 0)"/>
      <use xlink:href="#TimesNewRomanPSMT-79" transform="translate(249.902344 0)"/>
     </g>
    </g>
   </g>
   <g id="line2d_11">
    <path d="M 41.947031 98.772 
L 41.947031 7.2 
" clip-path="url(#p02471df70c)" style="fill: none; stroke: #808080; stroke-width: 1.5; stroke-linecap: square"/>
   </g>
   <g id="line2d_12">
    <path d="M 72.288785 30.221138 
L 73.798325 24.264572 
L 74.855003 20.841141 
L 75.760727 18.543721 
L 76.515497 17.141935 
L 77.119313 16.381824 
L 77.723129 15.956218 
L 78.175991 15.860772 
L 78.628853 15.958219 
L 79.081715 16.247693 
L 79.685531 16.927683 
L 80.289347 17.93357 
L 81.044117 19.624584 
L 81.949841 22.233363 
L 83.006519 25.957032 
L 84.516059 32.198333 
L 88.742771 50.374686 
L 89.950403 54.343857 
L 90.856127 56.641276 
L 91.610897 58.043063 
L 92.214713 58.803173 
L 92.818529 59.228779 
L 93.271391 59.324225 
L 93.724253 59.226779 
L 94.177115 58.937305 
L 94.780931 58.257314 
L 95.384747 57.251427 
L 96.139517 55.560413 
L 97.045241 52.951634 
L 98.101919 49.227966 
L 99.611459 42.986664 
L 103.838171 24.810311 
L 105.045803 20.841141 
L 105.951527 18.543721 
L 106.706297 17.141935 
L 107.310113 16.381824 
L 107.913929 15.956218 
L 108.366791 15.860772 
L 108.819653 15.958219 
L 109.272515 16.247693 
L 109.876331 16.927683 
L 110.480147 17.93357 
L 111.234917 19.624584 
L 112.140641 22.233363 
L 113.197319 25.957032 
L 114.706859 32.198333 
L 118.933571 50.374686 
L 120.141203 54.343857 
L 121.046927 56.641276 
L 121.801697 58.043063 
L 122.405513 58.803173 
L 123.009329 59.228779 
L 123.462191 59.324225 
L 123.915053 59.226779 
L 124.367915 58.937305 
L 124.971731 58.257314 
L 125.575547 57.251427 
L 126.330317 55.560413 
L 127.236041 52.951634 
L 128.292719 49.227966 
L 129.802259 42.986664 
L 134.028971 24.810311 
L 135.236603 20.841141 
L 136.142327 18.543721 
L 136.897097 17.141935 
L 137.500913 16.381824 
L 138.104729 15.956218 
L 138.557591 15.860772 
L 139.010453 15.958219 
L 139.463315 16.247693 
L 140.067131 16.927683 
L 140.670947 17.93357 
L 141.425717 19.624584 
L 142.331441 22.233363 
L 143.388119 25.957032 
L 144.897659 32.198333 
L 149.124371 50.374686 
L 150.332003 54.343857 
L 151.237727 56.641276 
L 151.992497 58.043063 
L 152.596313 58.803173 
L 153.200129 59.228779 
L 153.652991 59.324225 
L 154.105853 59.226779 
L 154.558715 58.937305 
L 155.162531 58.257314 
L 155.766347 57.251427 
L 156.521117 55.560413 
L 157.426841 52.951634 
L 158.483519 49.227966 
L 159.993059 42.986664 
L 164.219771 24.810311 
L 165.427403 20.841141 
L 166.333127 18.543721 
L 167.087897 17.141935 
L 167.691713 16.381824 
L 168.295529 15.956218 
L 168.748391 15.860772 
L 169.201253 15.958219 
L 169.654115 16.247693 
L 170.257931 16.927683 
L 170.861747 17.93357 
L 171.616517 19.624584 
L 172.522241 22.233363 
L 173.578919 25.957032 
L 175.088459 32.198333 
L 179.315171 50.374686 
L 180.522803 54.343857 
L 181.428527 56.641276 
L 182.183297 58.043063 
L 182.787113 58.803173 
L 183.390929 59.228779 
L 183.843791 59.324225 
L 184.296653 59.226779 
L 184.749515 58.937305 
L 185.353331 58.257314 
L 185.957147 57.251427 
L 186.711917 55.560413 
L 187.617641 52.951634 
L 188.674319 49.227966 
L 190.183859 42.986664 
L 192.750077 31.519333 
L 192.750077 31.519333 
" clip-path="url(#p02471df70c)" style="fill: none; stroke: #ff0000; stroke-width: 2; stroke-linecap: square"/>
   </g>
   <g id="line2d_13">
    <path d="M 41.947031 94.609636 
L 42.399893 87.404675 
L 42.550847 87.774152 
L 42.701801 89.686493 
L 43.003709 86.128354 
L 43.456571 90.890024 
L 43.607525 87.981736 
L 43.758479 88.199662 
L 43.909433 87.884756 
L 44.060387 88.006754 
L 44.211341 86.619311 
L 44.664203 88.930653 
L 44.815157 87.13695 
L 44.966111 87.371603 
L 45.117065 90.651759 
L 45.268019 88.303946 
L 45.418973 88.406656 
L 45.569927 89.824874 
L 45.720881 89.585271 
L 46.022789 86.714127 
L 46.475651 90.606857 
L 46.626605 85.823219 
L 46.777559 85.878946 
L 46.928513 87.116502 
L 47.230421 87.709274 
L 47.381375 87.072883 
L 47.532329 87.121584 
L 47.683283 85.820567 
L 47.834237 87.074223 
L 47.985191 87.345082 
L 48.136145 85.803946 
L 48.287099 86.064993 
L 48.438053 87.912898 
L 48.589007 87.350268 
L 48.890915 89.460615 
L 49.041869 87.501587 
L 49.192823 88.326424 
L 49.343777 87.802905 
L 49.494731 90.107594 
L 49.645685 85.642582 
L 49.796639 86.993808 
L 49.947593 87.231295 
L 50.098547 86.86707 
L 50.249501 88.892327 
L 50.400455 86.247469 
L 50.551409 88.161238 
L 50.702363 88.521419 
L 50.853317 86.206275 
L 51.004271 88.353036 
L 51.155225 86.996379 
L 51.306179 88.423298 
L 51.457133 88.683991 
L 51.909995 84.782064 
L 52.060949 86.962225 
L 52.211903 86.665883 
L 52.362857 87.904971 
L 52.513811 87.306542 
L 52.815719 88.029325 
L 52.966673 87.797373 
L 53.268581 90.506007 
L 53.419535 89.807196 
L 53.721443 86.887277 
L 53.872397 85.510194 
L 54.023351 88.36993 
L 54.174305 87.847275 
L 54.627167 88.313061 
L 54.778121 92.266838 
L 54.929075 88.79072 
L 55.230983 88.136869 
L 55.381937 84.421618 
L 55.683845 87.357406 
L 55.834799 89.469564 
L 55.985753 89.291682 
L 56.136707 86.646839 
L 56.438615 89.156393 
L 56.589569 89.094055 
L 56.891477 85.134383 
L 57.193385 86.878946 
L 57.344339 86.820972 
L 57.495293 90.940253 
L 57.646247 87.865884 
L 57.797201 89.02487 
L 58.099109 89.517016 
L 58.250063 86.60364 
L 58.401017 86.399003 
L 58.551971 86.973453 
L 58.702925 86.802341 
L 59.004833 87.719177 
L 59.155787 88.015066 
L 59.457695 89.5478 
L 59.608649 88.028434 
L 59.759603 88.159587 
L 59.910557 86.911872 
L 60.212465 91.065199 
L 60.514373 90.62928 
L 60.665327 87.347555 
L 60.816281 86.991823 
L 60.967235 85.437038 
L 61.118189 85.516382 
L 61.420097 88.529719 
L 61.571051 88.937784 
L 61.722005 88.960064 
L 61.872959 89.717522 
L 62.325821 84.416361 
L 62.476775 84.053749 
L 62.627729 86.092088 
L 62.778683 84.916438 
L 62.929637 85.869667 
L 63.080591 83.334652 
L 63.231545 83.487334 
L 63.382499 83.970727 
L 63.533453 85.226561 
L 63.684407 85.353743 
L 63.835361 87.392952 
L 63.986315 87.766434 
L 64.137269 89.218342 
L 64.288223 88.20543 
L 64.439177 85.877708 
L 64.590131 87.209699 
L 64.892039 84.891265 
L 65.042993 84.940321 
L 65.193947 85.291804 
L 65.344901 86.07721 
L 65.495855 85.656693 
L 65.646809 86.436258 
L 65.948717 82.73761 
L 66.099671 83.233454 
L 66.250625 82.866207 
L 66.401579 83.689741 
L 66.552533 85.631249 
L 66.703487 85.688829 
L 66.854441 83.948892 
L 67.156349 85.282752 
L 67.307303 82.823494 
L 67.458257 82.534963 
L 67.609211 84.995492 
L 67.760165 84.822697 
L 68.062073 88.990465 
L 68.363981 89.273485 
L 68.514935 85.870775 
L 68.665889 86.130498 
L 68.816843 84.246342 
L 68.967797 86.360696 
L 69.118751 85.80509 
L 69.420659 90.161227 
L 69.873521 86.07336 
L 70.024475 86.329072 
L 70.175429 83.853146 
L 70.326383 84.290517 
L 70.477337 86.828835 
L 70.628291 86.452502 
L 70.930199 87.677358 
L 71.081153 86.70364 
L 71.232107 86.80148 
L 71.383061 86.121614 
L 71.534015 86.432713 
L 71.684969 83.525661 
L 71.835923 83.831817 
L 71.986877 87.38684 
L 72.137831 27.751232 
L 72.288785 27.835292 
L 72.439739 26.795559 
L 72.590693 24.836663 
L 72.741647 25.089229 
L 72.892601 22.899815 
L 73.043555 24.768872 
L 73.496417 25.554047 
L 73.647371 25.049745 
L 74.553095 26.692621 
L 74.855003 21.371559 
L 75.005957 20.999429 
L 75.156911 19.896981 
L 75.458819 20.590786 
L 75.760727 20.194992 
L 76.515497 21.850477 
L 76.666451 21.732069 
L 76.968359 17.46368 
L 77.119313 17.621028 
L 77.270267 18.177626 
L 77.421221 16.299574 
L 77.572175 16.721174 
L 77.723129 15.579466 
L 77.874083 16.715112 
L 78.175991 16.362783 
L 78.326945 17.939277 
L 78.628853 18.434547 
L 78.779807 18.400408 
L 79.383623 19.659943 
L 79.534577 18.584017 
L 79.685531 18.960385 
L 79.836485 18.425475 
L 80.289347 19.887306 
L 80.440301 20.10477 
L 80.742209 17.130886 
L 80.893163 17.988943 
L 81.044117 20.878839 
L 81.195071 20.045153 
L 81.346025 19.967792 
L 81.496979 20.316761 
L 81.949841 23.540214 
L 82.704611 24.788048 
L 82.855565 24.821617 
L 83.006519 26.409465 
L 83.157473 26.410277 
L 83.308427 26.631685 
L 83.459381 26.142996 
L 83.761289 28.713852 
L 83.912243 32.677537 
L 84.063197 32.774853 
L 84.214151 33.674532 
L 84.365105 33.752108 
L 84.516059 33.581472 
L 84.667013 33.825387 
L 84.817967 32.931379 
L 84.968921 32.948363 
L 85.119875 37.319357 
L 85.270829 37.252324 
L 85.421783 34.822081 
L 85.572737 35.04675 
L 85.723691 37.44726 
L 85.874645 37.898034 
L 86.025599 39.226968 
L 86.176553 39.194606 
L 86.327507 39.477728 
L 86.629415 39.403812 
L 86.780369 40.672664 
L 87.082277 44.68666 
L 87.233231 44.546195 
L 87.384185 45.806023 
L 87.535139 45.229928 
L 87.686093 45.882996 
L 87.988001 45.623474 
L 88.289909 52.492231 
L 88.440863 51.287985 
L 88.591817 52.595019 
L 88.742771 52.297969 
L 88.893725 53.00336 
L 89.195633 52.13552 
L 89.497541 51.736248 
L 89.799449 52.220211 
L 89.950403 51.930582 
L 90.252311 53.764222 
L 90.403265 55.879425 
L 90.554219 55.517344 
L 90.705173 53.985406 
L 90.856127 58.456517 
L 91.007081 59.310132 
L 91.158035 59.350086 
L 91.308989 60.080353 
L 91.459943 59.674303 
L 91.610897 60.815226 
L 91.912805 58.996027 
L 92.214713 58.471682 
L 92.365667 58.058274 
L 92.516621 58.932996 
L 92.667575 58.280393 
L 92.818529 59.326789 
L 92.969483 58.955908 
L 93.120437 58.054389 
L 93.271391 59.856212 
L 93.422345 59.703865 
L 93.573299 59.26606 
L 93.724253 59.268001 
L 93.875207 57.201542 
L 94.026161 59.802232 
L 94.328069 58.931433 
L 94.629977 57.273484 
L 95.384747 55.552652 
L 95.535701 52.19315 
L 95.686655 53.520064 
L 95.988563 52.623374 
L 96.441425 51.866737 
L 96.592379 53.961409 
L 96.894287 53.319618 
L 97.045241 51.097455 
L 98.252873 48.957141 
L 98.403827 49.670886 
L 98.705735 45.432234 
L 98.856689 43.672133 
L 99.007643 44.317548 
L 99.309551 43.978567 
L 99.460505 41.941357 
L 99.762413 41.673699 
L 99.913367 41.592891 
L 100.064321 39.016811 
L 100.366229 39.265692 
L 100.517183 38.526849 
L 100.668137 38.508349 
L 100.970045 34.919097 
L 101.120999 34.972031 
L 101.422907 34.633061 
L 101.875769 34.809341 
L 102.026723 31.522691 
L 102.177677 31.763905 
L 102.328631 30.226806 
L 102.479585 30.372647 
L 102.630539 30.684806 
L 102.781493 27.614348 
L 102.932447 26.962669 
L 103.083401 27.016243 
L 103.234355 27.39015 
L 103.385309 24.705014 
L 103.536263 24.960186 
L 103.687217 24.99438 
L 103.838171 24.339996 
L 103.989125 25.017814 
L 104.140079 25.070454 
L 104.592941 25.799633 
L 104.743895 23.596153 
L 105.045803 23.193649 
L 105.196757 23.478746 
L 105.498665 22.691344 
L 105.800573 20.629047 
L 106.102481 17.839461 
L 106.253435 15.411343 
L 106.404389 15.157226 
L 106.555343 15.326951 
L 106.706297 13.266292 
L 107.461067 15.567815 
L 107.612021 14.79379 
L 107.762975 15.245205 
L 107.913929 14.959466 
L 108.064883 16.04859 
L 108.366791 16.017835 
L 108.517745 16.718495 
L 108.819653 12.297709 
L 109.725377 15.338021 
L 109.876331 14.347668 
L 110.027285 14.141413 
L 110.178239 14.605744 
L 110.329193 14.476201 
L 110.480147 15.036702 
L 110.631101 14.34872 
L 110.933009 15.483821 
L 111.083963 18.075492 
L 111.234917 18.06946 
L 111.838733 19.636609 
L 111.989687 21.345702 
L 112.140641 21.667389 
L 112.291595 23.138852 
L 112.744457 24.017873 
L 112.895411 22.804257 
L 113.348273 26.480255 
L 113.650181 26.915943 
L 113.952089 31.004251 
L 114.103043 31.550116 
L 114.404951 30.518908 
L 114.706859 30.970308 
L 114.857813 35.124683 
L 115.008767 35.859176 
L 115.159721 37.247063 
L 115.310675 37.253903 
L 115.612583 36.198086 
L 115.914491 38.687288 
L 116.065445 38.665611 
L 116.216399 41.146108 
L 116.367353 40.845685 
L 116.518307 43.832867 
L 116.669261 43.259459 
L 116.820215 43.311749 
L 116.971169 43.198508 
L 117.122123 42.801353 
L 117.273077 44.286524 
L 117.424031 44.219979 
L 117.725939 48.089389 
L 118.027847 47.807824 
L 118.178801 48.745605 
L 118.329755 51.015904 
L 118.480709 49.828481 
L 118.631663 50.012499 
L 118.782617 54.286527 
L 119.084525 53.440813 
L 119.386433 56.823456 
L 119.537387 57.178459 
L 119.839295 56.410533 
L 119.990249 55.566624 
L 120.141203 58.206538 
L 120.594065 57.134516 
L 120.745019 57.322147 
L 120.895973 59.345558 
L 121.046927 58.464998 
L 121.197881 60.42006 
L 121.499789 59.420477 
L 121.650743 60.79046 
L 121.801697 60.976607 
L 122.103605 60.187186 
L 122.254559 58.388041 
L 122.405513 58.140786 
L 122.556467 58.380832 
L 122.707421 57.497911 
L 122.858375 58.681926 
L 123.009329 58.264355 
L 123.160283 60.619363 
L 123.613145 59.501315 
L 123.764099 59.188553 
L 124.066007 63.099051 
L 124.367915 62.028879 
L 124.820777 60.605908 
L 124.971731 61.504426 
L 125.273639 59.426238 
L 125.424593 57.12205 
L 125.575547 56.579185 
L 125.877455 55.181449 
L 126.028409 54.558695 
L 126.179363 55.098292 
L 126.330317 54.777986 
L 126.481271 56.302503 
L 126.632225 54.448203 
L 126.783179 54.775479 
L 126.934133 54.435256 
L 127.236041 58.731769 
L 127.386995 58.437559 
L 127.839857 57.016257 
L 128.141765 56.235919 
L 128.292719 52.843157 
L 128.896535 51.747084 
L 129.198443 51.330848 
L 129.500351 50.750739 
L 129.802259 46.153131 
L 129.953213 44.145747 
L 130.104167 44.015992 
L 130.255121 43.228384 
L 130.406075 43.24679 
L 130.707983 43.025097 
L 130.858937 40.842682 
L 131.160845 40.754459 
L 131.462753 36.388666 
L 131.915615 36.458767 
L 132.066569 36.254457 
L 132.217523 36.307259 
L 132.368477 35.022748 
L 132.519431 35.073629 
L 132.670385 32.686524 
L 132.972293 32.878877 
L 133.123247 31.173209 
L 133.274201 31.44185 
L 133.425155 31.075224 
L 133.576109 31.204266 
L 133.878017 26.823741 
L 134.028971 26.494729 
L 134.179925 22.757334 
L 134.481833 23.302588 
L 134.934695 24.017537 
L 135.085649 24.070395 
L 135.387557 23.08713 
L 135.538511 22.469557 
L 135.689465 22.768992 
L 135.840419 21.13558 
L 136.142327 20.855498 
L 136.293281 18.749912 
L 136.595189 19.488691 
L 136.746143 17.189111 
L 136.897097 17.143249 
L 137.199005 15.576905 
L 137.802821 16.890022 
L 138.104729 17.945167 
L 138.255683 17.920717 
L 138.557591 18.788544 
L 138.708545 17.736873 
L 138.859499 17.748017 
L 139.010453 17.907929 
L 139.161407 19.223768 
L 139.312361 18.679671 
L 139.463315 19.054145 
L 139.765223 18.6838 
L 139.916177 18.701359 
L 140.067131 11.362364 
L 140.519993 12.889787 
L 140.670947 12.965434 
L 140.821901 13.237124 
L 141.123809 14.638127 
L 141.274763 17.594369 
L 141.425717 18.133817 
L 141.576671 19.367519 
L 141.878579 19.924082 
L 142.029533 20.273917 
L 142.180487 23.350368 
L 142.331441 22.182899 
L 142.482395 22.213516 
L 142.633349 22.617332 
L 142.935257 21.731764 
L 143.086211 21.815745 
L 143.388119 22.434319 
L 143.539073 22.320984 
L 143.840981 22.758556 
L 144.142889 25.731341 
L 144.293843 25.659376 
L 144.595751 30.066793 
L 144.897659 30.709283 
L 145.048613 33.498769 
L 145.199567 33.058495 
L 145.350521 33.148268 
L 145.501475 35.883398 
L 145.652429 35.408936 
L 145.803383 35.45217 
L 145.954337 35.615581 
L 146.256245 35.126619 
L 146.407199 35.685628 
L 146.558153 35.723384 
L 146.709107 37.095377 
L 146.860061 37.246758 
L 147.011015 39.755349 
L 147.161969 39.548441 
L 147.312923 40.58724 
L 147.463877 43.678967 
L 147.765785 43.440329 
L 147.916739 43.050049 
L 148.067693 43.947295 
L 148.218647 43.928559 
L 148.520555 49.325145 
L 148.822463 48.474121 
L 148.973417 48.968324 
L 149.124371 48.643795 
L 149.275325 50.778977 
L 149.426279 49.996555 
L 149.577233 50.397857 
L 149.728187 52.300477 
L 150.030095 51.723807 
L 150.332003 54.421636 
L 151.086773 52.850701 
L 151.237727 53.768295 
L 151.388681 57.565892 
L 151.539635 57.41127 
L 151.841543 57.461703 
L 152.143451 56.449662 
L 152.294405 57.411275 
L 152.445359 59.373258 
L 152.747267 58.519279 
L 152.898221 58.48199 
L 153.049175 58.669412 
L 153.351083 57.725853 
L 153.502037 57.810031 
L 153.652991 57.409724 
L 153.954899 55.864435 
L 154.256807 55.14803 
L 154.558715 61.627547 
L 154.709669 61.955942 
L 154.860623 61.425914 
L 155.011577 64.140084 
L 155.162531 63.81251 
L 155.766347 60.637227 
L 155.917301 60.180942 
L 156.068255 59.092146 
L 156.219209 56.755687 
L 156.521117 56.004338 
L 156.672071 56.354118 
L 156.823025 55.982638 
L 156.973979 54.01364 
L 157.124933 55.189006 
L 157.577795 54.267224 
L 157.728749 53.937064 
L 157.879703 52.542976 
L 158.332565 51.624753 
L 158.483519 51.113905 
L 158.634473 53.093487 
L 158.936381 52.234788 
L 159.087335 50.034105 
L 159.238289 52.012806 
L 159.389243 51.552102 
L 159.540197 51.70678 
L 160.294967 50.180366 
L 160.445921 48.209076 
L 160.747829 47.182137 
L 160.898783 46.350717 
L 161.351645 41.131712 
L 161.502599 40.828626 
L 161.653553 38.806154 
L 161.955461 38.758569 
L 162.106415 35.642962 
L 162.559277 35.756487 
L 162.710231 31.92487 
L 163.012139 32.147086 
L 163.163093 32.093713 
L 163.314047 31.752739 
L 163.766909 32.092798 
L 164.068817 27.005734 
L 164.370725 27.42082 
L 164.672633 27.374443 
L 164.974541 22.514692 
L 165.276449 21.967204 
L 165.578357 22.57984 
L 165.729311 22.327305 
L 166.031219 22.925822 
L 166.182173 22.630121 
L 166.333127 21.421514 
L 166.635035 16.664737 
L 166.785989 16.22986 
L 167.389805 17.853681 
L 167.540759 16.813519 
L 167.691713 16.892646 
L 167.842667 17.302503 
L 167.993621 16.099372 
L 168.144575 17.149564 
L 168.295529 16.596316 
L 168.446483 16.736748 
L 169.050299 18.34011 
L 169.201253 18.364998 
L 169.352207 14.375105 
L 169.503161 14.834809 
L 169.654115 16.362938 
L 169.805069 14.281767 
L 170.106977 15.195733 
L 170.257931 15.117859 
L 170.559839 13.839745 
L 171.314609 15.899824 
L 171.465563 16.054046 
L 171.767471 16.66554 
L 171.918425 19.090328 
L 172.069379 17.845533 
L 172.371287 18.72257 
L 172.673195 20.199777 
L 172.824149 20.269308 
L 172.975103 20.162458 
L 173.126057 20.507573 
L 173.277011 20.54826 
L 173.427965 20.885736 
L 173.578919 22.570096 
L 173.729873 22.207117 
L 173.880827 22.236455 
L 174.333689 23.130662 
L 174.484643 25.487438 
L 174.635597 25.205789 
L 174.937505 29.221184 
L 175.390367 32.290529 
L 175.541321 32.162498 
L 176.296091 32.679198 
L 176.447045 37.769886 
L 176.597999 37.20875 
L 176.748953 35.917252 
L 176.899907 35.652827 
L 177.050861 36.90904 
L 177.201815 37.114854 
L 177.503723 40.365221 
L 177.654677 40.310321 
L 177.805631 40.092425 
L 177.956585 40.785605 
L 178.107539 44.146527 
L 178.258493 44.528263 
L 178.409447 45.643122 
L 178.560401 45.48372 
L 178.711355 46.26624 
L 178.862309 48.898362 
L 179.013263 49.105583 
L 179.164217 48.877624 
L 179.315171 49.529706 
L 179.466125 49.29335 
L 179.617079 50.176107 
L 179.768033 48.745199 
L 180.069941 50.668628 
L 180.371849 50.15594 
L 180.522803 50.554085 
L 180.673757 50.198159 
L 180.975665 54.408471 
L 181.126619 54.075515 
L 181.428527 58.611425 
L 181.579481 58.19525 
L 181.881389 56.921341 
L 182.334251 55.90076 
L 182.636159 58.590203 
L 182.787113 57.514026 
L 182.938067 59.366885 
L 183.089021 59.513685 
L 183.390929 58.6542 
L 183.541883 59.716035 
L 183.843791 58.848616 
L 183.994745 61.192056 
L 184.296653 60.266765 
L 184.447607 60.821502 
L 184.900469 59.234441 
L 185.202377 56.164549 
L 185.353331 55.796823 
L 185.504285 56.435696 
L 185.655239 56.260669 
L 185.806193 56.856491 
L 185.957147 60.505252 
L 186.108101 58.591111 
L 186.259055 60.8368 
L 186.711917 59.38396 
L 186.862871 59.645632 
L 187.164779 58.780974 
L 187.315733 56.756568 
L 187.466687 59.141431 
L 187.768595 58.488822 
L 187.919549 56.521095 
L 188.070503 58.599979 
L 188.372411 57.354735 
L 188.674319 56.579898 
L 188.825273 55.855523 
L 188.976227 55.924993 
L 189.278135 55.01948 
L 189.429089 55.321328 
L 190.183859 53.750478 
L 190.787675 45.942858 
L 191.391491 45.256036 
L 191.542445 41.78584 
L 191.844353 41.621428 
L 191.995307 41.862341 
L 192.146261 41.480203 
L 192.448169 41.327774 
L 192.599123 41.701714 
L 192.750077 41.620351 
L 192.750077 41.620351 
" clip-path="url(#p02471df70c)" style="fill: none; stroke: #000000; stroke-linecap: square"/>
   </g>
   <g id="line2d_14">
    <path d="M 41.947031 37.265717 
L 49.192823 37.467368 
L 62.174867 37.570089 
L 74.855003 37.588322 
L 75.005957 35.882809 
L 78.025037 36.446428 
L 78.175991 36.46912 
L 78.326945 34.785767 
L 80.591255 35.513179 
L 81.346025 35.71104 
L 81.496979 34.042697 
L 83.610335 34.909565 
L 85.270829 35.439362 
L 85.421783 33.776398 
L 87.384185 34.650037 
L 89.648495 35.412625 
L 92.214713 36.040894 
L 95.384747 36.572992 
L 99.309551 36.98636 
L 104.441987 37.285404 
L 104.592941 35.585889 
L 107.310113 36.192501 
L 107.612021 36.247392 
L 107.762975 34.568429 
L 110.027285 35.352167 
L 110.631101 35.524401 
L 110.782055 33.859753 
L 112.895411 34.771297 
L 114.555905 35.328398 
L 114.706859 33.667631 
L 116.669261 34.56617 
L 118.933571 35.350494 
L 121.499789 35.996669 
L 124.518869 36.522753 
L 128.292719 36.943643 
L 133.274201 37.257122 
L 135.387557 37.339022 
L 135.538511 35.638445 
L 138.255683 36.229168 
L 138.708545 36.308557 
L 138.859499 34.628383 
L 141.123809 35.396584 
L 141.425717 35.482681 
L 141.576671 33.818859 
L 143.539073 34.682777 
L 144.746705 35.112971 
L 144.897659 33.456469 
L 146.860061 34.403351 
L 148.973417 35.182147 
L 151.388681 35.842186 
L 154.256807 36.395497 
L 157.728749 36.836827 
L 162.257369 37.177761 
L 165.880265 37.335857 
L 166.031219 35.635343 
L 168.748391 36.227004 
L 169.352207 36.331982 
L 169.503161 34.651344 
L 171.767471 35.413593 
L 172.069379 35.499024 
L 172.220333 33.834879 
L 174.182735 34.695129 
L 176.145137 35.358438 
L 176.296091 33.697076 
L 178.258493 34.588874 
L 180.522803 35.367314 
L 183.089021 36.008642 
L 186.108101 36.530779 
L 189.881951 36.948511 
L 192.750077 37.152089 
L 192.750077 37.152089 
" clip-path="url(#p02471df70c)" style="fill: none; stroke: #0000ff; stroke-linecap: square"/>
   </g>
   <g id="patch_4">
    <path d="M 41.947031 98.772 
L 41.947031 7.2 
" style="fill: none; stroke: #000000; stroke-width: 0.8; stroke-linejoin: miter; stroke-linecap: square"/>
   </g>
   <g id="patch_5">
    <path d="M 192.901031 98.772 
L 192.901031 7.2 
" style="fill: none; stroke: #000000; stroke-width: 0.8; stroke-linejoin: miter; stroke-linecap: square"/>
   </g>
   <g id="patch_6">
    <path d="M 41.947031 98.772 
L 192.901031 98.772 
" style="fill: none; stroke: #000000; stroke-width: 0.8; stroke-linejoin: miter; stroke-linecap: square"/>
   </g>
   <g id="patch_7">
    <path d="M 41.947031 7.2 
L 192.901031 7.2 
" style="fill: none; stroke: #000000; stroke-width: 0.8; stroke-linejoin: miter; stroke-linecap: square"/>
   </g>
   <g id="legend_1">
    <g id="line2d_15">
     <path d="M 96.001531 64.42325 
L 104.001531 64.42325 
L 112.001531 64.42325 
" style="fill: none; stroke: #ff0000; stroke-width: 2; stroke-linecap: square"/>
    </g>
    <g id="text_13">
     <!-- target -->
     <g transform="translate(118.401531 67.22325) scale(0.08 -0.08)">
      <defs>
       <path id="TimesNewRomanPSMT-72" d="M 1038 2947 
L 1038 2303 
Q 1397 2947 1775 2947 
Q 1947 2947 2059 2842 
Q 2172 2738 2172 2600 
Q 2172 2478 2090 2393 
Q 2009 2309 1897 2309 
Q 1788 2309 1652 2417 
Q 1516 2525 1450 2525 
Q 1394 2525 1328 2463 
Q 1188 2334 1038 2041 
L 1038 669 
Q 1038 431 1097 309 
Q 1138 225 1241 169 
Q 1344 113 1538 113 
L 1538 0 
L 72 0 
L 72 113 
Q 291 113 397 181 
Q 475 231 506 341 
Q 522 394 522 644 
L 522 1753 
Q 522 2253 501 2348 
Q 481 2444 426 2487 
Q 372 2531 291 2531 
Q 194 2531 72 2484 
L 41 2597 
L 906 2947 
L 1038 2947 
z
" transform="scale(0.015625)"/>
       <path id="TimesNewRomanPSMT-67" d="M 966 1044 
Q 703 1172 562 1401 
Q 422 1631 422 1909 
Q 422 2334 742 2640 
Q 1063 2947 1563 2947 
Q 1972 2947 2272 2747 
L 2878 2747 
Q 3013 2747 3034 2739 
Q 3056 2731 3066 2713 
Q 3084 2684 3084 2613 
Q 3084 2531 3069 2500 
Q 3059 2484 3036 2475 
Q 3013 2466 2878 2466 
L 2506 2466 
Q 2681 2241 2681 1891 
Q 2681 1491 2375 1206 
Q 2069 922 1553 922 
Q 1341 922 1119 984 
Q 981 866 932 777 
Q 884 688 884 625 
Q 884 572 936 522 
Q 988 472 1138 450 
Q 1225 438 1575 428 
Q 2219 413 2409 384 
Q 2700 344 2873 169 
Q 3047 -6 3047 -263 
Q 3047 -616 2716 -925 
Q 2228 -1381 1444 -1381 
Q 841 -1381 425 -1109 
Q 191 -953 191 -784 
Q 191 -709 225 -634 
Q 278 -519 444 -313 
Q 466 -284 763 25 
Q 600 122 533 198 
Q 466 275 466 372 
Q 466 481 555 628 
Q 644 775 966 1044 
z
M 1509 2797 
Q 1278 2797 1122 2612 
Q 966 2428 966 2047 
Q 966 1553 1178 1281 
Q 1341 1075 1591 1075 
Q 1828 1075 1981 1253 
Q 2134 1431 2134 1813 
Q 2134 2309 1919 2591 
Q 1759 2797 1509 2797 
z
M 934 0 
Q 788 -159 713 -296 
Q 638 -434 638 -550 
Q 638 -700 819 -813 
Q 1131 -1006 1722 -1006 
Q 2284 -1006 2551 -807 
Q 2819 -609 2819 -384 
Q 2819 -222 2659 -153 
Q 2497 -84 2016 -72 
Q 1313 -53 934 0 
z
" transform="scale(0.015625)"/>
      </defs>
      <use xlink:href="#TimesNewRomanPSMT-74"/>
      <use xlink:href="#TimesNewRomanPSMT-61" transform="translate(27.783203 0)"/>
      <use xlink:href="#TimesNewRomanPSMT-72" transform="translate(72.167969 0)"/>
      <use xlink:href="#TimesNewRomanPSMT-67" transform="translate(103.71875 0)"/>
      <use xlink:href="#TimesNewRomanPSMT-65" transform="translate(153.71875 0)"/>
      <use xlink:href="#TimesNewRomanPSMT-74" transform="translate(198.103516 0)"/>
     </g>
    </g>
    <g id="line2d_16">
     <path d="M 96.001531 75.7495 
L 104.001531 75.7495 
L 112.001531 75.7495 
" style="fill: none; stroke: #000000; stroke-linecap: square"/>
    </g>
    <g id="text_14">
     <!-- input -->
     <g transform="translate(118.401531 78.5495) scale(0.08 -0.08)">
      <defs>
       <path id="TimesNewRomanPSMT-6e" d="M 1034 2341 
Q 1538 2947 1994 2947 
Q 2228 2947 2397 2830 
Q 2566 2713 2666 2444 
Q 2734 2256 2734 1869 
L 2734 647 
Q 2734 375 2778 278 
Q 2813 200 2889 156 
Q 2966 113 3172 113 
L 3172 0 
L 1756 0 
L 1756 113 
L 1816 113 
Q 2016 113 2095 173 
Q 2175 234 2206 353 
Q 2219 400 2219 647 
L 2219 1819 
Q 2219 2209 2117 2386 
Q 2016 2563 1775 2563 
Q 1403 2563 1034 2156 
L 1034 647 
Q 1034 356 1069 288 
Q 1113 197 1189 155 
Q 1266 113 1500 113 
L 1500 0 
L 84 0 
L 84 113 
L 147 113 
Q 366 113 442 223 
Q 519 334 519 647 
L 519 1709 
Q 519 2225 495 2337 
Q 472 2450 423 2490 
Q 375 2531 294 2531 
Q 206 2531 84 2484 
L 38 2597 
L 900 2947 
L 1034 2947 
L 1034 2341 
z
" transform="scale(0.015625)"/>
       <path id="TimesNewRomanPSMT-70" d="M -6 2578 
L 875 2934 
L 994 2934 
L 994 2266 
Q 1216 2644 1439 2795 
Q 1663 2947 1909 2947 
Q 2341 2947 2628 2609 
Q 2981 2197 2981 1534 
Q 2981 794 2556 309 
Q 2206 -88 1675 -88 
Q 1444 -88 1275 -22 
Q 1150 25 994 166 
L 994 -706 
Q 994 -1000 1030 -1079 
Q 1066 -1159 1155 -1206 
Q 1244 -1253 1478 -1253 
L 1478 -1369 
L -22 -1369 
L -22 -1253 
L 56 -1253 
Q 228 -1256 350 -1188 
Q 409 -1153 442 -1076 
Q 475 -1000 475 -688 
L 475 2019 
Q 475 2297 450 2372 
Q 425 2447 370 2484 
Q 316 2522 222 2522 
Q 147 2522 31 2478 
L -6 2578 
z
M 994 2081 
L 994 1013 
Q 994 666 1022 556 
Q 1066 375 1236 237 
Q 1406 100 1666 100 
Q 1978 100 2172 344 
Q 2425 663 2425 1241 
Q 2425 1897 2138 2250 
Q 1938 2494 1663 2494 
Q 1513 2494 1366 2419 
Q 1253 2363 994 2081 
z
" transform="scale(0.015625)"/>
       <path id="TimesNewRomanPSMT-75" d="M 2709 2863 
L 2709 1128 
Q 2709 631 2732 520 
Q 2756 409 2807 365 
Q 2859 322 2928 322 
Q 3025 322 3147 375 
L 3191 266 
L 2334 -88 
L 2194 -88 
L 2194 519 
Q 1825 119 1631 15 
Q 1438 -88 1222 -88 
Q 981 -88 804 51 
Q 628 191 559 409 
Q 491 628 491 1028 
L 491 2306 
Q 491 2509 447 2587 
Q 403 2666 317 2708 
Q 231 2750 6 2747 
L 6 2863 
L 1009 2863 
L 1009 947 
Q 1009 547 1148 422 
Q 1288 297 1484 297 
Q 1619 297 1789 381 
Q 1959 466 2194 703 
L 2194 2325 
Q 2194 2569 2105 2655 
Q 2016 2741 1734 2747 
L 1734 2863 
L 2709 2863 
z
" transform="scale(0.015625)"/>
      </defs>
      <use xlink:href="#TimesNewRomanPSMT-69"/>
      <use xlink:href="#TimesNewRomanPSMT-6e" transform="translate(27.783203 0)"/>
      <use xlink:href="#TimesNewRomanPSMT-70" transform="translate(77.783203 0)"/>
      <use xlink:href="#TimesNewRomanPSMT-75" transform="translate(127.783203 0)"/>
      <use xlink:href="#TimesNewRomanPSMT-74" transform="translate(177.783203 0)"/>
     </g>
    </g>
    <g id="line2d_17">
     <path d="M 96.001531 87.06075 
L 104.001531 87.06075 
L 112.001531 87.06075 
" style="fill: none; stroke: #0000ff; stroke-linecap: square"/>
    </g>
    <g id="text_15">
     <!-- output -->
     <g transform="translate(118.401531 89.86075) scale(0.08 -0.08)">
      <defs>
       <path id="TimesNewRomanPSMT-6f" d="M 1600 2947 
Q 2250 2947 2644 2453 
Q 2978 2031 2978 1484 
Q 2978 1100 2793 706 
Q 2609 313 2286 112 
Q 1963 -88 1566 -88 
Q 919 -88 538 428 
Q 216 863 216 1403 
Q 216 1797 411 2186 
Q 606 2575 925 2761 
Q 1244 2947 1600 2947 
z
M 1503 2744 
Q 1338 2744 1170 2645 
Q 1003 2547 900 2300 
Q 797 2053 797 1666 
Q 797 1041 1045 587 
Q 1294 134 1700 134 
Q 2003 134 2200 384 
Q 2397 634 2397 1244 
Q 2397 2006 2069 2444 
Q 1847 2744 1503 2744 
z
" transform="scale(0.015625)"/>
      </defs>
      <use xlink:href="#TimesNewRomanPSMT-6f"/>
      <use xlink:href="#TimesNewRomanPSMT-75" transform="translate(50 0)"/>
      <use xlink:href="#TimesNewRomanPSMT-74" transform="translate(100 0)"/>
      <use xlink:href="#TimesNewRomanPSMT-70" transform="translate(127.783203 0)"/>
      <use xlink:href="#TimesNewRomanPSMT-75" transform="translate(177.783203 0)"/>
      <use xlink:href="#TimesNewRomanPSMT-74" transform="translate(227.783203 0)"/>
     </g>
    </g>
   </g>
  </g>
 </g>
 <defs>
  <clipPath id="p02471df70c">
   <rect x="41.947031" y="7.2" width="150.954" height="91.572"/>
  </clipPath>
 </defs>
</svg>
