<?xml version="1.0" encoding="utf-8" standalone="no"?>
<!DOCTYPE svg PUBLIC "-//W3C//DTD SVG 1.1//EN"
  "http://www.w3.org/Graphics/SVG/1.1/DTD/svg11.dtd">
<svg xmlns:xlink="http://www.w3.org/1999/xlink" width="72pt" height="144pt" viewBox="0 0 72 144" xmlns="http://www.w3.org/2000/svg" version="1.1">
 <metadata>
  <rdf:RDF xmlns:dc="http://purl.org/dc/elements/1.1/" xmlns:cc="http://creativecommons.org/ns#" xmlns:rdf="http://www.w3.org/1999/02/22-rdf-syntax-ns#">
   <cc:Work>
    <dc:type rdf:resource="http://purl.org/dc/dcmitype/StillImage"/>
    <dc:date>2025-12-19T18:34:54.940296</dc:date>
    <dc:format>image/svg+xml</dc:format>
    <dc:creator>
     <cc:Agent>
      <dc:title>Matplotlib v3.10.5, https://matplotlib.org/</dc:title>
     </cc:Agent>
    </dc:creator>
   </cc:Work>
  </rdf:RDF>
 </metadata>
 <defs>
  <style type="text/css">*{stroke-linejoin: round; stroke-linecap: butt}</style>
 </defs>
 <g id="figure_1">
  <g id="patch_1">
   <path d="M 0 144 
L 72 144 
L 72 0 
L 0 0 
z
" style="fill: #ffffff"/>
  </g>
  <g id="axes_1">
   <g id="patch_2">
    <path d="M 0 144 
L 14.4 144 
L 14.4 0 
L 0 0 
z
" clip-path="url(#pca0ac72807)" style="fill: #808080; opacity: 0.1; stroke: #808080; stroke-linejoin: miter"/>
   </g>
   <g id="patch_3">
    <path d="M 0 144 
L 14.4 144 
L 14.4 0 
L 0 0 
z
" clip-path="url(#pca0ac72807)" style="fill: #808080; opacity: 0.1; stroke: #808080; stroke-linejoin: miter"/>
   </g>
   <g id="patch_4">
    <path d="M 0 144 
L 14.4 144 
L 14.4 0 
L 0 0 
z
" clip-path="url(#pca0ac72807)" style="fill: #808080; opacity: 0.1; stroke: #808080; stroke-linejoin: miter"/>
   </g>
   <g id="line2d_1">
    <path d="M 0 144 
L 0 0 
" clip-path="url(#pca0ac72807)" style="fill: none; stroke: #808080; stroke-width: 1.5; stroke-linecap: square"/>
   </g>
   <g id="line2d_2">
    <path d="M 14.472 117.863532 
L 15.48 115.428577 
L 16.2 114.213423 
L 16.776 113.652746 
L 17.208 113.497371 
L 17.64 113.576122 
L 18.072 113.88621 
L 18.576 114.52527 
L 19.224 115.736093 
L 20.088 117.869618 
L 22.824 125.068349 
L 23.472 126.090593 
L 24.048 126.602 
L 24.48 126.718514 
L 24.912 126.600788 
L 25.344 126.252995 
L 25.92 125.453804 
L 26.64 123.990271 
L 27.648 121.342179 
L 29.736 115.731241 
L 30.456 114.413358 
L 31.032 113.755851 
L 31.536 113.507054 
L 31.968 113.546754 
L 32.4 113.818831 
L 32.904 114.416651 
L 33.552 115.582389 
L 34.416 117.675273 
L 37.368 125.332969 
L 38.016 126.255376 
L 38.52 126.637613 
L 38.952 126.715149 
L 39.384 126.558566 
L 39.888 126.087839 
L 40.464 125.199051 
L 41.184 123.646599 
L 42.336 120.518314 
L 43.992 116.051172 
L 44.784 114.521804 
L 45.36 113.816832 
L 45.864 113.52325 
L 46.296 113.523859 
L 46.728 113.757656 
L 47.232 114.313646 
L 47.88 115.433151 
L 48.672 117.29397 
L 50.328 121.954199 
L 51.408 124.635049 
L 52.128 125.902193 
L 52.704 126.511585 
L 53.136 126.705669 
L 53.568 126.66597 
L 54 126.393893 
L 54.504 125.796072 
L 55.152 124.630334 
L 56.016 122.53745 
L 58.968 114.879754 
L 59.616 113.957347 
L 60.12 113.57511 
L 60.552 113.497574 
L 60.984 113.654157 
L 61.488 114.124884 
L 62.064 115.013672 
L 62.784 116.566124 
L 63.936 119.694409 
L 65.592 124.161552 
L 66.384 125.690919 
L 66.96 126.395891 
L 67.464 126.689473 
L 67.896 126.688864 
L 68.328 126.455067 
L 68.832 125.899077 
L 69.48 124.779572 
L 70.272 122.918753 
L 71.928 118.258524 
L 71.928 118.258524 
" clip-path="url(#pca0ac72807)" style="fill: none; stroke: #ff0000; stroke-width: 2; stroke-linecap: square"/>
   </g>
   <g id="line2d_3">
    <path d="M 0 137.454545 
L 0.216 135.262345 
L 0.288 135.374763 
L 0.36 135.956617 
L 0.504 134.874008 
L 0.72 136.322806 
L 0.792 135.437923 
L 0.864 135.50423 
L 1.008 135.445535 
L 1.08 135.023388 
L 1.152 135.225472 
L 1.296 135.726643 
L 1.368 135.180886 
L 1.44 135.252282 
L 1.512 136.250311 
L 1.584 135.53596 
L 1.656 135.56721 
L 1.728 135.998721 
L 1.8 135.925819 
L 1.944 135.052237 
L 2.16 136.236649 
L 2.232 134.781167 
L 2.304 134.798123 
L 2.52 135.355023 
L 2.736 134.78036 
L 2.88 135.244213 
L 2.952 134.775303 
L 3.024 134.85473 
L 3.24 135.723313 
L 3.312 135.887891 
L 3.384 135.291832 
L 3.456 135.542799 
L 3.528 135.383511 
L 3.6 136.084742 
L 3.672 134.726206 
L 3.744 135.137333 
L 3.816 135.209592 
L 3.888 135.098772 
L 3.96 135.714982 
L 4.032 134.91025 
L 4.176 135.602129 
L 4.248 134.897717 
L 4.32 135.550896 
L 4.392 135.138116 
L 4.536 135.651593 
L 4.752 134.464382 
L 4.824 135.127724 
L 4.896 135.037558 
L 4.968 135.414566 
L 5.04 135.232487 
L 5.184 135.452403 
L 5.256 135.381828 
L 5.4 136.205964 
L 5.472 135.993342 
L 5.688 134.685925 
L 5.76 135.556036 
L 5.832 135.397012 
L 6.048 135.538733 
L 6.12 136.741719 
L 6.264 135.554818 
L 6.336 135.485124 
L 6.408 134.354712 
L 6.48 134.68242 
L 6.624 135.890614 
L 6.696 135.836491 
L 6.768 135.031764 
L 6.84 135.38707 
L 6.912 135.795327 
L 6.984 135.77636 
L 7.128 134.57158 
L 7.272 135.102385 
L 7.344 135.084746 
L 7.416 136.338089 
L 7.488 135.402674 
L 7.56 135.75531 
L 7.704 135.905051 
L 7.848 134.956357 
L 8.064 135.248424 
L 8.28 135.67315 
L 8.352 135.914418 
L 8.568 135.112404 
L 8.712 136.376106 
L 8.784 136.274377 
L 8.856 136.243472 
L 9.072 134.663667 
L 9.144 134.687808 
L 9.36 135.728813 
L 9.432 135.735592 
L 9.504 135.966058 
L 9.792 134.242783 
L 9.864 134.862974 
L 9.936 134.505267 
L 10.008 134.7953 
L 10.08 134.023989 
L 10.152 134.070444 
L 10.368 134.638323 
L 10.584 135.814176 
L 10.944 134.497608 
L 11.088 134.619477 
L 11.304 134.967692 
L 11.448 133.842332 
L 11.52 133.993198 
L 11.592 133.881459 
L 11.808 134.740277 
L 11.88 134.210879 
L 11.952 134.403539 
L 12.024 134.616723 
L 12.168 133.780674 
L 12.456 135.744842 
L 12.6 135.830954 
L 12.816 134.301382 
L 13.104 136.101061 
L 13.464 134.181747 
L 13.536 134.314823 
L 13.608 135.087139 
L 13.68 134.972634 
L 13.824 135.345312 
L 14.04 134.871957 
L 14.112 134.966613 
L 14.184 134.082106 
L 14.256 134.175258 
L 14.328 135.256918 
L 14.4 117.112032 
L 14.472 117.137608 
L 14.76 115.635927 
L 14.904 116.281866 
L 15.048 116.443511 
L 15.12 116.29007 
L 15.192 116.365633 
L 15.552 116.789936 
L 15.768 115.057711 
L 15.84 114.722277 
L 15.912 114.828882 
L 16.056 114.883853 
L 16.128 114.81295 
L 16.56 115.280626 
L 16.704 113.981914 
L 16.776 114.02979 
L 16.848 114.199142 
L 16.92 113.62772 
L 16.992 113.755997 
L 17.064 113.408619 
L 17.136 113.754153 
L 17.208 113.66898 
L 17.28 113.646953 
L 17.424 114.24502 
L 17.712 114.495878 
L 17.856 114.650155 
L 17.928 114.322791 
L 18 114.437306 
L 18.072 114.274553 
L 18.36 114.785499 
L 18.504 113.880657 
L 18.576 114.141732 
L 18.648 115.02102 
L 18.72 114.76736 
L 18.792 114.743822 
L 18.864 114.85 
L 19.152 115.915433 
L 19.512 116.22066 
L 19.656 116.70403 
L 19.728 116.771396 
L 19.8 116.622706 
L 20.16 118.914271 
L 20.376 118.96017 
L 20.52 118.693325 
L 20.592 120.023255 
L 20.664 120.002859 
L 20.736 119.263427 
L 20.808 119.331785 
L 21.024 120.60367 
L 21.312 120.657477 
L 21.672 122.60543 
L 21.744 122.430146 
L 21.816 122.62885 
L 21.888 122.599246 
L 21.96 122.549887 
L 22.104 124.639793 
L 22.176 124.273386 
L 22.248 124.671068 
L 22.32 124.580687 
L 22.392 124.795311 
L 22.608 124.443646 
L 22.68 124.409776 
L 22.824 124.557028 
L 22.896 124.468904 
L 23.04 125.026812 
L 23.112 125.67039 
L 23.184 125.560222 
L 23.256 125.094111 
L 23.4 126.714225 
L 23.472 126.726382 
L 23.688 127.17217 
L 23.904 126.489712 
L 24.048 126.333332 
L 24.12 126.599477 
L 24.192 126.400914 
L 24.264 126.719294 
L 24.336 126.606449 
L 24.408 126.33215 
L 24.48 126.880377 
L 24.552 126.834024 
L 24.696 126.701407 
L 24.768 126.072661 
L 24.84 126.863953 
L 24.912 126.730153 
L 24.984 126.599002 
L 25.2 125.97084 
L 25.488 125.570965 
L 25.56 124.548794 
L 25.632 124.952524 
L 25.92 124.53721 
L 25.992 124.449479 
L 26.064 125.086809 
L 26.136 124.988196 
L 26.208 124.891536 
L 26.352 124.134056 
L 26.64 123.765933 
L 26.856 123.564197 
L 26.928 123.781363 
L 27.144 121.956167 
L 27.216 122.152543 
L 27.288 122.112028 
L 27.36 122.049403 
L 27.504 121.373202 
L 27.648 121.323531 
L 27.72 120.539727 
L 27.792 120.581196 
L 27.864 120.615452 
L 28.08 119.638022 
L 28.152 119.292945 
L 28.224 119.309051 
L 28.512 119.242445 
L 28.584 119.259551 
L 28.656 118.259546 
L 28.728 118.332938 
L 28.8 117.865257 
L 28.872 117.90963 
L 28.944 118.004609 
L 29.088 116.872102 
L 29.232 117.002168 
L 29.304 116.185182 
L 29.376 116.262821 
L 29.448 116.273225 
L 29.52 116.07412 
L 29.736 116.371809 
L 29.88 116.518233 
L 30.024 115.75613 
L 30.312 115.572497 
L 30.528 114.567965 
L 30.888 112.704806 
L 31.248 113.405073 
L 31.32 113.169567 
L 31.392 113.306915 
L 31.464 113.219976 
L 31.608 113.537742 
L 31.68 113.541998 
L 31.752 113.755182 
L 31.896 112.410103 
L 31.968 112.562489 
L 32.04 112.641858 
L 32.328 113.335156 
L 32.472 112.971073 
L 32.688 113.243476 
L 32.76 113.034148 
L 32.904 113.379517 
L 33.048 114.16623 
L 33.336 114.643055 
L 33.552 115.708657 
L 33.768 115.97611 
L 33.84 115.606852 
L 34.128 116.792266 
L 34.2 116.857885 
L 34.416 118.26789 
L 34.56 117.954132 
L 34.704 118.091476 
L 34.92 120.001258 
L 34.992 120.003339 
L 35.136 119.682094 
L 35.424 121.187592 
L 35.496 121.096185 
L 35.568 122.005072 
L 35.64 121.830606 
L 35.784 121.812061 
L 35.856 121.691221 
L 36.144 123.300173 
L 36.288 123.214503 
L 36.432 124.190602 
L 36.504 123.829314 
L 36.576 123.885304 
L 36.648 125.18573 
L 36.72 125.085159 
L 36.792 124.928411 
L 37.008 126.065637 
L 37.224 125.575216 
L 37.296 126.378443 
L 37.368 126.254256 
L 37.512 126.052267 
L 37.584 126.109356 
L 37.8 127.051935 
L 37.944 126.747799 
L 38.088 127.221272 
L 38.232 126.98108 
L 38.376 126.358437 
L 38.448 126.431474 
L 38.52 126.162834 
L 38.736 127.112576 
L 39.024 126.677234 
L 39.168 127.867052 
L 39.528 127.108482 
L 39.6 127.381867 
L 40.104 125.268541 
L 40.32 125.799117 
L 40.392 125.234922 
L 40.464 125.3345 
L 40.536 125.230983 
L 40.68 126.538251 
L 40.752 126.448734 
L 41.112 125.778858 
L 41.256 124.654691 
L 41.76 124.109922 
L 42.12 121.821151 
L 42.336 121.759298 
L 42.48 121.07569 
L 42.552 121.068428 
L 42.696 119.74008 
L 42.768 119.747333 
L 43.056 119.715311 
L 43.272 118.613657 
L 43.344 118.643212 
L 43.416 118.672183 
L 43.488 118.153212 
L 43.56 118.234949 
L 43.704 118.162661 
L 43.992 115.592575 
L 44.28 115.928948 
L 44.424 115.992091 
L 44.64 115.505016 
L 44.712 115.596122 
L 44.856 115.068832 
L 44.928 115.013918 
L 45 114.373267 
L 45.072 114.486782 
L 45.144 114.598049 
L 45.288 113.884419 
L 45.432 113.407839 
L 45.504 113.504817 
L 46.08 114.385021 
L 46.224 114.068428 
L 46.296 114.117083 
L 46.368 114.517443 
L 46.44 114.351895 
L 46.512 114.465833 
L 46.584 114.376574 
L 46.728 114.358494 
L 46.8 112.125512 
L 46.872 112.283533 
L 47.304 113.122204 
L 47.52 114.561181 
L 47.736 114.836964 
L 47.808 115.773014 
L 47.88 115.417796 
L 47.952 115.427112 
L 48.024 115.549978 
L 48.24 115.306085 
L 48.528 115.551812 
L 48.6 115.592947 
L 49.176 118.860793 
L 49.248 118.726834 
L 49.32 118.754148 
L 49.392 119.586346 
L 49.464 119.441985 
L 49.68 119.390967 
L 49.752 119.356086 
L 50.04 120.001166 
L 50.112 120.764436 
L 50.184 120.701482 
L 50.256 121.017549 
L 50.328 121.958246 
L 50.4 121.921579 
L 50.544 121.76689 
L 50.76 122.764677 
L 50.832 123.676167 
L 50.904 123.55644 
L 50.976 123.417232 
L 51.192 124.118514 
L 51.336 124.002553 
L 51.408 124.58145 
L 51.48 124.492843 
L 51.552 124.405991 
L 51.696 125.226839 
L 52.056 124.748862 
L 52.128 125.028052 
L 52.2 126.183519 
L 52.272 126.136473 
L 52.416 126.151818 
L 52.56 125.843892 
L 52.704 126.733433 
L 52.776 126.602217 
L 52.92 126.462253 
L 52.992 126.519279 
L 53.568 125.447853 
L 53.784 127.519247 
L 53.856 127.357979 
L 53.928 128.1838 
L 54 128.084131 
L 54.648 125.708396 
L 54.72 125.814821 
L 54.792 125.701794 
L 54.864 125.102701 
L 54.936 125.460321 
L 55.008 125.386896 
L 55.224 125.079402 
L 55.368 124.565165 
L 55.584 124.22042 
L 55.656 124.822733 
L 55.728 124.651456 
L 55.8 124.561463 
L 55.872 123.891877 
L 55.944 124.493922 
L 56.016 124.353747 
L 56.16 124.31578 
L 56.448 123.936379 
L 56.664 123.02413 
L 56.736 122.77116 
L 56.952 121.183212 
L 57.024 121.090994 
L 57.168 120.46832 
L 57.24 120.461153 
L 57.312 119.51319 
L 57.384 119.524935 
L 57.528 119.547732 
L 57.6 118.381914 
L 57.672 118.416058 
L 57.816 118.433287 
L 57.96 118.364722 
L 58.104 118.433008 
L 58.248 116.885205 
L 58.32 116.948984 
L 58.536 116.997389 
L 58.752 115.408641 
L 58.824 115.352169 
L 59.184 115.64384 
L 59.256 115.553869 
L 59.4 114.474815 
L 59.544 113.606509 
L 59.832 114.100577 
L 59.904 113.784095 
L 59.976 113.80817 
L 60.048 113.932874 
L 60.12 113.566806 
L 60.192 113.886341 
L 60.264 113.718008 
L 60.408 113.886379 
L 60.696 114.256152 
L 60.768 113.042176 
L 60.84 113.182047 
L 60.912 113.647 
L 60.984 113.013777 
L 61.056 113.15421 
L 61.2 113.268169 
L 61.344 112.879286 
L 61.848 113.682779 
L 61.92 113.73907 
L 61.992 114.476842 
L 62.064 114.098098 
L 62.208 114.364947 
L 62.352 114.814406 
L 62.712 115.023118 
L 62.784 115.535606 
L 62.856 115.425165 
L 63 115.526602 
L 63.144 115.706165 
L 63.432 117.559283 
L 63.792 118.486928 
L 64.08 118.611428 
L 64.152 120.160334 
L 64.224 119.989601 
L 64.368 119.516192 
L 64.656 120.949997 
L 64.728 120.933293 
L 64.8 120.866996 
L 64.872 121.077905 
L 65.016 122.216655 
L 65.376 123.609363 
L 65.448 123.540003 
L 65.664 123.935083 
L 65.736 123.499711 
L 65.88 124.084939 
L 65.952 124.006163 
L 66.024 123.928947 
L 66.096 124.050088 
L 66.168 123.941793 
L 66.528 126.501635 
L 66.96 125.676881 
L 67.104 126.495178 
L 67.176 126.167738 
L 67.32 126.776159 
L 67.464 126.51465 
L 67.536 126.837727 
L 67.608 126.704446 
L 67.68 126.573804 
L 67.752 127.286825 
L 67.824 127.144651 
L 67.896 127.005293 
L 67.968 127.174079 
L 68.184 126.691196 
L 68.4 125.645257 
L 68.616 125.967674 
L 68.688 127.077856 
L 68.76 126.495454 
L 68.832 127.178734 
L 68.904 127.038701 
L 69.264 126.553223 
L 69.336 125.937272 
L 69.408 126.662896 
L 69.48 126.533077 
L 69.552 126.464332 
L 69.624 125.865626 
L 69.696 126.498153 
L 69.768 126.240732 
L 70.272 125.408741 
L 70.344 125.500582 
L 70.704 125.022631 
L 71.064 122.582265 
L 71.28 122.43809 
L 71.424 121.356976 
L 71.784 121.242866 
L 71.928 121.331887 
L 71.928 121.331887 
" clip-path="url(#pca0ac72807)" style="fill: none; stroke: #000000; stroke-linecap: square"/>
   </g>
   <g id="line2d_4">
    <path d="M 0 120.006934 
L 7.2 120.092904 
L 15.696 120.105091 
L 15.768 119.586167 
L 15.84 119.596467 
L 17.28 119.764559 
L 17.352 119.252378 
L 17.424 119.269287 
L 18.792 119.533904 
L 18.864 119.026289 
L 18.936 119.047675 
L 20.664 119.451243 
L 20.736 118.945265 
L 20.808 118.968255 
L 22.608 119.416041 
L 24.912 119.742345 
L 28.152 119.958355 
L 29.808 120.012924 
L 29.88 119.495825 
L 29.952 119.507914 
L 31.32 119.697096 
L 31.392 119.18625 
L 31.464 119.204468 
L 32.76 119.477117 
L 32.832 118.970627 
L 32.904 118.993114 
L 34.632 119.41748 
L 34.704 118.912171 
L 34.776 118.935816 
L 36.504 119.382024 
L 38.736 119.716692 
L 41.904 119.944724 
L 44.568 120.029238 
L 44.64 119.511816 
L 44.712 119.523588 
L 46.152 119.715706 
L 46.224 119.204492 
L 46.296 119.222349 
L 47.448 119.464423 
L 47.52 118.958184 
L 47.592 118.980918 
L 49.032 119.351934 
L 49.104 118.847922 
L 49.176 118.87284 
L 50.904 119.343054 
L 53.064 119.687432 
L 56.088 119.925495 
L 59.112 120.028275 
L 59.184 119.510872 
L 59.256 119.522663 
L 60.768 119.722833 
L 60.84 119.211478 
L 60.912 119.229197 
L 62.064 119.469395 
L 62.136 118.963058 
L 62.208 118.985696 
L 64.008 119.42662 
L 64.08 118.92113 
L 64.152 118.944598 
L 65.88 119.387458 
L 68.112 119.719615 
L 71.28 119.945936 
L 71.928 119.972361 
L 71.928 119.972361 
" clip-path="url(#pca0ac72807)" style="fill: none; stroke: #0000ff; stroke-linecap: square"/>
   </g>
   <g id="line2d_5">
    <path d="M 0 144 
L 0 0 
" clip-path="url(#pca0ac72807)" style="fill: none; stroke: #808080; stroke-width: 1.5; stroke-linecap: square"/>
   </g>
   <g id="line2d_6">
    <path d="M 14.472 71.258607 
L 17.496 71.582935 
L 20.448 71.674462 
L 23.328 71.543461 
L 26.352 71.180915 
L 29.592 70.565285 
L 33.408 69.605145 
L 39.6 67.775069 
L 45.144 66.226632 
L 48.744 65.446426 
L 51.912 64.981807 
L 54.864 64.769179 
L 57.744 64.78065 
L 60.696 65.016033 
L 63.792 65.489008 
L 67.248 66.248184 
L 71.64 67.45795 
L 71.928 67.543159 
L 71.928 67.543159 
" clip-path="url(#pca0ac72807)" style="fill: none; stroke: #ff0000; stroke-width: 2; stroke-linecap: square"/>
   </g>
   <g id="line2d_7">
    <path d="M 0 79.41894 
L 0.072 79.168918 
L 0.144 79.191446 
L 0.216 79.138935 
L 0.36 79.426882 
L 0.432 79.336998 
L 0.648 80.060641 
L 0.792 80.272663 
L 1.008 80.171199 
L 1.152 80.270138 
L 1.224 79.922758 
L 1.296 79.975705 
L 1.44 80.393612 
L 1.656 80.615515 
L 1.8 80.66234 
L 1.872 80.387012 
L 2.088 80.75204 
L 2.232 80.953092 
L 2.376 81.242742 
L 2.52 81.242636 
L 2.592 80.869637 
L 2.664 80.996905 
L 2.736 81.552282 
L 2.808 81.38774 
L 2.952 81.317415 
L 3.24 81.750505 
L 3.456 81.691854 
L 3.528 81.815173 
L 3.6 81.768866 
L 3.672 81.739915 
L 3.816 82.321797 
L 3.96 81.892637 
L 4.464 82.43501 
L 4.824 82.10218 
L 5.112 82.675184 
L 5.184 82.664 
L 5.256 82.409637 
L 5.328 82.586817 
L 5.4 82.548384 
L 5.544 82.559042 
L 5.688 82.870719 
L 5.76 82.67319 
L 5.976 82.919573 
L 6.048 82.599552 
L 6.12 82.756532 
L 6.192 82.938784 
L 6.264 82.891384 
L 6.408 82.773936 
L 6.48 82.923689 
L 6.552 82.871873 
L 6.624 82.821083 
L 6.696 83.006382 
L 6.768 83.593501 
L 6.84 83.549249 
L 6.984 83.156233 
L 7.272 82.971323 
L 7.488 83.431337 
L 7.56 83.588287 
L 7.776 83.237942 
L 7.92 83.075478 
L 8.136 83.481173 
L 8.208 83.301498 
L 8.424 83.587115 
L 8.496 83.472695 
L 8.568 83.682275 
L 8.64 83.615439 
L 8.928 83.418541 
L 9.072 83.756258 
L 9.144 83.725223 
L 9.288 83.923599 
L 9.504 83.385049 
L 9.648 83.777974 
L 9.936 84.007534 
L 10.008 83.934257 
L 10.08 83.579256 
L 10.152 83.632461 
L 10.296 83.542751 
L 10.44 83.898436 
L 10.584 83.850681 
L 10.728 83.908162 
L 11.016 83.324484 
L 11.16 83.90262 
L 11.232 83.868687 
L 11.304 83.959156 
L 11.52 83.445527 
L 11.592 83.651807 
L 11.736 83.616544 
L 11.88 83.682348 
L 12.096 83.750296 
L 12.24 83.525378 
L 12.312 84.000456 
L 12.384 83.9881 
L 12.456 83.646922 
L 12.528 83.876029 
L 12.744 83.634982 
L 12.96 83.789428 
L 13.032 83.629574 
L 13.176 83.893094 
L 13.248 83.595305 
L 13.392 83.917417 
L 13.752 83.596497 
L 13.824 84.105878 
L 13.896 84.051492 
L 14.04 83.680216 
L 14.112 83.650686 
L 14.184 83.819332 
L 14.256 83.749782 
L 14.328 83.548349 
L 14.472 71.649375 
L 14.544 71.618018 
L 14.76 71.779626 
L 15.192 71.376308 
L 15.264 71.555078 
L 15.336 71.524586 
L 15.552 71.259988 
L 15.696 71.175187 
L 15.768 71.477775 
L 15.84 71.425542 
L 15.984 71.299525 
L 16.056 71.550267 
L 16.128 71.436621 
L 16.416 71.899392 
L 17.136 71.268878 
L 17.208 71.365485 
L 17.424 71.865531 
L 17.496 71.745642 
L 17.568 71.819974 
L 17.64 71.967342 
L 17.712 71.892976 
L 18.504 71.097732 
L 18.936 71.689845 
L 19.008 71.620973 
L 19.08 71.498251 
L 19.152 71.569392 
L 19.224 71.546245 
L 19.296 71.699034 
L 19.368 71.652776 
L 19.728 71.326336 
L 19.8 71.491582 
L 19.872 71.426636 
L 19.944 71.361017 
L 20.16 71.609555 
L 20.232 71.542273 
L 20.304 71.661972 
L 20.376 71.538439 
L 20.52 71.730302 
L 20.664 71.615127 
L 20.736 71.982499 
L 20.808 71.883007 
L 20.952 71.719735 
L 21.024 71.877193 
L 21.096 71.804611 
L 21.6 71.462183 
L 21.744 71.409635 
L 21.816 71.320387 
L 22.032 71.536919 
L 22.176 71.503176 
L 22.248 71.609709 
L 22.32 71.504494 
L 22.464 71.705854 
L 22.536 71.636665 
L 22.608 71.787663 
L 22.68 71.716854 
L 23.184 71.188078 
L 23.256 71.267046 
L 23.328 71.283173 
L 23.4 71.751794 
L 23.472 71.668893 
L 23.688 71.406007 
L 23.904 71.500557 
L 23.976 71.435433 
L 24.048 71.527254 
L 24.12 71.461602 
L 24.408 71.15916 
L 24.48 71.645292 
L 24.552 71.609315 
L 24.84 71.635972 
L 25.488 71.037599 
L 25.632 71.353894 
L 25.848 71.588539 
L 26.28 71.184575 
L 26.352 71.317789 
L 26.424 71.200458 
L 26.496 71.340797 
L 26.568 71.278836 
L 26.928 71.075252 
L 27.072 71.053717 
L 27.144 70.99744 
L 27.216 71.183712 
L 27.288 71.124861 
L 27.432 71.010632 
L 27.504 71.150042 
L 27.576 71.091858 
L 28.008 70.832705 
L 28.152 71.171346 
L 28.224 71.11274 
L 28.368 71.1334 
L 28.512 70.881727 
L 29.016 71.13003 
L 29.232 70.842761 
L 29.52 70.642317 
L 29.592 70.594186 
L 29.736 70.649258 
L 29.952 70.482475 
L 30.096 70.735411 
L 30.24 70.636452 
L 30.312 70.264605 
L 30.384 70.316534 
L 30.528 70.271264 
L 30.6 70.323549 
L 30.672 70.094832 
L 30.744 70.191889 
L 30.96 70.116287 
L 31.536 69.774417 
L 31.608 70.077486 
L 31.68 70.040539 
L 31.896 69.941398 
L 31.968 70.058638 
L 32.112 69.939758 
L 32.328 69.839116 
L 32.472 69.90888 
L 32.544 69.853679 
L 32.616 69.571924 
L 32.688 69.771908 
L 32.76 69.676573 
L 33.12 69.432785 
L 33.408 69.220799 
L 33.48 69.442248 
L 33.552 69.417878 
L 33.84 69.308837 
L 33.912 69.51403 
L 33.984 69.488239 
L 34.272 69.272438 
L 34.416 69.386852 
L 34.488 69.361621 
L 34.632 68.940655 
L 35.064 68.925073 
L 35.208 69.119522 
L 35.856 68.750057 
L 35.928 68.74323 
L 36 68.575681 
L 36.072 68.659092 
L 36.216 68.664333 
L 36.36 68.883231 
L 36.504 68.612588 
L 36.576 68.831567 
L 36.648 68.76492 
L 36.936 68.658907 
L 37.08 68.352979 
L 37.368 68.241741 
L 37.44 68.241141 
L 37.584 68.112696 
L 37.728 68.116568 
L 37.8 67.78131 
L 37.872 67.94132 
L 38.088 67.864047 
L 38.232 67.633365 
L 38.304 67.644811 
L 38.52 67.988413 
L 38.808 68.063017 
L 38.88 68.065956 
L 39.096 67.777198 
L 39.24 67.797985 
L 39.384 67.676523 
L 39.6 67.671231 
L 39.816 67.291367 
L 40.032 67.284813 
L 40.248 67.338773 
L 40.464 66.975463 
L 40.536 66.999935 
L 40.68 67.253425 
L 40.968 67.189971 
L 41.112 67.096185 
L 41.328 67.25008 
L 41.4 67.21329 
L 41.472 66.983815 
L 41.544 67.008122 
L 41.76 67.027179 
L 41.832 67.043745 
L 42.12 66.697996 
L 42.336 66.713011 
L 42.408 66.475081 
L 42.48 66.509461 
L 42.912 66.648645 
L 42.984 66.466743 
L 43.056 66.501288 
L 43.128 66.572415 
L 43.2 66.35563 
L 43.272 66.392375 
L 43.416 66.463698 
L 43.56 66.099594 
L 43.848 66.301042 
L 43.92 66.102555 
L 43.992 66.144311 
L 44.064 66.185241 
L 44.208 66.110773 
L 44.352 66.193137 
L 44.424 65.9655 
L 44.496 66.102551 
L 44.784 66.119654 
L 45 65.575343 
L 45.072 65.627538 
L 45.288 65.778004 
L 45.36 65.63733 
L 45.432 65.688298 
L 46.152 66.078146 
L 46.224 66.076491 
L 46.44 65.116691 
L 47.52 65.907522 
L 47.736 65.702956 
L 47.808 65.752624 
L 47.88 65.217885 
L 47.952 65.277158 
L 48.24 64.830541 
L 48.528 65.098132 
L 48.6 65.002756 
L 48.672 65.066288 
L 49.392 65.613219 
L 49.464 65.102535 
L 49.536 65.164091 
L 49.68 65.243723 
L 49.752 64.896226 
L 49.824 64.923726 
L 50.4 65.297686 
L 50.616 65.302114 
L 50.904 65.314967 
L 50.976 65.104031 
L 51.048 65.165558 
L 51.192 64.82198 
L 51.264 64.889092 
L 52.2 65.090191 
L 52.344 64.943006 
L 52.488 65.02182 
L 52.56 64.839941 
L 52.632 64.906697 
L 52.704 64.955692 
L 52.776 64.752556 
L 52.848 64.821042 
L 53.28 65.204404 
L 53.352 65.106924 
L 53.424 64.734483 
L 53.496 64.803327 
L 53.64 64.93007 
L 53.712 64.782581 
L 53.784 64.824548 
L 54 64.627635 
L 54.144 64.761654 
L 54.288 64.578787 
L 54.648 64.924459 
L 54.72 64.832521 
L 54.792 64.899424 
L 55.224 65.188006 
L 55.296 64.81396 
L 55.368 64.88123 
L 55.512 64.958705 
L 55.584 64.614368 
L 55.656 64.669151 
L 55.8 64.808037 
L 56.016 64.512803 
L 56.304 64.731581 
L 56.376 64.643463 
L 56.448 64.714109 
L 56.88 65.080857 
L 57.024 64.709624 
L 57.096 64.77896 
L 57.456 65.030991 
L 57.6 64.663934 
L 57.672 64.734175 
L 57.744 64.803025 
L 57.816 64.713492 
L 57.888 64.782751 
L 57.96 64.85064 
L 58.032 64.705298 
L 58.104 64.77472 
L 58.392 65.038932 
L 58.536 64.714018 
L 58.608 64.824775 
L 58.824 65.157798 
L 59.184 65.4027 
L 59.4 65.047759 
L 59.472 65.1104 
L 59.616 64.88962 
L 59.904 65.072098 
L 59.976 64.681299 
L 60.048 64.751196 
L 60.264 64.832178 
L 60.48 64.983285 
L 60.552 65.054873 
L 60.696 65.390308 
L 60.768 65.196928 
L 60.84 65.256616 
L 61.056 65.246025 
L 61.128 65.380649 
L 61.2 65.169099 
L 61.272 65.229338 
L 61.776 65.578064 
L 61.92 64.978785 
L 61.992 65.042792 
L 62.208 65.131903 
L 62.28 65.035858 
L 62.352 65.098735 
L 62.712 65.421966 
L 63 65.446928 
L 63.072 65.241736 
L 63.144 65.300537 
L 63.36 65.338774 
L 63.648 65.467132 
L 63.72 65.253184 
L 63.792 65.311757 
L 64.44 65.92708 
L 64.872 65.846148 
L 64.944 65.568222 
L 65.016 65.620558 
L 65.16 65.772639 
L 65.376 65.895149 
L 65.52 66.142425 
L 65.664 66.081801 
L 65.736 66.123968 
L 65.808 65.897014 
L 65.88 65.94284 
L 66.024 65.99461 
L 66.096 66.185314 
L 66.168 66.04076 
L 66.24 66.286117 
L 66.312 66.167139 
L 66.672 66.40793 
L 66.816 66.690313 
L 66.96 66.772747 
L 67.104 66.704585 
L 67.392 66.878524 
L 67.464 67.027906 
L 67.608 66.893295 
L 67.752 66.855881 
L 68.112 66.906182 
L 68.256 67.16903 
L 68.328 66.67168 
L 68.4 66.920985 
L 68.472 66.946537 
L 68.616 66.710995 
L 68.76 66.747084 
L 68.832 66.523325 
L 68.904 66.55675 
L 68.976 66.589513 
L 69.048 66.436955 
L 69.12 66.47209 
L 69.696 66.676585 
L 69.84 67.040397 
L 69.912 67.063584 
L 69.984 66.945857 
L 70.416 67.422867 
L 70.488 67.438481 
L 70.632 67.287772 
L 70.848 67.312854 
L 71.352 67.678832 
L 71.64 67.616439 
L 71.784 67.502095 
L 71.928 67.744392 
L 71.928 67.744392 
" clip-path="url(#pca0ac72807)" style="fill: none; stroke: #000000; stroke-linecap: square"/>
   </g>
   <g id="line2d_8">
    <path d="M 0 67.597411 
L 2.448 67.900356 
L 6.048 68.097001 
L 12.6 68.192909 
L 38.016 68.21144 
L 41.688 68.21145 
L 41.76 67.692501 
L 41.832 67.702776 
L 44.424 67.963843 
L 44.496 67.449796 
L 44.568 67.464877 
L 46.584 67.784987 
L 46.656 67.274482 
L 46.728 67.293034 
L 48.672 67.676228 
L 49.104 67.736747 
L 49.176 67.227197 
L 49.248 67.246686 
L 51.12 67.63786 
L 51.192 67.130268 
L 51.264 67.151675 
L 53.064 67.568645 
L 53.208 67.593848 
L 53.28 67.087128 
L 53.352 67.109389 
L 55.152 67.542996 
L 55.224 67.037282 
L 55.296 67.060531 
L 57.024 67.499259 
L 57.168 67.527183 
L 57.24 67.021783 
L 57.312 67.045338 
L 59.04 67.489858 
L 59.112 67.504146 
L 59.184 66.999201 
L 59.256 67.023204 
L 60.984 67.476161 
L 61.056 67.49072 
L 61.128 66.986042 
L 61.2 67.010305 
L 62.928 67.468179 
L 63.144 67.511462 
L 63.216 67.006372 
L 63.288 67.030233 
L 65.016 67.480511 
L 65.592 67.588579 
L 65.664 67.081963 
L 65.736 67.104327 
L 67.536 67.539925 
L 68.616 67.713964 
L 68.688 67.204865 
L 68.76 67.224795 
L 70.632 67.624845 
L 71.928 67.802181 
L 71.928 67.802181 
" clip-path="url(#pca0ac72807)" style="fill: none; stroke: #0000ff; stroke-linecap: square"/>
   </g>
   <g id="line2d_9">
    <path d="M 0 144 
L 0 0 
" clip-path="url(#pca0ac72807)" style="fill: none; stroke: #808080; stroke-width: 1.5; stroke-linecap: square"/>
   </g>
   <g id="line2d_10">
    <path d="M 14.472 23.738794 
L 14.976 24.258898 
L 15.408 24.400673 
L 15.768 24.299961 
L 16.2 23.920184 
L 16.704 23.138149 
L 17.352 21.657005 
L 18.216 19.047835 
L 20.952 10.247559 
L 21.6 8.998597 
L 22.104 8.425469 
L 22.536 8.236178 
L 22.896 8.29712 
L 23.328 8.630428 
L 23.832 9.362054 
L 24.48 10.788098 
L 25.344 13.347616 
L 28.296 22.708894 
L 28.944 23.835761 
L 29.448 24.302327 
L 29.88 24.396446 
L 30.24 24.256064 
L 30.672 23.830194 
L 31.176 22.998521 
L 31.824 21.463738 
L 32.76 18.564687 
L 35.208 10.594865 
L 35.928 9.110111 
L 36.432 8.484524 
L 36.864 8.247904 
L 37.224 8.269016 
L 37.656 8.555527 
L 38.16 9.236021 
L 38.736 10.428653 
L 39.528 12.653172 
L 40.896 17.33726 
L 42.192 21.47539 
L 42.912 23.146252 
L 43.488 24.007344 
L 43.92 24.337875 
L 44.28 24.396446 
L 44.64 24.256064 
L 45.072 23.830194 
L 45.576 22.998521 
L 46.224 21.463738 
L 47.16 18.564687 
L 49.608 10.594865 
L 50.328 9.110111 
L 50.832 8.484524 
L 51.264 8.247904 
L 51.624 8.269016 
L 52.056 8.555527 
L 52.56 9.236021 
L 53.136 10.428653 
L 53.928 12.653172 
L 55.296 17.33726 
L 56.592 21.47539 
L 57.312 23.146252 
L 57.888 24.007344 
L 58.32 24.337875 
L 58.68 24.396446 
L 59.04 24.256064 
L 59.472 23.830194 
L 59.976 22.998521 
L 60.624 21.463738 
L 61.56 18.564687 
L 64.008 10.594865 
L 64.728 9.110111 
L 65.232 8.484524 
L 65.664 8.247904 
L 66.024 8.269016 
L 66.456 8.555527 
L 66.96 9.236021 
L 67.536 10.428653 
L 68.328 12.653172 
L 69.696 17.33726 
L 70.992 21.47539 
L 71.712 23.146252 
L 71.928 23.522989 
L 71.928 23.522989 
" clip-path="url(#pca0ac72807)" style="fill: none; stroke: #ff0000; stroke-width: 2; stroke-linecap: square"/>
   </g>
   <g id="line2d_11">
    <path d="M 0 14.635785 
L 0.072 14.487569 
L 0.216 16.242664 
L 0.288 15.978886 
L 0.36 15.696382 
L 0.432 17.502627 
L 0.504 16.784507 
L 0.576 16.849352 
L 0.72 15.621073 
L 0.792 16.173665 
L 0.864 15.994999 
L 0.936 16.367688 
L 1.008 16.285402 
L 1.08 17.730152 
L 1.152 17.301925 
L 1.224 17.117584 
L 1.296 17.251277 
L 1.512 15.993345 
L 1.584 16.506821 
L 1.656 16.321558 
L 1.728 16.408094 
L 1.8 16.123201 
L 1.872 16.912368 
L 2.16 15.386221 
L 2.376 17.907859 
L 2.448 17.950461 
L 2.808 15.88766 
L 3.024 17.598942 
L 3.096 16.53489 
L 3.168 16.837759 
L 3.24 16.645944 
L 3.312 16.052387 
L 3.384 16.39285 
L 3.528 15.12099 
L 3.6 15.345586 
L 3.744 16.839891 
L 3.816 16.521623 
L 3.888 16.679699 
L 4.104 16.948564 
L 4.248 16.408317 
L 4.32 17.612583 
L 4.392 17.285208 
L 4.536 16.395846 
L 4.608 16.684971 
L 4.68 16.683272 
L 4.752 16.492109 
L 5.04 17.211305 
L 5.256 16.023452 
L 5.328 15.795251 
L 5.4 14.706957 
L 5.472 15.156568 
L 5.544 15.32358 
L 5.688 17.512321 
L 5.832 17.583941 
L 6.12 15.742824 
L 6.192 16.269423 
L 6.264 15.419628 
L 6.48 17.143698 
L 6.624 16.511448 
L 6.696 15.124407 
L 6.768 15.576441 
L 6.84 15.413137 
L 6.912 15.55421 
L 7.128 17.178198 
L 7.272 15.350274 
L 7.344 15.676599 
L 7.416 15.511311 
L 7.56 15.931249 
L 7.632 17.028506 
L 7.704 16.475723 
L 7.776 16.917734 
L 7.848 16.724335 
L 7.992 15.911448 
L 8.064 16.946566 
L 8.136 16.550382 
L 8.28 16.017695 
L 8.352 16.753687 
L 8.424 15.829305 
L 8.496 16.220563 
L 8.568 16.830996 
L 8.856 14.72751 
L 9.072 17.814387 
L 9.144 17.609856 
L 9.216 17.449417 
L 9.36 16.150695 
L 9.648 15.434919 
L 9.792 17.649227 
L 10.008 16.887618 
L 10.152 17.769009 
L 10.224 17.475761 
L 10.296 17.720284 
L 10.656 15.39286 
L 10.8 16.056685 
L 10.872 16.563767 
L 10.944 16.149706 
L 11.016 17.477615 
L 11.088 16.852174 
L 11.16 17.236787 
L 11.232 17.118196 
L 11.304 16.125185 
L 11.376 16.325075 
L 11.52 16.789853 
L 11.592 16.851776 
L 11.664 17.82278 
L 11.736 17.392719 
L 12.024 16.239115 
L 12.096 16.685811 
L 12.24 15.2687 
L 12.456 16.946797 
L 12.6 15.904723 
L 12.672 16.243151 
L 12.744 16.063109 
L 12.96 17.167571 
L 13.032 16.969225 
L 13.104 16.519946 
L 13.176 16.645718 
L 13.248 17.035444 
L 13.392 16.070387 
L 13.608 17.420572 
L 13.68 16.96542 
L 13.752 17.114709 
L 13.896 16.007755 
L 14.04 17.338579 
L 14.112 16.135006 
L 14.256 18.251545 
L 14.328 17.00885 
L 14.4 25.853653 
L 14.472 25.147942 
L 14.544 24.688523 
L 14.616 25.289725 
L 14.688 24.931261 
L 14.76 25.304971 
L 14.832 25.127 
L 15.336 24.112767 
L 15.48 25.52816 
L 15.624 25.009421 
L 15.768 25.891585 
L 16.344 22.153205 
L 16.416 22.443044 
L 16.488 22.391912 
L 16.56 22.277134 
L 16.704 23.684912 
L 16.848 21.862261 
L 16.92 21.898913 
L 17.064 22.114902 
L 17.208 21.92045 
L 17.64 18.424545 
L 17.712 19.045067 
L 17.784 18.991043 
L 17.856 18.938088 
L 18 19.726849 
L 18.144 18.186342 
L 18.36 17.709622 
L 18.432 18.020888 
L 18.504 17.989163 
L 18.648 18.410641 
L 18.72 18.857866 
L 18.792 18.658904 
L 18.864 18.384973 
L 19.008 16.56595 
L 19.08 16.561012 
L 19.224 16.337016 
L 19.296 16.33661 
L 19.44 16.137613 
L 19.584 14.268473 
L 19.8 14.455157 
L 19.872 13.49017 
L 19.944 13.546133 
L 20.088 13.610905 
L 20.16 12.868833 
L 20.232 12.937098 
L 20.52 12.483679 
L 20.592 11.316202 
L 20.664 11.771035 
L 20.736 12.331066 
L 20.808 12.032741 
L 20.952 11.687604 
L 21.024 11.779257 
L 21.24 8.625234 
L 21.6 9.188706 
L 21.672 8.076272 
L 21.744 8.23943 
L 21.888 7.719339 
L 21.96 7.889564 
L 22.032 7.190611 
L 22.104 7.374841 
L 22.176 7.411038 
L 22.248 7.587367 
L 22.32 7.440442 
L 22.392 7.569432 
L 22.608 8.324374 
L 22.68 8.482619 
L 22.824 8.996284 
L 23.184 9.580305 
L 23.328 8.580103 
L 23.4 7.364923 
L 23.472 7.981943 
L 23.544 7.414184 
L 23.76 8.996882 
L 23.976 9.200103 
L 24.264 9.747206 
L 24.408 11.131989 
L 24.48 11.314691 
L 24.624 11.092365 
L 24.696 11.320693 
L 24.768 12.113546 
L 24.84 11.520921 
L 24.984 12.934682 
L 25.056 12.627712 
L 25.128 12.700751 
L 25.2 12.708792 
L 25.272 12.423034 
L 25.344 12.500126 
L 25.488 12.64976 
L 25.632 13.671037 
L 25.704 13.495876 
L 25.848 15.533876 
L 25.92 15.549373 
L 26.064 16.232137 
L 26.208 16.235447 
L 26.28 17.15053 
L 26.352 16.953222 
L 26.424 16.940616 
L 26.496 17.153369 
L 26.568 17.073248 
L 26.856 17.017095 
L 27 19.086985 
L 27.072 19.032131 
L 27.216 20.675905 
L 27.288 20.589589 
L 27.36 20.504983 
L 27.432 21.997791 
L 27.504 21.655739 
L 27.648 21.079872 
L 27.72 20.985559 
L 27.864 22.769991 
L 27.936 22.642213 
L 28.152 23.462982 
L 28.512 22.758146 
L 28.728 24.033858 
L 28.8 25.691169 
L 28.872 25.505551 
L 28.944 25.323609 
L 29.16 26.268918 
L 29.376 25.527205 
L 29.448 26.595328 
L 29.52 26.521329 
L 29.592 26.458424 
L 29.88 25.561623 
L 29.952 26.207876 
L 30.168 25.24607 
L 30.312 25.56123 
L 30.384 25.378185 
L 30.456 25.860917 
L 30.528 24.797453 
L 30.6 24.988282 
L 30.816 24.376156 
L 30.888 24.946386 
L 30.96 24.826772 
L 31.032 24.997118 
L 31.176 23.123018 
L 31.68 22.088725 
L 31.752 21.163502 
L 31.824 21.611814 
L 31.896 21.850599 
L 32.184 21.172552 
L 32.4 20.889779 
L 32.544 19.17672 
L 32.76 19.010167 
L 32.832 18.799263 
L 33.048 17.093227 
L 33.12 16.974696 
L 33.192 17.413826 
L 33.264 17.328548 
L 33.552 16.677359 
L 33.696 16.961861 
L 33.912 16.924283 
L 34.056 14.797691 
L 34.128 14.827764 
L 34.344 12.235467 
L 34.416 12.455423 
L 34.488 12.374302 
L 34.56 12.049369 
L 34.632 12.070307 
L 34.704 12.154383 
L 34.848 11.182189 
L 34.92 11.283849 
L 34.992 11.07088 
L 35.064 11.174744 
L 35.208 11.476565 
L 35.28 11.252634 
L 35.352 11.352899 
L 35.496 11.547514 
L 35.568 8.936769 
L 35.64 9.082889 
L 35.784 9.35547 
L 35.856 9.136108 
L 36 9.417639 
L 36.144 7.130712 
L 36.576 8.222427 
L 36.648 7.963311 
L 36.792 8.290825 
L 36.864 8.220479 
L 36.936 8.149822 
L 37.008 7.377963 
L 37.08 7.554947 
L 37.224 7.766135 
L 37.296 6.902397 
L 37.368 7.088797 
L 37.728 8.063169 
L 37.944 9.710939 
L 38.016 8.520125 
L 38.088 8.674494 
L 38.664 9.652346 
L 38.736 9.108452 
L 38.808 9.251172 
L 38.952 10.623928 
L 39.024 10.736641 
L 39.096 10.181427 
L 39.168 10.302902 
L 39.312 10.538685 
L 39.456 10.095342 
L 39.672 10.509434 
L 39.96 13.787469 
L 40.248 14.082122 
L 40.392 15.957114 
L 40.464 15.861078 
L 40.68 15.877822 
L 40.824 15.578738 
L 41.112 15.63546 
L 41.256 16.427838 
L 41.328 16.425635 
L 41.616 18.932054 
L 41.688 18.880267 
L 41.976 21.573436 
L 42.048 21.46935 
L 42.192 21.068528 
L 42.408 21.958319 
L 42.48 21.846612 
L 42.552 22.115282 
L 42.624 22.000467 
L 42.912 21.466349 
L 42.984 21.300831 
L 43.056 21.964624 
L 43.128 21.852792 
L 43.2 21.743175 
L 43.416 23.539458 
L 43.488 24.510759 
L 43.56 24.348513 
L 43.632 24.458151 
L 43.704 24.296947 
L 43.776 24.868746 
L 43.848 26.812108 
L 43.92 26.750753 
L 43.992 26.764751 
L 44.208 25.929948 
L 44.28 26.401864 
L 44.352 26.202175 
L 44.568 25.724755 
L 44.64 25.990634 
L 44.928 24.081282 
L 45.072 24.787496 
L 45.144 24.619771 
L 45.288 23.401105 
L 45.36 23.10326 
L 45.504 23.825057 
L 45.72 23.387825 
L 45.792 23.800195 
L 45.864 22.087285 
L 45.936 22.292882 
L 46.08 21.88075 
L 46.224 22.50747 
L 46.296 22.007652 
L 46.368 22.419591 
L 46.728 20.042466 
L 46.8 20.355403 
L 46.872 20.275434 
L 47.016 20.120214 
L 47.088 19.842687 
L 47.16 18.208136 
L 47.232 18.309833 
L 47.376 18.23168 
L 47.448 18.345238 
L 47.52 18.201917 
L 47.592 17.78735 
L 47.664 18.210389 
L 47.736 18.172891 
L 47.808 18.136135 
L 47.952 16.72733 
L 48.024 17.097362 
L 48.312 16.365965 
L 48.456 16.364028 
L 48.528 14.798354 
L 48.6 14.828414 
L 48.744 14.886761 
L 48.888 15.212666 
L 49.032 12.467167 
L 49.104 12.543385 
L 49.176 12.341077 
L 49.248 12.419791 
L 49.32 12.496947 
L 49.464 11.530917 
L 49.536 11.625673 
L 49.608 11.718552 
L 49.824 11.279468 
L 49.896 11.379203 
L 49.968 9.912228 
L 50.04 10.039034 
L 50.256 10.226772 
L 50.4 9.986551 
L 50.544 10.234737 
L 50.832 8.463433 
L 51.048 8.962257 
L 51.12 8.557149 
L 51.48 9.47617 
L 51.552 9.269205 
L 52.056 10.068331 
L 52.2 8.76776 
L 52.272 8.917226 
L 52.344 8.74397 
L 52.416 8.893907 
L 52.56 9.616004 
L 52.632 9.547899 
L 52.848 9.945447 
L 52.92 8.866946 
L 52.992 9.014448 
L 53.136 9.300748 
L 53.28 10.246019 
L 53.424 10.125309 
L 53.64 10.485835 
L 53.784 9.382749 
L 54 11.627897 
L 54.144 11.811729 
L 54.216 11.698118 
L 54.432 11.971994 
L 54.576 13.037726 
L 54.792 13.279915 
L 55.08 15.647229 
L 55.44 15.71092 
L 55.512 17.310651 
L 55.584 17.290968 
L 55.656 17.27521 
L 55.8 17.038832 
L 55.944 18.925439 
L 56.016 18.873783 
L 56.16 18.773519 
L 56.232 19.387132 
L 56.304 19.326334 
L 56.448 18.897207 
L 56.52 19.508262 
L 56.592 19.263663 
L 56.736 19.148112 
L 56.88 20.753984 
L 56.952 20.666123 
L 57.024 20.260239 
L 57.096 22.621758 
L 57.168 22.496915 
L 57.24 22.374544 
L 57.456 23.810831 
L 57.528 23.498054 
L 57.6 23.900141 
L 57.672 23.749986 
L 57.888 23.317125 
L 57.96 24.429008 
L 58.032 24.268382 
L 58.104 24.110935 
L 58.248 25.153787 
L 58.536 24.524634 
L 58.68 26.768753 
L 58.824 26.160152 
L 58.896 26.26993 
L 58.968 26.072853 
L 59.256 24.342531 
L 59.328 24.561782 
L 59.4 24.398526 
L 59.472 24.782785 
L 59.616 23.205066 
L 59.76 22.934981 
L 59.832 23.256098 
L 59.904 23.118695 
L 60.048 22.857136 
L 60.12 23.389785 
L 60.192 23.249734 
L 60.336 22.146569 
L 60.48 20.380678 
L 60.624 19.633154 
L 60.696 19.713943 
L 60.84 19.426287 
L 60.912 19.439638 
L 60.984 19.943221 
L 61.128 18.907913 
L 61.2 18.856604 
L 61.344 19.420039 
L 61.56 18.846241 
L 61.704 18.747057 
L 61.92 16.610753 
L 62.064 16.812325 
L 62.136 16.802508 
L 62.352 15.327936 
L 62.424 15.652192 
L 62.496 15.591095 
L 62.568 16.05762 
L 62.64 15.879915 
L 62.784 15.897034 
L 62.856 15.702534 
L 63 14.713468 
L 63.144 14.776321 
L 63.36 12.18077 
L 63.504 12.342926 
L 63.72 10.825882 
L 64.08 11.275573 
L 64.224 10.313869 
L 64.512 9.597359 
L 64.584 9.598063 
L 64.656 8.729247 
L 64.728 9.135081 
L 64.8 9.09587 
L 65.016 9.519808 
L 65.088 8.985151 
L 65.16 7.565579 
L 65.232 7.883525 
L 65.304 6.921328 
L 65.376 7.107354 
L 65.808 7.727864 
L 65.952 7.22092 
L 66.384 8.56169 
L 66.528 6.545455 
L 66.6 6.738922 
L 66.96 7.585112 
L 67.032 7.508404 
L 67.176 8.754559 
L 67.392 9.019091 
L 67.464 8.99919 
L 67.608 9.153753 
L 67.68 9.094801 
L 67.752 8.204755 
L 67.824 8.370883 
L 67.896 8.528207 
L 68.04 9.958804 
L 68.184 10.133827 
L 68.256 12.420217 
L 68.328 12.177601 
L 68.544 12.38262 
L 68.616 11.796418 
L 68.688 11.959625 
L 68.76 11.86306 
L 68.832 11.954775 
L 68.976 12.973798 
L 69.048 13.039985 
L 69.12 12.902054 
L 69.192 12.969661 
L 69.264 12.871539 
L 69.408 13.892613 
L 69.552 13.993056 
L 69.696 16.41222 
L 69.84 16.335687 
L 69.912 17.585803 
L 69.984 17.560672 
L 70.2 16.817967 
L 70.272 16.808039 
L 70.416 16.475337 
L 70.56 16.469111 
L 71.064 21.020003 
L 71.136 20.852623 
L 71.208 20.773463 
L 71.28 20.940821 
L 71.496 20.476687 
L 71.568 20.846478 
L 71.64 20.573953 
L 71.856 21.351636 
L 71.928 21.322114 
" clip-path="url(#pca0ac72807)" style="fill: none; stroke: #000000; stroke-linecap: square"/>
   </g>
   <g id="line2d_12">
    <path d="M 0 15.892355 
L 3.024 16.13341 
L 7.92 16.269541 
L 20.016 16.314916 
L 20.88 16.315265 
L 20.952 15.796341 
L 21.024 15.806641 
L 22.104 15.938793 
L 22.176 15.427323 
L 22.248 15.44493 
L 23.4 15.68361 
L 23.472 15.177193 
L 23.544 15.199753 
L 24.984 15.567918 
L 25.056 15.063792 
L 25.128 15.088596 
L 26.856 15.556688 
L 29.016 15.899512 
L 32.04 16.1365 
L 35.208 16.241864 
L 35.28 15.724393 
L 35.352 15.736118 
L 36.576 15.903406 
L 36.648 15.392637 
L 36.72 15.410931 
L 37.944 15.671942 
L 38.016 15.165756 
L 38.088 15.188542 
L 39.456 15.545129 
L 39.528 15.041454 
L 39.6 15.066701 
L 41.328 15.543139 
L 43.488 15.892076 
L 46.512 16.133289 
L 49.752 16.242037 
L 49.824 15.724563 
L 49.896 15.736285 
L 51.192 15.911703 
L 51.264 15.40077 
L 51.336 15.418902 
L 52.632 15.690267 
L 52.704 15.183718 
L 52.776 15.206148 
L 54.144 15.55717 
L 54.216 15.053256 
L 54.288 15.078269 
L 56.016 15.550298 
L 58.176 15.896005 
L 61.2 16.134986 
L 63.936 16.231634 
L 64.008 15.714366 
L 64.08 15.726289 
L 65.16 15.879265 
L 65.232 15.368974 
L 65.304 15.387736 
L 66.24 15.600374 
L 66.312 15.095605 
L 66.384 15.11978 
L 67.464 15.429943 
L 67.536 14.928549 
L 67.608 14.956031 
L 69.048 15.404542 
L 69.12 14.903651 
L 69.192 14.931626 
L 70.776 15.424582 
L 71.928 15.668834 
L 71.928 15.668834 
" clip-path="url(#pca0ac72807)" style="fill: none; stroke: #0000ff; stroke-linecap: square"/>
   </g>
  </g>
 </g>
 <defs>
  <clipPath id="pca0ac72807">
   <rect x="0" y="0" width="72" height="144"/>
  </clipPath>
 </defs>
</svg>
