<?xml version="1.0" encoding="utf-8" standalone="no"?>
<!DOCTYPE svg PUBLIC "-//W3C//DTD SVG 1.1//EN"
  "http://www.w3.org/Graphics/SVG/1.1/DTD/svg11.dtd">
<svg xmlns:xlink="http://www.w3.org/1999/xlink" width="144.475375pt" height="280.941625pt" viewBox="0 0 144.475375 280.941625" xmlns="http://www.w3.org/2000/svg" version="1.1">
 <metadata>
  <rdf:RDF xmlns:dc="http://purl.org/dc/elements/1.1/" xmlns:cc="http://creativecommons.org/ns#" xmlns:rdf="http://www.w3.org/1999/02/22-rdf-syntax-ns#">
   <cc:Work>
    <dc:type rdf:resource="http://purl.org/dc/dcmitype/StillImage"/>
    <dc:date>2025-12-19T20:04:44.915495</dc:date>
    <dc:format>image/svg+xml</dc:format>
    <dc:creator>
     <cc:Agent>
      <dc:title>Matplotlib v3.10.5, https://matplotlib.org/</dc:title>
     </cc:Agent>
    </dc:creator>
   </cc:Work>
  </rdf:RDF>
 </metadata>
 <defs>
  <style type="text/css">*{stroke-linejoin: round; stroke-linecap: butt}</style>
 </defs>
 <g id="figure_1">
  <g id="patch_1">
   <path d="M 0 280.941625 
L 144.475375 280.941625 
L 144.475375 0 
L 0 0 
z
" style="fill: #ffffff"/>
  </g>
  <g id="axes_1">
   <g id="patch_2">
    <path d="M 35.599375 108.876 
L 137.275375 108.876 
L 137.275375 7.2 
L 35.599375 7.2 
z
" style="fill: #ffffff"/>
   </g>
   <g id="matplotlib.axis_1">
    <g id="xtick_1">
     <g id="line2d_1">
      <defs>
       <path id="m61d545f0e2" d="M 0 0 
L 0 -3.5 
" style="stroke: #000000; stroke-width: 0.8"/>
      </defs>
      <g>
       <use xlink:href="#m61d545f0e2" x="46.772562" y="108.876" style="stroke: #000000; stroke-width: 0.8"/>
      </g>
     </g>
     <g id="text_1">
      <!-- 0.0 -->
      <g transform="translate(41.772562 117.931) scale(0.08 -0.08)">
       <defs>
        <path id="TimesNewRomanPSMT-30" d="M 231 2094 
Q 231 2819 450 3342 
Q 669 3866 1031 4122 
Q 1313 4325 1613 4325 
Q 2100 4325 2488 3828 
Q 2972 3213 2972 2159 
Q 2972 1422 2759 906 
Q 2547 391 2217 158 
Q 1888 -75 1581 -75 
Q 975 -75 572 641 
Q 231 1244 231 2094 
z
M 844 2016 
Q 844 1141 1059 588 
Q 1238 122 1591 122 
Q 1759 122 1940 273 
Q 2122 425 2216 781 
Q 2359 1319 2359 2297 
Q 2359 3022 2209 3506 
Q 2097 3866 1919 4016 
Q 1791 4119 1609 4119 
Q 1397 4119 1231 3928 
Q 1006 3669 925 3112 
Q 844 2556 844 2016 
z
" transform="scale(0.015625)"/>
        <path id="TimesNewRomanPSMT-2e" d="M 800 606 
Q 947 606 1047 504 
Q 1147 403 1147 259 
Q 1147 116 1045 14 
Q 944 -88 800 -88 
Q 656 -88 554 14 
Q 453 116 453 259 
Q 453 406 554 506 
Q 656 606 800 606 
z
" transform="scale(0.015625)"/>
       </defs>
       <use xlink:href="#TimesNewRomanPSMT-30"/>
       <use xlink:href="#TimesNewRomanPSMT-2e" transform="translate(50 0)"/>
       <use xlink:href="#TimesNewRomanPSMT-30" transform="translate(75 0)"/>
      </g>
     </g>
    </g>
    <g id="xtick_2">
     <g id="line2d_2">
      <g>
       <use xlink:href="#m61d545f0e2" x="74.705529" y="108.876" style="stroke: #000000; stroke-width: 0.8"/>
      </g>
     </g>
     <g id="text_2">
      <!-- 2.5 -->
      <g transform="translate(69.705529 117.931) scale(0.08 -0.08)">
       <defs>
        <path id="TimesNewRomanPSMT-32" d="M 2934 816 
L 2638 0 
L 138 0 
L 138 116 
Q 1241 1122 1691 1759 
Q 2141 2397 2141 2925 
Q 2141 3328 1894 3587 
Q 1647 3847 1303 3847 
Q 991 3847 742 3664 
Q 494 3481 375 3128 
L 259 3128 
Q 338 3706 661 4015 
Q 984 4325 1469 4325 
Q 1984 4325 2329 3994 
Q 2675 3663 2675 3213 
Q 2675 2891 2525 2569 
Q 2294 2063 1775 1497 
Q 997 647 803 472 
L 1909 472 
Q 2247 472 2383 497 
Q 2519 522 2628 598 
Q 2738 675 2819 816 
L 2934 816 
z
" transform="scale(0.015625)"/>
        <path id="TimesNewRomanPSMT-35" d="M 2778 4238 
L 2534 3706 
L 1259 3706 
L 981 3138 
Q 1809 3016 2294 2522 
Q 2709 2097 2709 1522 
Q 2709 1188 2573 903 
Q 2438 619 2231 419 
Q 2025 219 1772 97 
Q 1413 -75 1034 -75 
Q 653 -75 479 54 
Q 306 184 306 341 
Q 306 428 378 495 
Q 450 563 559 563 
Q 641 563 702 538 
Q 763 513 909 409 
Q 1144 247 1384 247 
Q 1750 247 2026 523 
Q 2303 800 2303 1197 
Q 2303 1581 2056 1914 
Q 1809 2247 1375 2428 
Q 1034 2569 447 2591 
L 1259 4238 
L 2778 4238 
z
" transform="scale(0.015625)"/>
       </defs>
       <use xlink:href="#TimesNewRomanPSMT-32"/>
       <use xlink:href="#TimesNewRomanPSMT-2e" transform="translate(50 0)"/>
       <use xlink:href="#TimesNewRomanPSMT-35" transform="translate(75 0)"/>
      </g>
     </g>
    </g>
    <g id="xtick_3">
     <g id="line2d_3">
      <g>
       <use xlink:href="#m61d545f0e2" x="102.638496" y="108.876" style="stroke: #000000; stroke-width: 0.8"/>
      </g>
     </g>
     <g id="text_3">
      <!-- 5.0 -->
      <g transform="translate(97.638496 117.931) scale(0.08 -0.08)">
       <use xlink:href="#TimesNewRomanPSMT-35"/>
       <use xlink:href="#TimesNewRomanPSMT-2e" transform="translate(50 0)"/>
       <use xlink:href="#TimesNewRomanPSMT-30" transform="translate(75 0)"/>
      </g>
     </g>
    </g>
    <g id="xtick_4">
     <g id="line2d_4">
      <g>
       <use xlink:href="#m61d545f0e2" x="130.571463" y="108.876" style="stroke: #000000; stroke-width: 0.8"/>
      </g>
     </g>
     <g id="text_4">
      <!-- 7.5 -->
      <g transform="translate(125.571463 117.931) scale(0.08 -0.08)">
       <defs>
        <path id="TimesNewRomanPSMT-37" d="M 644 4238 
L 2916 4238 
L 2916 4119 
L 1503 -88 
L 1153 -88 
L 2419 3728 
L 1253 3728 
Q 900 3728 750 3644 
Q 488 3500 328 3200 
L 238 3234 
L 644 4238 
z
" transform="scale(0.015625)"/>
       </defs>
       <use xlink:href="#TimesNewRomanPSMT-37"/>
       <use xlink:href="#TimesNewRomanPSMT-2e" transform="translate(50 0)"/>
       <use xlink:href="#TimesNewRomanPSMT-35" transform="translate(75 0)"/>
      </g>
     </g>
    </g>
    <g id="text_5">
     <!-- Accumulated Train Time [s] -->
     <g transform="translate(18.59425 131.97475) scale(0.12 -0.12)">
      <defs>
       <path id="TimesNewRomanPSMT-41" d="M 2928 1419 
L 1288 1419 
L 1000 750 
Q 894 503 894 381 
Q 894 284 986 211 
Q 1078 138 1384 116 
L 1384 0 
L 50 0 
L 50 116 
Q 316 163 394 238 
Q 553 388 747 847 
L 2238 4334 
L 2347 4334 
L 3822 809 
Q 4000 384 4145 257 
Q 4291 131 4550 116 
L 4550 0 
L 2878 0 
L 2878 116 
Q 3131 128 3220 200 
Q 3309 272 3309 375 
Q 3309 513 3184 809 
L 2928 1419 
z
M 2841 1650 
L 2122 3363 
L 1384 1650 
L 2841 1650 
z
" transform="scale(0.015625)"/>
       <path id="TimesNewRomanPSMT-63" d="M 2631 1088 
Q 2516 522 2178 217 
Q 1841 -88 1431 -88 
Q 944 -88 581 321 
Q 219 731 219 1428 
Q 219 2103 620 2525 
Q 1022 2947 1584 2947 
Q 2006 2947 2278 2723 
Q 2550 2500 2550 2259 
Q 2550 2141 2473 2067 
Q 2397 1994 2259 1994 
Q 2075 1994 1981 2113 
Q 1928 2178 1911 2362 
Q 1894 2547 1784 2644 
Q 1675 2738 1481 2738 
Q 1169 2738 978 2506 
Q 725 2200 725 1697 
Q 725 1184 976 792 
Q 1228 400 1656 400 
Q 1963 400 2206 609 
Q 2378 753 2541 1131 
L 2631 1088 
z
" transform="scale(0.015625)"/>
       <path id="TimesNewRomanPSMT-75" d="M 2709 2863 
L 2709 1128 
Q 2709 631 2732 520 
Q 2756 409 2807 365 
Q 2859 322 2928 322 
Q 3025 322 3147 375 
L 3191 266 
L 2334 -88 
L 2194 -88 
L 2194 519 
Q 1825 119 1631 15 
Q 1438 -88 1222 -88 
Q 981 -88 804 51 
Q 628 191 559 409 
Q 491 628 491 1028 
L 491 2306 
Q 491 2509 447 2587 
Q 403 2666 317 2708 
Q 231 2750 6 2747 
L 6 2863 
L 1009 2863 
L 1009 947 
Q 1009 547 1148 422 
Q 1288 297 1484 297 
Q 1619 297 1789 381 
Q 1959 466 2194 703 
L 2194 2325 
Q 2194 2569 2105 2655 
Q 2016 2741 1734 2747 
L 1734 2863 
L 2709 2863 
z
" transform="scale(0.015625)"/>
       <path id="TimesNewRomanPSMT-6d" d="M 1050 2338 
Q 1363 2650 1419 2697 
Q 1559 2816 1721 2881 
Q 1884 2947 2044 2947 
Q 2313 2947 2506 2790 
Q 2700 2634 2766 2338 
Q 3088 2713 3309 2830 
Q 3531 2947 3766 2947 
Q 3994 2947 4170 2830 
Q 4347 2713 4450 2447 
Q 4519 2266 4519 1878 
L 4519 647 
Q 4519 378 4559 278 
Q 4591 209 4675 161 
Q 4759 113 4950 113 
L 4950 0 
L 3538 0 
L 3538 113 
L 3597 113 
Q 3781 113 3884 184 
Q 3956 234 3988 344 
Q 4000 397 4000 647 
L 4000 1878 
Q 4000 2228 3916 2372 
Q 3794 2572 3525 2572 
Q 3359 2572 3192 2489 
Q 3025 2406 2788 2181 
L 2781 2147 
L 2788 2013 
L 2788 647 
Q 2788 353 2820 281 
Q 2853 209 2943 161 
Q 3034 113 3253 113 
L 3253 0 
L 1806 0 
L 1806 113 
Q 2044 113 2133 169 
Q 2222 225 2256 338 
Q 2272 391 2272 647 
L 2272 1878 
Q 2272 2228 2169 2381 
Q 2031 2581 1784 2581 
Q 1616 2581 1450 2491 
Q 1191 2353 1050 2181 
L 1050 647 
Q 1050 366 1089 281 
Q 1128 197 1204 155 
Q 1281 113 1516 113 
L 1516 0 
L 100 0 
L 100 113 
Q 297 113 375 155 
Q 453 197 493 289 
Q 534 381 534 647 
L 534 1741 
Q 534 2213 506 2350 
Q 484 2453 437 2492 
Q 391 2531 309 2531 
Q 222 2531 100 2484 
L 53 2597 
L 916 2947 
L 1050 2947 
L 1050 2338 
z
" transform="scale(0.015625)"/>
       <path id="TimesNewRomanPSMT-6c" d="M 1184 4444 
L 1184 647 
Q 1184 378 1223 290 
Q 1263 203 1344 158 
Q 1425 113 1647 113 
L 1647 0 
L 244 0 
L 244 113 
Q 441 113 512 153 
Q 584 194 625 287 
Q 666 381 666 647 
L 666 3247 
Q 666 3731 644 3842 
Q 622 3953 573 3993 
Q 525 4034 450 4034 
Q 369 4034 244 3984 
L 191 4094 
L 1044 4444 
L 1184 4444 
z
" transform="scale(0.015625)"/>
       <path id="TimesNewRomanPSMT-61" d="M 1822 413 
Q 1381 72 1269 19 
Q 1100 -59 909 -59 
Q 613 -59 420 144 
Q 228 347 228 678 
Q 228 888 322 1041 
Q 450 1253 767 1440 
Q 1084 1628 1822 1897 
L 1822 2009 
Q 1822 2438 1686 2597 
Q 1550 2756 1291 2756 
Q 1094 2756 978 2650 
Q 859 2544 859 2406 
L 866 2225 
Q 866 2081 792 2003 
Q 719 1925 600 1925 
Q 484 1925 411 2006 
Q 338 2088 338 2228 
Q 338 2497 613 2722 
Q 888 2947 1384 2947 
Q 1766 2947 2009 2819 
Q 2194 2722 2281 2516 
Q 2338 2381 2338 1966 
L 2338 994 
Q 2338 584 2353 492 
Q 2369 400 2405 369 
Q 2441 338 2488 338 
Q 2538 338 2575 359 
Q 2641 400 2828 588 
L 2828 413 
Q 2478 -56 2159 -56 
Q 2006 -56 1915 50 
Q 1825 156 1822 413 
z
M 1822 616 
L 1822 1706 
Q 1350 1519 1213 1441 
Q 966 1303 859 1153 
Q 753 1003 753 825 
Q 753 600 887 451 
Q 1022 303 1197 303 
Q 1434 303 1822 616 
z
" transform="scale(0.015625)"/>
       <path id="TimesNewRomanPSMT-74" d="M 1031 3803 
L 1031 2863 
L 1700 2863 
L 1700 2644 
L 1031 2644 
L 1031 788 
Q 1031 509 1111 412 
Q 1191 316 1316 316 
Q 1419 316 1516 380 
Q 1613 444 1666 569 
L 1788 569 
Q 1678 263 1478 108 
Q 1278 -47 1066 -47 
Q 922 -47 784 33 
Q 647 113 581 261 
Q 516 409 516 719 
L 516 2644 
L 63 2644 
L 63 2747 
Q 234 2816 414 2980 
Q 594 3144 734 3369 
Q 806 3488 934 3803 
L 1031 3803 
z
" transform="scale(0.015625)"/>
       <path id="TimesNewRomanPSMT-65" d="M 681 1784 
Q 678 1147 991 784 
Q 1303 422 1725 422 
Q 2006 422 2214 576 
Q 2422 731 2563 1106 
L 2659 1044 
Q 2594 616 2278 264 
Q 1963 -88 1488 -88 
Q 972 -88 605 314 
Q 238 716 238 1394 
Q 238 2128 614 2539 
Q 991 2950 1559 2950 
Q 2041 2950 2350 2633 
Q 2659 2316 2659 1784 
L 681 1784 
z
M 681 1966 
L 2006 1966 
Q 1991 2241 1941 2353 
Q 1863 2528 1708 2628 
Q 1553 2728 1384 2728 
Q 1125 2728 920 2526 
Q 716 2325 681 1966 
z
" transform="scale(0.015625)"/>
       <path id="TimesNewRomanPSMT-64" d="M 2222 322 
Q 2013 103 1813 7 
Q 1613 -88 1381 -88 
Q 913 -88 563 304 
Q 213 697 213 1313 
Q 213 1928 600 2439 
Q 988 2950 1597 2950 
Q 1975 2950 2222 2709 
L 2222 3238 
Q 2222 3728 2198 3840 
Q 2175 3953 2125 3993 
Q 2075 4034 2000 4034 
Q 1919 4034 1784 3984 
L 1744 4094 
L 2597 4444 
L 2738 4444 
L 2738 1134 
Q 2738 631 2761 520 
Q 2784 409 2836 365 
Q 2888 322 2956 322 
Q 3041 322 3181 375 
L 3216 266 
L 2366 -88 
L 2222 -88 
L 2222 322 
z
M 2222 541 
L 2222 2016 
Q 2203 2228 2109 2403 
Q 2016 2578 1861 2667 
Q 1706 2756 1559 2756 
Q 1284 2756 1069 2509 
Q 784 2184 784 1559 
Q 784 928 1059 592 
Q 1334 256 1672 256 
Q 1956 256 2222 541 
z
" transform="scale(0.015625)"/>
       <path id="TimesNewRomanPSMT-20" transform="scale(0.015625)"/>
       <path id="TimesNewRomanPSMT-54" d="M 3703 4238 
L 3750 3244 
L 3631 3244 
Q 3597 3506 3538 3619 
Q 3441 3800 3280 3886 
Q 3119 3972 2856 3972 
L 2259 3972 
L 2259 734 
Q 2259 344 2344 247 
Q 2463 116 2709 116 
L 2856 116 
L 2856 0 
L 1059 0 
L 1059 116 
L 1209 116 
Q 1478 116 1591 278 
Q 1659 378 1659 734 
L 1659 3972 
L 1150 3972 
Q 853 3972 728 3928 
Q 566 3869 450 3700 
Q 334 3531 313 3244 
L 194 3244 
L 244 4238 
L 3703 4238 
z
" transform="scale(0.015625)"/>
       <path id="TimesNewRomanPSMT-72" d="M 1038 2947 
L 1038 2303 
Q 1397 2947 1775 2947 
Q 1947 2947 2059 2842 
Q 2172 2738 2172 2600 
Q 2172 2478 2090 2393 
Q 2009 2309 1897 2309 
Q 1788 2309 1652 2417 
Q 1516 2525 1450 2525 
Q 1394 2525 1328 2463 
Q 1188 2334 1038 2041 
L 1038 669 
Q 1038 431 1097 309 
Q 1138 225 1241 169 
Q 1344 113 1538 113 
L 1538 0 
L 72 0 
L 72 113 
Q 291 113 397 181 
Q 475 231 506 341 
Q 522 394 522 644 
L 522 1753 
Q 522 2253 501 2348 
Q 481 2444 426 2487 
Q 372 2531 291 2531 
Q 194 2531 72 2484 
L 41 2597 
L 906 2947 
L 1038 2947 
z
" transform="scale(0.015625)"/>
       <path id="TimesNewRomanPSMT-69" d="M 928 4444 
Q 1059 4444 1151 4351 
Q 1244 4259 1244 4128 
Q 1244 3997 1151 3903 
Q 1059 3809 928 3809 
Q 797 3809 703 3903 
Q 609 3997 609 4128 
Q 609 4259 701 4351 
Q 794 4444 928 4444 
z
M 1188 2947 
L 1188 647 
Q 1188 378 1227 289 
Q 1266 200 1342 156 
Q 1419 113 1622 113 
L 1622 0 
L 231 0 
L 231 113 
Q 441 113 512 153 
Q 584 194 626 287 
Q 669 381 669 647 
L 669 1750 
Q 669 2216 641 2353 
Q 619 2453 572 2492 
Q 525 2531 444 2531 
Q 356 2531 231 2484 
L 188 2597 
L 1050 2947 
L 1188 2947 
z
" transform="scale(0.015625)"/>
       <path id="TimesNewRomanPSMT-6e" d="M 1034 2341 
Q 1538 2947 1994 2947 
Q 2228 2947 2397 2830 
Q 2566 2713 2666 2444 
Q 2734 2256 2734 1869 
L 2734 647 
Q 2734 375 2778 278 
Q 2813 200 2889 156 
Q 2966 113 3172 113 
L 3172 0 
L 1756 0 
L 1756 113 
L 1816 113 
Q 2016 113 2095 173 
Q 2175 234 2206 353 
Q 2219 400 2219 647 
L 2219 1819 
Q 2219 2209 2117 2386 
Q 2016 2563 1775 2563 
Q 1403 2563 1034 2156 
L 1034 647 
Q 1034 356 1069 288 
Q 1113 197 1189 155 
Q 1266 113 1500 113 
L 1500 0 
L 84 0 
L 84 113 
L 147 113 
Q 366 113 442 223 
Q 519 334 519 647 
L 519 1709 
Q 519 2225 495 2337 
Q 472 2450 423 2490 
Q 375 2531 294 2531 
Q 206 2531 84 2484 
L 38 2597 
L 900 2947 
L 1034 2947 
L 1034 2341 
z
" transform="scale(0.015625)"/>
       <path id="TimesNewRomanPSMT-5b" d="M 1900 -1269 
L 525 -1269 
L 525 4334 
L 1900 4334 
L 1900 4088 
L 994 4088 
L 994 -1025 
L 1900 -1025 
L 1900 -1269 
z
" transform="scale(0.015625)"/>
       <path id="TimesNewRomanPSMT-73" d="M 2050 2947 
L 2050 1972 
L 1947 1972 
Q 1828 2431 1642 2597 
Q 1456 2763 1169 2763 
Q 950 2763 815 2647 
Q 681 2531 681 2391 
Q 681 2216 781 2091 
Q 878 1963 1175 1819 
L 1631 1597 
Q 2266 1288 2266 781 
Q 2266 391 1970 151 
Q 1675 -88 1309 -88 
Q 1047 -88 709 6 
Q 606 38 541 38 
Q 469 38 428 -44 
L 325 -44 
L 325 978 
L 428 978 
Q 516 541 762 319 
Q 1009 97 1316 97 
Q 1531 97 1667 223 
Q 1803 350 1803 528 
Q 1803 744 1651 891 
Q 1500 1038 1047 1263 
Q 594 1488 453 1669 
Q 313 1847 313 2119 
Q 313 2472 555 2709 
Q 797 2947 1181 2947 
Q 1350 2947 1591 2875 
Q 1750 2828 1803 2828 
Q 1853 2828 1881 2850 
Q 1909 2872 1947 2947 
L 2050 2947 
z
" transform="scale(0.015625)"/>
       <path id="TimesNewRomanPSMT-5d" d="M 234 4334 
L 1609 4334 
L 1609 -1272 
L 234 -1272 
L 234 -1025 
L 1141 -1025 
L 1141 4088 
L 234 4088 
L 234 4334 
z
" transform="scale(0.015625)"/>
      </defs>
      <use xlink:href="#TimesNewRomanPSMT-41"/>
      <use xlink:href="#TimesNewRomanPSMT-63" transform="translate(72.216797 0)"/>
      <use xlink:href="#TimesNewRomanPSMT-63" transform="translate(116.601562 0)"/>
      <use xlink:href="#TimesNewRomanPSMT-75" transform="translate(160.986328 0)"/>
      <use xlink:href="#TimesNewRomanPSMT-6d" transform="translate(210.986328 0)"/>
      <use xlink:href="#TimesNewRomanPSMT-75" transform="translate(288.769531 0)"/>
      <use xlink:href="#TimesNewRomanPSMT-6c" transform="translate(338.769531 0)"/>
      <use xlink:href="#TimesNewRomanPSMT-61" transform="translate(366.552734 0)"/>
      <use xlink:href="#TimesNewRomanPSMT-74" transform="translate(410.9375 0)"/>
      <use xlink:href="#TimesNewRomanPSMT-65" transform="translate(438.720703 0)"/>
      <use xlink:href="#TimesNewRomanPSMT-64" transform="translate(483.105469 0)"/>
      <use xlink:href="#TimesNewRomanPSMT-20" transform="translate(533.105469 0)"/>
      <use xlink:href="#TimesNewRomanPSMT-54" transform="translate(556.355469 0)"/>
      <use xlink:href="#TimesNewRomanPSMT-72" transform="translate(613.939453 0)"/>
      <use xlink:href="#TimesNewRomanPSMT-61" transform="translate(647.240234 0)"/>
      <use xlink:href="#TimesNewRomanPSMT-69" transform="translate(691.625 0)"/>
      <use xlink:href="#TimesNewRomanPSMT-6e" transform="translate(719.408203 0)"/>
      <use xlink:href="#TimesNewRomanPSMT-20" transform="translate(769.408203 0)"/>
      <use xlink:href="#TimesNewRomanPSMT-54" transform="translate(792.658203 0)"/>
      <use xlink:href="#TimesNewRomanPSMT-69" transform="translate(850.242188 0)"/>
      <use xlink:href="#TimesNewRomanPSMT-6d" transform="translate(878.025391 0)"/>
      <use xlink:href="#TimesNewRomanPSMT-65" transform="translate(955.808594 0)"/>
      <use xlink:href="#TimesNewRomanPSMT-20" transform="translate(1000.193359 0)"/>
      <use xlink:href="#TimesNewRomanPSMT-5b" transform="translate(1025.193359 0)"/>
      <use xlink:href="#TimesNewRomanPSMT-73" transform="translate(1058.494141 0)"/>
      <use xlink:href="#TimesNewRomanPSMT-5d" transform="translate(1097.410156 0)"/>
     </g>
    </g>
   </g>
   <g id="matplotlib.axis_2">
    <g id="ytick_1">
     <g id="line2d_5">
      <defs>
       <path id="m2c5b699868" d="M 0 0 
L 3.5 0 
" style="stroke: #000000; stroke-width: 0.8"/>
      </defs>
      <g>
       <use xlink:href="#m2c5b699868" x="35.599375" y="99.392076" style="stroke: #000000; stroke-width: 0.8"/>
      </g>
     </g>
     <g id="text_6">
      <!-- −5 -->
      <g transform="translate(23.588125 102.169576) scale(0.08 -0.08)">
       <defs>
        <path id="TimesNewRomanPSMT-2212" d="M 3484 2000 
L 116 2000 
L 116 2256 
L 3484 2256 
L 3484 2000 
z
" transform="scale(0.015625)"/>
       </defs>
       <use xlink:href="#TimesNewRomanPSMT-2212"/>
       <use xlink:href="#TimesNewRomanPSMT-35" transform="translate(56.396484 0)"/>
      </g>
     </g>
    </g>
    <g id="ytick_2">
     <g id="line2d_6">
      <g>
       <use xlink:href="#m2c5b699868" x="35.599375" y="75.443828" style="stroke: #000000; stroke-width: 0.8"/>
      </g>
     </g>
     <g id="text_7">
      <!-- −4 -->
      <g transform="translate(23.588125 78.221328) scale(0.08 -0.08)">
       <defs>
        <path id="TimesNewRomanPSMT-34" d="M 2978 1563 
L 2978 1119 
L 2409 1119 
L 2409 0 
L 1894 0 
L 1894 1119 
L 100 1119 
L 100 1519 
L 2066 4325 
L 2409 4325 
L 2409 1563 
L 2978 1563 
z
M 1894 1563 
L 1894 3666 
L 406 1563 
L 1894 1563 
z
" transform="scale(0.015625)"/>
       </defs>
       <use xlink:href="#TimesNewRomanPSMT-2212"/>
       <use xlink:href="#TimesNewRomanPSMT-34" transform="translate(56.396484 0)"/>
      </g>
     </g>
    </g>
    <g id="ytick_3">
     <g id="line2d_7">
      <g>
       <use xlink:href="#m2c5b699868" x="35.599375" y="51.49558" style="stroke: #000000; stroke-width: 0.8"/>
      </g>
     </g>
     <g id="text_8">
      <!-- −3 -->
      <g transform="translate(23.588125 54.27308) scale(0.08 -0.08)">
       <defs>
        <path id="TimesNewRomanPSMT-33" d="M 325 3431 
Q 506 3859 782 4092 
Q 1059 4325 1472 4325 
Q 1981 4325 2253 3994 
Q 2459 3747 2459 3466 
Q 2459 3003 1878 2509 
Q 2269 2356 2469 2072 
Q 2669 1788 2669 1403 
Q 2669 853 2319 450 
Q 1863 -75 997 -75 
Q 569 -75 414 31 
Q 259 138 259 259 
Q 259 350 332 419 
Q 406 488 509 488 
Q 588 488 669 463 
Q 722 447 909 348 
Q 1097 250 1169 231 
Q 1284 197 1416 197 
Q 1734 197 1970 444 
Q 2206 691 2206 1028 
Q 2206 1275 2097 1509 
Q 2016 1684 1919 1775 
Q 1784 1900 1550 2001 
Q 1316 2103 1072 2103 
L 972 2103 
L 972 2197 
Q 1219 2228 1467 2375 
Q 1716 2522 1828 2728 
Q 1941 2934 1941 3181 
Q 1941 3503 1739 3701 
Q 1538 3900 1238 3900 
Q 753 3900 428 3381 
L 325 3431 
z
" transform="scale(0.015625)"/>
       </defs>
       <use xlink:href="#TimesNewRomanPSMT-2212"/>
       <use xlink:href="#TimesNewRomanPSMT-33" transform="translate(56.396484 0)"/>
      </g>
     </g>
    </g>
    <g id="ytick_4">
     <g id="line2d_8">
      <g>
       <use xlink:href="#m2c5b699868" x="35.599375" y="27.547331" style="stroke: #000000; stroke-width: 0.8"/>
      </g>
     </g>
     <g id="text_9">
      <!-- −2 -->
      <g transform="translate(23.588125 30.324831) scale(0.08 -0.08)">
       <use xlink:href="#TimesNewRomanPSMT-2212"/>
       <use xlink:href="#TimesNewRomanPSMT-32" transform="translate(56.396484 0)"/>
      </g>
     </g>
    </g>
    <g id="text_10">
     <!-- $\log (|\Delta W|/|W_0)$ -->
     <g transform="translate(16.708125 99.678) rotate(-90) scale(0.12 -0.12)">
      <defs>
       <path id="DejaVuSerif-6c" d="M 1313 331 
L 1856 331 
L 1856 0 
L 184 0 
L 184 331 
L 738 331 
L 738 4531 
L 184 4531 
L 184 4863 
L 1313 4863 
L 1313 331 
z
" transform="scale(0.015625)"/>
       <path id="DejaVuSerif-6f" d="M 1925 219 
Q 2388 219 2623 584 
Q 2859 950 2859 1663 
Q 2859 2375 2623 2739 
Q 2388 3103 1925 3103 
Q 1463 3103 1227 2739 
Q 991 2375 991 1663 
Q 991 950 1228 584 
Q 1466 219 1925 219 
z
M 1925 -91 
Q 1200 -91 759 389 
Q 319 869 319 1663 
Q 319 2456 758 2934 
Q 1197 3413 1925 3413 
Q 2653 3413 3092 2934 
Q 3531 2456 3531 1663 
Q 3531 869 3092 389 
Q 2653 -91 1925 -91 
z
" transform="scale(0.015625)"/>
       <path id="DejaVuSerif-67" d="M 3359 2988 
L 3359 72 
Q 3359 -644 2965 -1033 
Q 2572 -1422 1844 -1422 
Q 1516 -1422 1216 -1362 
Q 916 -1303 641 -1184 
L 641 -488 
L 941 -488 
Q 997 -813 1206 -963 
Q 1416 -1113 1806 -1113 
Q 2313 -1113 2548 -827 
Q 2784 -541 2784 72 
L 2784 519 
Q 2616 206 2355 57 
Q 2094 -91 1709 -91 
Q 1097 -91 708 395 
Q 319 881 319 1663 
Q 319 2444 706 2928 
Q 1094 3413 1709 3413 
Q 2094 3413 2355 3264 
Q 2616 3116 2784 2803 
L 2784 3322 
L 3909 3322 
L 3909 2988 
L 3359 2988 
z
M 2784 1825 
Q 2784 2422 2554 2737 
Q 2325 3053 1888 3053 
Q 1444 3053 1217 2703 
Q 991 2353 991 1663 
Q 991 975 1217 622 
Q 1444 269 1888 269 
Q 2325 269 2554 583 
Q 2784 897 2784 1497 
L 2784 1825 
z
" transform="scale(0.015625)"/>
       <path id="DejaVuSerif-28" d="M 2041 -997 
Q 1281 -656 893 83 
Q 506 822 506 1931 
Q 506 3044 893 3783 
Q 1281 4522 2041 4863 
L 2041 4556 
Q 1559 4225 1350 3623 
Q 1141 3022 1141 1931 
Q 1141 844 1350 242 
Q 1559 -359 2041 -691 
L 2041 -997 
z
" transform="scale(0.015625)"/>
       <path id="DejaVuSerif-7c" d="M 1331 4891 
L 1331 -1509 
L 825 -1509 
L 825 4891 
L 1331 4891 
z
" transform="scale(0.015625)"/>
       <path id="DejaVuSerif-394" d="M 4350 0 
L 244 0 
L 2034 4666 
L 2559 4666 
L 4350 0 
z
M 3506 331 
L 2138 3909 
L 763 331 
L 3506 331 
z
" transform="scale(0.015625)"/>
       <path id="DejaVuSerif-Italic-57" d="M 4425 0 
L 3913 0 
L 3581 3794 
L 1775 0 
L 1263 0 
L 881 4331 
L 419 4331 
L 484 4666 
L 2188 4666 
L 2122 4331 
L 1541 4331 
L 1844 884 
L 3641 4666 
L 4147 4666 
L 4484 844 
L 6141 4331 
L 5603 4331 
L 5669 4666 
L 7013 4666 
L 6947 4331 
L 6488 4331 
L 4425 0 
z
" transform="scale(0.015625)"/>
       <path id="DejaVuSerif-2f" d="M 1656 4666 
L 2156 4666 
L 500 -594 
L 0 -594 
L 1656 4666 
z
" transform="scale(0.015625)"/>
       <path id="DejaVuSerif-30" d="M 2034 219 
Q 2513 219 2750 744 
Q 2988 1269 2988 2328 
Q 2988 3391 2750 3916 
Q 2513 4441 2034 4441 
Q 1556 4441 1318 3916 
Q 1081 3391 1081 2328 
Q 1081 1269 1318 744 
Q 1556 219 2034 219 
z
M 2034 -91 
Q 1275 -91 848 546 
Q 422 1184 422 2328 
Q 422 3475 848 4112 
Q 1275 4750 2034 4750 
Q 2797 4750 3222 4112 
Q 3647 3475 3647 2328 
Q 3647 1184 3222 546 
Q 2797 -91 2034 -91 
z
" transform="scale(0.015625)"/>
       <path id="DejaVuSerif-29" d="M 453 -997 
L 453 -691 
Q 934 -359 1145 242 
Q 1356 844 1356 1931 
Q 1356 3022 1145 3623 
Q 934 4225 453 4556 
L 453 4863 
Q 1216 4522 1603 3783 
Q 1991 3044 1991 1931 
Q 1991 822 1603 83 
Q 1216 -656 453 -997 
z
" transform="scale(0.015625)"/>
      </defs>
      <use xlink:href="#DejaVuSerif-6c" transform="translate(0 0.578125)"/>
      <use xlink:href="#DejaVuSerif-6f" transform="translate(31.982422 0.578125)"/>
      <use xlink:href="#DejaVuSerif-67" transform="translate(92.1875 0.578125)"/>
      <use xlink:href="#DejaVuSerif-28" transform="translate(156.201172 0.578125)"/>
      <use xlink:href="#DejaVuSerif-7c" transform="translate(195.214844 0.578125)"/>
      <use xlink:href="#DejaVuSerif-394" transform="translate(228.90625 0.578125)"/>
      <use xlink:href="#DejaVuSerif-Italic-57" transform="translate(301.123047 0.578125)"/>
      <use xlink:href="#DejaVuSerif-7c" transform="translate(403.90625 0.578125)"/>
      <use xlink:href="#DejaVuSerif-2f" transform="translate(437.597656 0.578125)"/>
      <use xlink:href="#DejaVuSerif-7c" transform="translate(471.289062 0.578125)"/>
      <use xlink:href="#DejaVuSerif-Italic-57" transform="translate(504.980469 0.578125)"/>
      <use xlink:href="#DejaVuSerif-30" transform="translate(607.763672 -14.99375) scale(0.7)"/>
      <use xlink:href="#DejaVuSerif-29" transform="translate(654.895117 0.578125)"/>
     </g>
    </g>
   </g>
   <g id="line2d_9">
    <path d="M 46.884294 22.589234 
L 47.107757 13.487596 
L 47.331221 20.694331 
L 47.554685 12.494939 
L 47.666417 13.831077 
L 47.778149 12.19147 
L 47.88988 13.456249 
L 48.001612 18.434476 
L 48.113344 18.155277 
L 48.336808 12.01299 
L 48.44854 26.825972 
L 48.560272 14.659574 
L 48.672004 17.551934 
L 48.783735 23.532953 
L 48.895467 19.981463 
L 49.230663 28.345782 
L 49.342395 11.821636 
L 49.565859 18.734711 
L 49.67759 17.289497 
L 49.789322 23.886122 
L 49.901054 23.169835 
L 50.012786 24.431898 
L 50.124518 23.940465 
L 50.347982 29.492655 
L 50.459713 29.89156 
L 50.683177 19.575916 
L 50.906641 30.877896 
L 51.018373 22.379887 
L 51.130105 36.085781 
L 51.241837 34.728948 
L 51.353568 24.218423 
L 51.4653 27.863858 
L 51.577032 21.271284 
L 51.800496 36.070258 
L 51.912228 28.163856 
L 52.02396 28.713993 
L 52.135691 26.364801 
L 52.247423 34.826954 
L 52.470887 30.295612 
L 52.694351 34.438782 
L 52.806083 26.758486 
L 53.029546 36.143406 
L 53.25301 27.30574 
L 53.364742 37.761964 
L 53.81167 30.520026 
L 54.035133 33.401696 
L 54.146865 34.900063 
L 54.258597 38.902392 
L 54.370329 35.40844 
L 54.482061 38.430969 
L 54.593793 46.949102 
L 54.705524 31.832786 
L 54.817256 39.193294 
L 54.928988 36.193113 
L 55.152452 43.930346 
L 55.264184 38.711684 
L 55.375916 41.670875 
L 55.487648 40.593619 
L 55.822843 31.43096 
L 55.934575 45.147739 
L 56.046307 33.697077 
L 56.158039 33.728821 
L 56.269771 39.72296 
L 56.381502 35.678191 
L 56.604966 43.01687 
L 56.716698 40.454599 
L 56.82843 41.974032 
L 57.051894 37.881094 
L 57.163626 40.055896 
L 57.275357 33.072518 
L 57.498821 51.403466 
L 57.722285 41.135279 
L 57.834017 44.375088 
L 58.05748 43.201843 
L 58.392676 49.779127 
L 58.504408 51.71274 
L 58.61614 46.466095 
L 58.839604 53.247388 
L 58.951335 46.062275 
L 59.063067 53.172631 
L 59.286531 41.666055 
L 59.621727 51.13756 
L 59.733459 45.165567 
L 59.84519 56.70601 
L 59.956922 48.285124 
L 60.180386 53.419755 
L 60.292118 56.808105 
L 60.40385 52.943327 
L 60.515582 54.372976 
L 60.627313 51.285605 
L 60.739045 54.169094 
L 60.850777 49.946074 
L 61.074241 54.999421 
L 61.409437 48.557745 
L 61.521168 50.434152 
L 61.6329 48.038058 
L 61.856364 54.449295 
L 61.968096 52.199652 
L 62.079828 43.641638 
L 62.303291 54.822118 
L 62.415023 50.937982 
L 62.526755 54.437363 
L 62.638487 50.520585 
L 62.750219 52.883079 
L 62.861951 47.365608 
L 62.973683 53.125128 
L 63.085415 43.471527 
L 63.308878 58.885836 
L 63.42061 57.614059 
L 63.532342 50.18846 
L 63.644074 60.304538 
L 63.867538 53.006945 
L 63.97927 55.663093 
L 64.091001 62.812768 
L 64.202733 57.966358 
L 64.314465 47.202156 
L 64.426197 58.188749 
L 64.873124 46.390378 
L 64.984856 53.01619 
L 65.096588 51.146947 
L 65.20832 58.603074 
L 65.320052 58.367301 
L 65.431784 57.264514 
L 65.655248 50.795653 
L 65.766979 54.597517 
L 65.990443 49.515864 
L 66.102175 53.078132 
L 66.325639 68.157345 
L 66.549102 55.674763 
L 66.660834 64.068784 
L 66.772566 59.962849 
L 66.884298 71.111785 
L 66.99603 59.611358 
L 67.219494 61.037668 
L 67.331226 61.267941 
L 67.442957 66.117095 
L 67.554689 64.582739 
L 67.666421 53.983822 
L 67.778153 61.14173 
L 67.889885 57.278758 
L 68.001617 57.643515 
L 68.113349 60.562032 
L 68.22508 58.679457 
L 68.336812 70.238766 
L 68.448544 63.183897 
L 68.560276 70.546537 
L 68.672008 67.781735 
L 68.78374 61.182475 
L 69.007204 68.403159 
L 69.118935 69.674909 
L 69.230667 61.18342 
L 69.454131 68.029123 
L 69.565863 61.686666 
L 69.677595 65.970689 
L 69.789327 63.158573 
L 70.01279 71.429233 
L 70.236254 66.77095 
L 70.347986 67.786086 
L 70.459718 62.444109 
L 70.57145 66.719102 
L 71.018377 60.618139 
L 71.130109 65.26465 
L 71.241841 59.837909 
L 71.465305 66.366289 
L 71.577037 58.534903 
L 71.8005 67.902873 
L 71.912232 68.639165 
L 72.023964 62.445122 
L 72.135696 63.303965 
L 72.247428 71.610267 
L 72.470891 66.324464 
L 72.694355 63.072118 
L 72.806087 71.645134 
L 73.029551 68.930096 
L 73.253015 71.615229 
L 73.364746 66.379831 
L 73.476478 67.407576 
L 73.699942 64.448868 
L 73.811674 53.948839 
L 74.035138 65.8101 
L 74.14687 65.59477 
L 74.482065 62.72198 
L 74.593797 67.791534 
L 74.705529 61.557452 
L 74.817261 61.679507 
L 74.928993 59.542392 
L 75.040724 60.391925 
L 75.152456 72.015261 
L 75.264188 70.379408 
L 75.37592 71.610396 
L 75.487652 65.519464 
L 75.711116 71.425571 
L 75.822848 72.506951 
L 76.046311 64.736282 
L 76.158043 70.039338 
L 76.269775 67.420215 
L 76.381507 68.961063 
L 76.604971 74.772724 
L 76.716702 71.085678 
L 76.828434 75.437548 
L 76.940166 69.686098 
L 77.051898 77.592463 
L 77.387094 68.688248 
L 77.498826 69.049462 
L 77.610557 75.985135 
L 77.722289 75.698895 
L 77.945753 72.115444 
L 78.169217 73.395015 
L 78.280949 71.100741 
L 78.39268 73.738149 
L 78.504412 71.681673 
L 78.616144 74.024871 
L 78.839608 66.47969 
L 78.95134 77.937364 
L 79.063072 63.585674 
L 79.174804 72.670975 
L 79.286535 62.803388 
L 79.509999 70.272227 
L 79.621731 69.604954 
L 79.733463 72.371001 
L 79.845195 71.651656 
L 79.956927 67.792105 
L 80.068659 68.312549 
L 80.18039 74.596054 
L 80.292122 69.799995 
L 80.403854 72.915627 
L 80.515586 71.846514 
L 80.627318 72.955285 
L 80.73905 72.874887 
L 80.850782 66.895367 
L 80.962513 72.437385 
L 81.185977 68.894512 
L 81.297709 74.070808 
L 81.521173 62.320475 
L 81.744637 68.345697 
L 81.856368 62.96732 
L 82.303296 80.939554 
L 82.415028 71.872101 
L 82.638491 74.310464 
L 82.750223 77.640597 
L 82.861955 70.971972 
L 82.973687 71.916042 
L 83.085419 74.059665 
L 83.197151 79.007761 
L 83.420615 68.734163 
L 83.532346 69.683306 
L 83.644078 74.557813 
L 83.75581 69.823725 
L 83.979274 72.7132 
L 84.091006 72.665555 
L 84.202738 66.078892 
L 84.31447 80.746073 
L 84.426201 68.272173 
L 84.537933 77.331614 
L 84.649665 67.441737 
L 84.761397 81.906681 
L 84.984861 74.926501 
L 85.096593 75.739448 
L 85.208324 81.278344 
L 85.320056 74.760726 
L 85.431788 80.416441 
L 85.54352 74.025094 
L 85.766984 80.093208 
L 85.878716 80.791093 
L 85.990448 71.91518 
L 86.102179 78.550091 
L 86.213911 74.647676 
L 86.437375 83.413599 
L 86.660839 78.014668 
L 86.772571 82.529367 
L 86.884302 82.177981 
L 86.996034 81.098079 
L 87.107766 73.467836 
L 87.219498 80.770977 
L 87.33123 79.755109 
L 87.442962 81.546888 
L 87.554694 85.354664 
L 87.666426 82.311865 
L 87.778157 82.646488 
L 87.889889 83.389813 
L 88.001621 80.834539 
L 88.113353 86.880182 
L 88.225085 77.415845 
L 88.448549 82.489815 
L 88.56028 84.47996 
L 88.672012 78.870255 
L 88.783744 88.198053 
L 88.895476 78.296115 
L 89.007208 79.748047 
L 89.11894 78.03649 
L 89.230672 81.700988 
L 89.342404 76.415377 
L 89.565867 82.422412 
L 89.789331 75.866922 
L 89.901063 79.207211 
L 90.012795 79.162439 
L 90.124527 80.550997 
L 90.236259 79.139489 
L 90.34799 79.716516 
L 90.459722 76.574362 
L 90.571454 85.584651 
L 90.683186 82.696537 
L 90.794918 87.588839 
L 91.018382 78.481794 
L 91.130113 71.844883 
L 91.241845 74.395469 
L 91.353577 73.419538 
L 91.577041 83.598833 
L 91.688773 69.479016 
L 91.800505 80.371506 
L 91.912237 73.2406 
L 92.023968 84.584254 
L 92.1357 76.032822 
L 92.247432 79.465784 
L 92.359164 65.120905 
L 92.582628 77.672519 
L 92.69436 72.506086 
L 92.917823 81.658465 
L 93.029555 79.334982 
L 93.141287 87.515789 
L 93.253019 74.798866 
L 93.476483 82.305574 
L 93.699946 83.920443 
L 94.035142 76.264998 
L 94.146874 78.70682 
L 94.258606 78.338921 
L 94.370338 84.145989 
L 94.593801 77.091446 
L 94.817265 86.656735 
L 94.928997 84.602187 
L 95.040729 84.682262 
L 95.152461 89.320102 
L 95.375924 83.323819 
L 95.487656 90.009641 
L 95.599388 76.066029 
L 95.71112 82.657492 
L 95.934584 81.761722 
L 96.046316 80.268059 
L 96.158048 72.274869 
L 96.269779 80.68579 
L 96.381511 75.726714 
L 96.493243 81.967342 
L 96.716707 74.170767 
L 96.828439 94.393227 
L 97.163634 78.212632 
L 97.275366 88.836102 
L 97.49883 80.343473 
L 97.610562 77.508706 
L 97.722294 77.845197 
L 97.834026 69.693695 
L 98.057489 80.514154 
L 98.169221 74.705623 
L 98.280953 83.892853 
L 98.392685 75.428045 
L 98.504417 80.836457 
L 98.616149 77.901363 
L 98.839612 86.864035 
L 98.951344 83.415709 
L 99.174808 89.233833 
L 99.398272 75.99376 
L 99.510004 80.90254 
L 99.621735 80.913611 
L 99.733467 86.844434 
L 99.845199 85.118612 
L 99.956931 85.1837 
L 100.068663 84.635896 
L 100.51559 91.070713 
L 100.739054 80.488116 
L 100.850786 81.56925 
L 100.962518 76.546778 
L 101.07425 85.864516 
L 101.185982 78.603644 
L 101.297713 79.83123 
L 101.409445 71.832856 
L 101.521177 75.051127 
L 101.744641 68.044137 
L 101.856373 65.01432 
L 101.968105 66.717489 
L 102.079837 65.958133 
L 102.191568 79.048368 
L 102.3033 70.895231 
L 102.526764 80.195139 
L 102.638496 75.739794 
L 102.750228 82.632448 
L 102.86196 82.062454 
L 102.973691 84.927557 
L 103.197155 71.958266 
L 103.420619 80.288785 
L 103.532351 74.939875 
L 103.755815 80.133363 
L 103.867546 74.761257 
L 103.979278 78.652562 
L 104.09101 75.582091 
L 104.202742 85.176653 
L 104.314474 81.001936 
L 104.426206 91.158017 
L 104.64967 81.050518 
L 104.761401 83.263153 
L 104.873133 89.412149 
L 104.984865 88.791068 
L 105.096597 89.21329 
L 105.208329 90.544146 
L 105.320061 84.875739 
L 105.543524 88.570729 
L 105.655256 81.076123 
L 105.990452 83.695129 
L 106.102184 87.802948 
L 106.213916 87.594562 
L 106.325648 89.33131 
L 106.437379 88.082354 
L 106.549111 84.677537 
L 106.660843 93.506987 
L 106.772575 88.330124 
L 106.884307 90.795992 
L 106.996039 88.510429 
L 107.107771 95.150456 
L 107.331234 89.672026 
L 107.442966 89.446731 
L 107.554698 83.20017 
L 107.778162 92.995585 
L 107.889894 93.567274 
L 108.001626 90.58735 
L 108.113357 92.927338 
L 108.225089 82.361751 
L 108.336821 92.462527 
L 108.448553 89.296376 
L 108.783749 95.277051 
L 108.89548 88.750389 
L 109.007212 89.106353 
L 109.230676 85.292461 
L 109.45414 94.968534 
L 109.565872 87.999627 
L 109.677604 94.379259 
L 109.789335 78.783544 
L 110.012799 93.264864 
L 110.124531 92.734569 
L 110.347995 95.663934 
L 110.459727 91.42255 
L 110.68319 80.295596 
L 110.794922 86.823431 
L 110.906654 85.780596 
L 111.018386 91.492701 
L 111.24185 89.238354 
L 111.353582 95.670386 
L 111.465313 90.376584 
L 111.688777 92.854831 
L 111.800509 80.303025 
L 111.912241 92.6461 
L 112.135705 89.768152 
L 112.247437 95.838245 
L 112.359168 87.212342 
L 112.4709 96.335701 
L 112.582632 94.101027 
L 112.694364 87.088785 
L 112.806096 90.976774 
L 113.02956 87.657353 
L 113.141291 93.643787 
L 113.253023 86.336904 
L 113.364755 99.805173 
L 113.588219 90.90377 
L 113.699951 88.200924 
L 113.811683 99.524179 
L 113.923415 97.004517 
L 114.035146 89.053556 
L 114.146878 100.461804 
L 114.25861 86.58118 
L 114.370342 97.939524 
L 114.705538 86.817696 
L 114.81727 94.73035 
L 114.929001 89.593782 
L 115.040733 96.010553 
L 115.264197 86.772952 
L 115.487661 104.189306 
L 115.711124 89.640142 
L 115.822856 93.590375 
L 115.934588 91.736723 
L 116.04632 87.845503 
L 116.158052 98.425035 
L 116.381516 80.339194 
L 116.716711 98.283103 
L 116.828443 89.453034 
L 116.940175 93.57589 
L 117.163639 86.366318 
L 117.275371 95.643952 
L 117.387102 91.596154 
L 117.498834 97.247497 
L 117.610566 89.410908 
L 117.722298 96.3133 
L 117.945762 74.915076 
L 118.057494 87.992931 
L 118.169226 80.901342 
L 118.392689 96.431004 
L 118.504421 88.079142 
L 118.616153 93.564265 
L 118.727885 87.419496 
L 118.839617 93.385913 
L 119.06308 82.084215 
L 119.286544 95.830676 
L 119.398276 86.704283 
L 119.510008 92.256807 
L 119.62174 92.251481 
L 119.733472 78.579448 
L 119.845204 94.451161 
L 120.068667 91.65256 
L 120.180399 97.284563 
L 120.292131 88.903972 
L 120.403863 89.926637 
L 120.515595 93.833497 
L 120.627327 93.251915 
L 120.739059 80.315561 
L 120.962522 91.045993 
L 121.074254 88.187855 
L 121.185986 95.124747 
L 121.40945 87.961449 
L 121.521182 91.471458 
L 121.744645 90.760184 
L 121.856377 93.086586 
L 121.968109 92.131395 
L 122.079841 88.875856 
L 122.191573 92.307453 
L 122.303305 81.631121 
L 122.415037 81.612927 
L 122.6385 90.692298 
L 122.750232 88.305196 
L 122.861964 86.507777 
L 122.973696 87.752699 
L 123.085428 91.577367 
L 123.19716 87.588707 
L 123.420623 94.368053 
L 123.532355 87.15539 
L 123.644087 97.050119 
L 123.755819 82.774798 
L 123.867551 86.563212 
L 123.979283 83.145103 
L 124.091015 91.986687 
L 124.314478 81.548258 
L 124.537942 86.596085 
L 124.649674 79.837762 
L 124.761406 80.13695 
L 124.98487 87.675978 
L 125.096601 84.951796 
L 125.208333 87.722624 
L 125.320065 84.586617 
L 125.431797 86.717044 
L 125.543529 91.759504 
L 125.655261 84.665751 
L 125.766993 97.101309 
L 125.878724 87.140321 
L 126.102188 92.671355 
L 126.21392 86.852808 
L 126.437384 97.897066 
L 126.660848 87.772581 
L 126.772579 94.362887 
L 126.996043 84.99532 
L 127.107775 93.344159 
L 127.331239 95.599987 
L 127.442971 97.993164 
L 127.666434 84.486136 
L 127.778166 87.190723 
L 127.889898 83.037525 
L 128.00163 91.137269 
L 128.113362 85.754038 
L 128.225094 86.481702 
L 128.336826 84.445968 
L 128.448557 77.388268 
L 128.560289 83.001773 
L 128.672021 80.543692 
L 128.783753 88.299688 
L 128.895485 83.810887 
L 129.342412 96.024594 
L 129.454144 95.776402 
L 129.565876 99.143425 
L 129.677608 98.288642 
L 129.78934 100.701592 
L 129.901072 86.871885 
L 130.012804 98.502664 
L 130.124535 90.022408 
L 130.236267 92.0322 
L 130.347999 100.52411 
L 130.459731 95.875256 
L 130.571463 97.001071 
L 130.794927 93.009655 
L 130.906659 100.745946 
L 131.130122 93.470972 
L 131.353586 100.793331 
L 131.465318 98.350826 
L 131.57705 104.254364 
L 132.135709 91.825697 
L 132.247441 93.620491 
L 132.359173 93.184581 
L 132.470905 97.420117 
L 132.582637 94.791231 
L 132.8061 97.210982 
L 132.917832 95.865631 
L 133.029564 101.440216 
L 133.141296 95.363866 
L 133.253028 96.958425 
L 133.36476 88.048321 
L 133.476491 100.235464 
L 133.699955 97.276964 
L 133.811687 97.492567 
L 133.923419 96.48683 
L 134.035151 99.769812 
L 134.146883 98.466595 
L 134.370346 92.567274 
L 134.482078 92.816743 
L 134.59381 93.261175 
L 134.705542 96.011027 
L 134.817274 95.822319 
L 134.929006 87.235061 
L 135.15247 96.870676 
L 135.264201 88.297625 
L 135.375933 96.634483 
L 135.487665 94.220955 
L 135.599397 85.153086 
L 135.711129 94.18878 
L 135.822861 91.802876 
L 136.046324 97.373993 
L 136.046324 97.373993 
" clip-path="url(#p24fd13be89)" style="fill: none; stroke: #000000; stroke-width: 0.5; stroke-linecap: square"/>
   </g>
   <g id="line2d_10">
    <path d="M 46.772562 108.876 
L 46.772562 7.2 
" clip-path="url(#p24fd13be89)" style="fill: none; stroke-dasharray: 3.7,1.6; stroke-dashoffset: 0; stroke: #9370db"/>
   </g>
   <g id="line2d_11">
    <path d="M 55.711111 108.876 
L 55.711111 7.2 
" clip-path="url(#p24fd13be89)" style="fill: none; stroke-dasharray: 3.7,1.6; stroke-dashoffset: 0; stroke: #9370db"/>
   </g>
   <g id="line2d_12">
    <path d="M 64.649661 108.876 
L 64.649661 7.2 
" clip-path="url(#p24fd13be89)" style="fill: none; stroke-dasharray: 3.7,1.6; stroke-dashoffset: 0; stroke: #9370db"/>
   </g>
   <g id="line2d_13">
    <path d="M 73.58821 108.876 
L 73.58821 7.2 
" clip-path="url(#p24fd13be89)" style="fill: none; stroke-dasharray: 3.7,1.6; stroke-dashoffset: 0; stroke: #9370db"/>
   </g>
   <g id="line2d_14">
    <path d="M 82.52676 108.876 
L 82.52676 7.2 
" clip-path="url(#p24fd13be89)" style="fill: none; stroke-dasharray: 3.7,1.6; stroke-dashoffset: 0; stroke: #9370db"/>
   </g>
   <g id="line2d_15">
    <path d="M 91.465309 108.876 
L 91.465309 7.2 
" clip-path="url(#p24fd13be89)" style="fill: none; stroke-dasharray: 3.7,1.6; stroke-dashoffset: 0; stroke: #9370db"/>
   </g>
   <g id="line2d_16">
    <path d="M 100.403859 108.876 
L 100.403859 7.2 
" clip-path="url(#p24fd13be89)" style="fill: none; stroke-dasharray: 3.7,1.6; stroke-dashoffset: 0; stroke: #9370db"/>
   </g>
   <g id="line2d_17">
    <path d="M 109.342408 108.876 
L 109.342408 7.2 
" clip-path="url(#p24fd13be89)" style="fill: none; stroke-dasharray: 3.7,1.6; stroke-dashoffset: 0; stroke: #9370db"/>
   </g>
   <g id="line2d_18">
    <path d="M 118.280957 108.876 
L 118.280957 7.2 
" clip-path="url(#p24fd13be89)" style="fill: none; stroke-dasharray: 3.7,1.6; stroke-dashoffset: 0; stroke: #9370db"/>
   </g>
   <g id="line2d_19">
    <path d="M 127.219507 108.876 
L 127.219507 7.2 
" clip-path="url(#p24fd13be89)" style="fill: none; stroke-dasharray: 3.7,1.6; stroke-dashoffset: 0; stroke: #9370db"/>
   </g>
   <g id="patch_3">
    <path d="M 35.599375 108.876 
L 35.599375 7.2 
" style="fill: none; stroke: #000000; stroke-width: 0.8; stroke-linejoin: miter; stroke-linecap: square"/>
   </g>
   <g id="patch_4">
    <path d="M 137.275375 108.876 
L 137.275375 7.2 
" style="fill: none; stroke: #000000; stroke-width: 0.8; stroke-linejoin: miter; stroke-linecap: square"/>
   </g>
   <g id="patch_5">
    <path d="M 35.599375 108.876 
L 137.275375 108.876 
" style="fill: none; stroke: #000000; stroke-width: 0.8; stroke-linejoin: miter; stroke-linecap: square"/>
   </g>
   <g id="patch_6">
    <path d="M 35.599375 7.2 
L 137.275375 7.2 
" style="fill: none; stroke: #000000; stroke-width: 0.8; stroke-linejoin: miter; stroke-linecap: square"/>
   </g>
   <g id="legend_1">
    <g id="patch_7">
     <path d="M 45.589437 29.357812 
L 130.275375 29.357812 
Q 132.275375 29.357812 132.275375 27.357812 
L 132.275375 14.2 
Q 132.275375 12.2 130.275375 12.2 
L 45.589437 12.2 
Q 43.589437 12.2 43.589437 14.2 
L 43.589437 27.357812 
Q 43.589437 29.357812 45.589437 29.357812 
z
" style="fill: #ffffff; opacity: 0.8"/>
    </g>
    <g id="line2d_20">
     <path d="M 47.589437 19.7 
L 57.589437 19.7 
L 67.589438 19.7 
" style="fill: none; stroke-dasharray: 3.7,1.6; stroke-dashoffset: 0; stroke: #9370db"/>
    </g>
    <g id="text_11">
     <!-- Training trial -->
     <g transform="translate(75.589438 23.2) scale(0.1 -0.1)">
      <defs>
       <path id="TimesNewRomanPSMT-67" d="M 966 1044 
Q 703 1172 562 1401 
Q 422 1631 422 1909 
Q 422 2334 742 2640 
Q 1063 2947 1563 2947 
Q 1972 2947 2272 2747 
L 2878 2747 
Q 3013 2747 3034 2739 
Q 3056 2731 3066 2713 
Q 3084 2684 3084 2613 
Q 3084 2531 3069 2500 
Q 3059 2484 3036 2475 
Q 3013 2466 2878 2466 
L 2506 2466 
Q 2681 2241 2681 1891 
Q 2681 1491 2375 1206 
Q 2069 922 1553 922 
Q 1341 922 1119 984 
Q 981 866 932 777 
Q 884 688 884 625 
Q 884 572 936 522 
Q 988 472 1138 450 
Q 1225 438 1575 428 
Q 2219 413 2409 384 
Q 2700 344 2873 169 
Q 3047 -6 3047 -263 
Q 3047 -616 2716 -925 
Q 2228 -1381 1444 -1381 
Q 841 -1381 425 -1109 
Q 191 -953 191 -784 
Q 191 -709 225 -634 
Q 278 -519 444 -313 
Q 466 -284 763 25 
Q 600 122 533 198 
Q 466 275 466 372 
Q 466 481 555 628 
Q 644 775 966 1044 
z
M 1509 2797 
Q 1278 2797 1122 2612 
Q 966 2428 966 2047 
Q 966 1553 1178 1281 
Q 1341 1075 1591 1075 
Q 1828 1075 1981 1253 
Q 2134 1431 2134 1813 
Q 2134 2309 1919 2591 
Q 1759 2797 1509 2797 
z
M 934 0 
Q 788 -159 713 -296 
Q 638 -434 638 -550 
Q 638 -700 819 -813 
Q 1131 -1006 1722 -1006 
Q 2284 -1006 2551 -807 
Q 2819 -609 2819 -384 
Q 2819 -222 2659 -153 
Q 2497 -84 2016 -72 
Q 1313 -53 934 0 
z
" transform="scale(0.015625)"/>
      </defs>
      <use xlink:href="#TimesNewRomanPSMT-54"/>
      <use xlink:href="#TimesNewRomanPSMT-72" transform="translate(57.583984 0)"/>
      <use xlink:href="#TimesNewRomanPSMT-61" transform="translate(90.884766 0)"/>
      <use xlink:href="#TimesNewRomanPSMT-69" transform="translate(135.269531 0)"/>
      <use xlink:href="#TimesNewRomanPSMT-6e" transform="translate(163.052734 0)"/>
      <use xlink:href="#TimesNewRomanPSMT-69" transform="translate(213.052734 0)"/>
      <use xlink:href="#TimesNewRomanPSMT-6e" transform="translate(240.835938 0)"/>
      <use xlink:href="#TimesNewRomanPSMT-67" transform="translate(290.835938 0)"/>
      <use xlink:href="#TimesNewRomanPSMT-20" transform="translate(340.835938 0)"/>
      <use xlink:href="#TimesNewRomanPSMT-74" transform="translate(365.835938 0)"/>
      <use xlink:href="#TimesNewRomanPSMT-72" transform="translate(393.619141 0)"/>
      <use xlink:href="#TimesNewRomanPSMT-69" transform="translate(426.919922 0)"/>
      <use xlink:href="#TimesNewRomanPSMT-61" transform="translate(454.703125 0)"/>
      <use xlink:href="#TimesNewRomanPSMT-6c" transform="translate(499.087891 0)"/>
     </g>
    </g>
   </g>
  </g>
  <g id="axes_2">
   <g id="patch_8">
    <path d="M 35.599375 248.076 
L 137.275375 248.076 
L 137.275375 146.4 
L 35.599375 146.4 
z
" style="fill: #ffffff"/>
   </g>
   <g id="matplotlib.axis_3">
    <g id="xtick_5">
     <g id="line2d_21">
      <g>
       <use xlink:href="#m61d545f0e2" x="40.221011" y="248.076" style="stroke: #000000; stroke-width: 0.8"/>
      </g>
     </g>
     <g id="text_12">
      <!-- 0 -->
      <g transform="translate(38.221011 257.131) scale(0.08 -0.08)">
       <use xlink:href="#TimesNewRomanPSMT-30"/>
      </g>
     </g>
    </g>
    <g id="xtick_6">
     <g id="line2d_22">
      <g>
       <use xlink:href="#m61d545f0e2" x="71.03192" y="248.076" style="stroke: #000000; stroke-width: 0.8"/>
      </g>
     </g>
     <g id="text_13">
      <!-- 5 -->
      <g transform="translate(69.03192 257.131) scale(0.08 -0.08)">
       <use xlink:href="#TimesNewRomanPSMT-35"/>
      </g>
     </g>
    </g>
    <g id="xtick_7">
     <g id="line2d_23">
      <g>
       <use xlink:href="#m61d545f0e2" x="101.84283" y="248.076" style="stroke: #000000; stroke-width: 0.8"/>
      </g>
     </g>
     <g id="text_14">
      <!-- 10 -->
      <g transform="translate(97.84283 257.131) scale(0.08 -0.08)">
       <defs>
        <path id="TimesNewRomanPSMT-31" d="M 750 3822 
L 1781 4325 
L 1884 4325 
L 1884 747 
Q 1884 391 1914 303 
Q 1944 216 2037 169 
Q 2131 122 2419 116 
L 2419 0 
L 825 0 
L 825 116 
Q 1125 122 1212 167 
Q 1300 213 1334 289 
Q 1369 366 1369 747 
L 1369 3034 
Q 1369 3497 1338 3628 
Q 1316 3728 1258 3775 
Q 1200 3822 1119 3822 
Q 1003 3822 797 3725 
L 750 3822 
z
" transform="scale(0.015625)"/>
       </defs>
       <use xlink:href="#TimesNewRomanPSMT-31"/>
       <use xlink:href="#TimesNewRomanPSMT-30" transform="translate(50 0)"/>
      </g>
     </g>
    </g>
    <g id="xtick_8">
     <g id="line2d_24">
      <g>
       <use xlink:href="#m61d545f0e2" x="132.653739" y="248.076" style="stroke: #000000; stroke-width: 0.8"/>
      </g>
     </g>
     <g id="text_15">
      <!-- 15 -->
      <g transform="translate(128.653739 257.131) scale(0.08 -0.08)">
       <use xlink:href="#TimesNewRomanPSMT-31"/>
       <use xlink:href="#TimesNewRomanPSMT-35" transform="translate(50 0)"/>
      </g>
     </g>
    </g>
    <g id="text_16">
     <!-- Trial -->
     <g transform="translate(74.987688 271.17475) scale(0.12 -0.12)">
      <use xlink:href="#TimesNewRomanPSMT-54"/>
      <use xlink:href="#TimesNewRomanPSMT-72" transform="translate(57.583984 0)"/>
      <use xlink:href="#TimesNewRomanPSMT-69" transform="translate(90.884766 0)"/>
      <use xlink:href="#TimesNewRomanPSMT-61" transform="translate(118.667969 0)"/>
      <use xlink:href="#TimesNewRomanPSMT-6c" transform="translate(163.052734 0)"/>
     </g>
    </g>
   </g>
   <g id="matplotlib.axis_4">
    <g id="ytick_5">
     <g id="line2d_25">
      <g>
       <use xlink:href="#m2c5b699868" x="35.599375" y="243.302229" style="stroke: #000000; stroke-width: 0.8"/>
      </g>
     </g>
     <g id="text_17">
      <!-- 0.0 -->
      <g transform="translate(22.099375 246.079729) scale(0.08 -0.08)">
       <use xlink:href="#TimesNewRomanPSMT-30"/>
       <use xlink:href="#TimesNewRomanPSMT-2e" transform="translate(50 0)"/>
       <use xlink:href="#TimesNewRomanPSMT-30" transform="translate(75 0)"/>
      </g>
     </g>
    </g>
    <g id="ytick_6">
     <g id="line2d_26">
      <g>
       <use xlink:href="#m2c5b699868" x="35.599375" y="224.709857" style="stroke: #000000; stroke-width: 0.8"/>
      </g>
     </g>
     <g id="text_18">
      <!-- 0.2 -->
      <g transform="translate(22.099375 227.487357) scale(0.08 -0.08)">
       <use xlink:href="#TimesNewRomanPSMT-30"/>
       <use xlink:href="#TimesNewRomanPSMT-2e" transform="translate(50 0)"/>
       <use xlink:href="#TimesNewRomanPSMT-32" transform="translate(75 0)"/>
      </g>
     </g>
    </g>
    <g id="ytick_7">
     <g id="line2d_27">
      <g>
       <use xlink:href="#m2c5b699868" x="35.599375" y="206.117485" style="stroke: #000000; stroke-width: 0.8"/>
      </g>
     </g>
     <g id="text_19">
      <!-- 0.4 -->
      <g transform="translate(22.099375 208.894985) scale(0.08 -0.08)">
       <use xlink:href="#TimesNewRomanPSMT-30"/>
       <use xlink:href="#TimesNewRomanPSMT-2e" transform="translate(50 0)"/>
       <use xlink:href="#TimesNewRomanPSMT-34" transform="translate(75 0)"/>
      </g>
     </g>
    </g>
    <g id="ytick_8">
     <g id="line2d_28">
      <g>
       <use xlink:href="#m2c5b699868" x="35.599375" y="187.525113" style="stroke: #000000; stroke-width: 0.8"/>
      </g>
     </g>
     <g id="text_20">
      <!-- 0.6 -->
      <g transform="translate(22.099375 190.302613) scale(0.08 -0.08)">
       <defs>
        <path id="TimesNewRomanPSMT-36" d="M 2869 4325 
L 2869 4209 
Q 2456 4169 2195 4045 
Q 1934 3922 1679 3669 
Q 1425 3416 1258 3105 
Q 1091 2794 978 2366 
Q 1428 2675 1881 2675 
Q 2316 2675 2634 2325 
Q 2953 1975 2953 1425 
Q 2953 894 2631 456 
Q 2244 -75 1606 -75 
Q 1172 -75 869 213 
Q 275 772 275 1663 
Q 275 2231 503 2743 
Q 731 3256 1154 3653 
Q 1578 4050 1965 4187 
Q 2353 4325 2688 4325 
L 2869 4325 
z
M 925 2138 
Q 869 1716 869 1456 
Q 869 1156 980 804 
Q 1091 453 1309 247 
Q 1469 100 1697 100 
Q 1969 100 2183 356 
Q 2397 613 2397 1088 
Q 2397 1622 2184 2012 
Q 1972 2403 1581 2403 
Q 1463 2403 1327 2353 
Q 1191 2303 925 2138 
z
" transform="scale(0.015625)"/>
       </defs>
       <use xlink:href="#TimesNewRomanPSMT-30"/>
       <use xlink:href="#TimesNewRomanPSMT-2e" transform="translate(50 0)"/>
       <use xlink:href="#TimesNewRomanPSMT-36" transform="translate(75 0)"/>
      </g>
     </g>
    </g>
    <g id="ytick_9">
     <g id="line2d_29">
      <g>
       <use xlink:href="#m2c5b699868" x="35.599375" y="168.932741" style="stroke: #000000; stroke-width: 0.8"/>
      </g>
     </g>
     <g id="text_21">
      <!-- 0.8 -->
      <g transform="translate(22.099375 171.710241) scale(0.08 -0.08)">
       <defs>
        <path id="TimesNewRomanPSMT-38" d="M 1228 2134 
Q 725 2547 579 2797 
Q 434 3047 434 3316 
Q 434 3728 753 4026 
Q 1072 4325 1600 4325 
Q 2113 4325 2425 4047 
Q 2738 3769 2738 3413 
Q 2738 3175 2569 2928 
Q 2400 2681 1866 2347 
Q 2416 1922 2594 1678 
Q 2831 1359 2831 1006 
Q 2831 559 2490 242 
Q 2150 -75 1597 -75 
Q 994 -75 656 303 
Q 388 606 388 966 
Q 388 1247 577 1523 
Q 766 1800 1228 2134 
z
M 1719 2469 
Q 2094 2806 2194 3001 
Q 2294 3197 2294 3444 
Q 2294 3772 2109 3958 
Q 1925 4144 1606 4144 
Q 1288 4144 1088 3959 
Q 888 3775 888 3528 
Q 888 3366 970 3203 
Q 1053 3041 1206 2894 
L 1719 2469 
z
M 1375 2016 
Q 1116 1797 991 1539 
Q 866 1281 866 981 
Q 866 578 1086 336 
Q 1306 94 1647 94 
Q 1984 94 2187 284 
Q 2391 475 2391 747 
Q 2391 972 2272 1150 
Q 2050 1481 1375 2016 
z
" transform="scale(0.015625)"/>
       </defs>
       <use xlink:href="#TimesNewRomanPSMT-30"/>
       <use xlink:href="#TimesNewRomanPSMT-2e" transform="translate(50 0)"/>
       <use xlink:href="#TimesNewRomanPSMT-38" transform="translate(75 0)"/>
      </g>
     </g>
    </g>
    <g id="ytick_10">
     <g id="line2d_30">
      <g>
       <use xlink:href="#m2c5b699868" x="35.599375" y="150.340369" style="stroke: #000000; stroke-width: 0.8"/>
      </g>
     </g>
     <g id="text_22">
      <!-- 1.0 -->
      <g transform="translate(22.099375 153.117869) scale(0.08 -0.08)">
       <use xlink:href="#TimesNewRomanPSMT-31"/>
       <use xlink:href="#TimesNewRomanPSMT-2e" transform="translate(50 0)"/>
       <use xlink:href="#TimesNewRomanPSMT-30" transform="translate(75 0)"/>
      </g>
     </g>
    </g>
    <g id="text_23">
     <!-- Pearson Correlation -->
     <g transform="translate(15.5325 245.059875) rotate(-90) scale(0.12 -0.12)">
      <defs>
       <path id="TimesNewRomanPSMT-50" d="M 1313 1984 
L 1313 750 
Q 1313 350 1400 253 
Q 1519 116 1759 116 
L 1922 116 
L 1922 0 
L 106 0 
L 106 116 
L 266 116 
Q 534 116 650 291 
Q 713 388 713 750 
L 713 3488 
Q 713 3888 628 3984 
Q 506 4122 266 4122 
L 106 4122 
L 106 4238 
L 1659 4238 
Q 2228 4238 2556 4120 
Q 2884 4003 3109 3725 
Q 3334 3447 3334 3066 
Q 3334 2547 2992 2222 
Q 2650 1897 2025 1897 
Q 1872 1897 1694 1919 
Q 1516 1941 1313 1984 
z
M 1313 2163 
Q 1478 2131 1606 2115 
Q 1734 2100 1825 2100 
Q 2150 2100 2386 2351 
Q 2622 2603 2622 3003 
Q 2622 3278 2509 3514 
Q 2397 3750 2190 3867 
Q 1984 3984 1722 3984 
Q 1563 3984 1313 3925 
L 1313 2163 
z
" transform="scale(0.015625)"/>
       <path id="TimesNewRomanPSMT-6f" d="M 1600 2947 
Q 2250 2947 2644 2453 
Q 2978 2031 2978 1484 
Q 2978 1100 2793 706 
Q 2609 313 2286 112 
Q 1963 -88 1566 -88 
Q 919 -88 538 428 
Q 216 863 216 1403 
Q 216 1797 411 2186 
Q 606 2575 925 2761 
Q 1244 2947 1600 2947 
z
M 1503 2744 
Q 1338 2744 1170 2645 
Q 1003 2547 900 2300 
Q 797 2053 797 1666 
Q 797 1041 1045 587 
Q 1294 134 1700 134 
Q 2003 134 2200 384 
Q 2397 634 2397 1244 
Q 2397 2006 2069 2444 
Q 1847 2744 1503 2744 
z
" transform="scale(0.015625)"/>
       <path id="TimesNewRomanPSMT-43" d="M 3853 4334 
L 3950 2894 
L 3853 2894 
Q 3659 3541 3300 3825 
Q 2941 4109 2438 4109 
Q 2016 4109 1675 3895 
Q 1334 3681 1139 3212 
Q 944 2744 944 2047 
Q 944 1472 1128 1050 
Q 1313 628 1683 403 
Q 2053 178 2528 178 
Q 2941 178 3256 354 
Q 3572 531 3950 1056 
L 4047 994 
Q 3728 428 3303 165 
Q 2878 -97 2294 -97 
Q 1241 -97 663 684 
Q 231 1266 231 2053 
Q 231 2688 515 3219 
Q 800 3750 1298 4042 
Q 1797 4334 2388 4334 
Q 2847 4334 3294 4109 
Q 3425 4041 3481 4041 
Q 3566 4041 3628 4100 
Q 3709 4184 3744 4334 
L 3853 4334 
z
" transform="scale(0.015625)"/>
      </defs>
      <use xlink:href="#TimesNewRomanPSMT-50"/>
      <use xlink:href="#TimesNewRomanPSMT-65" transform="translate(55.615234 0)"/>
      <use xlink:href="#TimesNewRomanPSMT-61" transform="translate(100 0)"/>
      <use xlink:href="#TimesNewRomanPSMT-72" transform="translate(144.384766 0)"/>
      <use xlink:href="#TimesNewRomanPSMT-73" transform="translate(177.685547 0)"/>
      <use xlink:href="#TimesNewRomanPSMT-6f" transform="translate(216.601562 0)"/>
      <use xlink:href="#TimesNewRomanPSMT-6e" transform="translate(266.601562 0)"/>
      <use xlink:href="#TimesNewRomanPSMT-20" transform="translate(316.601562 0)"/>
      <use xlink:href="#TimesNewRomanPSMT-43" transform="translate(341.601562 0)"/>
      <use xlink:href="#TimesNewRomanPSMT-6f" transform="translate(408.300781 0)"/>
      <use xlink:href="#TimesNewRomanPSMT-72" transform="translate(458.300781 0)"/>
      <use xlink:href="#TimesNewRomanPSMT-72" transform="translate(491.601562 0)"/>
      <use xlink:href="#TimesNewRomanPSMT-65" transform="translate(524.902344 0)"/>
      <use xlink:href="#TimesNewRomanPSMT-6c" transform="translate(569.287109 0)"/>
      <use xlink:href="#TimesNewRomanPSMT-61" transform="translate(597.070312 0)"/>
      <use xlink:href="#TimesNewRomanPSMT-74" transform="translate(641.455078 0)"/>
      <use xlink:href="#TimesNewRomanPSMT-69" transform="translate(669.238281 0)"/>
      <use xlink:href="#TimesNewRomanPSMT-6f" transform="translate(697.021484 0)"/>
      <use xlink:href="#TimesNewRomanPSMT-6e" transform="translate(747.021484 0)"/>
     </g>
    </g>
   </g>
   <g id="line2d_31">
    <path d="M 40.221011 243.454364 
L 46.383193 151.348202 
L 52.545375 151.175729 
L 58.707557 151.267793 
L 64.869739 151.334181 
L 71.03192 151.633839 
L 77.194102 151.151972 
L 83.356284 151.263978 
L 89.518466 151.464028 
L 95.680648 151.158491 
L 101.84283 151.449135 
L 108.005011 153.841384 
L 114.167193 152.543049 
L 120.329375 152.418999 
L 126.491557 152.779799 
L 132.653739 151.398516 
" clip-path="url(#p6b5c5cde77)" style="fill: none; stroke: #b22222; stroke-opacity: 0.8; stroke-width: 1.5; stroke-linecap: square"/>
   </g>
   <g id="line2d_32">
    <path d="M 40.221011 241.375151 
L 46.383193 191.254226 
L 52.545375 189.045544 
L 58.707557 188.46176 
L 64.869739 190.470296 
L 71.03192 190.072047 
L 77.194102 188.929557 
L 83.356284 187.502254 
L 89.518466 192.033452 
L 95.680648 189.723771 
L 101.84283 188.04028 
L 108.005011 183.079348 
L 114.167193 184.861615 
L 120.329375 192.149465 
L 126.491557 183.67502 
L 132.653739 188.168985 
" clip-path="url(#p6b5c5cde77)" style="fill: none; stroke-dasharray: 5.55,2.4; stroke-dashoffset: 0; stroke: #b22222; stroke-opacity: 0.8; stroke-width: 1.5"/>
   </g>
   <g id="line2d_33">
    <defs>
     <path id="madf0144a95" d="M 0 2.5 
C 0.663008 2.5 1.29895 2.236584 1.767767 1.767767 
C 2.236584 1.29895 2.5 0.663008 2.5 0 
C 2.5 -0.663008 2.236584 -1.29895 1.767767 -1.767767 
C 1.29895 -2.236584 0.663008 -2.5 0 -2.5 
C -0.663008 -2.5 -1.29895 -2.236584 -1.767767 -1.767767 
C -2.236584 -1.29895 -2.5 -0.663008 -2.5 0 
C -2.5 0.663008 -2.236584 1.29895 -1.767767 1.767767 
C -1.29895 2.236584 -0.663008 2.5 0 2.5 
z
" style="stroke: #b22222"/>
    </defs>
    <g clip-path="url(#p6b5c5cde77)">
     <use xlink:href="#madf0144a95" x="46.383193" y="151.348202" style="fill-opacity: 0; stroke: #b22222"/>
     <use xlink:href="#madf0144a95" x="52.545375" y="151.175729" style="fill-opacity: 0; stroke: #b22222"/>
     <use xlink:href="#madf0144a95" x="58.707557" y="151.267793" style="fill-opacity: 0; stroke: #b22222"/>
     <use xlink:href="#madf0144a95" x="64.869739" y="151.334181" style="fill-opacity: 0; stroke: #b22222"/>
     <use xlink:href="#madf0144a95" x="71.03192" y="151.633839" style="fill-opacity: 0; stroke: #b22222"/>
     <use xlink:href="#madf0144a95" x="77.194102" y="151.151972" style="fill-opacity: 0; stroke: #b22222"/>
     <use xlink:href="#madf0144a95" x="83.356284" y="151.263978" style="fill-opacity: 0; stroke: #b22222"/>
     <use xlink:href="#madf0144a95" x="89.518466" y="151.464028" style="fill-opacity: 0; stroke: #b22222"/>
     <use xlink:href="#madf0144a95" x="95.680648" y="151.158491" style="fill-opacity: 0; stroke: #b22222"/>
     <use xlink:href="#madf0144a95" x="101.84283" y="151.449135" style="fill-opacity: 0; stroke: #b22222"/>
    </g>
   </g>
   <g id="line2d_34">
    <defs>
     <path id="m93320c19dc" d="M 0 2.5 
C 0.663008 2.5 1.29895 2.236584 1.767767 1.767767 
C 2.236584 1.29895 2.5 0.663008 2.5 0 
C 2.5 -0.663008 2.236584 -1.29895 1.767767 -1.767767 
C 1.29895 -2.236584 0.663008 -2.5 0 -2.5 
C -0.663008 -2.5 -1.29895 -2.236584 -1.767767 -1.767767 
C -2.236584 -1.29895 -2.5 -0.663008 -2.5 0 
C -2.5 0.663008 -2.236584 1.29895 -1.767767 1.767767 
C -1.29895 2.236584 -0.663008 2.5 0 2.5 
z
" style="stroke: #b22222"/>
    </defs>
    <g clip-path="url(#p6b5c5cde77)">
     <use xlink:href="#m93320c19dc" x="108.005011" y="153.841384" style="fill: #b22222; stroke: #b22222"/>
     <use xlink:href="#m93320c19dc" x="114.167193" y="152.543049" style="fill: #b22222; stroke: #b22222"/>
     <use xlink:href="#m93320c19dc" x="120.329375" y="152.418999" style="fill: #b22222; stroke: #b22222"/>
     <use xlink:href="#m93320c19dc" x="126.491557" y="152.779799" style="fill: #b22222; stroke: #b22222"/>
     <use xlink:href="#m93320c19dc" x="132.653739" y="151.398516" style="fill: #b22222; stroke: #b22222"/>
    </g>
   </g>
   <g id="line2d_35">
    <g clip-path="url(#p6b5c5cde77)">
     <use xlink:href="#m93320c19dc" x="40.221011" y="243.454364" style="fill: #b22222; stroke: #b22222"/>
    </g>
   </g>
   <g id="line2d_36">
    <defs>
     <path id="m6adb6727c7" d="M -2.5 2.5 
L 2.5 2.5 
L 2.5 -2.5 
L -2.5 -2.5 
z
" style="stroke: #b22222; stroke-linejoin: miter"/>
    </defs>
    <g clip-path="url(#p6b5c5cde77)">
     <use xlink:href="#m6adb6727c7" x="46.383193" y="191.254226" style="fill-opacity: 0; stroke: #b22222; stroke-linejoin: miter"/>
     <use xlink:href="#m6adb6727c7" x="52.545375" y="189.045544" style="fill-opacity: 0; stroke: #b22222; stroke-linejoin: miter"/>
     <use xlink:href="#m6adb6727c7" x="58.707557" y="188.46176" style="fill-opacity: 0; stroke: #b22222; stroke-linejoin: miter"/>
     <use xlink:href="#m6adb6727c7" x="64.869739" y="190.470296" style="fill-opacity: 0; stroke: #b22222; stroke-linejoin: miter"/>
     <use xlink:href="#m6adb6727c7" x="71.03192" y="190.072047" style="fill-opacity: 0; stroke: #b22222; stroke-linejoin: miter"/>
     <use xlink:href="#m6adb6727c7" x="77.194102" y="188.929557" style="fill-opacity: 0; stroke: #b22222; stroke-linejoin: miter"/>
     <use xlink:href="#m6adb6727c7" x="83.356284" y="187.502254" style="fill-opacity: 0; stroke: #b22222; stroke-linejoin: miter"/>
     <use xlink:href="#m6adb6727c7" x="89.518466" y="192.033452" style="fill-opacity: 0; stroke: #b22222; stroke-linejoin: miter"/>
     <use xlink:href="#m6adb6727c7" x="95.680648" y="189.723771" style="fill-opacity: 0; stroke: #b22222; stroke-linejoin: miter"/>
     <use xlink:href="#m6adb6727c7" x="101.84283" y="188.04028" style="fill-opacity: 0; stroke: #b22222; stroke-linejoin: miter"/>
    </g>
   </g>
   <g id="line2d_37">
    <defs>
     <path id="m6e6aa5dba6" d="M -2.5 2.5 
L 2.5 2.5 
L 2.5 -2.5 
L -2.5 -2.5 
z
" style="stroke: #b22222; stroke-linejoin: miter"/>
    </defs>
    <g clip-path="url(#p6b5c5cde77)">
     <use xlink:href="#m6e6aa5dba6" x="108.005011" y="183.079348" style="fill: #b22222; stroke: #b22222; stroke-linejoin: miter"/>
     <use xlink:href="#m6e6aa5dba6" x="114.167193" y="184.861615" style="fill: #b22222; stroke: #b22222; stroke-linejoin: miter"/>
     <use xlink:href="#m6e6aa5dba6" x="120.329375" y="192.149465" style="fill: #b22222; stroke: #b22222; stroke-linejoin: miter"/>
     <use xlink:href="#m6e6aa5dba6" x="126.491557" y="183.67502" style="fill: #b22222; stroke: #b22222; stroke-linejoin: miter"/>
     <use xlink:href="#m6e6aa5dba6" x="132.653739" y="188.168985" style="fill: #b22222; stroke: #b22222; stroke-linejoin: miter"/>
    </g>
   </g>
   <g id="line2d_38">
    <g clip-path="url(#p6b5c5cde77)">
     <use xlink:href="#m6e6aa5dba6" x="40.221011" y="241.375151" style="fill: #b22222; stroke: #b22222; stroke-linejoin: miter"/>
    </g>
   </g>
   <g id="line2d_39">
    <path d="M 40.221011 243.32069 
L 46.383193 151.311073 
L 52.545375 151.113802 
L 58.707557 151.09957 
L 64.869739 151.114006 
L 71.03192 151.077226 
L 77.194102 151.266296 
L 83.356284 151.276756 
L 89.518466 151.047591 
L 95.680648 151.537835 
L 101.84283 151.204706 
L 108.005011 152.121275 
L 114.167193 151.201824 
L 120.329375 151.867079 
L 126.491557 153.552985 
L 132.653739 152.34325 
" clip-path="url(#p6b5c5cde77)" style="fill: none; stroke: #228b22; stroke-opacity: 0.8; stroke-width: 1.5; stroke-linecap: square"/>
   </g>
   <g id="line2d_40">
    <path d="M 40.221011 242.808152 
L 46.383193 195.721009 
L 52.545375 191.819935 
L 58.707557 193.250538 
L 64.869739 192.534469 
L 71.03192 193.494452 
L 77.194102 194.439005 
L 83.356284 190.526148 
L 89.518466 191.845739 
L 95.680648 195.176535 
L 101.84283 192.263516 
L 108.005011 198.215522 
L 114.167193 193.286357 
L 120.329375 197.272137 
L 126.491557 200.319886 
L 132.653739 197.768703 
" clip-path="url(#p6b5c5cde77)" style="fill: none; stroke-dasharray: 5.55,2.4; stroke-dashoffset: 0; stroke: #228b22; stroke-opacity: 0.8; stroke-width: 1.5"/>
   </g>
   <g id="line2d_41">
    <defs>
     <path id="md560d11d61" d="M 0 2.5 
C 0.663008 2.5 1.29895 2.236584 1.767767 1.767767 
C 2.236584 1.29895 2.5 0.663008 2.5 0 
C 2.5 -0.663008 2.236584 -1.29895 1.767767 -1.767767 
C 1.29895 -2.236584 0.663008 -2.5 0 -2.5 
C -0.663008 -2.5 -1.29895 -2.236584 -1.767767 -1.767767 
C -2.236584 -1.29895 -2.5 -0.663008 -2.5 0 
C -2.5 0.663008 -2.236584 1.29895 -1.767767 1.767767 
C -1.29895 2.236584 -0.663008 2.5 0 2.5 
z
" style="stroke: #228b22"/>
    </defs>
    <g clip-path="url(#p6b5c5cde77)">
     <use xlink:href="#md560d11d61" x="46.383193" y="151.311073" style="fill-opacity: 0; stroke: #228b22"/>
     <use xlink:href="#md560d11d61" x="52.545375" y="151.113802" style="fill-opacity: 0; stroke: #228b22"/>
     <use xlink:href="#md560d11d61" x="58.707557" y="151.09957" style="fill-opacity: 0; stroke: #228b22"/>
     <use xlink:href="#md560d11d61" x="64.869739" y="151.114006" style="fill-opacity: 0; stroke: #228b22"/>
     <use xlink:href="#md560d11d61" x="71.03192" y="151.077226" style="fill-opacity: 0; stroke: #228b22"/>
     <use xlink:href="#md560d11d61" x="77.194102" y="151.266296" style="fill-opacity: 0; stroke: #228b22"/>
     <use xlink:href="#md560d11d61" x="83.356284" y="151.276756" style="fill-opacity: 0; stroke: #228b22"/>
     <use xlink:href="#md560d11d61" x="89.518466" y="151.047591" style="fill-opacity: 0; stroke: #228b22"/>
     <use xlink:href="#md560d11d61" x="95.680648" y="151.537835" style="fill-opacity: 0; stroke: #228b22"/>
     <use xlink:href="#md560d11d61" x="101.84283" y="151.204706" style="fill-opacity: 0; stroke: #228b22"/>
    </g>
   </g>
   <g id="line2d_42">
    <defs>
     <path id="m32d8e17ac4" d="M 0 2.5 
C 0.663008 2.5 1.29895 2.236584 1.767767 1.767767 
C 2.236584 1.29895 2.5 0.663008 2.5 0 
C 2.5 -0.663008 2.236584 -1.29895 1.767767 -1.767767 
C 1.29895 -2.236584 0.663008 -2.5 0 -2.5 
C -0.663008 -2.5 -1.29895 -2.236584 -1.767767 -1.767767 
C -2.236584 -1.29895 -2.5 -0.663008 -2.5 0 
C -2.5 0.663008 -2.236584 1.29895 -1.767767 1.767767 
C -1.29895 2.236584 -0.663008 2.5 0 2.5 
z
" style="stroke: #228b22"/>
    </defs>
    <g clip-path="url(#p6b5c5cde77)">
     <use xlink:href="#m32d8e17ac4" x="108.005011" y="152.121275" style="fill: #228b22; stroke: #228b22"/>
     <use xlink:href="#m32d8e17ac4" x="114.167193" y="151.201824" style="fill: #228b22; stroke: #228b22"/>
     <use xlink:href="#m32d8e17ac4" x="120.329375" y="151.867079" style="fill: #228b22; stroke: #228b22"/>
     <use xlink:href="#m32d8e17ac4" x="126.491557" y="153.552985" style="fill: #228b22; stroke: #228b22"/>
     <use xlink:href="#m32d8e17ac4" x="132.653739" y="152.34325" style="fill: #228b22; stroke: #228b22"/>
    </g>
   </g>
   <g id="line2d_43">
    <g clip-path="url(#p6b5c5cde77)">
     <use xlink:href="#m32d8e17ac4" x="40.221011" y="243.32069" style="fill: #228b22; stroke: #228b22"/>
    </g>
   </g>
   <g id="line2d_44">
    <defs>
     <path id="m0c3442ac54" d="M -2.5 2.5 
L 2.5 2.5 
L 2.5 -2.5 
L -2.5 -2.5 
z
" style="stroke: #228b22; stroke-linejoin: miter"/>
    </defs>
    <g clip-path="url(#p6b5c5cde77)">
     <use xlink:href="#m0c3442ac54" x="46.383193" y="195.721009" style="fill-opacity: 0; stroke: #228b22; stroke-linejoin: miter"/>
     <use xlink:href="#m0c3442ac54" x="52.545375" y="191.819935" style="fill-opacity: 0; stroke: #228b22; stroke-linejoin: miter"/>
     <use xlink:href="#m0c3442ac54" x="58.707557" y="193.250538" style="fill-opacity: 0; stroke: #228b22; stroke-linejoin: miter"/>
     <use xlink:href="#m0c3442ac54" x="64.869739" y="192.534469" style="fill-opacity: 0; stroke: #228b22; stroke-linejoin: miter"/>
     <use xlink:href="#m0c3442ac54" x="71.03192" y="193.494452" style="fill-opacity: 0; stroke: #228b22; stroke-linejoin: miter"/>
     <use xlink:href="#m0c3442ac54" x="77.194102" y="194.439005" style="fill-opacity: 0; stroke: #228b22; stroke-linejoin: miter"/>
     <use xlink:href="#m0c3442ac54" x="83.356284" y="190.526148" style="fill-opacity: 0; stroke: #228b22; stroke-linejoin: miter"/>
     <use xlink:href="#m0c3442ac54" x="89.518466" y="191.845739" style="fill-opacity: 0; stroke: #228b22; stroke-linejoin: miter"/>
     <use xlink:href="#m0c3442ac54" x="95.680648" y="195.176535" style="fill-opacity: 0; stroke: #228b22; stroke-linejoin: miter"/>
     <use xlink:href="#m0c3442ac54" x="101.84283" y="192.263516" style="fill-opacity: 0; stroke: #228b22; stroke-linejoin: miter"/>
    </g>
   </g>
   <g id="line2d_45">
    <defs>
     <path id="macd3529ba3" d="M -2.5 2.5 
L 2.5 2.5 
L 2.5 -2.5 
L -2.5 -2.5 
z
" style="stroke: #228b22; stroke-linejoin: miter"/>
    </defs>
    <g clip-path="url(#p6b5c5cde77)">
     <use xlink:href="#macd3529ba3" x="108.005011" y="198.215522" style="fill: #228b22; stroke: #228b22; stroke-linejoin: miter"/>
     <use xlink:href="#macd3529ba3" x="114.167193" y="193.286357" style="fill: #228b22; stroke: #228b22; stroke-linejoin: miter"/>
     <use xlink:href="#macd3529ba3" x="120.329375" y="197.272137" style="fill: #228b22; stroke: #228b22; stroke-linejoin: miter"/>
     <use xlink:href="#macd3529ba3" x="126.491557" y="200.319886" style="fill: #228b22; stroke: #228b22; stroke-linejoin: miter"/>
     <use xlink:href="#macd3529ba3" x="132.653739" y="197.768703" style="fill: #228b22; stroke: #228b22; stroke-linejoin: miter"/>
    </g>
   </g>
   <g id="line2d_46">
    <g clip-path="url(#p6b5c5cde77)">
     <use xlink:href="#macd3529ba3" x="40.221011" y="242.808152" style="fill: #228b22; stroke: #228b22; stroke-linejoin: miter"/>
    </g>
   </g>
   <g id="line2d_47">
    <path d="M 40.221011 242.72714 
L 46.383193 151.285663 
L 52.545375 151.065269 
L 58.707557 151.088226 
L 64.869739 151.193076 
L 71.03192 151.021636 
L 77.194102 151.205786 
L 83.356284 151.09389 
L 89.518466 151.062103 
L 95.680648 151.098684 
L 101.84283 151.184652 
L 108.005011 151.458938 
L 114.167193 151.914482 
L 120.329375 152.691986 
L 126.491557 151.277213 
L 132.653739 151.943657 
" clip-path="url(#p6b5c5cde77)" style="fill: none; stroke: #4682b4; stroke-opacity: 0.8; stroke-width: 1.5; stroke-linecap: square"/>
   </g>
   <g id="line2d_48">
    <path d="M 40.221011 241.380069 
L 46.383193 200.786673 
L 52.545375 198.345704 
L 58.707557 196.086269 
L 64.869739 199.370063 
L 71.03192 197.937399 
L 77.194102 200.255571 
L 83.356284 196.297116 
L 89.518466 197.146932 
L 95.680648 198.304824 
L 101.84283 197.531884 
L 108.005011 199.005126 
L 114.167193 202.046584 
L 120.329375 202.712626 
L 126.491557 198.645291 
L 132.653739 201.315641 
" clip-path="url(#p6b5c5cde77)" style="fill: none; stroke-dasharray: 5.55,2.4; stroke-dashoffset: 0; stroke: #4682b4; stroke-opacity: 0.8; stroke-width: 1.5"/>
   </g>
   <g id="line2d_49">
    <defs>
     <path id="m4bf1fbde76" d="M 0 2.5 
C 0.663008 2.5 1.29895 2.236584 1.767767 1.767767 
C 2.236584 1.29895 2.5 0.663008 2.5 0 
C 2.5 -0.663008 2.236584 -1.29895 1.767767 -1.767767 
C 1.29895 -2.236584 0.663008 -2.5 0 -2.5 
C -0.663008 -2.5 -1.29895 -2.236584 -1.767767 -1.767767 
C -2.236584 -1.29895 -2.5 -0.663008 -2.5 0 
C -2.5 0.663008 -2.236584 1.29895 -1.767767 1.767767 
C -1.29895 2.236584 -0.663008 2.5 0 2.5 
z
" style="stroke: #4682b4"/>
    </defs>
    <g clip-path="url(#p6b5c5cde77)">
     <use xlink:href="#m4bf1fbde76" x="46.383193" y="151.285663" style="fill-opacity: 0; stroke: #4682b4"/>
     <use xlink:href="#m4bf1fbde76" x="52.545375" y="151.065269" style="fill-opacity: 0; stroke: #4682b4"/>
     <use xlink:href="#m4bf1fbde76" x="58.707557" y="151.088226" style="fill-opacity: 0; stroke: #4682b4"/>
     <use xlink:href="#m4bf1fbde76" x="64.869739" y="151.193076" style="fill-opacity: 0; stroke: #4682b4"/>
     <use xlink:href="#m4bf1fbde76" x="71.03192" y="151.021636" style="fill-opacity: 0; stroke: #4682b4"/>
     <use xlink:href="#m4bf1fbde76" x="77.194102" y="151.205786" style="fill-opacity: 0; stroke: #4682b4"/>
     <use xlink:href="#m4bf1fbde76" x="83.356284" y="151.09389" style="fill-opacity: 0; stroke: #4682b4"/>
     <use xlink:href="#m4bf1fbde76" x="89.518466" y="151.062103" style="fill-opacity: 0; stroke: #4682b4"/>
     <use xlink:href="#m4bf1fbde76" x="95.680648" y="151.098684" style="fill-opacity: 0; stroke: #4682b4"/>
     <use xlink:href="#m4bf1fbde76" x="101.84283" y="151.184652" style="fill-opacity: 0; stroke: #4682b4"/>
    </g>
   </g>
   <g id="line2d_50">
    <defs>
     <path id="m7fcdb55235" d="M 0 2.5 
C 0.663008 2.5 1.29895 2.236584 1.767767 1.767767 
C 2.236584 1.29895 2.5 0.663008 2.5 0 
C 2.5 -0.663008 2.236584 -1.29895 1.767767 -1.767767 
C 1.29895 -2.236584 0.663008 -2.5 0 -2.5 
C -0.663008 -2.5 -1.29895 -2.236584 -1.767767 -1.767767 
C -2.236584 -1.29895 -2.5 -0.663008 -2.5 0 
C -2.5 0.663008 -2.236584 1.29895 -1.767767 1.767767 
C -1.29895 2.236584 -0.663008 2.5 0 2.5 
z
" style="stroke: #4682b4"/>
    </defs>
    <g clip-path="url(#p6b5c5cde77)">
     <use xlink:href="#m7fcdb55235" x="108.005011" y="151.458938" style="fill: #4682b4; stroke: #4682b4"/>
     <use xlink:href="#m7fcdb55235" x="114.167193" y="151.914482" style="fill: #4682b4; stroke: #4682b4"/>
     <use xlink:href="#m7fcdb55235" x="120.329375" y="152.691986" style="fill: #4682b4; stroke: #4682b4"/>
     <use xlink:href="#m7fcdb55235" x="126.491557" y="151.277213" style="fill: #4682b4; stroke: #4682b4"/>
     <use xlink:href="#m7fcdb55235" x="132.653739" y="151.943657" style="fill: #4682b4; stroke: #4682b4"/>
    </g>
   </g>
   <g id="line2d_51">
    <g clip-path="url(#p6b5c5cde77)">
     <use xlink:href="#m7fcdb55235" x="40.221011" y="242.72714" style="fill: #4682b4; stroke: #4682b4"/>
    </g>
   </g>
   <g id="line2d_52">
    <defs>
     <path id="m4af4afc5fc" d="M -2.5 2.5 
L 2.5 2.5 
L 2.5 -2.5 
L -2.5 -2.5 
z
" style="stroke: #4682b4; stroke-linejoin: miter"/>
    </defs>
    <g clip-path="url(#p6b5c5cde77)">
     <use xlink:href="#m4af4afc5fc" x="46.383193" y="200.786673" style="fill-opacity: 0; stroke: #4682b4; stroke-linejoin: miter"/>
     <use xlink:href="#m4af4afc5fc" x="52.545375" y="198.345704" style="fill-opacity: 0; stroke: #4682b4; stroke-linejoin: miter"/>
     <use xlink:href="#m4af4afc5fc" x="58.707557" y="196.086269" style="fill-opacity: 0; stroke: #4682b4; stroke-linejoin: miter"/>
     <use xlink:href="#m4af4afc5fc" x="64.869739" y="199.370063" style="fill-opacity: 0; stroke: #4682b4; stroke-linejoin: miter"/>
     <use xlink:href="#m4af4afc5fc" x="71.03192" y="197.937399" style="fill-opacity: 0; stroke: #4682b4; stroke-linejoin: miter"/>
     <use xlink:href="#m4af4afc5fc" x="77.194102" y="200.255571" style="fill-opacity: 0; stroke: #4682b4; stroke-linejoin: miter"/>
     <use xlink:href="#m4af4afc5fc" x="83.356284" y="196.297116" style="fill-opacity: 0; stroke: #4682b4; stroke-linejoin: miter"/>
     <use xlink:href="#m4af4afc5fc" x="89.518466" y="197.146932" style="fill-opacity: 0; stroke: #4682b4; stroke-linejoin: miter"/>
     <use xlink:href="#m4af4afc5fc" x="95.680648" y="198.304824" style="fill-opacity: 0; stroke: #4682b4; stroke-linejoin: miter"/>
     <use xlink:href="#m4af4afc5fc" x="101.84283" y="197.531884" style="fill-opacity: 0; stroke: #4682b4; stroke-linejoin: miter"/>
    </g>
   </g>
   <g id="line2d_53">
    <defs>
     <path id="m52c62d1f82" d="M -2.5 2.5 
L 2.5 2.5 
L 2.5 -2.5 
L -2.5 -2.5 
z
" style="stroke: #4682b4; stroke-linejoin: miter"/>
    </defs>
    <g clip-path="url(#p6b5c5cde77)">
     <use xlink:href="#m52c62d1f82" x="108.005011" y="199.005126" style="fill: #4682b4; stroke: #4682b4; stroke-linejoin: miter"/>
     <use xlink:href="#m52c62d1f82" x="114.167193" y="202.046584" style="fill: #4682b4; stroke: #4682b4; stroke-linejoin: miter"/>
     <use xlink:href="#m52c62d1f82" x="120.329375" y="202.712626" style="fill: #4682b4; stroke: #4682b4; stroke-linejoin: miter"/>
     <use xlink:href="#m52c62d1f82" x="126.491557" y="198.645291" style="fill: #4682b4; stroke: #4682b4; stroke-linejoin: miter"/>
     <use xlink:href="#m52c62d1f82" x="132.653739" y="201.315641" style="fill: #4682b4; stroke: #4682b4; stroke-linejoin: miter"/>
    </g>
   </g>
   <g id="line2d_54">
    <g clip-path="url(#p6b5c5cde77)">
     <use xlink:href="#m52c62d1f82" x="40.221011" y="241.380069" style="fill: #4682b4; stroke: #4682b4; stroke-linejoin: miter"/>
    </g>
   </g>
   <g id="patch_9">
    <path d="M 35.599375 248.076 
L 35.599375 146.4 
" style="fill: none; stroke: #000000; stroke-width: 0.8; stroke-linejoin: miter; stroke-linecap: square"/>
   </g>
   <g id="patch_10">
    <path d="M 137.275375 248.076 
L 137.275375 146.4 
" style="fill: none; stroke: #000000; stroke-width: 0.8; stroke-linejoin: miter; stroke-linecap: square"/>
   </g>
   <g id="patch_11">
    <path d="M 35.599375 248.076 
L 137.275375 248.076 
" style="fill: none; stroke: #000000; stroke-width: 0.8; stroke-linejoin: miter; stroke-linecap: square"/>
   </g>
   <g id="patch_12">
    <path d="M 35.599375 146.4 
L 137.275375 146.4 
" style="fill: none; stroke: #000000; stroke-width: 0.8; stroke-linejoin: miter; stroke-linecap: square"/>
   </g>
   <g id="legend_2">
    <g id="line2d_55">
     <path d="M 44.599375 158.9 
L 54.599375 158.9 
L 64.599375 158.9 
" style="fill: none; stroke: #808080; stroke-width: 1.5; stroke-linecap: square"/>
    </g>
    <g id="text_24">
     <!-- Inputs -->
     <g transform="translate(72.599375 162.4) scale(0.1 -0.1)">
      <defs>
       <path id="TimesNewRomanPSMT-49" d="M 1975 116 
L 1975 0 
L 159 0 
L 159 116 
L 309 116 
Q 572 116 691 269 
Q 766 369 766 750 
L 766 3488 
Q 766 3809 725 3913 
Q 694 3991 597 4047 
Q 459 4122 309 4122 
L 159 4122 
L 159 4238 
L 1975 4238 
L 1975 4122 
L 1822 4122 
Q 1563 4122 1444 3969 
Q 1366 3869 1366 3488 
L 1366 750 
Q 1366 428 1406 325 
Q 1438 247 1538 191 
Q 1672 116 1822 116 
L 1975 116 
z
" transform="scale(0.015625)"/>
       <path id="TimesNewRomanPSMT-70" d="M -6 2578 
L 875 2934 
L 994 2934 
L 994 2266 
Q 1216 2644 1439 2795 
Q 1663 2947 1909 2947 
Q 2341 2947 2628 2609 
Q 2981 2197 2981 1534 
Q 2981 794 2556 309 
Q 2206 -88 1675 -88 
Q 1444 -88 1275 -22 
Q 1150 25 994 166 
L 994 -706 
Q 994 -1000 1030 -1079 
Q 1066 -1159 1155 -1206 
Q 1244 -1253 1478 -1253 
L 1478 -1369 
L -22 -1369 
L -22 -1253 
L 56 -1253 
Q 228 -1256 350 -1188 
Q 409 -1153 442 -1076 
Q 475 -1000 475 -688 
L 475 2019 
Q 475 2297 450 2372 
Q 425 2447 370 2484 
Q 316 2522 222 2522 
Q 147 2522 31 2478 
L -6 2578 
z
M 994 2081 
L 994 1013 
Q 994 666 1022 556 
Q 1066 375 1236 237 
Q 1406 100 1666 100 
Q 1978 100 2172 344 
Q 2425 663 2425 1241 
Q 2425 1897 2138 2250 
Q 1938 2494 1663 2494 
Q 1513 2494 1366 2419 
Q 1253 2363 994 2081 
z
" transform="scale(0.015625)"/>
      </defs>
      <use xlink:href="#TimesNewRomanPSMT-49"/>
      <use xlink:href="#TimesNewRomanPSMT-6e" transform="translate(33.300781 0)"/>
      <use xlink:href="#TimesNewRomanPSMT-70" transform="translate(83.300781 0)"/>
      <use xlink:href="#TimesNewRomanPSMT-75" transform="translate(133.300781 0)"/>
      <use xlink:href="#TimesNewRomanPSMT-74" transform="translate(183.300781 0)"/>
      <use xlink:href="#TimesNewRomanPSMT-73" transform="translate(211.083984 0)"/>
     </g>
    </g>
    <g id="line2d_56">
     <path d="M 44.599375 173.039062 
L 54.599375 173.039062 
L 64.599375 173.039062 
" style="fill: none; stroke-dasharray: 5.55,2.4; stroke-dashoffset: 0; stroke: #808080; stroke-width: 1.5"/>
    </g>
    <g id="text_25">
     <!-- Outputs -->
     <g transform="translate(72.599375 176.539062) scale(0.1 -0.1)">
      <defs>
       <path id="TimesNewRomanPSMT-4f" d="M 2341 4334 
Q 3166 4334 3770 3707 
Q 4375 3081 4375 2144 
Q 4375 1178 3765 540 
Q 3156 -97 2291 -97 
Q 1416 -97 820 525 
Q 225 1147 225 2134 
Q 225 3144 913 3781 
Q 1509 4334 2341 4334 
z
M 2281 4106 
Q 1713 4106 1369 3684 
Q 941 3159 941 2147 
Q 941 1109 1384 550 
Q 1725 125 2284 125 
Q 2881 125 3270 590 
Q 3659 1056 3659 2059 
Q 3659 3147 3231 3681 
Q 2888 4106 2281 4106 
z
" transform="scale(0.015625)"/>
      </defs>
      <use xlink:href="#TimesNewRomanPSMT-4f"/>
      <use xlink:href="#TimesNewRomanPSMT-75" transform="translate(72.216797 0)"/>
      <use xlink:href="#TimesNewRomanPSMT-74" transform="translate(122.216797 0)"/>
      <use xlink:href="#TimesNewRomanPSMT-70" transform="translate(150 0)"/>
      <use xlink:href="#TimesNewRomanPSMT-75" transform="translate(200 0)"/>
      <use xlink:href="#TimesNewRomanPSMT-74" transform="translate(250 0)"/>
      <use xlink:href="#TimesNewRomanPSMT-73" transform="translate(277.783203 0)"/>
     </g>
    </g>
    <g id="line2d_57">
     <defs>
      <path id="mcdae0866f2" d="M 0 2.5 
C 0.663008 2.5 1.29895 2.236584 1.767767 1.767767 
C 2.236584 1.29895 2.5 0.663008 2.5 0 
C 2.5 -0.663008 2.236584 -1.29895 1.767767 -1.767767 
C 1.29895 -2.236584 0.663008 -2.5 0 -2.5 
C -0.663008 -2.5 -1.29895 -2.236584 -1.767767 -1.767767 
C -2.236584 -1.29895 -2.5 -0.663008 -2.5 0 
C -2.5 0.663008 -2.236584 1.29895 -1.767767 1.767767 
C -1.29895 2.236584 -0.663008 2.5 0 2.5 
z
" style="stroke: #808080"/>
     </defs>
     <g>
      <use xlink:href="#mcdae0866f2" x="54.599375" y="187.178125" style="fill-opacity: 0; stroke: #808080"/>
     </g>
    </g>
    <g id="text_26">
     <!-- Training -->
     <g transform="translate(72.599375 190.678125) scale(0.1 -0.1)">
      <use xlink:href="#TimesNewRomanPSMT-54"/>
      <use xlink:href="#TimesNewRomanPSMT-72" transform="translate(57.583984 0)"/>
      <use xlink:href="#TimesNewRomanPSMT-61" transform="translate(90.884766 0)"/>
      <use xlink:href="#TimesNewRomanPSMT-69" transform="translate(135.269531 0)"/>
      <use xlink:href="#TimesNewRomanPSMT-6e" transform="translate(163.052734 0)"/>
      <use xlink:href="#TimesNewRomanPSMT-69" transform="translate(213.052734 0)"/>
      <use xlink:href="#TimesNewRomanPSMT-6e" transform="translate(240.835938 0)"/>
      <use xlink:href="#TimesNewRomanPSMT-67" transform="translate(290.835938 0)"/>
     </g>
    </g>
    <g id="line2d_58">
     <defs>
      <path id="m15e11fa097" d="M 0 2.5 
C 0.663008 2.5 1.29895 2.236584 1.767767 1.767767 
C 2.236584 1.29895 2.5 0.663008 2.5 0 
C 2.5 -0.663008 2.236584 -1.29895 1.767767 -1.767767 
C 1.29895 -2.236584 0.663008 -2.5 0 -2.5 
C -0.663008 -2.5 -1.29895 -2.236584 -1.767767 -1.767767 
C -2.236584 -1.29895 -2.5 -0.663008 -2.5 0 
C -2.5 0.663008 -2.236584 1.29895 -1.767767 1.767767 
C -1.29895 2.236584 -0.663008 2.5 0 2.5 
z
" style="stroke: #808080"/>
     </defs>
     <g>
      <use xlink:href="#m15e11fa097" x="54.599375" y="201.335937" style="fill: #808080; stroke: #808080"/>
     </g>
    </g>
    <g id="text_27">
     <!-- Testing -->
     <g transform="translate(72.599375 204.835937) scale(0.1 -0.1)">
      <use xlink:href="#TimesNewRomanPSMT-54"/>
      <use xlink:href="#TimesNewRomanPSMT-65" transform="translate(54.083984 0)"/>
      <use xlink:href="#TimesNewRomanPSMT-73" transform="translate(98.46875 0)"/>
      <use xlink:href="#TimesNewRomanPSMT-74" transform="translate(137.384766 0)"/>
      <use xlink:href="#TimesNewRomanPSMT-69" transform="translate(165.167969 0)"/>
      <use xlink:href="#TimesNewRomanPSMT-6e" transform="translate(192.951172 0)"/>
      <use xlink:href="#TimesNewRomanPSMT-67" transform="translate(242.951172 0)"/>
     </g>
    </g>
    <g id="line2d_59">
     <g>
      <use xlink:href="#m93320c19dc" x="54.599375" y="215.49375" style="fill: #b22222; stroke: #b22222"/>
     </g>
    </g>
    <g id="text_28">
     <!-- LIF -->
     <g transform="translate(72.599375 218.99375) scale(0.1 -0.1)">
      <defs>
       <path id="TimesNewRomanPSMT-4c" d="M 3669 1172 
L 3772 1150 
L 3409 0 
L 128 0 
L 128 116 
L 288 116 
Q 556 116 672 291 
Q 738 391 738 753 
L 738 3488 
Q 738 3884 650 3984 
Q 528 4122 288 4122 
L 128 4122 
L 128 4238 
L 2047 4238 
L 2047 4122 
Q 1709 4125 1573 4059 
Q 1438 3994 1388 3894 
Q 1338 3794 1338 3416 
L 1338 753 
Q 1338 494 1388 397 
Q 1425 331 1503 300 
Q 1581 269 1991 269 
L 2300 269 
Q 2788 269 2984 341 
Q 3181 413 3343 595 
Q 3506 778 3669 1172 
z
" transform="scale(0.015625)"/>
       <path id="TimesNewRomanPSMT-46" d="M 1309 4006 
L 1309 2341 
L 2081 2341 
Q 2347 2341 2470 2458 
Q 2594 2575 2634 2922 
L 2750 2922 
L 2750 1488 
L 2634 1488 
Q 2631 1734 2570 1850 
Q 2509 1966 2401 2023 
Q 2294 2081 2081 2081 
L 1309 2081 
L 1309 750 
Q 1309 428 1350 325 
Q 1381 247 1481 191 
Q 1619 116 1769 116 
L 1922 116 
L 1922 0 
L 103 0 
L 103 116 
L 253 116 
Q 516 116 634 269 
Q 709 369 709 750 
L 709 3488 
Q 709 3809 669 3913 
Q 638 3991 541 4047 
Q 406 4122 253 4122 
L 103 4122 
L 103 4238 
L 3256 4238 
L 3297 3306 
L 3188 3306 
Q 3106 3603 2998 3742 
Q 2891 3881 2733 3943 
Q 2575 4006 2244 4006 
L 1309 4006 
z
" transform="scale(0.015625)"/>
      </defs>
      <use xlink:href="#TimesNewRomanPSMT-4c"/>
      <use xlink:href="#TimesNewRomanPSMT-49" transform="translate(61.083984 0)"/>
      <use xlink:href="#TimesNewRomanPSMT-46" transform="translate(94.384766 0)"/>
     </g>
    </g>
    <g id="line2d_60">
     <g>
      <use xlink:href="#m32d8e17ac4" x="54.599375" y="229.632812" style="fill: #228b22; stroke: #228b22"/>
     </g>
    </g>
    <g id="text_29">
     <!-- MIX -->
     <g transform="translate(72.599375 233.132812) scale(0.1 -0.1)">
      <defs>
       <path id="TimesNewRomanPSMT-4d" d="M 2619 0 
L 981 3566 
L 981 734 
Q 981 344 1066 247 
Q 1181 116 1431 116 
L 1581 116 
L 1581 0 
L 106 0 
L 106 116 
L 256 116 
Q 525 116 638 278 
Q 706 378 706 734 
L 706 3503 
Q 706 3784 644 3909 
Q 600 4000 483 4061 
Q 366 4122 106 4122 
L 106 4238 
L 1306 4238 
L 2844 922 
L 4356 4238 
L 5556 4238 
L 5556 4122 
L 5409 4122 
Q 5138 4122 5025 3959 
Q 4956 3859 4956 3503 
L 4956 734 
Q 4956 344 5044 247 
Q 5159 116 5409 116 
L 5556 116 
L 5556 0 
L 3756 0 
L 3756 116 
L 3906 116 
Q 4178 116 4288 278 
Q 4356 378 4356 734 
L 4356 3566 
L 2722 0 
L 2619 0 
z
" transform="scale(0.015625)"/>
       <path id="TimesNewRomanPSMT-58" d="M 2613 2347 
L 3522 991 
Q 3900 428 4083 279 
Q 4266 131 4547 116 
L 4547 0 
L 2728 0 
L 2728 116 
Q 2909 119 2997 153 
Q 3063 181 3105 239 
Q 3147 297 3147 356 
Q 3147 428 3119 500 
Q 3097 553 2947 775 
L 2228 1863 
L 1341 725 
Q 1200 544 1172 483 
Q 1144 422 1144 356 
Q 1144 256 1228 190 
Q 1313 125 1550 116 
L 1550 0 
L 47 0 
L 47 116 
Q 206 131 322 181 
Q 516 263 691 400 
Q 866 538 1091 822 
L 2091 2084 
L 1256 3306 
Q 916 3803 678 3958 
Q 441 4113 131 4122 
L 131 4238 
L 2091 4238 
L 2091 4122 
Q 1841 4113 1748 4041 
Q 1656 3969 1656 3881 
Q 1656 3766 1806 3544 
L 2456 2572 
L 3209 3525 
Q 3341 3694 3370 3756 
Q 3400 3819 3400 3884 
Q 3400 3950 3363 4000 
Q 3316 4066 3244 4092 
Q 3172 4119 2947 4122 
L 2947 4238 
L 4450 4238 
L 4450 4122 
Q 4272 4113 4159 4066 
Q 3991 3994 3850 3872 
Q 3709 3750 3453 3422 
L 2613 2347 
z
" transform="scale(0.015625)"/>
      </defs>
      <use xlink:href="#TimesNewRomanPSMT-4d"/>
      <use xlink:href="#TimesNewRomanPSMT-49" transform="translate(88.916016 0)"/>
      <use xlink:href="#TimesNewRomanPSMT-58" transform="translate(122.216797 0)"/>
     </g>
    </g>
    <g id="line2d_61">
     <g>
      <use xlink:href="#m7fcdb55235" x="54.599375" y="243.771875" style="fill: #4682b4; stroke: #4682b4"/>
     </g>
    </g>
    <g id="text_30">
     <!-- QIF -->
     <g transform="translate(72.599375 247.271875) scale(0.1 -0.1)">
      <defs>
       <path id="TimesNewRomanPSMT-51" d="M 2819 -47 
Q 3138 -597 3508 -856 
Q 3878 -1116 4350 -1153 
L 4350 -1253 
Q 3919 -1238 3428 -1080 
Q 2938 -922 2498 -642 
Q 2059 -363 1741 -47 
Q 1291 134 1028 338 
Q 647 641 436 1083 
Q 225 1525 225 2128 
Q 225 3078 840 3706 
Q 1456 4334 2331 4334 
Q 3163 4334 3770 3704 
Q 4378 3075 4378 2116 
Q 4378 1338 3945 750 
Q 3513 163 2819 -47 
z
M 2294 4094 
Q 1725 4094 1378 3688 
Q 941 3178 941 2128 
Q 941 1100 1384 544 
Q 1728 116 2294 116 
Q 2881 116 3241 544 
Q 3663 1050 3663 2038 
Q 3663 2797 3431 3316 
Q 3253 3716 2958 3905 
Q 2663 4094 2294 4094 
z
" transform="scale(0.015625)"/>
      </defs>
      <use xlink:href="#TimesNewRomanPSMT-51"/>
      <use xlink:href="#TimesNewRomanPSMT-49" transform="translate(72.216797 0)"/>
      <use xlink:href="#TimesNewRomanPSMT-46" transform="translate(105.517578 0)"/>
     </g>
    </g>
   </g>
  </g>
 </g>
 <defs>
  <clipPath id="p24fd13be89">
   <rect x="35.599375" y="7.2" width="101.676" height="101.676"/>
  </clipPath>
  <clipPath id="p6b5c5cde77">
   <rect x="35.599375" y="146.4" width="101.676" height="101.676"/>
  </clipPath>
 </defs>
</svg>
