<?xml version="1.0" encoding="utf-8" standalone="no"?>
<!DOCTYPE svg PUBLIC "-//W3C//DTD SVG 1.1//EN"
  "http://www.w3.org/Graphics/SVG/1.1/DTD/svg11.dtd">
<svg xmlns:xlink="http://www.w3.org/1999/xlink" width="492.597375pt" height="492.545906pt" viewBox="0 0 492.597375 492.545906" xmlns="http://www.w3.org/2000/svg" version="1.1">
 <metadata>
  <rdf:RDF xmlns:dc="http://purl.org/dc/elements/1.1/" xmlns:cc="http://creativecommons.org/ns#" xmlns:rdf="http://www.w3.org/1999/02/22-rdf-syntax-ns#">
   <cc:Work>
    <dc:type rdf:resource="http://purl.org/dc/dcmitype/StillImage"/>
    <dc:date>2025-12-19T18:35:06.304591</dc:date>
    <dc:format>image/svg+xml</dc:format>
    <dc:creator>
     <cc:Agent>
      <dc:title>Matplotlib v3.10.5, https://matplotlib.org/</dc:title>
     </cc:Agent>
    </dc:creator>
   </cc:Work>
  </rdf:RDF>
 </metadata>
 <defs>
  <style type="text/css">*{stroke-linejoin: round; stroke-linecap: butt}</style>
 </defs>
 <g id="figure_1">
  <g id="patch_1">
   <path d="M 0 492.545906 
L 492.597375 492.545906 
L 492.597375 0 
L 0 0 
z
" style="fill: #ffffff"/>
  </g>
  <g id="axes_1">
   <g id="patch_2">
    <path d="M 36.849375 458.772 
L 485.397375 458.772 
L 485.397375 7.2 
L 36.849375 7.2 
z
" style="fill: #ffffff"/>
   </g>
   <g id="matplotlib.axis_1">
    <g id="xtick_1">
     <g id="line2d_1">
      <defs>
       <path id="m83ea5875fb" d="M 0 0 
L 0 -3.5 
" style="stroke: #000000; stroke-width: 0.8"/>
      </defs>
      <g>
       <use xlink:href="#m83ea5875fb" x="57.23792" y="458.772" style="stroke: #000000; stroke-width: 0.8"/>
      </g>
     </g>
     <g id="text_1">
      <!-- 0 -->
      <g transform="translate(54.98792 468.521375) scale(0.09 -0.09)">
       <defs>
        <path id="TimesNewRomanPSMT-30" d="M 231 2094 
Q 231 2819 450 3342 
Q 669 3866 1031 4122 
Q 1313 4325 1613 4325 
Q 2100 4325 2488 3828 
Q 2972 3213 2972 2159 
Q 2972 1422 2759 906 
Q 2547 391 2217 158 
Q 1888 -75 1581 -75 
Q 975 -75 572 641 
Q 231 1244 231 2094 
z
M 844 2016 
Q 844 1141 1059 588 
Q 1238 122 1591 122 
Q 1759 122 1940 273 
Q 2122 425 2216 781 
Q 2359 1319 2359 2297 
Q 2359 3022 2209 3506 
Q 2097 3866 1919 4016 
Q 1791 4119 1609 4119 
Q 1397 4119 1231 3928 
Q 1006 3669 925 3112 
Q 844 2556 844 2016 
z
" transform="scale(0.015625)"/>
       </defs>
       <use xlink:href="#TimesNewRomanPSMT-30"/>
      </g>
     </g>
    </g>
    <g id="xtick_2">
     <g id="line2d_2">
      <g>
       <use xlink:href="#m83ea5875fb" x="111.607375" y="458.772" style="stroke: #000000; stroke-width: 0.8"/>
      </g>
     </g>
     <g id="text_2">
      <!-- 2 -->
      <g transform="translate(109.357375 468.521375) scale(0.09 -0.09)">
       <defs>
        <path id="TimesNewRomanPSMT-32" d="M 2934 816 
L 2638 0 
L 138 0 
L 138 116 
Q 1241 1122 1691 1759 
Q 2141 2397 2141 2925 
Q 2141 3328 1894 3587 
Q 1647 3847 1303 3847 
Q 991 3847 742 3664 
Q 494 3481 375 3128 
L 259 3128 
Q 338 3706 661 4015 
Q 984 4325 1469 4325 
Q 1984 4325 2329 3994 
Q 2675 3663 2675 3213 
Q 2675 2891 2525 2569 
Q 2294 2063 1775 1497 
Q 997 647 803 472 
L 1909 472 
Q 2247 472 2383 497 
Q 2519 522 2628 598 
Q 2738 675 2819 816 
L 2934 816 
z
" transform="scale(0.015625)"/>
       </defs>
       <use xlink:href="#TimesNewRomanPSMT-32"/>
      </g>
     </g>
    </g>
    <g id="xtick_3">
     <g id="line2d_3">
      <g>
       <use xlink:href="#m83ea5875fb" x="165.97683" y="458.772" style="stroke: #000000; stroke-width: 0.8"/>
      </g>
     </g>
     <g id="text_3">
      <!-- 4 -->
      <g transform="translate(163.72683 468.521375) scale(0.09 -0.09)">
       <defs>
        <path id="TimesNewRomanPSMT-34" d="M 2978 1563 
L 2978 1119 
L 2409 1119 
L 2409 0 
L 1894 0 
L 1894 1119 
L 100 1119 
L 100 1519 
L 2066 4325 
L 2409 4325 
L 2409 1563 
L 2978 1563 
z
M 1894 1563 
L 1894 3666 
L 406 1563 
L 1894 1563 
z
" transform="scale(0.015625)"/>
       </defs>
       <use xlink:href="#TimesNewRomanPSMT-34"/>
      </g>
     </g>
    </g>
    <g id="xtick_4">
     <g id="line2d_4">
      <g>
       <use xlink:href="#m83ea5875fb" x="220.346284" y="458.772" style="stroke: #000000; stroke-width: 0.8"/>
      </g>
     </g>
     <g id="text_4">
      <!-- 6 -->
      <g transform="translate(218.096284 468.521375) scale(0.09 -0.09)">
       <defs>
        <path id="TimesNewRomanPSMT-36" d="M 2869 4325 
L 2869 4209 
Q 2456 4169 2195 4045 
Q 1934 3922 1679 3669 
Q 1425 3416 1258 3105 
Q 1091 2794 978 2366 
Q 1428 2675 1881 2675 
Q 2316 2675 2634 2325 
Q 2953 1975 2953 1425 
Q 2953 894 2631 456 
Q 2244 -75 1606 -75 
Q 1172 -75 869 213 
Q 275 772 275 1663 
Q 275 2231 503 2743 
Q 731 3256 1154 3653 
Q 1578 4050 1965 4187 
Q 2353 4325 2688 4325 
L 2869 4325 
z
M 925 2138 
Q 869 1716 869 1456 
Q 869 1156 980 804 
Q 1091 453 1309 247 
Q 1469 100 1697 100 
Q 1969 100 2183 356 
Q 2397 613 2397 1088 
Q 2397 1622 2184 2012 
Q 1972 2403 1581 2403 
Q 1463 2403 1327 2353 
Q 1191 2303 925 2138 
z
" transform="scale(0.015625)"/>
       </defs>
       <use xlink:href="#TimesNewRomanPSMT-36"/>
      </g>
     </g>
    </g>
    <g id="xtick_5">
     <g id="line2d_5">
      <g>
       <use xlink:href="#m83ea5875fb" x="274.715739" y="458.772" style="stroke: #000000; stroke-width: 0.8"/>
      </g>
     </g>
     <g id="text_5">
      <!-- 8 -->
      <g transform="translate(272.465739 468.521375) scale(0.09 -0.09)">
       <defs>
        <path id="TimesNewRomanPSMT-38" d="M 1228 2134 
Q 725 2547 579 2797 
Q 434 3047 434 3316 
Q 434 3728 753 4026 
Q 1072 4325 1600 4325 
Q 2113 4325 2425 4047 
Q 2738 3769 2738 3413 
Q 2738 3175 2569 2928 
Q 2400 2681 1866 2347 
Q 2416 1922 2594 1678 
Q 2831 1359 2831 1006 
Q 2831 559 2490 242 
Q 2150 -75 1597 -75 
Q 994 -75 656 303 
Q 388 606 388 966 
Q 388 1247 577 1523 
Q 766 1800 1228 2134 
z
M 1719 2469 
Q 2094 2806 2194 3001 
Q 2294 3197 2294 3444 
Q 2294 3772 2109 3958 
Q 1925 4144 1606 4144 
Q 1288 4144 1088 3959 
Q 888 3775 888 3528 
Q 888 3366 970 3203 
Q 1053 3041 1206 2894 
L 1719 2469 
z
M 1375 2016 
Q 1116 1797 991 1539 
Q 866 1281 866 981 
Q 866 578 1086 336 
Q 1306 94 1647 94 
Q 1984 94 2187 284 
Q 2391 475 2391 747 
Q 2391 972 2272 1150 
Q 2050 1481 1375 2016 
z
" transform="scale(0.015625)"/>
       </defs>
       <use xlink:href="#TimesNewRomanPSMT-38"/>
      </g>
     </g>
    </g>
    <g id="xtick_6">
     <g id="line2d_6">
      <g>
       <use xlink:href="#m83ea5875fb" x="329.085193" y="458.772" style="stroke: #000000; stroke-width: 0.8"/>
      </g>
     </g>
     <g id="text_6">
      <!-- 10 -->
      <g transform="translate(324.585193 468.521375) scale(0.09 -0.09)">
       <defs>
        <path id="TimesNewRomanPSMT-31" d="M 750 3822 
L 1781 4325 
L 1884 4325 
L 1884 747 
Q 1884 391 1914 303 
Q 1944 216 2037 169 
Q 2131 122 2419 116 
L 2419 0 
L 825 0 
L 825 116 
Q 1125 122 1212 167 
Q 1300 213 1334 289 
Q 1369 366 1369 747 
L 1369 3034 
Q 1369 3497 1338 3628 
Q 1316 3728 1258 3775 
Q 1200 3822 1119 3822 
Q 1003 3822 797 3725 
L 750 3822 
z
" transform="scale(0.015625)"/>
       </defs>
       <use xlink:href="#TimesNewRomanPSMT-31"/>
       <use xlink:href="#TimesNewRomanPSMT-30" transform="translate(50 0)"/>
      </g>
     </g>
    </g>
    <g id="xtick_7">
     <g id="line2d_7">
      <g>
       <use xlink:href="#m83ea5875fb" x="383.454648" y="458.772" style="stroke: #000000; stroke-width: 0.8"/>
      </g>
     </g>
     <g id="text_7">
      <!-- 12 -->
      <g transform="translate(378.954648 468.521375) scale(0.09 -0.09)">
       <use xlink:href="#TimesNewRomanPSMT-31"/>
       <use xlink:href="#TimesNewRomanPSMT-32" transform="translate(50 0)"/>
      </g>
     </g>
    </g>
    <g id="xtick_8">
     <g id="line2d_8">
      <g>
       <use xlink:href="#m83ea5875fb" x="437.824102" y="458.772" style="stroke: #000000; stroke-width: 0.8"/>
      </g>
     </g>
     <g id="text_8">
      <!-- 14 -->
      <g transform="translate(433.324102 468.521375) scale(0.09 -0.09)">
       <use xlink:href="#TimesNewRomanPSMT-31"/>
       <use xlink:href="#TimesNewRomanPSMT-34" transform="translate(50 0)"/>
      </g>
     </g>
    </g>
    <g id="text_9">
     <!-- Iteration -->
     <g transform="translate(240.80025 482.779031) scale(0.12 -0.12)">
      <defs>
       <path id="TimesNewRomanPSMT-49" d="M 1975 116 
L 1975 0 
L 159 0 
L 159 116 
L 309 116 
Q 572 116 691 269 
Q 766 369 766 750 
L 766 3488 
Q 766 3809 725 3913 
Q 694 3991 597 4047 
Q 459 4122 309 4122 
L 159 4122 
L 159 4238 
L 1975 4238 
L 1975 4122 
L 1822 4122 
Q 1563 4122 1444 3969 
Q 1366 3869 1366 3488 
L 1366 750 
Q 1366 428 1406 325 
Q 1438 247 1538 191 
Q 1672 116 1822 116 
L 1975 116 
z
" transform="scale(0.015625)"/>
       <path id="TimesNewRomanPSMT-74" d="M 1031 3803 
L 1031 2863 
L 1700 2863 
L 1700 2644 
L 1031 2644 
L 1031 788 
Q 1031 509 1111 412 
Q 1191 316 1316 316 
Q 1419 316 1516 380 
Q 1613 444 1666 569 
L 1788 569 
Q 1678 263 1478 108 
Q 1278 -47 1066 -47 
Q 922 -47 784 33 
Q 647 113 581 261 
Q 516 409 516 719 
L 516 2644 
L 63 2644 
L 63 2747 
Q 234 2816 414 2980 
Q 594 3144 734 3369 
Q 806 3488 934 3803 
L 1031 3803 
z
" transform="scale(0.015625)"/>
       <path id="TimesNewRomanPSMT-65" d="M 681 1784 
Q 678 1147 991 784 
Q 1303 422 1725 422 
Q 2006 422 2214 576 
Q 2422 731 2563 1106 
L 2659 1044 
Q 2594 616 2278 264 
Q 1963 -88 1488 -88 
Q 972 -88 605 314 
Q 238 716 238 1394 
Q 238 2128 614 2539 
Q 991 2950 1559 2950 
Q 2041 2950 2350 2633 
Q 2659 2316 2659 1784 
L 681 1784 
z
M 681 1966 
L 2006 1966 
Q 1991 2241 1941 2353 
Q 1863 2528 1708 2628 
Q 1553 2728 1384 2728 
Q 1125 2728 920 2526 
Q 716 2325 681 1966 
z
" transform="scale(0.015625)"/>
       <path id="TimesNewRomanPSMT-72" d="M 1038 2947 
L 1038 2303 
Q 1397 2947 1775 2947 
Q 1947 2947 2059 2842 
Q 2172 2738 2172 2600 
Q 2172 2478 2090 2393 
Q 2009 2309 1897 2309 
Q 1788 2309 1652 2417 
Q 1516 2525 1450 2525 
Q 1394 2525 1328 2463 
Q 1188 2334 1038 2041 
L 1038 669 
Q 1038 431 1097 309 
Q 1138 225 1241 169 
Q 1344 113 1538 113 
L 1538 0 
L 72 0 
L 72 113 
Q 291 113 397 181 
Q 475 231 506 341 
Q 522 394 522 644 
L 522 1753 
Q 522 2253 501 2348 
Q 481 2444 426 2487 
Q 372 2531 291 2531 
Q 194 2531 72 2484 
L 41 2597 
L 906 2947 
L 1038 2947 
z
" transform="scale(0.015625)"/>
       <path id="TimesNewRomanPSMT-61" d="M 1822 413 
Q 1381 72 1269 19 
Q 1100 -59 909 -59 
Q 613 -59 420 144 
Q 228 347 228 678 
Q 228 888 322 1041 
Q 450 1253 767 1440 
Q 1084 1628 1822 1897 
L 1822 2009 
Q 1822 2438 1686 2597 
Q 1550 2756 1291 2756 
Q 1094 2756 978 2650 
Q 859 2544 859 2406 
L 866 2225 
Q 866 2081 792 2003 
Q 719 1925 600 1925 
Q 484 1925 411 2006 
Q 338 2088 338 2228 
Q 338 2497 613 2722 
Q 888 2947 1384 2947 
Q 1766 2947 2009 2819 
Q 2194 2722 2281 2516 
Q 2338 2381 2338 1966 
L 2338 994 
Q 2338 584 2353 492 
Q 2369 400 2405 369 
Q 2441 338 2488 338 
Q 2538 338 2575 359 
Q 2641 400 2828 588 
L 2828 413 
Q 2478 -56 2159 -56 
Q 2006 -56 1915 50 
Q 1825 156 1822 413 
z
M 1822 616 
L 1822 1706 
Q 1350 1519 1213 1441 
Q 966 1303 859 1153 
Q 753 1003 753 825 
Q 753 600 887 451 
Q 1022 303 1197 303 
Q 1434 303 1822 616 
z
" transform="scale(0.015625)"/>
       <path id="TimesNewRomanPSMT-69" d="M 928 4444 
Q 1059 4444 1151 4351 
Q 1244 4259 1244 4128 
Q 1244 3997 1151 3903 
Q 1059 3809 928 3809 
Q 797 3809 703 3903 
Q 609 3997 609 4128 
Q 609 4259 701 4351 
Q 794 4444 928 4444 
z
M 1188 2947 
L 1188 647 
Q 1188 378 1227 289 
Q 1266 200 1342 156 
Q 1419 113 1622 113 
L 1622 0 
L 231 0 
L 231 113 
Q 441 113 512 153 
Q 584 194 626 287 
Q 669 381 669 647 
L 669 1750 
Q 669 2216 641 2353 
Q 619 2453 572 2492 
Q 525 2531 444 2531 
Q 356 2531 231 2484 
L 188 2597 
L 1050 2947 
L 1188 2947 
z
" transform="scale(0.015625)"/>
       <path id="TimesNewRomanPSMT-6f" d="M 1600 2947 
Q 2250 2947 2644 2453 
Q 2978 2031 2978 1484 
Q 2978 1100 2793 706 
Q 2609 313 2286 112 
Q 1963 -88 1566 -88 
Q 919 -88 538 428 
Q 216 863 216 1403 
Q 216 1797 411 2186 
Q 606 2575 925 2761 
Q 1244 2947 1600 2947 
z
M 1503 2744 
Q 1338 2744 1170 2645 
Q 1003 2547 900 2300 
Q 797 2053 797 1666 
Q 797 1041 1045 587 
Q 1294 134 1700 134 
Q 2003 134 2200 384 
Q 2397 634 2397 1244 
Q 2397 2006 2069 2444 
Q 1847 2744 1503 2744 
z
" transform="scale(0.015625)"/>
       <path id="TimesNewRomanPSMT-6e" d="M 1034 2341 
Q 1538 2947 1994 2947 
Q 2228 2947 2397 2830 
Q 2566 2713 2666 2444 
Q 2734 2256 2734 1869 
L 2734 647 
Q 2734 375 2778 278 
Q 2813 200 2889 156 
Q 2966 113 3172 113 
L 3172 0 
L 1756 0 
L 1756 113 
L 1816 113 
Q 2016 113 2095 173 
Q 2175 234 2206 353 
Q 2219 400 2219 647 
L 2219 1819 
Q 2219 2209 2117 2386 
Q 2016 2563 1775 2563 
Q 1403 2563 1034 2156 
L 1034 647 
Q 1034 356 1069 288 
Q 1113 197 1189 155 
Q 1266 113 1500 113 
L 1500 0 
L 84 0 
L 84 113 
L 147 113 
Q 366 113 442 223 
Q 519 334 519 647 
L 519 1709 
Q 519 2225 495 2337 
Q 472 2450 423 2490 
Q 375 2531 294 2531 
Q 206 2531 84 2484 
L 38 2597 
L 900 2947 
L 1034 2947 
L 1034 2341 
z
" transform="scale(0.015625)"/>
      </defs>
      <use xlink:href="#TimesNewRomanPSMT-49"/>
      <use xlink:href="#TimesNewRomanPSMT-74" transform="translate(33.300781 0)"/>
      <use xlink:href="#TimesNewRomanPSMT-65" transform="translate(61.083984 0)"/>
      <use xlink:href="#TimesNewRomanPSMT-72" transform="translate(105.46875 0)"/>
      <use xlink:href="#TimesNewRomanPSMT-61" transform="translate(138.769531 0)"/>
      <use xlink:href="#TimesNewRomanPSMT-74" transform="translate(183.154297 0)"/>
      <use xlink:href="#TimesNewRomanPSMT-69" transform="translate(210.9375 0)"/>
      <use xlink:href="#TimesNewRomanPSMT-6f" transform="translate(238.720703 0)"/>
      <use xlink:href="#TimesNewRomanPSMT-6e" transform="translate(288.720703 0)"/>
     </g>
    </g>
   </g>
   <g id="matplotlib.axis_2">
    <g id="ytick_1">
     <g id="line2d_9">
      <defs>
       <path id="mac934db7a0" d="M 0 0 
L 3.5 0 
" style="stroke: #000000; stroke-width: 0.8"/>
      </defs>
      <g>
       <use xlink:href="#mac934db7a0" x="36.849375" y="413.991523" style="stroke: #000000; stroke-width: 0.8"/>
      </g>
     </g>
     <g id="text_10">
      <!-- 0.0 -->
      <g transform="translate(22.099375 417.116211) scale(0.09 -0.09)">
       <defs>
        <path id="TimesNewRomanPSMT-2e" d="M 800 606 
Q 947 606 1047 504 
Q 1147 403 1147 259 
Q 1147 116 1045 14 
Q 944 -88 800 -88 
Q 656 -88 554 14 
Q 453 116 453 259 
Q 453 406 554 506 
Q 656 606 800 606 
z
" transform="scale(0.015625)"/>
       </defs>
       <use xlink:href="#TimesNewRomanPSMT-30"/>
       <use xlink:href="#TimesNewRomanPSMT-2e" transform="translate(50 0)"/>
       <use xlink:href="#TimesNewRomanPSMT-30" transform="translate(75 0)"/>
      </g>
     </g>
    </g>
    <g id="ytick_2">
     <g id="line2d_10">
      <g>
       <use xlink:href="#mac934db7a0" x="36.849375" y="336.031282" style="stroke: #000000; stroke-width: 0.8"/>
      </g>
     </g>
     <g id="text_11">
      <!-- 0.2 -->
      <g transform="translate(22.099375 339.15597) scale(0.09 -0.09)">
       <use xlink:href="#TimesNewRomanPSMT-30"/>
       <use xlink:href="#TimesNewRomanPSMT-2e" transform="translate(50 0)"/>
       <use xlink:href="#TimesNewRomanPSMT-32" transform="translate(75 0)"/>
      </g>
     </g>
    </g>
    <g id="ytick_3">
     <g id="line2d_11">
      <g>
       <use xlink:href="#mac934db7a0" x="36.849375" y="258.071041" style="stroke: #000000; stroke-width: 0.8"/>
      </g>
     </g>
     <g id="text_12">
      <!-- 0.4 -->
      <g transform="translate(22.099375 261.195729) scale(0.09 -0.09)">
       <use xlink:href="#TimesNewRomanPSMT-30"/>
       <use xlink:href="#TimesNewRomanPSMT-2e" transform="translate(50 0)"/>
       <use xlink:href="#TimesNewRomanPSMT-34" transform="translate(75 0)"/>
      </g>
     </g>
    </g>
    <g id="ytick_4">
     <g id="line2d_12">
      <g>
       <use xlink:href="#mac934db7a0" x="36.849375" y="180.1108" style="stroke: #000000; stroke-width: 0.8"/>
      </g>
     </g>
     <g id="text_13">
      <!-- 0.6 -->
      <g transform="translate(22.099375 183.235488) scale(0.09 -0.09)">
       <use xlink:href="#TimesNewRomanPSMT-30"/>
       <use xlink:href="#TimesNewRomanPSMT-2e" transform="translate(50 0)"/>
       <use xlink:href="#TimesNewRomanPSMT-36" transform="translate(75 0)"/>
      </g>
     </g>
    </g>
    <g id="ytick_5">
     <g id="line2d_13">
      <g>
       <use xlink:href="#mac934db7a0" x="36.849375" y="102.150559" style="stroke: #000000; stroke-width: 0.8"/>
      </g>
     </g>
     <g id="text_14">
      <!-- 0.8 -->
      <g transform="translate(22.099375 105.275247) scale(0.09 -0.09)">
       <use xlink:href="#TimesNewRomanPSMT-30"/>
       <use xlink:href="#TimesNewRomanPSMT-2e" transform="translate(50 0)"/>
       <use xlink:href="#TimesNewRomanPSMT-38" transform="translate(75 0)"/>
      </g>
     </g>
    </g>
    <g id="ytick_6">
     <g id="line2d_14">
      <g>
       <use xlink:href="#mac934db7a0" x="36.849375" y="24.190318" style="stroke: #000000; stroke-width: 0.8"/>
      </g>
     </g>
     <g id="text_15">
      <!-- 1.0 -->
      <g transform="translate(22.099375 27.315006) scale(0.09 -0.09)">
       <use xlink:href="#TimesNewRomanPSMT-31"/>
       <use xlink:href="#TimesNewRomanPSMT-2e" transform="translate(50 0)"/>
       <use xlink:href="#TimesNewRomanPSMT-30" transform="translate(75 0)"/>
      </g>
     </g>
    </g>
    <g id="text_16">
     <!-- Pearson Correlation -->
     <g transform="translate(15.5325 280.807875) rotate(-90) scale(0.12 -0.12)">
      <defs>
       <path id="TimesNewRomanPSMT-50" d="M 1313 1984 
L 1313 750 
Q 1313 350 1400 253 
Q 1519 116 1759 116 
L 1922 116 
L 1922 0 
L 106 0 
L 106 116 
L 266 116 
Q 534 116 650 291 
Q 713 388 713 750 
L 713 3488 
Q 713 3888 628 3984 
Q 506 4122 266 4122 
L 106 4122 
L 106 4238 
L 1659 4238 
Q 2228 4238 2556 4120 
Q 2884 4003 3109 3725 
Q 3334 3447 3334 3066 
Q 3334 2547 2992 2222 
Q 2650 1897 2025 1897 
Q 1872 1897 1694 1919 
Q 1516 1941 1313 1984 
z
M 1313 2163 
Q 1478 2131 1606 2115 
Q 1734 2100 1825 2100 
Q 2150 2100 2386 2351 
Q 2622 2603 2622 3003 
Q 2622 3278 2509 3514 
Q 2397 3750 2190 3867 
Q 1984 3984 1722 3984 
Q 1563 3984 1313 3925 
L 1313 2163 
z
" transform="scale(0.015625)"/>
       <path id="TimesNewRomanPSMT-73" d="M 2050 2947 
L 2050 1972 
L 1947 1972 
Q 1828 2431 1642 2597 
Q 1456 2763 1169 2763 
Q 950 2763 815 2647 
Q 681 2531 681 2391 
Q 681 2216 781 2091 
Q 878 1963 1175 1819 
L 1631 1597 
Q 2266 1288 2266 781 
Q 2266 391 1970 151 
Q 1675 -88 1309 -88 
Q 1047 -88 709 6 
Q 606 38 541 38 
Q 469 38 428 -44 
L 325 -44 
L 325 978 
L 428 978 
Q 516 541 762 319 
Q 1009 97 1316 97 
Q 1531 97 1667 223 
Q 1803 350 1803 528 
Q 1803 744 1651 891 
Q 1500 1038 1047 1263 
Q 594 1488 453 1669 
Q 313 1847 313 2119 
Q 313 2472 555 2709 
Q 797 2947 1181 2947 
Q 1350 2947 1591 2875 
Q 1750 2828 1803 2828 
Q 1853 2828 1881 2850 
Q 1909 2872 1947 2947 
L 2050 2947 
z
" transform="scale(0.015625)"/>
       <path id="TimesNewRomanPSMT-20" transform="scale(0.015625)"/>
       <path id="TimesNewRomanPSMT-43" d="M 3853 4334 
L 3950 2894 
L 3853 2894 
Q 3659 3541 3300 3825 
Q 2941 4109 2438 4109 
Q 2016 4109 1675 3895 
Q 1334 3681 1139 3212 
Q 944 2744 944 2047 
Q 944 1472 1128 1050 
Q 1313 628 1683 403 
Q 2053 178 2528 178 
Q 2941 178 3256 354 
Q 3572 531 3950 1056 
L 4047 994 
Q 3728 428 3303 165 
Q 2878 -97 2294 -97 
Q 1241 -97 663 684 
Q 231 1266 231 2053 
Q 231 2688 515 3219 
Q 800 3750 1298 4042 
Q 1797 4334 2388 4334 
Q 2847 4334 3294 4109 
Q 3425 4041 3481 4041 
Q 3566 4041 3628 4100 
Q 3709 4184 3744 4334 
L 3853 4334 
z
" transform="scale(0.015625)"/>
       <path id="TimesNewRomanPSMT-6c" d="M 1184 4444 
L 1184 647 
Q 1184 378 1223 290 
Q 1263 203 1344 158 
Q 1425 113 1647 113 
L 1647 0 
L 244 0 
L 244 113 
Q 441 113 512 153 
Q 584 194 625 287 
Q 666 381 666 647 
L 666 3247 
Q 666 3731 644 3842 
Q 622 3953 573 3993 
Q 525 4034 450 4034 
Q 369 4034 244 3984 
L 191 4094 
L 1044 4444 
L 1184 4444 
z
" transform="scale(0.015625)"/>
      </defs>
      <use xlink:href="#TimesNewRomanPSMT-50"/>
      <use xlink:href="#TimesNewRomanPSMT-65" transform="translate(55.615234 0)"/>
      <use xlink:href="#TimesNewRomanPSMT-61" transform="translate(100 0)"/>
      <use xlink:href="#TimesNewRomanPSMT-72" transform="translate(144.384766 0)"/>
      <use xlink:href="#TimesNewRomanPSMT-73" transform="translate(177.685547 0)"/>
      <use xlink:href="#TimesNewRomanPSMT-6f" transform="translate(216.601562 0)"/>
      <use xlink:href="#TimesNewRomanPSMT-6e" transform="translate(266.601562 0)"/>
      <use xlink:href="#TimesNewRomanPSMT-20" transform="translate(316.601562 0)"/>
      <use xlink:href="#TimesNewRomanPSMT-43" transform="translate(341.601562 0)"/>
      <use xlink:href="#TimesNewRomanPSMT-6f" transform="translate(408.300781 0)"/>
      <use xlink:href="#TimesNewRomanPSMT-72" transform="translate(458.300781 0)"/>
      <use xlink:href="#TimesNewRomanPSMT-72" transform="translate(491.601562 0)"/>
      <use xlink:href="#TimesNewRomanPSMT-65" transform="translate(524.902344 0)"/>
      <use xlink:href="#TimesNewRomanPSMT-6c" transform="translate(569.287109 0)"/>
      <use xlink:href="#TimesNewRomanPSMT-61" transform="translate(597.070312 0)"/>
      <use xlink:href="#TimesNewRomanPSMT-74" transform="translate(641.455078 0)"/>
      <use xlink:href="#TimesNewRomanPSMT-69" transform="translate(669.238281 0)"/>
      <use xlink:href="#TimesNewRomanPSMT-6f" transform="translate(697.021484 0)"/>
      <use xlink:href="#TimesNewRomanPSMT-6e" transform="translate(747.021484 0)"/>
     </g>
    </g>
   </g>
   <g id="line2d_15">
    <path d="M 57.23792 430.325529 
L 84.422648 27.726 
L 111.607375 30.420108 
L 138.792102 32.120348 
L 165.97683 40.857738 
L 193.161557 32.765005 
L 220.346284 61.413851 
L 247.531011 47.73267 
L 274.715739 39.496344 
L 301.900466 37.030414 
L 329.085193 52.052743 
L 356.26992 75.382435 
L 383.454648 34.658931 
L 410.639375 57.339141 
L 437.824102 70.73019 
L 465.00883 73.870281 
" clip-path="url(#p5db7bf3cd4)" style="fill: none; stroke: #b22222; stroke-opacity: 0.8; stroke-width: 1.5; stroke-linecap: square"/>
   </g>
   <g id="line2d_16">
    <defs>
     <path id="m81d562303b" d="M 0 5 
C 1.326016 5 2.597899 4.473168 3.535534 3.535534 
C 4.473168 2.597899 5 1.326016 5 0 
C 5 -1.326016 4.473168 -2.597899 3.535534 -3.535534 
C 2.597899 -4.473168 1.326016 -5 0 -5 
C -1.326016 -5 -2.597899 -4.473168 -3.535534 -3.535534 
C -4.473168 -2.597899 -5 -1.326016 -5 0 
C -5 1.326016 -4.473168 2.597899 -3.535534 3.535534 
C -2.597899 4.473168 -1.326016 5 0 5 
z
" style="stroke: #b22222"/>
    </defs>
    <g clip-path="url(#p5db7bf3cd4)">
     <use xlink:href="#m81d562303b" x="84.422648" y="27.726" style="fill-opacity: 0; stroke: #b22222"/>
     <use xlink:href="#m81d562303b" x="111.607375" y="30.420108" style="fill-opacity: 0; stroke: #b22222"/>
     <use xlink:href="#m81d562303b" x="138.792102" y="32.120348" style="fill-opacity: 0; stroke: #b22222"/>
     <use xlink:href="#m81d562303b" x="165.97683" y="40.857738" style="fill-opacity: 0; stroke: #b22222"/>
     <use xlink:href="#m81d562303b" x="193.161557" y="32.765005" style="fill-opacity: 0; stroke: #b22222"/>
     <use xlink:href="#m81d562303b" x="220.346284" y="61.413851" style="fill-opacity: 0; stroke: #b22222"/>
     <use xlink:href="#m81d562303b" x="247.531011" y="47.73267" style="fill-opacity: 0; stroke: #b22222"/>
     <use xlink:href="#m81d562303b" x="274.715739" y="39.496344" style="fill-opacity: 0; stroke: #b22222"/>
     <use xlink:href="#m81d562303b" x="301.900466" y="37.030414" style="fill-opacity: 0; stroke: #b22222"/>
     <use xlink:href="#m81d562303b" x="329.085193" y="52.052743" style="fill-opacity: 0; stroke: #b22222"/>
    </g>
   </g>
   <g id="line2d_17">
    <defs>
     <path id="mdf48743818" d="M 0 5 
C 1.326016 5 2.597899 4.473168 3.535534 3.535534 
C 4.473168 2.597899 5 1.326016 5 0 
C 5 -1.326016 4.473168 -2.597899 3.535534 -3.535534 
C 2.597899 -4.473168 1.326016 -5 0 -5 
C -1.326016 -5 -2.597899 -4.473168 -3.535534 -3.535534 
C -4.473168 -2.597899 -5 -1.326016 -5 0 
C -5 1.326016 -4.473168 2.597899 -3.535534 3.535534 
C -2.597899 4.473168 -1.326016 5 0 5 
z
" style="stroke: #b22222"/>
    </defs>
    <g clip-path="url(#p5db7bf3cd4)">
     <use xlink:href="#mdf48743818" x="356.26992" y="75.382435" style="fill: #b22222; stroke: #b22222"/>
     <use xlink:href="#mdf48743818" x="383.454648" y="34.658931" style="fill: #b22222; stroke: #b22222"/>
     <use xlink:href="#mdf48743818" x="410.639375" y="57.339141" style="fill: #b22222; stroke: #b22222"/>
     <use xlink:href="#mdf48743818" x="437.824102" y="70.73019" style="fill: #b22222; stroke: #b22222"/>
     <use xlink:href="#mdf48743818" x="465.00883" y="73.870281" style="fill: #b22222; stroke: #b22222"/>
    </g>
   </g>
   <g id="line2d_18">
    <g clip-path="url(#p5db7bf3cd4)">
     <use xlink:href="#m81d562303b" x="57.23792" y="430.325529" style="fill-opacity: 0; stroke: #b22222"/>
    </g>
   </g>
   <g id="line2d_19">
    <path d="M 57.23792 422.192664 
L 84.422648 140.341388 
L 111.607375 129.385423 
L 138.792102 130.049172 
L 165.97683 175.243596 
L 193.161557 110.334528 
L 220.346284 211.715997 
L 247.531011 188.964281 
L 274.715739 167.962496 
L 301.900466 100.743558 
L 329.085193 183.316709 
L 356.26992 228.207272 
L 383.454648 112.862346 
L 410.639375 183.918823 
L 437.824102 215.189279 
L 465.00883 220.138392 
" clip-path="url(#p5db7bf3cd4)" style="fill: none; stroke-dasharray: 5.55,2.4; stroke-dashoffset: 0; stroke: #b22222; stroke-opacity: 0.8; stroke-width: 1.5"/>
   </g>
   <g id="line2d_20">
    <g clip-path="url(#p5db7bf3cd4)">
     <use xlink:href="#m81d562303b" x="84.422648" y="140.341388" style="fill-opacity: 0; stroke: #b22222"/>
     <use xlink:href="#m81d562303b" x="111.607375" y="129.385423" style="fill-opacity: 0; stroke: #b22222"/>
     <use xlink:href="#m81d562303b" x="138.792102" y="130.049172" style="fill-opacity: 0; stroke: #b22222"/>
     <use xlink:href="#m81d562303b" x="165.97683" y="175.243596" style="fill-opacity: 0; stroke: #b22222"/>
     <use xlink:href="#m81d562303b" x="193.161557" y="110.334528" style="fill-opacity: 0; stroke: #b22222"/>
     <use xlink:href="#m81d562303b" x="220.346284" y="211.715997" style="fill-opacity: 0; stroke: #b22222"/>
     <use xlink:href="#m81d562303b" x="247.531011" y="188.964281" style="fill-opacity: 0; stroke: #b22222"/>
     <use xlink:href="#m81d562303b" x="274.715739" y="167.962496" style="fill-opacity: 0; stroke: #b22222"/>
     <use xlink:href="#m81d562303b" x="301.900466" y="100.743558" style="fill-opacity: 0; stroke: #b22222"/>
     <use xlink:href="#m81d562303b" x="329.085193" y="183.316709" style="fill-opacity: 0; stroke: #b22222"/>
    </g>
   </g>
   <g id="line2d_21">
    <g clip-path="url(#p5db7bf3cd4)">
     <use xlink:href="#mdf48743818" x="356.26992" y="228.207272" style="fill: #b22222; stroke: #b22222"/>
     <use xlink:href="#mdf48743818" x="383.454648" y="112.862346" style="fill: #b22222; stroke: #b22222"/>
     <use xlink:href="#mdf48743818" x="410.639375" y="183.918823" style="fill: #b22222; stroke: #b22222"/>
     <use xlink:href="#mdf48743818" x="437.824102" y="215.189279" style="fill: #b22222; stroke: #b22222"/>
     <use xlink:href="#mdf48743818" x="465.00883" y="220.138392" style="fill: #b22222; stroke: #b22222"/>
    </g>
   </g>
   <g id="line2d_22">
    <g clip-path="url(#p5db7bf3cd4)">
     <use xlink:href="#m81d562303b" x="57.23792" y="422.192664" style="fill-opacity: 0; stroke: #b22222"/>
    </g>
   </g>
   <g id="line2d_23">
    <path d="M 57.23792 423.038836 
L 84.422648 27.729746 
L 111.607375 31.149201 
L 138.792102 32.050238 
L 165.97683 30.932939 
L 193.161557 35.081166 
L 220.346284 34.068439 
L 247.531011 31.086554 
L 274.715739 30.951805 
L 301.900466 33.929034 
L 329.085193 32.597383 
L 356.26992 66.009407 
L 383.454648 62.244151 
L 410.639375 43.927719 
L 437.824102 38.148889 
L 465.00883 31.959731 
" clip-path="url(#p5db7bf3cd4)" style="fill: none; stroke: #228b22; stroke-opacity: 0.8; stroke-width: 1.5; stroke-linecap: square"/>
   </g>
   <g id="line2d_24">
    <defs>
     <path id="mb906a0460e" d="M 0 5 
C 1.326016 5 2.597899 4.473168 3.535534 3.535534 
C 4.473168 2.597899 5 1.326016 5 0 
C 5 -1.326016 4.473168 -2.597899 3.535534 -3.535534 
C 2.597899 -4.473168 1.326016 -5 0 -5 
C -1.326016 -5 -2.597899 -4.473168 -3.535534 -3.535534 
C -4.473168 -2.597899 -5 -1.326016 -5 0 
C -5 1.326016 -4.473168 2.597899 -3.535534 3.535534 
C -2.597899 4.473168 -1.326016 5 0 5 
z
" style="stroke: #228b22"/>
    </defs>
    <g clip-path="url(#p5db7bf3cd4)">
     <use xlink:href="#mb906a0460e" x="84.422648" y="27.729746" style="fill-opacity: 0; stroke: #228b22"/>
     <use xlink:href="#mb906a0460e" x="111.607375" y="31.149201" style="fill-opacity: 0; stroke: #228b22"/>
     <use xlink:href="#mb906a0460e" x="138.792102" y="32.050238" style="fill-opacity: 0; stroke: #228b22"/>
     <use xlink:href="#mb906a0460e" x="165.97683" y="30.932939" style="fill-opacity: 0; stroke: #228b22"/>
     <use xlink:href="#mb906a0460e" x="193.161557" y="35.081166" style="fill-opacity: 0; stroke: #228b22"/>
     <use xlink:href="#mb906a0460e" x="220.346284" y="34.068439" style="fill-opacity: 0; stroke: #228b22"/>
     <use xlink:href="#mb906a0460e" x="247.531011" y="31.086554" style="fill-opacity: 0; stroke: #228b22"/>
     <use xlink:href="#mb906a0460e" x="274.715739" y="30.951805" style="fill-opacity: 0; stroke: #228b22"/>
     <use xlink:href="#mb906a0460e" x="301.900466" y="33.929034" style="fill-opacity: 0; stroke: #228b22"/>
     <use xlink:href="#mb906a0460e" x="329.085193" y="32.597383" style="fill-opacity: 0; stroke: #228b22"/>
    </g>
   </g>
   <g id="line2d_25">
    <defs>
     <path id="m153189710d" d="M 0 5 
C 1.326016 5 2.597899 4.473168 3.535534 3.535534 
C 4.473168 2.597899 5 1.326016 5 0 
C 5 -1.326016 4.473168 -2.597899 3.535534 -3.535534 
C 2.597899 -4.473168 1.326016 -5 0 -5 
C -1.326016 -5 -2.597899 -4.473168 -3.535534 -3.535534 
C -4.473168 -2.597899 -5 -1.326016 -5 0 
C -5 1.326016 -4.473168 2.597899 -3.535534 3.535534 
C -2.597899 4.473168 -1.326016 5 0 5 
z
" style="stroke: #228b22"/>
    </defs>
    <g clip-path="url(#p5db7bf3cd4)">
     <use xlink:href="#m153189710d" x="356.26992" y="66.009407" style="fill: #228b22; stroke: #228b22"/>
     <use xlink:href="#m153189710d" x="383.454648" y="62.244151" style="fill: #228b22; stroke: #228b22"/>
     <use xlink:href="#m153189710d" x="410.639375" y="43.927719" style="fill: #228b22; stroke: #228b22"/>
     <use xlink:href="#m153189710d" x="437.824102" y="38.148889" style="fill: #228b22; stroke: #228b22"/>
     <use xlink:href="#m153189710d" x="465.00883" y="31.959731" style="fill: #228b22; stroke: #228b22"/>
    </g>
   </g>
   <g id="line2d_26">
    <g clip-path="url(#p5db7bf3cd4)">
     <use xlink:href="#mb906a0460e" x="57.23792" y="423.038836" style="fill-opacity: 0; stroke: #228b22"/>
    </g>
   </g>
   <g id="line2d_27">
    <path d="M 57.23792 438.246 
L 84.422648 126.353473 
L 111.607375 119.89106 
L 138.792102 130.211563 
L 165.97683 115.534373 
L 193.161557 135.564345 
L 220.346284 139.001221 
L 247.531011 109.551604 
L 274.715739 118.476961 
L 301.900466 131.954278 
L 329.085193 121.484479 
L 356.26992 186.678126 
L 383.454648 173.536912 
L 410.639375 155.329236 
L 437.824102 145.20885 
L 465.00883 118.771494 
" clip-path="url(#p5db7bf3cd4)" style="fill: none; stroke-dasharray: 5.55,2.4; stroke-dashoffset: 0; stroke: #228b22; stroke-opacity: 0.8; stroke-width: 1.5"/>
   </g>
   <g id="line2d_28">
    <g clip-path="url(#p5db7bf3cd4)">
     <use xlink:href="#mb906a0460e" x="84.422648" y="126.353473" style="fill-opacity: 0; stroke: #228b22"/>
     <use xlink:href="#mb906a0460e" x="111.607375" y="119.89106" style="fill-opacity: 0; stroke: #228b22"/>
     <use xlink:href="#mb906a0460e" x="138.792102" y="130.211563" style="fill-opacity: 0; stroke: #228b22"/>
     <use xlink:href="#mb906a0460e" x="165.97683" y="115.534373" style="fill-opacity: 0; stroke: #228b22"/>
     <use xlink:href="#mb906a0460e" x="193.161557" y="135.564345" style="fill-opacity: 0; stroke: #228b22"/>
     <use xlink:href="#mb906a0460e" x="220.346284" y="139.001221" style="fill-opacity: 0; stroke: #228b22"/>
     <use xlink:href="#mb906a0460e" x="247.531011" y="109.551604" style="fill-opacity: 0; stroke: #228b22"/>
     <use xlink:href="#mb906a0460e" x="274.715739" y="118.476961" style="fill-opacity: 0; stroke: #228b22"/>
     <use xlink:href="#mb906a0460e" x="301.900466" y="131.954278" style="fill-opacity: 0; stroke: #228b22"/>
     <use xlink:href="#mb906a0460e" x="329.085193" y="121.484479" style="fill-opacity: 0; stroke: #228b22"/>
    </g>
   </g>
   <g id="line2d_29">
    <g clip-path="url(#p5db7bf3cd4)">
     <use xlink:href="#m153189710d" x="356.26992" y="186.678126" style="fill: #228b22; stroke: #228b22"/>
     <use xlink:href="#m153189710d" x="383.454648" y="173.536912" style="fill: #228b22; stroke: #228b22"/>
     <use xlink:href="#m153189710d" x="410.639375" y="155.329236" style="fill: #228b22; stroke: #228b22"/>
     <use xlink:href="#m153189710d" x="437.824102" y="145.20885" style="fill: #228b22; stroke: #228b22"/>
     <use xlink:href="#m153189710d" x="465.00883" y="118.771494" style="fill: #228b22; stroke: #228b22"/>
    </g>
   </g>
   <g id="line2d_30">
    <g clip-path="url(#p5db7bf3cd4)">
     <use xlink:href="#mb906a0460e" x="57.23792" y="438.246" style="fill-opacity: 0; stroke: #228b22"/>
    </g>
   </g>
   <g id="line2d_31">
    <path d="M 57.23792 436.93277 
L 84.422648 27.788036 
L 111.607375 29.347164 
L 138.792102 30.044157 
L 165.97683 38.276119 
L 193.161557 30.699375 
L 220.346284 33.958527 
L 247.531011 54.974502 
L 274.715739 31.326023 
L 301.900466 31.362973 
L 329.085193 31.714141 
L 356.26992 55.53003 
L 383.454648 69.26313 
L 410.639375 79.768422 
L 437.824102 30.906627 
L 465.00883 59.622049 
" clip-path="url(#p5db7bf3cd4)" style="fill: none; stroke: #4682b4; stroke-opacity: 0.8; stroke-width: 1.5; stroke-linecap: square"/>
   </g>
   <g id="line2d_32">
    <defs>
     <path id="mfaf27923f1" d="M 0 5 
C 1.326016 5 2.597899 4.473168 3.535534 3.535534 
C 4.473168 2.597899 5 1.326016 5 0 
C 5 -1.326016 4.473168 -2.597899 3.535534 -3.535534 
C 2.597899 -4.473168 1.326016 -5 0 -5 
C -1.326016 -5 -2.597899 -4.473168 -3.535534 -3.535534 
C -4.473168 -2.597899 -5 -1.326016 -5 0 
C -5 1.326016 -4.473168 2.597899 -3.535534 3.535534 
C -2.597899 4.473168 -1.326016 5 0 5 
z
" style="stroke: #4682b4"/>
    </defs>
    <g clip-path="url(#p5db7bf3cd4)">
     <use xlink:href="#mfaf27923f1" x="84.422648" y="27.788036" style="fill-opacity: 0; stroke: #4682b4"/>
     <use xlink:href="#mfaf27923f1" x="111.607375" y="29.347164" style="fill-opacity: 0; stroke: #4682b4"/>
     <use xlink:href="#mfaf27923f1" x="138.792102" y="30.044157" style="fill-opacity: 0; stroke: #4682b4"/>
     <use xlink:href="#mfaf27923f1" x="165.97683" y="38.276119" style="fill-opacity: 0; stroke: #4682b4"/>
     <use xlink:href="#mfaf27923f1" x="193.161557" y="30.699375" style="fill-opacity: 0; stroke: #4682b4"/>
     <use xlink:href="#mfaf27923f1" x="220.346284" y="33.958527" style="fill-opacity: 0; stroke: #4682b4"/>
     <use xlink:href="#mfaf27923f1" x="247.531011" y="54.974502" style="fill-opacity: 0; stroke: #4682b4"/>
     <use xlink:href="#mfaf27923f1" x="274.715739" y="31.326023" style="fill-opacity: 0; stroke: #4682b4"/>
     <use xlink:href="#mfaf27923f1" x="301.900466" y="31.362973" style="fill-opacity: 0; stroke: #4682b4"/>
     <use xlink:href="#mfaf27923f1" x="329.085193" y="31.714141" style="fill-opacity: 0; stroke: #4682b4"/>
    </g>
   </g>
   <g id="line2d_33">
    <defs>
     <path id="m00b71209b0" d="M 0 5 
C 1.326016 5 2.597899 4.473168 3.535534 3.535534 
C 4.473168 2.597899 5 1.326016 5 0 
C 5 -1.326016 4.473168 -2.597899 3.535534 -3.535534 
C 2.597899 -4.473168 1.326016 -5 0 -5 
C -1.326016 -5 -2.597899 -4.473168 -3.535534 -3.535534 
C -4.473168 -2.597899 -5 -1.326016 -5 0 
C -5 1.326016 -4.473168 2.597899 -3.535534 3.535534 
C -2.597899 4.473168 -1.326016 5 0 5 
z
" style="stroke: #4682b4"/>
    </defs>
    <g clip-path="url(#p5db7bf3cd4)">
     <use xlink:href="#m00b71209b0" x="356.26992" y="55.53003" style="fill: #4682b4; stroke: #4682b4"/>
     <use xlink:href="#m00b71209b0" x="383.454648" y="69.26313" style="fill: #4682b4; stroke: #4682b4"/>
     <use xlink:href="#m00b71209b0" x="410.639375" y="79.768422" style="fill: #4682b4; stroke: #4682b4"/>
     <use xlink:href="#m00b71209b0" x="437.824102" y="30.906627" style="fill: #4682b4; stroke: #4682b4"/>
     <use xlink:href="#m00b71209b0" x="465.00883" y="59.622049" style="fill: #4682b4; stroke: #4682b4"/>
    </g>
   </g>
   <g id="line2d_34">
    <g clip-path="url(#p5db7bf3cd4)">
     <use xlink:href="#mfaf27923f1" x="57.23792" y="436.93277" style="fill-opacity: 0; stroke: #4682b4"/>
    </g>
   </g>
   <g id="line2d_35">
    <path d="M 57.23792 417.144889 
L 84.422648 113.384333 
L 111.607375 107.582306 
L 138.792102 111.692346 
L 165.97683 139.029877 
L 193.161557 106.09022 
L 220.346284 124.684342 
L 247.531011 188.287033 
L 274.715739 97.861657 
L 301.900466 104.547925 
L 329.085193 115.276012 
L 356.26992 156.026054 
L 383.454648 181.769406 
L 410.639375 186.23349 
L 437.824102 99.571875 
L 465.00883 160.636356 
" clip-path="url(#p5db7bf3cd4)" style="fill: none; stroke-dasharray: 5.55,2.4; stroke-dashoffset: 0; stroke: #4682b4; stroke-opacity: 0.8; stroke-width: 1.5"/>
   </g>
   <g id="line2d_36">
    <g clip-path="url(#p5db7bf3cd4)">
     <use xlink:href="#mfaf27923f1" x="84.422648" y="113.384333" style="fill-opacity: 0; stroke: #4682b4"/>
     <use xlink:href="#mfaf27923f1" x="111.607375" y="107.582306" style="fill-opacity: 0; stroke: #4682b4"/>
     <use xlink:href="#mfaf27923f1" x="138.792102" y="111.692346" style="fill-opacity: 0; stroke: #4682b4"/>
     <use xlink:href="#mfaf27923f1" x="165.97683" y="139.029877" style="fill-opacity: 0; stroke: #4682b4"/>
     <use xlink:href="#mfaf27923f1" x="193.161557" y="106.09022" style="fill-opacity: 0; stroke: #4682b4"/>
     <use xlink:href="#mfaf27923f1" x="220.346284" y="124.684342" style="fill-opacity: 0; stroke: #4682b4"/>
     <use xlink:href="#mfaf27923f1" x="247.531011" y="188.287033" style="fill-opacity: 0; stroke: #4682b4"/>
     <use xlink:href="#mfaf27923f1" x="274.715739" y="97.861657" style="fill-opacity: 0; stroke: #4682b4"/>
     <use xlink:href="#mfaf27923f1" x="301.900466" y="104.547925" style="fill-opacity: 0; stroke: #4682b4"/>
     <use xlink:href="#mfaf27923f1" x="329.085193" y="115.276012" style="fill-opacity: 0; stroke: #4682b4"/>
    </g>
   </g>
   <g id="line2d_37">
    <g clip-path="url(#p5db7bf3cd4)">
     <use xlink:href="#m00b71209b0" x="356.26992" y="156.026054" style="fill: #4682b4; stroke: #4682b4"/>
     <use xlink:href="#m00b71209b0" x="383.454648" y="181.769406" style="fill: #4682b4; stroke: #4682b4"/>
     <use xlink:href="#m00b71209b0" x="410.639375" y="186.23349" style="fill: #4682b4; stroke: #4682b4"/>
     <use xlink:href="#m00b71209b0" x="437.824102" y="99.571875" style="fill: #4682b4; stroke: #4682b4"/>
     <use xlink:href="#m00b71209b0" x="465.00883" y="160.636356" style="fill: #4682b4; stroke: #4682b4"/>
    </g>
   </g>
   <g id="line2d_38">
    <g clip-path="url(#p5db7bf3cd4)">
     <use xlink:href="#mfaf27923f1" x="57.23792" y="417.144889" style="fill-opacity: 0; stroke: #4682b4"/>
    </g>
   </g>
   <g id="patch_3">
    <path d="M 36.849375 458.772 
L 36.849375 7.2 
" style="fill: none; stroke: #000000; stroke-width: 0.8; stroke-linejoin: miter; stroke-linecap: square"/>
   </g>
   <g id="patch_4">
    <path d="M 485.397375 458.772 
L 485.397375 7.2 
" style="fill: none; stroke: #000000; stroke-width: 0.8; stroke-linejoin: miter; stroke-linecap: square"/>
   </g>
   <g id="patch_5">
    <path d="M 36.849375 458.772 
L 485.397375 458.772 
" style="fill: none; stroke: #000000; stroke-width: 0.8; stroke-linejoin: miter; stroke-linecap: square"/>
   </g>
   <g id="patch_6">
    <path d="M 36.849375 7.2 
L 485.397375 7.2 
" style="fill: none; stroke: #000000; stroke-width: 0.8; stroke-linejoin: miter; stroke-linecap: square"/>
   </g>
   <g id="legend_1">
    <g id="line2d_39">
     <g>
      <use xlink:href="#m81d562303b" x="429.664875" y="407.271375" style="fill-opacity: 0; stroke: #b22222"/>
     </g>
    </g>
    <g id="text_17">
     <!-- LIF -->
     <g transform="translate(451.264875 411.471375) scale(0.12 -0.12)">
      <defs>
       <path id="TimesNewRomanPSMT-4c" d="M 3669 1172 
L 3772 1150 
L 3409 0 
L 128 0 
L 128 116 
L 288 116 
Q 556 116 672 291 
Q 738 391 738 753 
L 738 3488 
Q 738 3884 650 3984 
Q 528 4122 288 4122 
L 128 4122 
L 128 4238 
L 2047 4238 
L 2047 4122 
Q 1709 4125 1573 4059 
Q 1438 3994 1388 3894 
Q 1338 3794 1338 3416 
L 1338 753 
Q 1338 494 1388 397 
Q 1425 331 1503 300 
Q 1581 269 1991 269 
L 2300 269 
Q 2788 269 2984 341 
Q 3181 413 3343 595 
Q 3506 778 3669 1172 
z
" transform="scale(0.015625)"/>
       <path id="TimesNewRomanPSMT-46" d="M 1309 4006 
L 1309 2341 
L 2081 2341 
Q 2347 2341 2470 2458 
Q 2594 2575 2634 2922 
L 2750 2922 
L 2750 1488 
L 2634 1488 
Q 2631 1734 2570 1850 
Q 2509 1966 2401 2023 
Q 2294 2081 2081 2081 
L 1309 2081 
L 1309 750 
Q 1309 428 1350 325 
Q 1381 247 1481 191 
Q 1619 116 1769 116 
L 1922 116 
L 1922 0 
L 103 0 
L 103 116 
L 253 116 
Q 516 116 634 269 
Q 709 369 709 750 
L 709 3488 
Q 709 3809 669 3913 
Q 638 3991 541 4047 
Q 406 4122 253 4122 
L 103 4122 
L 103 4238 
L 3256 4238 
L 3297 3306 
L 3188 3306 
Q 3106 3603 2998 3742 
Q 2891 3881 2733 3943 
Q 2575 4006 2244 4006 
L 1309 4006 
z
" transform="scale(0.015625)"/>
      </defs>
      <use xlink:href="#TimesNewRomanPSMT-4c"/>
      <use xlink:href="#TimesNewRomanPSMT-49" transform="translate(61.083984 0)"/>
      <use xlink:href="#TimesNewRomanPSMT-46" transform="translate(94.384766 0)"/>
     </g>
    </g>
    <g id="line2d_40">
     <g>
      <use xlink:href="#mb906a0460e" x="429.664875" y="424.23825" style="fill-opacity: 0; stroke: #228b22"/>
     </g>
    </g>
    <g id="text_18">
     <!-- MIX -->
     <g transform="translate(451.264875 428.43825) scale(0.12 -0.12)">
      <defs>
       <path id="TimesNewRomanPSMT-4d" d="M 2619 0 
L 981 3566 
L 981 734 
Q 981 344 1066 247 
Q 1181 116 1431 116 
L 1581 116 
L 1581 0 
L 106 0 
L 106 116 
L 256 116 
Q 525 116 638 278 
Q 706 378 706 734 
L 706 3503 
Q 706 3784 644 3909 
Q 600 4000 483 4061 
Q 366 4122 106 4122 
L 106 4238 
L 1306 4238 
L 2844 922 
L 4356 4238 
L 5556 4238 
L 5556 4122 
L 5409 4122 
Q 5138 4122 5025 3959 
Q 4956 3859 4956 3503 
L 4956 734 
Q 4956 344 5044 247 
Q 5159 116 5409 116 
L 5556 116 
L 5556 0 
L 3756 0 
L 3756 116 
L 3906 116 
Q 4178 116 4288 278 
Q 4356 378 4356 734 
L 4356 3566 
L 2722 0 
L 2619 0 
z
" transform="scale(0.015625)"/>
       <path id="TimesNewRomanPSMT-58" d="M 2613 2347 
L 3522 991 
Q 3900 428 4083 279 
Q 4266 131 4547 116 
L 4547 0 
L 2728 0 
L 2728 116 
Q 2909 119 2997 153 
Q 3063 181 3105 239 
Q 3147 297 3147 356 
Q 3147 428 3119 500 
Q 3097 553 2947 775 
L 2228 1863 
L 1341 725 
Q 1200 544 1172 483 
Q 1144 422 1144 356 
Q 1144 256 1228 190 
Q 1313 125 1550 116 
L 1550 0 
L 47 0 
L 47 116 
Q 206 131 322 181 
Q 516 263 691 400 
Q 866 538 1091 822 
L 2091 2084 
L 1256 3306 
Q 916 3803 678 3958 
Q 441 4113 131 4122 
L 131 4238 
L 2091 4238 
L 2091 4122 
Q 1841 4113 1748 4041 
Q 1656 3969 1656 3881 
Q 1656 3766 1806 3544 
L 2456 2572 
L 3209 3525 
Q 3341 3694 3370 3756 
Q 3400 3819 3400 3884 
Q 3400 3950 3363 4000 
Q 3316 4066 3244 4092 
Q 3172 4119 2947 4122 
L 2947 4238 
L 4450 4238 
L 4450 4122 
Q 4272 4113 4159 4066 
Q 3991 3994 3850 3872 
Q 3709 3750 3453 3422 
L 2613 2347 
z
" transform="scale(0.015625)"/>
      </defs>
      <use xlink:href="#TimesNewRomanPSMT-4d"/>
      <use xlink:href="#TimesNewRomanPSMT-49" transform="translate(88.916016 0)"/>
      <use xlink:href="#TimesNewRomanPSMT-58" transform="translate(122.216797 0)"/>
     </g>
    </g>
    <g id="line2d_41">
     <g>
      <use xlink:href="#mfaf27923f1" x="429.664875" y="441.205125" style="fill-opacity: 0; stroke: #4682b4"/>
     </g>
    </g>
    <g id="text_19">
     <!-- QIF -->
     <g transform="translate(451.264875 445.405125) scale(0.12 -0.12)">
      <defs>
       <path id="TimesNewRomanPSMT-51" d="M 2819 -47 
Q 3138 -597 3508 -856 
Q 3878 -1116 4350 -1153 
L 4350 -1253 
Q 3919 -1238 3428 -1080 
Q 2938 -922 2498 -642 
Q 2059 -363 1741 -47 
Q 1291 134 1028 338 
Q 647 641 436 1083 
Q 225 1525 225 2128 
Q 225 3078 840 3706 
Q 1456 4334 2331 4334 
Q 3163 4334 3770 3704 
Q 4378 3075 4378 2116 
Q 4378 1338 3945 750 
Q 3513 163 2819 -47 
z
M 2294 4094 
Q 1725 4094 1378 3688 
Q 941 3178 941 2128 
Q 941 1100 1384 544 
Q 1728 116 2294 116 
Q 2881 116 3241 544 
Q 3663 1050 3663 2038 
Q 3663 2797 3431 3316 
Q 3253 3716 2958 3905 
Q 2663 4094 2294 4094 
z
" transform="scale(0.015625)"/>
      </defs>
      <use xlink:href="#TimesNewRomanPSMT-51"/>
      <use xlink:href="#TimesNewRomanPSMT-49" transform="translate(72.216797 0)"/>
      <use xlink:href="#TimesNewRomanPSMT-46" transform="translate(105.517578 0)"/>
     </g>
    </g>
   </g>
  </g>
 </g>
 <defs>
  <clipPath id="p5db7bf3cd4">
   <rect x="36.849375" y="7.2" width="448.548" height="451.572"/>
  </clipPath>
 </defs>
</svg>
