<?xml version="1.0" encoding="utf-8" standalone="no"?>
<!DOCTYPE svg PUBLIC "-//W3C//DTD SVG 1.1//EN"
  "http://www.w3.org/Graphics/SVG/1.1/DTD/svg11.dtd">
<svg xmlns:xlink="http://www.w3.org/1999/xlink" width="506.199375pt" height="404.838375pt" viewBox="0 0 506.199375 404.838375" xmlns="http://www.w3.org/2000/svg" version="1.1">
 <metadata>
  <rdf:RDF xmlns:dc="http://purl.org/dc/elements/1.1/" xmlns:cc="http://creativecommons.org/ns#" xmlns:rdf="http://www.w3.org/1999/02/22-rdf-syntax-ns#">
   <cc:Work>
    <dc:type rdf:resource="http://purl.org/dc/dcmitype/StillImage"/>
    <dc:date>2026-01-21T15:49:09.139812</dc:date>
    <dc:format>image/svg+xml</dc:format>
    <dc:creator>
     <cc:Agent>
      <dc:title>Matplotlib v3.10.5, https://matplotlib.org/</dc:title>
     </cc:Agent>
    </dc:creator>
   </cc:Work>
  </rdf:RDF>
 </metadata>
 <defs>
  <style type="text/css">*{stroke-linejoin: round; stroke-linecap: butt}</style>
 </defs>
 <g id="figure_1">
  <g id="patch_1">
   <path d="M 0 404.838375 
L 506.199375 404.838375 
L 506.199375 0 
L 0 0 
z
" style="fill: #ffffff"/>
  </g>
  <g id="axes_1">
   <g id="patch_2">
    <path d="M 52.599375 367.599 
L 498.999375 367.599 
L 498.999375 34.959 
L 52.599375 34.959 
z
" style="fill: #ffffff"/>
   </g>
   <g id="matplotlib.axis_1">
    <g id="xtick_1">
     <g id="line2d_1">
      <defs>
       <path id="m6c5443e92b" d="M 0 0 
L 0 -3.5 
" style="stroke: #000000; stroke-width: 0.8"/>
      </defs>
      <g>
       <use xlink:href="#m6c5443e92b" x="72.890284" y="367.599" style="stroke: #000000; stroke-width: 0.8"/>
      </g>
     </g>
     <g id="text_1">
      <!-- LIF -->
      <g transform="translate(63.891222 379.4315) scale(0.12 -0.12)">
       <defs>
        <path id="TimesNewRomanPSMT-4c" d="M 3669 1172 
L 3772 1150 
L 3409 0 
L 128 0 
L 128 116 
L 288 116 
Q 556 116 672 291 
Q 738 391 738 753 
L 738 3488 
Q 738 3884 650 3984 
Q 528 4122 288 4122 
L 128 4122 
L 128 4238 
L 2047 4238 
L 2047 4122 
Q 1709 4125 1573 4059 
Q 1438 3994 1388 3894 
Q 1338 3794 1338 3416 
L 1338 753 
Q 1338 494 1388 397 
Q 1425 331 1503 300 
Q 1581 269 1991 269 
L 2300 269 
Q 2788 269 2984 341 
Q 3181 413 3343 595 
Q 3506 778 3669 1172 
z
" transform="scale(0.015625)"/>
        <path id="TimesNewRomanPSMT-49" d="M 1975 116 
L 1975 0 
L 159 0 
L 159 116 
L 309 116 
Q 572 116 691 269 
Q 766 369 766 750 
L 766 3488 
Q 766 3809 725 3913 
Q 694 3991 597 4047 
Q 459 4122 309 4122 
L 159 4122 
L 159 4238 
L 1975 4238 
L 1975 4122 
L 1822 4122 
Q 1563 4122 1444 3969 
Q 1366 3869 1366 3488 
L 1366 750 
Q 1366 428 1406 325 
Q 1438 247 1538 191 
Q 1672 116 1822 116 
L 1975 116 
z
" transform="scale(0.015625)"/>
        <path id="TimesNewRomanPSMT-46" d="M 1309 4006 
L 1309 2341 
L 2081 2341 
Q 2347 2341 2470 2458 
Q 2594 2575 2634 2922 
L 2750 2922 
L 2750 1488 
L 2634 1488 
Q 2631 1734 2570 1850 
Q 2509 1966 2401 2023 
Q 2294 2081 2081 2081 
L 1309 2081 
L 1309 750 
Q 1309 428 1350 325 
Q 1381 247 1481 191 
Q 1619 116 1769 116 
L 1922 116 
L 1922 0 
L 103 0 
L 103 116 
L 253 116 
Q 516 116 634 269 
Q 709 369 709 750 
L 709 3488 
Q 709 3809 669 3913 
Q 638 3991 541 4047 
Q 406 4122 253 4122 
L 103 4122 
L 103 4238 
L 3256 4238 
L 3297 3306 
L 3188 3306 
Q 3106 3603 2998 3742 
Q 2891 3881 2733 3943 
Q 2575 4006 2244 4006 
L 1309 4006 
z
" transform="scale(0.015625)"/>
       </defs>
       <use xlink:href="#TimesNewRomanPSMT-4c"/>
       <use xlink:href="#TimesNewRomanPSMT-49" transform="translate(61.083984 0)"/>
       <use xlink:href="#TimesNewRomanPSMT-46" transform="translate(94.384766 0)"/>
      </g>
     </g>
    </g>
    <g id="xtick_2">
     <g id="line2d_2">
      <g>
       <use xlink:href="#m6c5443e92b" x="174.34483" y="367.599" style="stroke: #000000; stroke-width: 0.8"/>
      </g>
     </g>
     <g id="text_2">
      <!-- 0.25 -->
      <g transform="translate(163.84483 379.4315) scale(0.12 -0.12)">
       <defs>
        <path id="TimesNewRomanPSMT-30" d="M 231 2094 
Q 231 2819 450 3342 
Q 669 3866 1031 4122 
Q 1313 4325 1613 4325 
Q 2100 4325 2488 3828 
Q 2972 3213 2972 2159 
Q 2972 1422 2759 906 
Q 2547 391 2217 158 
Q 1888 -75 1581 -75 
Q 975 -75 572 641 
Q 231 1244 231 2094 
z
M 844 2016 
Q 844 1141 1059 588 
Q 1238 122 1591 122 
Q 1759 122 1940 273 
Q 2122 425 2216 781 
Q 2359 1319 2359 2297 
Q 2359 3022 2209 3506 
Q 2097 3866 1919 4016 
Q 1791 4119 1609 4119 
Q 1397 4119 1231 3928 
Q 1006 3669 925 3112 
Q 844 2556 844 2016 
z
" transform="scale(0.015625)"/>
        <path id="TimesNewRomanPSMT-2e" d="M 800 606 
Q 947 606 1047 504 
Q 1147 403 1147 259 
Q 1147 116 1045 14 
Q 944 -88 800 -88 
Q 656 -88 554 14 
Q 453 116 453 259 
Q 453 406 554 506 
Q 656 606 800 606 
z
" transform="scale(0.015625)"/>
        <path id="TimesNewRomanPSMT-32" d="M 2934 816 
L 2638 0 
L 138 0 
L 138 116 
Q 1241 1122 1691 1759 
Q 2141 2397 2141 2925 
Q 2141 3328 1894 3587 
Q 1647 3847 1303 3847 
Q 991 3847 742 3664 
Q 494 3481 375 3128 
L 259 3128 
Q 338 3706 661 4015 
Q 984 4325 1469 4325 
Q 1984 4325 2329 3994 
Q 2675 3663 2675 3213 
Q 2675 2891 2525 2569 
Q 2294 2063 1775 1497 
Q 997 647 803 472 
L 1909 472 
Q 2247 472 2383 497 
Q 2519 522 2628 598 
Q 2738 675 2819 816 
L 2934 816 
z
" transform="scale(0.015625)"/>
        <path id="TimesNewRomanPSMT-35" d="M 2778 4238 
L 2534 3706 
L 1259 3706 
L 981 3138 
Q 1809 3016 2294 2522 
Q 2709 2097 2709 1522 
Q 2709 1188 2573 903 
Q 2438 619 2231 419 
Q 2025 219 1772 97 
Q 1413 -75 1034 -75 
Q 653 -75 479 54 
Q 306 184 306 341 
Q 306 428 378 495 
Q 450 563 559 563 
Q 641 563 702 538 
Q 763 513 909 409 
Q 1144 247 1384 247 
Q 1750 247 2026 523 
Q 2303 800 2303 1197 
Q 2303 1581 2056 1914 
Q 1809 2247 1375 2428 
Q 1034 2569 447 2591 
L 1259 4238 
L 2778 4238 
z
" transform="scale(0.015625)"/>
       </defs>
       <use xlink:href="#TimesNewRomanPSMT-30"/>
       <use xlink:href="#TimesNewRomanPSMT-2e" transform="translate(50 0)"/>
       <use xlink:href="#TimesNewRomanPSMT-32" transform="translate(75 0)"/>
       <use xlink:href="#TimesNewRomanPSMT-35" transform="translate(125 0)"/>
      </g>
     </g>
    </g>
    <g id="xtick_3">
     <g id="line2d_3">
      <g>
       <use xlink:href="#m6c5443e92b" x="275.799375" y="367.599" style="stroke: #000000; stroke-width: 0.8"/>
      </g>
     </g>
     <g id="text_3">
      <!-- 0.5 -->
      <g transform="translate(268.299375 379.4315) scale(0.12 -0.12)">
       <use xlink:href="#TimesNewRomanPSMT-30"/>
       <use xlink:href="#TimesNewRomanPSMT-2e" transform="translate(50 0)"/>
       <use xlink:href="#TimesNewRomanPSMT-35" transform="translate(75 0)"/>
      </g>
     </g>
    </g>
    <g id="xtick_4">
     <g id="line2d_4">
      <g>
       <use xlink:href="#m6c5443e92b" x="377.25392" y="367.599" style="stroke: #000000; stroke-width: 0.8"/>
      </g>
     </g>
     <g id="text_4">
      <!-- 0.75 -->
      <g transform="translate(366.75392 379.4315) scale(0.12 -0.12)">
       <defs>
        <path id="TimesNewRomanPSMT-37" d="M 644 4238 
L 2916 4238 
L 2916 4119 
L 1503 -88 
L 1153 -88 
L 2419 3728 
L 1253 3728 
Q 900 3728 750 3644 
Q 488 3500 328 3200 
L 238 3234 
L 644 4238 
z
" transform="scale(0.015625)"/>
       </defs>
       <use xlink:href="#TimesNewRomanPSMT-30"/>
       <use xlink:href="#TimesNewRomanPSMT-2e" transform="translate(50 0)"/>
       <use xlink:href="#TimesNewRomanPSMT-37" transform="translate(75 0)"/>
       <use xlink:href="#TimesNewRomanPSMT-35" transform="translate(125 0)"/>
      </g>
     </g>
    </g>
    <g id="xtick_5">
     <g id="line2d_5">
      <g>
       <use xlink:href="#m6c5443e92b" x="478.708466" y="367.599" style="stroke: #000000; stroke-width: 0.8"/>
      </g>
     </g>
     <g id="text_5">
      <!-- QIF -->
      <g transform="translate(469.040966 379.4315) scale(0.12 -0.12)">
       <defs>
        <path id="TimesNewRomanPSMT-51" d="M 2819 -47 
Q 3138 -597 3508 -856 
Q 3878 -1116 4350 -1153 
L 4350 -1253 
Q 3919 -1238 3428 -1080 
Q 2938 -922 2498 -642 
Q 2059 -363 1741 -47 
Q 1291 134 1028 338 
Q 647 641 436 1083 
Q 225 1525 225 2128 
Q 225 3078 840 3706 
Q 1456 4334 2331 4334 
Q 3163 4334 3770 3704 
Q 4378 3075 4378 2116 
Q 4378 1338 3945 750 
Q 3513 163 2819 -47 
z
M 2294 4094 
Q 1725 4094 1378 3688 
Q 941 3178 941 2128 
Q 941 1100 1384 544 
Q 1728 116 2294 116 
Q 2881 116 3241 544 
Q 3663 1050 3663 2038 
Q 3663 2797 3431 3316 
Q 3253 3716 2958 3905 
Q 2663 4094 2294 4094 
z
" transform="scale(0.015625)"/>
       </defs>
       <use xlink:href="#TimesNewRomanPSMT-51"/>
       <use xlink:href="#TimesNewRomanPSMT-49" transform="translate(72.216797 0)"/>
       <use xlink:href="#TimesNewRomanPSMT-46" transform="translate(105.517578 0)"/>
      </g>
     </g>
    </g>
    <g id="text_6">
     <!-- $pqif$ -->
     <g transform="translate(263.919375 395.0715) scale(0.12 -0.12)">
      <defs>
       <path id="DejaVuSerif-Italic-70" d="M 1466 1825 
L 1400 1497 
Q 1353 1250 1353 1053 
Q 1353 769 1453 581 
Q 1622 269 2059 269 
Q 2500 269 2795 622 
Q 3091 975 3225 1663 
Q 3284 1978 3284 2225 
Q 3284 2513 3200 2703 
Q 3041 3053 2600 3053 
Q 2163 3053 1872 2737 
Q 1581 2422 1466 1825 
z
M 1116 2988 
L 563 2988 
L 628 3322 
L 1756 3322 
L 1656 2803 
Q 1884 3116 2175 3264 
Q 2466 3413 2850 3413 
Q 3463 3413 3753 2928 
Q 3947 2609 3947 2163 
Q 3947 1928 3897 1663 
Q 3744 881 3262 395 
Q 2781 -91 2169 -91 
Q 1784 -91 1551 57 
Q 1319 206 1213 519 
L 850 -1331 
L 275 -1331 
L 1116 2988 
z
" transform="scale(0.015625)"/>
       <path id="DejaVuSerif-Italic-71" d="M 2684 519 
Q 2469 206 2206 56 
Q 1944 -91 1597 -91 
Q 1047 -91 769 281 
Q 594 516 575 841 
Q 563 1031 606 1256 
Q 822 2359 1588 2928 
Q 2241 3409 3006 3413 
Q 3613 3416 3803 3322 
L 2963 -1000 
L 3516 -1000 
L 3450 -1331 
L 2322 -1331 
L 2684 519 
z
M 2916 3094 
Q 2316 3094 1850 2625 
Q 1388 2153 1219 1297 
Q 1172 1044 1184 853 
Q 1197 659 1275 528 
Q 1428 269 1828 269 
Q 2222 269 2489 583 
Q 2756 897 2872 1497 
L 3166 3003 
Q 3169 3094 2916 3094 
z
" transform="scale(0.015625)"/>
       <path id="DejaVuSerif-Italic-69" d="M 1009 4353 
Q 1038 4497 1163 4603 
Q 1288 4709 1434 4709 
Q 1578 4709 1663 4603 
Q 1728 4522 1728 4422 
Q 1728 4388 1719 4353 
Q 1691 4206 1567 4103 
Q 1444 4000 1297 4000 
Q 1150 4000 1066 4103 
Q 1003 4181 1003 4281 
Q 1003 4316 1009 4353 
z
M 963 331 
L 1506 331 
L 1444 0 
L 325 0 
L 903 2988 
L 353 2988 
L 419 3322 
L 1544 3322 
L 963 331 
z
" transform="scale(0.015625)"/>
       <path id="DejaVuSerif-Italic-66" d="M 3191 4078 
L 2888 4078 
Q 2900 4144 2900 4203 
Q 2900 4347 2825 4434 
Q 2719 4556 2472 4556 
Q 2150 4556 1984 4379 
Q 1819 4203 1731 3750 
L 1647 3322 
L 2575 3322 
L 2509 2988 
L 1581 2988 
L 963 -206 
Q 853 -763 509 -1047 
Q 166 -1331 -394 -1331 
L -356 -1025 
Q -28 -1025 131 -850 
Q 297 -663 388 -206 
L 1006 2988 
L 456 2988 
L 522 3322 
L 1072 3322 
L 1153 3738 
Q 1263 4297 1606 4578 
Q 1950 4863 2509 4863 
Q 2719 4863 2920 4825 
Q 3122 4788 3316 4709 
L 3191 4078 
z
" transform="scale(0.015625)"/>
      </defs>
      <use xlink:href="#DejaVuSerif-Italic-70" transform="translate(0 0.015625)"/>
      <use xlink:href="#DejaVuSerif-Italic-71" transform="translate(64.013672 0.015625)"/>
      <use xlink:href="#DejaVuSerif-Italic-69" transform="translate(128.027344 0.015625)"/>
      <use xlink:href="#DejaVuSerif-Italic-66" transform="translate(160.009766 0.015625)"/>
     </g>
    </g>
   </g>
   <g id="matplotlib.axis_2">
    <g id="ytick_1">
     <g id="line2d_6">
      <defs>
       <path id="m927b666691" d="M 0 0 
L 3.5 0 
" style="stroke: #000000; stroke-width: 0.8"/>
      </defs>
      <g>
       <use xlink:href="#m927b666691" x="52.599375" y="346.229864" style="stroke: #000000; stroke-width: 0.8"/>
      </g>
     </g>
     <g id="text_7">
      <!-- 0.000 -->
      <g transform="translate(22.099375 350.396114) scale(0.12 -0.12)">
       <use xlink:href="#TimesNewRomanPSMT-30"/>
       <use xlink:href="#TimesNewRomanPSMT-2e" transform="translate(50 0)"/>
       <use xlink:href="#TimesNewRomanPSMT-30" transform="translate(75 0)"/>
       <use xlink:href="#TimesNewRomanPSMT-30" transform="translate(125 0)"/>
       <use xlink:href="#TimesNewRomanPSMT-30" transform="translate(175 0)"/>
      </g>
     </g>
    </g>
    <g id="ytick_2">
     <g id="line2d_7">
      <g>
       <use xlink:href="#m927b666691" x="52.599375" y="279.723459" style="stroke: #000000; stroke-width: 0.8"/>
      </g>
     </g>
     <g id="text_8">
      <!-- 0.005 -->
      <g transform="translate(22.099375 283.889709) scale(0.12 -0.12)">
       <use xlink:href="#TimesNewRomanPSMT-30"/>
       <use xlink:href="#TimesNewRomanPSMT-2e" transform="translate(50 0)"/>
       <use xlink:href="#TimesNewRomanPSMT-30" transform="translate(75 0)"/>
       <use xlink:href="#TimesNewRomanPSMT-30" transform="translate(125 0)"/>
       <use xlink:href="#TimesNewRomanPSMT-35" transform="translate(175 0)"/>
      </g>
     </g>
    </g>
    <g id="ytick_3">
     <g id="line2d_8">
      <g>
       <use xlink:href="#m927b666691" x="52.599375" y="213.217054" style="stroke: #000000; stroke-width: 0.8"/>
      </g>
     </g>
     <g id="text_9">
      <!-- 0.010 -->
      <g transform="translate(22.099375 217.383304) scale(0.12 -0.12)">
       <defs>
        <path id="TimesNewRomanPSMT-31" d="M 750 3822 
L 1781 4325 
L 1884 4325 
L 1884 747 
Q 1884 391 1914 303 
Q 1944 216 2037 169 
Q 2131 122 2419 116 
L 2419 0 
L 825 0 
L 825 116 
Q 1125 122 1212 167 
Q 1300 213 1334 289 
Q 1369 366 1369 747 
L 1369 3034 
Q 1369 3497 1338 3628 
Q 1316 3728 1258 3775 
Q 1200 3822 1119 3822 
Q 1003 3822 797 3725 
L 750 3822 
z
" transform="scale(0.015625)"/>
       </defs>
       <use xlink:href="#TimesNewRomanPSMT-30"/>
       <use xlink:href="#TimesNewRomanPSMT-2e" transform="translate(50 0)"/>
       <use xlink:href="#TimesNewRomanPSMT-30" transform="translate(75 0)"/>
       <use xlink:href="#TimesNewRomanPSMT-31" transform="translate(125 0)"/>
       <use xlink:href="#TimesNewRomanPSMT-30" transform="translate(175 0)"/>
      </g>
     </g>
    </g>
    <g id="ytick_4">
     <g id="line2d_9">
      <g>
       <use xlink:href="#m927b666691" x="52.599375" y="146.71065" style="stroke: #000000; stroke-width: 0.8"/>
      </g>
     </g>
     <g id="text_10">
      <!-- 0.015 -->
      <g transform="translate(22.099375 150.8769) scale(0.12 -0.12)">
       <use xlink:href="#TimesNewRomanPSMT-30"/>
       <use xlink:href="#TimesNewRomanPSMT-2e" transform="translate(50 0)"/>
       <use xlink:href="#TimesNewRomanPSMT-30" transform="translate(75 0)"/>
       <use xlink:href="#TimesNewRomanPSMT-31" transform="translate(125 0)"/>
       <use xlink:href="#TimesNewRomanPSMT-35" transform="translate(175 0)"/>
      </g>
     </g>
    </g>
    <g id="ytick_5">
     <g id="line2d_10">
      <g>
       <use xlink:href="#m927b666691" x="52.599375" y="80.204245" style="stroke: #000000; stroke-width: 0.8"/>
      </g>
     </g>
     <g id="text_11">
      <!-- 0.020 -->
      <g transform="translate(22.099375 84.370495) scale(0.12 -0.12)">
       <use xlink:href="#TimesNewRomanPSMT-30"/>
       <use xlink:href="#TimesNewRomanPSMT-2e" transform="translate(50 0)"/>
       <use xlink:href="#TimesNewRomanPSMT-30" transform="translate(75 0)"/>
       <use xlink:href="#TimesNewRomanPSMT-32" transform="translate(125 0)"/>
       <use xlink:href="#TimesNewRomanPSMT-30" transform="translate(175 0)"/>
      </g>
     </g>
    </g>
    <g id="text_12">
     <!-- $\mu$W -->
     <g transform="translate(15.5325 210.879) rotate(-90) scale(0.12 -0.12)">
      <defs>
       <path id="DejaVuSerif-Italic-3bc" d="M 284 -1331 
L 1125 2988 
L 606 2988 
L 672 3322 
L 1766 3322 
L 1388 1388 
Q 1272 781 1378 556 
Q 1484 331 1863 331 
Q 2263 331 2528 625 
Q 2794 919 2903 1478 
L 3197 2988 
L 2697 2988 
L 2763 3322 
L 3838 3322 
L 3253 325 
L 3797 325 
L 3734 0 
L 2616 0 
L 2731 588 
Q 2503 256 2239 82 
Q 1975 -91 1694 -91 
Q 1516 -91 1380 -34 
Q 1244 22 1144 134 
L 859 -1331 
L 284 -1331 
z
" transform="scale(0.015625)"/>
       <path id="TimesNewRomanPSMT-57" d="M 5991 4238 
L 5991 4122 
Q 5825 4122 5722 4062 
Q 5619 4003 5525 3841 
Q 5463 3731 5328 3319 
L 4147 -97 
L 4022 -97 
L 3056 2613 
L 2097 -97 
L 1984 -97 
L 725 3422 
Q 584 3816 547 3888 
Q 484 4006 376 4064 
Q 269 4122 84 4122 
L 84 4238 
L 1653 4238 
L 1653 4122 
L 1578 4122 
Q 1413 4122 1325 4047 
Q 1238 3972 1238 3866 
Q 1238 3756 1375 3363 
L 2209 984 
L 2913 3006 
L 2788 3363 
L 2688 3647 
Q 2622 3803 2541 3922 
Q 2500 3981 2441 4022 
Q 2363 4078 2284 4103 
Q 2225 4122 2097 4122 
L 2097 4238 
L 3747 4238 
L 3747 4122 
L 3634 4122 
Q 3459 4122 3378 4047 
Q 3297 3972 3297 3844 
Q 3297 3684 3438 3288 
L 4250 984 
L 5056 3319 
Q 5194 3706 5194 3856 
Q 5194 3928 5148 3990 
Q 5103 4053 5034 4078 
Q 4916 4122 4725 4122 
L 4725 4238 
L 5991 4238 
z
" transform="scale(0.015625)"/>
      </defs>
      <use xlink:href="#DejaVuSerif-Italic-3bc" transform="translate(0 0.78125)"/>
      <use xlink:href="#TimesNewRomanPSMT-57" transform="translate(64.990234 0.78125)"/>
     </g>
    </g>
   </g>
   <g id="LineCollection_1">
    <path d="M 72.890284 347.926688 
L 72.890284 344.480258 
" clip-path="url(#p37b434ad52)" style="fill: none; stroke: #67000d; stroke-width: 1.5"/>
    <path d="M 174.34483 347.633781 
L 174.34483 341.595016 
" clip-path="url(#p37b434ad52)" style="fill: none; stroke: #67000d; stroke-width: 1.5"/>
    <path d="M 275.799375 349.175044 
L 275.799375 340.302375 
" clip-path="url(#p37b434ad52)" style="fill: none; stroke: #67000d; stroke-width: 1.5"/>
    <path d="M 377.25392 352.479 
L 377.25392 341.435316 
" clip-path="url(#p37b434ad52)" style="fill: none; stroke: #67000d; stroke-width: 1.5"/>
   </g>
   <g id="line2d_11">
    <defs>
     <path id="mecded05e56" d="M 5 0 
L -5 -0 
" style="stroke: #67000d"/>
    </defs>
    <g clip-path="url(#p37b434ad52)">
     <use xlink:href="#mecded05e56" x="72.890284" y="347.926688" style="fill: #67000d; stroke: #67000d"/>
     <use xlink:href="#mecded05e56" x="174.34483" y="347.633781" style="fill: #67000d; stroke: #67000d"/>
     <use xlink:href="#mecded05e56" x="275.799375" y="349.175044" style="fill: #67000d; stroke: #67000d"/>
     <use xlink:href="#mecded05e56" x="377.25392" y="352.479" style="fill: #67000d; stroke: #67000d"/>
    </g>
   </g>
   <g id="line2d_12">
    <g clip-path="url(#p37b434ad52)">
     <use xlink:href="#mecded05e56" x="72.890284" y="344.480258" style="fill: #67000d; stroke: #67000d"/>
     <use xlink:href="#mecded05e56" x="174.34483" y="341.595016" style="fill: #67000d; stroke: #67000d"/>
     <use xlink:href="#mecded05e56" x="275.799375" y="340.302375" style="fill: #67000d; stroke: #67000d"/>
     <use xlink:href="#mecded05e56" x="377.25392" y="341.435316" style="fill: #67000d; stroke: #67000d"/>
    </g>
   </g>
   <g id="line2d_13">
    <path d="M 72.890284 346.203473 
L 174.34483 344.614398 
L 275.799375 344.738709 
L 377.25392 346.957158 
L 478.708466 346.051458 
" clip-path="url(#p37b434ad52)" style="fill: none; stroke: #67000d; stroke-width: 1.5; stroke-linecap: square"/>
   </g>
   <g id="LineCollection_2">
    <path d="M 72.890284 347.722947 
L 72.890284 343.937575 
" clip-path="url(#p37b434ad52)" style="fill: none; stroke: #ca181d; stroke-width: 1.5"/>
    <path d="M 174.34483 349.065323 
L 174.34483 342.094719 
" clip-path="url(#p37b434ad52)" style="fill: none; stroke: #ca181d; stroke-width: 1.5"/>
    <path d="M 275.799375 348.535108 
L 275.799375 340.567644 
" clip-path="url(#p37b434ad52)" style="fill: none; stroke: #ca181d; stroke-width: 1.5"/>
    <path d="M 377.25392 351.310927 
L 377.25392 342.744752 
" clip-path="url(#p37b434ad52)" style="fill: none; stroke: #ca181d; stroke-width: 1.5"/>
   </g>
   <g id="line2d_14">
    <defs>
     <path id="mbcc477d3b2" d="M 5 0 
L -5 -0 
" style="stroke: #ca181d"/>
    </defs>
    <g clip-path="url(#p37b434ad52)">
     <use xlink:href="#mbcc477d3b2" x="72.890284" y="347.722947" style="fill: #ca181d; stroke: #ca181d"/>
     <use xlink:href="#mbcc477d3b2" x="174.34483" y="349.065323" style="fill: #ca181d; stroke: #ca181d"/>
     <use xlink:href="#mbcc477d3b2" x="275.799375" y="348.535108" style="fill: #ca181d; stroke: #ca181d"/>
     <use xlink:href="#mbcc477d3b2" x="377.25392" y="351.310927" style="fill: #ca181d; stroke: #ca181d"/>
    </g>
   </g>
   <g id="line2d_15">
    <g clip-path="url(#p37b434ad52)">
     <use xlink:href="#mbcc477d3b2" x="72.890284" y="343.937575" style="fill: #ca181d; stroke: #ca181d"/>
     <use xlink:href="#mbcc477d3b2" x="174.34483" y="342.094719" style="fill: #ca181d; stroke: #ca181d"/>
     <use xlink:href="#mbcc477d3b2" x="275.799375" y="340.567644" style="fill: #ca181d; stroke: #ca181d"/>
     <use xlink:href="#mbcc477d3b2" x="377.25392" y="342.744752" style="fill: #ca181d; stroke: #ca181d"/>
    </g>
   </g>
   <g id="line2d_16">
    <path d="M 72.890284 345.830261 
L 174.34483 345.580021 
L 275.799375 344.551376 
L 377.25392 347.027839 
L 478.708466 343.772413 
" clip-path="url(#p37b434ad52)" style="fill: none; stroke: #ca181d; stroke-width: 1.5; stroke-linecap: square"/>
   </g>
   <g id="LineCollection_3">
    <path d="M 72.890284 348.631476 
L 72.890284 344.631102 
" clip-path="url(#p37b434ad52)" style="fill: none; stroke: #fb694a; stroke-width: 1.5"/>
    <path d="M 174.34483 348.973342 
L 174.34483 342.847148 
" clip-path="url(#p37b434ad52)" style="fill: none; stroke: #fb694a; stroke-width: 1.5"/>
    <path d="M 275.799375 349.292388 
L 275.799375 342.741632 
" clip-path="url(#p37b434ad52)" style="fill: none; stroke: #fb694a; stroke-width: 1.5"/>
    <path d="M 377.25392 348.923103 
L 377.25392 341.066744 
" clip-path="url(#p37b434ad52)" style="fill: none; stroke: #fb694a; stroke-width: 1.5"/>
   </g>
   <g id="line2d_17">
    <defs>
     <path id="med59c79dcc" d="M 5 0 
L -5 -0 
" style="stroke: #fb694a"/>
    </defs>
    <g clip-path="url(#p37b434ad52)">
     <use xlink:href="#med59c79dcc" x="72.890284" y="348.631476" style="fill: #fb694a; stroke: #fb694a"/>
     <use xlink:href="#med59c79dcc" x="174.34483" y="348.973342" style="fill: #fb694a; stroke: #fb694a"/>
     <use xlink:href="#med59c79dcc" x="275.799375" y="349.292388" style="fill: #fb694a; stroke: #fb694a"/>
     <use xlink:href="#med59c79dcc" x="377.25392" y="348.923103" style="fill: #fb694a; stroke: #fb694a"/>
    </g>
   </g>
   <g id="line2d_18">
    <g clip-path="url(#p37b434ad52)">
     <use xlink:href="#med59c79dcc" x="72.890284" y="344.631102" style="fill: #fb694a; stroke: #fb694a"/>
     <use xlink:href="#med59c79dcc" x="174.34483" y="342.847148" style="fill: #fb694a; stroke: #fb694a"/>
     <use xlink:href="#med59c79dcc" x="275.799375" y="342.741632" style="fill: #fb694a; stroke: #fb694a"/>
     <use xlink:href="#med59c79dcc" x="377.25392" y="341.066744" style="fill: #fb694a; stroke: #fb694a"/>
    </g>
   </g>
   <g id="line2d_19">
    <path d="M 72.890284 346.631289 
L 174.34483 345.910245 
L 275.799375 346.01701 
L 377.25392 344.994923 
L 478.708466 345.576985 
" clip-path="url(#p37b434ad52)" style="fill: none; stroke: #fb694a; stroke-width: 1.5; stroke-linecap: square"/>
   </g>
   <g id="LineCollection_4">
    <path d="M 72.890284 348.305258 
L 72.890284 344.906804 
" clip-path="url(#p37b434ad52)" style="fill: none; stroke: #fcbba1; stroke-width: 1.5"/>
    <path d="M 174.34483 349.617049 
L 174.34483 343.628626 
" clip-path="url(#p37b434ad52)" style="fill: none; stroke: #fcbba1; stroke-width: 1.5"/>
    <path d="M 275.799375 349.903094 
L 275.799375 343.20606 
" clip-path="url(#p37b434ad52)" style="fill: none; stroke: #fcbba1; stroke-width: 1.5"/>
    <path d="M 377.25392 348.411822 
L 377.25392 341.044101 
" clip-path="url(#p37b434ad52)" style="fill: none; stroke: #fcbba1; stroke-width: 1.5"/>
   </g>
   <g id="line2d_20">
    <defs>
     <path id="mc6ec63f21a" d="M 5 0 
L -5 -0 
" style="stroke: #fcbba1"/>
    </defs>
    <g clip-path="url(#p37b434ad52)">
     <use xlink:href="#mc6ec63f21a" x="72.890284" y="348.305258" style="fill: #fcbba1; stroke: #fcbba1"/>
     <use xlink:href="#mc6ec63f21a" x="174.34483" y="349.617049" style="fill: #fcbba1; stroke: #fcbba1"/>
     <use xlink:href="#mc6ec63f21a" x="275.799375" y="349.903094" style="fill: #fcbba1; stroke: #fcbba1"/>
     <use xlink:href="#mc6ec63f21a" x="377.25392" y="348.411822" style="fill: #fcbba1; stroke: #fcbba1"/>
    </g>
   </g>
   <g id="line2d_21">
    <g clip-path="url(#p37b434ad52)">
     <use xlink:href="#mc6ec63f21a" x="72.890284" y="344.906804" style="fill: #fcbba1; stroke: #fcbba1"/>
     <use xlink:href="#mc6ec63f21a" x="174.34483" y="343.628626" style="fill: #fcbba1; stroke: #fcbba1"/>
     <use xlink:href="#mc6ec63f21a" x="275.799375" y="343.20606" style="fill: #fcbba1; stroke: #fcbba1"/>
     <use xlink:href="#mc6ec63f21a" x="377.25392" y="341.044101" style="fill: #fcbba1; stroke: #fcbba1"/>
    </g>
   </g>
   <g id="line2d_22">
    <path d="M 72.890284 346.606031 
L 174.34483 346.622837 
L 275.799375 346.554577 
L 377.25392 344.727961 
L 478.708466 345.324302 
" clip-path="url(#p37b434ad52)" style="fill: none; stroke: #fcbba1; stroke-width: 1.5; stroke-linecap: square"/>
   </g>
   <g id="LineCollection_5">
    <path d="M 478.708466 349.377853 
L 478.708466 341.270751 
" clip-path="url(#p37b434ad52)" style="fill: none; stroke: #4682b4; stroke-width: 1.5"/>
   </g>
   <g id="line2d_23">
    <defs>
     <path id="mb02b3bbe72" d="M 5 0 
L -5 -0 
" style="stroke: #4682b4"/>
    </defs>
    <g clip-path="url(#p37b434ad52)">
     <use xlink:href="#mb02b3bbe72" x="478.708466" y="349.377853" style="fill: #4682b4; stroke: #4682b4"/>
    </g>
   </g>
   <g id="line2d_24">
    <g clip-path="url(#p37b434ad52)">
     <use xlink:href="#mb02b3bbe72" x="478.708466" y="341.270751" style="fill: #4682b4; stroke: #4682b4"/>
    </g>
   </g>
   <g id="line2d_25">
    <path d="M 52.599375 346.229864 
L 498.999375 346.229864 
" clip-path="url(#p37b434ad52)" style="fill: none; stroke: #000000; stroke-width: 1.5; stroke-linecap: square"/>
   </g>
   <g id="LineCollection_6">
    <path d="M 72.890284 141.857886 
L 72.890284 138.304722 
" clip-path="url(#p37b434ad52)" style="fill: none; stroke: #67000d; stroke-width: 1.5"/>
    <path d="M 174.34483 134.817901 
L 174.34483 131.101039 
" clip-path="url(#p37b434ad52)" style="fill: none; stroke: #67000d; stroke-width: 1.5"/>
    <path d="M 275.799375 125.930779 
L 275.799375 118.463947 
" clip-path="url(#p37b434ad52)" style="fill: none; stroke: #67000d; stroke-width: 1.5"/>
    <path d="M 377.25392 101.126142 
L 377.25392 95.529718 
" clip-path="url(#p37b434ad52)" style="fill: none; stroke: #67000d; stroke-width: 1.5"/>
   </g>
   <g id="line2d_26">
    <g clip-path="url(#p37b434ad52)">
     <use xlink:href="#mecded05e56" x="72.890284" y="141.857886" style="fill: #67000d; stroke: #67000d"/>
     <use xlink:href="#mecded05e56" x="174.34483" y="134.817901" style="fill: #67000d; stroke: #67000d"/>
     <use xlink:href="#mecded05e56" x="275.799375" y="125.930779" style="fill: #67000d; stroke: #67000d"/>
     <use xlink:href="#mecded05e56" x="377.25392" y="101.126142" style="fill: #67000d; stroke: #67000d"/>
    </g>
   </g>
   <g id="line2d_27">
    <g clip-path="url(#p37b434ad52)">
     <use xlink:href="#mecded05e56" x="72.890284" y="138.304722" style="fill: #67000d; stroke: #67000d"/>
     <use xlink:href="#mecded05e56" x="174.34483" y="131.101039" style="fill: #67000d; stroke: #67000d"/>
     <use xlink:href="#mecded05e56" x="275.799375" y="118.463947" style="fill: #67000d; stroke: #67000d"/>
     <use xlink:href="#mecded05e56" x="377.25392" y="95.529718" style="fill: #67000d; stroke: #67000d"/>
    </g>
   </g>
   <g id="line2d_28">
    <path d="M 72.890284 140.081304 
L 174.34483 132.95947 
L 275.799375 122.197363 
L 377.25392 98.32793 
L 478.708466 59.465687 
" clip-path="url(#p37b434ad52)" style="fill: none; stroke: #67000d; stroke-width: 1.5; stroke-linecap: square"/>
   </g>
   <g id="LineCollection_7">
    <path d="M 72.890284 107.334405 
L 72.890284 103.635386 
" clip-path="url(#p37b434ad52)" style="fill: none; stroke: #ca181d; stroke-width: 1.5"/>
    <path d="M 174.34483 103.606346 
L 174.34483 99.674231 
" clip-path="url(#p37b434ad52)" style="fill: none; stroke: #ca181d; stroke-width: 1.5"/>
    <path d="M 275.799375 96.948268 
L 275.799375 91.738936 
" clip-path="url(#p37b434ad52)" style="fill: none; stroke: #ca181d; stroke-width: 1.5"/>
    <path d="M 377.25392 83.828779 
L 377.25392 79.278246 
" clip-path="url(#p37b434ad52)" style="fill: none; stroke: #ca181d; stroke-width: 1.5"/>
   </g>
   <g id="line2d_29">
    <g clip-path="url(#p37b434ad52)">
     <use xlink:href="#mbcc477d3b2" x="72.890284" y="107.334405" style="fill: #ca181d; stroke: #ca181d"/>
     <use xlink:href="#mbcc477d3b2" x="174.34483" y="103.606346" style="fill: #ca181d; stroke: #ca181d"/>
     <use xlink:href="#mbcc477d3b2" x="275.799375" y="96.948268" style="fill: #ca181d; stroke: #ca181d"/>
     <use xlink:href="#mbcc477d3b2" x="377.25392" y="83.828779" style="fill: #ca181d; stroke: #ca181d"/>
    </g>
   </g>
   <g id="line2d_30">
    <g clip-path="url(#p37b434ad52)">
     <use xlink:href="#mbcc477d3b2" x="72.890284" y="103.635386" style="fill: #ca181d; stroke: #ca181d"/>
     <use xlink:href="#mbcc477d3b2" x="174.34483" y="99.674231" style="fill: #ca181d; stroke: #ca181d"/>
     <use xlink:href="#mbcc477d3b2" x="275.799375" y="91.738936" style="fill: #ca181d; stroke: #ca181d"/>
     <use xlink:href="#mbcc477d3b2" x="377.25392" y="79.278246" style="fill: #ca181d; stroke: #ca181d"/>
    </g>
   </g>
   <g id="line2d_31">
    <path d="M 72.890284 105.484895 
L 174.34483 101.640289 
L 275.799375 94.343602 
L 377.25392 81.553512 
L 478.708466 58.220976 
" clip-path="url(#p37b434ad52)" style="fill: none; stroke: #ca181d; stroke-width: 1.5; stroke-linecap: square"/>
   </g>
   <g id="LineCollection_8">
    <path d="M 72.890284 77.708153 
L 72.890284 72.596766 
" clip-path="url(#p37b434ad52)" style="fill: none; stroke: #fb694a; stroke-width: 1.5"/>
    <path d="M 174.34483 76.223967 
L 174.34483 72.877642 
" clip-path="url(#p37b434ad52)" style="fill: none; stroke: #fb694a; stroke-width: 1.5"/>
    <path d="M 275.799375 76.452264 
L 275.799375 71.102175 
" clip-path="url(#p37b434ad52)" style="fill: none; stroke: #fb694a; stroke-width: 1.5"/>
    <path d="M 377.25392 68.594271 
L 377.25392 63.594983 
" clip-path="url(#p37b434ad52)" style="fill: none; stroke: #fb694a; stroke-width: 1.5"/>
   </g>
   <g id="line2d_32">
    <g clip-path="url(#p37b434ad52)">
     <use xlink:href="#med59c79dcc" x="72.890284" y="77.708153" style="fill: #fb694a; stroke: #fb694a"/>
     <use xlink:href="#med59c79dcc" x="174.34483" y="76.223967" style="fill: #fb694a; stroke: #fb694a"/>
     <use xlink:href="#med59c79dcc" x="275.799375" y="76.452264" style="fill: #fb694a; stroke: #fb694a"/>
     <use xlink:href="#med59c79dcc" x="377.25392" y="68.594271" style="fill: #fb694a; stroke: #fb694a"/>
    </g>
   </g>
   <g id="line2d_33">
    <g clip-path="url(#p37b434ad52)">
     <use xlink:href="#med59c79dcc" x="72.890284" y="72.596766" style="fill: #fb694a; stroke: #fb694a"/>
     <use xlink:href="#med59c79dcc" x="174.34483" y="72.877642" style="fill: #fb694a; stroke: #fb694a"/>
     <use xlink:href="#med59c79dcc" x="275.799375" y="71.102175" style="fill: #fb694a; stroke: #fb694a"/>
     <use xlink:href="#med59c79dcc" x="377.25392" y="63.594983" style="fill: #fb694a; stroke: #fb694a"/>
    </g>
   </g>
   <g id="line2d_34">
    <path d="M 72.890284 75.152459 
L 174.34483 74.550804 
L 275.799375 73.777219 
L 377.25392 66.094627 
L 478.708466 58.324673 
" clip-path="url(#p37b434ad52)" style="fill: none; stroke: #fb694a; stroke-width: 1.5; stroke-linecap: square"/>
   </g>
   <g id="LineCollection_9">
    <path d="M 72.890284 55.184628 
L 72.890284 50.079 
" clip-path="url(#p37b434ad52)" style="fill: none; stroke: #fcbba1; stroke-width: 1.5"/>
    <path d="M 174.34483 54.864606 
L 174.34483 51.366307 
" clip-path="url(#p37b434ad52)" style="fill: none; stroke: #fcbba1; stroke-width: 1.5"/>
    <path d="M 275.799375 58.747657 
L 275.799375 54.267944 
" clip-path="url(#p37b434ad52)" style="fill: none; stroke: #fcbba1; stroke-width: 1.5"/>
    <path d="M 377.25392 55.885418 
L 377.25392 51.092056 
" clip-path="url(#p37b434ad52)" style="fill: none; stroke: #fcbba1; stroke-width: 1.5"/>
   </g>
   <g id="line2d_35">
    <g clip-path="url(#p37b434ad52)">
     <use xlink:href="#mc6ec63f21a" x="72.890284" y="55.184628" style="fill: #fcbba1; stroke: #fcbba1"/>
     <use xlink:href="#mc6ec63f21a" x="174.34483" y="54.864606" style="fill: #fcbba1; stroke: #fcbba1"/>
     <use xlink:href="#mc6ec63f21a" x="275.799375" y="58.747657" style="fill: #fcbba1; stroke: #fcbba1"/>
     <use xlink:href="#mc6ec63f21a" x="377.25392" y="55.885418" style="fill: #fcbba1; stroke: #fcbba1"/>
    </g>
   </g>
   <g id="line2d_36">
    <g clip-path="url(#p37b434ad52)">
     <use xlink:href="#mc6ec63f21a" x="72.890284" y="50.079" style="fill: #fcbba1; stroke: #fcbba1"/>
     <use xlink:href="#mc6ec63f21a" x="174.34483" y="51.366307" style="fill: #fcbba1; stroke: #fcbba1"/>
     <use xlink:href="#mc6ec63f21a" x="275.799375" y="54.267944" style="fill: #fcbba1; stroke: #fcbba1"/>
     <use xlink:href="#mc6ec63f21a" x="377.25392" y="51.092056" style="fill: #fcbba1; stroke: #fcbba1"/>
    </g>
   </g>
   <g id="line2d_37">
    <path d="M 72.890284 52.631814 
L 174.34483 53.115457 
L 275.799375 56.5078 
L 377.25392 53.488737 
L 478.708466 59.232288 
" clip-path="url(#p37b434ad52)" style="fill: none; stroke: #fcbba1; stroke-width: 1.5; stroke-linecap: square"/>
   </g>
   <g id="LineCollection_10">
    <path d="M 478.708466 62.026103 
L 478.708466 56.438473 
" clip-path="url(#p37b434ad52)" style="fill: none; stroke: #4682b4; stroke-width: 1.5"/>
   </g>
   <g id="line2d_38">
    <g clip-path="url(#p37b434ad52)">
     <use xlink:href="#mb02b3bbe72" x="478.708466" y="62.026103" style="fill: #4682b4; stroke: #4682b4"/>
    </g>
   </g>
   <g id="line2d_39">
    <g clip-path="url(#p37b434ad52)">
     <use xlink:href="#mb02b3bbe72" x="478.708466" y="56.438473" style="fill: #4682b4; stroke: #4682b4"/>
    </g>
   </g>
   <g id="line2d_40">
    <path d="M 52.599375 346.229864 
L 498.999375 346.229864 
" clip-path="url(#p37b434ad52)" style="fill: none; stroke: #000000; stroke-width: 1.5; stroke-linecap: square"/>
   </g>
   <g id="line2d_41">
    <defs>
     <path id="m992f196265" d="M 0 3 
C 0.795609 3 1.55874 2.683901 2.12132 2.12132 
C 2.683901 1.55874 3 0.795609 3 0 
C 3 -0.795609 2.683901 -1.55874 2.12132 -2.12132 
C 1.55874 -2.683901 0.795609 -3 0 -3 
C -0.795609 -3 -1.55874 -2.683901 -2.12132 -2.12132 
C -2.683901 -1.55874 -3 -0.795609 -3 0 
C -3 0.795609 -2.683901 1.55874 -2.12132 2.12132 
C -1.55874 2.683901 -0.795609 3 0 3 
z
" style="stroke: #67000d"/>
    </defs>
    <g clip-path="url(#p37b434ad52)">
     <use xlink:href="#m992f196265" x="72.890284" y="346.203473" style="fill: #67000d; stroke: #67000d"/>
     <use xlink:href="#m992f196265" x="174.34483" y="344.614398" style="fill: #67000d; stroke: #67000d"/>
     <use xlink:href="#m992f196265" x="275.799375" y="344.738709" style="fill: #67000d; stroke: #67000d"/>
     <use xlink:href="#m992f196265" x="377.25392" y="346.957158" style="fill: #67000d; stroke: #67000d"/>
    </g>
   </g>
   <g id="line2d_42">
    <defs>
     <path id="m3c3485ef34" d="M 0 3 
C 0.795609 3 1.55874 2.683901 2.12132 2.12132 
C 2.683901 1.55874 3 0.795609 3 0 
C 3 -0.795609 2.683901 -1.55874 2.12132 -2.12132 
C 1.55874 -2.683901 0.795609 -3 0 -3 
C -0.795609 -3 -1.55874 -2.683901 -2.12132 -2.12132 
C -2.683901 -1.55874 -3 -0.795609 -3 0 
C -3 0.795609 -2.683901 1.55874 -2.12132 2.12132 
C -1.55874 2.683901 -0.795609 3 0 3 
z
" style="stroke: #ca181d"/>
    </defs>
    <g clip-path="url(#p37b434ad52)">
     <use xlink:href="#m3c3485ef34" x="72.890284" y="345.830261" style="fill: #ca181d; stroke: #ca181d"/>
     <use xlink:href="#m3c3485ef34" x="174.34483" y="345.580021" style="fill: #ca181d; stroke: #ca181d"/>
     <use xlink:href="#m3c3485ef34" x="275.799375" y="344.551376" style="fill: #ca181d; stroke: #ca181d"/>
     <use xlink:href="#m3c3485ef34" x="377.25392" y="347.027839" style="fill: #ca181d; stroke: #ca181d"/>
    </g>
   </g>
   <g id="line2d_43">
    <defs>
     <path id="med81e405a4" d="M 0 3 
C 0.795609 3 1.55874 2.683901 2.12132 2.12132 
C 2.683901 1.55874 3 0.795609 3 0 
C 3 -0.795609 2.683901 -1.55874 2.12132 -2.12132 
C 1.55874 -2.683901 0.795609 -3 0 -3 
C -0.795609 -3 -1.55874 -2.683901 -2.12132 -2.12132 
C -2.683901 -1.55874 -3 -0.795609 -3 0 
C -3 0.795609 -2.683901 1.55874 -2.12132 2.12132 
C -1.55874 2.683901 -0.795609 3 0 3 
z
" style="stroke: #fb694a"/>
    </defs>
    <g clip-path="url(#p37b434ad52)">
     <use xlink:href="#med81e405a4" x="72.890284" y="346.631289" style="fill: #fb694a; stroke: #fb694a"/>
     <use xlink:href="#med81e405a4" x="174.34483" y="345.910245" style="fill: #fb694a; stroke: #fb694a"/>
     <use xlink:href="#med81e405a4" x="275.799375" y="346.01701" style="fill: #fb694a; stroke: #fb694a"/>
     <use xlink:href="#med81e405a4" x="377.25392" y="344.994923" style="fill: #fb694a; stroke: #fb694a"/>
    </g>
   </g>
   <g id="line2d_44">
    <defs>
     <path id="m4e9ffbac72" d="M 0 3 
C 0.795609 3 1.55874 2.683901 2.12132 2.12132 
C 2.683901 1.55874 3 0.795609 3 0 
C 3 -0.795609 2.683901 -1.55874 2.12132 -2.12132 
C 1.55874 -2.683901 0.795609 -3 0 -3 
C -0.795609 -3 -1.55874 -2.683901 -2.12132 -2.12132 
C -2.683901 -1.55874 -3 -0.795609 -3 0 
C -3 0.795609 -2.683901 1.55874 -2.12132 2.12132 
C -1.55874 2.683901 -0.795609 3 0 3 
z
" style="stroke: #fcbba1"/>
    </defs>
    <g clip-path="url(#p37b434ad52)">
     <use xlink:href="#m4e9ffbac72" x="72.890284" y="346.606031" style="fill: #fcbba1; stroke: #fcbba1"/>
     <use xlink:href="#m4e9ffbac72" x="174.34483" y="346.622837" style="fill: #fcbba1; stroke: #fcbba1"/>
     <use xlink:href="#m4e9ffbac72" x="275.799375" y="346.554577" style="fill: #fcbba1; stroke: #fcbba1"/>
     <use xlink:href="#m4e9ffbac72" x="377.25392" y="344.727961" style="fill: #fcbba1; stroke: #fcbba1"/>
    </g>
   </g>
   <g id="line2d_45">
    <defs>
     <path id="m03387824b0" d="M 0 3 
C 0.795609 3 1.55874 2.683901 2.12132 2.12132 
C 2.683901 1.55874 3 0.795609 3 0 
C 3 -0.795609 2.683901 -1.55874 2.12132 -2.12132 
C 1.55874 -2.683901 0.795609 -3 0 -3 
C -0.795609 -3 -1.55874 -2.683901 -2.12132 -2.12132 
C -2.683901 -1.55874 -3 -0.795609 -3 0 
C -3 0.795609 -2.683901 1.55874 -2.12132 2.12132 
C -1.55874 2.683901 -0.795609 3 0 3 
z
" style="stroke: #4682b4"/>
    </defs>
    <g clip-path="url(#p37b434ad52)">
     <use xlink:href="#m03387824b0" x="478.708466" y="345.324302" style="fill: #4682b4; stroke: #4682b4"/>
    </g>
   </g>
   <g id="line2d_46">
    <g clip-path="url(#p37b434ad52)">
     <use xlink:href="#m992f196265" x="72.890284" y="140.081304" style="fill: #67000d; stroke: #67000d"/>
     <use xlink:href="#m992f196265" x="174.34483" y="132.95947" style="fill: #67000d; stroke: #67000d"/>
     <use xlink:href="#m992f196265" x="275.799375" y="122.197363" style="fill: #67000d; stroke: #67000d"/>
     <use xlink:href="#m992f196265" x="377.25392" y="98.32793" style="fill: #67000d; stroke: #67000d"/>
    </g>
   </g>
   <g id="line2d_47">
    <g clip-path="url(#p37b434ad52)">
     <use xlink:href="#m3c3485ef34" x="72.890284" y="105.484895" style="fill: #ca181d; stroke: #ca181d"/>
     <use xlink:href="#m3c3485ef34" x="174.34483" y="101.640289" style="fill: #ca181d; stroke: #ca181d"/>
     <use xlink:href="#m3c3485ef34" x="275.799375" y="94.343602" style="fill: #ca181d; stroke: #ca181d"/>
     <use xlink:href="#m3c3485ef34" x="377.25392" y="81.553512" style="fill: #ca181d; stroke: #ca181d"/>
    </g>
   </g>
   <g id="line2d_48">
    <g clip-path="url(#p37b434ad52)">
     <use xlink:href="#med81e405a4" x="72.890284" y="75.152459" style="fill: #fb694a; stroke: #fb694a"/>
     <use xlink:href="#med81e405a4" x="174.34483" y="74.550804" style="fill: #fb694a; stroke: #fb694a"/>
     <use xlink:href="#med81e405a4" x="275.799375" y="73.777219" style="fill: #fb694a; stroke: #fb694a"/>
     <use xlink:href="#med81e405a4" x="377.25392" y="66.094627" style="fill: #fb694a; stroke: #fb694a"/>
    </g>
   </g>
   <g id="line2d_49">
    <g clip-path="url(#p37b434ad52)">
     <use xlink:href="#m4e9ffbac72" x="72.890284" y="52.631814" style="fill: #fcbba1; stroke: #fcbba1"/>
     <use xlink:href="#m4e9ffbac72" x="174.34483" y="53.115457" style="fill: #fcbba1; stroke: #fcbba1"/>
     <use xlink:href="#m4e9ffbac72" x="275.799375" y="56.5078" style="fill: #fcbba1; stroke: #fcbba1"/>
     <use xlink:href="#m4e9ffbac72" x="377.25392" y="53.488737" style="fill: #fcbba1; stroke: #fcbba1"/>
    </g>
   </g>
   <g id="line2d_50">
    <g clip-path="url(#p37b434ad52)">
     <use xlink:href="#m03387824b0" x="478.708466" y="59.232288" style="fill: #4682b4; stroke: #4682b4"/>
    </g>
   </g>
   <g id="patch_3">
    <path d="M 52.599375 367.599 
L 52.599375 34.959 
" style="fill: none; stroke: #000000; stroke-width: 0.8; stroke-linejoin: miter; stroke-linecap: square"/>
   </g>
   <g id="patch_4">
    <path d="M 498.999375 367.599 
L 498.999375 34.959 
" style="fill: none; stroke: #000000; stroke-width: 0.8; stroke-linejoin: miter; stroke-linecap: square"/>
   </g>
   <g id="patch_5">
    <path d="M 52.599375 367.599 
L 498.999375 367.599 
" style="fill: none; stroke: #000000; stroke-width: 0.8; stroke-linejoin: miter; stroke-linecap: square"/>
   </g>
   <g id="patch_6">
    <path d="M 52.599375 34.959 
L 498.999375 34.959 
" style="fill: none; stroke: #000000; stroke-width: 0.8; stroke-linejoin: miter; stroke-linecap: square"/>
   </g>
   <g id="text_13">
    <!-- $\mu$W vs. $pqif$ for heterogenous networks -->
    <g transform="translate(179.079375 16.32) scale(0.12 -0.12)">
     <defs>
      <path id="TimesNewRomanPSMT-20" transform="scale(0.015625)"/>
      <path id="TimesNewRomanPSMT-76" d="M 53 2863 
L 1400 2863 
L 1400 2747 
L 1313 2747 
Q 1191 2747 1127 2687 
Q 1063 2628 1063 2528 
Q 1063 2419 1128 2269 
L 1794 688 
L 2463 2328 
Q 2534 2503 2534 2594 
Q 2534 2638 2509 2666 
Q 2475 2713 2422 2730 
Q 2369 2747 2206 2747 
L 2206 2863 
L 3141 2863 
L 3141 2747 
Q 2978 2734 2916 2681 
Q 2806 2588 2719 2369 
L 1703 -88 
L 1575 -88 
L 553 2328 
Q 484 2497 421 2570 
Q 359 2644 263 2694 
Q 209 2722 53 2747 
L 53 2863 
z
" transform="scale(0.015625)"/>
      <path id="TimesNewRomanPSMT-73" d="M 2050 2947 
L 2050 1972 
L 1947 1972 
Q 1828 2431 1642 2597 
Q 1456 2763 1169 2763 
Q 950 2763 815 2647 
Q 681 2531 681 2391 
Q 681 2216 781 2091 
Q 878 1963 1175 1819 
L 1631 1597 
Q 2266 1288 2266 781 
Q 2266 391 1970 151 
Q 1675 -88 1309 -88 
Q 1047 -88 709 6 
Q 606 38 541 38 
Q 469 38 428 -44 
L 325 -44 
L 325 978 
L 428 978 
Q 516 541 762 319 
Q 1009 97 1316 97 
Q 1531 97 1667 223 
Q 1803 350 1803 528 
Q 1803 744 1651 891 
Q 1500 1038 1047 1263 
Q 594 1488 453 1669 
Q 313 1847 313 2119 
Q 313 2472 555 2709 
Q 797 2947 1181 2947 
Q 1350 2947 1591 2875 
Q 1750 2828 1803 2828 
Q 1853 2828 1881 2850 
Q 1909 2872 1947 2947 
L 2050 2947 
z
" transform="scale(0.015625)"/>
      <path id="TimesNewRomanPSMT-66" d="M 1319 2638 
L 1319 756 
Q 1319 356 1406 250 
Q 1522 113 1716 113 
L 1975 113 
L 1975 0 
L 266 0 
L 266 113 
L 394 113 
Q 519 113 622 175 
Q 725 238 764 344 
Q 803 450 803 756 
L 803 2638 
L 247 2638 
L 247 2863 
L 803 2863 
L 803 3050 
Q 803 3478 940 3775 
Q 1078 4072 1361 4255 
Q 1644 4438 1997 4438 
Q 2325 4438 2600 4225 
Q 2781 4084 2781 3909 
Q 2781 3816 2700 3733 
Q 2619 3650 2525 3650 
Q 2453 3650 2373 3701 
Q 2294 3753 2178 3923 
Q 2063 4094 1966 4153 
Q 1869 4213 1750 4213 
Q 1606 4213 1506 4136 
Q 1406 4059 1362 3898 
Q 1319 3738 1319 3069 
L 1319 2863 
L 2056 2863 
L 2056 2638 
L 1319 2638 
z
" transform="scale(0.015625)"/>
      <path id="TimesNewRomanPSMT-6f" d="M 1600 2947 
Q 2250 2947 2644 2453 
Q 2978 2031 2978 1484 
Q 2978 1100 2793 706 
Q 2609 313 2286 112 
Q 1963 -88 1566 -88 
Q 919 -88 538 428 
Q 216 863 216 1403 
Q 216 1797 411 2186 
Q 606 2575 925 2761 
Q 1244 2947 1600 2947 
z
M 1503 2744 
Q 1338 2744 1170 2645 
Q 1003 2547 900 2300 
Q 797 2053 797 1666 
Q 797 1041 1045 587 
Q 1294 134 1700 134 
Q 2003 134 2200 384 
Q 2397 634 2397 1244 
Q 2397 2006 2069 2444 
Q 1847 2744 1503 2744 
z
" transform="scale(0.015625)"/>
      <path id="TimesNewRomanPSMT-72" d="M 1038 2947 
L 1038 2303 
Q 1397 2947 1775 2947 
Q 1947 2947 2059 2842 
Q 2172 2738 2172 2600 
Q 2172 2478 2090 2393 
Q 2009 2309 1897 2309 
Q 1788 2309 1652 2417 
Q 1516 2525 1450 2525 
Q 1394 2525 1328 2463 
Q 1188 2334 1038 2041 
L 1038 669 
Q 1038 431 1097 309 
Q 1138 225 1241 169 
Q 1344 113 1538 113 
L 1538 0 
L 72 0 
L 72 113 
Q 291 113 397 181 
Q 475 231 506 341 
Q 522 394 522 644 
L 522 1753 
Q 522 2253 501 2348 
Q 481 2444 426 2487 
Q 372 2531 291 2531 
Q 194 2531 72 2484 
L 41 2597 
L 906 2947 
L 1038 2947 
z
" transform="scale(0.015625)"/>
      <path id="TimesNewRomanPSMT-68" d="M 1041 4444 
L 1041 2350 
Q 1388 2731 1591 2839 
Q 1794 2947 1997 2947 
Q 2241 2947 2416 2812 
Q 2591 2678 2675 2391 
Q 2734 2191 2734 1659 
L 2734 647 
Q 2734 375 2778 275 
Q 2809 200 2884 156 
Q 2959 113 3159 113 
L 3159 0 
L 1753 0 
L 1753 113 
L 1819 113 
Q 2019 113 2097 173 
Q 2175 234 2206 353 
Q 2216 403 2216 647 
L 2216 1659 
Q 2216 2128 2167 2275 
Q 2119 2422 2012 2495 
Q 1906 2569 1756 2569 
Q 1603 2569 1437 2487 
Q 1272 2406 1041 2159 
L 1041 647 
Q 1041 353 1073 281 
Q 1106 209 1195 161 
Q 1284 113 1503 113 
L 1503 0 
L 84 0 
L 84 113 
Q 275 113 384 172 
Q 447 203 484 290 
Q 522 378 522 647 
L 522 3238 
Q 522 3728 498 3840 
Q 475 3953 426 3993 
Q 378 4034 297 4034 
Q 231 4034 84 3984 
L 41 4094 
L 897 4444 
L 1041 4444 
z
" transform="scale(0.015625)"/>
      <path id="TimesNewRomanPSMT-65" d="M 681 1784 
Q 678 1147 991 784 
Q 1303 422 1725 422 
Q 2006 422 2214 576 
Q 2422 731 2563 1106 
L 2659 1044 
Q 2594 616 2278 264 
Q 1963 -88 1488 -88 
Q 972 -88 605 314 
Q 238 716 238 1394 
Q 238 2128 614 2539 
Q 991 2950 1559 2950 
Q 2041 2950 2350 2633 
Q 2659 2316 2659 1784 
L 681 1784 
z
M 681 1966 
L 2006 1966 
Q 1991 2241 1941 2353 
Q 1863 2528 1708 2628 
Q 1553 2728 1384 2728 
Q 1125 2728 920 2526 
Q 716 2325 681 1966 
z
" transform="scale(0.015625)"/>
      <path id="TimesNewRomanPSMT-74" d="M 1031 3803 
L 1031 2863 
L 1700 2863 
L 1700 2644 
L 1031 2644 
L 1031 788 
Q 1031 509 1111 412 
Q 1191 316 1316 316 
Q 1419 316 1516 380 
Q 1613 444 1666 569 
L 1788 569 
Q 1678 263 1478 108 
Q 1278 -47 1066 -47 
Q 922 -47 784 33 
Q 647 113 581 261 
Q 516 409 516 719 
L 516 2644 
L 63 2644 
L 63 2747 
Q 234 2816 414 2980 
Q 594 3144 734 3369 
Q 806 3488 934 3803 
L 1031 3803 
z
" transform="scale(0.015625)"/>
      <path id="TimesNewRomanPSMT-67" d="M 966 1044 
Q 703 1172 562 1401 
Q 422 1631 422 1909 
Q 422 2334 742 2640 
Q 1063 2947 1563 2947 
Q 1972 2947 2272 2747 
L 2878 2747 
Q 3013 2747 3034 2739 
Q 3056 2731 3066 2713 
Q 3084 2684 3084 2613 
Q 3084 2531 3069 2500 
Q 3059 2484 3036 2475 
Q 3013 2466 2878 2466 
L 2506 2466 
Q 2681 2241 2681 1891 
Q 2681 1491 2375 1206 
Q 2069 922 1553 922 
Q 1341 922 1119 984 
Q 981 866 932 777 
Q 884 688 884 625 
Q 884 572 936 522 
Q 988 472 1138 450 
Q 1225 438 1575 428 
Q 2219 413 2409 384 
Q 2700 344 2873 169 
Q 3047 -6 3047 -263 
Q 3047 -616 2716 -925 
Q 2228 -1381 1444 -1381 
Q 841 -1381 425 -1109 
Q 191 -953 191 -784 
Q 191 -709 225 -634 
Q 278 -519 444 -313 
Q 466 -284 763 25 
Q 600 122 533 198 
Q 466 275 466 372 
Q 466 481 555 628 
Q 644 775 966 1044 
z
M 1509 2797 
Q 1278 2797 1122 2612 
Q 966 2428 966 2047 
Q 966 1553 1178 1281 
Q 1341 1075 1591 1075 
Q 1828 1075 1981 1253 
Q 2134 1431 2134 1813 
Q 2134 2309 1919 2591 
Q 1759 2797 1509 2797 
z
M 934 0 
Q 788 -159 713 -296 
Q 638 -434 638 -550 
Q 638 -700 819 -813 
Q 1131 -1006 1722 -1006 
Q 2284 -1006 2551 -807 
Q 2819 -609 2819 -384 
Q 2819 -222 2659 -153 
Q 2497 -84 2016 -72 
Q 1313 -53 934 0 
z
" transform="scale(0.015625)"/>
      <path id="TimesNewRomanPSMT-6e" d="M 1034 2341 
Q 1538 2947 1994 2947 
Q 2228 2947 2397 2830 
Q 2566 2713 2666 2444 
Q 2734 2256 2734 1869 
L 2734 647 
Q 2734 375 2778 278 
Q 2813 200 2889 156 
Q 2966 113 3172 113 
L 3172 0 
L 1756 0 
L 1756 113 
L 1816 113 
Q 2016 113 2095 173 
Q 2175 234 2206 353 
Q 2219 400 2219 647 
L 2219 1819 
Q 2219 2209 2117 2386 
Q 2016 2563 1775 2563 
Q 1403 2563 1034 2156 
L 1034 647 
Q 1034 356 1069 288 
Q 1113 197 1189 155 
Q 1266 113 1500 113 
L 1500 0 
L 84 0 
L 84 113 
L 147 113 
Q 366 113 442 223 
Q 519 334 519 647 
L 519 1709 
Q 519 2225 495 2337 
Q 472 2450 423 2490 
Q 375 2531 294 2531 
Q 206 2531 84 2484 
L 38 2597 
L 900 2947 
L 1034 2947 
L 1034 2341 
z
" transform="scale(0.015625)"/>
      <path id="TimesNewRomanPSMT-75" d="M 2709 2863 
L 2709 1128 
Q 2709 631 2732 520 
Q 2756 409 2807 365 
Q 2859 322 2928 322 
Q 3025 322 3147 375 
L 3191 266 
L 2334 -88 
L 2194 -88 
L 2194 519 
Q 1825 119 1631 15 
Q 1438 -88 1222 -88 
Q 981 -88 804 51 
Q 628 191 559 409 
Q 491 628 491 1028 
L 491 2306 
Q 491 2509 447 2587 
Q 403 2666 317 2708 
Q 231 2750 6 2747 
L 6 2863 
L 1009 2863 
L 1009 947 
Q 1009 547 1148 422 
Q 1288 297 1484 297 
Q 1619 297 1789 381 
Q 1959 466 2194 703 
L 2194 2325 
Q 2194 2569 2105 2655 
Q 2016 2741 1734 2747 
L 1734 2863 
L 2709 2863 
z
" transform="scale(0.015625)"/>
      <path id="TimesNewRomanPSMT-77" d="M 41 2863 
L 1241 2863 
L 1241 2747 
Q 1075 2734 1023 2687 
Q 972 2641 972 2553 
Q 972 2456 1025 2319 
L 1638 672 
L 2253 2013 
L 2091 2434 
Q 2016 2622 1894 2694 
Q 1825 2738 1638 2747 
L 1638 2863 
L 3000 2863 
L 3000 2747 
Q 2775 2738 2681 2666 
Q 2619 2616 2619 2506 
Q 2619 2444 2644 2378 
L 3294 734 
L 3897 2319 
Q 3959 2488 3959 2588 
Q 3959 2647 3898 2694 
Q 3838 2741 3659 2747 
L 3659 2863 
L 4563 2863 
L 4563 2747 
Q 4291 2706 4163 2378 
L 3206 -88 
L 3078 -88 
L 2363 1741 
L 1528 -88 
L 1413 -88 
L 494 2319 
Q 403 2547 315 2626 
Q 228 2706 41 2747 
L 41 2863 
z
" transform="scale(0.015625)"/>
      <path id="TimesNewRomanPSMT-6b" d="M 1047 4444 
L 1047 1597 
L 1775 2259 
Q 2006 2472 2044 2528 
Q 2069 2566 2069 2603 
Q 2069 2666 2017 2711 
Q 1966 2756 1847 2763 
L 1847 2863 
L 3091 2863 
L 3091 2763 
Q 2834 2756 2664 2684 
Q 2494 2613 2291 2428 
L 1556 1750 
L 2291 822 
Q 2597 438 2703 334 
Q 2853 188 2966 144 
Q 3044 113 3238 113 
L 3238 0 
L 1847 0 
L 1847 113 
Q 1966 116 2008 148 
Q 2050 181 2050 241 
Q 2050 313 1925 472 
L 1047 1594 
L 1047 644 
Q 1047 366 1086 278 
Q 1125 191 1197 153 
Q 1269 116 1509 113 
L 1509 0 
L 53 0 
L 53 113 
Q 272 113 381 166 
Q 447 200 481 272 
Q 528 375 528 628 
L 528 3234 
Q 528 3731 506 3842 
Q 484 3953 434 3995 
Q 384 4038 303 4038 
Q 238 4038 106 3984 
L 53 4094 
L 903 4444 
L 1047 4444 
z
" transform="scale(0.015625)"/>
     </defs>
     <use xlink:href="#DejaVuSerif-Italic-3bc" transform="translate(0 0.015625)"/>
     <use xlink:href="#TimesNewRomanPSMT-57" transform="translate(64.990234 0.015625)"/>
     <use xlink:href="#TimesNewRomanPSMT-20" transform="translate(159.375 0.015625)"/>
     <use xlink:href="#TimesNewRomanPSMT-76" transform="translate(184.375 0.015625)"/>
     <use xlink:href="#TimesNewRomanPSMT-73" transform="translate(234.375 0.015625)"/>
     <use xlink:href="#TimesNewRomanPSMT-2e" transform="translate(273.291016 0.015625)"/>
     <use xlink:href="#TimesNewRomanPSMT-20" transform="translate(298.291016 0.015625)"/>
     <use xlink:href="#DejaVuSerif-Italic-70" transform="translate(323.291016 0.015625)"/>
     <use xlink:href="#DejaVuSerif-Italic-71" transform="translate(387.304688 0.015625)"/>
     <use xlink:href="#DejaVuSerif-Italic-69" transform="translate(451.318359 0.015625)"/>
     <use xlink:href="#DejaVuSerif-Italic-66" transform="translate(483.300781 0.015625)"/>
     <use xlink:href="#TimesNewRomanPSMT-20" transform="translate(520.3125 0.015625)"/>
     <use xlink:href="#TimesNewRomanPSMT-66" transform="translate(545.3125 0.015625)"/>
     <use xlink:href="#TimesNewRomanPSMT-6f" transform="translate(578.613281 0.015625)"/>
     <use xlink:href="#TimesNewRomanPSMT-72" transform="translate(628.613281 0.015625)"/>
     <use xlink:href="#TimesNewRomanPSMT-20" transform="translate(661.914062 0.015625)"/>
     <use xlink:href="#TimesNewRomanPSMT-68" transform="translate(686.914062 0.015625)"/>
     <use xlink:href="#TimesNewRomanPSMT-65" transform="translate(736.914062 0.015625)"/>
     <use xlink:href="#TimesNewRomanPSMT-74" transform="translate(781.298828 0.015625)"/>
     <use xlink:href="#TimesNewRomanPSMT-65" transform="translate(809.082031 0.015625)"/>
     <use xlink:href="#TimesNewRomanPSMT-72" transform="translate(853.466797 0.015625)"/>
     <use xlink:href="#TimesNewRomanPSMT-6f" transform="translate(886.767578 0.015625)"/>
     <use xlink:href="#TimesNewRomanPSMT-67" transform="translate(936.767578 0.015625)"/>
     <use xlink:href="#TimesNewRomanPSMT-65" transform="translate(986.767578 0.015625)"/>
     <use xlink:href="#TimesNewRomanPSMT-6e" transform="translate(1031.152344 0.015625)"/>
     <use xlink:href="#TimesNewRomanPSMT-6f" transform="translate(1081.152344 0.015625)"/>
     <use xlink:href="#TimesNewRomanPSMT-75" transform="translate(1131.152344 0.015625)"/>
     <use xlink:href="#TimesNewRomanPSMT-73" transform="translate(1181.152344 0.015625)"/>
     <use xlink:href="#TimesNewRomanPSMT-20" transform="translate(1220.068359 0.015625)"/>
     <use xlink:href="#TimesNewRomanPSMT-6e" transform="translate(1245.068359 0.015625)"/>
     <use xlink:href="#TimesNewRomanPSMT-65" transform="translate(1295.068359 0.015625)"/>
     <use xlink:href="#TimesNewRomanPSMT-74" transform="translate(1339.453125 0.015625)"/>
     <use xlink:href="#TimesNewRomanPSMT-77" transform="translate(1367.236328 0.015625)"/>
     <use xlink:href="#TimesNewRomanPSMT-6f" transform="translate(1439.453125 0.015625)"/>
     <use xlink:href="#TimesNewRomanPSMT-72" transform="translate(1489.453125 0.015625)"/>
     <use xlink:href="#TimesNewRomanPSMT-6b" transform="translate(1522.753906 0.015625)"/>
     <use xlink:href="#TimesNewRomanPSMT-73" transform="translate(1572.753906 0.015625)"/>
    </g>
    <!-- Oscillations &amp; Sequences -->
    <g transform="translate(214.141875 28.959) scale(0.12 -0.12)">
     <defs>
      <path id="TimesNewRomanPSMT-4f" d="M 2341 4334 
Q 3166 4334 3770 3707 
Q 4375 3081 4375 2144 
Q 4375 1178 3765 540 
Q 3156 -97 2291 -97 
Q 1416 -97 820 525 
Q 225 1147 225 2134 
Q 225 3144 913 3781 
Q 1509 4334 2341 4334 
z
M 2281 4106 
Q 1713 4106 1369 3684 
Q 941 3159 941 2147 
Q 941 1109 1384 550 
Q 1725 125 2284 125 
Q 2881 125 3270 590 
Q 3659 1056 3659 2059 
Q 3659 3147 3231 3681 
Q 2888 4106 2281 4106 
z
" transform="scale(0.015625)"/>
      <path id="TimesNewRomanPSMT-63" d="M 2631 1088 
Q 2516 522 2178 217 
Q 1841 -88 1431 -88 
Q 944 -88 581 321 
Q 219 731 219 1428 
Q 219 2103 620 2525 
Q 1022 2947 1584 2947 
Q 2006 2947 2278 2723 
Q 2550 2500 2550 2259 
Q 2550 2141 2473 2067 
Q 2397 1994 2259 1994 
Q 2075 1994 1981 2113 
Q 1928 2178 1911 2362 
Q 1894 2547 1784 2644 
Q 1675 2738 1481 2738 
Q 1169 2738 978 2506 
Q 725 2200 725 1697 
Q 725 1184 976 792 
Q 1228 400 1656 400 
Q 1963 400 2206 609 
Q 2378 753 2541 1131 
L 2631 1088 
z
" transform="scale(0.015625)"/>
      <path id="TimesNewRomanPSMT-69" d="M 928 4444 
Q 1059 4444 1151 4351 
Q 1244 4259 1244 4128 
Q 1244 3997 1151 3903 
Q 1059 3809 928 3809 
Q 797 3809 703 3903 
Q 609 3997 609 4128 
Q 609 4259 701 4351 
Q 794 4444 928 4444 
z
M 1188 2947 
L 1188 647 
Q 1188 378 1227 289 
Q 1266 200 1342 156 
Q 1419 113 1622 113 
L 1622 0 
L 231 0 
L 231 113 
Q 441 113 512 153 
Q 584 194 626 287 
Q 669 381 669 647 
L 669 1750 
Q 669 2216 641 2353 
Q 619 2453 572 2492 
Q 525 2531 444 2531 
Q 356 2531 231 2484 
L 188 2597 
L 1050 2947 
L 1188 2947 
z
" transform="scale(0.015625)"/>
      <path id="TimesNewRomanPSMT-6c" d="M 1184 4444 
L 1184 647 
Q 1184 378 1223 290 
Q 1263 203 1344 158 
Q 1425 113 1647 113 
L 1647 0 
L 244 0 
L 244 113 
Q 441 113 512 153 
Q 584 194 625 287 
Q 666 381 666 647 
L 666 3247 
Q 666 3731 644 3842 
Q 622 3953 573 3993 
Q 525 4034 450 4034 
Q 369 4034 244 3984 
L 191 4094 
L 1044 4444 
L 1184 4444 
z
" transform="scale(0.015625)"/>
      <path id="TimesNewRomanPSMT-61" d="M 1822 413 
Q 1381 72 1269 19 
Q 1100 -59 909 -59 
Q 613 -59 420 144 
Q 228 347 228 678 
Q 228 888 322 1041 
Q 450 1253 767 1440 
Q 1084 1628 1822 1897 
L 1822 2009 
Q 1822 2438 1686 2597 
Q 1550 2756 1291 2756 
Q 1094 2756 978 2650 
Q 859 2544 859 2406 
L 866 2225 
Q 866 2081 792 2003 
Q 719 1925 600 1925 
Q 484 1925 411 2006 
Q 338 2088 338 2228 
Q 338 2497 613 2722 
Q 888 2947 1384 2947 
Q 1766 2947 2009 2819 
Q 2194 2722 2281 2516 
Q 2338 2381 2338 1966 
L 2338 994 
Q 2338 584 2353 492 
Q 2369 400 2405 369 
Q 2441 338 2488 338 
Q 2538 338 2575 359 
Q 2641 400 2828 588 
L 2828 413 
Q 2478 -56 2159 -56 
Q 2006 -56 1915 50 
Q 1825 156 1822 413 
z
M 1822 616 
L 1822 1706 
Q 1350 1519 1213 1441 
Q 966 1303 859 1153 
Q 753 1003 753 825 
Q 753 600 887 451 
Q 1022 303 1197 303 
Q 1434 303 1822 616 
z
" transform="scale(0.015625)"/>
      <path id="TimesNewRomanPSMT-26" d="M 3266 2728 
L 4578 2728 
L 4578 2613 
Q 4306 2591 4176 2492 
Q 4047 2394 3772 1897 
Q 3497 1400 3153 969 
Q 3431 644 3650 514 
Q 3869 384 4091 384 
Q 4306 384 4456 501 
Q 4606 619 4669 847 
L 4784 763 
Q 4669 322 4412 112 
Q 4156 -97 3816 -97 
Q 3559 -97 3295 42 
Q 3031 181 2719 513 
Q 2331 169 2020 36 
Q 1709 -97 1356 -97 
Q 841 -97 537 178 
Q 234 453 234 834 
Q 234 1213 506 1589 
Q 778 1966 1528 2369 
Q 1381 2694 1328 2901 
Q 1275 3109 1275 3300 
Q 1275 3834 1669 4116 
Q 1975 4334 2366 4334 
Q 2738 4334 2972 4114 
Q 3206 3894 3206 3572 
Q 3206 3241 2979 2991 
Q 2753 2741 2178 2444 
Q 2575 1738 3006 1150 
Q 3556 1806 3556 2256 
Q 3556 2400 3463 2513 
Q 3394 2597 3266 2613 
L 3266 2728 
z
M 2072 2647 
Q 2459 2831 2651 3065 
Q 2844 3300 2844 3588 
Q 2844 3813 2705 3959 
Q 2566 4106 2359 4106 
Q 2088 4106 1948 3917 
Q 1809 3728 1809 3547 
Q 1809 3394 1862 3205 
Q 1916 3016 2072 2647 
z
M 2556 694 
Q 2144 1256 1984 1515 
Q 1825 1775 1634 2159 
Q 1259 1944 1070 1684 
Q 881 1425 881 1122 
Q 881 788 1097 534 
Q 1313 281 1678 281 
Q 1875 281 2058 359 
Q 2241 438 2556 694 
z
" transform="scale(0.015625)"/>
      <path id="TimesNewRomanPSMT-53" d="M 2934 4334 
L 2934 2869 
L 2819 2869 
Q 2763 3291 2617 3541 
Q 2472 3791 2203 3937 
Q 1934 4084 1647 4084 
Q 1322 4084 1109 3886 
Q 897 3688 897 3434 
Q 897 3241 1031 3081 
Q 1225 2847 1953 2456 
Q 2547 2138 2764 1967 
Q 2981 1797 3098 1565 
Q 3216 1334 3216 1081 
Q 3216 600 2842 251 
Q 2469 -97 1881 -97 
Q 1697 -97 1534 -69 
Q 1438 -53 1133 45 
Q 828 144 747 144 
Q 669 144 623 97 
Q 578 50 556 -97 
L 441 -97 
L 441 1356 
L 556 1356 
Q 638 900 775 673 
Q 913 447 1195 297 
Q 1478 147 1816 147 
Q 2206 147 2432 353 
Q 2659 559 2659 841 
Q 2659 997 2573 1156 
Q 2488 1316 2306 1453 
Q 2184 1547 1640 1851 
Q 1097 2156 867 2337 
Q 638 2519 519 2737 
Q 400 2956 400 3219 
Q 400 3675 750 4004 
Q 1100 4334 1641 4334 
Q 1978 4334 2356 4169 
Q 2531 4091 2603 4091 
Q 2684 4091 2736 4139 
Q 2788 4188 2819 4334 
L 2934 4334 
z
" transform="scale(0.015625)"/>
      <path id="TimesNewRomanPSMT-71" d="M 2734 2947 
L 2734 -734 
Q 2734 -1009 2771 -1087 
Q 2809 -1166 2889 -1209 
Q 2969 -1253 3200 -1253 
L 3200 -1369 
L 1756 -1369 
L 1756 -1253 
L 1816 -1253 
Q 1991 -1253 2081 -1203 
Q 2144 -1169 2181 -1080 
Q 2219 -991 2219 -734 
L 2219 497 
Q 1934 159 1721 35 
Q 1509 -88 1281 -88 
Q 866 -88 539 290 
Q 213 669 213 1303 
Q 213 2031 644 2489 
Q 1075 2947 1684 2947 
Q 1863 2947 2013 2897 
Q 2163 2847 2281 2747 
Q 2463 2834 2628 2947 
L 2734 2947 
z
M 2219 694 
L 2219 2038 
Q 2219 2272 2158 2406 
Q 2097 2541 1940 2634 
Q 1784 2728 1588 2728 
Q 1238 2728 988 2431 
Q 738 2134 738 1531 
Q 738 953 992 653 
Q 1247 353 1606 353 
Q 1791 353 1934 433 
Q 2078 513 2219 694 
z
" transform="scale(0.015625)"/>
     </defs>
     <use xlink:href="#TimesNewRomanPSMT-4f"/>
     <use xlink:href="#TimesNewRomanPSMT-73" transform="translate(72.216797 0)"/>
     <use xlink:href="#TimesNewRomanPSMT-63" transform="translate(111.132812 0)"/>
     <use xlink:href="#TimesNewRomanPSMT-69" transform="translate(155.517578 0)"/>
     <use xlink:href="#TimesNewRomanPSMT-6c" transform="translate(183.300781 0)"/>
     <use xlink:href="#TimesNewRomanPSMT-6c" transform="translate(211.083984 0)"/>
     <use xlink:href="#TimesNewRomanPSMT-61" transform="translate(238.867188 0)"/>
     <use xlink:href="#TimesNewRomanPSMT-74" transform="translate(283.251953 0)"/>
     <use xlink:href="#TimesNewRomanPSMT-69" transform="translate(311.035156 0)"/>
     <use xlink:href="#TimesNewRomanPSMT-6f" transform="translate(338.818359 0)"/>
     <use xlink:href="#TimesNewRomanPSMT-6e" transform="translate(388.818359 0)"/>
     <use xlink:href="#TimesNewRomanPSMT-73" transform="translate(438.818359 0)"/>
     <use xlink:href="#TimesNewRomanPSMT-20" transform="translate(477.734375 0)"/>
     <use xlink:href="#TimesNewRomanPSMT-26" transform="translate(502.734375 0)"/>
     <use xlink:href="#TimesNewRomanPSMT-20" transform="translate(580.517578 0)"/>
     <use xlink:href="#TimesNewRomanPSMT-53" transform="translate(605.517578 0)"/>
     <use xlink:href="#TimesNewRomanPSMT-65" transform="translate(661.132812 0)"/>
     <use xlink:href="#TimesNewRomanPSMT-71" transform="translate(705.517578 0)"/>
     <use xlink:href="#TimesNewRomanPSMT-75" transform="translate(755.517578 0)"/>
     <use xlink:href="#TimesNewRomanPSMT-65" transform="translate(805.517578 0)"/>
     <use xlink:href="#TimesNewRomanPSMT-6e" transform="translate(849.902344 0)"/>
     <use xlink:href="#TimesNewRomanPSMT-63" transform="translate(899.902344 0)"/>
     <use xlink:href="#TimesNewRomanPSMT-65" transform="translate(944.287109 0)"/>
     <use xlink:href="#TimesNewRomanPSMT-73" transform="translate(988.671875 0)"/>
    </g>
   </g>
   <g id="legend_1">
    <g id="patch_7">
     <path d="M 406.599375 257.994562 
L 490.599375 257.994562 
Q 492.999375 257.994562 492.999375 255.594562 
L 492.999375 146.963437 
Q 492.999375 144.563437 490.599375 144.563437 
L 406.599375 144.563437 
Q 404.199375 144.563437 404.199375 146.963437 
L 404.199375 255.594562 
Q 404.199375 257.994562 406.599375 257.994562 
z
" style="fill: #ffffff; opacity: 0.8; stroke: #cccccc; stroke-linejoin: miter"/>
    </g>
    <g id="LineCollection_11">
     <path d="M 420.999375 167.062312 
L 420.999375 155.062312 
" style="fill: none; stroke: #67000d; stroke-width: 1.5"/>
    </g>
    <g id="line2d_51">
     <g>
      <use xlink:href="#mecded05e56" x="420.999375" y="167.062312" style="fill: #67000d; stroke: #67000d"/>
     </g>
    </g>
    <g id="line2d_52">
     <g>
      <use xlink:href="#mecded05e56" x="420.999375" y="155.062312" style="fill: #67000d; stroke: #67000d"/>
     </g>
    </g>
    <g id="line2d_53"/>
    <g id="line2d_54">
     <g>
      <use xlink:href="#m992f196265" x="420.999375" y="161.062312" style="fill: #67000d; stroke: #67000d"/>
     </g>
    </g>
    <g id="text_14">
     <!-- LIF -->
     <g transform="translate(442.599375 157.695937) scale(0.12 -0.12)">
      <use xlink:href="#TimesNewRomanPSMT-4c"/>
      <use xlink:href="#TimesNewRomanPSMT-49" transform="translate(61.083984 0)"/>
      <use xlink:href="#TimesNewRomanPSMT-46" transform="translate(94.384766 0)"/>
     </g>
     <!-- $F'$=14.44 -->
     <g transform="translate(442.599375 170.261812) scale(0.12 -0.12)">
      <defs>
       <path id="DejaVuSerif-Italic-46" d="M -97 0 
L -34 331 
L 559 331 
L 1338 4331 
L 744 4331 
L 809 4666 
L 4628 4666 
L 4428 3628 
L 4044 3628 
L 4169 4281 
L 1963 4281 
L 1659 2719 
L 3253 2719 
L 3366 3303 
L 3750 3303 
L 3450 1753 
L 3066 1753 
L 3178 2338 
L 1584 2338 
L 1194 331 
L 1941 331 
L 1878 0 
L -97 0 
z
" transform="scale(0.015625)"/>
       <path id="Cmsy10-30" d="M 225 347 
Q 184 359 184 409 
L 966 3316 
Q 1003 3434 1093 3506 
Q 1184 3578 1300 3578 
Q 1450 3578 1564 3479 
Q 1678 3381 1678 3231 
Q 1678 3166 1644 3084 
L 488 319 
Q 466 275 428 275 
Q 394 275 320 306 
Q 247 338 225 347 
z
" transform="scale(0.015625)"/>
       <path id="TimesNewRomanPSMT-3d" d="M 116 2759 
L 3488 2759 
L 3488 2503 
L 116 2503 
L 116 2759 
z
M 116 1741 
L 3488 1741 
L 3488 1484 
L 116 1484 
L 116 1741 
z
" transform="scale(0.015625)"/>
       <path id="TimesNewRomanPSMT-34" d="M 2978 1563 
L 2978 1119 
L 2409 1119 
L 2409 0 
L 1894 0 
L 1894 1119 
L 100 1119 
L 100 1519 
L 2066 4325 
L 2409 4325 
L 2409 1563 
L 2978 1563 
z
M 1894 1563 
L 1894 3666 
L 406 1563 
L 1894 1563 
z
" transform="scale(0.015625)"/>
      </defs>
      <use xlink:href="#DejaVuSerif-Italic-46" transform="translate(0 0.53125)"/>
      <use xlink:href="#Cmsy10-30" transform="translate(76.563776 36.865625) scale(0.7)"/>
      <use xlink:href="#TimesNewRomanPSMT-3d" transform="translate(98.402253 0.53125)"/>
      <use xlink:href="#TimesNewRomanPSMT-31" transform="translate(154.798737 0.53125)"/>
      <use xlink:href="#TimesNewRomanPSMT-34" transform="translate(204.798737 0.53125)"/>
      <use xlink:href="#TimesNewRomanPSMT-2e" transform="translate(254.798737 0.53125)"/>
      <use xlink:href="#TimesNewRomanPSMT-34" transform="translate(279.798737 0.53125)"/>
      <use xlink:href="#TimesNewRomanPSMT-34" transform="translate(329.798737 0.53125)"/>
     </g>
    </g>
    <g id="LineCollection_12">
     <path d="M 420.999375 189.028687 
L 420.999375 177.028687 
" style="fill: none; stroke: #ca181d; stroke-width: 1.5"/>
    </g>
    <g id="line2d_55">
     <g>
      <use xlink:href="#mbcc477d3b2" x="420.999375" y="189.028687" style="fill: #ca181d; stroke: #ca181d"/>
     </g>
    </g>
    <g id="line2d_56">
     <g>
      <use xlink:href="#mbcc477d3b2" x="420.999375" y="177.028687" style="fill: #ca181d; stroke: #ca181d"/>
     </g>
    </g>
    <g id="line2d_57"/>
    <g id="line2d_58">
     <g>
      <use xlink:href="#m3c3485ef34" x="420.999375" y="183.028687" style="fill: #ca181d; stroke: #ca181d"/>
     </g>
    </g>
    <g id="text_15">
     <!-- $F'$=10.68 -->
     <g transform="translate(442.599375 187.228687) scale(0.12 -0.12)">
      <defs>
       <path id="TimesNewRomanPSMT-36" d="M 2869 4325 
L 2869 4209 
Q 2456 4169 2195 4045 
Q 1934 3922 1679 3669 
Q 1425 3416 1258 3105 
Q 1091 2794 978 2366 
Q 1428 2675 1881 2675 
Q 2316 2675 2634 2325 
Q 2953 1975 2953 1425 
Q 2953 894 2631 456 
Q 2244 -75 1606 -75 
Q 1172 -75 869 213 
Q 275 772 275 1663 
Q 275 2231 503 2743 
Q 731 3256 1154 3653 
Q 1578 4050 1965 4187 
Q 2353 4325 2688 4325 
L 2869 4325 
z
M 925 2138 
Q 869 1716 869 1456 
Q 869 1156 980 804 
Q 1091 453 1309 247 
Q 1469 100 1697 100 
Q 1969 100 2183 356 
Q 2397 613 2397 1088 
Q 2397 1622 2184 2012 
Q 1972 2403 1581 2403 
Q 1463 2403 1327 2353 
Q 1191 2303 925 2138 
z
" transform="scale(0.015625)"/>
       <path id="TimesNewRomanPSMT-38" d="M 1228 2134 
Q 725 2547 579 2797 
Q 434 3047 434 3316 
Q 434 3728 753 4026 
Q 1072 4325 1600 4325 
Q 2113 4325 2425 4047 
Q 2738 3769 2738 3413 
Q 2738 3175 2569 2928 
Q 2400 2681 1866 2347 
Q 2416 1922 2594 1678 
Q 2831 1359 2831 1006 
Q 2831 559 2490 242 
Q 2150 -75 1597 -75 
Q 994 -75 656 303 
Q 388 606 388 966 
Q 388 1247 577 1523 
Q 766 1800 1228 2134 
z
M 1719 2469 
Q 2094 2806 2194 3001 
Q 2294 3197 2294 3444 
Q 2294 3772 2109 3958 
Q 1925 4144 1606 4144 
Q 1288 4144 1088 3959 
Q 888 3775 888 3528 
Q 888 3366 970 3203 
Q 1053 3041 1206 2894 
L 1719 2469 
z
M 1375 2016 
Q 1116 1797 991 1539 
Q 866 1281 866 981 
Q 866 578 1086 336 
Q 1306 94 1647 94 
Q 1984 94 2187 284 
Q 2391 475 2391 747 
Q 2391 972 2272 1150 
Q 2050 1481 1375 2016 
z
" transform="scale(0.015625)"/>
      </defs>
      <use xlink:href="#DejaVuSerif-Italic-46" transform="translate(0 0.53125)"/>
      <use xlink:href="#Cmsy10-30" transform="translate(76.563776 36.865625) scale(0.7)"/>
      <use xlink:href="#TimesNewRomanPSMT-3d" transform="translate(98.402253 0.53125)"/>
      <use xlink:href="#TimesNewRomanPSMT-31" transform="translate(154.798737 0.53125)"/>
      <use xlink:href="#TimesNewRomanPSMT-30" transform="translate(204.798737 0.53125)"/>
      <use xlink:href="#TimesNewRomanPSMT-2e" transform="translate(254.798737 0.53125)"/>
      <use xlink:href="#TimesNewRomanPSMT-36" transform="translate(279.798737 0.53125)"/>
      <use xlink:href="#TimesNewRomanPSMT-38" transform="translate(329.798737 0.53125)"/>
     </g>
    </g>
    <g id="LineCollection_13">
     <path d="M 420.999375 205.995562 
L 420.999375 193.995562 
" style="fill: none; stroke: #fb694a; stroke-width: 1.5"/>
    </g>
    <g id="line2d_59">
     <g>
      <use xlink:href="#med59c79dcc" x="420.999375" y="205.995562" style="fill: #fb694a; stroke: #fb694a"/>
     </g>
    </g>
    <g id="line2d_60">
     <g>
      <use xlink:href="#med59c79dcc" x="420.999375" y="193.995562" style="fill: #fb694a; stroke: #fb694a"/>
     </g>
    </g>
    <g id="line2d_61"/>
    <g id="line2d_62">
     <g>
      <use xlink:href="#med81e405a4" x="420.999375" y="199.995562" style="fill: #fb694a; stroke: #fb694a"/>
     </g>
    </g>
    <g id="text_16">
     <!-- $F'$=8.65 -->
     <g transform="translate(442.599375 204.195562) scale(0.12 -0.12)">
      <use xlink:href="#DejaVuSerif-Italic-46" transform="translate(0 0.53125)"/>
      <use xlink:href="#Cmsy10-30" transform="translate(76.563776 36.865625) scale(0.7)"/>
      <use xlink:href="#TimesNewRomanPSMT-3d" transform="translate(98.402253 0.53125)"/>
      <use xlink:href="#TimesNewRomanPSMT-38" transform="translate(154.798737 0.53125)"/>
      <use xlink:href="#TimesNewRomanPSMT-2e" transform="translate(204.798737 0.53125)"/>
      <use xlink:href="#TimesNewRomanPSMT-36" transform="translate(229.798737 0.53125)"/>
      <use xlink:href="#TimesNewRomanPSMT-35" transform="translate(279.798737 0.53125)"/>
     </g>
    </g>
    <g id="LineCollection_14">
     <path d="M 420.999375 222.962437 
L 420.999375 210.962437 
" style="fill: none; stroke: #fcbba1; stroke-width: 1.5"/>
    </g>
    <g id="line2d_63">
     <g>
      <use xlink:href="#mc6ec63f21a" x="420.999375" y="222.962437" style="fill: #fcbba1; stroke: #fcbba1"/>
     </g>
    </g>
    <g id="line2d_64">
     <g>
      <use xlink:href="#mc6ec63f21a" x="420.999375" y="210.962437" style="fill: #fcbba1; stroke: #fcbba1"/>
     </g>
    </g>
    <g id="line2d_65"/>
    <g id="line2d_66">
     <g>
      <use xlink:href="#m4e9ffbac72" x="420.999375" y="216.962437" style="fill: #fcbba1; stroke: #fcbba1"/>
     </g>
    </g>
    <g id="text_17">
     <!-- $F'$=7.18 -->
     <g transform="translate(442.599375 221.162437) scale(0.12 -0.12)">
      <use xlink:href="#DejaVuSerif-Italic-46" transform="translate(0 0.53125)"/>
      <use xlink:href="#Cmsy10-30" transform="translate(76.563776 36.865625) scale(0.7)"/>
      <use xlink:href="#TimesNewRomanPSMT-3d" transform="translate(98.402253 0.53125)"/>
      <use xlink:href="#TimesNewRomanPSMT-37" transform="translate(154.798737 0.53125)"/>
      <use xlink:href="#TimesNewRomanPSMT-2e" transform="translate(204.798737 0.53125)"/>
      <use xlink:href="#TimesNewRomanPSMT-31" transform="translate(229.798737 0.53125)"/>
      <use xlink:href="#TimesNewRomanPSMT-38" transform="translate(279.798737 0.53125)"/>
     </g>
    </g>
    <g id="LineCollection_15">
     <path d="M 420.999375 247.428187 
L 420.999375 235.428187 
" style="fill: none; stroke: #4682b4; stroke-width: 1.5"/>
    </g>
    <g id="line2d_67">
     <g>
      <use xlink:href="#mb02b3bbe72" x="420.999375" y="247.428187" style="fill: #4682b4; stroke: #4682b4"/>
     </g>
    </g>
    <g id="line2d_68">
     <g>
      <use xlink:href="#mb02b3bbe72" x="420.999375" y="235.428187" style="fill: #4682b4; stroke: #4682b4"/>
     </g>
    </g>
    <g id="line2d_69"/>
    <g id="line2d_70">
     <g>
      <use xlink:href="#m03387824b0" x="420.999375" y="241.428187" style="fill: #4682b4; stroke: #4682b4"/>
     </g>
    </g>
    <g id="text_18">
     <!-- QIF -->
     <g transform="translate(442.599375 238.061812) scale(0.12 -0.12)">
      <use xlink:href="#TimesNewRomanPSMT-51"/>
      <use xlink:href="#TimesNewRomanPSMT-49" transform="translate(72.216797 0)"/>
      <use xlink:href="#TimesNewRomanPSMT-46" transform="translate(105.517578 0)"/>
     </g>
     <!-- $F'$=10.74 -->
     <g transform="translate(442.599375 250.627687) scale(0.12 -0.12)">
      <use xlink:href="#DejaVuSerif-Italic-46" transform="translate(0 0.53125)"/>
      <use xlink:href="#Cmsy10-30" transform="translate(76.563776 36.865625) scale(0.7)"/>
      <use xlink:href="#TimesNewRomanPSMT-3d" transform="translate(98.402253 0.53125)"/>
      <use xlink:href="#TimesNewRomanPSMT-31" transform="translate(154.798737 0.53125)"/>
      <use xlink:href="#TimesNewRomanPSMT-30" transform="translate(204.798737 0.53125)"/>
      <use xlink:href="#TimesNewRomanPSMT-2e" transform="translate(254.798737 0.53125)"/>
      <use xlink:href="#TimesNewRomanPSMT-37" transform="translate(279.798737 0.53125)"/>
      <use xlink:href="#TimesNewRomanPSMT-34" transform="translate(329.798737 0.53125)"/>
     </g>
    </g>
   </g>
  </g>
 </g>
 <defs>
  <clipPath id="p37b434ad52">
   <rect x="52.599375" y="34.959" width="446.4" height="332.64"/>
  </clipPath>
 </defs>
</svg>
