<?xml version="1.0" encoding="utf-8" standalone="no"?>
<!DOCTYPE svg PUBLIC "-//W3C//DTD SVG 1.1//EN"
  "http://www.w3.org/Graphics/SVG/1.1/DTD/svg11.dtd">
<svg xmlns:xlink="http://www.w3.org/1999/xlink" width="943.107943pt" height="598.12125pt" viewBox="0 0 943.107943 598.12125" xmlns="http://www.w3.org/2000/svg" version="1.1">
 <metadata>
  <rdf:RDF xmlns:dc="http://purl.org/dc/elements/1.1/" xmlns:cc="http://creativecommons.org/ns#" xmlns:rdf="http://www.w3.org/1999/02/22-rdf-syntax-ns#">
   <cc:Work>
    <dc:type rdf:resource="http://purl.org/dc/dcmitype/StillImage"/>
    <dc:date>2026-01-26T13:14:17.720323</dc:date>
    <dc:format>image/svg+xml</dc:format>
    <dc:creator>
     <cc:Agent>
      <dc:title>Matplotlib v3.10.5, https://matplotlib.org/</dc:title>
     </cc:Agent>
    </dc:creator>
   </cc:Work>
  </rdf:RDF>
 </metadata>
 <defs>
  <style type="text/css">*{stroke-linejoin: round; stroke-linecap: butt}</style>
 </defs>
 <g id="figure_1">
  <g id="patch_1">
   <path d="M 0 598.12125 
L 943.107943 598.12125 
L 943.107943 0 
L 0 0 
z
" style="fill: #ffffff"/>
  </g>
  <g id="axes_1">
   <g id="patch_2">
    <path d="M 42.519375 561.6 
L 448.337557 561.6 
L 448.337557 7.2 
L 42.519375 7.2 
z
" style="fill: #ffffff"/>
   </g>
   <g id="matplotlib.axis_1">
    <g id="xtick_1">
     <g id="line2d_1">
      <defs>
       <path id="mcaa6979f02" d="M 0 0 
L 0 -3.5 
" style="stroke: #000000; stroke-width: 0.8"/>
      </defs>
      <g>
       <use xlink:href="#mcaa6979f02" x="52.759332" y="561.6" style="stroke: #000000; stroke-width: 0.8"/>
      </g>
     </g>
     <g id="text_1">
      <!-- −5 -->
      <g transform="translate(46.375894 573.4325) scale(0.12 -0.12)">
       <defs>
        <path id="TimesNewRomanPSMT-2212" d="M 3484 2000 
L 116 2000 
L 116 2256 
L 3484 2256 
L 3484 2000 
z
" transform="scale(0.015625)"/>
        <path id="TimesNewRomanPSMT-35" d="M 2778 4238 
L 2534 3706 
L 1259 3706 
L 981 3138 
Q 1809 3016 2294 2522 
Q 2709 2097 2709 1522 
Q 2709 1188 2573 903 
Q 2438 619 2231 419 
Q 2025 219 1772 97 
Q 1413 -75 1034 -75 
Q 653 -75 479 54 
Q 306 184 306 341 
Q 306 428 378 495 
Q 450 563 559 563 
Q 641 563 702 538 
Q 763 513 909 409 
Q 1144 247 1384 247 
Q 1750 247 2026 523 
Q 2303 800 2303 1197 
Q 2303 1581 2056 1914 
Q 1809 2247 1375 2428 
Q 1034 2569 447 2591 
L 1259 4238 
L 2778 4238 
z
" transform="scale(0.015625)"/>
       </defs>
       <use xlink:href="#TimesNewRomanPSMT-2212"/>
       <use xlink:href="#TimesNewRomanPSMT-35" transform="translate(56.396484 0)"/>
      </g>
     </g>
    </g>
    <g id="xtick_2">
     <g id="line2d_2">
      <g>
       <use xlink:href="#mcaa6979f02" x="250.548444" y="561.6" style="stroke: #000000; stroke-width: 0.8"/>
      </g>
     </g>
     <g id="text_2">
      <!-- 0 -->
      <g transform="translate(247.548444 573.4325) scale(0.12 -0.12)">
       <defs>
        <path id="TimesNewRomanPSMT-30" d="M 231 2094 
Q 231 2819 450 3342 
Q 669 3866 1031 4122 
Q 1313 4325 1613 4325 
Q 2100 4325 2488 3828 
Q 2972 3213 2972 2159 
Q 2972 1422 2759 906 
Q 2547 391 2217 158 
Q 1888 -75 1581 -75 
Q 975 -75 572 641 
Q 231 1244 231 2094 
z
M 844 2016 
Q 844 1141 1059 588 
Q 1238 122 1591 122 
Q 1759 122 1940 273 
Q 2122 425 2216 781 
Q 2359 1319 2359 2297 
Q 2359 3022 2209 3506 
Q 2097 3866 1919 4016 
Q 1791 4119 1609 4119 
Q 1397 4119 1231 3928 
Q 1006 3669 925 3112 
Q 844 2556 844 2016 
z
" transform="scale(0.015625)"/>
       </defs>
       <use xlink:href="#TimesNewRomanPSMT-30"/>
      </g>
     </g>
    </g>
    <g id="xtick_3">
     <g id="line2d_3">
      <g>
       <use xlink:href="#mcaa6979f02" x="448.337557" y="561.6" style="stroke: #000000; stroke-width: 0.8"/>
      </g>
     </g>
     <g id="text_3">
      <!-- 5 -->
      <g transform="translate(445.337557 573.4325) scale(0.12 -0.12)">
       <use xlink:href="#TimesNewRomanPSMT-35"/>
      </g>
     </g>
    </g>
    <g id="text_4">
     <!-- Weights -->
     <g transform="translate(225.912528 588.331875) scale(0.12 -0.12)">
      <defs>
       <path id="TimesNewRomanPSMT-57" d="M 5991 4238 
L 5991 4122 
Q 5825 4122 5722 4062 
Q 5619 4003 5525 3841 
Q 5463 3731 5328 3319 
L 4147 -97 
L 4022 -97 
L 3056 2613 
L 2097 -97 
L 1984 -97 
L 725 3422 
Q 584 3816 547 3888 
Q 484 4006 376 4064 
Q 269 4122 84 4122 
L 84 4238 
L 1653 4238 
L 1653 4122 
L 1578 4122 
Q 1413 4122 1325 4047 
Q 1238 3972 1238 3866 
Q 1238 3756 1375 3363 
L 2209 984 
L 2913 3006 
L 2788 3363 
L 2688 3647 
Q 2622 3803 2541 3922 
Q 2500 3981 2441 4022 
Q 2363 4078 2284 4103 
Q 2225 4122 2097 4122 
L 2097 4238 
L 3747 4238 
L 3747 4122 
L 3634 4122 
Q 3459 4122 3378 4047 
Q 3297 3972 3297 3844 
Q 3297 3684 3438 3288 
L 4250 984 
L 5056 3319 
Q 5194 3706 5194 3856 
Q 5194 3928 5148 3990 
Q 5103 4053 5034 4078 
Q 4916 4122 4725 4122 
L 4725 4238 
L 5991 4238 
z
" transform="scale(0.015625)"/>
       <path id="TimesNewRomanPSMT-65" d="M 681 1784 
Q 678 1147 991 784 
Q 1303 422 1725 422 
Q 2006 422 2214 576 
Q 2422 731 2563 1106 
L 2659 1044 
Q 2594 616 2278 264 
Q 1963 -88 1488 -88 
Q 972 -88 605 314 
Q 238 716 238 1394 
Q 238 2128 614 2539 
Q 991 2950 1559 2950 
Q 2041 2950 2350 2633 
Q 2659 2316 2659 1784 
L 681 1784 
z
M 681 1966 
L 2006 1966 
Q 1991 2241 1941 2353 
Q 1863 2528 1708 2628 
Q 1553 2728 1384 2728 
Q 1125 2728 920 2526 
Q 716 2325 681 1966 
z
" transform="scale(0.015625)"/>
       <path id="TimesNewRomanPSMT-69" d="M 928 4444 
Q 1059 4444 1151 4351 
Q 1244 4259 1244 4128 
Q 1244 3997 1151 3903 
Q 1059 3809 928 3809 
Q 797 3809 703 3903 
Q 609 3997 609 4128 
Q 609 4259 701 4351 
Q 794 4444 928 4444 
z
M 1188 2947 
L 1188 647 
Q 1188 378 1227 289 
Q 1266 200 1342 156 
Q 1419 113 1622 113 
L 1622 0 
L 231 0 
L 231 113 
Q 441 113 512 153 
Q 584 194 626 287 
Q 669 381 669 647 
L 669 1750 
Q 669 2216 641 2353 
Q 619 2453 572 2492 
Q 525 2531 444 2531 
Q 356 2531 231 2484 
L 188 2597 
L 1050 2947 
L 1188 2947 
z
" transform="scale(0.015625)"/>
       <path id="TimesNewRomanPSMT-67" d="M 966 1044 
Q 703 1172 562 1401 
Q 422 1631 422 1909 
Q 422 2334 742 2640 
Q 1063 2947 1563 2947 
Q 1972 2947 2272 2747 
L 2878 2747 
Q 3013 2747 3034 2739 
Q 3056 2731 3066 2713 
Q 3084 2684 3084 2613 
Q 3084 2531 3069 2500 
Q 3059 2484 3036 2475 
Q 3013 2466 2878 2466 
L 2506 2466 
Q 2681 2241 2681 1891 
Q 2681 1491 2375 1206 
Q 2069 922 1553 922 
Q 1341 922 1119 984 
Q 981 866 932 777 
Q 884 688 884 625 
Q 884 572 936 522 
Q 988 472 1138 450 
Q 1225 438 1575 428 
Q 2219 413 2409 384 
Q 2700 344 2873 169 
Q 3047 -6 3047 -263 
Q 3047 -616 2716 -925 
Q 2228 -1381 1444 -1381 
Q 841 -1381 425 -1109 
Q 191 -953 191 -784 
Q 191 -709 225 -634 
Q 278 -519 444 -313 
Q 466 -284 763 25 
Q 600 122 533 198 
Q 466 275 466 372 
Q 466 481 555 628 
Q 644 775 966 1044 
z
M 1509 2797 
Q 1278 2797 1122 2612 
Q 966 2428 966 2047 
Q 966 1553 1178 1281 
Q 1341 1075 1591 1075 
Q 1828 1075 1981 1253 
Q 2134 1431 2134 1813 
Q 2134 2309 1919 2591 
Q 1759 2797 1509 2797 
z
M 934 0 
Q 788 -159 713 -296 
Q 638 -434 638 -550 
Q 638 -700 819 -813 
Q 1131 -1006 1722 -1006 
Q 2284 -1006 2551 -807 
Q 2819 -609 2819 -384 
Q 2819 -222 2659 -153 
Q 2497 -84 2016 -72 
Q 1313 -53 934 0 
z
" transform="scale(0.015625)"/>
       <path id="TimesNewRomanPSMT-68" d="M 1041 4444 
L 1041 2350 
Q 1388 2731 1591 2839 
Q 1794 2947 1997 2947 
Q 2241 2947 2416 2812 
Q 2591 2678 2675 2391 
Q 2734 2191 2734 1659 
L 2734 647 
Q 2734 375 2778 275 
Q 2809 200 2884 156 
Q 2959 113 3159 113 
L 3159 0 
L 1753 0 
L 1753 113 
L 1819 113 
Q 2019 113 2097 173 
Q 2175 234 2206 353 
Q 2216 403 2216 647 
L 2216 1659 
Q 2216 2128 2167 2275 
Q 2119 2422 2012 2495 
Q 1906 2569 1756 2569 
Q 1603 2569 1437 2487 
Q 1272 2406 1041 2159 
L 1041 647 
Q 1041 353 1073 281 
Q 1106 209 1195 161 
Q 1284 113 1503 113 
L 1503 0 
L 84 0 
L 84 113 
Q 275 113 384 172 
Q 447 203 484 290 
Q 522 378 522 647 
L 522 3238 
Q 522 3728 498 3840 
Q 475 3953 426 3993 
Q 378 4034 297 4034 
Q 231 4034 84 3984 
L 41 4094 
L 897 4444 
L 1041 4444 
z
" transform="scale(0.015625)"/>
       <path id="TimesNewRomanPSMT-74" d="M 1031 3803 
L 1031 2863 
L 1700 2863 
L 1700 2644 
L 1031 2644 
L 1031 788 
Q 1031 509 1111 412 
Q 1191 316 1316 316 
Q 1419 316 1516 380 
Q 1613 444 1666 569 
L 1788 569 
Q 1678 263 1478 108 
Q 1278 -47 1066 -47 
Q 922 -47 784 33 
Q 647 113 581 261 
Q 516 409 516 719 
L 516 2644 
L 63 2644 
L 63 2747 
Q 234 2816 414 2980 
Q 594 3144 734 3369 
Q 806 3488 934 3803 
L 1031 3803 
z
" transform="scale(0.015625)"/>
       <path id="TimesNewRomanPSMT-73" d="M 2050 2947 
L 2050 1972 
L 1947 1972 
Q 1828 2431 1642 2597 
Q 1456 2763 1169 2763 
Q 950 2763 815 2647 
Q 681 2531 681 2391 
Q 681 2216 781 2091 
Q 878 1963 1175 1819 
L 1631 1597 
Q 2266 1288 2266 781 
Q 2266 391 1970 151 
Q 1675 -88 1309 -88 
Q 1047 -88 709 6 
Q 606 38 541 38 
Q 469 38 428 -44 
L 325 -44 
L 325 978 
L 428 978 
Q 516 541 762 319 
Q 1009 97 1316 97 
Q 1531 97 1667 223 
Q 1803 350 1803 528 
Q 1803 744 1651 891 
Q 1500 1038 1047 1263 
Q 594 1488 453 1669 
Q 313 1847 313 2119 
Q 313 2472 555 2709 
Q 797 2947 1181 2947 
Q 1350 2947 1591 2875 
Q 1750 2828 1803 2828 
Q 1853 2828 1881 2850 
Q 1909 2872 1947 2947 
L 2050 2947 
z
" transform="scale(0.015625)"/>
      </defs>
      <use xlink:href="#TimesNewRomanPSMT-57"/>
      <use xlink:href="#TimesNewRomanPSMT-65" transform="translate(86.384766 0)"/>
      <use xlink:href="#TimesNewRomanPSMT-69" transform="translate(130.769531 0)"/>
      <use xlink:href="#TimesNewRomanPSMT-67" transform="translate(158.552734 0)"/>
      <use xlink:href="#TimesNewRomanPSMT-68" transform="translate(208.552734 0)"/>
      <use xlink:href="#TimesNewRomanPSMT-74" transform="translate(258.552734 0)"/>
      <use xlink:href="#TimesNewRomanPSMT-73" transform="translate(286.335938 0)"/>
     </g>
    </g>
   </g>
   <g id="matplotlib.axis_2">
    <g id="ytick_1">
     <g id="line2d_4">
      <defs>
       <path id="m4a7cb24984" d="M 0 0 
L 3.5 0 
" style="stroke: #000000; stroke-width: 0.8"/>
      </defs>
      <g>
       <use xlink:href="#m4a7cb24984" x="42.519375" y="536.4" style="stroke: #000000; stroke-width: 0.8"/>
      </g>
     </g>
     <g id="text_5">
      <!-- $\mathdefault{10^{0}}$ -->
      <g transform="translate(22.099375 541.716563) scale(0.12 -0.12)">
       <defs>
        <path id="TimesNewRomanPSMT-31" d="M 750 3822 
L 1781 4325 
L 1884 4325 
L 1884 747 
Q 1884 391 1914 303 
Q 1944 216 2037 169 
Q 2131 122 2419 116 
L 2419 0 
L 825 0 
L 825 116 
Q 1125 122 1212 167 
Q 1300 213 1334 289 
Q 1369 366 1369 747 
L 1369 3034 
Q 1369 3497 1338 3628 
Q 1316 3728 1258 3775 
Q 1200 3822 1119 3822 
Q 1003 3822 797 3725 
L 750 3822 
z
" transform="scale(0.015625)"/>
       </defs>
       <use xlink:href="#TimesNewRomanPSMT-31" transform="translate(0 0.582813)"/>
       <use xlink:href="#TimesNewRomanPSMT-30" transform="translate(50 0.582813)"/>
       <use xlink:href="#TimesNewRomanPSMT-30" transform="translate(101.502813 60.695312) scale(0.7)"/>
      </g>
     </g>
    </g>
    <g id="ytick_2">
     <g id="line2d_5">
      <g>
       <use xlink:href="#m4a7cb24984" x="42.519375" y="424.401444" style="stroke: #000000; stroke-width: 0.8"/>
      </g>
     </g>
     <g id="text_6">
      <!-- $\mathdefault{10^{1}}$ -->
      <g transform="translate(22.099375 429.718006) scale(0.12 -0.12)">
       <use xlink:href="#TimesNewRomanPSMT-31" transform="translate(0 0.582813)"/>
       <use xlink:href="#TimesNewRomanPSMT-30" transform="translate(50 0.582813)"/>
       <use xlink:href="#TimesNewRomanPSMT-31" transform="translate(101.502813 60.695312) scale(0.7)"/>
      </g>
     </g>
    </g>
    <g id="ytick_3">
     <g id="line2d_6">
      <g>
       <use xlink:href="#m4a7cb24984" x="42.519375" y="312.402887" style="stroke: #000000; stroke-width: 0.8"/>
      </g>
     </g>
     <g id="text_7">
      <!-- $\mathdefault{10^{2}}$ -->
      <g transform="translate(22.099375 317.71945) scale(0.12 -0.12)">
       <defs>
        <path id="TimesNewRomanPSMT-32" d="M 2934 816 
L 2638 0 
L 138 0 
L 138 116 
Q 1241 1122 1691 1759 
Q 2141 2397 2141 2925 
Q 2141 3328 1894 3587 
Q 1647 3847 1303 3847 
Q 991 3847 742 3664 
Q 494 3481 375 3128 
L 259 3128 
Q 338 3706 661 4015 
Q 984 4325 1469 4325 
Q 1984 4325 2329 3994 
Q 2675 3663 2675 3213 
Q 2675 2891 2525 2569 
Q 2294 2063 1775 1497 
Q 997 647 803 472 
L 1909 472 
Q 2247 472 2383 497 
Q 2519 522 2628 598 
Q 2738 675 2819 816 
L 2934 816 
z
" transform="scale(0.015625)"/>
       </defs>
       <use xlink:href="#TimesNewRomanPSMT-31" transform="translate(0 0.582813)"/>
       <use xlink:href="#TimesNewRomanPSMT-30" transform="translate(50 0.582813)"/>
       <use xlink:href="#TimesNewRomanPSMT-32" transform="translate(101.502813 60.695312) scale(0.7)"/>
      </g>
     </g>
    </g>
    <g id="ytick_4">
     <g id="line2d_7">
      <g>
       <use xlink:href="#m4a7cb24984" x="42.519375" y="200.404331" style="stroke: #000000; stroke-width: 0.8"/>
      </g>
     </g>
     <g id="text_8">
      <!-- $\mathdefault{10^{3}}$ -->
      <g transform="translate(22.099375 205.720893) scale(0.12 -0.12)">
       <defs>
        <path id="TimesNewRomanPSMT-33" d="M 325 3431 
Q 506 3859 782 4092 
Q 1059 4325 1472 4325 
Q 1981 4325 2253 3994 
Q 2459 3747 2459 3466 
Q 2459 3003 1878 2509 
Q 2269 2356 2469 2072 
Q 2669 1788 2669 1403 
Q 2669 853 2319 450 
Q 1863 -75 997 -75 
Q 569 -75 414 31 
Q 259 138 259 259 
Q 259 350 332 419 
Q 406 488 509 488 
Q 588 488 669 463 
Q 722 447 909 348 
Q 1097 250 1169 231 
Q 1284 197 1416 197 
Q 1734 197 1970 444 
Q 2206 691 2206 1028 
Q 2206 1275 2097 1509 
Q 2016 1684 1919 1775 
Q 1784 1900 1550 2001 
Q 1316 2103 1072 2103 
L 972 2103 
L 972 2197 
Q 1219 2228 1467 2375 
Q 1716 2522 1828 2728 
Q 1941 2934 1941 3181 
Q 1941 3503 1739 3701 
Q 1538 3900 1238 3900 
Q 753 3900 428 3381 
L 325 3431 
z
" transform="scale(0.015625)"/>
       </defs>
       <use xlink:href="#TimesNewRomanPSMT-31" transform="translate(0 0.582813)"/>
       <use xlink:href="#TimesNewRomanPSMT-30" transform="translate(50 0.582813)"/>
       <use xlink:href="#TimesNewRomanPSMT-33" transform="translate(101.502813 60.695312) scale(0.7)"/>
      </g>
     </g>
    </g>
    <g id="ytick_5">
     <g id="line2d_8">
      <g>
       <use xlink:href="#m4a7cb24984" x="42.519375" y="88.405774" style="stroke: #000000; stroke-width: 0.8"/>
      </g>
     </g>
     <g id="text_9">
      <!-- $\mathdefault{10^{4}}$ -->
      <g transform="translate(22.099375 93.722337) scale(0.12 -0.12)">
       <defs>
        <path id="TimesNewRomanPSMT-34" d="M 2978 1563 
L 2978 1119 
L 2409 1119 
L 2409 0 
L 1894 0 
L 1894 1119 
L 100 1119 
L 100 1519 
L 2066 4325 
L 2409 4325 
L 2409 1563 
L 2978 1563 
z
M 1894 1563 
L 1894 3666 
L 406 1563 
L 1894 1563 
z
" transform="scale(0.015625)"/>
       </defs>
       <use xlink:href="#TimesNewRomanPSMT-31" transform="translate(0 0.582813)"/>
       <use xlink:href="#TimesNewRomanPSMT-30" transform="translate(50 0.582813)"/>
       <use xlink:href="#TimesNewRomanPSMT-34" transform="translate(101.502813 60.695312) scale(0.7)"/>
      </g>
     </g>
    </g>
    <g id="ytick_6">
     <g id="line2d_9">
      <defs>
       <path id="m0bec078a7a" d="M 0 0 
L 2 0 
" style="stroke: #000000; stroke-width: 0.6"/>
      </defs>
      <g>
       <use xlink:href="#m0bec078a7a" x="42.519375" y="561.24674" style="stroke: #000000; stroke-width: 0.6"/>
      </g>
     </g>
    </g>
    <g id="ytick_7">
     <g id="line2d_10">
      <g>
       <use xlink:href="#m0bec078a7a" x="42.519375" y="553.748796" style="stroke: #000000; stroke-width: 0.6"/>
      </g>
     </g>
    </g>
    <g id="ytick_8">
     <g id="line2d_11">
      <g>
       <use xlink:href="#m0bec078a7a" x="42.519375" y="547.253782" style="stroke: #000000; stroke-width: 0.6"/>
      </g>
     </g>
    </g>
    <g id="ytick_9">
     <g id="line2d_12">
      <g>
       <use xlink:href="#m0bec078a7a" x="42.519375" y="541.524773" style="stroke: #000000; stroke-width: 0.6"/>
      </g>
     </g>
    </g>
    <g id="ytick_10">
     <g id="line2d_13">
      <g>
       <use xlink:href="#m0bec078a7a" x="42.519375" y="502.685075" style="stroke: #000000; stroke-width: 0.6"/>
      </g>
     </g>
    </g>
    <g id="ytick_11">
     <g id="line2d_14">
      <g>
       <use xlink:href="#m0bec078a7a" x="42.519375" y="482.963108" style="stroke: #000000; stroke-width: 0.6"/>
      </g>
     </g>
    </g>
    <g id="ytick_12">
     <g id="line2d_15">
      <g>
       <use xlink:href="#m0bec078a7a" x="42.519375" y="468.97015" style="stroke: #000000; stroke-width: 0.6"/>
      </g>
     </g>
    </g>
    <g id="ytick_13">
     <g id="line2d_16">
      <g>
       <use xlink:href="#m0bec078a7a" x="42.519375" y="458.116368" style="stroke: #000000; stroke-width: 0.6"/>
      </g>
     </g>
    </g>
    <g id="ytick_14">
     <g id="line2d_17">
      <g>
       <use xlink:href="#m0bec078a7a" x="42.519375" y="449.248183" style="stroke: #000000; stroke-width: 0.6"/>
      </g>
     </g>
    </g>
    <g id="ytick_15">
     <g id="line2d_18">
      <g>
       <use xlink:href="#m0bec078a7a" x="42.519375" y="441.750239" style="stroke: #000000; stroke-width: 0.6"/>
      </g>
     </g>
    </g>
    <g id="ytick_16">
     <g id="line2d_19">
      <g>
       <use xlink:href="#m0bec078a7a" x="42.519375" y="435.255225" style="stroke: #000000; stroke-width: 0.6"/>
      </g>
     </g>
    </g>
    <g id="ytick_17">
     <g id="line2d_20">
      <g>
       <use xlink:href="#m0bec078a7a" x="42.519375" y="429.526216" style="stroke: #000000; stroke-width: 0.6"/>
      </g>
     </g>
    </g>
    <g id="ytick_18">
     <g id="line2d_21">
      <g>
       <use xlink:href="#m0bec078a7a" x="42.519375" y="390.686519" style="stroke: #000000; stroke-width: 0.6"/>
      </g>
     </g>
    </g>
    <g id="ytick_19">
     <g id="line2d_22">
      <g>
       <use xlink:href="#m0bec078a7a" x="42.519375" y="370.964552" style="stroke: #000000; stroke-width: 0.6"/>
      </g>
     </g>
    </g>
    <g id="ytick_20">
     <g id="line2d_23">
      <g>
       <use xlink:href="#m0bec078a7a" x="42.519375" y="356.971594" style="stroke: #000000; stroke-width: 0.6"/>
      </g>
     </g>
    </g>
    <g id="ytick_21">
     <g id="line2d_24">
      <g>
       <use xlink:href="#m0bec078a7a" x="42.519375" y="346.117812" style="stroke: #000000; stroke-width: 0.6"/>
      </g>
     </g>
    </g>
    <g id="ytick_22">
     <g id="line2d_25">
      <g>
       <use xlink:href="#m0bec078a7a" x="42.519375" y="337.249627" style="stroke: #000000; stroke-width: 0.6"/>
      </g>
     </g>
    </g>
    <g id="ytick_23">
     <g id="line2d_26">
      <g>
       <use xlink:href="#m0bec078a7a" x="42.519375" y="329.751683" style="stroke: #000000; stroke-width: 0.6"/>
      </g>
     </g>
    </g>
    <g id="ytick_24">
     <g id="line2d_27">
      <g>
       <use xlink:href="#m0bec078a7a" x="42.519375" y="323.256669" style="stroke: #000000; stroke-width: 0.6"/>
      </g>
     </g>
    </g>
    <g id="ytick_25">
     <g id="line2d_28">
      <g>
       <use xlink:href="#m0bec078a7a" x="42.519375" y="317.52766" style="stroke: #000000; stroke-width: 0.6"/>
      </g>
     </g>
    </g>
    <g id="ytick_26">
     <g id="line2d_29">
      <g>
       <use xlink:href="#m0bec078a7a" x="42.519375" y="278.687962" style="stroke: #000000; stroke-width: 0.6"/>
      </g>
     </g>
    </g>
    <g id="ytick_27">
     <g id="line2d_30">
      <g>
       <use xlink:href="#m0bec078a7a" x="42.519375" y="258.965995" style="stroke: #000000; stroke-width: 0.6"/>
      </g>
     </g>
    </g>
    <g id="ytick_28">
     <g id="line2d_31">
      <g>
       <use xlink:href="#m0bec078a7a" x="42.519375" y="244.973037" style="stroke: #000000; stroke-width: 0.6"/>
      </g>
     </g>
    </g>
    <g id="ytick_29">
     <g id="line2d_32">
      <g>
       <use xlink:href="#m0bec078a7a" x="42.519375" y="234.119255" style="stroke: #000000; stroke-width: 0.6"/>
      </g>
     </g>
    </g>
    <g id="ytick_30">
     <g id="line2d_33">
      <g>
       <use xlink:href="#m0bec078a7a" x="42.519375" y="225.25107" style="stroke: #000000; stroke-width: 0.6"/>
      </g>
     </g>
    </g>
    <g id="ytick_31">
     <g id="line2d_34">
      <g>
       <use xlink:href="#m0bec078a7a" x="42.519375" y="217.753126" style="stroke: #000000; stroke-width: 0.6"/>
      </g>
     </g>
    </g>
    <g id="ytick_32">
     <g id="line2d_35">
      <g>
       <use xlink:href="#m0bec078a7a" x="42.519375" y="211.258112" style="stroke: #000000; stroke-width: 0.6"/>
      </g>
     </g>
    </g>
    <g id="ytick_33">
     <g id="line2d_36">
      <g>
       <use xlink:href="#m0bec078a7a" x="42.519375" y="205.529103" style="stroke: #000000; stroke-width: 0.6"/>
      </g>
     </g>
    </g>
    <g id="ytick_34">
     <g id="line2d_37">
      <g>
       <use xlink:href="#m0bec078a7a" x="42.519375" y="166.689406" style="stroke: #000000; stroke-width: 0.6"/>
      </g>
     </g>
    </g>
    <g id="ytick_35">
     <g id="line2d_38">
      <g>
       <use xlink:href="#m0bec078a7a" x="42.519375" y="146.967439" style="stroke: #000000; stroke-width: 0.6"/>
      </g>
     </g>
    </g>
    <g id="ytick_36">
     <g id="line2d_39">
      <g>
       <use xlink:href="#m0bec078a7a" x="42.519375" y="132.974481" style="stroke: #000000; stroke-width: 0.6"/>
      </g>
     </g>
    </g>
    <g id="ytick_37">
     <g id="line2d_40">
      <g>
       <use xlink:href="#m0bec078a7a" x="42.519375" y="122.120699" style="stroke: #000000; stroke-width: 0.6"/>
      </g>
     </g>
    </g>
    <g id="ytick_38">
     <g id="line2d_41">
      <g>
       <use xlink:href="#m0bec078a7a" x="42.519375" y="113.252514" style="stroke: #000000; stroke-width: 0.6"/>
      </g>
     </g>
    </g>
    <g id="ytick_39">
     <g id="line2d_42">
      <g>
       <use xlink:href="#m0bec078a7a" x="42.519375" y="105.75457" style="stroke: #000000; stroke-width: 0.6"/>
      </g>
     </g>
    </g>
    <g id="ytick_40">
     <g id="line2d_43">
      <g>
       <use xlink:href="#m0bec078a7a" x="42.519375" y="99.259556" style="stroke: #000000; stroke-width: 0.6"/>
      </g>
     </g>
    </g>
    <g id="ytick_41">
     <g id="line2d_44">
      <g>
       <use xlink:href="#m0bec078a7a" x="42.519375" y="93.530547" style="stroke: #000000; stroke-width: 0.6"/>
      </g>
     </g>
    </g>
    <g id="ytick_42">
     <g id="line2d_45">
      <g>
       <use xlink:href="#m0bec078a7a" x="42.519375" y="54.690849" style="stroke: #000000; stroke-width: 0.6"/>
      </g>
     </g>
    </g>
    <g id="ytick_43">
     <g id="line2d_46">
      <g>
       <use xlink:href="#m0bec078a7a" x="42.519375" y="34.968882" style="stroke: #000000; stroke-width: 0.6"/>
      </g>
     </g>
    </g>
    <g id="ytick_44">
     <g id="line2d_47">
      <g>
       <use xlink:href="#m0bec078a7a" x="42.519375" y="20.975924" style="stroke: #000000; stroke-width: 0.6"/>
      </g>
     </g>
    </g>
    <g id="ytick_45">
     <g id="line2d_48">
      <g>
       <use xlink:href="#m0bec078a7a" x="42.519375" y="10.122142" style="stroke: #000000; stroke-width: 0.6"/>
      </g>
     </g>
    </g>
    <g id="text_10">
     <!-- Frequency -->
     <g transform="translate(15.51 309.724688) rotate(-90) scale(0.12 -0.12)">
      <defs>
       <path id="TimesNewRomanPSMT-46" d="M 1309 4006 
L 1309 2341 
L 2081 2341 
Q 2347 2341 2470 2458 
Q 2594 2575 2634 2922 
L 2750 2922 
L 2750 1488 
L 2634 1488 
Q 2631 1734 2570 1850 
Q 2509 1966 2401 2023 
Q 2294 2081 2081 2081 
L 1309 2081 
L 1309 750 
Q 1309 428 1350 325 
Q 1381 247 1481 191 
Q 1619 116 1769 116 
L 1922 116 
L 1922 0 
L 103 0 
L 103 116 
L 253 116 
Q 516 116 634 269 
Q 709 369 709 750 
L 709 3488 
Q 709 3809 669 3913 
Q 638 3991 541 4047 
Q 406 4122 253 4122 
L 103 4122 
L 103 4238 
L 3256 4238 
L 3297 3306 
L 3188 3306 
Q 3106 3603 2998 3742 
Q 2891 3881 2733 3943 
Q 2575 4006 2244 4006 
L 1309 4006 
z
" transform="scale(0.015625)"/>
       <path id="TimesNewRomanPSMT-72" d="M 1038 2947 
L 1038 2303 
Q 1397 2947 1775 2947 
Q 1947 2947 2059 2842 
Q 2172 2738 2172 2600 
Q 2172 2478 2090 2393 
Q 2009 2309 1897 2309 
Q 1788 2309 1652 2417 
Q 1516 2525 1450 2525 
Q 1394 2525 1328 2463 
Q 1188 2334 1038 2041 
L 1038 669 
Q 1038 431 1097 309 
Q 1138 225 1241 169 
Q 1344 113 1538 113 
L 1538 0 
L 72 0 
L 72 113 
Q 291 113 397 181 
Q 475 231 506 341 
Q 522 394 522 644 
L 522 1753 
Q 522 2253 501 2348 
Q 481 2444 426 2487 
Q 372 2531 291 2531 
Q 194 2531 72 2484 
L 41 2597 
L 906 2947 
L 1038 2947 
z
" transform="scale(0.015625)"/>
       <path id="TimesNewRomanPSMT-71" d="M 2734 2947 
L 2734 -734 
Q 2734 -1009 2771 -1087 
Q 2809 -1166 2889 -1209 
Q 2969 -1253 3200 -1253 
L 3200 -1369 
L 1756 -1369 
L 1756 -1253 
L 1816 -1253 
Q 1991 -1253 2081 -1203 
Q 2144 -1169 2181 -1080 
Q 2219 -991 2219 -734 
L 2219 497 
Q 1934 159 1721 35 
Q 1509 -88 1281 -88 
Q 866 -88 539 290 
Q 213 669 213 1303 
Q 213 2031 644 2489 
Q 1075 2947 1684 2947 
Q 1863 2947 2013 2897 
Q 2163 2847 2281 2747 
Q 2463 2834 2628 2947 
L 2734 2947 
z
M 2219 694 
L 2219 2038 
Q 2219 2272 2158 2406 
Q 2097 2541 1940 2634 
Q 1784 2728 1588 2728 
Q 1238 2728 988 2431 
Q 738 2134 738 1531 
Q 738 953 992 653 
Q 1247 353 1606 353 
Q 1791 353 1934 433 
Q 2078 513 2219 694 
z
" transform="scale(0.015625)"/>
       <path id="TimesNewRomanPSMT-75" d="M 2709 2863 
L 2709 1128 
Q 2709 631 2732 520 
Q 2756 409 2807 365 
Q 2859 322 2928 322 
Q 3025 322 3147 375 
L 3191 266 
L 2334 -88 
L 2194 -88 
L 2194 519 
Q 1825 119 1631 15 
Q 1438 -88 1222 -88 
Q 981 -88 804 51 
Q 628 191 559 409 
Q 491 628 491 1028 
L 491 2306 
Q 491 2509 447 2587 
Q 403 2666 317 2708 
Q 231 2750 6 2747 
L 6 2863 
L 1009 2863 
L 1009 947 
Q 1009 547 1148 422 
Q 1288 297 1484 297 
Q 1619 297 1789 381 
Q 1959 466 2194 703 
L 2194 2325 
Q 2194 2569 2105 2655 
Q 2016 2741 1734 2747 
L 1734 2863 
L 2709 2863 
z
" transform="scale(0.015625)"/>
       <path id="TimesNewRomanPSMT-6e" d="M 1034 2341 
Q 1538 2947 1994 2947 
Q 2228 2947 2397 2830 
Q 2566 2713 2666 2444 
Q 2734 2256 2734 1869 
L 2734 647 
Q 2734 375 2778 278 
Q 2813 200 2889 156 
Q 2966 113 3172 113 
L 3172 0 
L 1756 0 
L 1756 113 
L 1816 113 
Q 2016 113 2095 173 
Q 2175 234 2206 353 
Q 2219 400 2219 647 
L 2219 1819 
Q 2219 2209 2117 2386 
Q 2016 2563 1775 2563 
Q 1403 2563 1034 2156 
L 1034 647 
Q 1034 356 1069 288 
Q 1113 197 1189 155 
Q 1266 113 1500 113 
L 1500 0 
L 84 0 
L 84 113 
L 147 113 
Q 366 113 442 223 
Q 519 334 519 647 
L 519 1709 
Q 519 2225 495 2337 
Q 472 2450 423 2490 
Q 375 2531 294 2531 
Q 206 2531 84 2484 
L 38 2597 
L 900 2947 
L 1034 2947 
L 1034 2341 
z
" transform="scale(0.015625)"/>
       <path id="TimesNewRomanPSMT-63" d="M 2631 1088 
Q 2516 522 2178 217 
Q 1841 -88 1431 -88 
Q 944 -88 581 321 
Q 219 731 219 1428 
Q 219 2103 620 2525 
Q 1022 2947 1584 2947 
Q 2006 2947 2278 2723 
Q 2550 2500 2550 2259 
Q 2550 2141 2473 2067 
Q 2397 1994 2259 1994 
Q 2075 1994 1981 2113 
Q 1928 2178 1911 2362 
Q 1894 2547 1784 2644 
Q 1675 2738 1481 2738 
Q 1169 2738 978 2506 
Q 725 2200 725 1697 
Q 725 1184 976 792 
Q 1228 400 1656 400 
Q 1963 400 2206 609 
Q 2378 753 2541 1131 
L 2631 1088 
z
" transform="scale(0.015625)"/>
       <path id="TimesNewRomanPSMT-79" d="M 38 2863 
L 1372 2863 
L 1372 2747 
L 1306 2747 
Q 1166 2747 1095 2686 
Q 1025 2625 1025 2534 
Q 1025 2413 1128 2197 
L 1825 753 
L 2466 2334 
Q 2519 2463 2519 2588 
Q 2519 2644 2497 2672 
Q 2472 2706 2419 2726 
Q 2366 2747 2231 2747 
L 2231 2863 
L 3163 2863 
L 3163 2747 
Q 3047 2734 2984 2696 
Q 2922 2659 2847 2556 
Q 2819 2513 2741 2316 
L 1575 -541 
Q 1406 -956 1132 -1168 
Q 859 -1381 606 -1381 
Q 422 -1381 303 -1275 
Q 184 -1169 184 -1031 
Q 184 -900 270 -820 
Q 356 -741 506 -741 
Q 609 -741 788 -809 
Q 913 -856 944 -856 
Q 1038 -856 1148 -759 
Q 1259 -663 1372 -384 
L 1575 113 
L 547 2272 
Q 500 2369 397 2513 
Q 319 2622 269 2659 
Q 197 2709 38 2747 
L 38 2863 
z
" transform="scale(0.015625)"/>
      </defs>
      <use xlink:href="#TimesNewRomanPSMT-46"/>
      <use xlink:href="#TimesNewRomanPSMT-72" transform="translate(55.615234 0)"/>
      <use xlink:href="#TimesNewRomanPSMT-65" transform="translate(88.916016 0)"/>
      <use xlink:href="#TimesNewRomanPSMT-71" transform="translate(133.300781 0)"/>
      <use xlink:href="#TimesNewRomanPSMT-75" transform="translate(183.300781 0)"/>
      <use xlink:href="#TimesNewRomanPSMT-65" transform="translate(233.300781 0)"/>
      <use xlink:href="#TimesNewRomanPSMT-6e" transform="translate(277.685547 0)"/>
      <use xlink:href="#TimesNewRomanPSMT-63" transform="translate(327.685547 0)"/>
      <use xlink:href="#TimesNewRomanPSMT-79" transform="translate(372.070312 0)"/>
     </g>
    </g>
   </g>
   <g id="patch_3">
    <path d="M 60.298919 599.12125 
L 60.298919 536.4 
L 64.678135 536.4 
L 64.678135 599.12125 
M 99.71186 599.12125 
L 99.71186 536.4 
L 108.470292 536.4 
L 108.470292 599.12125 
M 112.849507 599.12125 
L 112.849507 502.685075 
L 117.228723 502.685075 
L 117.228723 599.12125 
M 121.607939 599.12125 
L 121.607939 502.685075 
L 125.987154 502.685075 
L 125.987154 599.12125 
M 130.36637 599.12125 
L 130.36637 468.97015 
L 134.745586 468.97015 
L 134.745586 502.685075 
L 139.124801 502.685075 
L 139.124801 536.4 
L 143.504017 536.4 
L 143.504017 482.963108 
L 147.883233 482.963108 
L 147.883233 536.4 
L 152.262448 536.4 
L 152.262448 458.116368 
L 156.641664 458.116368 
L 156.641664 441.750239 
L 161.02088 441.750239 
L 161.02088 435.255225 
L 165.400095 435.255225 
L 165.400095 424.401444 
L 169.779311 424.401444 
L 169.779311 449.248183 
L 174.158527 449.248183 
L 174.158527 419.765523 
L 178.537742 419.765523 
L 178.537742 408.035314 
L 182.916958 408.035314 
L 182.916958 390.686519 
L 187.296174 390.686519 
L 187.296174 398.591497 
L 191.675389 398.591497 
L 191.675389 372.613535 
L 196.054605 372.613535 
L 196.054605 360.763671 
L 200.433821 360.763671 
L 200.433821 355.770536 
L 204.813036 355.770536 
L 204.813036 334.876456 
L 209.192252 334.876456 
L 209.192252 328.381441 
L 213.571468 328.381441 
L 213.571468 312.891739 
L 217.950683 312.891739 
L 217.950683 299.641396 
L 222.329899 299.641396 
L 222.329899 286.879905 
L 226.709115 286.879905 
L 226.709115 268.224868 
L 231.08833 268.224868 
L 231.08833 250.504845 
L 235.467546 250.504845 
L 235.467546 233.443013 
L 239.846762 233.443013 
L 239.846762 214.074096 
L 244.225977 214.074096 
L 244.225977 177.391423 
L 248.605193 177.391423 
L 248.605193 32.4 
L 252.984409 32.4 
L 252.984409 178.155024 
L 257.363624 178.155024 
L 257.363624 212.30286 
L 261.74284 212.30286 
L 261.74284 235.101922 
L 266.122056 235.101922 
L 266.122056 253.16498 
L 270.501271 253.16498 
L 270.501271 272.314701 
L 274.880487 272.314701 
L 274.880487 282.743673 
L 279.259703 282.743673 
L 279.259703 303.131045 
L 283.638918 303.131045 
L 283.638918 319.738966 
L 288.018134 319.738966 
L 288.018134 333.356321 
L 292.39735 333.356321 
L 292.39735 347.100479 
L 296.776565 347.100479 
L 296.776565 352.335673 
L 301.155781 352.335673 
L 301.155781 379.832737 
L 305.534997 379.832737 
L 305.534997 370.964552 
L 309.914212 370.964552 
L 309.914212 388.313348 
L 314.293428 388.313348 
L 314.293428 377.925028 
L 318.672644 377.925028 
L 318.672644 411.639953 
L 327.431075 411.639953 
L 327.431075 415.533258 
L 331.810291 415.533258 
L 331.810291 435.255225 
L 336.189506 435.255225 
L 336.189506 482.963108 
L 340.568722 482.963108 
L 340.568722 449.248183 
L 344.947938 449.248183 
L 344.947938 482.963108 
L 349.327153 482.963108 
L 349.327153 468.97015 
L 353.706369 468.97015 
L 353.706369 458.116368 
L 358.085585 458.116368 
L 358.085585 482.963108 
L 362.4648 482.963108 
L 362.4648 536.4 
L 371.223232 536.4 
L 371.223232 599.12125 
M 375.602447 599.12125 
L 375.602447 536.4 
L 384.360879 536.4 
L 384.360879 599.12125 
M 406.256957 599.12125 
L 406.256957 536.4 
L 410.636173 536.4 
L 410.636173 599.12125 
L 410.636173 599.12125 
" clip-path="url(#p90afee32fa)" style="fill: none; stroke: #67000d; stroke-width: 2; stroke-linejoin: miter"/>
   </g>
   <g id="patch_4">
    <path d="M 96.991749 599.12125 
L 96.991749 536.4 
L 100.977975 536.4 
L 100.977975 599.12125 
M 104.9642 599.12125 
L 104.9642 536.4 
L 108.950426 536.4 
L 108.950426 599.12125 
M 112.936652 599.12125 
L 112.936652 536.4 
L 116.922877 536.4 
L 116.922877 599.12125 
M 124.895329 599.12125 
L 124.895329 536.4 
L 140.840232 536.4 
L 140.840232 458.116368 
L 144.826458 458.116368 
L 144.826458 502.685075 
L 148.812683 502.685075 
L 148.812683 468.97015 
L 156.785135 468.97015 
L 156.785135 502.685075 
L 160.77136 502.685075 
L 160.77136 441.750239 
L 164.757586 441.750239 
L 164.757586 435.255225 
L 168.743812 435.255225 
L 168.743812 415.533258 
L 172.730038 415.533258 
L 172.730038 419.765523 
L 176.716263 419.765523 
L 176.716263 424.401444 
L 180.702489 424.401444 
L 180.702489 369.369643 
L 184.688715 369.369643 
L 184.688715 370.964552 
L 188.67494 370.964552 
L 188.67494 386.050598 
L 192.661166 386.050598 
L 192.661166 370.964552 
L 196.647392 370.964552 
L 196.647392 362.096366 
L 200.633618 362.096366 
L 200.633618 336.445636 
L 204.619843 336.445636 
L 204.619843 331.882258 
L 208.606069 331.882258 
L 208.606069 330.451556 
L 212.592295 330.451556 
L 212.592295 316.990192 
L 216.57852 316.990192 
L 216.57852 312.402887 
L 220.564746 312.402887 
L 220.564746 298.531682 
L 224.550972 298.531682 
L 224.550972 281.957019 
L 228.537198 281.957019 
L 228.537198 264.090768 
L 232.523423 264.090768 
L 232.523423 258.965995 
L 236.509649 258.965995 
L 236.509649 237.440363 
L 240.495875 237.440363 
L 240.495875 211.318951 
L 244.482101 211.318951 
L 244.482101 180.747261 
L 248.468326 180.747261 
L 248.468326 32.897754 
L 252.454552 32.897754 
L 252.454552 177.940004 
L 256.440778 177.940004 
L 256.440778 211.015516 
L 260.427003 211.015516 
L 260.427003 233.251516 
L 264.413229 233.251516 
L 264.413229 251.052911 
L 268.399455 251.052911 
L 268.399455 261.120776 
L 272.385681 261.120776 
L 272.385681 284.905823 
L 276.371906 284.905823 
L 276.371906 303.534702 
L 280.358132 303.534702 
L 280.358132 309.568667 
L 284.344358 309.568667 
L 284.344358 324.488136 
L 288.330583 324.488136 
L 288.330583 327.710529 
L 292.316809 327.710529 
L 292.316809 329.751683 
L 296.303035 329.751683 
L 296.303035 353.453891 
L 300.289261 353.453891 
L 300.289261 372.613535 
L 304.275486 372.613535 
L 304.275486 364.876572 
L 308.261712 364.876572 
L 308.261712 372.613535 
L 316.234164 372.613535 
L 316.234164 415.533258 
L 320.220389 415.533258 
L 320.220389 395.811291 
L 324.206615 395.811291 
L 324.206615 398.591497 
L 328.192841 398.591497 
L 328.192841 415.533258 
L 332.179066 415.533258 
L 332.179066 449.248183 
L 336.165292 449.248183 
L 336.165292 435.255225 
L 340.151518 435.255225 
L 340.151518 441.750239 
L 344.137744 441.750239 
L 344.137744 458.116368 
L 348.123969 458.116368 
L 348.123969 502.685075 
L 352.110195 502.685075 
L 352.110195 458.116368 
L 356.096421 458.116368 
L 356.096421 536.4 
L 360.082646 536.4 
L 360.082646 482.963108 
L 368.055098 482.963108 
L 368.055098 502.685075 
L 372.041324 502.685075 
L 372.041324 536.4 
L 376.027549 536.4 
L 376.027549 599.12125 
M 384.000001 599.12125 
L 384.000001 502.685075 
L 387.986227 502.685075 
L 387.986227 599.12125 
M 411.903581 599.12125 
L 411.903581 536.4 
L 415.889807 536.4 
L 415.889807 599.12125 
L 415.889807 599.12125 
" clip-path="url(#p90afee32fa)" style="fill: none; stroke: #ca181d; stroke-width: 2; stroke-linejoin: miter"/>
   </g>
   <g id="patch_5">
    <path d="M 65.61285 599.12125 
L 65.61285 502.685075 
L 74.349969 502.685075 
L 74.349969 599.12125 
M 96.192765 599.12125 
L 96.192765 536.4 
L 100.561324 536.4 
L 100.561324 502.685075 
L 113.667002 502.685075 
L 113.667002 536.4 
L 118.035562 536.4 
L 118.035562 482.963108 
L 122.404121 482.963108 
L 122.404121 599.12125 
M 126.77268 599.12125 
L 126.77268 458.116368 
L 131.141239 458.116368 
L 131.141239 482.963108 
L 135.509799 482.963108 
L 135.509799 449.248183 
L 139.878358 449.248183 
L 139.878358 482.963108 
L 144.246917 482.963108 
L 144.246917 429.526216 
L 148.615477 429.526216 
L 148.615477 441.750239 
L 152.984036 441.750239 
L 152.984036 435.255225 
L 157.352595 435.255225 
L 157.352595 424.401444 
L 161.721155 424.401444 
L 161.721155 415.533258 
L 170.458273 415.533258 
L 170.458273 374.320389 
L 174.826832 374.320389 
L 174.826832 379.832737 
L 179.195392 379.832737 
L 179.195392 386.050598 
L 183.563951 386.050598 
L 183.563951 353.453891 
L 187.93251 353.453891 
L 187.93251 355.770536 
L 192.30107 355.770536 
L 192.30107 350.173523 
L 196.669629 350.173523 
L 196.669629 337.249627 
L 201.038188 337.249627 
L 201.038188 331.161647 
L 205.406748 331.161647 
L 205.406748 325.751593 
L 209.775307 325.751593 
L 209.775307 309.568667 
L 214.143866 309.568667 
L 214.143866 304.352206 
L 218.512425 304.352206 
L 218.512425 293.333821 
L 222.880985 293.333821 
L 222.880985 283.812735 
L 227.249544 283.812735 
L 227.249544 266.11391 
L 231.618103 266.11391 
L 231.618103 252.878015 
L 235.986663 252.878015 
L 235.986663 231.101832 
L 240.355222 231.101832 
L 240.355222 208.82707 
L 244.723781 208.82707 
L 244.723781 175.40219 
L 249.09234 175.40219 
L 249.09234 32.860478 
L 253.4609 32.860478 
L 253.4609 187.047843 
L 257.829459 187.047843 
L 257.829459 219.956353 
L 262.198018 219.956353 
L 262.198018 237.544629 
L 266.566578 237.544629 
L 266.566578 259.948662 
L 270.935137 259.948662 
L 270.935137 271.889892 
L 275.303696 271.889892 
L 275.303696 279.670629 
L 279.672256 279.670629 
L 279.672256 300.77702 
L 284.040815 300.77702 
L 284.040815 304.766169 
L 288.409374 304.766169 
L 288.409374 317.52766 
L 292.777933 317.52766 
L 292.777933 331.882258 
L 297.146493 331.882258 
L 297.146493 328.381441 
L 301.515052 328.381441 
L 301.515052 341.481891 
L 305.883611 341.481891 
L 305.883611 367.825375 
L 310.252171 367.825375 
L 310.252171 372.613535 
L 314.62073 372.613535 
L 314.62073 364.876572 
L 318.989289 364.876572 
L 318.989289 367.825375 
L 323.357849 367.825375 
L 323.357849 372.613535 
L 327.726408 372.613535 
L 327.726408 390.686519 
L 332.094967 390.686519 
L 332.094967 381.818333 
L 336.463526 381.818333 
L 336.463526 411.639953 
L 340.832086 411.639953 
L 340.832086 398.591497 
L 345.200645 398.591497 
L 345.200645 424.401444 
L 349.569204 424.401444 
L 349.569204 435.255225 
L 353.937764 435.255225 
L 353.937764 449.248183 
L 358.306323 449.248183 
L 358.306323 458.116368 
L 362.674882 458.116368 
L 362.674882 468.97015 
L 367.043442 468.97015 
L 367.043442 449.248183 
L 371.412001 449.248183 
L 371.412001 536.4 
L 375.78056 536.4 
L 375.78056 502.685075 
L 380.149119 502.685075 
L 380.149119 536.4 
L 384.517679 536.4 
L 384.517679 502.685075 
L 388.886238 502.685075 
L 388.886238 599.12125 
M 397.623357 599.12125 
L 397.623357 536.4 
L 401.991916 536.4 
L 401.991916 599.12125 
M 410.729034 599.12125 
L 410.729034 536.4 
L 415.097594 536.4 
L 415.097594 599.12125 
L 415.097594 599.12125 
" clip-path="url(#p90afee32fa)" style="fill: none; stroke: #fcbba1; stroke-width: 2; stroke-linejoin: miter"/>
   </g>
   <g id="line2d_49">
    <path d="M 250.548444 561.6 
L 250.548444 7.2 
" clip-path="url(#p90afee32fa)" style="fill: none; stroke: #000000; stroke-width: 1.5; stroke-linecap: square"/>
   </g>
   <g id="patch_6">
    <path d="M 42.519375 561.6 
L 42.519375 7.2 
" style="fill: none; stroke: #000000; stroke-width: 0.8; stroke-linejoin: miter; stroke-linecap: square"/>
   </g>
   <g id="patch_7">
    <path d="M 448.337557 561.6 
L 448.337557 7.2 
" style="fill: none; stroke: #000000; stroke-width: 0.8; stroke-linejoin: miter; stroke-linecap: square"/>
   </g>
   <g id="patch_8">
    <path d="M 42.519375 561.6 
L 448.337557 561.6 
" style="fill: none; stroke: #000000; stroke-width: 0.8; stroke-linejoin: miter; stroke-linecap: square"/>
   </g>
   <g id="patch_9">
    <path d="M 42.519375 7.2 
L 448.337557 7.2 
" style="fill: none; stroke: #000000; stroke-width: 0.8; stroke-linejoin: miter; stroke-linecap: square"/>
   </g>
   <g id="legend_1">
    <g id="patch_10">
     <path d="M 355.937557 80.199 
L 439.937557 80.199 
Q 442.337557 80.199 442.337557 77.799 
L 442.337557 15.6 
Q 442.337557 13.2 439.937557 13.2 
L 355.937557 13.2 
Q 353.537557 13.2 353.537557 15.6 
L 353.537557 77.799 
Q 353.537557 80.199 355.937557 80.199 
z
" style="fill: #ffffff; opacity: 0.8; stroke: #cccccc; stroke-linejoin: miter"/>
    </g>
    <g id="patch_11">
     <path d="M 358.337557 33.898875 
L 382.337557 33.898875 
L 382.337557 25.498875 
L 358.337557 25.498875 
L 358.337557 33.898875 
z
" style="fill: none; stroke: #67000d; stroke-width: 2; stroke-linejoin: miter"/>
    </g>
    <g id="text_11">
     <!-- LIF -->
     <g transform="translate(391.937557 26.3325) scale(0.12 -0.12)">
      <defs>
       <path id="TimesNewRomanPSMT-4c" d="M 3669 1172 
L 3772 1150 
L 3409 0 
L 128 0 
L 128 116 
L 288 116 
Q 556 116 672 291 
Q 738 391 738 753 
L 738 3488 
Q 738 3884 650 3984 
Q 528 4122 288 4122 
L 128 4122 
L 128 4238 
L 2047 4238 
L 2047 4122 
Q 1709 4125 1573 4059 
Q 1438 3994 1388 3894 
Q 1338 3794 1338 3416 
L 1338 753 
Q 1338 494 1388 397 
Q 1425 331 1503 300 
Q 1581 269 1991 269 
L 2300 269 
Q 2788 269 2984 341 
Q 3181 413 3343 595 
Q 3506 778 3669 1172 
z
" transform="scale(0.015625)"/>
       <path id="TimesNewRomanPSMT-49" d="M 1975 116 
L 1975 0 
L 159 0 
L 159 116 
L 309 116 
Q 572 116 691 269 
Q 766 369 766 750 
L 766 3488 
Q 766 3809 725 3913 
Q 694 3991 597 4047 
Q 459 4122 309 4122 
L 159 4122 
L 159 4238 
L 1975 4238 
L 1975 4122 
L 1822 4122 
Q 1563 4122 1444 3969 
Q 1366 3869 1366 3488 
L 1366 750 
Q 1366 428 1406 325 
Q 1438 247 1538 191 
Q 1672 116 1822 116 
L 1975 116 
z
" transform="scale(0.015625)"/>
      </defs>
      <use xlink:href="#TimesNewRomanPSMT-4c"/>
      <use xlink:href="#TimesNewRomanPSMT-49" transform="translate(61.083984 0)"/>
      <use xlink:href="#TimesNewRomanPSMT-46" transform="translate(94.384766 0)"/>
     </g>
     <!-- $F'$=14.44 -->
     <g transform="translate(391.937557 38.898375) scale(0.12 -0.12)">
      <defs>
       <path id="DejaVuSerif-Italic-46" d="M -97 0 
L -34 331 
L 559 331 
L 1338 4331 
L 744 4331 
L 809 4666 
L 4628 4666 
L 4428 3628 
L 4044 3628 
L 4169 4281 
L 1963 4281 
L 1659 2719 
L 3253 2719 
L 3366 3303 
L 3750 3303 
L 3450 1753 
L 3066 1753 
L 3178 2338 
L 1584 2338 
L 1194 331 
L 1941 331 
L 1878 0 
L -97 0 
z
" transform="scale(0.015625)"/>
       <path id="Cmsy10-30" d="M 225 347 
Q 184 359 184 409 
L 966 3316 
Q 1003 3434 1093 3506 
Q 1184 3578 1300 3578 
Q 1450 3578 1564 3479 
Q 1678 3381 1678 3231 
Q 1678 3166 1644 3084 
L 488 319 
Q 466 275 428 275 
Q 394 275 320 306 
Q 247 338 225 347 
z
" transform="scale(0.015625)"/>
       <path id="TimesNewRomanPSMT-3d" d="M 116 2759 
L 3488 2759 
L 3488 2503 
L 116 2503 
L 116 2759 
z
M 116 1741 
L 3488 1741 
L 3488 1484 
L 116 1484 
L 116 1741 
z
" transform="scale(0.015625)"/>
       <path id="TimesNewRomanPSMT-2e" d="M 800 606 
Q 947 606 1047 504 
Q 1147 403 1147 259 
Q 1147 116 1045 14 
Q 944 -88 800 -88 
Q 656 -88 554 14 
Q 453 116 453 259 
Q 453 406 554 506 
Q 656 606 800 606 
z
" transform="scale(0.015625)"/>
      </defs>
      <use xlink:href="#DejaVuSerif-Italic-46" transform="translate(0 0.53125)"/>
      <use xlink:href="#Cmsy10-30" transform="translate(76.563776 36.865625) scale(0.7)"/>
      <use xlink:href="#TimesNewRomanPSMT-3d" transform="translate(98.402253 0.53125)"/>
      <use xlink:href="#TimesNewRomanPSMT-31" transform="translate(154.798737 0.53125)"/>
      <use xlink:href="#TimesNewRomanPSMT-34" transform="translate(204.798737 0.53125)"/>
      <use xlink:href="#TimesNewRomanPSMT-2e" transform="translate(254.798737 0.53125)"/>
      <use xlink:href="#TimesNewRomanPSMT-34" transform="translate(279.798737 0.53125)"/>
      <use xlink:href="#TimesNewRomanPSMT-34" transform="translate(329.798737 0.53125)"/>
     </g>
    </g>
    <g id="patch_12">
     <path d="M 358.337557 55.86525 
L 382.337557 55.86525 
L 382.337557 47.46525 
L 358.337557 47.46525 
L 358.337557 55.86525 
z
" style="fill: none; stroke: #ca181d; stroke-width: 2; stroke-linejoin: miter"/>
    </g>
    <g id="text_12">
     <!-- $F'$=10.68 -->
     <g transform="translate(391.937557 55.86525) scale(0.12 -0.12)">
      <defs>
       <path id="TimesNewRomanPSMT-36" d="M 2869 4325 
L 2869 4209 
Q 2456 4169 2195 4045 
Q 1934 3922 1679 3669 
Q 1425 3416 1258 3105 
Q 1091 2794 978 2366 
Q 1428 2675 1881 2675 
Q 2316 2675 2634 2325 
Q 2953 1975 2953 1425 
Q 2953 894 2631 456 
Q 2244 -75 1606 -75 
Q 1172 -75 869 213 
Q 275 772 275 1663 
Q 275 2231 503 2743 
Q 731 3256 1154 3653 
Q 1578 4050 1965 4187 
Q 2353 4325 2688 4325 
L 2869 4325 
z
M 925 2138 
Q 869 1716 869 1456 
Q 869 1156 980 804 
Q 1091 453 1309 247 
Q 1469 100 1697 100 
Q 1969 100 2183 356 
Q 2397 613 2397 1088 
Q 2397 1622 2184 2012 
Q 1972 2403 1581 2403 
Q 1463 2403 1327 2353 
Q 1191 2303 925 2138 
z
" transform="scale(0.015625)"/>
       <path id="TimesNewRomanPSMT-38" d="M 1228 2134 
Q 725 2547 579 2797 
Q 434 3047 434 3316 
Q 434 3728 753 4026 
Q 1072 4325 1600 4325 
Q 2113 4325 2425 4047 
Q 2738 3769 2738 3413 
Q 2738 3175 2569 2928 
Q 2400 2681 1866 2347 
Q 2416 1922 2594 1678 
Q 2831 1359 2831 1006 
Q 2831 559 2490 242 
Q 2150 -75 1597 -75 
Q 994 -75 656 303 
Q 388 606 388 966 
Q 388 1247 577 1523 
Q 766 1800 1228 2134 
z
M 1719 2469 
Q 2094 2806 2194 3001 
Q 2294 3197 2294 3444 
Q 2294 3772 2109 3958 
Q 1925 4144 1606 4144 
Q 1288 4144 1088 3959 
Q 888 3775 888 3528 
Q 888 3366 970 3203 
Q 1053 3041 1206 2894 
L 1719 2469 
z
M 1375 2016 
Q 1116 1797 991 1539 
Q 866 1281 866 981 
Q 866 578 1086 336 
Q 1306 94 1647 94 
Q 1984 94 2187 284 
Q 2391 475 2391 747 
Q 2391 972 2272 1150 
Q 2050 1481 1375 2016 
z
" transform="scale(0.015625)"/>
      </defs>
      <use xlink:href="#DejaVuSerif-Italic-46" transform="translate(0 0.53125)"/>
      <use xlink:href="#Cmsy10-30" transform="translate(76.563776 36.865625) scale(0.7)"/>
      <use xlink:href="#TimesNewRomanPSMT-3d" transform="translate(98.402253 0.53125)"/>
      <use xlink:href="#TimesNewRomanPSMT-31" transform="translate(154.798737 0.53125)"/>
      <use xlink:href="#TimesNewRomanPSMT-30" transform="translate(204.798737 0.53125)"/>
      <use xlink:href="#TimesNewRomanPSMT-2e" transform="translate(254.798737 0.53125)"/>
      <use xlink:href="#TimesNewRomanPSMT-36" transform="translate(279.798737 0.53125)"/>
      <use xlink:href="#TimesNewRomanPSMT-38" transform="translate(329.798737 0.53125)"/>
     </g>
    </g>
    <g id="patch_13">
     <path d="M 358.337557 72.832125 
L 382.337557 72.832125 
L 382.337557 64.432125 
L 358.337557 64.432125 
L 358.337557 72.832125 
z
" style="fill: none; stroke: #fcbba1; stroke-width: 2; stroke-linejoin: miter"/>
    </g>
    <g id="text_13">
     <!-- $F'$=7.18 -->
     <g transform="translate(391.937557 72.832125) scale(0.12 -0.12)">
      <defs>
       <path id="TimesNewRomanPSMT-37" d="M 644 4238 
L 2916 4238 
L 2916 4119 
L 1503 -88 
L 1153 -88 
L 2419 3728 
L 1253 3728 
Q 900 3728 750 3644 
Q 488 3500 328 3200 
L 238 3234 
L 644 4238 
z
" transform="scale(0.015625)"/>
      </defs>
      <use xlink:href="#DejaVuSerif-Italic-46" transform="translate(0 0.53125)"/>
      <use xlink:href="#Cmsy10-30" transform="translate(76.563776 36.865625) scale(0.7)"/>
      <use xlink:href="#TimesNewRomanPSMT-3d" transform="translate(98.402253 0.53125)"/>
      <use xlink:href="#TimesNewRomanPSMT-37" transform="translate(154.798737 0.53125)"/>
      <use xlink:href="#TimesNewRomanPSMT-2e" transform="translate(204.798737 0.53125)"/>
      <use xlink:href="#TimesNewRomanPSMT-31" transform="translate(229.798737 0.53125)"/>
      <use xlink:href="#TimesNewRomanPSMT-38" transform="translate(279.798737 0.53125)"/>
     </g>
    </g>
   </g>
  </g>
  <g id="axes_2">
   <g id="patch_14">
    <path d="M 529.501193 561.6 
L 935.319375 561.6 
L 935.319375 7.2 
L 529.501193 7.2 
z
" style="fill: #ffffff"/>
   </g>
   <g id="matplotlib.axis_3">
    <g id="xtick_4">
     <g id="line2d_50">
      <g>
       <use xlink:href="#mcaa6979f02" x="546.662792" y="561.6" style="stroke: #000000; stroke-width: 0.8"/>
      </g>
     </g>
     <g id="text_14">
      <!-- −5 -->
      <g transform="translate(540.279355 573.4325) scale(0.12 -0.12)">
       <use xlink:href="#TimesNewRomanPSMT-2212"/>
       <use xlink:href="#TimesNewRomanPSMT-35" transform="translate(56.396484 0)"/>
      </g>
     </g>
    </g>
    <g id="xtick_5">
     <g id="line2d_51">
      <g>
       <use xlink:href="#mcaa6979f02" x="739.785368" y="561.6" style="stroke: #000000; stroke-width: 0.8"/>
      </g>
     </g>
     <g id="text_15">
      <!-- 0 -->
      <g transform="translate(736.785368 573.4325) scale(0.12 -0.12)">
       <use xlink:href="#TimesNewRomanPSMT-30"/>
      </g>
     </g>
    </g>
    <g id="xtick_6">
     <g id="line2d_52">
      <g>
       <use xlink:href="#mcaa6979f02" x="932.907943" y="561.6" style="stroke: #000000; stroke-width: 0.8"/>
      </g>
     </g>
     <g id="text_16">
      <!-- 5 -->
      <g transform="translate(929.907943 573.4325) scale(0.12 -0.12)">
       <use xlink:href="#TimesNewRomanPSMT-35"/>
      </g>
     </g>
    </g>
    <g id="text_17">
     <!-- Weights -->
     <g transform="translate(712.894347 588.331875) scale(0.12 -0.12)">
      <use xlink:href="#TimesNewRomanPSMT-57"/>
      <use xlink:href="#TimesNewRomanPSMT-65" transform="translate(86.384766 0)"/>
      <use xlink:href="#TimesNewRomanPSMT-69" transform="translate(130.769531 0)"/>
      <use xlink:href="#TimesNewRomanPSMT-67" transform="translate(158.552734 0)"/>
      <use xlink:href="#TimesNewRomanPSMT-68" transform="translate(208.552734 0)"/>
      <use xlink:href="#TimesNewRomanPSMT-74" transform="translate(258.552734 0)"/>
      <use xlink:href="#TimesNewRomanPSMT-73" transform="translate(286.335938 0)"/>
     </g>
    </g>
   </g>
   <g id="matplotlib.axis_4">
    <g id="ytick_46">
     <g id="line2d_53">
      <g>
       <use xlink:href="#m4a7cb24984" x="529.501193" y="536.4" style="stroke: #000000; stroke-width: 0.8"/>
      </g>
     </g>
     <g id="text_18">
      <!-- $\mathdefault{10^{0}}$ -->
      <g transform="translate(509.081193 541.716563) scale(0.12 -0.12)">
       <use xlink:href="#TimesNewRomanPSMT-31" transform="translate(0 0.582813)"/>
       <use xlink:href="#TimesNewRomanPSMT-30" transform="translate(50 0.582813)"/>
       <use xlink:href="#TimesNewRomanPSMT-30" transform="translate(101.502813 60.695312) scale(0.7)"/>
      </g>
     </g>
    </g>
    <g id="ytick_47">
     <g id="line2d_54">
      <g>
       <use xlink:href="#m4a7cb24984" x="529.501193" y="424.247723" style="stroke: #000000; stroke-width: 0.8"/>
      </g>
     </g>
     <g id="text_19">
      <!-- $\mathdefault{10^{1}}$ -->
      <g transform="translate(509.081193 429.564286) scale(0.12 -0.12)">
       <use xlink:href="#TimesNewRomanPSMT-31" transform="translate(0 0.582813)"/>
       <use xlink:href="#TimesNewRomanPSMT-30" transform="translate(50 0.582813)"/>
       <use xlink:href="#TimesNewRomanPSMT-31" transform="translate(101.502813 60.695312) scale(0.7)"/>
      </g>
     </g>
    </g>
    <g id="ytick_48">
     <g id="line2d_55">
      <g>
       <use xlink:href="#m4a7cb24984" x="529.501193" y="312.095446" style="stroke: #000000; stroke-width: 0.8"/>
      </g>
     </g>
     <g id="text_20">
      <!-- $\mathdefault{10^{2}}$ -->
      <g transform="translate(509.081193 317.412009) scale(0.12 -0.12)">
       <use xlink:href="#TimesNewRomanPSMT-31" transform="translate(0 0.582813)"/>
       <use xlink:href="#TimesNewRomanPSMT-30" transform="translate(50 0.582813)"/>
       <use xlink:href="#TimesNewRomanPSMT-32" transform="translate(101.502813 60.695312) scale(0.7)"/>
      </g>
     </g>
    </g>
    <g id="ytick_49">
     <g id="line2d_56">
      <g>
       <use xlink:href="#m4a7cb24984" x="529.501193" y="199.943169" style="stroke: #000000; stroke-width: 0.8"/>
      </g>
     </g>
     <g id="text_21">
      <!-- $\mathdefault{10^{3}}$ -->
      <g transform="translate(509.081193 205.259732) scale(0.12 -0.12)">
       <use xlink:href="#TimesNewRomanPSMT-31" transform="translate(0 0.582813)"/>
       <use xlink:href="#TimesNewRomanPSMT-30" transform="translate(50 0.582813)"/>
       <use xlink:href="#TimesNewRomanPSMT-33" transform="translate(101.502813 60.695312) scale(0.7)"/>
      </g>
     </g>
    </g>
    <g id="ytick_50">
     <g id="line2d_57">
      <g>
       <use xlink:href="#m4a7cb24984" x="529.501193" y="87.790892" style="stroke: #000000; stroke-width: 0.8"/>
      </g>
     </g>
     <g id="text_22">
      <!-- $\mathdefault{10^{4}}$ -->
      <g transform="translate(509.081193 93.107455) scale(0.12 -0.12)">
       <use xlink:href="#TimesNewRomanPSMT-31" transform="translate(0 0.582813)"/>
       <use xlink:href="#TimesNewRomanPSMT-30" transform="translate(50 0.582813)"/>
       <use xlink:href="#TimesNewRomanPSMT-34" transform="translate(101.502813 60.695312) scale(0.7)"/>
      </g>
     </g>
    </g>
    <g id="ytick_51">
     <g id="line2d_58">
      <g>
       <use xlink:href="#m0bec078a7a" x="529.501193" y="561.280842" style="stroke: #000000; stroke-width: 0.6"/>
      </g>
     </g>
    </g>
    <g id="ytick_52">
     <g id="line2d_59">
      <g>
       <use xlink:href="#m0bec078a7a" x="529.501193" y="553.772608" style="stroke: #000000; stroke-width: 0.6"/>
      </g>
     </g>
    </g>
    <g id="ytick_53">
     <g id="line2d_60">
      <g>
       <use xlink:href="#m0bec078a7a" x="529.501193" y="547.268679" style="stroke: #000000; stroke-width: 0.6"/>
      </g>
     </g>
    </g>
    <g id="ytick_54">
     <g id="line2d_61">
      <g>
       <use xlink:href="#m0bec078a7a" x="529.501193" y="541.531807" style="stroke: #000000; stroke-width: 0.6"/>
      </g>
     </g>
    </g>
    <g id="ytick_55">
     <g id="line2d_62">
      <g>
       <use xlink:href="#m0bec078a7a" x="529.501193" y="502.638801" style="stroke: #000000; stroke-width: 0.6"/>
      </g>
     </g>
    </g>
    <g id="ytick_56">
     <g id="line2d_63">
      <g>
       <use xlink:href="#m0bec078a7a" x="529.501193" y="482.889765" style="stroke: #000000; stroke-width: 0.6"/>
      </g>
     </g>
    </g>
    <g id="ytick_57">
     <g id="line2d_64">
      <g>
       <use xlink:href="#m0bec078a7a" x="529.501193" y="468.877601" style="stroke: #000000; stroke-width: 0.6"/>
      </g>
     </g>
    </g>
    <g id="ytick_58">
     <g id="line2d_65">
      <g>
       <use xlink:href="#m0bec078a7a" x="529.501193" y="458.008923" style="stroke: #000000; stroke-width: 0.6"/>
      </g>
     </g>
    </g>
    <g id="ytick_59">
     <g id="line2d_66">
      <g>
       <use xlink:href="#m0bec078a7a" x="529.501193" y="449.128566" style="stroke: #000000; stroke-width: 0.6"/>
      </g>
     </g>
    </g>
    <g id="ytick_60">
     <g id="line2d_67">
      <g>
       <use xlink:href="#m0bec078a7a" x="529.501193" y="441.620331" style="stroke: #000000; stroke-width: 0.6"/>
      </g>
     </g>
    </g>
    <g id="ytick_61">
     <g id="line2d_68">
      <g>
       <use xlink:href="#m0bec078a7a" x="529.501193" y="435.116402" style="stroke: #000000; stroke-width: 0.6"/>
      </g>
     </g>
    </g>
    <g id="ytick_62">
     <g id="line2d_69">
      <g>
       <use xlink:href="#m0bec078a7a" x="529.501193" y="429.37953" style="stroke: #000000; stroke-width: 0.6"/>
      </g>
     </g>
    </g>
    <g id="ytick_63">
     <g id="line2d_70">
      <g>
       <use xlink:href="#m0bec078a7a" x="529.501193" y="390.486524" style="stroke: #000000; stroke-width: 0.6"/>
      </g>
     </g>
    </g>
    <g id="ytick_64">
     <g id="line2d_71">
      <g>
       <use xlink:href="#m0bec078a7a" x="529.501193" y="370.737488" style="stroke: #000000; stroke-width: 0.6"/>
      </g>
     </g>
    </g>
    <g id="ytick_65">
     <g id="line2d_72">
      <g>
       <use xlink:href="#m0bec078a7a" x="529.501193" y="356.725324" style="stroke: #000000; stroke-width: 0.6"/>
      </g>
     </g>
    </g>
    <g id="ytick_66">
     <g id="line2d_73">
      <g>
       <use xlink:href="#m0bec078a7a" x="529.501193" y="345.856646" style="stroke: #000000; stroke-width: 0.6"/>
      </g>
     </g>
    </g>
    <g id="ytick_67">
     <g id="line2d_74">
      <g>
       <use xlink:href="#m0bec078a7a" x="529.501193" y="336.976289" style="stroke: #000000; stroke-width: 0.6"/>
      </g>
     </g>
    </g>
    <g id="ytick_68">
     <g id="line2d_75">
      <g>
       <use xlink:href="#m0bec078a7a" x="529.501193" y="329.468054" style="stroke: #000000; stroke-width: 0.6"/>
      </g>
     </g>
    </g>
    <g id="ytick_69">
     <g id="line2d_76">
      <g>
       <use xlink:href="#m0bec078a7a" x="529.501193" y="322.964125" style="stroke: #000000; stroke-width: 0.6"/>
      </g>
     </g>
    </g>
    <g id="ytick_70">
     <g id="line2d_77">
      <g>
       <use xlink:href="#m0bec078a7a" x="529.501193" y="317.227253" style="stroke: #000000; stroke-width: 0.6"/>
      </g>
     </g>
    </g>
    <g id="ytick_71">
     <g id="line2d_78">
      <g>
       <use xlink:href="#m0bec078a7a" x="529.501193" y="278.334247" style="stroke: #000000; stroke-width: 0.6"/>
      </g>
     </g>
    </g>
    <g id="ytick_72">
     <g id="line2d_79">
      <g>
       <use xlink:href="#m0bec078a7a" x="529.501193" y="258.585211" style="stroke: #000000; stroke-width: 0.6"/>
      </g>
     </g>
    </g>
    <g id="ytick_73">
     <g id="line2d_80">
      <g>
       <use xlink:href="#m0bec078a7a" x="529.501193" y="244.573047" style="stroke: #000000; stroke-width: 0.6"/>
      </g>
     </g>
    </g>
    <g id="ytick_74">
     <g id="line2d_81">
      <g>
       <use xlink:href="#m0bec078a7a" x="529.501193" y="233.704369" style="stroke: #000000; stroke-width: 0.6"/>
      </g>
     </g>
    </g>
    <g id="ytick_75">
     <g id="line2d_82">
      <g>
       <use xlink:href="#m0bec078a7a" x="529.501193" y="224.824012" style="stroke: #000000; stroke-width: 0.6"/>
      </g>
     </g>
    </g>
    <g id="ytick_76">
     <g id="line2d_83">
      <g>
       <use xlink:href="#m0bec078a7a" x="529.501193" y="217.315777" style="stroke: #000000; stroke-width: 0.6"/>
      </g>
     </g>
    </g>
    <g id="ytick_77">
     <g id="line2d_84">
      <g>
       <use xlink:href="#m0bec078a7a" x="529.501193" y="210.811848" style="stroke: #000000; stroke-width: 0.6"/>
      </g>
     </g>
    </g>
    <g id="ytick_78">
     <g id="line2d_85">
      <g>
       <use xlink:href="#m0bec078a7a" x="529.501193" y="205.074976" style="stroke: #000000; stroke-width: 0.6"/>
      </g>
     </g>
    </g>
    <g id="ytick_79">
     <g id="line2d_86">
      <g>
       <use xlink:href="#m0bec078a7a" x="529.501193" y="166.18197" style="stroke: #000000; stroke-width: 0.6"/>
      </g>
     </g>
    </g>
    <g id="ytick_80">
     <g id="line2d_87">
      <g>
       <use xlink:href="#m0bec078a7a" x="529.501193" y="146.432934" style="stroke: #000000; stroke-width: 0.6"/>
      </g>
     </g>
    </g>
    <g id="ytick_81">
     <g id="line2d_88">
      <g>
       <use xlink:href="#m0bec078a7a" x="529.501193" y="132.42077" style="stroke: #000000; stroke-width: 0.6"/>
      </g>
     </g>
    </g>
    <g id="ytick_82">
     <g id="line2d_89">
      <g>
       <use xlink:href="#m0bec078a7a" x="529.501193" y="121.552092" style="stroke: #000000; stroke-width: 0.6"/>
      </g>
     </g>
    </g>
    <g id="ytick_83">
     <g id="line2d_90">
      <g>
       <use xlink:href="#m0bec078a7a" x="529.501193" y="112.671735" style="stroke: #000000; stroke-width: 0.6"/>
      </g>
     </g>
    </g>
    <g id="ytick_84">
     <g id="line2d_91">
      <g>
       <use xlink:href="#m0bec078a7a" x="529.501193" y="105.1635" style="stroke: #000000; stroke-width: 0.6"/>
      </g>
     </g>
    </g>
    <g id="ytick_85">
     <g id="line2d_92">
      <g>
       <use xlink:href="#m0bec078a7a" x="529.501193" y="98.659571" style="stroke: #000000; stroke-width: 0.6"/>
      </g>
     </g>
    </g>
    <g id="ytick_86">
     <g id="line2d_93">
      <g>
       <use xlink:href="#m0bec078a7a" x="529.501193" y="92.922699" style="stroke: #000000; stroke-width: 0.6"/>
      </g>
     </g>
    </g>
    <g id="ytick_87">
     <g id="line2d_94">
      <g>
       <use xlink:href="#m0bec078a7a" x="529.501193" y="54.029693" style="stroke: #000000; stroke-width: 0.6"/>
      </g>
     </g>
    </g>
    <g id="ytick_88">
     <g id="line2d_95">
      <g>
       <use xlink:href="#m0bec078a7a" x="529.501193" y="34.280657" style="stroke: #000000; stroke-width: 0.6"/>
      </g>
     </g>
    </g>
    <g id="ytick_89">
     <g id="line2d_96">
      <g>
       <use xlink:href="#m0bec078a7a" x="529.501193" y="20.268494" style="stroke: #000000; stroke-width: 0.6"/>
      </g>
     </g>
    </g>
    <g id="ytick_90">
     <g id="line2d_97">
      <g>
       <use xlink:href="#m0bec078a7a" x="529.501193" y="9.399815" style="stroke: #000000; stroke-width: 0.6"/>
      </g>
     </g>
    </g>
    <g id="text_23">
     <!-- Frequency -->
     <g transform="translate(502.491818 309.724688) rotate(-90) scale(0.12 -0.12)">
      <use xlink:href="#TimesNewRomanPSMT-46"/>
      <use xlink:href="#TimesNewRomanPSMT-72" transform="translate(55.615234 0)"/>
      <use xlink:href="#TimesNewRomanPSMT-65" transform="translate(88.916016 0)"/>
      <use xlink:href="#TimesNewRomanPSMT-71" transform="translate(133.300781 0)"/>
      <use xlink:href="#TimesNewRomanPSMT-75" transform="translate(183.300781 0)"/>
      <use xlink:href="#TimesNewRomanPSMT-65" transform="translate(233.300781 0)"/>
      <use xlink:href="#TimesNewRomanPSMT-6e" transform="translate(277.685547 0)"/>
      <use xlink:href="#TimesNewRomanPSMT-63" transform="translate(327.685547 0)"/>
      <use xlink:href="#TimesNewRomanPSMT-79" transform="translate(372.070312 0)"/>
     </g>
    </g>
   </g>
   <g id="patch_15">
    <path d="M 547.947474 599.12125 
L 547.947474 536.4 
L 552.227829 536.4 
L 552.227829 599.12125 
M 573.629605 599.12125 
L 573.629605 536.4 
L 577.90996 536.4 
L 577.90996 599.12125 
M 607.872446 599.12125 
L 607.872446 536.4 
L 612.152801 536.4 
L 612.152801 482.889765 
L 616.433157 482.889765 
L 616.433157 502.638801 
L 620.713512 502.638801 
L 620.713512 482.889765 
L 624.993867 482.889765 
L 624.993867 536.4 
L 629.274222 536.4 
L 629.274222 468.877601 
L 637.834932 468.877601 
L 637.834932 429.37953 
L 642.115288 429.37953 
L 642.115288 435.116402 
L 646.395643 435.116402 
L 646.395643 407.859131 
L 650.675998 407.859131 
L 650.675998 429.37953 
L 654.956353 429.37953 
L 654.956353 407.859131 
L 659.236708 407.859131 
L 659.236708 392.984872 
L 663.517063 392.984872 
L 663.517063 385.84424 
L 667.797418 385.84424 
L 667.797418 411.468717 
L 672.077774 411.468717 
L 672.077774 381.606167 
L 676.358129 381.606167 
L 676.358129 392.984872 
L 680.638484 392.984872 
L 680.638484 356.725324 
L 684.918839 356.725324 
L 684.918839 355.522618 
L 689.199194 355.522618 
L 689.199194 332.334005 
L 693.479549 332.334005 
L 693.479549 321.171022 
L 697.759905 321.171022 
L 697.759905 325.462473 
L 702.04026 325.462473 
L 702.04026 307.012371 
L 706.320615 307.012371 
L 706.320615 298.572805 
L 710.60097 298.572805 
L 710.60097 283.196207 
L 714.881325 283.196207 
L 714.881325 276.894523 
L 719.16168 276.894523 
L 719.16168 259.569227 
L 723.442035 259.569227 
L 723.442035 242.897453 
L 727.722391 242.897453 
L 727.722391 222.913684 
L 732.002746 222.913684 
L 732.002746 191.593352 
L 736.283101 191.593352 
L 736.283101 32.4 
L 740.563456 32.4 
L 740.563456 165.074395 
L 744.843811 165.074395 
L 744.843811 203.53028 
L 749.124166 203.53028 
L 749.124166 228.27151 
L 753.404522 228.27151 
L 753.404522 248.502148 
L 757.684877 248.502148 
L 757.684877 260.236458 
L 761.965232 260.236458 
L 761.965232 275.726431 
L 766.245587 275.726431 
L 766.245587 293.997657 
L 770.525942 293.997657 
L 770.525942 304.448247 
L 774.806297 304.448247 
L 774.806297 319.441594 
L 779.086652 319.441594 
L 779.086652 325.462473 
L 783.367008 325.462473 
L 783.367008 330.879953 
L 787.647363 330.879953 
L 787.647363 343.946318 
L 791.927718 343.946318 
L 791.927718 346.840661 
L 796.208073 346.840661 
L 796.208073 359.223673 
L 800.488428 359.223673 
L 800.488428 374.097932 
L 804.768783 374.097932 
L 804.768783 395.61833 
L 809.049139 395.61833 
L 809.049139 383.679123 
L 813.329494 383.679123 
L 813.329494 395.61833 
L 817.609849 395.61833 
L 817.609849 411.468717 
L 821.890204 411.468717 
L 821.890204 435.116402 
L 826.170559 435.116402 
L 826.170559 441.620331 
L 830.450914 441.620331 
L 830.450914 429.37953 
L 834.731269 429.37953 
L 834.731269 435.116402 
L 839.011625 435.116402 
L 839.011625 449.128566 
L 843.29198 449.128566 
L 843.29198 435.116402 
L 847.572335 435.116402 
L 847.572335 482.889765 
L 856.133045 482.889765 
L 856.133045 502.638801 
L 860.4134 502.638801 
L 860.4134 599.12125 
M 873.254466 599.12125 
L 873.254466 536.4 
L 890.375886 536.4 
L 890.375886 599.12125 
L 890.375886 599.12125 
" clip-path="url(#pf5f92f3d2b)" style="fill: none; stroke: #fb694a; stroke-width: 2; stroke-linejoin: miter"/>
   </g>
   <g id="patch_16">
    <path d="M 588.895158 599.12125 
L 588.895158 502.638801 
L 592.994882 502.638801 
L 592.994882 536.4 
L 601.194331 536.4 
L 601.194331 599.12125 
M 605.294055 599.12125 
L 605.294055 536.4 
L 609.393779 536.4 
L 609.393779 599.12125 
M 617.593227 599.12125 
L 617.593227 536.4 
L 629.8924 536.4 
L 629.8924 502.638801 
L 633.992124 502.638801 
L 633.992124 468.877601 
L 638.091848 468.877601 
L 638.091848 536.4 
L 642.191573 536.4 
L 642.191573 468.877601 
L 646.291297 468.877601 
L 646.291297 449.128566 
L 654.490745 449.128566 
L 654.490745 419.605439 
L 658.590469 419.605439 
L 658.590469 415.367366 
L 662.690194 415.367366 
L 662.690194 398.402352 
L 666.789918 398.402352 
L 666.789918 392.984872 
L 670.889642 392.984872 
L 670.889642 404.498687 
L 674.989366 404.498687 
L 674.989366 375.869295 
L 679.08909 375.869295 
L 679.08909 366.095204 
L 683.188815 366.095204 
L 683.188815 360.522606 
L 687.288539 360.522606 
L 687.288539 353.202793 
L 691.388263 353.202793 
L 691.388263 324.82577 
L 695.487987 324.82577 
L 695.487987 320.011274 
L 699.587711 320.011274 
L 699.587711 313.079462 
L 703.687436 313.079462 
L 703.687436 304.866336 
L 707.78716 304.866336 
L 707.78716 283.737403 
L 711.886884 283.737403 
L 711.886884 287.704127 
L 715.986608 287.704127 
L 715.986608 265.182004 
L 720.086332 265.182004 
L 720.086332 259.9017 
L 724.186057 259.9017 
L 724.186057 246.308344 
L 728.285781 246.308344 
L 728.285781 220.626545 
L 732.385505 220.626545 
L 732.385505 193.262996 
L 736.485229 193.262996 
L 736.485229 32.641156 
L 740.584953 32.641156 
L 740.584953 163.898406 
L 744.684678 163.898406 
L 744.684678 204.376462 
L 748.784402 204.376462 
L 748.784402 231.420805 
L 752.884126 231.420805 
L 752.884126 247.071396 
L 756.98385 247.071396 
L 756.98385 259.9017 
L 761.083574 259.9017 
L 761.083574 274.585697 
L 765.183299 274.585697 
L 765.183299 281.348019 
L 769.283023 281.348019 
L 769.283023 301.617992 
L 773.382747 301.617992 
L 773.382747 315.109219 
L 777.482471 315.109219 
L 777.482471 321.171022 
L 781.582195 321.171022 
L 781.582195 334.59986 
L 785.68192 334.59986 
L 785.68192 341.214362 
L 789.781644 341.214362 
L 789.781644 361.857131 
L 797.981092 361.857131 
L 797.981092 388.110096 
L 806.180541 388.110096 
L 806.180541 379.617845 
L 810.280265 379.617845 
L 810.280265 383.679123 
L 814.379989 383.679123 
L 814.379989 392.984872 
L 818.479713 392.984872 
L 818.479713 419.605439 
L 826.679162 419.605439 
L 826.679162 449.128566 
L 834.87861 449.128566 
L 834.87861 468.877601 
L 838.978334 468.877601 
L 838.978334 458.008923 
L 843.078058 458.008923 
L 843.078058 536.4 
L 847.177783 536.4 
L 847.177783 458.008923 
L 851.277507 458.008923 
L 851.277507 536.4 
L 859.476955 536.4 
L 859.476955 502.638801 
L 863.576679 502.638801 
L 863.576679 599.12125 
M 871.776128 599.12125 
L 871.776128 536.4 
L 879.975576 536.4 
L 879.975576 599.12125 
M 892.274749 599.12125 
L 892.274749 502.638801 
L 896.374473 502.638801 
L 896.374473 599.12125 
M 912.77337 599.12125 
L 912.77337 536.4 
L 916.873094 536.4 
L 916.873094 599.12125 
L 916.873094 599.12125 
" clip-path="url(#pf5f92f3d2b)" style="fill: none; stroke: #4682b4; stroke-width: 2; stroke-linejoin: miter"/>
   </g>
   <g id="line2d_98">
    <path d="M 739.785368 561.6 
L 739.785368 7.2 
" clip-path="url(#pf5f92f3d2b)" style="fill: none; stroke: #000000; stroke-width: 1.5; stroke-linecap: square"/>
   </g>
   <g id="patch_17">
    <path d="M 529.501193 561.6 
L 529.501193 7.2 
" style="fill: none; stroke: #000000; stroke-width: 0.8; stroke-linejoin: miter; stroke-linecap: square"/>
   </g>
   <g id="patch_18">
    <path d="M 935.319375 561.6 
L 935.319375 7.2 
" style="fill: none; stroke: #000000; stroke-width: 0.8; stroke-linejoin: miter; stroke-linecap: square"/>
   </g>
   <g id="patch_19">
    <path d="M 529.501193 561.6 
L 935.319375 561.6 
" style="fill: none; stroke: #000000; stroke-width: 0.8; stroke-linejoin: miter; stroke-linecap: square"/>
   </g>
   <g id="patch_20">
    <path d="M 529.501193 7.2 
L 935.319375 7.2 
" style="fill: none; stroke: #000000; stroke-width: 0.8; stroke-linejoin: miter; stroke-linecap: square"/>
   </g>
   <g id="legend_2">
    <g id="patch_21">
     <path d="M 848.919375 63.232125 
L 926.919375 63.232125 
Q 929.319375 63.232125 929.319375 60.832125 
L 929.319375 15.6 
Q 929.319375 13.2 926.919375 13.2 
L 848.919375 13.2 
Q 846.519375 13.2 846.519375 15.6 
L 846.519375 60.832125 
Q 846.519375 63.232125 848.919375 63.232125 
z
" style="fill: #ffffff; opacity: 0.8; stroke: #cccccc; stroke-linejoin: miter"/>
    </g>
    <g id="patch_22">
     <path d="M 851.319375 33.898875 
L 875.319375 33.898875 
L 875.319375 25.498875 
L 851.319375 25.498875 
L 851.319375 33.898875 
z
" style="fill: none; stroke: #fb694a; stroke-width: 2; stroke-linejoin: miter"/>
    </g>
    <g id="text_24">
     <!-- LIF -->
     <g transform="translate(884.919375 26.3325) scale(0.12 -0.12)">
      <use xlink:href="#TimesNewRomanPSMT-4c"/>
      <use xlink:href="#TimesNewRomanPSMT-49" transform="translate(61.083984 0)"/>
      <use xlink:href="#TimesNewRomanPSMT-46" transform="translate(94.384766 0)"/>
     </g>
     <!-- $F'$=8.65 -->
     <g transform="translate(884.919375 38.898375) scale(0.12 -0.12)">
      <use xlink:href="#DejaVuSerif-Italic-46" transform="translate(0 0.53125)"/>
      <use xlink:href="#Cmsy10-30" transform="translate(76.563776 36.865625) scale(0.7)"/>
      <use xlink:href="#TimesNewRomanPSMT-3d" transform="translate(98.402253 0.53125)"/>
      <use xlink:href="#TimesNewRomanPSMT-38" transform="translate(154.798737 0.53125)"/>
      <use xlink:href="#TimesNewRomanPSMT-2e" transform="translate(204.798737 0.53125)"/>
      <use xlink:href="#TimesNewRomanPSMT-36" transform="translate(229.798737 0.53125)"/>
      <use xlink:href="#TimesNewRomanPSMT-35" transform="translate(279.798737 0.53125)"/>
     </g>
    </g>
    <g id="patch_23">
     <path d="M 851.319375 55.86525 
L 875.319375 55.86525 
L 875.319375 47.46525 
L 851.319375 47.46525 
L 851.319375 55.86525 
z
" style="fill: none; stroke: #4682b4; stroke-width: 2; stroke-linejoin: miter"/>
    </g>
    <g id="text_25">
     <!-- QIF -->
     <g transform="translate(884.919375 55.86525) scale(0.12 -0.12)">
      <defs>
       <path id="TimesNewRomanPSMT-51" d="M 2819 -47 
Q 3138 -597 3508 -856 
Q 3878 -1116 4350 -1153 
L 4350 -1253 
Q 3919 -1238 3428 -1080 
Q 2938 -922 2498 -642 
Q 2059 -363 1741 -47 
Q 1291 134 1028 338 
Q 647 641 436 1083 
Q 225 1525 225 2128 
Q 225 3078 840 3706 
Q 1456 4334 2331 4334 
Q 3163 4334 3770 3704 
Q 4378 3075 4378 2116 
Q 4378 1338 3945 750 
Q 3513 163 2819 -47 
z
M 2294 4094 
Q 1725 4094 1378 3688 
Q 941 3178 941 2128 
Q 941 1100 1384 544 
Q 1728 116 2294 116 
Q 2881 116 3241 544 
Q 3663 1050 3663 2038 
Q 3663 2797 3431 3316 
Q 3253 3716 2958 3905 
Q 2663 4094 2294 4094 
z
" transform="scale(0.015625)"/>
      </defs>
      <use xlink:href="#TimesNewRomanPSMT-51"/>
      <use xlink:href="#TimesNewRomanPSMT-49" transform="translate(72.216797 0)"/>
      <use xlink:href="#TimesNewRomanPSMT-46" transform="translate(105.517578 0)"/>
     </g>
    </g>
   </g>
  </g>
 </g>
 <defs>
  <clipPath id="p90afee32fa">
   <rect x="42.519375" y="7.2" width="405.818182" height="554.4"/>
  </clipPath>
  <clipPath id="pf5f92f3d2b">
   <rect x="529.501193" y="7.2" width="405.818182" height="554.4"/>
  </clipPath>
 </defs>
</svg>
