<?xml version="1.0" encoding="utf-8" standalone="no"?>
<!DOCTYPE svg PUBLIC "-//W3C//DTD SVG 1.1//EN"
  "http://www.w3.org/Graphics/SVG/1.1/DTD/svg11.dtd">
<svg xmlns:xlink="http://www.w3.org/1999/xlink" width="942.519375pt" height="598.12125pt" viewBox="0 0 942.519375 598.12125" xmlns="http://www.w3.org/2000/svg" version="1.1">
 <metadata>
  <rdf:RDF xmlns:dc="http://purl.org/dc/elements/1.1/" xmlns:cc="http://creativecommons.org/ns#" xmlns:rdf="http://www.w3.org/1999/02/22-rdf-syntax-ns#">
   <cc:Work>
    <dc:type rdf:resource="http://purl.org/dc/dcmitype/StillImage"/>
    <dc:date>2026-01-21T15:48:07.938756</dc:date>
    <dc:format>image/svg+xml</dc:format>
    <dc:creator>
     <cc:Agent>
      <dc:title>Matplotlib v3.10.5, https://matplotlib.org/</dc:title>
     </cc:Agent>
    </dc:creator>
   </cc:Work>
  </rdf:RDF>
 </metadata>
 <defs>
  <style type="text/css">*{stroke-linejoin: round; stroke-linecap: butt}</style>
 </defs>
 <g id="figure_1">
  <g id="patch_1">
   <path d="M 0 598.12125 
L 942.519375 598.12125 
L 942.519375 0 
L 0 0 
z
" style="fill: #ffffff"/>
  </g>
  <g id="axes_1">
   <g id="patch_2">
    <path d="M 42.519375 561.6 
L 448.337557 561.6 
L 448.337557 7.2 
L 42.519375 7.2 
z
" style="fill: #ffffff"/>
   </g>
   <g id="matplotlib.axis_1">
    <g id="xtick_1">
     <g id="line2d_1">
      <defs>
       <path id="m2bbd85d53f" d="M 0 0 
L 0 -3.5 
" style="stroke: #000000; stroke-width: 0.8"/>
      </defs>
      <g>
       <use xlink:href="#m2bbd85d53f" x="76.799933" y="561.6" style="stroke: #000000; stroke-width: 0.8"/>
      </g>
     </g>
     <g id="text_1">
      <!-- −1 -->
      <g transform="translate(70.416496 573.4325) scale(0.12 -0.12)">
       <defs>
        <path id="TimesNewRomanPSMT-2212" d="M 3484 2000 
L 116 2000 
L 116 2256 
L 3484 2256 
L 3484 2000 
z
" transform="scale(0.015625)"/>
        <path id="TimesNewRomanPSMT-31" d="M 750 3822 
L 1781 4325 
L 1884 4325 
L 1884 747 
Q 1884 391 1914 303 
Q 1944 216 2037 169 
Q 2131 122 2419 116 
L 2419 0 
L 825 0 
L 825 116 
Q 1125 122 1212 167 
Q 1300 213 1334 289 
Q 1369 366 1369 747 
L 1369 3034 
Q 1369 3497 1338 3628 
Q 1316 3728 1258 3775 
Q 1200 3822 1119 3822 
Q 1003 3822 797 3725 
L 750 3822 
z
" transform="scale(0.015625)"/>
       </defs>
       <use xlink:href="#TimesNewRomanPSMT-2212"/>
       <use xlink:href="#TimesNewRomanPSMT-31" transform="translate(56.396484 0)"/>
      </g>
     </g>
    </g>
    <g id="xtick_2">
     <g id="line2d_2">
      <g>
       <use xlink:href="#m2bbd85d53f" x="211.726761" y="561.6" style="stroke: #000000; stroke-width: 0.8"/>
      </g>
     </g>
     <g id="text_2">
      <!-- 0 -->
      <g transform="translate(208.726761 573.4325) scale(0.12 -0.12)">
       <defs>
        <path id="TimesNewRomanPSMT-30" d="M 231 2094 
Q 231 2819 450 3342 
Q 669 3866 1031 4122 
Q 1313 4325 1613 4325 
Q 2100 4325 2488 3828 
Q 2972 3213 2972 2159 
Q 2972 1422 2759 906 
Q 2547 391 2217 158 
Q 1888 -75 1581 -75 
Q 975 -75 572 641 
Q 231 1244 231 2094 
z
M 844 2016 
Q 844 1141 1059 588 
Q 1238 122 1591 122 
Q 1759 122 1940 273 
Q 2122 425 2216 781 
Q 2359 1319 2359 2297 
Q 2359 3022 2209 3506 
Q 2097 3866 1919 4016 
Q 1791 4119 1609 4119 
Q 1397 4119 1231 3928 
Q 1006 3669 925 3112 
Q 844 2556 844 2016 
z
" transform="scale(0.015625)"/>
       </defs>
       <use xlink:href="#TimesNewRomanPSMT-30"/>
      </g>
     </g>
    </g>
    <g id="xtick_3">
     <g id="line2d_3">
      <g>
       <use xlink:href="#m2bbd85d53f" x="346.65359" y="561.6" style="stroke: #000000; stroke-width: 0.8"/>
      </g>
     </g>
     <g id="text_3">
      <!-- 1 -->
      <g transform="translate(343.65359 573.4325) scale(0.12 -0.12)">
       <use xlink:href="#TimesNewRomanPSMT-31"/>
      </g>
     </g>
    </g>
    <g id="text_4">
     <!-- Weights -->
     <g transform="translate(225.912528 588.331875) scale(0.12 -0.12)">
      <defs>
       <path id="TimesNewRomanPSMT-57" d="M 5991 4238 
L 5991 4122 
Q 5825 4122 5722 4062 
Q 5619 4003 5525 3841 
Q 5463 3731 5328 3319 
L 4147 -97 
L 4022 -97 
L 3056 2613 
L 2097 -97 
L 1984 -97 
L 725 3422 
Q 584 3816 547 3888 
Q 484 4006 376 4064 
Q 269 4122 84 4122 
L 84 4238 
L 1653 4238 
L 1653 4122 
L 1578 4122 
Q 1413 4122 1325 4047 
Q 1238 3972 1238 3866 
Q 1238 3756 1375 3363 
L 2209 984 
L 2913 3006 
L 2788 3363 
L 2688 3647 
Q 2622 3803 2541 3922 
Q 2500 3981 2441 4022 
Q 2363 4078 2284 4103 
Q 2225 4122 2097 4122 
L 2097 4238 
L 3747 4238 
L 3747 4122 
L 3634 4122 
Q 3459 4122 3378 4047 
Q 3297 3972 3297 3844 
Q 3297 3684 3438 3288 
L 4250 984 
L 5056 3319 
Q 5194 3706 5194 3856 
Q 5194 3928 5148 3990 
Q 5103 4053 5034 4078 
Q 4916 4122 4725 4122 
L 4725 4238 
L 5991 4238 
z
" transform="scale(0.015625)"/>
       <path id="TimesNewRomanPSMT-65" d="M 681 1784 
Q 678 1147 991 784 
Q 1303 422 1725 422 
Q 2006 422 2214 576 
Q 2422 731 2563 1106 
L 2659 1044 
Q 2594 616 2278 264 
Q 1963 -88 1488 -88 
Q 972 -88 605 314 
Q 238 716 238 1394 
Q 238 2128 614 2539 
Q 991 2950 1559 2950 
Q 2041 2950 2350 2633 
Q 2659 2316 2659 1784 
L 681 1784 
z
M 681 1966 
L 2006 1966 
Q 1991 2241 1941 2353 
Q 1863 2528 1708 2628 
Q 1553 2728 1384 2728 
Q 1125 2728 920 2526 
Q 716 2325 681 1966 
z
" transform="scale(0.015625)"/>
       <path id="TimesNewRomanPSMT-69" d="M 928 4444 
Q 1059 4444 1151 4351 
Q 1244 4259 1244 4128 
Q 1244 3997 1151 3903 
Q 1059 3809 928 3809 
Q 797 3809 703 3903 
Q 609 3997 609 4128 
Q 609 4259 701 4351 
Q 794 4444 928 4444 
z
M 1188 2947 
L 1188 647 
Q 1188 378 1227 289 
Q 1266 200 1342 156 
Q 1419 113 1622 113 
L 1622 0 
L 231 0 
L 231 113 
Q 441 113 512 153 
Q 584 194 626 287 
Q 669 381 669 647 
L 669 1750 
Q 669 2216 641 2353 
Q 619 2453 572 2492 
Q 525 2531 444 2531 
Q 356 2531 231 2484 
L 188 2597 
L 1050 2947 
L 1188 2947 
z
" transform="scale(0.015625)"/>
       <path id="TimesNewRomanPSMT-67" d="M 966 1044 
Q 703 1172 562 1401 
Q 422 1631 422 1909 
Q 422 2334 742 2640 
Q 1063 2947 1563 2947 
Q 1972 2947 2272 2747 
L 2878 2747 
Q 3013 2747 3034 2739 
Q 3056 2731 3066 2713 
Q 3084 2684 3084 2613 
Q 3084 2531 3069 2500 
Q 3059 2484 3036 2475 
Q 3013 2466 2878 2466 
L 2506 2466 
Q 2681 2241 2681 1891 
Q 2681 1491 2375 1206 
Q 2069 922 1553 922 
Q 1341 922 1119 984 
Q 981 866 932 777 
Q 884 688 884 625 
Q 884 572 936 522 
Q 988 472 1138 450 
Q 1225 438 1575 428 
Q 2219 413 2409 384 
Q 2700 344 2873 169 
Q 3047 -6 3047 -263 
Q 3047 -616 2716 -925 
Q 2228 -1381 1444 -1381 
Q 841 -1381 425 -1109 
Q 191 -953 191 -784 
Q 191 -709 225 -634 
Q 278 -519 444 -313 
Q 466 -284 763 25 
Q 600 122 533 198 
Q 466 275 466 372 
Q 466 481 555 628 
Q 644 775 966 1044 
z
M 1509 2797 
Q 1278 2797 1122 2612 
Q 966 2428 966 2047 
Q 966 1553 1178 1281 
Q 1341 1075 1591 1075 
Q 1828 1075 1981 1253 
Q 2134 1431 2134 1813 
Q 2134 2309 1919 2591 
Q 1759 2797 1509 2797 
z
M 934 0 
Q 788 -159 713 -296 
Q 638 -434 638 -550 
Q 638 -700 819 -813 
Q 1131 -1006 1722 -1006 
Q 2284 -1006 2551 -807 
Q 2819 -609 2819 -384 
Q 2819 -222 2659 -153 
Q 2497 -84 2016 -72 
Q 1313 -53 934 0 
z
" transform="scale(0.015625)"/>
       <path id="TimesNewRomanPSMT-68" d="M 1041 4444 
L 1041 2350 
Q 1388 2731 1591 2839 
Q 1794 2947 1997 2947 
Q 2241 2947 2416 2812 
Q 2591 2678 2675 2391 
Q 2734 2191 2734 1659 
L 2734 647 
Q 2734 375 2778 275 
Q 2809 200 2884 156 
Q 2959 113 3159 113 
L 3159 0 
L 1753 0 
L 1753 113 
L 1819 113 
Q 2019 113 2097 173 
Q 2175 234 2206 353 
Q 2216 403 2216 647 
L 2216 1659 
Q 2216 2128 2167 2275 
Q 2119 2422 2012 2495 
Q 1906 2569 1756 2569 
Q 1603 2569 1437 2487 
Q 1272 2406 1041 2159 
L 1041 647 
Q 1041 353 1073 281 
Q 1106 209 1195 161 
Q 1284 113 1503 113 
L 1503 0 
L 84 0 
L 84 113 
Q 275 113 384 172 
Q 447 203 484 290 
Q 522 378 522 647 
L 522 3238 
Q 522 3728 498 3840 
Q 475 3953 426 3993 
Q 378 4034 297 4034 
Q 231 4034 84 3984 
L 41 4094 
L 897 4444 
L 1041 4444 
z
" transform="scale(0.015625)"/>
       <path id="TimesNewRomanPSMT-74" d="M 1031 3803 
L 1031 2863 
L 1700 2863 
L 1700 2644 
L 1031 2644 
L 1031 788 
Q 1031 509 1111 412 
Q 1191 316 1316 316 
Q 1419 316 1516 380 
Q 1613 444 1666 569 
L 1788 569 
Q 1678 263 1478 108 
Q 1278 -47 1066 -47 
Q 922 -47 784 33 
Q 647 113 581 261 
Q 516 409 516 719 
L 516 2644 
L 63 2644 
L 63 2747 
Q 234 2816 414 2980 
Q 594 3144 734 3369 
Q 806 3488 934 3803 
L 1031 3803 
z
" transform="scale(0.015625)"/>
       <path id="TimesNewRomanPSMT-73" d="M 2050 2947 
L 2050 1972 
L 1947 1972 
Q 1828 2431 1642 2597 
Q 1456 2763 1169 2763 
Q 950 2763 815 2647 
Q 681 2531 681 2391 
Q 681 2216 781 2091 
Q 878 1963 1175 1819 
L 1631 1597 
Q 2266 1288 2266 781 
Q 2266 391 1970 151 
Q 1675 -88 1309 -88 
Q 1047 -88 709 6 
Q 606 38 541 38 
Q 469 38 428 -44 
L 325 -44 
L 325 978 
L 428 978 
Q 516 541 762 319 
Q 1009 97 1316 97 
Q 1531 97 1667 223 
Q 1803 350 1803 528 
Q 1803 744 1651 891 
Q 1500 1038 1047 1263 
Q 594 1488 453 1669 
Q 313 1847 313 2119 
Q 313 2472 555 2709 
Q 797 2947 1181 2947 
Q 1350 2947 1591 2875 
Q 1750 2828 1803 2828 
Q 1853 2828 1881 2850 
Q 1909 2872 1947 2947 
L 2050 2947 
z
" transform="scale(0.015625)"/>
      </defs>
      <use xlink:href="#TimesNewRomanPSMT-57"/>
      <use xlink:href="#TimesNewRomanPSMT-65" transform="translate(86.384766 0)"/>
      <use xlink:href="#TimesNewRomanPSMT-69" transform="translate(130.769531 0)"/>
      <use xlink:href="#TimesNewRomanPSMT-67" transform="translate(158.552734 0)"/>
      <use xlink:href="#TimesNewRomanPSMT-68" transform="translate(208.552734 0)"/>
      <use xlink:href="#TimesNewRomanPSMT-74" transform="translate(258.552734 0)"/>
      <use xlink:href="#TimesNewRomanPSMT-73" transform="translate(286.335938 0)"/>
     </g>
    </g>
   </g>
   <g id="matplotlib.axis_2">
    <g id="ytick_1">
     <g id="line2d_4">
      <defs>
       <path id="m66c2319361" d="M 0 0 
L 3.5 0 
" style="stroke: #000000; stroke-width: 0.8"/>
      </defs>
      <g>
       <use xlink:href="#m66c2319361" x="42.519375" y="536.4" style="stroke: #000000; stroke-width: 0.8"/>
      </g>
     </g>
     <g id="text_5">
      <!-- $\mathdefault{10^{0}}$ -->
      <g transform="translate(22.099375 541.716563) scale(0.12 -0.12)">
       <use xlink:href="#TimesNewRomanPSMT-31" transform="translate(0 0.582813)"/>
       <use xlink:href="#TimesNewRomanPSMT-30" transform="translate(50 0.582813)"/>
       <use xlink:href="#TimesNewRomanPSMT-30" transform="translate(101.502813 60.695312) scale(0.7)"/>
      </g>
     </g>
    </g>
    <g id="ytick_2">
     <g id="line2d_5">
      <g>
       <use xlink:href="#m66c2319361" x="42.519375" y="423.323768" style="stroke: #000000; stroke-width: 0.8"/>
      </g>
     </g>
     <g id="text_6">
      <!-- $\mathdefault{10^{1}}$ -->
      <g transform="translate(22.099375 428.640331) scale(0.12 -0.12)">
       <use xlink:href="#TimesNewRomanPSMT-31" transform="translate(0 0.582813)"/>
       <use xlink:href="#TimesNewRomanPSMT-30" transform="translate(50 0.582813)"/>
       <use xlink:href="#TimesNewRomanPSMT-31" transform="translate(101.502813 60.695312) scale(0.7)"/>
      </g>
     </g>
    </g>
    <g id="ytick_3">
     <g id="line2d_6">
      <g>
       <use xlink:href="#m66c2319361" x="42.519375" y="310.247536" style="stroke: #000000; stroke-width: 0.8"/>
      </g>
     </g>
     <g id="text_7">
      <!-- $\mathdefault{10^{2}}$ -->
      <g transform="translate(22.099375 315.564099) scale(0.12 -0.12)">
       <defs>
        <path id="TimesNewRomanPSMT-32" d="M 2934 816 
L 2638 0 
L 138 0 
L 138 116 
Q 1241 1122 1691 1759 
Q 2141 2397 2141 2925 
Q 2141 3328 1894 3587 
Q 1647 3847 1303 3847 
Q 991 3847 742 3664 
Q 494 3481 375 3128 
L 259 3128 
Q 338 3706 661 4015 
Q 984 4325 1469 4325 
Q 1984 4325 2329 3994 
Q 2675 3663 2675 3213 
Q 2675 2891 2525 2569 
Q 2294 2063 1775 1497 
Q 997 647 803 472 
L 1909 472 
Q 2247 472 2383 497 
Q 2519 522 2628 598 
Q 2738 675 2819 816 
L 2934 816 
z
" transform="scale(0.015625)"/>
       </defs>
       <use xlink:href="#TimesNewRomanPSMT-31" transform="translate(0 0.582813)"/>
       <use xlink:href="#TimesNewRomanPSMT-30" transform="translate(50 0.582813)"/>
       <use xlink:href="#TimesNewRomanPSMT-32" transform="translate(101.502813 60.695312) scale(0.7)"/>
      </g>
     </g>
    </g>
    <g id="ytick_4">
     <g id="line2d_7">
      <g>
       <use xlink:href="#m66c2319361" x="42.519375" y="197.171304" style="stroke: #000000; stroke-width: 0.8"/>
      </g>
     </g>
     <g id="text_8">
      <!-- $\mathdefault{10^{3}}$ -->
      <g transform="translate(22.099375 202.487867) scale(0.12 -0.12)">
       <defs>
        <path id="TimesNewRomanPSMT-33" d="M 325 3431 
Q 506 3859 782 4092 
Q 1059 4325 1472 4325 
Q 1981 4325 2253 3994 
Q 2459 3747 2459 3466 
Q 2459 3003 1878 2509 
Q 2269 2356 2469 2072 
Q 2669 1788 2669 1403 
Q 2669 853 2319 450 
Q 1863 -75 997 -75 
Q 569 -75 414 31 
Q 259 138 259 259 
Q 259 350 332 419 
Q 406 488 509 488 
Q 588 488 669 463 
Q 722 447 909 348 
Q 1097 250 1169 231 
Q 1284 197 1416 197 
Q 1734 197 1970 444 
Q 2206 691 2206 1028 
Q 2206 1275 2097 1509 
Q 2016 1684 1919 1775 
Q 1784 1900 1550 2001 
Q 1316 2103 1072 2103 
L 972 2103 
L 972 2197 
Q 1219 2228 1467 2375 
Q 1716 2522 1828 2728 
Q 1941 2934 1941 3181 
Q 1941 3503 1739 3701 
Q 1538 3900 1238 3900 
Q 753 3900 428 3381 
L 325 3431 
z
" transform="scale(0.015625)"/>
       </defs>
       <use xlink:href="#TimesNewRomanPSMT-31" transform="translate(0 0.582813)"/>
       <use xlink:href="#TimesNewRomanPSMT-30" transform="translate(50 0.582813)"/>
       <use xlink:href="#TimesNewRomanPSMT-33" transform="translate(101.502813 60.695312) scale(0.7)"/>
      </g>
     </g>
    </g>
    <g id="ytick_5">
     <g id="line2d_8">
      <g>
       <use xlink:href="#m66c2319361" x="42.519375" y="84.095072" style="stroke: #000000; stroke-width: 0.8"/>
      </g>
     </g>
     <g id="text_9">
      <!-- $\mathdefault{10^{4}}$ -->
      <g transform="translate(22.099375 89.411635) scale(0.12 -0.12)">
       <defs>
        <path id="TimesNewRomanPSMT-34" d="M 2978 1563 
L 2978 1119 
L 2409 1119 
L 2409 0 
L 1894 0 
L 1894 1119 
L 100 1119 
L 100 1519 
L 2066 4325 
L 2409 4325 
L 2409 1563 
L 2978 1563 
z
M 1894 1563 
L 1894 3666 
L 406 1563 
L 1894 1563 
z
" transform="scale(0.015625)"/>
       </defs>
       <use xlink:href="#TimesNewRomanPSMT-31" transform="translate(0 0.582813)"/>
       <use xlink:href="#TimesNewRomanPSMT-30" transform="translate(50 0.582813)"/>
       <use xlink:href="#TimesNewRomanPSMT-34" transform="translate(101.502813 60.695312) scale(0.7)"/>
      </g>
     </g>
    </g>
    <g id="ytick_6">
     <g id="line2d_9">
      <defs>
       <path id="m9375d8fb48" d="M 0 0 
L 2 0 
" style="stroke: #000000; stroke-width: 0.6"/>
      </defs>
      <g>
       <use xlink:href="#m9375d8fb48" x="42.519375" y="561.485821" style="stroke: #000000; stroke-width: 0.6"/>
      </g>
     </g>
    </g>
    <g id="ytick_7">
     <g id="line2d_10">
      <g>
       <use xlink:href="#m9375d8fb48" x="42.519375" y="553.91573" style="stroke: #000000; stroke-width: 0.6"/>
      </g>
     </g>
    </g>
    <g id="ytick_8">
     <g id="line2d_11">
      <g>
       <use xlink:href="#m9375d8fb48" x="42.519375" y="547.358219" style="stroke: #000000; stroke-width: 0.6"/>
      </g>
     </g>
    </g>
    <g id="ytick_9">
     <g id="line2d_12">
      <g>
       <use xlink:href="#m9375d8fb48" x="42.519375" y="541.574085" style="stroke: #000000; stroke-width: 0.6"/>
      </g>
     </g>
    </g>
    <g id="ytick_10">
     <g id="line2d_13">
      <g>
       <use xlink:href="#m9375d8fb48" x="42.519375" y="502.360662" style="stroke: #000000; stroke-width: 0.6"/>
      </g>
     </g>
    </g>
    <g id="ytick_11">
     <g id="line2d_14">
      <g>
       <use xlink:href="#m9375d8fb48" x="42.519375" y="482.448926" style="stroke: #000000; stroke-width: 0.6"/>
      </g>
     </g>
    </g>
    <g id="ytick_12">
     <g id="line2d_15">
      <g>
       <use xlink:href="#m9375d8fb48" x="42.519375" y="468.321325" style="stroke: #000000; stroke-width: 0.6"/>
      </g>
     </g>
    </g>
    <g id="ytick_13">
     <g id="line2d_16">
      <g>
       <use xlink:href="#m9375d8fb48" x="42.519375" y="457.363106" style="stroke: #000000; stroke-width: 0.6"/>
      </g>
     </g>
    </g>
    <g id="ytick_14">
     <g id="line2d_17">
      <g>
       <use xlink:href="#m9375d8fb48" x="42.519375" y="448.409589" style="stroke: #000000; stroke-width: 0.6"/>
      </g>
     </g>
    </g>
    <g id="ytick_15">
     <g id="line2d_18">
      <g>
       <use xlink:href="#m9375d8fb48" x="42.519375" y="440.839498" style="stroke: #000000; stroke-width: 0.6"/>
      </g>
     </g>
    </g>
    <g id="ytick_16">
     <g id="line2d_19">
      <g>
       <use xlink:href="#m9375d8fb48" x="42.519375" y="434.281987" style="stroke: #000000; stroke-width: 0.6"/>
      </g>
     </g>
    </g>
    <g id="ytick_17">
     <g id="line2d_20">
      <g>
       <use xlink:href="#m9375d8fb48" x="42.519375" y="428.497853" style="stroke: #000000; stroke-width: 0.6"/>
      </g>
     </g>
    </g>
    <g id="ytick_18">
     <g id="line2d_21">
      <g>
       <use xlink:href="#m9375d8fb48" x="42.519375" y="389.28443" style="stroke: #000000; stroke-width: 0.6"/>
      </g>
     </g>
    </g>
    <g id="ytick_19">
     <g id="line2d_22">
      <g>
       <use xlink:href="#m9375d8fb48" x="42.519375" y="369.372694" style="stroke: #000000; stroke-width: 0.6"/>
      </g>
     </g>
    </g>
    <g id="ytick_20">
     <g id="line2d_23">
      <g>
       <use xlink:href="#m9375d8fb48" x="42.519375" y="355.245093" style="stroke: #000000; stroke-width: 0.6"/>
      </g>
     </g>
    </g>
    <g id="ytick_21">
     <g id="line2d_24">
      <g>
       <use xlink:href="#m9375d8fb48" x="42.519375" y="344.286874" style="stroke: #000000; stroke-width: 0.6"/>
      </g>
     </g>
    </g>
    <g id="ytick_22">
     <g id="line2d_25">
      <g>
       <use xlink:href="#m9375d8fb48" x="42.519375" y="335.333357" style="stroke: #000000; stroke-width: 0.6"/>
      </g>
     </g>
    </g>
    <g id="ytick_23">
     <g id="line2d_26">
      <g>
       <use xlink:href="#m9375d8fb48" x="42.519375" y="327.763266" style="stroke: #000000; stroke-width: 0.6"/>
      </g>
     </g>
    </g>
    <g id="ytick_24">
     <g id="line2d_27">
      <g>
       <use xlink:href="#m9375d8fb48" x="42.519375" y="321.205755" style="stroke: #000000; stroke-width: 0.6"/>
      </g>
     </g>
    </g>
    <g id="ytick_25">
     <g id="line2d_28">
      <g>
       <use xlink:href="#m9375d8fb48" x="42.519375" y="315.421621" style="stroke: #000000; stroke-width: 0.6"/>
      </g>
     </g>
    </g>
    <g id="ytick_26">
     <g id="line2d_29">
      <g>
       <use xlink:href="#m9375d8fb48" x="42.519375" y="276.208199" style="stroke: #000000; stroke-width: 0.6"/>
      </g>
     </g>
    </g>
    <g id="ytick_27">
     <g id="line2d_30">
      <g>
       <use xlink:href="#m9375d8fb48" x="42.519375" y="256.296462" style="stroke: #000000; stroke-width: 0.6"/>
      </g>
     </g>
    </g>
    <g id="ytick_28">
     <g id="line2d_31">
      <g>
       <use xlink:href="#m9375d8fb48" x="42.519375" y="242.168861" style="stroke: #000000; stroke-width: 0.6"/>
      </g>
     </g>
    </g>
    <g id="ytick_29">
     <g id="line2d_32">
      <g>
       <use xlink:href="#m9375d8fb48" x="42.519375" y="231.210642" style="stroke: #000000; stroke-width: 0.6"/>
      </g>
     </g>
    </g>
    <g id="ytick_30">
     <g id="line2d_33">
      <g>
       <use xlink:href="#m9375d8fb48" x="42.519375" y="222.257125" style="stroke: #000000; stroke-width: 0.6"/>
      </g>
     </g>
    </g>
    <g id="ytick_31">
     <g id="line2d_34">
      <g>
       <use xlink:href="#m9375d8fb48" x="42.519375" y="214.687034" style="stroke: #000000; stroke-width: 0.6"/>
      </g>
     </g>
    </g>
    <g id="ytick_32">
     <g id="line2d_35">
      <g>
       <use xlink:href="#m9375d8fb48" x="42.519375" y="208.129523" style="stroke: #000000; stroke-width: 0.6"/>
      </g>
     </g>
    </g>
    <g id="ytick_33">
     <g id="line2d_36">
      <g>
       <use xlink:href="#m9375d8fb48" x="42.519375" y="202.345389" style="stroke: #000000; stroke-width: 0.6"/>
      </g>
     </g>
    </g>
    <g id="ytick_34">
     <g id="line2d_37">
      <g>
       <use xlink:href="#m9375d8fb48" x="42.519375" y="163.131967" style="stroke: #000000; stroke-width: 0.6"/>
      </g>
     </g>
    </g>
    <g id="ytick_35">
     <g id="line2d_38">
      <g>
       <use xlink:href="#m9375d8fb48" x="42.519375" y="143.220231" style="stroke: #000000; stroke-width: 0.6"/>
      </g>
     </g>
    </g>
    <g id="ytick_36">
     <g id="line2d_39">
      <g>
       <use xlink:href="#m9375d8fb48" x="42.519375" y="129.092629" style="stroke: #000000; stroke-width: 0.6"/>
      </g>
     </g>
    </g>
    <g id="ytick_37">
     <g id="line2d_40">
      <g>
       <use xlink:href="#m9375d8fb48" x="42.519375" y="118.13441" style="stroke: #000000; stroke-width: 0.6"/>
      </g>
     </g>
    </g>
    <g id="ytick_38">
     <g id="line2d_41">
      <g>
       <use xlink:href="#m9375d8fb48" x="42.519375" y="109.180893" style="stroke: #000000; stroke-width: 0.6"/>
      </g>
     </g>
    </g>
    <g id="ytick_39">
     <g id="line2d_42">
      <g>
       <use xlink:href="#m9375d8fb48" x="42.519375" y="101.610802" style="stroke: #000000; stroke-width: 0.6"/>
      </g>
     </g>
    </g>
    <g id="ytick_40">
     <g id="line2d_43">
      <g>
       <use xlink:href="#m9375d8fb48" x="42.519375" y="95.053291" style="stroke: #000000; stroke-width: 0.6"/>
      </g>
     </g>
    </g>
    <g id="ytick_41">
     <g id="line2d_44">
      <g>
       <use xlink:href="#m9375d8fb48" x="42.519375" y="89.269157" style="stroke: #000000; stroke-width: 0.6"/>
      </g>
     </g>
    </g>
    <g id="ytick_42">
     <g id="line2d_45">
      <g>
       <use xlink:href="#m9375d8fb48" x="42.519375" y="50.055735" style="stroke: #000000; stroke-width: 0.6"/>
      </g>
     </g>
    </g>
    <g id="ytick_43">
     <g id="line2d_46">
      <g>
       <use xlink:href="#m9375d8fb48" x="42.519375" y="30.143999" style="stroke: #000000; stroke-width: 0.6"/>
      </g>
     </g>
    </g>
    <g id="ytick_44">
     <g id="line2d_47">
      <g>
       <use xlink:href="#m9375d8fb48" x="42.519375" y="16.016397" style="stroke: #000000; stroke-width: 0.6"/>
      </g>
     </g>
    </g>
    <g id="text_10">
     <!-- Frequency -->
     <g transform="translate(15.51 309.724688) rotate(-90) scale(0.12 -0.12)">
      <defs>
       <path id="TimesNewRomanPSMT-46" d="M 1309 4006 
L 1309 2341 
L 2081 2341 
Q 2347 2341 2470 2458 
Q 2594 2575 2634 2922 
L 2750 2922 
L 2750 1488 
L 2634 1488 
Q 2631 1734 2570 1850 
Q 2509 1966 2401 2023 
Q 2294 2081 2081 2081 
L 1309 2081 
L 1309 750 
Q 1309 428 1350 325 
Q 1381 247 1481 191 
Q 1619 116 1769 116 
L 1922 116 
L 1922 0 
L 103 0 
L 103 116 
L 253 116 
Q 516 116 634 269 
Q 709 369 709 750 
L 709 3488 
Q 709 3809 669 3913 
Q 638 3991 541 4047 
Q 406 4122 253 4122 
L 103 4122 
L 103 4238 
L 3256 4238 
L 3297 3306 
L 3188 3306 
Q 3106 3603 2998 3742 
Q 2891 3881 2733 3943 
Q 2575 4006 2244 4006 
L 1309 4006 
z
" transform="scale(0.015625)"/>
       <path id="TimesNewRomanPSMT-72" d="M 1038 2947 
L 1038 2303 
Q 1397 2947 1775 2947 
Q 1947 2947 2059 2842 
Q 2172 2738 2172 2600 
Q 2172 2478 2090 2393 
Q 2009 2309 1897 2309 
Q 1788 2309 1652 2417 
Q 1516 2525 1450 2525 
Q 1394 2525 1328 2463 
Q 1188 2334 1038 2041 
L 1038 669 
Q 1038 431 1097 309 
Q 1138 225 1241 169 
Q 1344 113 1538 113 
L 1538 0 
L 72 0 
L 72 113 
Q 291 113 397 181 
Q 475 231 506 341 
Q 522 394 522 644 
L 522 1753 
Q 522 2253 501 2348 
Q 481 2444 426 2487 
Q 372 2531 291 2531 
Q 194 2531 72 2484 
L 41 2597 
L 906 2947 
L 1038 2947 
z
" transform="scale(0.015625)"/>
       <path id="TimesNewRomanPSMT-71" d="M 2734 2947 
L 2734 -734 
Q 2734 -1009 2771 -1087 
Q 2809 -1166 2889 -1209 
Q 2969 -1253 3200 -1253 
L 3200 -1369 
L 1756 -1369 
L 1756 -1253 
L 1816 -1253 
Q 1991 -1253 2081 -1203 
Q 2144 -1169 2181 -1080 
Q 2219 -991 2219 -734 
L 2219 497 
Q 1934 159 1721 35 
Q 1509 -88 1281 -88 
Q 866 -88 539 290 
Q 213 669 213 1303 
Q 213 2031 644 2489 
Q 1075 2947 1684 2947 
Q 1863 2947 2013 2897 
Q 2163 2847 2281 2747 
Q 2463 2834 2628 2947 
L 2734 2947 
z
M 2219 694 
L 2219 2038 
Q 2219 2272 2158 2406 
Q 2097 2541 1940 2634 
Q 1784 2728 1588 2728 
Q 1238 2728 988 2431 
Q 738 2134 738 1531 
Q 738 953 992 653 
Q 1247 353 1606 353 
Q 1791 353 1934 433 
Q 2078 513 2219 694 
z
" transform="scale(0.015625)"/>
       <path id="TimesNewRomanPSMT-75" d="M 2709 2863 
L 2709 1128 
Q 2709 631 2732 520 
Q 2756 409 2807 365 
Q 2859 322 2928 322 
Q 3025 322 3147 375 
L 3191 266 
L 2334 -88 
L 2194 -88 
L 2194 519 
Q 1825 119 1631 15 
Q 1438 -88 1222 -88 
Q 981 -88 804 51 
Q 628 191 559 409 
Q 491 628 491 1028 
L 491 2306 
Q 491 2509 447 2587 
Q 403 2666 317 2708 
Q 231 2750 6 2747 
L 6 2863 
L 1009 2863 
L 1009 947 
Q 1009 547 1148 422 
Q 1288 297 1484 297 
Q 1619 297 1789 381 
Q 1959 466 2194 703 
L 2194 2325 
Q 2194 2569 2105 2655 
Q 2016 2741 1734 2747 
L 1734 2863 
L 2709 2863 
z
" transform="scale(0.015625)"/>
       <path id="TimesNewRomanPSMT-6e" d="M 1034 2341 
Q 1538 2947 1994 2947 
Q 2228 2947 2397 2830 
Q 2566 2713 2666 2444 
Q 2734 2256 2734 1869 
L 2734 647 
Q 2734 375 2778 278 
Q 2813 200 2889 156 
Q 2966 113 3172 113 
L 3172 0 
L 1756 0 
L 1756 113 
L 1816 113 
Q 2016 113 2095 173 
Q 2175 234 2206 353 
Q 2219 400 2219 647 
L 2219 1819 
Q 2219 2209 2117 2386 
Q 2016 2563 1775 2563 
Q 1403 2563 1034 2156 
L 1034 647 
Q 1034 356 1069 288 
Q 1113 197 1189 155 
Q 1266 113 1500 113 
L 1500 0 
L 84 0 
L 84 113 
L 147 113 
Q 366 113 442 223 
Q 519 334 519 647 
L 519 1709 
Q 519 2225 495 2337 
Q 472 2450 423 2490 
Q 375 2531 294 2531 
Q 206 2531 84 2484 
L 38 2597 
L 900 2947 
L 1034 2947 
L 1034 2341 
z
" transform="scale(0.015625)"/>
       <path id="TimesNewRomanPSMT-63" d="M 2631 1088 
Q 2516 522 2178 217 
Q 1841 -88 1431 -88 
Q 944 -88 581 321 
Q 219 731 219 1428 
Q 219 2103 620 2525 
Q 1022 2947 1584 2947 
Q 2006 2947 2278 2723 
Q 2550 2500 2550 2259 
Q 2550 2141 2473 2067 
Q 2397 1994 2259 1994 
Q 2075 1994 1981 2113 
Q 1928 2178 1911 2362 
Q 1894 2547 1784 2644 
Q 1675 2738 1481 2738 
Q 1169 2738 978 2506 
Q 725 2200 725 1697 
Q 725 1184 976 792 
Q 1228 400 1656 400 
Q 1963 400 2206 609 
Q 2378 753 2541 1131 
L 2631 1088 
z
" transform="scale(0.015625)"/>
       <path id="TimesNewRomanPSMT-79" d="M 38 2863 
L 1372 2863 
L 1372 2747 
L 1306 2747 
Q 1166 2747 1095 2686 
Q 1025 2625 1025 2534 
Q 1025 2413 1128 2197 
L 1825 753 
L 2466 2334 
Q 2519 2463 2519 2588 
Q 2519 2644 2497 2672 
Q 2472 2706 2419 2726 
Q 2366 2747 2231 2747 
L 2231 2863 
L 3163 2863 
L 3163 2747 
Q 3047 2734 2984 2696 
Q 2922 2659 2847 2556 
Q 2819 2513 2741 2316 
L 1575 -541 
Q 1406 -956 1132 -1168 
Q 859 -1381 606 -1381 
Q 422 -1381 303 -1275 
Q 184 -1169 184 -1031 
Q 184 -900 270 -820 
Q 356 -741 506 -741 
Q 609 -741 788 -809 
Q 913 -856 944 -856 
Q 1038 -856 1148 -759 
Q 1259 -663 1372 -384 
L 1575 113 
L 547 2272 
Q 500 2369 397 2513 
Q 319 2622 269 2659 
Q 197 2709 38 2747 
L 38 2863 
z
" transform="scale(0.015625)"/>
      </defs>
      <use xlink:href="#TimesNewRomanPSMT-46"/>
      <use xlink:href="#TimesNewRomanPSMT-72" transform="translate(55.615234 0)"/>
      <use xlink:href="#TimesNewRomanPSMT-65" transform="translate(88.916016 0)"/>
      <use xlink:href="#TimesNewRomanPSMT-71" transform="translate(133.300781 0)"/>
      <use xlink:href="#TimesNewRomanPSMT-75" transform="translate(183.300781 0)"/>
      <use xlink:href="#TimesNewRomanPSMT-65" transform="translate(233.300781 0)"/>
      <use xlink:href="#TimesNewRomanPSMT-6e" transform="translate(277.685547 0)"/>
      <use xlink:href="#TimesNewRomanPSMT-63" transform="translate(327.685547 0)"/>
      <use xlink:href="#TimesNewRomanPSMT-79" transform="translate(372.070312 0)"/>
     </g>
    </g>
   </g>
   <g id="patch_3">
    <path d="M 123.0584 599.12125 
L 123.0584 482.448926 
L 125.976944 482.448926 
L 125.976944 599.12125 
M 128.895488 599.12125 
L 128.895488 536.4 
L 131.814031 536.4 
L 131.814031 468.321325 
L 134.732575 468.321325 
L 134.732575 428.497853 
L 137.651119 428.497853 
L 137.651119 482.448926 
L 140.569662 482.448926 
L 140.569662 448.409589 
L 143.488206 448.409589 
L 143.488206 414.370251 
L 146.40675 414.370251 
L 146.40675 389.28443 
L 149.325294 389.28443 
L 149.325294 371.037545 
L 152.243837 371.037545 
L 152.243837 374.546779 
L 155.162381 374.546779 
L 155.162381 356.488409 
L 158.080925 356.488409 
L 158.080925 339.606345 
L 160.999469 339.606345 
L 160.999469 342.360808 
L 163.918012 342.360808 
L 163.918012 318.228578 
L 166.836556 318.228578 
L 166.836556 314.878981 
L 169.7551 314.878981 
L 169.7551 303.81295 
L 172.673643 303.81295 
L 172.673643 302.95887 
L 175.592187 302.95887 
L 175.592187 285.358543 
L 178.510731 285.358543 
L 178.510731 280.302935 
L 181.429275 280.302935 
L 181.429275 272.428766 
L 184.347818 272.428766 
L 184.347818 271.304956 
L 187.266362 271.304956 
L 187.266362 266.644632 
L 190.184906 266.644632 
L 190.184906 255.646011 
L 193.103449 255.646011 
L 193.103449 259.684591 
L 196.021993 259.684591 
L 196.021993 248.726372 
L 198.940537 248.726372 
L 198.940537 241.680216 
L 201.859081 241.680216 
L 201.859081 232.605294 
L 204.777624 232.605294 
L 204.777624 227.979912 
L 207.696168 227.979912 
L 207.696168 219.395633 
L 210.614712 219.395633 
L 210.614712 32.4 
L 213.533255 32.4 
L 213.533255 223.668621 
L 216.451799 223.668621 
L 216.451799 223.921975 
L 219.370343 223.921975 
L 219.370343 225.295726 
L 222.288887 225.295726 
L 222.288887 227.979912 
L 225.20743 227.979912 
L 225.20743 231.50618 
L 228.125974 231.50618 
L 228.125974 236.275718 
L 231.044518 236.275718 
L 231.044518 246.531218 
L 233.963062 246.531218 
L 233.963062 252.668834 
L 236.881605 252.668834 
L 236.881605 259.684591 
L 239.800149 259.684591 
L 239.800149 258.301165 
L 242.718693 258.301165 
L 242.718693 263.323914 
L 245.637236 263.323914 
L 245.637236 269.989474 
L 248.55578 269.989474 
L 248.55578 273.812192 
L 251.474324 273.812192 
L 251.474324 283.33018 
L 254.392868 283.33018 
L 254.392868 288.409734 
L 257.311411 288.409734 
L 257.311411 285.655271 
L 260.229955 285.655271 
L 260.229955 300.081405 
L 263.148499 300.081405 
L 263.148499 295.14746 
L 266.067042 295.14746 
L 266.067042 305.567007 
L 268.985586 305.567007 
L 268.985586 307.85153 
L 271.90413 307.85153 
L 271.90413 314.878981 
L 274.822674 314.878981 
L 274.822674 319.993141 
L 277.741217 319.993141 
L 277.741217 332.163974 
L 280.659761 332.163974 
L 280.659761 339.606345 
L 283.578305 339.606345 
L 283.578305 337.852288 
L 286.496848 337.852288 
L 286.496848 366.203312 
L 289.415392 366.203312 
L 289.415392 371.037545 
L 292.333936 371.037545 
L 292.333936 376.400146 
L 295.25248 376.400146 
L 295.25248 406.80016 
L 298.171023 406.80016 
L 298.171023 386.888424 
L 301.089567 386.888424 
L 301.089567 410.439483 
L 306.926655 410.439483 
L 306.926655 418.643239 
L 309.845198 418.643239 
L 309.845198 502.360662 
L 312.763742 502.360662 
L 312.763742 468.321325 
L 315.682286 468.321325 
L 315.682286 482.448926 
L 318.600829 482.448926 
L 318.600829 502.360662 
L 321.519373 502.360662 
L 321.519373 536.4 
L 324.437917 536.4 
L 324.437917 502.360662 
L 330.275004 502.360662 
L 330.275004 599.12125 
M 333.193548 599.12125 
L 333.193548 536.4 
L 336.112092 536.4 
L 336.112092 599.12125 
M 353.623354 599.12125 
L 353.623354 536.4 
L 356.541898 536.4 
L 356.541898 599.12125 
L 356.541898 599.12125 
" clip-path="url(#pf78c879022)" style="fill: none; stroke: #67000d; stroke-width: 2; stroke-linejoin: miter"/>
   </g>
   <g id="patch_4">
    <path d="M 88.517405 599.12125 
L 88.517405 536.4 
L 91.928365 536.4 
L 91.928365 599.12125 
M 95.339325 599.12125 
L 95.339325 536.4 
L 102.161245 536.4 
L 102.161245 502.360662 
L 108.983166 502.360662 
L 108.983166 482.448926 
L 112.394126 482.448926 
L 112.394126 457.363106 
L 115.805086 457.363106 
L 115.805086 440.839498 
L 119.216046 440.839498 
L 119.216046 457.363106 
L 122.627006 457.363106 
L 122.627006 448.409589 
L 126.037966 448.409589 
L 126.037966 414.370251 
L 129.448927 414.370251 
L 129.448927 440.839498 
L 132.859887 440.839498 
L 132.859887 386.888424 
L 136.270847 386.888424 
L 136.270847 400.24265 
L 139.681807 400.24265 
L 139.681807 378.326211 
L 143.092767 378.326211 
L 143.092767 355.245093 
L 146.503727 355.245093 
L 146.503727 361.802604 
L 149.914687 361.802604 
L 149.914687 351.693542 
L 153.325647 351.693542 
L 153.325647 318.228578 
L 156.736608 318.228578 
L 156.736608 316.525226 
L 160.147568 316.525226 
L 160.147568 305.122584 
L 163.558528 305.122584 
L 163.558528 296.98694 
L 166.969488 296.98694 
L 166.969488 290.3358 
L 170.380448 290.3358 
L 170.380448 283.047134 
L 173.791408 283.047134 
L 173.791408 277.957792 
L 177.202368 277.957792 
L 177.202368 269.773612 
L 180.613328 269.773612 
L 180.613328 266.442954 
L 184.024289 266.442954 
L 184.024289 261.652768 
L 187.435249 261.652768 
L 187.435249 260.748352 
L 190.846209 260.748352 
L 190.846209 250.294552 
L 194.257169 250.294552 
L 194.257169 248.446551 
L 197.668129 248.446551 
L 197.668129 239.772855 
L 201.079089 239.772855 
L 201.079089 230.916872 
L 204.490049 230.916872 
L 204.490049 223.332836 
L 207.90101 223.332836 
L 207.90101 229.663793 
L 211.31197 229.663793 
L 211.31197 32.472037 
L 214.72293 32.472037 
L 214.72293 229.473819 
L 218.13389 229.473819 
L 218.13389 231.308957 
L 221.54485 231.308957 
L 221.54485 226.88857 
L 224.95581 226.88857 
L 224.95581 231.704198 
L 231.77773 231.803507 
L 231.77773 245.338243 
L 235.188691 245.338243 
L 235.188691 246.531218 
L 238.599651 246.531218 
L 238.599651 246.263597 
L 242.010611 246.263597 
L 242.010611 256.296462 
L 245.421571 256.296462 
L 245.421571 253.589643 
L 248.832531 253.589643 
L 248.832531 261.289 
L 252.243491 261.289 
L 252.243491 270.862535 
L 255.654451 270.862535 
L 255.654451 279.2468 
L 259.065412 279.2468 
L 259.065412 278.212901 
L 262.476372 278.212901 
L 262.476372 277.200321 
L 265.887332 277.200321 
L 265.887332 281.930986 
L 269.298292 281.930986 
L 269.298292 295.875004 
L 272.709252 295.875004 
L 272.709252 295.509885 
L 276.120212 295.509885 
L 276.120212 301.294019 
L 279.531172 301.294019 
L 279.531172 310.741092 
L 282.942132 310.741092 
L 282.942132 320.595705 
L 286.353093 320.595705 
L 286.353093 319.993141 
L 289.764053 319.993141 
L 289.764053 329.914342 
L 293.175013 329.914342 
L 293.175013 348.38161 
L 296.585973 348.38161 
L 296.585973 357.764024 
L 299.996933 357.764024 
L 299.996933 366.203312 
L 303.407893 366.203312 
L 303.407893 364.692166 
L 306.818853 364.692166 
L 306.818853 403.412032 
L 310.229814 403.412032 
L 310.229814 374.546779 
L 313.640774 374.546779 
L 313.640774 394.458515 
L 317.051734 394.458515 
L 317.051734 418.643239 
L 320.462694 418.643239 
L 320.462694 457.363106 
L 323.873654 457.363106 
L 323.873654 440.839498 
L 327.284614 440.839498 
L 327.284614 482.448926 
L 330.695574 482.448926 
L 330.695574 457.363106 
L 337.517495 457.363106 
L 337.517495 536.4 
L 340.928455 536.4 
L 340.928455 599.12125 
M 344.339415 599.12125 
L 344.339415 536.4 
L 351.161335 536.4 
L 351.161335 599.12125 
M 357.983255 599.12125 
L 357.983255 536.4 
L 361.394215 536.4 
L 361.394215 599.12125 
L 361.394215 599.12125 
" clip-path="url(#pf78c879022)" style="fill: none; stroke: #ca181d; stroke-width: 2; stroke-linejoin: miter"/>
   </g>
   <g id="patch_5">
    <path d="M 60.965656 599.12125 
L 60.965656 536.4 
L 65.577226 536.4 
L 65.577226 599.12125 
M 74.800367 599.12125 
L 74.800367 536.4 
L 79.411937 536.4 
L 79.411937 599.12125 
M 84.023507 599.12125 
L 84.023507 502.360662 
L 88.635077 502.360662 
L 88.635077 468.321325 
L 93.246648 468.321325 
L 93.246648 434.281987 
L 97.858218 434.281987 
L 97.858218 414.370251 
L 102.469788 414.370251 
L 102.469788 372.760823 
L 107.081358 372.760823 
L 107.081358 400.24265 
L 111.692929 400.24265 
L 111.692929 376.400146 
L 116.304499 376.400146 
L 116.304499 348.38161 
L 120.916069 348.38161 
L 120.916069 351.693542 
L 125.527639 351.693542 
L 125.527639 339.606345 
L 130.13921 339.606345 
L 130.13921 331.402589 
L 134.75078 331.402589 
L 134.75078 323.724686 
L 139.36235 323.724686 
L 139.36235 307.85153 
L 143.97392 307.85153 
L 143.97392 303.384053 
L 148.585491 303.384053 
L 148.585491 288.725545 
L 153.197061 288.725545 
L 153.197061 285.953803 
L 157.808631 285.953803 
L 157.808631 280.302935 
L 162.420201 280.302935 
L 162.420201 271.52767 
L 167.031772 271.52767 
L 167.031772 271.304956 
L 171.643342 271.304956 
L 171.643342 265.053938 
L 176.254912 265.053938 
L 176.254912 256.296462 
L 180.866482 256.296462 
L 180.866482 254.844877 
L 185.478053 254.844877 
L 185.478053 256.296462 
L 190.089623 256.296462 
L 190.089623 243.28642 
L 194.701193 243.28642 
L 194.701193 237.043909 
L 199.312763 237.043909 
L 199.312763 226.88857 
L 203.924334 226.88857 
L 203.924334 228.441895 
L 208.535904 228.441895 
L 208.535904 32.499507 
L 213.147474 32.499507 
L 213.147474 227.796329 
L 217.759044 227.796329 
L 217.759044 234.040714 
L 222.370615 234.040714 
L 222.370615 228.25658 
L 226.982185 228.25658 
L 226.982185 229.284576 
L 231.593755 229.284576 
L 231.593755 231.50618 
L 236.205325 231.50618 
L 236.205325 233.729573 
L 240.816896 233.729573 
L 240.816896 247.342946 
L 245.428466 247.342946 
L 245.428466 246.531218 
L 250.040036 246.531218 
L 250.040036 251.914466 
L 254.651606 251.914466 
L 254.651606 253.744804 
L 259.263177 253.744804 
L 259.263177 256.624948 
L 263.874747 256.624948 
L 263.874747 260.927907 
L 268.486317 260.927907 
L 268.486317 268.708313 
L 273.097887 268.708313 
L 273.097887 271.304956 
L 277.709458 271.304956 
L 277.709458 272.201937 
L 282.321028 272.201937 
L 282.321028 280.570556 
L 286.932598 280.570556 
L 286.932598 285.063597 
L 291.544168 285.063597 
L 291.544168 291.663134 
L 296.155739 291.663134 
L 296.155739 302.95887 
L 300.767309 302.95887 
L 300.767309 310.741092 
L 309.990449 310.741092 
L 309.990449 330.652828 
L 314.60202 330.652828 
L 314.60202 336.998207 
L 319.21359 336.998207 
L 319.21359 348.38161 
L 323.82516 348.38161 
L 323.82516 342.360808 
L 328.43673 342.360808 
L 328.43673 361.802604 
L 333.048301 361.802604 
L 333.048301 386.888424 
L 337.659871 386.888424 
L 337.659871 406.80016 
L 342.271441 406.80016 
L 342.271441 414.370251 
L 346.883011 414.370251 
L 346.883011 418.643239 
L 351.494582 418.643239 
L 351.494582 457.363106 
L 356.106152 457.363106 
L 356.106152 468.321325 
L 360.717722 468.321325 
L 360.717722 482.448926 
L 365.329292 482.448926 
L 365.329292 536.4 
L 374.552433 536.4 
L 374.552433 502.360662 
L 379.164003 502.360662 
L 379.164003 536.4 
L 383.775573 536.4 
L 383.775573 599.12125 
M 388.387144 599.12125 
L 388.387144 502.360662 
L 392.998714 502.360662 
L 392.998714 599.12125 
M 425.279706 599.12125 
L 425.279706 536.4 
L 429.891276 536.4 
L 429.891276 599.12125 
L 429.891276 599.12125 
" clip-path="url(#pf78c879022)" style="fill: none; stroke: #fcbba1; stroke-width: 2; stroke-linejoin: miter"/>
   </g>
   <g id="line2d_48">
    <path d="M 211.726761 561.6 
L 211.726761 7.2 
" clip-path="url(#pf78c879022)" style="fill: none; stroke: #000000; stroke-width: 1.5; stroke-linecap: square"/>
   </g>
   <g id="patch_6">
    <path d="M 42.519375 561.6 
L 42.519375 7.2 
" style="fill: none; stroke: #000000; stroke-width: 0.8; stroke-linejoin: miter; stroke-linecap: square"/>
   </g>
   <g id="patch_7">
    <path d="M 448.337557 561.6 
L 448.337557 7.2 
" style="fill: none; stroke: #000000; stroke-width: 0.8; stroke-linejoin: miter; stroke-linecap: square"/>
   </g>
   <g id="patch_8">
    <path d="M 42.519375 561.6 
L 448.337557 561.6 
" style="fill: none; stroke: #000000; stroke-width: 0.8; stroke-linejoin: miter; stroke-linecap: square"/>
   </g>
   <g id="patch_9">
    <path d="M 42.519375 7.2 
L 448.337557 7.2 
" style="fill: none; stroke: #000000; stroke-width: 0.8; stroke-linejoin: miter; stroke-linecap: square"/>
   </g>
   <g id="legend_1">
    <g id="patch_10">
     <path d="M 355.937557 80.199 
L 439.937557 80.199 
Q 442.337557 80.199 442.337557 77.799 
L 442.337557 15.6 
Q 442.337557 13.2 439.937557 13.2 
L 355.937557 13.2 
Q 353.537557 13.2 353.537557 15.6 
L 353.537557 77.799 
Q 353.537557 80.199 355.937557 80.199 
z
" style="fill: #ffffff; opacity: 0.8; stroke: #cccccc; stroke-linejoin: miter"/>
    </g>
    <g id="patch_11">
     <path d="M 358.337557 33.898875 
L 382.337557 33.898875 
L 382.337557 25.498875 
L 358.337557 25.498875 
L 358.337557 33.898875 
z
" style="fill: none; stroke: #67000d; stroke-width: 2; stroke-linejoin: miter"/>
    </g>
    <g id="text_11">
     <!-- LIF -->
     <g transform="translate(391.937557 26.3325) scale(0.12 -0.12)">
      <defs>
       <path id="TimesNewRomanPSMT-4c" d="M 3669 1172 
L 3772 1150 
L 3409 0 
L 128 0 
L 128 116 
L 288 116 
Q 556 116 672 291 
Q 738 391 738 753 
L 738 3488 
Q 738 3884 650 3984 
Q 528 4122 288 4122 
L 128 4122 
L 128 4238 
L 2047 4238 
L 2047 4122 
Q 1709 4125 1573 4059 
Q 1438 3994 1388 3894 
Q 1338 3794 1338 3416 
L 1338 753 
Q 1338 494 1388 397 
Q 1425 331 1503 300 
Q 1581 269 1991 269 
L 2300 269 
Q 2788 269 2984 341 
Q 3181 413 3343 595 
Q 3506 778 3669 1172 
z
" transform="scale(0.015625)"/>
       <path id="TimesNewRomanPSMT-49" d="M 1975 116 
L 1975 0 
L 159 0 
L 159 116 
L 309 116 
Q 572 116 691 269 
Q 766 369 766 750 
L 766 3488 
Q 766 3809 725 3913 
Q 694 3991 597 4047 
Q 459 4122 309 4122 
L 159 4122 
L 159 4238 
L 1975 4238 
L 1975 4122 
L 1822 4122 
Q 1563 4122 1444 3969 
Q 1366 3869 1366 3488 
L 1366 750 
Q 1366 428 1406 325 
Q 1438 247 1538 191 
Q 1672 116 1822 116 
L 1975 116 
z
" transform="scale(0.015625)"/>
      </defs>
      <use xlink:href="#TimesNewRomanPSMT-4c"/>
      <use xlink:href="#TimesNewRomanPSMT-49" transform="translate(61.083984 0)"/>
      <use xlink:href="#TimesNewRomanPSMT-46" transform="translate(94.384766 0)"/>
     </g>
     <!-- $F'$=14.44 -->
     <g transform="translate(391.937557 38.898375) scale(0.12 -0.12)">
      <defs>
       <path id="DejaVuSerif-Italic-46" d="M -97 0 
L -34 331 
L 559 331 
L 1338 4331 
L 744 4331 
L 809 4666 
L 4628 4666 
L 4428 3628 
L 4044 3628 
L 4169 4281 
L 1963 4281 
L 1659 2719 
L 3253 2719 
L 3366 3303 
L 3750 3303 
L 3450 1753 
L 3066 1753 
L 3178 2338 
L 1584 2338 
L 1194 331 
L 1941 331 
L 1878 0 
L -97 0 
z
" transform="scale(0.015625)"/>
       <path id="Cmsy10-30" d="M 225 347 
Q 184 359 184 409 
L 966 3316 
Q 1003 3434 1093 3506 
Q 1184 3578 1300 3578 
Q 1450 3578 1564 3479 
Q 1678 3381 1678 3231 
Q 1678 3166 1644 3084 
L 488 319 
Q 466 275 428 275 
Q 394 275 320 306 
Q 247 338 225 347 
z
" transform="scale(0.015625)"/>
       <path id="TimesNewRomanPSMT-3d" d="M 116 2759 
L 3488 2759 
L 3488 2503 
L 116 2503 
L 116 2759 
z
M 116 1741 
L 3488 1741 
L 3488 1484 
L 116 1484 
L 116 1741 
z
" transform="scale(0.015625)"/>
       <path id="TimesNewRomanPSMT-2e" d="M 800 606 
Q 947 606 1047 504 
Q 1147 403 1147 259 
Q 1147 116 1045 14 
Q 944 -88 800 -88 
Q 656 -88 554 14 
Q 453 116 453 259 
Q 453 406 554 506 
Q 656 606 800 606 
z
" transform="scale(0.015625)"/>
      </defs>
      <use xlink:href="#DejaVuSerif-Italic-46" transform="translate(0 0.53125)"/>
      <use xlink:href="#Cmsy10-30" transform="translate(76.563776 36.865625) scale(0.7)"/>
      <use xlink:href="#TimesNewRomanPSMT-3d" transform="translate(98.402253 0.53125)"/>
      <use xlink:href="#TimesNewRomanPSMT-31" transform="translate(154.798737 0.53125)"/>
      <use xlink:href="#TimesNewRomanPSMT-34" transform="translate(204.798737 0.53125)"/>
      <use xlink:href="#TimesNewRomanPSMT-2e" transform="translate(254.798737 0.53125)"/>
      <use xlink:href="#TimesNewRomanPSMT-34" transform="translate(279.798737 0.53125)"/>
      <use xlink:href="#TimesNewRomanPSMT-34" transform="translate(329.798737 0.53125)"/>
     </g>
    </g>
    <g id="patch_12">
     <path d="M 358.337557 55.86525 
L 382.337557 55.86525 
L 382.337557 47.46525 
L 358.337557 47.46525 
L 358.337557 55.86525 
z
" style="fill: none; stroke: #ca181d; stroke-width: 2; stroke-linejoin: miter"/>
    </g>
    <g id="text_12">
     <!-- $F'$=10.68 -->
     <g transform="translate(391.937557 55.86525) scale(0.12 -0.12)">
      <defs>
       <path id="TimesNewRomanPSMT-36" d="M 2869 4325 
L 2869 4209 
Q 2456 4169 2195 4045 
Q 1934 3922 1679 3669 
Q 1425 3416 1258 3105 
Q 1091 2794 978 2366 
Q 1428 2675 1881 2675 
Q 2316 2675 2634 2325 
Q 2953 1975 2953 1425 
Q 2953 894 2631 456 
Q 2244 -75 1606 -75 
Q 1172 -75 869 213 
Q 275 772 275 1663 
Q 275 2231 503 2743 
Q 731 3256 1154 3653 
Q 1578 4050 1965 4187 
Q 2353 4325 2688 4325 
L 2869 4325 
z
M 925 2138 
Q 869 1716 869 1456 
Q 869 1156 980 804 
Q 1091 453 1309 247 
Q 1469 100 1697 100 
Q 1969 100 2183 356 
Q 2397 613 2397 1088 
Q 2397 1622 2184 2012 
Q 1972 2403 1581 2403 
Q 1463 2403 1327 2353 
Q 1191 2303 925 2138 
z
" transform="scale(0.015625)"/>
       <path id="TimesNewRomanPSMT-38" d="M 1228 2134 
Q 725 2547 579 2797 
Q 434 3047 434 3316 
Q 434 3728 753 4026 
Q 1072 4325 1600 4325 
Q 2113 4325 2425 4047 
Q 2738 3769 2738 3413 
Q 2738 3175 2569 2928 
Q 2400 2681 1866 2347 
Q 2416 1922 2594 1678 
Q 2831 1359 2831 1006 
Q 2831 559 2490 242 
Q 2150 -75 1597 -75 
Q 994 -75 656 303 
Q 388 606 388 966 
Q 388 1247 577 1523 
Q 766 1800 1228 2134 
z
M 1719 2469 
Q 2094 2806 2194 3001 
Q 2294 3197 2294 3444 
Q 2294 3772 2109 3958 
Q 1925 4144 1606 4144 
Q 1288 4144 1088 3959 
Q 888 3775 888 3528 
Q 888 3366 970 3203 
Q 1053 3041 1206 2894 
L 1719 2469 
z
M 1375 2016 
Q 1116 1797 991 1539 
Q 866 1281 866 981 
Q 866 578 1086 336 
Q 1306 94 1647 94 
Q 1984 94 2187 284 
Q 2391 475 2391 747 
Q 2391 972 2272 1150 
Q 2050 1481 1375 2016 
z
" transform="scale(0.015625)"/>
      </defs>
      <use xlink:href="#DejaVuSerif-Italic-46" transform="translate(0 0.53125)"/>
      <use xlink:href="#Cmsy10-30" transform="translate(76.563776 36.865625) scale(0.7)"/>
      <use xlink:href="#TimesNewRomanPSMT-3d" transform="translate(98.402253 0.53125)"/>
      <use xlink:href="#TimesNewRomanPSMT-31" transform="translate(154.798737 0.53125)"/>
      <use xlink:href="#TimesNewRomanPSMT-30" transform="translate(204.798737 0.53125)"/>
      <use xlink:href="#TimesNewRomanPSMT-2e" transform="translate(254.798737 0.53125)"/>
      <use xlink:href="#TimesNewRomanPSMT-36" transform="translate(279.798737 0.53125)"/>
      <use xlink:href="#TimesNewRomanPSMT-38" transform="translate(329.798737 0.53125)"/>
     </g>
    </g>
    <g id="patch_13">
     <path d="M 358.337557 72.832125 
L 382.337557 72.832125 
L 382.337557 64.432125 
L 358.337557 64.432125 
L 358.337557 72.832125 
z
" style="fill: none; stroke: #fcbba1; stroke-width: 2; stroke-linejoin: miter"/>
    </g>
    <g id="text_13">
     <!-- $F'$=7.18 -->
     <g transform="translate(391.937557 72.832125) scale(0.12 -0.12)">
      <defs>
       <path id="TimesNewRomanPSMT-37" d="M 644 4238 
L 2916 4238 
L 2916 4119 
L 1503 -88 
L 1153 -88 
L 2419 3728 
L 1253 3728 
Q 900 3728 750 3644 
Q 488 3500 328 3200 
L 238 3234 
L 644 4238 
z
" transform="scale(0.015625)"/>
      </defs>
      <use xlink:href="#DejaVuSerif-Italic-46" transform="translate(0 0.53125)"/>
      <use xlink:href="#Cmsy10-30" transform="translate(76.563776 36.865625) scale(0.7)"/>
      <use xlink:href="#TimesNewRomanPSMT-3d" transform="translate(98.402253 0.53125)"/>
      <use xlink:href="#TimesNewRomanPSMT-37" transform="translate(154.798737 0.53125)"/>
      <use xlink:href="#TimesNewRomanPSMT-2e" transform="translate(204.798737 0.53125)"/>
      <use xlink:href="#TimesNewRomanPSMT-31" transform="translate(229.798737 0.53125)"/>
      <use xlink:href="#TimesNewRomanPSMT-38" transform="translate(279.798737 0.53125)"/>
     </g>
    </g>
   </g>
  </g>
  <g id="axes_2">
   <g id="patch_14">
    <path d="M 529.501193 561.6 
L 935.319375 561.6 
L 935.319375 7.2 
L 529.501193 7.2 
z
" style="fill: #ffffff"/>
   </g>
   <g id="matplotlib.axis_3">
    <g id="xtick_4">
     <g id="line2d_49">
      <g>
       <use xlink:href="#m2bbd85d53f" x="557.459598" y="561.6" style="stroke: #000000; stroke-width: 0.8"/>
      </g>
     </g>
     <g id="text_14">
      <!-- −1 -->
      <g transform="translate(551.07616 573.4325) scale(0.12 -0.12)">
       <use xlink:href="#TimesNewRomanPSMT-2212"/>
       <use xlink:href="#TimesNewRomanPSMT-31" transform="translate(56.396484 0)"/>
      </g>
     </g>
    </g>
    <g id="xtick_5">
     <g id="line2d_50">
      <g>
       <use xlink:href="#m2bbd85d53f" x="714.256125" y="561.6" style="stroke: #000000; stroke-width: 0.8"/>
      </g>
     </g>
     <g id="text_15">
      <!-- 0 -->
      <g transform="translate(711.256125 573.4325) scale(0.12 -0.12)">
       <use xlink:href="#TimesNewRomanPSMT-30"/>
      </g>
     </g>
    </g>
    <g id="xtick_6">
     <g id="line2d_51">
      <g>
       <use xlink:href="#m2bbd85d53f" x="871.052652" y="561.6" style="stroke: #000000; stroke-width: 0.8"/>
      </g>
     </g>
     <g id="text_16">
      <!-- 1 -->
      <g transform="translate(868.052652 573.4325) scale(0.12 -0.12)">
       <use xlink:href="#TimesNewRomanPSMT-31"/>
      </g>
     </g>
    </g>
    <g id="text_17">
     <!-- Weights -->
     <g transform="translate(712.894347 588.331875) scale(0.12 -0.12)">
      <use xlink:href="#TimesNewRomanPSMT-57"/>
      <use xlink:href="#TimesNewRomanPSMT-65" transform="translate(86.384766 0)"/>
      <use xlink:href="#TimesNewRomanPSMT-69" transform="translate(130.769531 0)"/>
      <use xlink:href="#TimesNewRomanPSMT-67" transform="translate(158.552734 0)"/>
      <use xlink:href="#TimesNewRomanPSMT-68" transform="translate(208.552734 0)"/>
      <use xlink:href="#TimesNewRomanPSMT-74" transform="translate(258.552734 0)"/>
      <use xlink:href="#TimesNewRomanPSMT-73" transform="translate(286.335938 0)"/>
     </g>
    </g>
   </g>
   <g id="matplotlib.axis_4">
    <g id="ytick_45">
     <g id="line2d_52">
      <g>
       <use xlink:href="#m66c2319361" x="529.501193" y="536.4" style="stroke: #000000; stroke-width: 0.8"/>
      </g>
     </g>
     <g id="text_18">
      <!-- $\mathdefault{10^{0}}$ -->
      <g transform="translate(509.081193 541.716563) scale(0.12 -0.12)">
       <use xlink:href="#TimesNewRomanPSMT-31" transform="translate(0 0.582813)"/>
       <use xlink:href="#TimesNewRomanPSMT-30" transform="translate(50 0.582813)"/>
       <use xlink:href="#TimesNewRomanPSMT-30" transform="translate(101.502813 60.695312) scale(0.7)"/>
      </g>
     </g>
    </g>
    <g id="ytick_46">
     <g id="line2d_53">
      <g>
       <use xlink:href="#m66c2319361" x="529.501193" y="423.362141" style="stroke: #000000; stroke-width: 0.8"/>
      </g>
     </g>
     <g id="text_19">
      <!-- $\mathdefault{10^{1}}$ -->
      <g transform="translate(509.081193 428.678703) scale(0.12 -0.12)">
       <use xlink:href="#TimesNewRomanPSMT-31" transform="translate(0 0.582813)"/>
       <use xlink:href="#TimesNewRomanPSMT-30" transform="translate(50 0.582813)"/>
       <use xlink:href="#TimesNewRomanPSMT-31" transform="translate(101.502813 60.695312) scale(0.7)"/>
      </g>
     </g>
    </g>
    <g id="ytick_47">
     <g id="line2d_54">
      <g>
       <use xlink:href="#m66c2319361" x="529.501193" y="310.324281" style="stroke: #000000; stroke-width: 0.8"/>
      </g>
     </g>
     <g id="text_20">
      <!-- $\mathdefault{10^{2}}$ -->
      <g transform="translate(509.081193 315.640844) scale(0.12 -0.12)">
       <use xlink:href="#TimesNewRomanPSMT-31" transform="translate(0 0.582813)"/>
       <use xlink:href="#TimesNewRomanPSMT-30" transform="translate(50 0.582813)"/>
       <use xlink:href="#TimesNewRomanPSMT-32" transform="translate(101.502813 60.695312) scale(0.7)"/>
      </g>
     </g>
    </g>
    <g id="ytick_48">
     <g id="line2d_55">
      <g>
       <use xlink:href="#m66c2319361" x="529.501193" y="197.286422" style="stroke: #000000; stroke-width: 0.8"/>
      </g>
     </g>
     <g id="text_21">
      <!-- $\mathdefault{10^{3}}$ -->
      <g transform="translate(509.081193 202.602985) scale(0.12 -0.12)">
       <use xlink:href="#TimesNewRomanPSMT-31" transform="translate(0 0.582813)"/>
       <use xlink:href="#TimesNewRomanPSMT-30" transform="translate(50 0.582813)"/>
       <use xlink:href="#TimesNewRomanPSMT-33" transform="translate(101.502813 60.695312) scale(0.7)"/>
      </g>
     </g>
    </g>
    <g id="ytick_49">
     <g id="line2d_56">
      <g>
       <use xlink:href="#m66c2319361" x="529.501193" y="84.248563" style="stroke: #000000; stroke-width: 0.8"/>
      </g>
     </g>
     <g id="text_22">
      <!-- $\mathdefault{10^{4}}$ -->
      <g transform="translate(509.081193 89.565125) scale(0.12 -0.12)">
       <use xlink:href="#TimesNewRomanPSMT-31" transform="translate(0 0.582813)"/>
       <use xlink:href="#TimesNewRomanPSMT-30" transform="translate(50 0.582813)"/>
       <use xlink:href="#TimesNewRomanPSMT-34" transform="translate(101.502813 60.695312) scale(0.7)"/>
      </g>
     </g>
    </g>
    <g id="ytick_50">
     <g id="line2d_57">
      <g>
       <use xlink:href="#m9375d8fb48" x="529.501193" y="561.477308" style="stroke: #000000; stroke-width: 0.6"/>
      </g>
     </g>
    </g>
    <g id="ytick_51">
     <g id="line2d_58">
      <g>
       <use xlink:href="#m9375d8fb48" x="529.501193" y="553.909786" style="stroke: #000000; stroke-width: 0.6"/>
      </g>
     </g>
    </g>
    <g id="ytick_52">
     <g id="line2d_59">
      <g>
       <use xlink:href="#m9375d8fb48" x="529.501193" y="547.3545" style="stroke: #000000; stroke-width: 0.6"/>
      </g>
     </g>
    </g>
    <g id="ytick_53">
     <g id="line2d_60">
      <g>
       <use xlink:href="#m9375d8fb48" x="529.501193" y="541.572329" style="stroke: #000000; stroke-width: 0.6"/>
      </g>
     </g>
    </g>
    <g id="ytick_54">
     <g id="line2d_61">
      <g>
       <use xlink:href="#m9375d8fb48" x="529.501193" y="502.372214" style="stroke: #000000; stroke-width: 0.6"/>
      </g>
     </g>
    </g>
    <g id="ytick_55">
     <g id="line2d_62">
      <g>
       <use xlink:href="#m9375d8fb48" x="529.501193" y="482.467235" style="stroke: #000000; stroke-width: 0.6"/>
      </g>
     </g>
    </g>
    <g id="ytick_56">
     <g id="line2d_63">
      <g>
       <use xlink:href="#m9375d8fb48" x="529.501193" y="468.344427" style="stroke: #000000; stroke-width: 0.6"/>
      </g>
     </g>
    </g>
    <g id="ytick_57">
     <g id="line2d_64">
      <g>
       <use xlink:href="#m9375d8fb48" x="529.501193" y="457.389927" style="stroke: #000000; stroke-width: 0.6"/>
      </g>
     </g>
    </g>
    <g id="ytick_58">
     <g id="line2d_65">
      <g>
       <use xlink:href="#m9375d8fb48" x="529.501193" y="448.439448" style="stroke: #000000; stroke-width: 0.6"/>
      </g>
     </g>
    </g>
    <g id="ytick_59">
     <g id="line2d_66">
      <g>
       <use xlink:href="#m9375d8fb48" x="529.501193" y="440.871927" style="stroke: #000000; stroke-width: 0.6"/>
      </g>
     </g>
    </g>
    <g id="ytick_60">
     <g id="line2d_67">
      <g>
       <use xlink:href="#m9375d8fb48" x="529.501193" y="434.316641" style="stroke: #000000; stroke-width: 0.6"/>
      </g>
     </g>
    </g>
    <g id="ytick_61">
     <g id="line2d_68">
      <g>
       <use xlink:href="#m9375d8fb48" x="529.501193" y="428.53447" style="stroke: #000000; stroke-width: 0.6"/>
      </g>
     </g>
    </g>
    <g id="ytick_62">
     <g id="line2d_69">
      <g>
       <use xlink:href="#m9375d8fb48" x="529.501193" y="389.334354" style="stroke: #000000; stroke-width: 0.6"/>
      </g>
     </g>
    </g>
    <g id="ytick_63">
     <g id="line2d_70">
      <g>
       <use xlink:href="#m9375d8fb48" x="529.501193" y="369.429376" style="stroke: #000000; stroke-width: 0.6"/>
      </g>
     </g>
    </g>
    <g id="ytick_64">
     <g id="line2d_71">
      <g>
       <use xlink:href="#m9375d8fb48" x="529.501193" y="355.306568" style="stroke: #000000; stroke-width: 0.6"/>
      </g>
     </g>
    </g>
    <g id="ytick_65">
     <g id="line2d_72">
      <g>
       <use xlink:href="#m9375d8fb48" x="529.501193" y="344.352068" style="stroke: #000000; stroke-width: 0.6"/>
      </g>
     </g>
    </g>
    <g id="ytick_66">
     <g id="line2d_73">
      <g>
       <use xlink:href="#m9375d8fb48" x="529.501193" y="335.401589" style="stroke: #000000; stroke-width: 0.6"/>
      </g>
     </g>
    </g>
    <g id="ytick_67">
     <g id="line2d_74">
      <g>
       <use xlink:href="#m9375d8fb48" x="529.501193" y="327.834067" style="stroke: #000000; stroke-width: 0.6"/>
      </g>
     </g>
    </g>
    <g id="ytick_68">
     <g id="line2d_75">
      <g>
       <use xlink:href="#m9375d8fb48" x="529.501193" y="321.278782" style="stroke: #000000; stroke-width: 0.6"/>
      </g>
     </g>
    </g>
    <g id="ytick_69">
     <g id="line2d_76">
      <g>
       <use xlink:href="#m9375d8fb48" x="529.501193" y="315.49661" style="stroke: #000000; stroke-width: 0.6"/>
      </g>
     </g>
    </g>
    <g id="ytick_70">
     <g id="line2d_77">
      <g>
       <use xlink:href="#m9375d8fb48" x="529.501193" y="276.296495" style="stroke: #000000; stroke-width: 0.6"/>
      </g>
     </g>
    </g>
    <g id="ytick_71">
     <g id="line2d_78">
      <g>
       <use xlink:href="#m9375d8fb48" x="529.501193" y="256.391516" style="stroke: #000000; stroke-width: 0.6"/>
      </g>
     </g>
    </g>
    <g id="ytick_72">
     <g id="line2d_79">
      <g>
       <use xlink:href="#m9375d8fb48" x="529.501193" y="242.268709" style="stroke: #000000; stroke-width: 0.6"/>
      </g>
     </g>
    </g>
    <g id="ytick_73">
     <g id="line2d_80">
      <g>
       <use xlink:href="#m9375d8fb48" x="529.501193" y="231.314209" style="stroke: #000000; stroke-width: 0.6"/>
      </g>
     </g>
    </g>
    <g id="ytick_74">
     <g id="line2d_81">
      <g>
       <use xlink:href="#m9375d8fb48" x="529.501193" y="222.36373" style="stroke: #000000; stroke-width: 0.6"/>
      </g>
     </g>
    </g>
    <g id="ytick_75">
     <g id="line2d_82">
      <g>
       <use xlink:href="#m9375d8fb48" x="529.501193" y="214.796208" style="stroke: #000000; stroke-width: 0.6"/>
      </g>
     </g>
    </g>
    <g id="ytick_76">
     <g id="line2d_83">
      <g>
       <use xlink:href="#m9375d8fb48" x="529.501193" y="208.240923" style="stroke: #000000; stroke-width: 0.6"/>
      </g>
     </g>
    </g>
    <g id="ytick_77">
     <g id="line2d_84">
      <g>
       <use xlink:href="#m9375d8fb48" x="529.501193" y="202.458751" style="stroke: #000000; stroke-width: 0.6"/>
      </g>
     </g>
    </g>
    <g id="ytick_78">
     <g id="line2d_85">
      <g>
       <use xlink:href="#m9375d8fb48" x="529.501193" y="163.258636" style="stroke: #000000; stroke-width: 0.6"/>
      </g>
     </g>
    </g>
    <g id="ytick_79">
     <g id="line2d_86">
      <g>
       <use xlink:href="#m9375d8fb48" x="529.501193" y="143.353657" style="stroke: #000000; stroke-width: 0.6"/>
      </g>
     </g>
    </g>
    <g id="ytick_80">
     <g id="line2d_87">
      <g>
       <use xlink:href="#m9375d8fb48" x="529.501193" y="129.23085" style="stroke: #000000; stroke-width: 0.6"/>
      </g>
     </g>
    </g>
    <g id="ytick_81">
     <g id="line2d_88">
      <g>
       <use xlink:href="#m9375d8fb48" x="529.501193" y="118.276349" style="stroke: #000000; stroke-width: 0.6"/>
      </g>
     </g>
    </g>
    <g id="ytick_82">
     <g id="line2d_89">
      <g>
       <use xlink:href="#m9375d8fb48" x="529.501193" y="109.325871" style="stroke: #000000; stroke-width: 0.6"/>
      </g>
     </g>
    </g>
    <g id="ytick_83">
     <g id="line2d_90">
      <g>
       <use xlink:href="#m9375d8fb48" x="529.501193" y="101.758349" style="stroke: #000000; stroke-width: 0.6"/>
      </g>
     </g>
    </g>
    <g id="ytick_84">
     <g id="line2d_91">
      <g>
       <use xlink:href="#m9375d8fb48" x="529.501193" y="95.203063" style="stroke: #000000; stroke-width: 0.6"/>
      </g>
     </g>
    </g>
    <g id="ytick_85">
     <g id="line2d_92">
      <g>
       <use xlink:href="#m9375d8fb48" x="529.501193" y="89.420892" style="stroke: #000000; stroke-width: 0.6"/>
      </g>
     </g>
    </g>
    <g id="ytick_86">
     <g id="line2d_93">
      <g>
       <use xlink:href="#m9375d8fb48" x="529.501193" y="50.220777" style="stroke: #000000; stroke-width: 0.6"/>
      </g>
     </g>
    </g>
    <g id="ytick_87">
     <g id="line2d_94">
      <g>
       <use xlink:href="#m9375d8fb48" x="529.501193" y="30.315798" style="stroke: #000000; stroke-width: 0.6"/>
      </g>
     </g>
    </g>
    <g id="ytick_88">
     <g id="line2d_95">
      <g>
       <use xlink:href="#m9375d8fb48" x="529.501193" y="16.19299" style="stroke: #000000; stroke-width: 0.6"/>
      </g>
     </g>
    </g>
    <g id="text_23">
     <!-- Frequency -->
     <g transform="translate(502.491818 309.724688) rotate(-90) scale(0.12 -0.12)">
      <use xlink:href="#TimesNewRomanPSMT-46"/>
      <use xlink:href="#TimesNewRomanPSMT-72" transform="translate(55.615234 0)"/>
      <use xlink:href="#TimesNewRomanPSMT-65" transform="translate(88.916016 0)"/>
      <use xlink:href="#TimesNewRomanPSMT-71" transform="translate(133.300781 0)"/>
      <use xlink:href="#TimesNewRomanPSMT-75" transform="translate(183.300781 0)"/>
      <use xlink:href="#TimesNewRomanPSMT-65" transform="translate(233.300781 0)"/>
      <use xlink:href="#TimesNewRomanPSMT-6e" transform="translate(277.685547 0)"/>
      <use xlink:href="#TimesNewRomanPSMT-63" transform="translate(327.685547 0)"/>
      <use xlink:href="#TimesNewRomanPSMT-79" transform="translate(372.070312 0)"/>
     </g>
    </g>
   </g>
   <g id="patch_15">
    <path d="M 555.769857 599.12125 
L 555.769857 502.372214 
L 560.283647 502.372214 
L 560.283647 536.4 
L 564.797438 536.4 
L 564.797438 599.12125 
M 569.311228 599.12125 
L 569.311228 536.4 
L 573.825019 536.4 
L 573.825019 502.372214 
L 578.338809 502.372214 
L 578.338809 482.467235 
L 582.8526 482.467235 
L 582.8526 468.344427 
L 587.36639 468.344427 
L 587.36639 428.53447 
L 591.880181 428.53447 
L 591.880181 468.344427 
L 596.393971 468.344427 
L 596.393971 428.53447 
L 600.907762 428.53447 
L 600.907762 423.362141 
L 605.421552 423.362141 
L 605.421552 410.482228 
L 609.935343 410.482228 
L 609.935343 397.312688 
L 614.449133 397.312688 
L 614.449133 371.093661 
L 618.962923 371.093661 
L 618.962923 350.627628 
L 623.476714 350.627628 
L 623.476714 333.79188 
L 627.990504 333.79188 
L 627.990504 338.788568 
L 632.504295 338.788568 
L 632.504295 317.728436 
L 637.018085 317.728436 
L 637.018085 323.155127 
L 641.531876 323.155127 
L 641.531876 307.463761 
L 646.045666 307.463761 
L 646.045666 293.109933 
L 650.559457 293.109933 
L 650.559457 293.806281 
L 655.073247 293.806281 
L 655.073247 285.740362 
L 659.587038 285.740362 
L 659.587038 277.288281 
L 664.100828 277.288281 
L 664.100828 280.657372 
L 668.614619 280.657372 
L 668.614619 268.379565 
L 673.128409 268.379565 
L 673.128409 259.25531 
L 677.642199 259.25531 
L 677.642199 260.841895 
L 682.15599 260.841895 
L 682.15599 255.580064 
L 686.66978 255.580064 
L 686.66978 257.216607 
L 691.183571 257.216607 
L 691.183571 251.415948 
L 695.697361 251.415948 
L 695.697361 244.272731 
L 700.211152 244.272731 
L 700.211152 234.247439 
L 704.724942 234.247439 
L 704.724942 232.708388 
L 709.238733 232.708388 
L 709.238733 231.906872 
L 713.752523 231.906872 
L 713.752523 32.749543 
L 718.266314 32.749543 
L 718.266314 238.263807 
L 722.780104 238.263807 
L 722.780104 231.41249 
L 727.293895 231.41249 
L 727.293895 224.453055 
L 731.807685 224.453055 
L 731.807685 228.453688 
L 736.321476 228.453688 
L 736.321476 235.088431 
L 740.835266 235.088431 
L 740.835266 241.417034 
L 745.349056 241.417034 
L 745.349056 248.127646 
L 749.862847 248.127646 
L 749.862847 252.917341 
L 754.376637 252.917341 
L 754.376637 253.223209 
L 758.890428 253.223209 
L 758.890428 265.341995 
L 763.404218 265.341995 
L 763.404218 268.171107 
L 767.918009 268.171107 
L 767.918009 269.222362 
L 772.431799 269.222362 
L 772.431799 267.141893 
L 776.94559 267.141893 
L 776.94559 272.065884 
L 781.45938 272.065884 
L 781.45938 284.855803 
L 785.973171 284.855803 
L 785.973171 283.41606 
L 790.486961 283.41606 
L 790.486961 286.339049 
L 795.000752 286.339049 
L 795.000752 295.591631 
L 799.514542 295.591631 
L 799.514542 302.616698 
L 804.028332 302.616698 
L 804.028332 301.784615 
L 808.542123 301.784615 
L 808.542123 306.09367 
L 813.055913 306.09367 
L 813.055913 325.106048 
L 817.569704 325.106048 
L 817.569704 324.447089 
L 822.083494 324.447089 
L 822.083494 335.401589 
L 826.597285 335.401589 
L 826.597285 337.919665 
L 831.111075 337.919665 
L 831.111075 363.284902 
L 835.624866 363.284902 
L 835.624866 360.478897 
L 840.138656 360.478897 
L 840.138656 376.454442 
L 844.652447 376.454442 
L 844.652447 374.601704 
L 849.166237 374.601704 
L 849.166237 391.85243 
L 853.680028 391.85243 
L 853.680028 410.482228 
L 858.193818 410.482228 
L 858.193818 414.411662 
L 862.707608 414.411662 
L 862.707608 434.316641 
L 867.221399 434.316641 
L 867.221399 457.389927 
L 871.735189 457.389927 
L 871.735189 482.467235 
L 876.24898 482.467235 
L 876.24898 536.4 
L 880.76277 536.4 
L 880.76277 468.344427 
L 889.790351 468.344427 
L 889.790351 536.4 
L 894.304142 536.4 
L 894.304142 482.467235 
L 898.817932 482.467235 
L 898.817932 536.4 
L 907.845513 536.4 
L 907.845513 599.12125 
M 912.359304 599.12125 
L 912.359304 502.372214 
L 916.873094 502.372214 
L 916.873094 599.12125 
L 916.873094 599.12125 
" clip-path="url(#pd7462d3e54)" style="fill: none; stroke: #fb694a; stroke-width: 2; stroke-linejoin: miter"/>
   </g>
   <g id="patch_16">
    <path d="M 547.947474 599.12125 
L 547.947474 536.4 
L 552.334846 536.4 
L 552.334846 599.12125 
M 556.722217 599.12125 
L 556.722217 536.4 
L 569.884332 536.4 
L 569.884332 599.12125 
M 574.271703 599.12125 
L 574.271703 468.344427 
L 578.659075 468.344427 
L 578.659075 599.12125 
M 583.046446 599.12125 
L 583.046446 482.467235 
L 587.433818 482.467235 
L 587.433818 448.439448 
L 596.208561 448.439448 
L 596.208561 428.53447 
L 600.595933 428.53447 
L 600.595933 448.439448 
L 604.983304 448.439448 
L 604.983304 410.482228 
L 609.370676 410.482228 
L 609.370676 389.334354 
L 613.758047 389.334354 
L 613.758047 378.379854 
L 618.145419 378.379854 
L 618.145419 374.601704 
L 622.53279 374.601704 
L 622.53279 355.306568 
L 626.920162 355.306568 
L 626.920162 363.284902 
L 631.307533 363.284902 
L 631.307533 351.756223 
L 635.694905 351.756223 
L 635.694905 338.788568 
L 640.082276 338.788568 
L 640.082276 329.984413 
L 644.469648 329.984413 
L 644.469648 325.106048 
L 648.857019 325.106048 
L 648.857019 305.201069 
L 653.244391 305.201069 
L 653.244391 309.352136 
L 657.631762 309.352136 
L 657.631762 299.369781 
L 662.019134 299.369781 
L 662.019134 302.616698 
L 666.406505 302.616698 
L 666.406505 286.641153 
L 670.793877 286.641153 
L 670.793877 278.045495 
L 675.181248 278.045495 
L 675.181248 272.291593 
L 679.56862 272.291593 
L 679.56862 274.135631 
L 683.955992 274.135631 
L 683.955992 265.934659 
L 688.343363 265.934659 
L 688.343363 261.746004 
L 692.730735 261.746004 
L 692.730735 256.065324 
L 697.118106 256.065324 
L 697.118106 239.873516 
L 701.505478 239.873516 
L 701.505478 237.145496 
L 705.892849 237.145496 
L 705.892849 225.314335 
L 710.280221 225.314335 
L 710.280221 32.4 
L 714.667592 32.4 
L 714.667592 216.508884 
L 719.054964 216.508884 
L 719.054964 220.202865 
L 723.442335 220.202865 
L 723.442335 232.006349 
L 727.829707 232.006349 
L 727.829707 231.41249 
L 732.217078 231.41249 
L 732.217078 232.006349 
L 736.60445 232.006349 
L 736.60445 233.216062 
L 740.991821 233.216062 
L 740.991821 232.910828 
L 745.379193 232.910828 
L 745.379193 239.062064 
L 749.766564 239.062064 
L 749.766564 246.362055 
L 754.153936 246.362055 
L 754.153936 251.564038 
L 758.541308 251.564038 
L 758.541308 251.268304 
L 762.928679 251.268304 
L 762.928679 254.30901 
L 767.316051 254.30901 
L 767.316051 262.296571 
L 771.703422 262.296571 
L 771.703422 263.040399 
L 776.090794 263.040399 
L 776.090794 273.668087 
L 780.478165 273.668087 
L 780.478165 273.435974 
L 784.865537 273.435974 
L 784.865537 284.855803 
L 789.252908 284.855803 
L 789.252908 286.945127 
L 793.64028 286.945127 
L 793.64028 303.463128 
L 798.027651 303.463128 
L 798.027651 318.302615 
L 802.415023 318.302615 
L 802.415023 327.137719 
L 806.802394 327.137719 
L 806.802394 347.389638 
L 811.189766 347.389638 
L 811.189766 356.549463 
L 815.577137 356.549463 
L 815.577137 364.750435 
L 819.964509 364.750435 
L 819.964509 369.429376 
L 824.35188 369.429376 
L 824.35188 380.383876 
L 828.739252 380.383876 
L 828.739252 391.85243 
L 833.126624 391.85243 
L 833.126624 410.482228 
L 837.513995 410.482228 
L 837.513995 400.288855 
L 841.901367 400.288855 
L 841.901367 434.316641 
L 846.288738 434.316641 
L 846.288738 457.389927 
L 850.67611 457.389927 
L 850.67611 599.12125 
M 855.063481 599.12125 
L 855.063481 468.344427 
L 859.450853 468.344427 
L 859.450853 536.4 
L 863.838224 536.4 
L 863.838224 482.467235 
L 868.225596 482.467235 
L 868.225596 502.372214 
L 872.612967 502.372214 
L 872.612967 468.344427 
L 877.000339 468.344427 
L 877.000339 599.12125 
M 881.38771 599.12125 
L 881.38771 502.372214 
L 885.775082 502.372214 
L 885.775082 599.12125 
M 894.549825 599.12125 
L 894.549825 536.4 
L 898.937196 536.4 
L 898.937196 599.12125 
L 898.937196 599.12125 
" clip-path="url(#pd7462d3e54)" style="fill: none; stroke: #4682b4; stroke-width: 2; stroke-linejoin: miter"/>
   </g>
   <g id="line2d_96">
    <path d="M 714.256125 561.6 
L 714.256125 7.2 
" clip-path="url(#pd7462d3e54)" style="fill: none; stroke: #000000; stroke-width: 1.5; stroke-linecap: square"/>
   </g>
   <g id="patch_17">
    <path d="M 529.501193 561.6 
L 529.501193 7.2 
" style="fill: none; stroke: #000000; stroke-width: 0.8; stroke-linejoin: miter; stroke-linecap: square"/>
   </g>
   <g id="patch_18">
    <path d="M 935.319375 561.6 
L 935.319375 7.2 
" style="fill: none; stroke: #000000; stroke-width: 0.8; stroke-linejoin: miter; stroke-linecap: square"/>
   </g>
   <g id="patch_19">
    <path d="M 529.501193 561.6 
L 935.319375 561.6 
" style="fill: none; stroke: #000000; stroke-width: 0.8; stroke-linejoin: miter; stroke-linecap: square"/>
   </g>
   <g id="patch_20">
    <path d="M 529.501193 7.2 
L 935.319375 7.2 
" style="fill: none; stroke: #000000; stroke-width: 0.8; stroke-linejoin: miter; stroke-linecap: square"/>
   </g>
   <g id="legend_2">
    <g id="patch_21">
     <path d="M 848.919375 63.232125 
L 926.919375 63.232125 
Q 929.319375 63.232125 929.319375 60.832125 
L 929.319375 15.6 
Q 929.319375 13.2 926.919375 13.2 
L 848.919375 13.2 
Q 846.519375 13.2 846.519375 15.6 
L 846.519375 60.832125 
Q 846.519375 63.232125 848.919375 63.232125 
z
" style="fill: #ffffff; opacity: 0.8; stroke: #cccccc; stroke-linejoin: miter"/>
    </g>
    <g id="patch_22">
     <path d="M 851.319375 33.898875 
L 875.319375 33.898875 
L 875.319375 25.498875 
L 851.319375 25.498875 
L 851.319375 33.898875 
z
" style="fill: none; stroke: #fb694a; stroke-width: 2; stroke-linejoin: miter"/>
    </g>
    <g id="text_24">
     <!-- LIF -->
     <g transform="translate(884.919375 26.3325) scale(0.12 -0.12)">
      <use xlink:href="#TimesNewRomanPSMT-4c"/>
      <use xlink:href="#TimesNewRomanPSMT-49" transform="translate(61.083984 0)"/>
      <use xlink:href="#TimesNewRomanPSMT-46" transform="translate(94.384766 0)"/>
     </g>
     <!-- $F'$=8.65 -->
     <g transform="translate(884.919375 38.898375) scale(0.12 -0.12)">
      <defs>
       <path id="TimesNewRomanPSMT-35" d="M 2778 4238 
L 2534 3706 
L 1259 3706 
L 981 3138 
Q 1809 3016 2294 2522 
Q 2709 2097 2709 1522 
Q 2709 1188 2573 903 
Q 2438 619 2231 419 
Q 2025 219 1772 97 
Q 1413 -75 1034 -75 
Q 653 -75 479 54 
Q 306 184 306 341 
Q 306 428 378 495 
Q 450 563 559 563 
Q 641 563 702 538 
Q 763 513 909 409 
Q 1144 247 1384 247 
Q 1750 247 2026 523 
Q 2303 800 2303 1197 
Q 2303 1581 2056 1914 
Q 1809 2247 1375 2428 
Q 1034 2569 447 2591 
L 1259 4238 
L 2778 4238 
z
" transform="scale(0.015625)"/>
      </defs>
      <use xlink:href="#DejaVuSerif-Italic-46" transform="translate(0 0.53125)"/>
      <use xlink:href="#Cmsy10-30" transform="translate(76.563776 36.865625) scale(0.7)"/>
      <use xlink:href="#TimesNewRomanPSMT-3d" transform="translate(98.402253 0.53125)"/>
      <use xlink:href="#TimesNewRomanPSMT-38" transform="translate(154.798737 0.53125)"/>
      <use xlink:href="#TimesNewRomanPSMT-2e" transform="translate(204.798737 0.53125)"/>
      <use xlink:href="#TimesNewRomanPSMT-36" transform="translate(229.798737 0.53125)"/>
      <use xlink:href="#TimesNewRomanPSMT-35" transform="translate(279.798737 0.53125)"/>
     </g>
    </g>
    <g id="patch_23">
     <path d="M 851.319375 55.86525 
L 875.319375 55.86525 
L 875.319375 47.46525 
L 851.319375 47.46525 
L 851.319375 55.86525 
z
" style="fill: none; stroke: #4682b4; stroke-width: 2; stroke-linejoin: miter"/>
    </g>
    <g id="text_25">
     <!-- QIF -->
     <g transform="translate(884.919375 55.86525) scale(0.12 -0.12)">
      <defs>
       <path id="TimesNewRomanPSMT-51" d="M 2819 -47 
Q 3138 -597 3508 -856 
Q 3878 -1116 4350 -1153 
L 4350 -1253 
Q 3919 -1238 3428 -1080 
Q 2938 -922 2498 -642 
Q 2059 -363 1741 -47 
Q 1291 134 1028 338 
Q 647 641 436 1083 
Q 225 1525 225 2128 
Q 225 3078 840 3706 
Q 1456 4334 2331 4334 
Q 3163 4334 3770 3704 
Q 4378 3075 4378 2116 
Q 4378 1338 3945 750 
Q 3513 163 2819 -47 
z
M 2294 4094 
Q 1725 4094 1378 3688 
Q 941 3178 941 2128 
Q 941 1100 1384 544 
Q 1728 116 2294 116 
Q 2881 116 3241 544 
Q 3663 1050 3663 2038 
Q 3663 2797 3431 3316 
Q 3253 3716 2958 3905 
Q 2663 4094 2294 4094 
z
" transform="scale(0.015625)"/>
      </defs>
      <use xlink:href="#TimesNewRomanPSMT-51"/>
      <use xlink:href="#TimesNewRomanPSMT-49" transform="translate(72.216797 0)"/>
      <use xlink:href="#TimesNewRomanPSMT-46" transform="translate(105.517578 0)"/>
     </g>
    </g>
   </g>
  </g>
 </g>
 <defs>
  <clipPath id="pf78c879022">
   <rect x="42.519375" y="7.2" width="405.818182" height="554.4"/>
  </clipPath>
  <clipPath id="pd7462d3e54">
   <rect x="529.501193" y="7.2" width="405.818182" height="554.4"/>
  </clipPath>
 </defs>
</svg>
