<?xml version="1.0" encoding="utf-8" standalone="no"?>
<!DOCTYPE svg PUBLIC "-//W3C//DTD SVG 1.1//EN"
  "http://www.w3.org/Graphics/SVG/1.1/DTD/svg11.dtd">
<svg xmlns:xlink="http://www.w3.org/1999/xlink" width="500.199375pt" height="377.079375pt" viewBox="0 0 500.199375 377.079375" xmlns="http://www.w3.org/2000/svg" version="1.1">
 <metadata>
  <rdf:RDF xmlns:dc="http://purl.org/dc/elements/1.1/" xmlns:cc="http://creativecommons.org/ns#" xmlns:rdf="http://www.w3.org/1999/02/22-rdf-syntax-ns#">
   <cc:Work>
    <dc:type rdf:resource="http://purl.org/dc/dcmitype/StillImage"/>
    <dc:date>2026-01-23T14:43:49.973132</dc:date>
    <dc:format>image/svg+xml</dc:format>
    <dc:creator>
     <cc:Agent>
      <dc:title>Matplotlib v3.10.5, https://matplotlib.org/</dc:title>
     </cc:Agent>
    </dc:creator>
   </cc:Work>
  </rdf:RDF>
 </metadata>
 <defs>
  <style type="text/css">*{stroke-linejoin: round; stroke-linecap: butt}</style>
 </defs>
 <g id="figure_1">
  <g id="patch_1">
   <path d="M 0 377.079375 
L 500.199375 377.079375 
L 500.199375 0 
L 0 0 
z
" style="fill: #ffffff"/>
  </g>
  <g id="axes_1">
   <g id="patch_2">
    <path d="M 46.599375 339.84 
L 492.999375 339.84 
L 492.999375 7.2 
L 46.599375 7.2 
z
" style="fill: #ffffff"/>
   </g>
   <g id="matplotlib.axis_1">
    <g id="xtick_1">
     <g id="line2d_1">
      <defs>
       <path id="m3ba0204e13" d="M 0 0 
L 0 -3.5 
" style="stroke: #000000; stroke-width: 0.8"/>
      </defs>
      <g>
       <use xlink:href="#m3ba0204e13" x="66.890284" y="339.84" style="stroke: #000000; stroke-width: 0.8"/>
      </g>
     </g>
     <g id="text_1">
      <!-- LIF -->
      <g transform="translate(57.891222 351.6725) scale(0.12 -0.12)">
       <defs>
        <path id="TimesNewRomanPSMT-4c" d="M 3669 1172 
L 3772 1150 
L 3409 0 
L 128 0 
L 128 116 
L 288 116 
Q 556 116 672 291 
Q 738 391 738 753 
L 738 3488 
Q 738 3884 650 3984 
Q 528 4122 288 4122 
L 128 4122 
L 128 4238 
L 2047 4238 
L 2047 4122 
Q 1709 4125 1573 4059 
Q 1438 3994 1388 3894 
Q 1338 3794 1338 3416 
L 1338 753 
Q 1338 494 1388 397 
Q 1425 331 1503 300 
Q 1581 269 1991 269 
L 2300 269 
Q 2788 269 2984 341 
Q 3181 413 3343 595 
Q 3506 778 3669 1172 
z
" transform="scale(0.015625)"/>
        <path id="TimesNewRomanPSMT-49" d="M 1975 116 
L 1975 0 
L 159 0 
L 159 116 
L 309 116 
Q 572 116 691 269 
Q 766 369 766 750 
L 766 3488 
Q 766 3809 725 3913 
Q 694 3991 597 4047 
Q 459 4122 309 4122 
L 159 4122 
L 159 4238 
L 1975 4238 
L 1975 4122 
L 1822 4122 
Q 1563 4122 1444 3969 
Q 1366 3869 1366 3488 
L 1366 750 
Q 1366 428 1406 325 
Q 1438 247 1538 191 
Q 1672 116 1822 116 
L 1975 116 
z
" transform="scale(0.015625)"/>
        <path id="TimesNewRomanPSMT-46" d="M 1309 4006 
L 1309 2341 
L 2081 2341 
Q 2347 2341 2470 2458 
Q 2594 2575 2634 2922 
L 2750 2922 
L 2750 1488 
L 2634 1488 
Q 2631 1734 2570 1850 
Q 2509 1966 2401 2023 
Q 2294 2081 2081 2081 
L 1309 2081 
L 1309 750 
Q 1309 428 1350 325 
Q 1381 247 1481 191 
Q 1619 116 1769 116 
L 1922 116 
L 1922 0 
L 103 0 
L 103 116 
L 253 116 
Q 516 116 634 269 
Q 709 369 709 750 
L 709 3488 
Q 709 3809 669 3913 
Q 638 3991 541 4047 
Q 406 4122 253 4122 
L 103 4122 
L 103 4238 
L 3256 4238 
L 3297 3306 
L 3188 3306 
Q 3106 3603 2998 3742 
Q 2891 3881 2733 3943 
Q 2575 4006 2244 4006 
L 1309 4006 
z
" transform="scale(0.015625)"/>
       </defs>
       <use xlink:href="#TimesNewRomanPSMT-4c"/>
       <use xlink:href="#TimesNewRomanPSMT-49" transform="translate(61.083984 0)"/>
       <use xlink:href="#TimesNewRomanPSMT-46" transform="translate(94.384766 0)"/>
      </g>
     </g>
    </g>
    <g id="xtick_2">
     <g id="line2d_2">
      <g>
       <use xlink:href="#m3ba0204e13" x="168.34483" y="339.84" style="stroke: #000000; stroke-width: 0.8"/>
      </g>
     </g>
     <g id="text_2">
      <!-- 0.25 -->
      <g transform="translate(157.84483 351.6725) scale(0.12 -0.12)">
       <defs>
        <path id="TimesNewRomanPSMT-30" d="M 231 2094 
Q 231 2819 450 3342 
Q 669 3866 1031 4122 
Q 1313 4325 1613 4325 
Q 2100 4325 2488 3828 
Q 2972 3213 2972 2159 
Q 2972 1422 2759 906 
Q 2547 391 2217 158 
Q 1888 -75 1581 -75 
Q 975 -75 572 641 
Q 231 1244 231 2094 
z
M 844 2016 
Q 844 1141 1059 588 
Q 1238 122 1591 122 
Q 1759 122 1940 273 
Q 2122 425 2216 781 
Q 2359 1319 2359 2297 
Q 2359 3022 2209 3506 
Q 2097 3866 1919 4016 
Q 1791 4119 1609 4119 
Q 1397 4119 1231 3928 
Q 1006 3669 925 3112 
Q 844 2556 844 2016 
z
" transform="scale(0.015625)"/>
        <path id="TimesNewRomanPSMT-2e" d="M 800 606 
Q 947 606 1047 504 
Q 1147 403 1147 259 
Q 1147 116 1045 14 
Q 944 -88 800 -88 
Q 656 -88 554 14 
Q 453 116 453 259 
Q 453 406 554 506 
Q 656 606 800 606 
z
" transform="scale(0.015625)"/>
        <path id="TimesNewRomanPSMT-32" d="M 2934 816 
L 2638 0 
L 138 0 
L 138 116 
Q 1241 1122 1691 1759 
Q 2141 2397 2141 2925 
Q 2141 3328 1894 3587 
Q 1647 3847 1303 3847 
Q 991 3847 742 3664 
Q 494 3481 375 3128 
L 259 3128 
Q 338 3706 661 4015 
Q 984 4325 1469 4325 
Q 1984 4325 2329 3994 
Q 2675 3663 2675 3213 
Q 2675 2891 2525 2569 
Q 2294 2063 1775 1497 
Q 997 647 803 472 
L 1909 472 
Q 2247 472 2383 497 
Q 2519 522 2628 598 
Q 2738 675 2819 816 
L 2934 816 
z
" transform="scale(0.015625)"/>
        <path id="TimesNewRomanPSMT-35" d="M 2778 4238 
L 2534 3706 
L 1259 3706 
L 981 3138 
Q 1809 3016 2294 2522 
Q 2709 2097 2709 1522 
Q 2709 1188 2573 903 
Q 2438 619 2231 419 
Q 2025 219 1772 97 
Q 1413 -75 1034 -75 
Q 653 -75 479 54 
Q 306 184 306 341 
Q 306 428 378 495 
Q 450 563 559 563 
Q 641 563 702 538 
Q 763 513 909 409 
Q 1144 247 1384 247 
Q 1750 247 2026 523 
Q 2303 800 2303 1197 
Q 2303 1581 2056 1914 
Q 1809 2247 1375 2428 
Q 1034 2569 447 2591 
L 1259 4238 
L 2778 4238 
z
" transform="scale(0.015625)"/>
       </defs>
       <use xlink:href="#TimesNewRomanPSMT-30"/>
       <use xlink:href="#TimesNewRomanPSMT-2e" transform="translate(50 0)"/>
       <use xlink:href="#TimesNewRomanPSMT-32" transform="translate(75 0)"/>
       <use xlink:href="#TimesNewRomanPSMT-35" transform="translate(125 0)"/>
      </g>
     </g>
    </g>
    <g id="xtick_3">
     <g id="line2d_3">
      <g>
       <use xlink:href="#m3ba0204e13" x="269.799375" y="339.84" style="stroke: #000000; stroke-width: 0.8"/>
      </g>
     </g>
     <g id="text_3">
      <!-- 0.5 -->
      <g transform="translate(262.299375 351.6725) scale(0.12 -0.12)">
       <use xlink:href="#TimesNewRomanPSMT-30"/>
       <use xlink:href="#TimesNewRomanPSMT-2e" transform="translate(50 0)"/>
       <use xlink:href="#TimesNewRomanPSMT-35" transform="translate(75 0)"/>
      </g>
     </g>
    </g>
    <g id="xtick_4">
     <g id="line2d_4">
      <g>
       <use xlink:href="#m3ba0204e13" x="371.25392" y="339.84" style="stroke: #000000; stroke-width: 0.8"/>
      </g>
     </g>
     <g id="text_4">
      <!-- 0.75 -->
      <g transform="translate(360.75392 351.6725) scale(0.12 -0.12)">
       <defs>
        <path id="TimesNewRomanPSMT-37" d="M 644 4238 
L 2916 4238 
L 2916 4119 
L 1503 -88 
L 1153 -88 
L 2419 3728 
L 1253 3728 
Q 900 3728 750 3644 
Q 488 3500 328 3200 
L 238 3234 
L 644 4238 
z
" transform="scale(0.015625)"/>
       </defs>
       <use xlink:href="#TimesNewRomanPSMT-30"/>
       <use xlink:href="#TimesNewRomanPSMT-2e" transform="translate(50 0)"/>
       <use xlink:href="#TimesNewRomanPSMT-37" transform="translate(75 0)"/>
       <use xlink:href="#TimesNewRomanPSMT-35" transform="translate(125 0)"/>
      </g>
     </g>
    </g>
    <g id="xtick_5">
     <g id="line2d_5">
      <g>
       <use xlink:href="#m3ba0204e13" x="472.708466" y="339.84" style="stroke: #000000; stroke-width: 0.8"/>
      </g>
     </g>
     <g id="text_5">
      <!-- QIF -->
      <g transform="translate(463.040966 351.6725) scale(0.12 -0.12)">
       <defs>
        <path id="TimesNewRomanPSMT-51" d="M 2819 -47 
Q 3138 -597 3508 -856 
Q 3878 -1116 4350 -1153 
L 4350 -1253 
Q 3919 -1238 3428 -1080 
Q 2938 -922 2498 -642 
Q 2059 -363 1741 -47 
Q 1291 134 1028 338 
Q 647 641 436 1083 
Q 225 1525 225 2128 
Q 225 3078 840 3706 
Q 1456 4334 2331 4334 
Q 3163 4334 3770 3704 
Q 4378 3075 4378 2116 
Q 4378 1338 3945 750 
Q 3513 163 2819 -47 
z
M 2294 4094 
Q 1725 4094 1378 3688 
Q 941 3178 941 2128 
Q 941 1100 1384 544 
Q 1728 116 2294 116 
Q 2881 116 3241 544 
Q 3663 1050 3663 2038 
Q 3663 2797 3431 3316 
Q 3253 3716 2958 3905 
Q 2663 4094 2294 4094 
z
" transform="scale(0.015625)"/>
       </defs>
       <use xlink:href="#TimesNewRomanPSMT-51"/>
       <use xlink:href="#TimesNewRomanPSMT-49" transform="translate(72.216797 0)"/>
       <use xlink:href="#TimesNewRomanPSMT-46" transform="translate(105.517578 0)"/>
      </g>
     </g>
    </g>
    <g id="text_6">
     <!-- $pqif$ -->
     <g transform="translate(257.919375 367.3125) scale(0.12 -0.12)">
      <defs>
       <path id="DejaVuSerif-Italic-70" d="M 1466 1825 
L 1400 1497 
Q 1353 1250 1353 1053 
Q 1353 769 1453 581 
Q 1622 269 2059 269 
Q 2500 269 2795 622 
Q 3091 975 3225 1663 
Q 3284 1978 3284 2225 
Q 3284 2513 3200 2703 
Q 3041 3053 2600 3053 
Q 2163 3053 1872 2737 
Q 1581 2422 1466 1825 
z
M 1116 2988 
L 563 2988 
L 628 3322 
L 1756 3322 
L 1656 2803 
Q 1884 3116 2175 3264 
Q 2466 3413 2850 3413 
Q 3463 3413 3753 2928 
Q 3947 2609 3947 2163 
Q 3947 1928 3897 1663 
Q 3744 881 3262 395 
Q 2781 -91 2169 -91 
Q 1784 -91 1551 57 
Q 1319 206 1213 519 
L 850 -1331 
L 275 -1331 
L 1116 2988 
z
" transform="scale(0.015625)"/>
       <path id="DejaVuSerif-Italic-71" d="M 2684 519 
Q 2469 206 2206 56 
Q 1944 -91 1597 -91 
Q 1047 -91 769 281 
Q 594 516 575 841 
Q 563 1031 606 1256 
Q 822 2359 1588 2928 
Q 2241 3409 3006 3413 
Q 3613 3416 3803 3322 
L 2963 -1000 
L 3516 -1000 
L 3450 -1331 
L 2322 -1331 
L 2684 519 
z
M 2916 3094 
Q 2316 3094 1850 2625 
Q 1388 2153 1219 1297 
Q 1172 1044 1184 853 
Q 1197 659 1275 528 
Q 1428 269 1828 269 
Q 2222 269 2489 583 
Q 2756 897 2872 1497 
L 3166 3003 
Q 3169 3094 2916 3094 
z
" transform="scale(0.015625)"/>
       <path id="DejaVuSerif-Italic-69" d="M 1009 4353 
Q 1038 4497 1163 4603 
Q 1288 4709 1434 4709 
Q 1578 4709 1663 4603 
Q 1728 4522 1728 4422 
Q 1728 4388 1719 4353 
Q 1691 4206 1567 4103 
Q 1444 4000 1297 4000 
Q 1150 4000 1066 4103 
Q 1003 4181 1003 4281 
Q 1003 4316 1009 4353 
z
M 963 331 
L 1506 331 
L 1444 0 
L 325 0 
L 903 2988 
L 353 2988 
L 419 3322 
L 1544 3322 
L 963 331 
z
" transform="scale(0.015625)"/>
       <path id="DejaVuSerif-Italic-66" d="M 3191 4078 
L 2888 4078 
Q 2900 4144 2900 4203 
Q 2900 4347 2825 4434 
Q 2719 4556 2472 4556 
Q 2150 4556 1984 4379 
Q 1819 4203 1731 3750 
L 1647 3322 
L 2575 3322 
L 2509 2988 
L 1581 2988 
L 963 -206 
Q 853 -763 509 -1047 
Q 166 -1331 -394 -1331 
L -356 -1025 
Q -28 -1025 131 -850 
Q 297 -663 388 -206 
L 1006 2988 
L 456 2988 
L 522 3322 
L 1072 3322 
L 1153 3738 
Q 1263 4297 1606 4578 
Q 1950 4863 2509 4863 
Q 2719 4863 2920 4825 
Q 3122 4788 3316 4709 
L 3191 4078 
z
" transform="scale(0.015625)"/>
      </defs>
      <use xlink:href="#DejaVuSerif-Italic-70" transform="translate(0 0.015625)"/>
      <use xlink:href="#DejaVuSerif-Italic-71" transform="translate(64.013672 0.015625)"/>
      <use xlink:href="#DejaVuSerif-Italic-69" transform="translate(128.027344 0.015625)"/>
      <use xlink:href="#DejaVuSerif-Italic-66" transform="translate(160.009766 0.015625)"/>
     </g>
    </g>
   </g>
   <g id="matplotlib.axis_2">
    <g id="ytick_1">
     <g id="line2d_6">
      <defs>
       <path id="m81f3d4b42b" d="M 0 0 
L 3.5 0 
" style="stroke: #000000; stroke-width: 0.8"/>
      </defs>
      <g>
       <use xlink:href="#m81f3d4b42b" x="46.599375" y="319.423554" style="stroke: #000000; stroke-width: 0.8"/>
      </g>
     </g>
     <g id="text_7">
      <!-- 0.11 -->
      <g transform="translate(22.549375 323.589804) scale(0.12 -0.12)">
       <defs>
        <path id="TimesNewRomanPSMT-31" d="M 750 3822 
L 1781 4325 
L 1884 4325 
L 1884 747 
Q 1884 391 1914 303 
Q 1944 216 2037 169 
Q 2131 122 2419 116 
L 2419 0 
L 825 0 
L 825 116 
Q 1125 122 1212 167 
Q 1300 213 1334 289 
Q 1369 366 1369 747 
L 1369 3034 
Q 1369 3497 1338 3628 
Q 1316 3728 1258 3775 
Q 1200 3822 1119 3822 
Q 1003 3822 797 3725 
L 750 3822 
z
" transform="scale(0.015625)"/>
       </defs>
       <use xlink:href="#TimesNewRomanPSMT-30"/>
       <use xlink:href="#TimesNewRomanPSMT-2e" transform="translate(50 0)"/>
       <use xlink:href="#TimesNewRomanPSMT-31" transform="translate(75 0)"/>
       <use xlink:href="#TimesNewRomanPSMT-31" transform="translate(121.25 0)"/>
      </g>
     </g>
    </g>
    <g id="ytick_2">
     <g id="line2d_7">
      <g>
       <use xlink:href="#m81f3d4b42b" x="46.599375" y="282.122215" style="stroke: #000000; stroke-width: 0.8"/>
      </g>
     </g>
     <g id="text_8">
      <!-- 0.12 -->
      <g transform="translate(22.099375 286.288465) scale(0.12 -0.12)">
       <use xlink:href="#TimesNewRomanPSMT-30"/>
       <use xlink:href="#TimesNewRomanPSMT-2e" transform="translate(50 0)"/>
       <use xlink:href="#TimesNewRomanPSMT-31" transform="translate(75 0)"/>
       <use xlink:href="#TimesNewRomanPSMT-32" transform="translate(125 0)"/>
      </g>
     </g>
    </g>
    <g id="ytick_3">
     <g id="line2d_8">
      <g>
       <use xlink:href="#m81f3d4b42b" x="46.599375" y="244.820876" style="stroke: #000000; stroke-width: 0.8"/>
      </g>
     </g>
     <g id="text_9">
      <!-- 0.13 -->
      <g transform="translate(22.099375 248.987126) scale(0.12 -0.12)">
       <defs>
        <path id="TimesNewRomanPSMT-33" d="M 325 3431 
Q 506 3859 782 4092 
Q 1059 4325 1472 4325 
Q 1981 4325 2253 3994 
Q 2459 3747 2459 3466 
Q 2459 3003 1878 2509 
Q 2269 2356 2469 2072 
Q 2669 1788 2669 1403 
Q 2669 853 2319 450 
Q 1863 -75 997 -75 
Q 569 -75 414 31 
Q 259 138 259 259 
Q 259 350 332 419 
Q 406 488 509 488 
Q 588 488 669 463 
Q 722 447 909 348 
Q 1097 250 1169 231 
Q 1284 197 1416 197 
Q 1734 197 1970 444 
Q 2206 691 2206 1028 
Q 2206 1275 2097 1509 
Q 2016 1684 1919 1775 
Q 1784 1900 1550 2001 
Q 1316 2103 1072 2103 
L 972 2103 
L 972 2197 
Q 1219 2228 1467 2375 
Q 1716 2522 1828 2728 
Q 1941 2934 1941 3181 
Q 1941 3503 1739 3701 
Q 1538 3900 1238 3900 
Q 753 3900 428 3381 
L 325 3431 
z
" transform="scale(0.015625)"/>
       </defs>
       <use xlink:href="#TimesNewRomanPSMT-30"/>
       <use xlink:href="#TimesNewRomanPSMT-2e" transform="translate(50 0)"/>
       <use xlink:href="#TimesNewRomanPSMT-31" transform="translate(75 0)"/>
       <use xlink:href="#TimesNewRomanPSMT-33" transform="translate(125 0)"/>
      </g>
     </g>
    </g>
    <g id="ytick_4">
     <g id="line2d_9">
      <g>
       <use xlink:href="#m81f3d4b42b" x="46.599375" y="207.519537" style="stroke: #000000; stroke-width: 0.8"/>
      </g>
     </g>
     <g id="text_10">
      <!-- 0.14 -->
      <g transform="translate(22.099375 211.685787) scale(0.12 -0.12)">
       <defs>
        <path id="TimesNewRomanPSMT-34" d="M 2978 1563 
L 2978 1119 
L 2409 1119 
L 2409 0 
L 1894 0 
L 1894 1119 
L 100 1119 
L 100 1519 
L 2066 4325 
L 2409 4325 
L 2409 1563 
L 2978 1563 
z
M 1894 1563 
L 1894 3666 
L 406 1563 
L 1894 1563 
z
" transform="scale(0.015625)"/>
       </defs>
       <use xlink:href="#TimesNewRomanPSMT-30"/>
       <use xlink:href="#TimesNewRomanPSMT-2e" transform="translate(50 0)"/>
       <use xlink:href="#TimesNewRomanPSMT-31" transform="translate(75 0)"/>
       <use xlink:href="#TimesNewRomanPSMT-34" transform="translate(125 0)"/>
      </g>
     </g>
    </g>
    <g id="ytick_5">
     <g id="line2d_10">
      <g>
       <use xlink:href="#m81f3d4b42b" x="46.599375" y="170.218198" style="stroke: #000000; stroke-width: 0.8"/>
      </g>
     </g>
     <g id="text_11">
      <!-- 0.15 -->
      <g transform="translate(22.099375 174.384448) scale(0.12 -0.12)">
       <use xlink:href="#TimesNewRomanPSMT-30"/>
       <use xlink:href="#TimesNewRomanPSMT-2e" transform="translate(50 0)"/>
       <use xlink:href="#TimesNewRomanPSMT-31" transform="translate(75 0)"/>
       <use xlink:href="#TimesNewRomanPSMT-35" transform="translate(125 0)"/>
      </g>
     </g>
    </g>
    <g id="ytick_6">
     <g id="line2d_11">
      <g>
       <use xlink:href="#m81f3d4b42b" x="46.599375" y="132.916859" style="stroke: #000000; stroke-width: 0.8"/>
      </g>
     </g>
     <g id="text_12">
      <!-- 0.16 -->
      <g transform="translate(22.099375 137.083109) scale(0.12 -0.12)">
       <defs>
        <path id="TimesNewRomanPSMT-36" d="M 2869 4325 
L 2869 4209 
Q 2456 4169 2195 4045 
Q 1934 3922 1679 3669 
Q 1425 3416 1258 3105 
Q 1091 2794 978 2366 
Q 1428 2675 1881 2675 
Q 2316 2675 2634 2325 
Q 2953 1975 2953 1425 
Q 2953 894 2631 456 
Q 2244 -75 1606 -75 
Q 1172 -75 869 213 
Q 275 772 275 1663 
Q 275 2231 503 2743 
Q 731 3256 1154 3653 
Q 1578 4050 1965 4187 
Q 2353 4325 2688 4325 
L 2869 4325 
z
M 925 2138 
Q 869 1716 869 1456 
Q 869 1156 980 804 
Q 1091 453 1309 247 
Q 1469 100 1697 100 
Q 1969 100 2183 356 
Q 2397 613 2397 1088 
Q 2397 1622 2184 2012 
Q 1972 2403 1581 2403 
Q 1463 2403 1327 2353 
Q 1191 2303 925 2138 
z
" transform="scale(0.015625)"/>
       </defs>
       <use xlink:href="#TimesNewRomanPSMT-30"/>
       <use xlink:href="#TimesNewRomanPSMT-2e" transform="translate(50 0)"/>
       <use xlink:href="#TimesNewRomanPSMT-31" transform="translate(75 0)"/>
       <use xlink:href="#TimesNewRomanPSMT-36" transform="translate(125 0)"/>
      </g>
     </g>
    </g>
    <g id="ytick_7">
     <g id="line2d_12">
      <g>
       <use xlink:href="#m81f3d4b42b" x="46.599375" y="95.61552" style="stroke: #000000; stroke-width: 0.8"/>
      </g>
     </g>
     <g id="text_13">
      <!-- 0.17 -->
      <g transform="translate(22.099375 99.78177) scale(0.12 -0.12)">
       <use xlink:href="#TimesNewRomanPSMT-30"/>
       <use xlink:href="#TimesNewRomanPSMT-2e" transform="translate(50 0)"/>
       <use xlink:href="#TimesNewRomanPSMT-31" transform="translate(75 0)"/>
       <use xlink:href="#TimesNewRomanPSMT-37" transform="translate(125 0)"/>
      </g>
     </g>
    </g>
    <g id="ytick_8">
     <g id="line2d_13">
      <g>
       <use xlink:href="#m81f3d4b42b" x="46.599375" y="58.314181" style="stroke: #000000; stroke-width: 0.8"/>
      </g>
     </g>
     <g id="text_14">
      <!-- 0.18 -->
      <g transform="translate(22.099375 62.480431) scale(0.12 -0.12)">
       <defs>
        <path id="TimesNewRomanPSMT-38" d="M 1228 2134 
Q 725 2547 579 2797 
Q 434 3047 434 3316 
Q 434 3728 753 4026 
Q 1072 4325 1600 4325 
Q 2113 4325 2425 4047 
Q 2738 3769 2738 3413 
Q 2738 3175 2569 2928 
Q 2400 2681 1866 2347 
Q 2416 1922 2594 1678 
Q 2831 1359 2831 1006 
Q 2831 559 2490 242 
Q 2150 -75 1597 -75 
Q 994 -75 656 303 
Q 388 606 388 966 
Q 388 1247 577 1523 
Q 766 1800 1228 2134 
z
M 1719 2469 
Q 2094 2806 2194 3001 
Q 2294 3197 2294 3444 
Q 2294 3772 2109 3958 
Q 1925 4144 1606 4144 
Q 1288 4144 1088 3959 
Q 888 3775 888 3528 
Q 888 3366 970 3203 
Q 1053 3041 1206 2894 
L 1719 2469 
z
M 1375 2016 
Q 1116 1797 991 1539 
Q 866 1281 866 981 
Q 866 578 1086 336 
Q 1306 94 1647 94 
Q 1984 94 2187 284 
Q 2391 475 2391 747 
Q 2391 972 2272 1150 
Q 2050 1481 1375 2016 
z
" transform="scale(0.015625)"/>
       </defs>
       <use xlink:href="#TimesNewRomanPSMT-30"/>
       <use xlink:href="#TimesNewRomanPSMT-2e" transform="translate(50 0)"/>
       <use xlink:href="#TimesNewRomanPSMT-31" transform="translate(75 0)"/>
       <use xlink:href="#TimesNewRomanPSMT-38" transform="translate(125 0)"/>
      </g>
     </g>
    </g>
    <g id="ytick_9">
     <g id="line2d_14">
      <g>
       <use xlink:href="#m81f3d4b42b" x="46.599375" y="21.012842" style="stroke: #000000; stroke-width: 0.8"/>
      </g>
     </g>
     <g id="text_15">
      <!-- 0.19 -->
      <g transform="translate(22.099375 25.179092) scale(0.12 -0.12)">
       <defs>
        <path id="TimesNewRomanPSMT-39" d="M 338 -88 
L 338 28 
Q 744 34 1094 217 
Q 1444 400 1770 856 
Q 2097 1313 2225 1859 
Q 1734 1544 1338 1544 
Q 891 1544 572 1889 
Q 253 2234 253 2806 
Q 253 3363 572 3797 
Q 956 4325 1575 4325 
Q 2097 4325 2469 3894 
Q 2925 3359 2925 2575 
Q 2925 1869 2578 1258 
Q 2231 647 1613 244 
Q 1109 -88 516 -88 
L 338 -88 
z
M 2275 2091 
Q 2331 2497 2331 2741 
Q 2331 3044 2228 3395 
Q 2125 3747 1936 3934 
Q 1747 4122 1506 4122 
Q 1228 4122 1018 3872 
Q 809 3622 809 3128 
Q 809 2469 1088 2097 
Q 1291 1828 1588 1828 
Q 1731 1828 1928 1897 
Q 2125 1966 2275 2091 
z
" transform="scale(0.015625)"/>
       </defs>
       <use xlink:href="#TimesNewRomanPSMT-30"/>
       <use xlink:href="#TimesNewRomanPSMT-2e" transform="translate(50 0)"/>
       <use xlink:href="#TimesNewRomanPSMT-31" transform="translate(75 0)"/>
       <use xlink:href="#TimesNewRomanPSMT-39" transform="translate(125 0)"/>
      </g>
     </g>
    </g>
    <g id="text_16">
     <!-- $\sigma$W -->
     <g transform="translate(15.5325 183.3) rotate(-90) scale(0.12 -0.12)">
      <defs>
       <path id="DejaVuSerif-Italic-3c3" d="M 1653 219 
Q 2116 219 2423 584 
Q 2731 950 2869 1663 
Q 2994 2309 2834 2706 
Q 2694 3044 2203 3047 
Q 1725 3047 1438 2706 
Q 1131 2341 1000 1663 
Q 863 950 1028 584 
Q 1194 219 1653 219 
z
M 2263 3322 
Q 3538 3322 4513 3322 
L 4447 2988 
L 3303 2988 
Q 3706 2509 3541 1663 
Q 3388 869 2855 389 
Q 2322 -91 1594 -91 
Q 869 -91 522 389 
Q 175 869 328 1662 
Q 481 2456 1016 2934 
Q 1447 3322 2263 3322 
z
" transform="scale(0.015625)"/>
       <path id="TimesNewRomanPSMT-57" d="M 5991 4238 
L 5991 4122 
Q 5825 4122 5722 4062 
Q 5619 4003 5525 3841 
Q 5463 3731 5328 3319 
L 4147 -97 
L 4022 -97 
L 3056 2613 
L 2097 -97 
L 1984 -97 
L 725 3422 
Q 584 3816 547 3888 
Q 484 4006 376 4064 
Q 269 4122 84 4122 
L 84 4238 
L 1653 4238 
L 1653 4122 
L 1578 4122 
Q 1413 4122 1325 4047 
Q 1238 3972 1238 3866 
Q 1238 3756 1375 3363 
L 2209 984 
L 2913 3006 
L 2788 3363 
L 2688 3647 
Q 2622 3803 2541 3922 
Q 2500 3981 2441 4022 
Q 2363 4078 2284 4103 
Q 2225 4122 2097 4122 
L 2097 4238 
L 3747 4238 
L 3747 4122 
L 3634 4122 
Q 3459 4122 3378 4047 
Q 3297 3972 3297 3844 
Q 3297 3684 3438 3288 
L 4250 984 
L 5056 3319 
Q 5194 3706 5194 3856 
Q 5194 3928 5148 3990 
Q 5103 4053 5034 4078 
Q 4916 4122 4725 4122 
L 4725 4238 
L 5991 4238 
z
" transform="scale(0.015625)"/>
      </defs>
      <use xlink:href="#DejaVuSerif-Italic-3c3" transform="translate(0 0.78125)"/>
      <use xlink:href="#TimesNewRomanPSMT-57" transform="translate(68.261719 0.78125)"/>
     </g>
    </g>
   </g>
   <g id="line2d_15">
    <path d="M 66.890284 314.360069 
L 168.34483 287.838149 
L 269.799375 248.971612 
L 371.25392 213.799496 
L 472.708466 190.273535 
" clip-path="url(#p601d51b799)" style="fill: none; stroke: #67000d; stroke-width: 1.5; stroke-linecap: square"/>
   </g>
   <g id="LineCollection_1">
    <path d="M 66.890284 324.72 
L 66.890284 304.000139 
" clip-path="url(#p601d51b799)" style="fill: none; stroke: #67000d; stroke-width: 1.5"/>
    <path d="M 168.34483 297.331099 
L 168.34483 278.345199 
" clip-path="url(#p601d51b799)" style="fill: none; stroke: #67000d; stroke-width: 1.5"/>
    <path d="M 269.799375 260.767206 
L 269.799375 237.176019 
" clip-path="url(#p601d51b799)" style="fill: none; stroke: #67000d; stroke-width: 1.5"/>
    <path d="M 371.25392 224.75324 
L 371.25392 202.845751 
" clip-path="url(#p601d51b799)" style="fill: none; stroke: #67000d; stroke-width: 1.5"/>
   </g>
   <g id="line2d_16">
    <defs>
     <path id="md3cc4a891c" d="M 5 0 
L -5 -0 
" style="stroke: #67000d"/>
    </defs>
    <g clip-path="url(#p601d51b799)">
     <use xlink:href="#md3cc4a891c" x="66.890284" y="324.72" style="fill: #67000d; stroke: #67000d"/>
     <use xlink:href="#md3cc4a891c" x="168.34483" y="297.331099" style="fill: #67000d; stroke: #67000d"/>
     <use xlink:href="#md3cc4a891c" x="269.799375" y="260.767206" style="fill: #67000d; stroke: #67000d"/>
     <use xlink:href="#md3cc4a891c" x="371.25392" y="224.75324" style="fill: #67000d; stroke: #67000d"/>
    </g>
   </g>
   <g id="line2d_17">
    <g clip-path="url(#p601d51b799)">
     <use xlink:href="#md3cc4a891c" x="66.890284" y="304.000139" style="fill: #67000d; stroke: #67000d"/>
     <use xlink:href="#md3cc4a891c" x="168.34483" y="278.345199" style="fill: #67000d; stroke: #67000d"/>
     <use xlink:href="#md3cc4a891c" x="269.799375" y="237.176019" style="fill: #67000d; stroke: #67000d"/>
     <use xlink:href="#md3cc4a891c" x="371.25392" y="202.845751" style="fill: #67000d; stroke: #67000d"/>
    </g>
   </g>
   <g id="line2d_18">
    <path d="M 66.890284 207.171059 
L 168.34483 209.128693 
L 269.799375 199.339793 
L 371.25392 191.638294 
L 472.708466 191.755564 
" clip-path="url(#p601d51b799)" style="fill: none; stroke: #ca181d; stroke-width: 1.5; stroke-linecap: square"/>
   </g>
   <g id="LineCollection_2">
    <path d="M 66.890284 220.627438 
L 66.890284 193.71468 
" clip-path="url(#p601d51b799)" style="fill: none; stroke: #ca181d; stroke-width: 1.5"/>
    <path d="M 168.34483 219.875255 
L 168.34483 198.382131 
" clip-path="url(#p601d51b799)" style="fill: none; stroke: #ca181d; stroke-width: 1.5"/>
    <path d="M 269.799375 211.947586 
L 269.799375 186.732 
" clip-path="url(#p601d51b799)" style="fill: none; stroke: #ca181d; stroke-width: 1.5"/>
    <path d="M 371.25392 202.653298 
L 371.25392 180.62329 
" clip-path="url(#p601d51b799)" style="fill: none; stroke: #ca181d; stroke-width: 1.5"/>
   </g>
   <g id="line2d_19">
    <defs>
     <path id="m1b984a0b33" d="M 5 0 
L -5 -0 
" style="stroke: #ca181d"/>
    </defs>
    <g clip-path="url(#p601d51b799)">
     <use xlink:href="#m1b984a0b33" x="66.890284" y="220.627438" style="fill: #ca181d; stroke: #ca181d"/>
     <use xlink:href="#m1b984a0b33" x="168.34483" y="219.875255" style="fill: #ca181d; stroke: #ca181d"/>
     <use xlink:href="#m1b984a0b33" x="269.799375" y="211.947586" style="fill: #ca181d; stroke: #ca181d"/>
     <use xlink:href="#m1b984a0b33" x="371.25392" y="202.653298" style="fill: #ca181d; stroke: #ca181d"/>
    </g>
   </g>
   <g id="line2d_20">
    <g clip-path="url(#p601d51b799)">
     <use xlink:href="#m1b984a0b33" x="66.890284" y="193.71468" style="fill: #ca181d; stroke: #ca181d"/>
     <use xlink:href="#m1b984a0b33" x="168.34483" y="198.382131" style="fill: #ca181d; stroke: #ca181d"/>
     <use xlink:href="#m1b984a0b33" x="269.799375" y="186.732" style="fill: #ca181d; stroke: #ca181d"/>
     <use xlink:href="#m1b984a0b33" x="371.25392" y="180.62329" style="fill: #ca181d; stroke: #ca181d"/>
    </g>
   </g>
   <g id="line2d_21">
    <path d="M 66.890284 113.940489 
L 168.34483 143.643853 
L 269.799375 158.616861 
L 371.25392 176.712712 
L 472.708466 193.089534 
" clip-path="url(#p601d51b799)" style="fill: none; stroke: #fb694a; stroke-width: 1.5; stroke-linecap: square"/>
   </g>
   <g id="LineCollection_3">
    <path d="M 66.890284 127.32945 
L 66.890284 100.551528 
" clip-path="url(#p601d51b799)" style="fill: none; stroke: #fb694a; stroke-width: 1.5"/>
    <path d="M 168.34483 155.167353 
L 168.34483 132.120353 
" clip-path="url(#p601d51b799)" style="fill: none; stroke: #fb694a; stroke-width: 1.5"/>
    <path d="M 269.799375 168.370532 
L 269.799375 148.863189 
" clip-path="url(#p601d51b799)" style="fill: none; stroke: #fb694a; stroke-width: 1.5"/>
    <path d="M 371.25392 187.08796 
L 371.25392 166.337465 
" clip-path="url(#p601d51b799)" style="fill: none; stroke: #fb694a; stroke-width: 1.5"/>
   </g>
   <g id="line2d_22">
    <defs>
     <path id="m9d451e3b0b" d="M 5 0 
L -5 -0 
" style="stroke: #fb694a"/>
    </defs>
    <g clip-path="url(#p601d51b799)">
     <use xlink:href="#m9d451e3b0b" x="66.890284" y="127.32945" style="fill: #fb694a; stroke: #fb694a"/>
     <use xlink:href="#m9d451e3b0b" x="168.34483" y="155.167353" style="fill: #fb694a; stroke: #fb694a"/>
     <use xlink:href="#m9d451e3b0b" x="269.799375" y="168.370532" style="fill: #fb694a; stroke: #fb694a"/>
     <use xlink:href="#m9d451e3b0b" x="371.25392" y="187.08796" style="fill: #fb694a; stroke: #fb694a"/>
    </g>
   </g>
   <g id="line2d_23">
    <g clip-path="url(#p601d51b799)">
     <use xlink:href="#m9d451e3b0b" x="66.890284" y="100.551528" style="fill: #fb694a; stroke: #fb694a"/>
     <use xlink:href="#m9d451e3b0b" x="168.34483" y="132.120353" style="fill: #fb694a; stroke: #fb694a"/>
     <use xlink:href="#m9d451e3b0b" x="269.799375" y="148.863189" style="fill: #fb694a; stroke: #fb694a"/>
     <use xlink:href="#m9d451e3b0b" x="371.25392" y="166.337465" style="fill: #fb694a; stroke: #fb694a"/>
    </g>
   </g>
   <g id="line2d_24">
    <path d="M 66.890284 36.983901 
L 168.34483 93.219815 
L 269.799375 130.151692 
L 371.25392 168.852721 
L 472.708466 194.448731 
" clip-path="url(#p601d51b799)" style="fill: none; stroke: #fcbba1; stroke-width: 1.5; stroke-linecap: square"/>
   </g>
   <g id="LineCollection_4">
    <path d="M 66.890284 51.647801 
L 66.890284 22.32 
" clip-path="url(#p601d51b799)" style="fill: none; stroke: #fcbba1; stroke-width: 1.5"/>
    <path d="M 168.34483 103.806645 
L 168.34483 82.632986 
" clip-path="url(#p601d51b799)" style="fill: none; stroke: #fcbba1; stroke-width: 1.5"/>
    <path d="M 269.799375 141.270918 
L 269.799375 119.032465 
" clip-path="url(#p601d51b799)" style="fill: none; stroke: #fcbba1; stroke-width: 1.5"/>
    <path d="M 371.25392 180.082596 
L 371.25392 157.622846 
" clip-path="url(#p601d51b799)" style="fill: none; stroke: #fcbba1; stroke-width: 1.5"/>
   </g>
   <g id="line2d_25">
    <defs>
     <path id="m2857074a57" d="M 5 0 
L -5 -0 
" style="stroke: #fcbba1"/>
    </defs>
    <g clip-path="url(#p601d51b799)">
     <use xlink:href="#m2857074a57" x="66.890284" y="51.647801" style="fill: #fcbba1; stroke: #fcbba1"/>
     <use xlink:href="#m2857074a57" x="168.34483" y="103.806645" style="fill: #fcbba1; stroke: #fcbba1"/>
     <use xlink:href="#m2857074a57" x="269.799375" y="141.270918" style="fill: #fcbba1; stroke: #fcbba1"/>
     <use xlink:href="#m2857074a57" x="371.25392" y="180.082596" style="fill: #fcbba1; stroke: #fcbba1"/>
    </g>
   </g>
   <g id="line2d_26">
    <g clip-path="url(#p601d51b799)">
     <use xlink:href="#m2857074a57" x="66.890284" y="22.32" style="fill: #fcbba1; stroke: #fcbba1"/>
     <use xlink:href="#m2857074a57" x="168.34483" y="82.632986" style="fill: #fcbba1; stroke: #fcbba1"/>
     <use xlink:href="#m2857074a57" x="269.799375" y="119.032465" style="fill: #fcbba1; stroke: #fcbba1"/>
     <use xlink:href="#m2857074a57" x="371.25392" y="157.622846" style="fill: #fcbba1; stroke: #fcbba1"/>
    </g>
   </g>
   <g id="LineCollection_5">
    <path d="M 472.708466 203.254936 
L 472.708466 185.642525 
" clip-path="url(#p601d51b799)" style="fill: none; stroke: #4682b4; stroke-width: 1.5"/>
   </g>
   <g id="line2d_27">
    <defs>
     <path id="m1ba824058f" d="M 5 0 
L -5 -0 
" style="stroke: #4682b4"/>
    </defs>
    <g clip-path="url(#p601d51b799)">
     <use xlink:href="#m1ba824058f" x="472.708466" y="203.254936" style="fill: #4682b4; stroke: #4682b4"/>
    </g>
   </g>
   <g id="line2d_28">
    <g clip-path="url(#p601d51b799)">
     <use xlink:href="#m1ba824058f" x="472.708466" y="185.642525" style="fill: #4682b4; stroke: #4682b4"/>
    </g>
   </g>
   <g id="line2d_29">
    <defs>
     <path id="m37603da858" d="M 0 3 
C 0.795609 3 1.55874 2.683901 2.12132 2.12132 
C 2.683901 1.55874 3 0.795609 3 0 
C 3 -0.795609 2.683901 -1.55874 2.12132 -2.12132 
C 1.55874 -2.683901 0.795609 -3 0 -3 
C -0.795609 -3 -1.55874 -2.683901 -2.12132 -2.12132 
C -2.683901 -1.55874 -3 -0.795609 -3 0 
C -3 0.795609 -2.683901 1.55874 -2.12132 2.12132 
C -1.55874 2.683901 -0.795609 3 0 3 
z
" style="stroke: #67000d"/>
    </defs>
    <g clip-path="url(#p601d51b799)">
     <use xlink:href="#m37603da858" x="66.890284" y="314.360069" style="fill: #67000d; stroke: #67000d"/>
     <use xlink:href="#m37603da858" x="168.34483" y="287.838149" style="fill: #67000d; stroke: #67000d"/>
     <use xlink:href="#m37603da858" x="269.799375" y="248.971612" style="fill: #67000d; stroke: #67000d"/>
     <use xlink:href="#m37603da858" x="371.25392" y="213.799496" style="fill: #67000d; stroke: #67000d"/>
    </g>
   </g>
   <g id="line2d_30">
    <defs>
     <path id="m1f5e0900c0" d="M 0 3 
C 0.795609 3 1.55874 2.683901 2.12132 2.12132 
C 2.683901 1.55874 3 0.795609 3 0 
C 3 -0.795609 2.683901 -1.55874 2.12132 -2.12132 
C 1.55874 -2.683901 0.795609 -3 0 -3 
C -0.795609 -3 -1.55874 -2.683901 -2.12132 -2.12132 
C -2.683901 -1.55874 -3 -0.795609 -3 0 
C -3 0.795609 -2.683901 1.55874 -2.12132 2.12132 
C -1.55874 2.683901 -0.795609 3 0 3 
z
" style="stroke: #ca181d"/>
    </defs>
    <g clip-path="url(#p601d51b799)">
     <use xlink:href="#m1f5e0900c0" x="66.890284" y="207.171059" style="fill: #ca181d; stroke: #ca181d"/>
     <use xlink:href="#m1f5e0900c0" x="168.34483" y="209.128693" style="fill: #ca181d; stroke: #ca181d"/>
     <use xlink:href="#m1f5e0900c0" x="269.799375" y="199.339793" style="fill: #ca181d; stroke: #ca181d"/>
     <use xlink:href="#m1f5e0900c0" x="371.25392" y="191.638294" style="fill: #ca181d; stroke: #ca181d"/>
    </g>
   </g>
   <g id="line2d_31">
    <defs>
     <path id="m1df5a00973" d="M 0 3 
C 0.795609 3 1.55874 2.683901 2.12132 2.12132 
C 2.683901 1.55874 3 0.795609 3 0 
C 3 -0.795609 2.683901 -1.55874 2.12132 -2.12132 
C 1.55874 -2.683901 0.795609 -3 0 -3 
C -0.795609 -3 -1.55874 -2.683901 -2.12132 -2.12132 
C -2.683901 -1.55874 -3 -0.795609 -3 0 
C -3 0.795609 -2.683901 1.55874 -2.12132 2.12132 
C -1.55874 2.683901 -0.795609 3 0 3 
z
" style="stroke: #fb694a"/>
    </defs>
    <g clip-path="url(#p601d51b799)">
     <use xlink:href="#m1df5a00973" x="66.890284" y="113.940489" style="fill: #fb694a; stroke: #fb694a"/>
     <use xlink:href="#m1df5a00973" x="168.34483" y="143.643853" style="fill: #fb694a; stroke: #fb694a"/>
     <use xlink:href="#m1df5a00973" x="269.799375" y="158.616861" style="fill: #fb694a; stroke: #fb694a"/>
     <use xlink:href="#m1df5a00973" x="371.25392" y="176.712712" style="fill: #fb694a; stroke: #fb694a"/>
    </g>
   </g>
   <g id="line2d_32">
    <defs>
     <path id="mc7c5a5781f" d="M 0 3 
C 0.795609 3 1.55874 2.683901 2.12132 2.12132 
C 2.683901 1.55874 3 0.795609 3 0 
C 3 -0.795609 2.683901 -1.55874 2.12132 -2.12132 
C 1.55874 -2.683901 0.795609 -3 0 -3 
C -0.795609 -3 -1.55874 -2.683901 -2.12132 -2.12132 
C -2.683901 -1.55874 -3 -0.795609 -3 0 
C -3 0.795609 -2.683901 1.55874 -2.12132 2.12132 
C -1.55874 2.683901 -0.795609 3 0 3 
z
" style="stroke: #fcbba1"/>
    </defs>
    <g clip-path="url(#p601d51b799)">
     <use xlink:href="#mc7c5a5781f" x="66.890284" y="36.983901" style="fill: #fcbba1; stroke: #fcbba1"/>
     <use xlink:href="#mc7c5a5781f" x="168.34483" y="93.219815" style="fill: #fcbba1; stroke: #fcbba1"/>
     <use xlink:href="#mc7c5a5781f" x="269.799375" y="130.151692" style="fill: #fcbba1; stroke: #fcbba1"/>
     <use xlink:href="#mc7c5a5781f" x="371.25392" y="168.852721" style="fill: #fcbba1; stroke: #fcbba1"/>
    </g>
   </g>
   <g id="line2d_33">
    <defs>
     <path id="m4f12dc764e" d="M 0 3 
C 0.795609 3 1.55874 2.683901 2.12132 2.12132 
C 2.683901 1.55874 3 0.795609 3 0 
C 3 -0.795609 2.683901 -1.55874 2.12132 -2.12132 
C 1.55874 -2.683901 0.795609 -3 0 -3 
C -0.795609 -3 -1.55874 -2.683901 -2.12132 -2.12132 
C -2.683901 -1.55874 -3 -0.795609 -3 0 
C -3 0.795609 -2.683901 1.55874 -2.12132 2.12132 
C -1.55874 2.683901 -0.795609 3 0 3 
z
" style="stroke: #4682b4"/>
    </defs>
    <g clip-path="url(#p601d51b799)">
     <use xlink:href="#m4f12dc764e" x="472.708466" y="194.448731" style="fill: #4682b4; stroke: #4682b4"/>
    </g>
   </g>
   <g id="patch_3">
    <path d="M 46.599375 339.84 
L 46.599375 7.2 
" style="fill: none; stroke: #000000; stroke-width: 0.8; stroke-linejoin: miter; stroke-linecap: square"/>
   </g>
   <g id="patch_4">
    <path d="M 492.999375 339.84 
L 492.999375 7.2 
" style="fill: none; stroke: #000000; stroke-width: 0.8; stroke-linejoin: miter; stroke-linecap: square"/>
   </g>
   <g id="patch_5">
    <path d="M 46.599375 339.84 
L 492.999375 339.84 
" style="fill: none; stroke: #000000; stroke-width: 0.8; stroke-linejoin: miter; stroke-linecap: square"/>
   </g>
   <g id="patch_6">
    <path d="M 46.599375 7.2 
L 492.999375 7.2 
" style="fill: none; stroke: #000000; stroke-width: 0.8; stroke-linejoin: miter; stroke-linecap: square"/>
   </g>
   <g id="legend_1">
    <g id="patch_7">
     <path d="M 400.599375 126.631125 
L 484.599375 126.631125 
Q 486.999375 126.631125 486.999375 124.231125 
L 486.999375 15.6 
Q 486.999375 13.2 484.599375 13.2 
L 400.599375 13.2 
Q 398.199375 13.2 398.199375 15.6 
L 398.199375 124.231125 
Q 398.199375 126.631125 400.599375 126.631125 
z
" style="fill: #ffffff; opacity: 0.8; stroke: #cccccc; stroke-linejoin: miter"/>
    </g>
    <g id="LineCollection_6">
     <path d="M 414.999375 35.698875 
L 414.999375 23.698875 
" style="fill: none; stroke: #67000d; stroke-width: 1.5"/>
    </g>
    <g id="line2d_34">
     <g>
      <use xlink:href="#md3cc4a891c" x="414.999375" y="35.698875" style="fill: #67000d; stroke: #67000d"/>
     </g>
    </g>
    <g id="line2d_35">
     <g>
      <use xlink:href="#md3cc4a891c" x="414.999375" y="23.698875" style="fill: #67000d; stroke: #67000d"/>
     </g>
    </g>
    <g id="line2d_36"/>
    <g id="line2d_37">
     <g>
      <use xlink:href="#m37603da858" x="414.999375" y="29.698875" style="fill: #67000d; stroke: #67000d"/>
     </g>
    </g>
    <g id="text_17">
     <!-- LIF -->
     <g transform="translate(436.599375 26.3325) scale(0.12 -0.12)">
      <use xlink:href="#TimesNewRomanPSMT-4c"/>
      <use xlink:href="#TimesNewRomanPSMT-49" transform="translate(61.083984 0)"/>
      <use xlink:href="#TimesNewRomanPSMT-46" transform="translate(94.384766 0)"/>
     </g>
     <!-- $F'$=14.44 -->
     <g transform="translate(436.599375 38.898375) scale(0.12 -0.12)">
      <defs>
       <path id="DejaVuSerif-Italic-46" d="M -97 0 
L -34 331 
L 559 331 
L 1338 4331 
L 744 4331 
L 809 4666 
L 4628 4666 
L 4428 3628 
L 4044 3628 
L 4169 4281 
L 1963 4281 
L 1659 2719 
L 3253 2719 
L 3366 3303 
L 3750 3303 
L 3450 1753 
L 3066 1753 
L 3178 2338 
L 1584 2338 
L 1194 331 
L 1941 331 
L 1878 0 
L -97 0 
z
" transform="scale(0.015625)"/>
       <path id="Cmsy10-30" d="M 225 347 
Q 184 359 184 409 
L 966 3316 
Q 1003 3434 1093 3506 
Q 1184 3578 1300 3578 
Q 1450 3578 1564 3479 
Q 1678 3381 1678 3231 
Q 1678 3166 1644 3084 
L 488 319 
Q 466 275 428 275 
Q 394 275 320 306 
Q 247 338 225 347 
z
" transform="scale(0.015625)"/>
       <path id="TimesNewRomanPSMT-3d" d="M 116 2759 
L 3488 2759 
L 3488 2503 
L 116 2503 
L 116 2759 
z
M 116 1741 
L 3488 1741 
L 3488 1484 
L 116 1484 
L 116 1741 
z
" transform="scale(0.015625)"/>
      </defs>
      <use xlink:href="#DejaVuSerif-Italic-46" transform="translate(0 0.53125)"/>
      <use xlink:href="#Cmsy10-30" transform="translate(76.563776 36.865625) scale(0.7)"/>
      <use xlink:href="#TimesNewRomanPSMT-3d" transform="translate(98.402253 0.53125)"/>
      <use xlink:href="#TimesNewRomanPSMT-31" transform="translate(154.798737 0.53125)"/>
      <use xlink:href="#TimesNewRomanPSMT-34" transform="translate(204.798737 0.53125)"/>
      <use xlink:href="#TimesNewRomanPSMT-2e" transform="translate(254.798737 0.53125)"/>
      <use xlink:href="#TimesNewRomanPSMT-34" transform="translate(279.798737 0.53125)"/>
      <use xlink:href="#TimesNewRomanPSMT-34" transform="translate(329.798737 0.53125)"/>
     </g>
    </g>
    <g id="LineCollection_7">
     <path d="M 414.999375 57.66525 
L 414.999375 45.66525 
" style="fill: none; stroke: #ca181d; stroke-width: 1.5"/>
    </g>
    <g id="line2d_38">
     <g>
      <use xlink:href="#m1b984a0b33" x="414.999375" y="57.66525" style="fill: #ca181d; stroke: #ca181d"/>
     </g>
    </g>
    <g id="line2d_39">
     <g>
      <use xlink:href="#m1b984a0b33" x="414.999375" y="45.66525" style="fill: #ca181d; stroke: #ca181d"/>
     </g>
    </g>
    <g id="line2d_40"/>
    <g id="line2d_41">
     <g>
      <use xlink:href="#m1f5e0900c0" x="414.999375" y="51.66525" style="fill: #ca181d; stroke: #ca181d"/>
     </g>
    </g>
    <g id="text_18">
     <!-- $F'$=10.68 -->
     <g transform="translate(436.599375 55.86525) scale(0.12 -0.12)">
      <use xlink:href="#DejaVuSerif-Italic-46" transform="translate(0 0.53125)"/>
      <use xlink:href="#Cmsy10-30" transform="translate(76.563776 36.865625) scale(0.7)"/>
      <use xlink:href="#TimesNewRomanPSMT-3d" transform="translate(98.402253 0.53125)"/>
      <use xlink:href="#TimesNewRomanPSMT-31" transform="translate(154.798737 0.53125)"/>
      <use xlink:href="#TimesNewRomanPSMT-30" transform="translate(204.798737 0.53125)"/>
      <use xlink:href="#TimesNewRomanPSMT-2e" transform="translate(254.798737 0.53125)"/>
      <use xlink:href="#TimesNewRomanPSMT-36" transform="translate(279.798737 0.53125)"/>
      <use xlink:href="#TimesNewRomanPSMT-38" transform="translate(329.798737 0.53125)"/>
     </g>
    </g>
    <g id="LineCollection_8">
     <path d="M 414.999375 74.632125 
L 414.999375 62.632125 
" style="fill: none; stroke: #fb694a; stroke-width: 1.5"/>
    </g>
    <g id="line2d_42">
     <g>
      <use xlink:href="#m9d451e3b0b" x="414.999375" y="74.632125" style="fill: #fb694a; stroke: #fb694a"/>
     </g>
    </g>
    <g id="line2d_43">
     <g>
      <use xlink:href="#m9d451e3b0b" x="414.999375" y="62.632125" style="fill: #fb694a; stroke: #fb694a"/>
     </g>
    </g>
    <g id="line2d_44"/>
    <g id="line2d_45">
     <g>
      <use xlink:href="#m1df5a00973" x="414.999375" y="68.632125" style="fill: #fb694a; stroke: #fb694a"/>
     </g>
    </g>
    <g id="text_19">
     <!-- $F'$=8.65 -->
     <g transform="translate(436.599375 72.832125) scale(0.12 -0.12)">
      <use xlink:href="#DejaVuSerif-Italic-46" transform="translate(0 0.53125)"/>
      <use xlink:href="#Cmsy10-30" transform="translate(76.563776 36.865625) scale(0.7)"/>
      <use xlink:href="#TimesNewRomanPSMT-3d" transform="translate(98.402253 0.53125)"/>
      <use xlink:href="#TimesNewRomanPSMT-38" transform="translate(154.798737 0.53125)"/>
      <use xlink:href="#TimesNewRomanPSMT-2e" transform="translate(204.798737 0.53125)"/>
      <use xlink:href="#TimesNewRomanPSMT-36" transform="translate(229.798737 0.53125)"/>
      <use xlink:href="#TimesNewRomanPSMT-35" transform="translate(279.798737 0.53125)"/>
     </g>
    </g>
    <g id="LineCollection_9">
     <path d="M 414.999375 91.599 
L 414.999375 79.599 
" style="fill: none; stroke: #fcbba1; stroke-width: 1.5"/>
    </g>
    <g id="line2d_46">
     <g>
      <use xlink:href="#m2857074a57" x="414.999375" y="91.599" style="fill: #fcbba1; stroke: #fcbba1"/>
     </g>
    </g>
    <g id="line2d_47">
     <g>
      <use xlink:href="#m2857074a57" x="414.999375" y="79.599" style="fill: #fcbba1; stroke: #fcbba1"/>
     </g>
    </g>
    <g id="line2d_48"/>
    <g id="line2d_49">
     <g>
      <use xlink:href="#mc7c5a5781f" x="414.999375" y="85.599" style="fill: #fcbba1; stroke: #fcbba1"/>
     </g>
    </g>
    <g id="text_20">
     <!-- $F'$=7.18 -->
     <g transform="translate(436.599375 89.799) scale(0.12 -0.12)">
      <use xlink:href="#DejaVuSerif-Italic-46" transform="translate(0 0.53125)"/>
      <use xlink:href="#Cmsy10-30" transform="translate(76.563776 36.865625) scale(0.7)"/>
      <use xlink:href="#TimesNewRomanPSMT-3d" transform="translate(98.402253 0.53125)"/>
      <use xlink:href="#TimesNewRomanPSMT-37" transform="translate(154.798737 0.53125)"/>
      <use xlink:href="#TimesNewRomanPSMT-2e" transform="translate(204.798737 0.53125)"/>
      <use xlink:href="#TimesNewRomanPSMT-31" transform="translate(229.798737 0.53125)"/>
      <use xlink:href="#TimesNewRomanPSMT-38" transform="translate(279.798737 0.53125)"/>
     </g>
    </g>
    <g id="LineCollection_10">
     <path d="M 414.999375 116.06475 
L 414.999375 104.06475 
" style="fill: none; stroke: #4682b4; stroke-width: 1.5"/>
    </g>
    <g id="line2d_50">
     <g>
      <use xlink:href="#m1ba824058f" x="414.999375" y="116.06475" style="fill: #4682b4; stroke: #4682b4"/>
     </g>
    </g>
    <g id="line2d_51">
     <g>
      <use xlink:href="#m1ba824058f" x="414.999375" y="104.06475" style="fill: #4682b4; stroke: #4682b4"/>
     </g>
    </g>
    <g id="line2d_52"/>
    <g id="line2d_53">
     <g>
      <use xlink:href="#m4f12dc764e" x="414.999375" y="110.06475" style="fill: #4682b4; stroke: #4682b4"/>
     </g>
    </g>
    <g id="text_21">
     <!-- QIF -->
     <g transform="translate(436.599375 106.698375) scale(0.12 -0.12)">
      <use xlink:href="#TimesNewRomanPSMT-51"/>
      <use xlink:href="#TimesNewRomanPSMT-49" transform="translate(72.216797 0)"/>
      <use xlink:href="#TimesNewRomanPSMT-46" transform="translate(105.517578 0)"/>
     </g>
     <!-- $F'$=10.74 -->
     <g transform="translate(436.599375 119.26425) scale(0.12 -0.12)">
      <use xlink:href="#DejaVuSerif-Italic-46" transform="translate(0 0.53125)"/>
      <use xlink:href="#Cmsy10-30" transform="translate(76.563776 36.865625) scale(0.7)"/>
      <use xlink:href="#TimesNewRomanPSMT-3d" transform="translate(98.402253 0.53125)"/>
      <use xlink:href="#TimesNewRomanPSMT-31" transform="translate(154.798737 0.53125)"/>
      <use xlink:href="#TimesNewRomanPSMT-30" transform="translate(204.798737 0.53125)"/>
      <use xlink:href="#TimesNewRomanPSMT-2e" transform="translate(254.798737 0.53125)"/>
      <use xlink:href="#TimesNewRomanPSMT-37" transform="translate(279.798737 0.53125)"/>
      <use xlink:href="#TimesNewRomanPSMT-34" transform="translate(329.798737 0.53125)"/>
     </g>
    </g>
   </g>
  </g>
 </g>
 <defs>
  <clipPath id="p601d51b799">
   <rect x="46.599375" y="7.2" width="446.4" height="332.64"/>
  </clipPath>
 </defs>
</svg>
