<?xml version="1.0" encoding="utf-8" standalone="no"?>
<!DOCTYPE svg PUBLIC "-//W3C//DTD SVG 1.1//EN"
  "http://www.w3.org/Graphics/SVG/1.1/DTD/svg11.dtd">
<svg xmlns:xlink="http://www.w3.org/1999/xlink" width="208.221875pt" height="206.385625pt" viewBox="0 0 208.221875 206.385625" xmlns="http://www.w3.org/2000/svg" version="1.1">
 <metadata>
  <rdf:RDF xmlns:dc="http://purl.org/dc/elements/1.1/" xmlns:cc="http://creativecommons.org/ns#" xmlns:rdf="http://www.w3.org/1999/02/22-rdf-syntax-ns#">
   <cc:Work>
    <dc:type rdf:resource="http://purl.org/dc/dcmitype/StillImage"/>
    <dc:date>2025-12-22T12:17:58.392263</dc:date>
    <dc:format>image/svg+xml</dc:format>
    <dc:creator>
     <cc:Agent>
      <dc:title>Matplotlib v3.10.5, https://matplotlib.org/</dc:title>
     </cc:Agent>
    </dc:creator>
   </cc:Work>
  </rdf:RDF>
 </metadata>
 <defs>
  <style type="text/css">*{stroke-linejoin: round; stroke-linecap: butt}</style>
 </defs>
 <g id="figure_1">
  <g id="patch_1">
   <path d="M 0 206.385625 
L 208.221875 206.385625 
L 208.221875 0 
L 0 0 
z
" style="fill: #ffffff"/>
  </g>
  <g id="axes_1">
   <g id="patch_2">
    <path d="M 33.621875 173.52 
L 201.021875 173.52 
L 201.021875 7.2 
L 33.621875 7.2 
z
" style="fill: #ffffff"/>
   </g>
   <g id="matplotlib.axis_1">
    <g id="xtick_1">
     <g id="line2d_1">
      <defs>
       <path id="m5da4c97424" d="M 0 0 
L 0 -3.5 
" style="stroke: #000000; stroke-width: 0.8"/>
      </defs>
      <g>
       <use xlink:href="#m5da4c97424" x="41.230966" y="173.52" style="stroke: #000000; stroke-width: 0.8"/>
      </g>
     </g>
     <g id="text_1">
      <!-- 0 -->
      <g transform="translate(39.230966 182.575) scale(0.08 -0.08)">
       <defs>
        <path id="TimesNewRomanPSMT-30" d="M 231 2094 
Q 231 2819 450 3342 
Q 669 3866 1031 4122 
Q 1313 4325 1613 4325 
Q 2100 4325 2488 3828 
Q 2972 3213 2972 2159 
Q 2972 1422 2759 906 
Q 2547 391 2217 158 
Q 1888 -75 1581 -75 
Q 975 -75 572 641 
Q 231 1244 231 2094 
z
M 844 2016 
Q 844 1141 1059 588 
Q 1238 122 1591 122 
Q 1759 122 1940 273 
Q 2122 425 2216 781 
Q 2359 1319 2359 2297 
Q 2359 3022 2209 3506 
Q 2097 3866 1919 4016 
Q 1791 4119 1609 4119 
Q 1397 4119 1231 3928 
Q 1006 3669 925 3112 
Q 844 2556 844 2016 
z
" transform="scale(0.015625)"/>
       </defs>
       <use xlink:href="#TimesNewRomanPSMT-30"/>
      </g>
     </g>
    </g>
    <g id="xtick_2">
     <g id="line2d_2">
      <g>
       <use xlink:href="#m5da4c97424" x="79.27642" y="173.52" style="stroke: #000000; stroke-width: 0.8"/>
      </g>
     </g>
     <g id="text_2">
      <!-- 1 -->
      <g transform="translate(77.27642 182.575) scale(0.08 -0.08)">
       <defs>
        <path id="TimesNewRomanPSMT-31" d="M 750 3822 
L 1781 4325 
L 1884 4325 
L 1884 747 
Q 1884 391 1914 303 
Q 1944 216 2037 169 
Q 2131 122 2419 116 
L 2419 0 
L 825 0 
L 825 116 
Q 1125 122 1212 167 
Q 1300 213 1334 289 
Q 1369 366 1369 747 
L 1369 3034 
Q 1369 3497 1338 3628 
Q 1316 3728 1258 3775 
Q 1200 3822 1119 3822 
Q 1003 3822 797 3725 
L 750 3822 
z
" transform="scale(0.015625)"/>
       </defs>
       <use xlink:href="#TimesNewRomanPSMT-31"/>
      </g>
     </g>
    </g>
    <g id="xtick_3">
     <g id="line2d_3">
      <g>
       <use xlink:href="#m5da4c97424" x="117.321875" y="173.52" style="stroke: #000000; stroke-width: 0.8"/>
      </g>
     </g>
     <g id="text_3">
      <!-- 2 -->
      <g transform="translate(115.321875 182.575) scale(0.08 -0.08)">
       <defs>
        <path id="TimesNewRomanPSMT-32" d="M 2934 816 
L 2638 0 
L 138 0 
L 138 116 
Q 1241 1122 1691 1759 
Q 2141 2397 2141 2925 
Q 2141 3328 1894 3587 
Q 1647 3847 1303 3847 
Q 991 3847 742 3664 
Q 494 3481 375 3128 
L 259 3128 
Q 338 3706 661 4015 
Q 984 4325 1469 4325 
Q 1984 4325 2329 3994 
Q 2675 3663 2675 3213 
Q 2675 2891 2525 2569 
Q 2294 2063 1775 1497 
Q 997 647 803 472 
L 1909 472 
Q 2247 472 2383 497 
Q 2519 522 2628 598 
Q 2738 675 2819 816 
L 2934 816 
z
" transform="scale(0.015625)"/>
       </defs>
       <use xlink:href="#TimesNewRomanPSMT-32"/>
      </g>
     </g>
    </g>
    <g id="xtick_4">
     <g id="line2d_4">
      <g>
       <use xlink:href="#m5da4c97424" x="155.36733" y="173.52" style="stroke: #000000; stroke-width: 0.8"/>
      </g>
     </g>
     <g id="text_4">
      <!-- 3 -->
      <g transform="translate(153.36733 182.575) scale(0.08 -0.08)">
       <defs>
        <path id="TimesNewRomanPSMT-33" d="M 325 3431 
Q 506 3859 782 4092 
Q 1059 4325 1472 4325 
Q 1981 4325 2253 3994 
Q 2459 3747 2459 3466 
Q 2459 3003 1878 2509 
Q 2269 2356 2469 2072 
Q 2669 1788 2669 1403 
Q 2669 853 2319 450 
Q 1863 -75 997 -75 
Q 569 -75 414 31 
Q 259 138 259 259 
Q 259 350 332 419 
Q 406 488 509 488 
Q 588 488 669 463 
Q 722 447 909 348 
Q 1097 250 1169 231 
Q 1284 197 1416 197 
Q 1734 197 1970 444 
Q 2206 691 2206 1028 
Q 2206 1275 2097 1509 
Q 2016 1684 1919 1775 
Q 1784 1900 1550 2001 
Q 1316 2103 1072 2103 
L 972 2103 
L 972 2197 
Q 1219 2228 1467 2375 
Q 1716 2522 1828 2728 
Q 1941 2934 1941 3181 
Q 1941 3503 1739 3701 
Q 1538 3900 1238 3900 
Q 753 3900 428 3381 
L 325 3431 
z
" transform="scale(0.015625)"/>
       </defs>
       <use xlink:href="#TimesNewRomanPSMT-33"/>
      </g>
     </g>
    </g>
    <g id="xtick_5">
     <g id="line2d_5">
      <g>
       <use xlink:href="#m5da4c97424" x="193.412784" y="173.52" style="stroke: #000000; stroke-width: 0.8"/>
      </g>
     </g>
     <g id="text_5">
      <!-- 4 -->
      <g transform="translate(191.412784 182.575) scale(0.08 -0.08)">
       <defs>
        <path id="TimesNewRomanPSMT-34" d="M 2978 1563 
L 2978 1119 
L 2409 1119 
L 2409 0 
L 1894 0 
L 1894 1119 
L 100 1119 
L 100 1519 
L 2066 4325 
L 2409 4325 
L 2409 1563 
L 2978 1563 
z
M 1894 1563 
L 1894 3666 
L 406 1563 
L 1894 1563 
z
" transform="scale(0.015625)"/>
       </defs>
       <use xlink:href="#TimesNewRomanPSMT-34"/>
      </g>
     </g>
    </g>
    <g id="text_6">
     <!-- Current (nA) -->
     <g transform="translate(86.165 196.61875) scale(0.12 -0.12)">
      <defs>
       <path id="TimesNewRomanPSMT-43" d="M 3853 4334 
L 3950 2894 
L 3853 2894 
Q 3659 3541 3300 3825 
Q 2941 4109 2438 4109 
Q 2016 4109 1675 3895 
Q 1334 3681 1139 3212 
Q 944 2744 944 2047 
Q 944 1472 1128 1050 
Q 1313 628 1683 403 
Q 2053 178 2528 178 
Q 2941 178 3256 354 
Q 3572 531 3950 1056 
L 4047 994 
Q 3728 428 3303 165 
Q 2878 -97 2294 -97 
Q 1241 -97 663 684 
Q 231 1266 231 2053 
Q 231 2688 515 3219 
Q 800 3750 1298 4042 
Q 1797 4334 2388 4334 
Q 2847 4334 3294 4109 
Q 3425 4041 3481 4041 
Q 3566 4041 3628 4100 
Q 3709 4184 3744 4334 
L 3853 4334 
z
" transform="scale(0.015625)"/>
       <path id="TimesNewRomanPSMT-75" d="M 2709 2863 
L 2709 1128 
Q 2709 631 2732 520 
Q 2756 409 2807 365 
Q 2859 322 2928 322 
Q 3025 322 3147 375 
L 3191 266 
L 2334 -88 
L 2194 -88 
L 2194 519 
Q 1825 119 1631 15 
Q 1438 -88 1222 -88 
Q 981 -88 804 51 
Q 628 191 559 409 
Q 491 628 491 1028 
L 491 2306 
Q 491 2509 447 2587 
Q 403 2666 317 2708 
Q 231 2750 6 2747 
L 6 2863 
L 1009 2863 
L 1009 947 
Q 1009 547 1148 422 
Q 1288 297 1484 297 
Q 1619 297 1789 381 
Q 1959 466 2194 703 
L 2194 2325 
Q 2194 2569 2105 2655 
Q 2016 2741 1734 2747 
L 1734 2863 
L 2709 2863 
z
" transform="scale(0.015625)"/>
       <path id="TimesNewRomanPSMT-72" d="M 1038 2947 
L 1038 2303 
Q 1397 2947 1775 2947 
Q 1947 2947 2059 2842 
Q 2172 2738 2172 2600 
Q 2172 2478 2090 2393 
Q 2009 2309 1897 2309 
Q 1788 2309 1652 2417 
Q 1516 2525 1450 2525 
Q 1394 2525 1328 2463 
Q 1188 2334 1038 2041 
L 1038 669 
Q 1038 431 1097 309 
Q 1138 225 1241 169 
Q 1344 113 1538 113 
L 1538 0 
L 72 0 
L 72 113 
Q 291 113 397 181 
Q 475 231 506 341 
Q 522 394 522 644 
L 522 1753 
Q 522 2253 501 2348 
Q 481 2444 426 2487 
Q 372 2531 291 2531 
Q 194 2531 72 2484 
L 41 2597 
L 906 2947 
L 1038 2947 
z
" transform="scale(0.015625)"/>
       <path id="TimesNewRomanPSMT-65" d="M 681 1784 
Q 678 1147 991 784 
Q 1303 422 1725 422 
Q 2006 422 2214 576 
Q 2422 731 2563 1106 
L 2659 1044 
Q 2594 616 2278 264 
Q 1963 -88 1488 -88 
Q 972 -88 605 314 
Q 238 716 238 1394 
Q 238 2128 614 2539 
Q 991 2950 1559 2950 
Q 2041 2950 2350 2633 
Q 2659 2316 2659 1784 
L 681 1784 
z
M 681 1966 
L 2006 1966 
Q 1991 2241 1941 2353 
Q 1863 2528 1708 2628 
Q 1553 2728 1384 2728 
Q 1125 2728 920 2526 
Q 716 2325 681 1966 
z
" transform="scale(0.015625)"/>
       <path id="TimesNewRomanPSMT-6e" d="M 1034 2341 
Q 1538 2947 1994 2947 
Q 2228 2947 2397 2830 
Q 2566 2713 2666 2444 
Q 2734 2256 2734 1869 
L 2734 647 
Q 2734 375 2778 278 
Q 2813 200 2889 156 
Q 2966 113 3172 113 
L 3172 0 
L 1756 0 
L 1756 113 
L 1816 113 
Q 2016 113 2095 173 
Q 2175 234 2206 353 
Q 2219 400 2219 647 
L 2219 1819 
Q 2219 2209 2117 2386 
Q 2016 2563 1775 2563 
Q 1403 2563 1034 2156 
L 1034 647 
Q 1034 356 1069 288 
Q 1113 197 1189 155 
Q 1266 113 1500 113 
L 1500 0 
L 84 0 
L 84 113 
L 147 113 
Q 366 113 442 223 
Q 519 334 519 647 
L 519 1709 
Q 519 2225 495 2337 
Q 472 2450 423 2490 
Q 375 2531 294 2531 
Q 206 2531 84 2484 
L 38 2597 
L 900 2947 
L 1034 2947 
L 1034 2341 
z
" transform="scale(0.015625)"/>
       <path id="TimesNewRomanPSMT-74" d="M 1031 3803 
L 1031 2863 
L 1700 2863 
L 1700 2644 
L 1031 2644 
L 1031 788 
Q 1031 509 1111 412 
Q 1191 316 1316 316 
Q 1419 316 1516 380 
Q 1613 444 1666 569 
L 1788 569 
Q 1678 263 1478 108 
Q 1278 -47 1066 -47 
Q 922 -47 784 33 
Q 647 113 581 261 
Q 516 409 516 719 
L 516 2644 
L 63 2644 
L 63 2747 
Q 234 2816 414 2980 
Q 594 3144 734 3369 
Q 806 3488 934 3803 
L 1031 3803 
z
" transform="scale(0.015625)"/>
       <path id="TimesNewRomanPSMT-20" transform="scale(0.015625)"/>
       <path id="TimesNewRomanPSMT-28" d="M 1988 -1253 
L 1988 -1369 
Q 1516 -1131 1200 -813 
Q 750 -359 506 256 
Q 263 872 263 1534 
Q 263 2503 741 3301 
Q 1219 4100 1988 4444 
L 1988 4313 
Q 1603 4100 1356 3731 
Q 1109 3363 987 2797 
Q 866 2231 866 1616 
Q 866 947 969 400 
Q 1050 -31 1165 -292 
Q 1281 -553 1476 -793 
Q 1672 -1034 1988 -1253 
z
" transform="scale(0.015625)"/>
       <path id="TimesNewRomanPSMT-41" d="M 2928 1419 
L 1288 1419 
L 1000 750 
Q 894 503 894 381 
Q 894 284 986 211 
Q 1078 138 1384 116 
L 1384 0 
L 50 0 
L 50 116 
Q 316 163 394 238 
Q 553 388 747 847 
L 2238 4334 
L 2347 4334 
L 3822 809 
Q 4000 384 4145 257 
Q 4291 131 4550 116 
L 4550 0 
L 2878 0 
L 2878 116 
Q 3131 128 3220 200 
Q 3309 272 3309 375 
Q 3309 513 3184 809 
L 2928 1419 
z
M 2841 1650 
L 2122 3363 
L 1384 1650 
L 2841 1650 
z
" transform="scale(0.015625)"/>
       <path id="TimesNewRomanPSMT-29" d="M 144 4313 
L 144 4444 
Q 619 4209 934 3891 
Q 1381 3434 1625 2820 
Q 1869 2206 1869 1541 
Q 1869 572 1392 -226 
Q 916 -1025 144 -1369 
L 144 -1253 
Q 528 -1038 776 -670 
Q 1025 -303 1145 264 
Q 1266 831 1266 1447 
Q 1266 2113 1163 2663 
Q 1084 3094 967 3353 
Q 850 3613 656 3853 
Q 463 4094 144 4313 
z
" transform="scale(0.015625)"/>
      </defs>
      <use xlink:href="#TimesNewRomanPSMT-43"/>
      <use xlink:href="#TimesNewRomanPSMT-75" transform="translate(66.699219 0)"/>
      <use xlink:href="#TimesNewRomanPSMT-72" transform="translate(116.699219 0)"/>
      <use xlink:href="#TimesNewRomanPSMT-72" transform="translate(150 0)"/>
      <use xlink:href="#TimesNewRomanPSMT-65" transform="translate(183.300781 0)"/>
      <use xlink:href="#TimesNewRomanPSMT-6e" transform="translate(227.685547 0)"/>
      <use xlink:href="#TimesNewRomanPSMT-74" transform="translate(277.685547 0)"/>
      <use xlink:href="#TimesNewRomanPSMT-20" transform="translate(305.46875 0)"/>
      <use xlink:href="#TimesNewRomanPSMT-28" transform="translate(330.46875 0)"/>
      <use xlink:href="#TimesNewRomanPSMT-6e" transform="translate(363.769531 0)"/>
      <use xlink:href="#TimesNewRomanPSMT-41" transform="translate(413.769531 0)"/>
      <use xlink:href="#TimesNewRomanPSMT-29" transform="translate(485.986328 0)"/>
     </g>
    </g>
   </g>
   <g id="matplotlib.axis_2">
    <g id="ytick_1">
     <g id="line2d_6">
      <defs>
       <path id="me189946b22" d="M 0 0 
L 3.5 0 
" style="stroke: #000000; stroke-width: 0.8"/>
      </defs>
      <g>
       <use xlink:href="#me189946b22" x="33.621875" y="165.96" style="stroke: #000000; stroke-width: 0.8"/>
      </g>
     </g>
     <g id="text_7">
      <!-- 0 -->
      <g transform="translate(26.121875 168.7375) scale(0.08 -0.08)">
       <use xlink:href="#TimesNewRomanPSMT-30"/>
      </g>
     </g>
    </g>
    <g id="ytick_2">
     <g id="line2d_7">
      <g>
       <use xlink:href="#me189946b22" x="33.621875" y="145.013479" style="stroke: #000000; stroke-width: 0.8"/>
      </g>
     </g>
     <g id="text_8">
      <!-- 10 -->
      <g transform="translate(22.121875 147.790979) scale(0.08 -0.08)">
       <use xlink:href="#TimesNewRomanPSMT-31"/>
       <use xlink:href="#TimesNewRomanPSMT-30" transform="translate(50 0)"/>
      </g>
     </g>
    </g>
    <g id="ytick_3">
     <g id="line2d_8">
      <g>
       <use xlink:href="#me189946b22" x="33.621875" y="124.066957" style="stroke: #000000; stroke-width: 0.8"/>
      </g>
     </g>
     <g id="text_9">
      <!-- 20 -->
      <g transform="translate(22.121875 126.844457) scale(0.08 -0.08)">
       <use xlink:href="#TimesNewRomanPSMT-32"/>
       <use xlink:href="#TimesNewRomanPSMT-30" transform="translate(50 0)"/>
      </g>
     </g>
    </g>
    <g id="ytick_4">
     <g id="line2d_9">
      <g>
       <use xlink:href="#me189946b22" x="33.621875" y="103.120436" style="stroke: #000000; stroke-width: 0.8"/>
      </g>
     </g>
     <g id="text_10">
      <!-- 30 -->
      <g transform="translate(22.121875 105.897936) scale(0.08 -0.08)">
       <use xlink:href="#TimesNewRomanPSMT-33"/>
       <use xlink:href="#TimesNewRomanPSMT-30" transform="translate(50 0)"/>
      </g>
     </g>
    </g>
    <g id="ytick_5">
     <g id="line2d_10">
      <g>
       <use xlink:href="#me189946b22" x="33.621875" y="82.173915" style="stroke: #000000; stroke-width: 0.8"/>
      </g>
     </g>
     <g id="text_11">
      <!-- 40 -->
      <g transform="translate(22.121875 84.951415) scale(0.08 -0.08)">
       <use xlink:href="#TimesNewRomanPSMT-34"/>
       <use xlink:href="#TimesNewRomanPSMT-30" transform="translate(50 0)"/>
      </g>
     </g>
    </g>
    <g id="ytick_6">
     <g id="line2d_11">
      <g>
       <use xlink:href="#me189946b22" x="33.621875" y="61.227393" style="stroke: #000000; stroke-width: 0.8"/>
      </g>
     </g>
     <g id="text_12">
      <!-- 50 -->
      <g transform="translate(22.121875 64.004893) scale(0.08 -0.08)">
       <defs>
        <path id="TimesNewRomanPSMT-35" d="M 2778 4238 
L 2534 3706 
L 1259 3706 
L 981 3138 
Q 1809 3016 2294 2522 
Q 2709 2097 2709 1522 
Q 2709 1188 2573 903 
Q 2438 619 2231 419 
Q 2025 219 1772 97 
Q 1413 -75 1034 -75 
Q 653 -75 479 54 
Q 306 184 306 341 
Q 306 428 378 495 
Q 450 563 559 563 
Q 641 563 702 538 
Q 763 513 909 409 
Q 1144 247 1384 247 
Q 1750 247 2026 523 
Q 2303 800 2303 1197 
Q 2303 1581 2056 1914 
Q 1809 2247 1375 2428 
Q 1034 2569 447 2591 
L 1259 4238 
L 2778 4238 
z
" transform="scale(0.015625)"/>
       </defs>
       <use xlink:href="#TimesNewRomanPSMT-35"/>
       <use xlink:href="#TimesNewRomanPSMT-30" transform="translate(50 0)"/>
      </g>
     </g>
    </g>
    <g id="ytick_7">
     <g id="line2d_12">
      <g>
       <use xlink:href="#me189946b22" x="33.621875" y="40.280872" style="stroke: #000000; stroke-width: 0.8"/>
      </g>
     </g>
     <g id="text_13">
      <!-- 60 -->
      <g transform="translate(22.121875 43.058372) scale(0.08 -0.08)">
       <defs>
        <path id="TimesNewRomanPSMT-36" d="M 2869 4325 
L 2869 4209 
Q 2456 4169 2195 4045 
Q 1934 3922 1679 3669 
Q 1425 3416 1258 3105 
Q 1091 2794 978 2366 
Q 1428 2675 1881 2675 
Q 2316 2675 2634 2325 
Q 2953 1975 2953 1425 
Q 2953 894 2631 456 
Q 2244 -75 1606 -75 
Q 1172 -75 869 213 
Q 275 772 275 1663 
Q 275 2231 503 2743 
Q 731 3256 1154 3653 
Q 1578 4050 1965 4187 
Q 2353 4325 2688 4325 
L 2869 4325 
z
M 925 2138 
Q 869 1716 869 1456 
Q 869 1156 980 804 
Q 1091 453 1309 247 
Q 1469 100 1697 100 
Q 1969 100 2183 356 
Q 2397 613 2397 1088 
Q 2397 1622 2184 2012 
Q 1972 2403 1581 2403 
Q 1463 2403 1327 2353 
Q 1191 2303 925 2138 
z
" transform="scale(0.015625)"/>
       </defs>
       <use xlink:href="#TimesNewRomanPSMT-36"/>
       <use xlink:href="#TimesNewRomanPSMT-30" transform="translate(50 0)"/>
      </g>
     </g>
    </g>
    <g id="ytick_8">
     <g id="line2d_13">
      <g>
       <use xlink:href="#me189946b22" x="33.621875" y="19.334351" style="stroke: #000000; stroke-width: 0.8"/>
      </g>
     </g>
     <g id="text_14">
      <!-- 70 -->
      <g transform="translate(22.121875 22.111851) scale(0.08 -0.08)">
       <defs>
        <path id="TimesNewRomanPSMT-37" d="M 644 4238 
L 2916 4238 
L 2916 4119 
L 1503 -88 
L 1153 -88 
L 2419 3728 
L 1253 3728 
Q 900 3728 750 3644 
Q 488 3500 328 3200 
L 238 3234 
L 644 4238 
z
" transform="scale(0.015625)"/>
       </defs>
       <use xlink:href="#TimesNewRomanPSMT-37"/>
       <use xlink:href="#TimesNewRomanPSMT-30" transform="translate(50 0)"/>
      </g>
     </g>
    </g>
    <g id="text_15">
     <!-- Firing rate (Hz) -->
     <g transform="translate(15.5325 128.011875) rotate(-90) scale(0.12 -0.12)">
      <defs>
       <path id="TimesNewRomanPSMT-46" d="M 1309 4006 
L 1309 2341 
L 2081 2341 
Q 2347 2341 2470 2458 
Q 2594 2575 2634 2922 
L 2750 2922 
L 2750 1488 
L 2634 1488 
Q 2631 1734 2570 1850 
Q 2509 1966 2401 2023 
Q 2294 2081 2081 2081 
L 1309 2081 
L 1309 750 
Q 1309 428 1350 325 
Q 1381 247 1481 191 
Q 1619 116 1769 116 
L 1922 116 
L 1922 0 
L 103 0 
L 103 116 
L 253 116 
Q 516 116 634 269 
Q 709 369 709 750 
L 709 3488 
Q 709 3809 669 3913 
Q 638 3991 541 4047 
Q 406 4122 253 4122 
L 103 4122 
L 103 4238 
L 3256 4238 
L 3297 3306 
L 3188 3306 
Q 3106 3603 2998 3742 
Q 2891 3881 2733 3943 
Q 2575 4006 2244 4006 
L 1309 4006 
z
" transform="scale(0.015625)"/>
       <path id="TimesNewRomanPSMT-69" d="M 928 4444 
Q 1059 4444 1151 4351 
Q 1244 4259 1244 4128 
Q 1244 3997 1151 3903 
Q 1059 3809 928 3809 
Q 797 3809 703 3903 
Q 609 3997 609 4128 
Q 609 4259 701 4351 
Q 794 4444 928 4444 
z
M 1188 2947 
L 1188 647 
Q 1188 378 1227 289 
Q 1266 200 1342 156 
Q 1419 113 1622 113 
L 1622 0 
L 231 0 
L 231 113 
Q 441 113 512 153 
Q 584 194 626 287 
Q 669 381 669 647 
L 669 1750 
Q 669 2216 641 2353 
Q 619 2453 572 2492 
Q 525 2531 444 2531 
Q 356 2531 231 2484 
L 188 2597 
L 1050 2947 
L 1188 2947 
z
" transform="scale(0.015625)"/>
       <path id="TimesNewRomanPSMT-67" d="M 966 1044 
Q 703 1172 562 1401 
Q 422 1631 422 1909 
Q 422 2334 742 2640 
Q 1063 2947 1563 2947 
Q 1972 2947 2272 2747 
L 2878 2747 
Q 3013 2747 3034 2739 
Q 3056 2731 3066 2713 
Q 3084 2684 3084 2613 
Q 3084 2531 3069 2500 
Q 3059 2484 3036 2475 
Q 3013 2466 2878 2466 
L 2506 2466 
Q 2681 2241 2681 1891 
Q 2681 1491 2375 1206 
Q 2069 922 1553 922 
Q 1341 922 1119 984 
Q 981 866 932 777 
Q 884 688 884 625 
Q 884 572 936 522 
Q 988 472 1138 450 
Q 1225 438 1575 428 
Q 2219 413 2409 384 
Q 2700 344 2873 169 
Q 3047 -6 3047 -263 
Q 3047 -616 2716 -925 
Q 2228 -1381 1444 -1381 
Q 841 -1381 425 -1109 
Q 191 -953 191 -784 
Q 191 -709 225 -634 
Q 278 -519 444 -313 
Q 466 -284 763 25 
Q 600 122 533 198 
Q 466 275 466 372 
Q 466 481 555 628 
Q 644 775 966 1044 
z
M 1509 2797 
Q 1278 2797 1122 2612 
Q 966 2428 966 2047 
Q 966 1553 1178 1281 
Q 1341 1075 1591 1075 
Q 1828 1075 1981 1253 
Q 2134 1431 2134 1813 
Q 2134 2309 1919 2591 
Q 1759 2797 1509 2797 
z
M 934 0 
Q 788 -159 713 -296 
Q 638 -434 638 -550 
Q 638 -700 819 -813 
Q 1131 -1006 1722 -1006 
Q 2284 -1006 2551 -807 
Q 2819 -609 2819 -384 
Q 2819 -222 2659 -153 
Q 2497 -84 2016 -72 
Q 1313 -53 934 0 
z
" transform="scale(0.015625)"/>
       <path id="TimesNewRomanPSMT-61" d="M 1822 413 
Q 1381 72 1269 19 
Q 1100 -59 909 -59 
Q 613 -59 420 144 
Q 228 347 228 678 
Q 228 888 322 1041 
Q 450 1253 767 1440 
Q 1084 1628 1822 1897 
L 1822 2009 
Q 1822 2438 1686 2597 
Q 1550 2756 1291 2756 
Q 1094 2756 978 2650 
Q 859 2544 859 2406 
L 866 2225 
Q 866 2081 792 2003 
Q 719 1925 600 1925 
Q 484 1925 411 2006 
Q 338 2088 338 2228 
Q 338 2497 613 2722 
Q 888 2947 1384 2947 
Q 1766 2947 2009 2819 
Q 2194 2722 2281 2516 
Q 2338 2381 2338 1966 
L 2338 994 
Q 2338 584 2353 492 
Q 2369 400 2405 369 
Q 2441 338 2488 338 
Q 2538 338 2575 359 
Q 2641 400 2828 588 
L 2828 413 
Q 2478 -56 2159 -56 
Q 2006 -56 1915 50 
Q 1825 156 1822 413 
z
M 1822 616 
L 1822 1706 
Q 1350 1519 1213 1441 
Q 966 1303 859 1153 
Q 753 1003 753 825 
Q 753 600 887 451 
Q 1022 303 1197 303 
Q 1434 303 1822 616 
z
" transform="scale(0.015625)"/>
       <path id="TimesNewRomanPSMT-48" d="M 1316 2272 
L 3284 2272 
L 3284 3484 
Q 3284 3809 3244 3913 
Q 3213 3991 3113 4047 
Q 2978 4122 2828 4122 
L 2678 4122 
L 2678 4238 
L 4491 4238 
L 4491 4122 
L 4341 4122 
Q 4191 4122 4056 4050 
Q 3956 4000 3920 3898 
Q 3884 3797 3884 3484 
L 3884 750 
Q 3884 428 3925 325 
Q 3956 247 4053 191 
Q 4191 116 4341 116 
L 4491 116 
L 4491 0 
L 2678 0 
L 2678 116 
L 2828 116 
Q 3088 116 3206 269 
Q 3284 369 3284 750 
L 3284 2041 
L 1316 2041 
L 1316 750 
Q 1316 428 1356 325 
Q 1388 247 1488 191 
Q 1622 116 1772 116 
L 1925 116 
L 1925 0 
L 109 0 
L 109 116 
L 259 116 
Q 522 116 641 269 
Q 716 369 716 750 
L 716 3484 
Q 716 3809 675 3913 
Q 644 3991 547 4047 
Q 409 4122 259 4122 
L 109 4122 
L 109 4238 
L 1925 4238 
L 1925 4122 
L 1772 4122 
Q 1622 4122 1488 4050 
Q 1391 4000 1353 3898 
Q 1316 3797 1316 3484 
L 1316 2272 
z
" transform="scale(0.015625)"/>
       <path id="TimesNewRomanPSMT-7a" d="M 2688 878 
L 2653 0 
L 128 0 
L 128 113 
L 2028 2644 
L 1091 2644 
Q 788 2644 694 2605 
Q 600 2566 541 2456 
Q 456 2300 444 2069 
L 319 2069 
L 338 2863 
L 2738 2863 
L 2738 2747 
L 819 209 
L 1863 209 
Q 2191 209 2308 264 
Q 2425 319 2497 456 
Q 2547 556 2581 878 
L 2688 878 
z
" transform="scale(0.015625)"/>
      </defs>
      <use xlink:href="#TimesNewRomanPSMT-46"/>
      <use xlink:href="#TimesNewRomanPSMT-69" transform="translate(55.615234 0)"/>
      <use xlink:href="#TimesNewRomanPSMT-72" transform="translate(83.398438 0)"/>
      <use xlink:href="#TimesNewRomanPSMT-69" transform="translate(116.699219 0)"/>
      <use xlink:href="#TimesNewRomanPSMT-6e" transform="translate(144.482422 0)"/>
      <use xlink:href="#TimesNewRomanPSMT-67" transform="translate(194.482422 0)"/>
      <use xlink:href="#TimesNewRomanPSMT-20" transform="translate(244.482422 0)"/>
      <use xlink:href="#TimesNewRomanPSMT-72" transform="translate(269.482422 0)"/>
      <use xlink:href="#TimesNewRomanPSMT-61" transform="translate(302.783203 0)"/>
      <use xlink:href="#TimesNewRomanPSMT-74" transform="translate(347.167969 0)"/>
      <use xlink:href="#TimesNewRomanPSMT-65" transform="translate(374.951172 0)"/>
      <use xlink:href="#TimesNewRomanPSMT-20" transform="translate(419.335938 0)"/>
      <use xlink:href="#TimesNewRomanPSMT-28" transform="translate(444.335938 0)"/>
      <use xlink:href="#TimesNewRomanPSMT-48" transform="translate(477.636719 0)"/>
      <use xlink:href="#TimesNewRomanPSMT-7a" transform="translate(549.853516 0)"/>
      <use xlink:href="#TimesNewRomanPSMT-29" transform="translate(594.238281 0)"/>
     </g>
    </g>
   </g>
   <g id="line2d_14">
    <path d="M 41.230966 165.96 
L 49.240535 117.783001 
L 57.250105 109.404392 
L 65.259674 101.025784 
L 73.269243 94.741827 
L 81.278813 88.457871 
L 89.288382 86.363219 
L 97.297952 80.079263 
L 105.307521 75.889958 
L 113.31709 71.700654 
L 121.32666 67.51135 
L 129.336229 67.51135 
L 137.345798 61.227393 
L 145.355368 57.038089 
L 153.364937 57.038089 
L 161.374507 50.754133 
L 169.384076 50.754133 
L 177.393645 44.470176 
L 185.403215 44.470176 
L 193.412784 36.091568 
" clip-path="url(#p0eaa11fcdc)" style="fill: none; stroke: #fb694a; stroke-width: 1.5; stroke-linecap: square"/>
   </g>
   <g id="line2d_15">
    <path d="M 73.269243 91.800073 
L 81.278813 88.177557 
L 89.288382 84.555041 
L 97.297952 80.932525 
L 105.307521 77.310009 
L 113.31709 73.687493 
L 121.32666 70.064977 
L 129.336229 66.442461 
L 137.345798 62.819945 
L 145.355368 59.197429 
L 153.364937 55.574913 
L 161.374507 51.952397 
L 169.384076 48.329881 
L 177.393645 44.707365 
L 185.403215 41.084849 
L 193.412784 37.462333 
" clip-path="url(#p0eaa11fcdc)" style="fill: none; stroke-dasharray: 3,4.95; stroke-dashoffset: 0; stroke: #fb694a; stroke-width: 3"/>
   </g>
   <g id="line2d_16">
    <path d="M 41.230966 165.96 
L 49.240535 113.593697 
L 57.250105 103.120436 
L 65.259674 94.741827 
L 73.269243 88.457871 
L 81.278813 82.173915 
L 89.288382 75.889958 
L 97.297952 71.700654 
L 105.307521 67.51135 
L 113.31709 61.227393 
L 121.32666 57.038089 
L 129.336229 50.754133 
L 137.345798 44.470176 
L 145.355368 44.470176 
L 153.364937 36.091568 
L 161.374507 36.091568 
L 169.384076 27.712959 
L 177.393645 27.712959 
L 185.403215 17.239698 
L 193.412784 17.239698 
" clip-path="url(#p0eaa11fcdc)" style="fill: none; stroke: #ca181d; stroke-width: 1.5; stroke-linecap: square"/>
   </g>
   <g id="line2d_17">
    <path d="M 73.269243 85.962771 
L 81.278813 81.215919 
L 89.288382 76.469068 
L 97.297952 71.722217 
L 105.307521 66.975365 
L 113.31709 62.228514 
L 121.32666 57.481662 
L 129.336229 52.734811 
L 137.345798 47.98796 
L 145.355368 43.241108 
L 153.364937 38.494257 
L 161.374507 33.747406 
L 169.384076 29.000554 
L 177.393645 24.253703 
L 185.403215 19.506851 
L 193.412784 14.76 
" clip-path="url(#p0eaa11fcdc)" style="fill: none; stroke-dasharray: 3,4.95; stroke-dashoffset: 0; stroke: #ca181d; stroke-width: 3"/>
   </g>
   <g id="line2d_18">
    <path d="M 41.230966 165.96 
L 49.240535 134.540218 
L 57.250105 121.972305 
L 65.259674 113.593697 
L 73.269243 105.215088 
L 81.278813 96.83648 
L 89.288382 90.552523 
L 97.297952 84.268567 
L 105.307521 80.079263 
L 113.31709 73.795306 
L 121.32666 69.606002 
L 129.336229 65.416698 
L 137.345798 59.132741 
L 145.355368 54.943437 
L 153.364937 50.754133 
L 161.374507 46.564828 
L 169.384076 42.375524 
L 177.393645 40.280872 
L 185.403215 36.091568 
L 193.412784 31.902263 
" clip-path="url(#p0eaa11fcdc)" style="fill: none; stroke: #4682b4; stroke-width: 1.5; stroke-linecap: square"/>
   </g>
   <g id="line2d_19">
    <path d="M 73.269243 99.74743 
L 81.278813 95.0129 
L 89.288382 90.27837 
L 97.297952 85.54384 
L 105.307521 80.80931 
L 113.31709 76.07478 
L 121.32666 71.340251 
L 129.336229 66.605721 
L 137.345798 61.871191 
L 145.355368 57.136661 
L 153.364937 52.402131 
L 161.374507 47.667601 
L 169.384076 42.933071 
L 177.393645 38.198541 
L 185.403215 33.464011 
L 193.412784 28.729482 
" clip-path="url(#p0eaa11fcdc)" style="fill: none; stroke-dasharray: 3,4.95; stroke-dashoffset: 0; stroke: #4682b4; stroke-width: 3"/>
   </g>
   <g id="patch_3">
    <path d="M 33.621875 173.52 
L 33.621875 7.2 
" style="fill: none; stroke: #000000; stroke-width: 0.8; stroke-linejoin: miter; stroke-linecap: square"/>
   </g>
   <g id="patch_4">
    <path d="M 201.021875 173.52 
L 201.021875 7.2 
" style="fill: none; stroke: #000000; stroke-width: 0.8; stroke-linejoin: miter; stroke-linecap: square"/>
   </g>
   <g id="patch_5">
    <path d="M 33.621875 173.52 
L 201.021875 173.52 
" style="fill: none; stroke: #000000; stroke-width: 0.8; stroke-linejoin: miter; stroke-linecap: square"/>
   </g>
   <g id="patch_6">
    <path d="M 33.621875 7.2 
L 201.021875 7.2 
" style="fill: none; stroke: #000000; stroke-width: 0.8; stroke-linejoin: miter; stroke-linecap: square"/>
   </g>
   <g id="legend_1">
    <g id="patch_7">
     <path d="M 128.423437 106.9816 
L 194.021875 106.9816 
Q 196.021875 106.9816 196.021875 104.9816 
L 196.021875 77.703475 
Q 196.021875 75.703475 194.021875 75.703475 
L 128.423437 75.703475 
Q 126.423437 75.703475 126.423437 77.703475 
L 126.423437 104.9816 
Q 126.423437 106.9816 128.423437 106.9816 
z
" style="fill: #ffffff; opacity: 0.8; stroke: #cccccc; stroke-linejoin: miter"/>
    </g>
    <g id="line2d_20">
     <path d="M 130.423437 83.203475 
L 140.423437 83.203475 
L 150.423437 83.203475 
" style="fill: none; stroke: #808080; stroke-width: 3; stroke-linecap: square"/>
    </g>
    <g id="text_16">
     <!-- FI curve -->
     <g transform="translate(158.423437 86.703475) scale(0.1 -0.1)">
      <defs>
       <path id="TimesNewRomanPSMT-49" d="M 1975 116 
L 1975 0 
L 159 0 
L 159 116 
L 309 116 
Q 572 116 691 269 
Q 766 369 766 750 
L 766 3488 
Q 766 3809 725 3913 
Q 694 3991 597 4047 
Q 459 4122 309 4122 
L 159 4122 
L 159 4238 
L 1975 4238 
L 1975 4122 
L 1822 4122 
Q 1563 4122 1444 3969 
Q 1366 3869 1366 3488 
L 1366 750 
Q 1366 428 1406 325 
Q 1438 247 1538 191 
Q 1672 116 1822 116 
L 1975 116 
z
" transform="scale(0.015625)"/>
       <path id="TimesNewRomanPSMT-63" d="M 2631 1088 
Q 2516 522 2178 217 
Q 1841 -88 1431 -88 
Q 944 -88 581 321 
Q 219 731 219 1428 
Q 219 2103 620 2525 
Q 1022 2947 1584 2947 
Q 2006 2947 2278 2723 
Q 2550 2500 2550 2259 
Q 2550 2141 2473 2067 
Q 2397 1994 2259 1994 
Q 2075 1994 1981 2113 
Q 1928 2178 1911 2362 
Q 1894 2547 1784 2644 
Q 1675 2738 1481 2738 
Q 1169 2738 978 2506 
Q 725 2200 725 1697 
Q 725 1184 976 792 
Q 1228 400 1656 400 
Q 1963 400 2206 609 
Q 2378 753 2541 1131 
L 2631 1088 
z
" transform="scale(0.015625)"/>
       <path id="TimesNewRomanPSMT-76" d="M 53 2863 
L 1400 2863 
L 1400 2747 
L 1313 2747 
Q 1191 2747 1127 2687 
Q 1063 2628 1063 2528 
Q 1063 2419 1128 2269 
L 1794 688 
L 2463 2328 
Q 2534 2503 2534 2594 
Q 2534 2638 2509 2666 
Q 2475 2713 2422 2730 
Q 2369 2747 2206 2747 
L 2206 2863 
L 3141 2863 
L 3141 2747 
Q 2978 2734 2916 2681 
Q 2806 2588 2719 2369 
L 1703 -88 
L 1575 -88 
L 553 2328 
Q 484 2497 421 2570 
Q 359 2644 263 2694 
Q 209 2722 53 2747 
L 53 2863 
z
" transform="scale(0.015625)"/>
      </defs>
      <use xlink:href="#TimesNewRomanPSMT-46"/>
      <use xlink:href="#TimesNewRomanPSMT-49" transform="translate(55.615234 0)"/>
      <use xlink:href="#TimesNewRomanPSMT-20" transform="translate(88.916016 0)"/>
      <use xlink:href="#TimesNewRomanPSMT-63" transform="translate(113.916016 0)"/>
      <use xlink:href="#TimesNewRomanPSMT-75" transform="translate(158.300781 0)"/>
      <use xlink:href="#TimesNewRomanPSMT-72" transform="translate(208.300781 0)"/>
      <use xlink:href="#TimesNewRomanPSMT-76" transform="translate(241.601562 0)"/>
      <use xlink:href="#TimesNewRomanPSMT-65" transform="translate(291.601562 0)"/>
     </g>
    </g>
    <g id="line2d_21">
     <path d="M 130.423437 97.342538 
L 140.423437 97.342538 
L 150.423437 97.342538 
" style="fill: none; stroke-dasharray: 3,4.95; stroke-dashoffset: 0; stroke: #808080; stroke-width: 3"/>
    </g>
    <g id="text_17">
     <!-- Fit -->
     <g transform="translate(158.423437 100.842538) scale(0.1 -0.1)">
      <use xlink:href="#TimesNewRomanPSMT-46"/>
      <use xlink:href="#TimesNewRomanPSMT-69" transform="translate(55.615234 0)"/>
      <use xlink:href="#TimesNewRomanPSMT-74" transform="translate(83.398438 0)"/>
     </g>
    </g>
   </g>
   <g id="legend_2">
    <g id="patch_8">
     <path d="M 75.1125 168.52 
L 194.021875 168.52 
Q 196.021875 168.52 196.021875 166.52 
L 196.021875 111.02 
Q 196.021875 109.02 194.021875 109.02 
L 75.1125 109.02 
Q 73.1125 109.02 73.1125 111.02 
L 73.1125 166.52 
Q 73.1125 168.52 75.1125 168.52 
z
" style="fill: #ffffff; opacity: 0.8; stroke: #cccccc; stroke-linejoin: miter"/>
    </g>
    <g id="text_18">
     <!-- Gain -->
     <g transform="translate(124.847656 119.96375) scale(0.1 -0.1)">
      <defs>
       <path id="TimesNewRomanPSMT-47" d="M 3928 4334 
L 4038 2997 
L 3928 2997 
Q 3763 3497 3500 3750 
Q 3122 4116 2528 4116 
Q 1719 4116 1297 3475 
Q 944 2934 944 2188 
Q 944 1581 1178 1081 
Q 1413 581 1792 348 
Q 2172 116 2572 116 
Q 2806 116 3025 175 
Q 3244 234 3447 350 
L 3447 1575 
Q 3447 1894 3398 1992 
Q 3350 2091 3248 2142 
Q 3147 2194 2891 2194 
L 2891 2313 
L 4531 2313 
L 4531 2194 
L 4453 2194 
Q 4209 2194 4119 2031 
Q 4056 1916 4056 1575 
L 4056 278 
Q 3697 84 3347 -6 
Q 2997 -97 2569 -97 
Q 1341 -97 703 691 
Q 225 1281 225 2053 
Q 225 2613 494 3125 
Q 813 3734 1369 4063 
Q 1834 4334 2469 4334 
Q 2700 4334 2889 4296 
Q 3078 4259 3425 4131 
Q 3600 4066 3659 4066 
Q 3719 4066 3761 4120 
Q 3803 4175 3813 4334 
L 3928 4334 
z
" transform="scale(0.015625)"/>
      </defs>
      <use xlink:href="#TimesNewRomanPSMT-47"/>
      <use xlink:href="#TimesNewRomanPSMT-61" transform="translate(72.216797 0)"/>
      <use xlink:href="#TimesNewRomanPSMT-69" transform="translate(116.601562 0)"/>
      <use xlink:href="#TimesNewRomanPSMT-6e" transform="translate(144.384766 0)"/>
     </g>
    </g>
    <g id="line2d_22">
     <path d="M 77.1125 130.602813 
L 87.1125 130.602813 
L 97.1125 130.602813 
" style="fill: none; stroke-dasharray: 3,4.95; stroke-dashoffset: 0; stroke: #fb694a; stroke-width: 3"/>
    </g>
    <g id="text_19">
     <!-- Vr=-17.0, 8.21±0.25 -->
     <g transform="translate(105.1125 134.102813) scale(0.1 -0.1)">
      <defs>
       <path id="TimesNewRomanPSMT-56" d="M 4544 4238 
L 4544 4122 
Q 4319 4081 4203 3978 
Q 4038 3825 3909 3509 
L 2431 -97 
L 2316 -97 
L 728 3556 
Q 606 3838 556 3900 
Q 478 3997 364 4051 
Q 250 4106 56 4122 
L 56 4238 
L 1788 4238 
L 1788 4122 
Q 1494 4094 1406 4022 
Q 1319 3950 1319 3838 
Q 1319 3681 1463 3350 
L 2541 866 
L 3541 3319 
Q 3688 3681 3688 3822 
Q 3688 3913 3597 3995 
Q 3506 4078 3291 4113 
Q 3275 4116 3238 4122 
L 3238 4238 
L 4544 4238 
z
" transform="scale(0.015625)"/>
       <path id="TimesNewRomanPSMT-3d" d="M 116 2759 
L 3488 2759 
L 3488 2503 
L 116 2503 
L 116 2759 
z
M 116 1741 
L 3488 1741 
L 3488 1484 
L 116 1484 
L 116 1741 
z
" transform="scale(0.015625)"/>
       <path id="TimesNewRomanPSMT-2d" d="M 259 1672 
L 1875 1672 
L 1875 1200 
L 259 1200 
L 259 1672 
z
" transform="scale(0.015625)"/>
       <path id="TimesNewRomanPSMT-2e" d="M 800 606 
Q 947 606 1047 504 
Q 1147 403 1147 259 
Q 1147 116 1045 14 
Q 944 -88 800 -88 
Q 656 -88 554 14 
Q 453 116 453 259 
Q 453 406 554 506 
Q 656 606 800 606 
z
" transform="scale(0.015625)"/>
       <path id="TimesNewRomanPSMT-2c" d="M 344 -1066 
L 344 -928 
Q 666 -822 842 -598 
Q 1019 -375 1019 -125 
Q 1019 -66 991 -25 
Q 969 3 947 3 
Q 913 3 797 -59 
Q 741 -88 678 -88 
Q 525 -88 434 3 
Q 344 94 344 253 
Q 344 406 461 515 
Q 578 625 747 625 
Q 953 625 1114 445 
Q 1275 266 1275 -31 
Q 1275 -353 1051 -629 
Q 828 -906 344 -1066 
z
" transform="scale(0.015625)"/>
       <path id="TimesNewRomanPSMT-38" d="M 1228 2134 
Q 725 2547 579 2797 
Q 434 3047 434 3316 
Q 434 3728 753 4026 
Q 1072 4325 1600 4325 
Q 2113 4325 2425 4047 
Q 2738 3769 2738 3413 
Q 2738 3175 2569 2928 
Q 2400 2681 1866 2347 
Q 2416 1922 2594 1678 
Q 2831 1359 2831 1006 
Q 2831 559 2490 242 
Q 2150 -75 1597 -75 
Q 994 -75 656 303 
Q 388 606 388 966 
Q 388 1247 577 1523 
Q 766 1800 1228 2134 
z
M 1719 2469 
Q 2094 2806 2194 3001 
Q 2294 3197 2294 3444 
Q 2294 3772 2109 3958 
Q 1925 4144 1606 4144 
Q 1288 4144 1088 3959 
Q 888 3775 888 3528 
Q 888 3366 970 3203 
Q 1053 3041 1206 2894 
L 1719 2469 
z
M 1375 2016 
Q 1116 1797 991 1539 
Q 866 1281 866 981 
Q 866 578 1086 336 
Q 1306 94 1647 94 
Q 1984 94 2187 284 
Q 2391 475 2391 747 
Q 2391 972 2272 1150 
Q 2050 1481 1375 2016 
z
" transform="scale(0.015625)"/>
       <path id="TimesNewRomanPSMT-b1" d="M 25 441 
L 25 694 
L 1581 694 
L 1581 2000 
L 25 2000 
L 25 2256 
L 1581 2256 
L 1581 3809 
L 1831 3809 
L 1831 2256 
L 3394 2256 
L 3394 2000 
L 1831 2000 
L 1831 694 
L 3397 694 
L 3397 441 
L 25 441 
z
" transform="scale(0.015625)"/>
      </defs>
      <use xlink:href="#TimesNewRomanPSMT-56"/>
      <use xlink:href="#TimesNewRomanPSMT-72" transform="translate(66.216797 0)"/>
      <use xlink:href="#TimesNewRomanPSMT-3d" transform="translate(99.517578 0)"/>
      <use xlink:href="#TimesNewRomanPSMT-2d" transform="translate(155.914062 0)"/>
      <use xlink:href="#TimesNewRomanPSMT-31" transform="translate(189.214844 0)"/>
      <use xlink:href="#TimesNewRomanPSMT-37" transform="translate(239.214844 0)"/>
      <use xlink:href="#TimesNewRomanPSMT-2e" transform="translate(289.214844 0)"/>
      <use xlink:href="#TimesNewRomanPSMT-30" transform="translate(314.214844 0)"/>
      <use xlink:href="#TimesNewRomanPSMT-2c" transform="translate(364.214844 0)"/>
      <use xlink:href="#TimesNewRomanPSMT-20" transform="translate(389.214844 0)"/>
      <use xlink:href="#TimesNewRomanPSMT-38" transform="translate(414.214844 0)"/>
      <use xlink:href="#TimesNewRomanPSMT-2e" transform="translate(464.214844 0)"/>
      <use xlink:href="#TimesNewRomanPSMT-32" transform="translate(489.214844 0)"/>
      <use xlink:href="#TimesNewRomanPSMT-31" transform="translate(539.214844 0)"/>
      <use xlink:href="#TimesNewRomanPSMT-b1" transform="translate(589.214844 0)"/>
      <use xlink:href="#TimesNewRomanPSMT-30" transform="translate(644.097656 0)"/>
      <use xlink:href="#TimesNewRomanPSMT-2e" transform="translate(694.097656 0)"/>
      <use xlink:href="#TimesNewRomanPSMT-32" transform="translate(719.097656 0)"/>
      <use xlink:href="#TimesNewRomanPSMT-35" transform="translate(769.097656 0)"/>
     </g>
    </g>
    <g id="line2d_23">
     <path d="M 77.1125 144.741875 
L 87.1125 144.741875 
L 97.1125 144.741875 
" style="fill: none; stroke-dasharray: 3,4.95; stroke-dashoffset: 0; stroke: #ca181d; stroke-width: 3"/>
    </g>
    <g id="text_20">
     <!-- Vr=-12.3, 10.76±0.26 -->
     <g transform="translate(105.1125 148.241875) scale(0.1 -0.1)">
      <use xlink:href="#TimesNewRomanPSMT-56"/>
      <use xlink:href="#TimesNewRomanPSMT-72" transform="translate(66.216797 0)"/>
      <use xlink:href="#TimesNewRomanPSMT-3d" transform="translate(99.517578 0)"/>
      <use xlink:href="#TimesNewRomanPSMT-2d" transform="translate(155.914062 0)"/>
      <use xlink:href="#TimesNewRomanPSMT-31" transform="translate(189.214844 0)"/>
      <use xlink:href="#TimesNewRomanPSMT-32" transform="translate(239.214844 0)"/>
      <use xlink:href="#TimesNewRomanPSMT-2e" transform="translate(289.214844 0)"/>
      <use xlink:href="#TimesNewRomanPSMT-33" transform="translate(314.214844 0)"/>
      <use xlink:href="#TimesNewRomanPSMT-2c" transform="translate(364.214844 0)"/>
      <use xlink:href="#TimesNewRomanPSMT-20" transform="translate(389.214844 0)"/>
      <use xlink:href="#TimesNewRomanPSMT-31" transform="translate(414.214844 0)"/>
      <use xlink:href="#TimesNewRomanPSMT-30" transform="translate(464.214844 0)"/>
      <use xlink:href="#TimesNewRomanPSMT-2e" transform="translate(514.214844 0)"/>
      <use xlink:href="#TimesNewRomanPSMT-37" transform="translate(539.214844 0)"/>
      <use xlink:href="#TimesNewRomanPSMT-36" transform="translate(589.214844 0)"/>
      <use xlink:href="#TimesNewRomanPSMT-b1" transform="translate(639.214844 0)"/>
      <use xlink:href="#TimesNewRomanPSMT-30" transform="translate(694.097656 0)"/>
      <use xlink:href="#TimesNewRomanPSMT-2e" transform="translate(744.097656 0)"/>
      <use xlink:href="#TimesNewRomanPSMT-32" transform="translate(769.097656 0)"/>
      <use xlink:href="#TimesNewRomanPSMT-36" transform="translate(819.097656 0)"/>
     </g>
    </g>
    <g id="line2d_24">
     <path d="M 77.1125 158.880938 
L 87.1125 158.880938 
L 97.1125 158.880938 
" style="fill: none; stroke-dasharray: 3,4.95; stroke-dashoffset: 0; stroke: #4682b4; stroke-width: 3"/>
    </g>
    <g id="text_21">
     <!-- QIF, 10.74±0.30 -->
     <g transform="translate(105.1125 162.380938) scale(0.1 -0.1)">
      <defs>
       <path id="TimesNewRomanPSMT-51" d="M 2819 -47 
Q 3138 -597 3508 -856 
Q 3878 -1116 4350 -1153 
L 4350 -1253 
Q 3919 -1238 3428 -1080 
Q 2938 -922 2498 -642 
Q 2059 -363 1741 -47 
Q 1291 134 1028 338 
Q 647 641 436 1083 
Q 225 1525 225 2128 
Q 225 3078 840 3706 
Q 1456 4334 2331 4334 
Q 3163 4334 3770 3704 
Q 4378 3075 4378 2116 
Q 4378 1338 3945 750 
Q 3513 163 2819 -47 
z
M 2294 4094 
Q 1725 4094 1378 3688 
Q 941 3178 941 2128 
Q 941 1100 1384 544 
Q 1728 116 2294 116 
Q 2881 116 3241 544 
Q 3663 1050 3663 2038 
Q 3663 2797 3431 3316 
Q 3253 3716 2958 3905 
Q 2663 4094 2294 4094 
z
" transform="scale(0.015625)"/>
      </defs>
      <use xlink:href="#TimesNewRomanPSMT-51"/>
      <use xlink:href="#TimesNewRomanPSMT-49" transform="translate(72.216797 0)"/>
      <use xlink:href="#TimesNewRomanPSMT-46" transform="translate(105.517578 0)"/>
      <use xlink:href="#TimesNewRomanPSMT-2c" transform="translate(153.132812 0)"/>
      <use xlink:href="#TimesNewRomanPSMT-20" transform="translate(178.132812 0)"/>
      <use xlink:href="#TimesNewRomanPSMT-31" transform="translate(203.132812 0)"/>
      <use xlink:href="#TimesNewRomanPSMT-30" transform="translate(253.132812 0)"/>
      <use xlink:href="#TimesNewRomanPSMT-2e" transform="translate(303.132812 0)"/>
      <use xlink:href="#TimesNewRomanPSMT-37" transform="translate(328.132812 0)"/>
      <use xlink:href="#TimesNewRomanPSMT-34" transform="translate(378.132812 0)"/>
      <use xlink:href="#TimesNewRomanPSMT-b1" transform="translate(428.132812 0)"/>
      <use xlink:href="#TimesNewRomanPSMT-30" transform="translate(483.015625 0)"/>
      <use xlink:href="#TimesNewRomanPSMT-2e" transform="translate(533.015625 0)"/>
      <use xlink:href="#TimesNewRomanPSMT-33" transform="translate(558.015625 0)"/>
      <use xlink:href="#TimesNewRomanPSMT-30" transform="translate(608.015625 0)"/>
     </g>
    </g>
   </g>
   <g id="legend_3">
    <g id="patch_9">
     <path d="M 75.1125 168.52 
L 194.021875 168.52 
Q 196.021875 168.52 196.021875 166.52 
L 196.021875 111.02 
Q 196.021875 109.02 194.021875 109.02 
L 75.1125 109.02 
Q 73.1125 109.02 73.1125 111.02 
L 73.1125 166.52 
Q 73.1125 168.52 75.1125 168.52 
z
" style="fill: #ffffff; opacity: 0.8; stroke: #cccccc; stroke-linejoin: miter"/>
    </g>
    <g id="text_22">
     <!-- Gain -->
     <g transform="translate(124.847656 119.96375) scale(0.1 -0.1)">
      <use xlink:href="#TimesNewRomanPSMT-47"/>
      <use xlink:href="#TimesNewRomanPSMT-61" transform="translate(72.216797 0)"/>
      <use xlink:href="#TimesNewRomanPSMT-69" transform="translate(116.601562 0)"/>
      <use xlink:href="#TimesNewRomanPSMT-6e" transform="translate(144.384766 0)"/>
     </g>
    </g>
    <g id="line2d_25">
     <path d="M 77.1125 130.602813 
L 87.1125 130.602813 
L 97.1125 130.602813 
" style="fill: none; stroke-dasharray: 3,4.95; stroke-dashoffset: 0; stroke: #fb694a; stroke-width: 3"/>
    </g>
    <g id="text_23">
     <!-- Vr=-17.0, 8.21±0.25 -->
     <g transform="translate(105.1125 134.102813) scale(0.1 -0.1)">
      <use xlink:href="#TimesNewRomanPSMT-56"/>
      <use xlink:href="#TimesNewRomanPSMT-72" transform="translate(66.216797 0)"/>
      <use xlink:href="#TimesNewRomanPSMT-3d" transform="translate(99.517578 0)"/>
      <use xlink:href="#TimesNewRomanPSMT-2d" transform="translate(155.914062 0)"/>
      <use xlink:href="#TimesNewRomanPSMT-31" transform="translate(189.214844 0)"/>
      <use xlink:href="#TimesNewRomanPSMT-37" transform="translate(239.214844 0)"/>
      <use xlink:href="#TimesNewRomanPSMT-2e" transform="translate(289.214844 0)"/>
      <use xlink:href="#TimesNewRomanPSMT-30" transform="translate(314.214844 0)"/>
      <use xlink:href="#TimesNewRomanPSMT-2c" transform="translate(364.214844 0)"/>
      <use xlink:href="#TimesNewRomanPSMT-20" transform="translate(389.214844 0)"/>
      <use xlink:href="#TimesNewRomanPSMT-38" transform="translate(414.214844 0)"/>
      <use xlink:href="#TimesNewRomanPSMT-2e" transform="translate(464.214844 0)"/>
      <use xlink:href="#TimesNewRomanPSMT-32" transform="translate(489.214844 0)"/>
      <use xlink:href="#TimesNewRomanPSMT-31" transform="translate(539.214844 0)"/>
      <use xlink:href="#TimesNewRomanPSMT-b1" transform="translate(589.214844 0)"/>
      <use xlink:href="#TimesNewRomanPSMT-30" transform="translate(644.097656 0)"/>
      <use xlink:href="#TimesNewRomanPSMT-2e" transform="translate(694.097656 0)"/>
      <use xlink:href="#TimesNewRomanPSMT-32" transform="translate(719.097656 0)"/>
      <use xlink:href="#TimesNewRomanPSMT-35" transform="translate(769.097656 0)"/>
     </g>
    </g>
    <g id="line2d_26">
     <path d="M 77.1125 144.741875 
L 87.1125 144.741875 
L 97.1125 144.741875 
" style="fill: none; stroke-dasharray: 3,4.95; stroke-dashoffset: 0; stroke: #ca181d; stroke-width: 3"/>
    </g>
    <g id="text_24">
     <!-- Vr=-12.3, 10.76±0.26 -->
     <g transform="translate(105.1125 148.241875) scale(0.1 -0.1)">
      <use xlink:href="#TimesNewRomanPSMT-56"/>
      <use xlink:href="#TimesNewRomanPSMT-72" transform="translate(66.216797 0)"/>
      <use xlink:href="#TimesNewRomanPSMT-3d" transform="translate(99.517578 0)"/>
      <use xlink:href="#TimesNewRomanPSMT-2d" transform="translate(155.914062 0)"/>
      <use xlink:href="#TimesNewRomanPSMT-31" transform="translate(189.214844 0)"/>
      <use xlink:href="#TimesNewRomanPSMT-32" transform="translate(239.214844 0)"/>
      <use xlink:href="#TimesNewRomanPSMT-2e" transform="translate(289.214844 0)"/>
      <use xlink:href="#TimesNewRomanPSMT-33" transform="translate(314.214844 0)"/>
      <use xlink:href="#TimesNewRomanPSMT-2c" transform="translate(364.214844 0)"/>
      <use xlink:href="#TimesNewRomanPSMT-20" transform="translate(389.214844 0)"/>
      <use xlink:href="#TimesNewRomanPSMT-31" transform="translate(414.214844 0)"/>
      <use xlink:href="#TimesNewRomanPSMT-30" transform="translate(464.214844 0)"/>
      <use xlink:href="#TimesNewRomanPSMT-2e" transform="translate(514.214844 0)"/>
      <use xlink:href="#TimesNewRomanPSMT-37" transform="translate(539.214844 0)"/>
      <use xlink:href="#TimesNewRomanPSMT-36" transform="translate(589.214844 0)"/>
      <use xlink:href="#TimesNewRomanPSMT-b1" transform="translate(639.214844 0)"/>
      <use xlink:href="#TimesNewRomanPSMT-30" transform="translate(694.097656 0)"/>
      <use xlink:href="#TimesNewRomanPSMT-2e" transform="translate(744.097656 0)"/>
      <use xlink:href="#TimesNewRomanPSMT-32" transform="translate(769.097656 0)"/>
      <use xlink:href="#TimesNewRomanPSMT-36" transform="translate(819.097656 0)"/>
     </g>
    </g>
    <g id="line2d_27">
     <path d="M 77.1125 158.880938 
L 87.1125 158.880938 
L 97.1125 158.880938 
" style="fill: none; stroke-dasharray: 3,4.95; stroke-dashoffset: 0; stroke: #4682b4; stroke-width: 3"/>
    </g>
    <g id="text_25">
     <!-- QIF, 10.74±0.30 -->
     <g transform="translate(105.1125 162.380938) scale(0.1 -0.1)">
      <use xlink:href="#TimesNewRomanPSMT-51"/>
      <use xlink:href="#TimesNewRomanPSMT-49" transform="translate(72.216797 0)"/>
      <use xlink:href="#TimesNewRomanPSMT-46" transform="translate(105.517578 0)"/>
      <use xlink:href="#TimesNewRomanPSMT-2c" transform="translate(153.132812 0)"/>
      <use xlink:href="#TimesNewRomanPSMT-20" transform="translate(178.132812 0)"/>
      <use xlink:href="#TimesNewRomanPSMT-31" transform="translate(203.132812 0)"/>
      <use xlink:href="#TimesNewRomanPSMT-30" transform="translate(253.132812 0)"/>
      <use xlink:href="#TimesNewRomanPSMT-2e" transform="translate(303.132812 0)"/>
      <use xlink:href="#TimesNewRomanPSMT-37" transform="translate(328.132812 0)"/>
      <use xlink:href="#TimesNewRomanPSMT-34" transform="translate(378.132812 0)"/>
      <use xlink:href="#TimesNewRomanPSMT-b1" transform="translate(428.132812 0)"/>
      <use xlink:href="#TimesNewRomanPSMT-30" transform="translate(483.015625 0)"/>
      <use xlink:href="#TimesNewRomanPSMT-2e" transform="translate(533.015625 0)"/>
      <use xlink:href="#TimesNewRomanPSMT-33" transform="translate(558.015625 0)"/>
      <use xlink:href="#TimesNewRomanPSMT-30" transform="translate(608.015625 0)"/>
     </g>
    </g>
   </g>
  </g>
 </g>
 <defs>
  <clipPath id="p0eaa11fcdc">
   <rect x="33.621875" y="7.2" width="167.4" height="166.32"/>
  </clipPath>
 </defs>
</svg>
