<?xml version="1.0" encoding="utf-8" standalone="no"?>
<!DOCTYPE svg PUBLIC "-//W3C//DTD SVG 1.1//EN"
  "http://www.w3.org/Graphics/SVG/1.1/DTD/svg11.dtd">
<svg xmlns:xlink="http://www.w3.org/1999/xlink" width="360pt" height="360pt" viewBox="0 0 360 360" xmlns="http://www.w3.org/2000/svg" version="1.1">
 <metadata>
  <rdf:RDF xmlns:dc="http://purl.org/dc/elements/1.1/" xmlns:cc="http://creativecommons.org/ns#" xmlns:rdf="http://www.w3.org/1999/02/22-rdf-syntax-ns#">
   <cc:Work>
    <dc:type rdf:resource="http://purl.org/dc/dcmitype/StillImage"/>
    <dc:date>2025-11-26T15:36:34.268683</dc:date>
    <dc:format>image/svg+xml</dc:format>
    <dc:creator>
     <cc:Agent>
      <dc:title>Matplotlib v3.10.5, https://matplotlib.org/</dc:title>
     </cc:Agent>
    </dc:creator>
   </cc:Work>
  </rdf:RDF>
 </metadata>
 <defs>
  <style type="text/css">*{stroke-linejoin: round; stroke-linecap: butt}</style>
 </defs>
 <g id="figure_1">
  <g id="patch_1">
   <path d="M 0 360 
L 360 360 
L 360 0 
L 0 0 
z
" style="fill: #ffffff"/>
  </g>
  <g id="axes_1">
   <g id="patch_2">
    <path d="M 45 320.4 
L 324 320.4 
L 324 43.2 
L 45 43.2 
z
" style="fill: #ffffff"/>
   </g>
   <g id="matplotlib.axis_1">
    <g id="xtick_1">
     <g id="line2d_1">
      <defs>
       <path id="m2f2e8706e2" d="M 0 0 
L 0 -3.5 
" style="stroke: #000000; stroke-width: 0.8"/>
      </defs>
      <g>
       <use xlink:href="#m2f2e8706e2" x="57.681818" y="320.4" style="stroke: #000000; stroke-width: 0.8"/>
      </g>
     </g>
     <g id="text_1">
      <!-- 0 -->
      <g transform="translate(52.591818 336.0575) scale(0.16 -0.16)">
       <defs>
        <path id="DejaVuSerif-30" d="M 2034 219 
Q 2513 219 2750 744 
Q 2988 1269 2988 2328 
Q 2988 3391 2750 3916 
Q 2513 4441 2034 4441 
Q 1556 4441 1318 3916 
Q 1081 3391 1081 2328 
Q 1081 1269 1318 744 
Q 1556 219 2034 219 
z
M 2034 -91 
Q 1275 -91 848 546 
Q 422 1184 422 2328 
Q 422 3475 848 4112 
Q 1275 4750 2034 4750 
Q 2797 4750 3222 4112 
Q 3647 3475 3647 2328 
Q 3647 1184 3222 546 
Q 2797 -91 2034 -91 
z
" transform="scale(0.015625)"/>
       </defs>
       <use xlink:href="#DejaVuSerif-30"/>
      </g>
     </g>
    </g>
    <g id="xtick_2">
     <g id="line2d_2">
      <g>
       <use xlink:href="#m2f2e8706e2" x="121.090909" y="320.4" style="stroke: #000000; stroke-width: 0.8"/>
      </g>
     </g>
     <g id="text_2">
      <!-- 1 -->
      <g transform="translate(116.000909 336.0575) scale(0.16 -0.16)">
       <defs>
        <path id="DejaVuSerif-31" d="M 909 0 
L 909 331 
L 1722 331 
L 1722 4213 
L 781 3603 
L 781 4013 
L 1919 4750 
L 2350 4750 
L 2350 331 
L 3163 331 
L 3163 0 
L 909 0 
z
" transform="scale(0.015625)"/>
       </defs>
       <use xlink:href="#DejaVuSerif-31"/>
      </g>
     </g>
    </g>
    <g id="xtick_3">
     <g id="line2d_3">
      <g>
       <use xlink:href="#m2f2e8706e2" x="184.5" y="320.4" style="stroke: #000000; stroke-width: 0.8"/>
      </g>
     </g>
     <g id="text_3">
      <!-- 2 -->
      <g transform="translate(179.41 336.0575) scale(0.16 -0.16)">
       <defs>
        <path id="DejaVuSerif-32" d="M 819 3553 
L 469 3553 
L 469 4384 
Q 803 4563 1142 4656 
Q 1481 4750 1806 4750 
Q 2534 4750 2956 4397 
Q 3378 4044 3378 3438 
Q 3378 2753 2422 1800 
Q 2347 1728 2309 1691 
L 1131 513 
L 3078 513 
L 3078 1088 
L 3444 1088 
L 3444 0 
L 434 0 
L 434 341 
L 1850 1753 
Q 2319 2222 2519 2614 
Q 2719 3006 2719 3438 
Q 2719 3909 2473 4175 
Q 2228 4441 1797 4441 
Q 1350 4441 1106 4219 
Q 863 3997 819 3553 
z
" transform="scale(0.015625)"/>
       </defs>
       <use xlink:href="#DejaVuSerif-32"/>
      </g>
     </g>
    </g>
    <g id="xtick_4">
     <g id="line2d_4">
      <g>
       <use xlink:href="#m2f2e8706e2" x="247.909091" y="320.4" style="stroke: #000000; stroke-width: 0.8"/>
      </g>
     </g>
     <g id="text_4">
      <!-- 3 -->
      <g transform="translate(242.819091 336.0575) scale(0.16 -0.16)">
       <defs>
        <path id="DejaVuSerif-33" d="M 622 4469 
Q 988 4606 1323 4678 
Q 1659 4750 1953 4750 
Q 2638 4750 3022 4454 
Q 3406 4159 3406 3634 
Q 3406 3213 3140 2930 
Q 2875 2647 2388 2547 
Q 2963 2466 3280 2130 
Q 3597 1794 3597 1259 
Q 3597 606 3158 257 
Q 2719 -91 1894 -91 
Q 1528 -91 1179 -12 
Q 831 66 488 225 
L 488 1131 
L 838 1131 
Q 869 681 1141 450 
Q 1413 219 1906 219 
Q 2384 219 2661 495 
Q 2938 772 2938 1253 
Q 2938 1803 2653 2086 
Q 2369 2369 1819 2369 
L 1522 2369 
L 1522 2688 
L 1678 2688 
Q 2225 2688 2498 2914 
Q 2772 3141 2772 3597 
Q 2772 4006 2547 4223 
Q 2322 4441 1900 4441 
Q 1478 4441 1245 4241 
Q 1013 4041 972 3647 
L 622 3647 
L 622 4469 
z
" transform="scale(0.015625)"/>
       </defs>
       <use xlink:href="#DejaVuSerif-33"/>
      </g>
     </g>
    </g>
    <g id="xtick_5">
     <g id="line2d_5">
      <g>
       <use xlink:href="#m2f2e8706e2" x="311.318182" y="320.4" style="stroke: #000000; stroke-width: 0.8"/>
      </g>
     </g>
     <g id="text_5">
      <!-- 4 -->
      <g transform="translate(306.228182 336.0575) scale(0.16 -0.16)">
       <defs>
        <path id="DejaVuSerif-34" d="M 2234 1581 
L 2234 4063 
L 641 1581 
L 2234 1581 
z
M 3609 0 
L 1484 0 
L 1484 331 
L 2234 331 
L 2234 1247 
L 197 1247 
L 197 1588 
L 2241 4750 
L 2859 4750 
L 2859 1581 
L 3750 1581 
L 3750 1247 
L 2859 1247 
L 2859 331 
L 3609 331 
L 3609 0 
z
" transform="scale(0.015625)"/>
       </defs>
       <use xlink:href="#DejaVuSerif-34"/>
      </g>
     </g>
    </g>
    <g id="text_6">
     <!-- Current (nA) -->
     <g transform="translate(126.293906 357.062187) scale(0.18 -0.18)">
      <defs>
       <path id="DejaVuSerif-43" d="M 4513 1234 
Q 4306 581 3820 245 
Q 3334 -91 2591 -91 
Q 2134 -91 1743 65 
Q 1353 222 1050 525 
Q 700 875 529 1320 
Q 359 1766 359 2328 
Q 359 3416 987 4083 
Q 1616 4750 2644 4750 
Q 3025 4750 3456 4650 
Q 3888 4550 4384 4347 
L 4384 3272 
L 4031 3272 
Q 3916 3859 3567 4137 
Q 3219 4416 2591 4416 
Q 1844 4416 1459 3886 
Q 1075 3356 1075 2328 
Q 1075 1303 1459 773 
Q 1844 244 2591 244 
Q 3113 244 3450 492 
Q 3788 741 3938 1234 
L 4513 1234 
z
" transform="scale(0.015625)"/>
       <path id="DejaVuSerif-75" d="M 2266 3322 
L 3341 3322 
L 3341 331 
L 3884 331 
L 3884 0 
L 2766 0 
L 2766 588 
Q 2606 256 2353 82 
Q 2100 -91 1766 -91 
Q 1213 -91 952 223 
Q 691 538 691 1209 
L 691 2988 
L 172 2988 
L 172 3322 
L 1269 3322 
L 1269 1388 
Q 1269 781 1417 556 
Q 1566 331 1947 331 
Q 2347 331 2556 625 
Q 2766 919 2766 1478 
L 2766 2988 
L 2266 2988 
L 2266 3322 
z
" transform="scale(0.015625)"/>
       <path id="DejaVuSerif-72" d="M 3059 3328 
L 3059 2497 
L 2728 2497 
Q 2713 2744 2591 2866 
Q 2469 2988 2234 2988 
Q 1809 2988 1582 2694 
Q 1356 2400 1356 1850 
L 1356 331 
L 2022 331 
L 2022 0 
L 263 0 
L 263 331 
L 781 331 
L 781 2994 
L 231 2994 
L 231 3322 
L 1356 3322 
L 1356 2731 
Q 1525 3078 1790 3245 
Q 2056 3413 2438 3413 
Q 2578 3413 2733 3391 
Q 2888 3369 3059 3328 
z
" transform="scale(0.015625)"/>
       <path id="DejaVuSerif-65" d="M 3469 1600 
L 991 1600 
L 991 1575 
Q 991 903 1244 561 
Q 1497 219 1991 219 
Q 2369 219 2611 417 
Q 2853 616 2950 1006 
L 3413 1006 
Q 3275 459 2904 184 
Q 2534 -91 1931 -91 
Q 1203 -91 761 389 
Q 319 869 319 1663 
Q 319 2450 753 2931 
Q 1188 3413 1894 3413 
Q 2647 3413 3050 2948 
Q 3453 2484 3469 1600 
z
M 2791 1931 
Q 2772 2513 2545 2808 
Q 2319 3103 1894 3103 
Q 1497 3103 1269 2806 
Q 1041 2509 991 1931 
L 2791 1931 
z
" transform="scale(0.015625)"/>
       <path id="DejaVuSerif-6e" d="M 263 0 
L 263 331 
L 781 331 
L 781 2988 
L 231 2988 
L 231 3322 
L 1356 3322 
L 1356 2731 
Q 1516 3069 1770 3241 
Q 2025 3413 2363 3413 
Q 2913 3413 3172 3097 
Q 3431 2781 3431 2113 
L 3431 331 
L 3944 331 
L 3944 0 
L 2356 0 
L 2356 331 
L 2853 331 
L 2853 1931 
Q 2853 2541 2703 2767 
Q 2553 2994 2175 2994 
Q 1775 2994 1565 2701 
Q 1356 2409 1356 1850 
L 1356 331 
L 1856 331 
L 1856 0 
L 263 0 
z
" transform="scale(0.015625)"/>
       <path id="DejaVuSerif-74" d="M 691 2988 
L 184 2988 
L 184 3322 
L 691 3322 
L 691 4353 
L 1269 4353 
L 1269 3322 
L 2350 3322 
L 2350 2988 
L 1269 2988 
L 1269 878 
Q 1269 456 1350 337 
Q 1431 219 1650 219 
Q 1875 219 1978 351 
Q 2081 484 2088 781 
L 2522 781 
Q 2497 328 2275 118 
Q 2053 -91 1600 -91 
Q 1103 -91 897 129 
Q 691 350 691 878 
L 691 2988 
z
" transform="scale(0.015625)"/>
       <path id="DejaVuSerif-20" transform="scale(0.015625)"/>
       <path id="DejaVuSerif-28" d="M 2041 -997 
Q 1281 -656 893 83 
Q 506 822 506 1931 
Q 506 3044 893 3783 
Q 1281 4522 2041 4863 
L 2041 4556 
Q 1559 4225 1350 3623 
Q 1141 3022 1141 1931 
Q 1141 844 1350 242 
Q 1559 -359 2041 -691 
L 2041 -997 
z
" transform="scale(0.015625)"/>
       <path id="DejaVuSerif-41" d="M 1281 1691 
L 2994 1691 
L 2138 3909 
L 1281 1691 
z
M -38 0 
L -38 331 
L 372 331 
L 2034 4666 
L 2559 4666 
L 4225 331 
L 4684 331 
L 4684 0 
L 2988 0 
L 2988 331 
L 3506 331 
L 3116 1356 
L 1153 1356 
L 763 331 
L 1275 331 
L 1275 0 
L -38 0 
z
" transform="scale(0.015625)"/>
       <path id="DejaVuSerif-29" d="M 453 -997 
L 453 -691 
Q 934 -359 1145 242 
Q 1356 844 1356 1931 
Q 1356 3022 1145 3623 
Q 934 4225 453 4556 
L 453 4863 
Q 1216 4522 1603 3783 
Q 1991 3044 1991 1931 
Q 1991 822 1603 83 
Q 1216 -656 453 -997 
z
" transform="scale(0.015625)"/>
      </defs>
      <use xlink:href="#DejaVuSerif-43"/>
      <use xlink:href="#DejaVuSerif-75" transform="translate(76.513672 0)"/>
      <use xlink:href="#DejaVuSerif-72" transform="translate(140.917969 0)"/>
      <use xlink:href="#DejaVuSerif-72" transform="translate(188.720703 0)"/>
      <use xlink:href="#DejaVuSerif-65" transform="translate(236.523438 0)"/>
      <use xlink:href="#DejaVuSerif-6e" transform="translate(295.703125 0)"/>
      <use xlink:href="#DejaVuSerif-74" transform="translate(360.107422 0)"/>
      <use xlink:href="#DejaVuSerif-20" transform="translate(400.292969 0)"/>
      <use xlink:href="#DejaVuSerif-28" transform="translate(432.080078 0)"/>
      <use xlink:href="#DejaVuSerif-6e" transform="translate(471.09375 0)"/>
      <use xlink:href="#DejaVuSerif-41" transform="translate(535.498047 0)"/>
      <use xlink:href="#DejaVuSerif-29" transform="translate(607.714844 0)"/>
     </g>
    </g>
   </g>
   <g id="matplotlib.axis_2">
    <g id="ytick_1">
     <g id="line2d_6">
      <defs>
       <path id="maf809b34aa" d="M 0 0 
L 3.5 0 
" style="stroke: #000000; stroke-width: 0.8"/>
      </defs>
      <g>
       <use xlink:href="#maf809b34aa" x="45" y="307.8" style="stroke: #000000; stroke-width: 0.8"/>
      </g>
     </g>
     <g id="text_7">
      <!-- 0 -->
      <g transform="translate(31.32 313.87875) scale(0.16 -0.16)">
       <use xlink:href="#DejaVuSerif-30"/>
      </g>
     </g>
    </g>
    <g id="ytick_2">
     <g id="line2d_7">
      <g>
       <use xlink:href="#maf809b34aa" x="45" y="272.889131" style="stroke: #000000; stroke-width: 0.8"/>
      </g>
     </g>
     <g id="text_8">
      <!-- 10 -->
      <g transform="translate(21.14 278.967881) scale(0.16 -0.16)">
       <use xlink:href="#DejaVuSerif-31"/>
       <use xlink:href="#DejaVuSerif-30" transform="translate(63.623047 0)"/>
      </g>
     </g>
    </g>
    <g id="ytick_3">
     <g id="line2d_8">
      <g>
       <use xlink:href="#maf809b34aa" x="45" y="237.978262" style="stroke: #000000; stroke-width: 0.8"/>
      </g>
     </g>
     <g id="text_9">
      <!-- 20 -->
      <g transform="translate(21.14 244.057012) scale(0.16 -0.16)">
       <use xlink:href="#DejaVuSerif-32"/>
       <use xlink:href="#DejaVuSerif-30" transform="translate(63.623047 0)"/>
      </g>
     </g>
    </g>
    <g id="ytick_4">
     <g id="line2d_9">
      <g>
       <use xlink:href="#maf809b34aa" x="45" y="203.067393" style="stroke: #000000; stroke-width: 0.8"/>
      </g>
     </g>
     <g id="text_10">
      <!-- 30 -->
      <g transform="translate(21.14 209.146143) scale(0.16 -0.16)">
       <use xlink:href="#DejaVuSerif-33"/>
       <use xlink:href="#DejaVuSerif-30" transform="translate(63.623047 0)"/>
      </g>
     </g>
    </g>
    <g id="ytick_5">
     <g id="line2d_10">
      <g>
       <use xlink:href="#maf809b34aa" x="45" y="168.156524" style="stroke: #000000; stroke-width: 0.8"/>
      </g>
     </g>
     <g id="text_11">
      <!-- 40 -->
      <g transform="translate(21.14 174.235274) scale(0.16 -0.16)">
       <use xlink:href="#DejaVuSerif-34"/>
       <use xlink:href="#DejaVuSerif-30" transform="translate(63.623047 0)"/>
      </g>
     </g>
    </g>
    <g id="ytick_6">
     <g id="line2d_11">
      <g>
       <use xlink:href="#maf809b34aa" x="45" y="133.245655" style="stroke: #000000; stroke-width: 0.8"/>
      </g>
     </g>
     <g id="text_12">
      <!-- 50 -->
      <g transform="translate(21.14 139.324405) scale(0.16 -0.16)">
       <defs>
        <path id="DejaVuSerif-35" d="M 3219 4666 
L 3219 4153 
L 1081 4153 
L 1081 2816 
Q 1244 2928 1461 2984 
Q 1678 3041 1947 3041 
Q 2703 3041 3140 2622 
Q 3578 2203 3578 1478 
Q 3578 738 3136 323 
Q 2694 -91 1894 -91 
Q 1572 -91 1234 -12 
Q 897 66 544 225 
L 544 1131 
L 897 1131 
Q 925 688 1179 453 
Q 1434 219 1894 219 
Q 2388 219 2653 544 
Q 2919 869 2919 1478 
Q 2919 2084 2655 2407 
Q 2391 2731 1894 2731 
Q 1613 2731 1398 2631 
Q 1184 2531 1019 2322 
L 750 2322 
L 750 4666 
L 3219 4666 
z
" transform="scale(0.015625)"/>
       </defs>
       <use xlink:href="#DejaVuSerif-35"/>
       <use xlink:href="#DejaVuSerif-30" transform="translate(63.623047 0)"/>
      </g>
     </g>
    </g>
    <g id="ytick_7">
     <g id="line2d_12">
      <g>
       <use xlink:href="#maf809b34aa" x="45" y="98.334787" style="stroke: #000000; stroke-width: 0.8"/>
      </g>
     </g>
     <g id="text_13">
      <!-- 60 -->
      <g transform="translate(21.14 104.413537) scale(0.16 -0.16)">
       <defs>
        <path id="DejaVuSerif-36" d="M 2094 219 
Q 2534 219 2771 542 
Q 3009 866 3009 1472 
Q 3009 2078 2771 2401 
Q 2534 2725 2094 2725 
Q 1647 2725 1412 2412 
Q 1178 2100 1178 1509 
Q 1178 888 1415 553 
Q 1653 219 2094 219 
z
M 1075 2569 
Q 1288 2803 1556 2918 
Q 1825 3034 2163 3034 
Q 2859 3034 3264 2615 
Q 3669 2197 3669 1472 
Q 3669 763 3233 336 
Q 2797 -91 2069 -91 
Q 1278 -91 853 498 
Q 428 1088 428 2181 
Q 428 3406 931 4078 
Q 1434 4750 2350 4750 
Q 2597 4750 2869 4703 
Q 3141 4656 3425 4563 
L 3425 3794 
L 3072 3794 
Q 3034 4109 2831 4275 
Q 2628 4441 2284 4441 
Q 1678 4441 1381 3981 
Q 1084 3522 1075 2569 
z
" transform="scale(0.015625)"/>
       </defs>
       <use xlink:href="#DejaVuSerif-36"/>
       <use xlink:href="#DejaVuSerif-30" transform="translate(63.623047 0)"/>
      </g>
     </g>
    </g>
    <g id="ytick_8">
     <g id="line2d_13">
      <g>
       <use xlink:href="#maf809b34aa" x="45" y="63.423918" style="stroke: #000000; stroke-width: 0.8"/>
      </g>
     </g>
     <g id="text_14">
      <!-- 70 -->
      <g transform="translate(21.14 69.502668) scale(0.16 -0.16)">
       <defs>
        <path id="DejaVuSerif-37" d="M 3609 4347 
L 1784 0 
L 1319 0 
L 3059 4153 
L 903 4153 
L 903 3578 
L 538 3578 
L 538 4666 
L 3609 4666 
L 3609 4347 
z
" transform="scale(0.015625)"/>
       </defs>
       <use xlink:href="#DejaVuSerif-37"/>
       <use xlink:href="#DejaVuSerif-30" transform="translate(63.623047 0)"/>
      </g>
     </g>
    </g>
    <g id="text_15">
     <!-- Frequency (Hz) -->
     <g transform="translate(13.140625 252.953437) rotate(-90) scale(0.18 -0.18)">
      <defs>
       <path id="DejaVuSerif-46" d="M 353 0 
L 353 331 
L 947 331 
L 947 4331 
L 353 4331 
L 353 4666 
L 4172 4666 
L 4172 3628 
L 3788 3628 
L 3788 4281 
L 1581 4281 
L 1581 2719 
L 3175 2719 
L 3175 3303 
L 3559 3303 
L 3559 1753 
L 3175 1753 
L 3175 2338 
L 1581 2338 
L 1581 331 
L 2328 331 
L 2328 0 
L 353 0 
z
" transform="scale(0.015625)"/>
       <path id="DejaVuSerif-71" d="M 3359 2988 
L 3359 -997 
L 3909 -997 
L 3909 -1331 
L 2241 -1331 
L 2241 -997 
L 2784 -997 
L 2784 519 
Q 2616 206 2355 57 
Q 2094 -91 1709 -91 
Q 1097 -91 708 395 
Q 319 881 319 1663 
Q 319 2444 706 2928 
Q 1094 3413 1709 3413 
Q 2094 3413 2355 3264 
Q 2616 3116 2784 2803 
L 2784 3322 
L 3909 3322 
L 3909 2988 
L 3359 2988 
z
M 2784 1825 
Q 2784 2422 2554 2737 
Q 2325 3053 1888 3053 
Q 1444 3053 1217 2703 
Q 991 2353 991 1663 
Q 991 975 1217 622 
Q 1444 269 1888 269 
Q 2325 269 2554 583 
Q 2784 897 2784 1497 
L 2784 1825 
z
" transform="scale(0.015625)"/>
       <path id="DejaVuSerif-63" d="M 3291 997 
Q 3169 466 2822 187 
Q 2475 -91 1925 -91 
Q 1200 -91 759 389 
Q 319 869 319 1663 
Q 319 2459 759 2936 
Q 1200 3413 1925 3413 
Q 2241 3413 2553 3339 
Q 2866 3266 3181 3116 
L 3181 2266 
L 2847 2266 
Q 2781 2703 2561 2903 
Q 2341 3103 1931 3103 
Q 1466 3103 1228 2742 
Q 991 2381 991 1663 
Q 991 944 1227 581 
Q 1463 219 1931 219 
Q 2303 219 2525 412 
Q 2747 606 2828 997 
L 3291 997 
z
" transform="scale(0.015625)"/>
       <path id="DejaVuSerif-79" d="M 1381 -609 
L 1600 -56 
L 359 2988 
L -19 2988 
L -19 3322 
L 1509 3322 
L 1509 2988 
L 978 2988 
L 1913 703 
L 2847 2988 
L 2350 2988 
L 2350 3322 
L 3597 3322 
L 3597 2988 
L 3225 2988 
L 1703 -750 
Q 1547 -1138 1356 -1280 
Q 1166 -1422 819 -1422 
Q 672 -1422 517 -1397 
Q 363 -1372 206 -1325 
L 206 -691 
L 500 -691 
Q 519 -903 608 -995 
Q 697 -1088 884 -1088 
Q 1056 -1088 1161 -992 
Q 1266 -897 1381 -609 
z
" transform="scale(0.015625)"/>
       <path id="DejaVuSerif-48" d="M 353 0 
L 353 331 
L 947 331 
L 947 4331 
L 353 4331 
L 353 4666 
L 2175 4666 
L 2175 4331 
L 1581 4331 
L 1581 2719 
L 4000 2719 
L 4000 4331 
L 3406 4331 
L 3406 4666 
L 5228 4666 
L 5228 4331 
L 4634 4331 
L 4634 331 
L 5228 331 
L 5228 0 
L 3406 0 
L 3406 331 
L 4000 331 
L 4000 2338 
L 1581 2338 
L 1581 331 
L 2175 331 
L 2175 0 
L 353 0 
z
" transform="scale(0.015625)"/>
       <path id="DejaVuSerif-7a" d="M 256 0 
L 256 269 
L 2338 2988 
L 691 2988 
L 691 2413 
L 359 2413 
L 359 3322 
L 3078 3322 
L 3078 3053 
L 997 331 
L 2803 331 
L 2803 934 
L 3138 934 
L 3138 0 
L 256 0 
z
" transform="scale(0.015625)"/>
      </defs>
      <use xlink:href="#DejaVuSerif-46"/>
      <use xlink:href="#DejaVuSerif-72" transform="translate(69.384766 0)"/>
      <use xlink:href="#DejaVuSerif-65" transform="translate(117.1875 0)"/>
      <use xlink:href="#DejaVuSerif-71" transform="translate(176.367188 0)"/>
      <use xlink:href="#DejaVuSerif-75" transform="translate(240.380859 0)"/>
      <use xlink:href="#DejaVuSerif-65" transform="translate(304.785156 0)"/>
      <use xlink:href="#DejaVuSerif-6e" transform="translate(363.964844 0)"/>
      <use xlink:href="#DejaVuSerif-63" transform="translate(428.369141 0)"/>
      <use xlink:href="#DejaVuSerif-79" transform="translate(484.375 0)"/>
      <use xlink:href="#DejaVuSerif-20" transform="translate(540.869141 0)"/>
      <use xlink:href="#DejaVuSerif-28" transform="translate(572.65625 0)"/>
      <use xlink:href="#DejaVuSerif-48" transform="translate(611.669922 0)"/>
      <use xlink:href="#DejaVuSerif-7a" transform="translate(698.876953 0)"/>
      <use xlink:href="#DejaVuSerif-29" transform="translate(751.5625 0)"/>
     </g>
    </g>
   </g>
   <g id="line2d_14">
    <path d="M 57.681818 307.8 
L 71.0311 227.505002 
L 84.380383 213.540654 
L 97.729665 199.576306 
L 111.078947 189.103046 
L 124.42823 178.629785 
L 137.777512 175.138698 
L 151.126794 164.665438 
L 164.476077 157.683264 
L 177.825359 150.70109 
L 191.174641 143.718916 
L 204.523923 143.718916 
L 217.873206 133.245655 
L 231.222488 126.263482 
L 244.57177 126.263482 
L 257.921053 115.790221 
L 271.270335 115.790221 
L 284.619617 105.31696 
L 297.9689 105.31696 
L 311.318182 91.352613 
" clip-path="url(#pe4b9c5b19f)" style="fill: none; stroke: #fb694a; stroke-width: 1.5; stroke-linecap: square"/>
   </g>
   <g id="line2d_15">
    <path d="M 111.078947 184.200122 
L 124.42823 178.162595 
L 137.777512 172.125069 
L 151.126794 166.087542 
L 164.476077 160.050015 
L 177.825359 154.012489 
L 191.174641 147.974962 
L 204.523923 141.937435 
L 217.873206 135.899908 
L 231.222488 129.862382 
L 244.57177 123.824855 
L 257.921053 117.787328 
L 271.270335 111.749801 
L 284.619617 105.712275 
L 297.9689 99.674748 
L 311.318182 93.637221 
" clip-path="url(#pe4b9c5b19f)" style="fill: none; stroke-dasharray: 3,4.95; stroke-dashoffset: 0; stroke: #fb694a; stroke-width: 3"/>
   </g>
   <g id="line2d_16">
    <path d="M 57.681818 307.8 
L 71.0311 220.522828 
L 84.380383 203.067393 
L 97.729665 189.103046 
L 111.078947 178.629785 
L 124.42823 168.156524 
L 137.777512 157.683264 
L 151.126794 150.70109 
L 164.476077 143.718916 
L 177.825359 133.245655 
L 191.174641 126.263482 
L 204.523923 115.790221 
L 217.873206 105.31696 
L 231.222488 105.31696 
L 244.57177 91.352613 
L 257.921053 91.352613 
L 271.270335 77.388265 
L 284.619617 77.388265 
L 297.9689 59.932831 
L 311.318182 59.932831 
" clip-path="url(#pe4b9c5b19f)" style="fill: none; stroke: #ca181d; stroke-width: 1.5; stroke-linecap: square"/>
   </g>
   <g id="line2d_17">
    <path d="M 111.078947 174.471285 
L 124.42823 166.559866 
L 137.777512 158.648447 
L 151.126794 150.737028 
L 164.476077 142.825609 
L 177.825359 134.91419 
L 191.174641 127.002771 
L 204.523923 119.091352 
L 217.873206 111.179933 
L 231.222488 103.268514 
L 244.57177 95.357095 
L 257.921053 87.445676 
L 271.270335 79.534257 
L 284.619617 71.622838 
L 297.9689 63.711419 
L 311.318182 55.8 
" clip-path="url(#pe4b9c5b19f)" style="fill: none; stroke-dasharray: 3,4.95; stroke-dashoffset: 0; stroke: #ca181d; stroke-width: 3"/>
   </g>
   <g id="line2d_18">
    <path d="M 57.681818 307.8 
L 71.0311 255.433697 
L 84.380383 234.487175 
L 97.729665 220.522828 
L 111.078947 206.55848 
L 124.42823 192.594133 
L 137.777512 182.120872 
L 151.126794 171.647611 
L 164.476077 164.665438 
L 177.825359 154.192177 
L 191.174641 147.210003 
L 204.523923 140.227829 
L 217.873206 129.754569 
L 231.222488 122.772395 
L 244.57177 115.790221 
L 257.921053 108.808047 
L 271.270335 101.825873 
L 284.619617 98.334787 
L 297.9689 91.352613 
L 311.318182 84.370439 
" clip-path="url(#pe4b9c5b19f)" style="fill: none; stroke: #4682b4; stroke-width: 1.5; stroke-linecap: square"/>
   </g>
   <g id="line2d_19">
    <path d="M 111.078947 197.445717 
L 124.42823 189.554833 
L 137.777512 181.66395 
L 151.126794 173.773067 
L 164.476077 165.882184 
L 177.825359 157.991301 
L 191.174641 150.100418 
L 204.523923 142.209534 
L 217.873206 134.318651 
L 231.222488 126.427768 
L 244.57177 118.536885 
L 257.921053 110.646002 
L 271.270335 102.755119 
L 284.619617 94.864236 
L 297.9689 86.973352 
L 311.318182 79.082469 
" clip-path="url(#pe4b9c5b19f)" style="fill: none; stroke-dasharray: 3,4.95; stroke-dashoffset: 0; stroke: #4682b4; stroke-width: 3"/>
   </g>
   <g id="patch_3">
    <path d="M 45 320.4 
L 45 43.2 
" style="fill: none; stroke: #000000; stroke-width: 0.8; stroke-linejoin: miter; stroke-linecap: square"/>
   </g>
   <g id="patch_4">
    <path d="M 324 320.4 
L 324 43.2 
" style="fill: none; stroke: #000000; stroke-width: 0.8; stroke-linejoin: miter; stroke-linecap: square"/>
   </g>
   <g id="patch_5">
    <path d="M 45 320.4 
L 324 320.4 
" style="fill: none; stroke: #000000; stroke-width: 0.8; stroke-linejoin: miter; stroke-linecap: square"/>
   </g>
   <g id="patch_6">
    <path d="M 45 43.2 
L 324 43.2 
" style="fill: none; stroke: #000000; stroke-width: 0.8; stroke-linejoin: miter; stroke-linecap: square"/>
   </g>
   <g id="legend_1">
    <g id="patch_7">
     <path d="M 209.96125 210.836 
L 314.2 210.836 
Q 317 210.836 317 208.036 
L 317 168.33725 
Q 317 165.53725 314.2 165.53725 
L 209.96125 165.53725 
Q 207.16125 165.53725 207.16125 168.33725 
L 207.16125 208.036 
Q 207.16125 210.836 209.96125 210.836 
z
" style="fill: #ffffff; opacity: 0.8; stroke: #cccccc; stroke-linejoin: miter"/>
    </g>
    <g id="line2d_20">
     <path d="M 212.76125 176.875062 
L 226.76125 176.875062 
L 240.76125 176.875062 
" style="fill: none; stroke: #808080; stroke-width: 3; stroke-linecap: square"/>
    </g>
    <g id="text_16">
     <!-- FI curve -->
     <g transform="translate(251.96125 181.775062) scale(0.14 -0.14)">
      <defs>
       <path id="DejaVuSerif-49" d="M 1581 331 
L 2175 331 
L 2175 0 
L 353 0 
L 353 331 
L 947 331 
L 947 4331 
L 353 4331 
L 353 4666 
L 2175 4666 
L 2175 4331 
L 1581 4331 
L 1581 331 
z
" transform="scale(0.015625)"/>
       <path id="DejaVuSerif-76" d="M 1581 0 
L 359 2988 
L -19 2988 
L -19 3322 
L 1509 3322 
L 1509 2988 
L 978 2988 
L 1913 703 
L 2847 2988 
L 2350 2988 
L 2350 3322 
L 3597 3322 
L 3597 2988 
L 3225 2988 
L 2003 0 
L 1581 0 
z
" transform="scale(0.015625)"/>
      </defs>
      <use xlink:href="#DejaVuSerif-46"/>
      <use xlink:href="#DejaVuSerif-49" transform="translate(69.384766 0)"/>
      <use xlink:href="#DejaVuSerif-20" transform="translate(108.886719 0)"/>
      <use xlink:href="#DejaVuSerif-63" transform="translate(140.673828 0)"/>
      <use xlink:href="#DejaVuSerif-75" transform="translate(196.679688 0)"/>
      <use xlink:href="#DejaVuSerif-72" transform="translate(261.083984 0)"/>
      <use xlink:href="#DejaVuSerif-76" transform="translate(308.886719 0)"/>
      <use xlink:href="#DejaVuSerif-65" transform="translate(365.380859 0)"/>
     </g>
    </g>
    <g id="line2d_21">
     <path d="M 212.76125 197.424437 
L 226.76125 197.424437 
L 240.76125 197.424437 
" style="fill: none; stroke-dasharray: 3,4.95; stroke-dashoffset: 0; stroke: #808080; stroke-width: 3"/>
    </g>
    <g id="text_17">
     <!-- Fit -->
     <g transform="translate(251.96125 202.324437) scale(0.14 -0.14)">
      <defs>
       <path id="DejaVuSerif-69" d="M 622 4353 
Q 622 4497 726 4603 
Q 831 4709 978 4709 
Q 1122 4709 1226 4603 
Q 1331 4497 1331 4353 
Q 1331 4206 1228 4103 
Q 1125 4000 978 4000 
Q 831 4000 726 4103 
Q 622 4206 622 4353 
z
M 1356 331 
L 1900 331 
L 1900 0 
L 231 0 
L 231 331 
L 781 331 
L 781 2988 
L 231 2988 
L 231 3322 
L 1356 3322 
L 1356 331 
z
" transform="scale(0.015625)"/>
      </defs>
      <use xlink:href="#DejaVuSerif-46"/>
      <use xlink:href="#DejaVuSerif-69" transform="translate(69.384766 0)"/>
      <use xlink:href="#DejaVuSerif-74" transform="translate(101.367188 0)"/>
     </g>
    </g>
   </g>
   <g id="legend_2">
    <g id="patch_8">
     <path d="M 113.08125 313.4 
L 314.2 313.4 
Q 317 313.4 317 310.6 
L 317 228.834688 
Q 317 226.034688 314.2 226.034688 
L 113.08125 226.034688 
Q 110.28125 226.034688 110.28125 228.834688 
L 110.28125 310.6 
Q 110.28125 313.4 113.08125 313.4 
z
" style="fill: #ffffff; opacity: 0.8; stroke: #cccccc; stroke-linejoin: miter"/>
    </g>
    <g id="text_18">
     <!-- Gain -->
     <g transform="translate(195.947656 243.032344) scale(0.15 -0.15)">
      <defs>
       <path id="DejaVuSerif-47" d="M 4097 3272 
Q 3988 3856 3641 4136 
Q 3294 4416 2675 4416 
Q 1869 4416 1472 3897 
Q 1075 3378 1075 2328 
Q 1075 1300 1484 772 
Q 1894 244 2688 244 
Q 3041 244 3362 331 
Q 3684 419 3975 594 
L 3975 1797 
L 3097 1797 
L 3097 2131 
L 4609 2131 
L 4609 391 
Q 4194 150 3714 29 
Q 3234 -91 2688 -91 
Q 1631 -91 995 570 
Q 359 1231 359 2328 
Q 359 3434 996 4092 
Q 1634 4750 2713 4750 
Q 3113 4750 3539 4658 
Q 3966 4566 4447 4378 
L 4447 3272 
L 4097 3272 
z
" transform="scale(0.015625)"/>
       <path id="DejaVuSerif-61" d="M 2547 1044 
L 2547 1747 
L 1806 1747 
Q 1378 1747 1168 1562 
Q 959 1378 959 997 
Q 959 650 1171 447 
Q 1384 244 1747 244 
Q 2106 244 2326 466 
Q 2547 688 2547 1044 
z
M 3122 2075 
L 3122 331 
L 3634 331 
L 3634 0 
L 2547 0 
L 2547 359 
Q 2356 128 2106 18 
Q 1856 -91 1522 -91 
Q 969 -91 644 203 
Q 319 497 319 997 
Q 319 1513 691 1797 
Q 1063 2081 1741 2081 
L 2547 2081 
L 2547 2309 
Q 2547 2688 2317 2895 
Q 2088 3103 1672 3103 
Q 1328 3103 1125 2947 
Q 922 2791 872 2484 
L 575 2484 
L 575 3156 
Q 875 3284 1158 3348 
Q 1441 3413 1709 3413 
Q 2400 3413 2761 3070 
Q 3122 2728 3122 2075 
z
" transform="scale(0.015625)"/>
      </defs>
      <use xlink:href="#DejaVuSerif-47"/>
      <use xlink:href="#DejaVuSerif-61" transform="translate(79.882812 0)"/>
      <use xlink:href="#DejaVuSerif-69" transform="translate(139.501953 0)"/>
      <use xlink:href="#DejaVuSerif-6e" transform="translate(171.484375 0)"/>
     </g>
    </g>
    <g id="line2d_22">
     <path d="M 115.88125 258.889688 
L 129.88125 258.889688 
L 143.88125 258.889688 
" style="fill: none; stroke-dasharray: 3,4.95; stroke-dashoffset: 0; stroke: #fcbba1; stroke-width: 3"/>
    </g>
    <g id="text_19">
     <!-- Vr=-17.0, 8.21±0.25 -->
     <g transform="translate(155.08125 263.789688) scale(0.14 -0.14)">
      <defs>
       <path id="DejaVuSerif-56" d="M 1119 4331 
L 2497 750 
L 3872 4331 
L 3347 4331 
L 3347 4666 
L 4716 4666 
L 4716 4331 
L 4263 4331 
L 2597 0 
L 2059 0 
L 403 4331 
L -63 4331 
L -63 4666 
L 1638 4666 
L 1638 4331 
L 1119 4331 
z
" transform="scale(0.015625)"/>
       <path id="DejaVuSerif-3d" d="M 678 2894 
L 4684 2894 
L 4684 2394 
L 678 2394 
L 678 2894 
z
M 678 1619 
L 4684 1619 
L 4684 1119 
L 678 1119 
L 678 1619 
z
" transform="scale(0.015625)"/>
       <path id="DejaVuSerif-2d" d="M 281 1959 
L 1881 1959 
L 1881 1472 
L 281 1472 
L 281 1959 
z
" transform="scale(0.015625)"/>
       <path id="DejaVuSerif-2e" d="M 603 325 
Q 603 500 722 622 
Q 841 744 1019 744 
Q 1191 744 1312 622 
Q 1434 500 1434 325 
Q 1434 153 1312 31 
Q 1191 -91 1019 -91 
Q 841 -91 722 29 
Q 603 150 603 325 
z
" transform="scale(0.015625)"/>
       <path id="DejaVuSerif-2c" d="M 231 -622 
Q 525 -406 662 -114 
Q 800 178 800 594 
L 800 709 
L 1416 709 
Q 1391 175 1164 -208 
Q 938 -591 481 -872 
L 231 -622 
z
" transform="scale(0.015625)"/>
       <path id="DejaVuSerif-38" d="M 2981 1275 
Q 2981 1775 2732 2051 
Q 2484 2328 2034 2328 
Q 1584 2328 1336 2051 
Q 1088 1775 1088 1275 
Q 1088 772 1336 495 
Q 1584 219 2034 219 
Q 2484 219 2732 495 
Q 2981 772 2981 1275 
z
M 2853 3541 
Q 2853 3966 2637 4203 
Q 2422 4441 2034 4441 
Q 1650 4441 1433 4203 
Q 1216 3966 1216 3541 
Q 1216 3113 1433 2875 
Q 1650 2638 2034 2638 
Q 2422 2638 2637 2875 
Q 2853 3113 2853 3541 
z
M 2516 2484 
Q 3047 2413 3344 2092 
Q 3641 1772 3641 1275 
Q 3641 619 3225 264 
Q 2809 -91 2034 -91 
Q 1263 -91 845 264 
Q 428 619 428 1275 
Q 428 1772 725 2092 
Q 1022 2413 1556 2484 
Q 1084 2569 832 2842 
Q 581 3116 581 3541 
Q 581 4103 968 4426 
Q 1356 4750 2034 4750 
Q 2713 4750 3100 4426 
Q 3488 4103 3488 3541 
Q 3488 3116 3236 2842 
Q 2984 2569 2516 2484 
z
" transform="scale(0.015625)"/>
       <path id="DejaVuSerif-b1" d="M 2931 4013 
L 2931 2791 
L 4684 2791 
L 4684 2284 
L 2931 2284 
L 2931 1063 
L 2431 1063 
L 2431 2284 
L 678 2284 
L 678 2791 
L 2431 2791 
L 2431 4013 
L 2931 4013 
z
M 678 500 
L 4684 500 
L 4684 0 
L 678 0 
L 678 500 
z
" transform="scale(0.015625)"/>
      </defs>
      <use xlink:href="#DejaVuSerif-56"/>
      <use xlink:href="#DejaVuSerif-72" transform="translate(72.216797 0)"/>
      <use xlink:href="#DejaVuSerif-3d" transform="translate(120.019531 0)"/>
      <use xlink:href="#DejaVuSerif-2d" transform="translate(203.808594 0)"/>
      <use xlink:href="#DejaVuSerif-31" transform="translate(237.597656 0)"/>
      <use xlink:href="#DejaVuSerif-37" transform="translate(301.220703 0)"/>
      <use xlink:href="#DejaVuSerif-2e" transform="translate(364.84375 0)"/>
      <use xlink:href="#DejaVuSerif-30" transform="translate(396.630859 0)"/>
      <use xlink:href="#DejaVuSerif-2c" transform="translate(460.253906 0)"/>
      <use xlink:href="#DejaVuSerif-20" transform="translate(492.041016 0)"/>
      <use xlink:href="#DejaVuSerif-38" transform="translate(523.828125 0)"/>
      <use xlink:href="#DejaVuSerif-2e" transform="translate(587.451172 0)"/>
      <use xlink:href="#DejaVuSerif-32" transform="translate(619.238281 0)"/>
      <use xlink:href="#DejaVuSerif-31" transform="translate(682.861328 0)"/>
      <use xlink:href="#DejaVuSerif-b1" transform="translate(746.484375 0)"/>
      <use xlink:href="#DejaVuSerif-30" transform="translate(830.273438 0)"/>
      <use xlink:href="#DejaVuSerif-2e" transform="translate(893.896484 0)"/>
      <use xlink:href="#DejaVuSerif-32" transform="translate(925.683594 0)"/>
      <use xlink:href="#DejaVuSerif-35" transform="translate(989.306641 0)"/>
     </g>
    </g>
    <g id="line2d_23">
     <path d="M 115.88125 279.439063 
L 129.88125 279.439063 
L 143.88125 279.439063 
" style="fill: none; stroke-dasharray: 3,4.95; stroke-dashoffset: 0; stroke: #fb694a; stroke-width: 3"/>
    </g>
    <g id="text_20">
     <!-- Vr=-12.3, 10.76±0.26 -->
     <g transform="translate(155.08125 284.339063) scale(0.14 -0.14)">
      <use xlink:href="#DejaVuSerif-56"/>
      <use xlink:href="#DejaVuSerif-72" transform="translate(72.216797 0)"/>
      <use xlink:href="#DejaVuSerif-3d" transform="translate(120.019531 0)"/>
      <use xlink:href="#DejaVuSerif-2d" transform="translate(203.808594 0)"/>
      <use xlink:href="#DejaVuSerif-31" transform="translate(237.597656 0)"/>
      <use xlink:href="#DejaVuSerif-32" transform="translate(301.220703 0)"/>
      <use xlink:href="#DejaVuSerif-2e" transform="translate(364.84375 0)"/>
      <use xlink:href="#DejaVuSerif-33" transform="translate(396.630859 0)"/>
      <use xlink:href="#DejaVuSerif-2c" transform="translate(460.253906 0)"/>
      <use xlink:href="#DejaVuSerif-20" transform="translate(492.041016 0)"/>
      <use xlink:href="#DejaVuSerif-31" transform="translate(523.828125 0)"/>
      <use xlink:href="#DejaVuSerif-30" transform="translate(587.451172 0)"/>
      <use xlink:href="#DejaVuSerif-2e" transform="translate(651.074219 0)"/>
      <use xlink:href="#DejaVuSerif-37" transform="translate(682.861328 0)"/>
      <use xlink:href="#DejaVuSerif-36" transform="translate(746.484375 0)"/>
      <use xlink:href="#DejaVuSerif-b1" transform="translate(810.107422 0)"/>
      <use xlink:href="#DejaVuSerif-30" transform="translate(893.896484 0)"/>
      <use xlink:href="#DejaVuSerif-2e" transform="translate(957.519531 0)"/>
      <use xlink:href="#DejaVuSerif-32" transform="translate(989.306641 0)"/>
      <use xlink:href="#DejaVuSerif-36" transform="translate(1052.929688 0)"/>
     </g>
    </g>
    <g id="line2d_24">
     <path d="M 115.88125 299.988438 
L 129.88125 299.988438 
L 143.88125 299.988438 
" style="fill: none; stroke-dasharray: 3,4.95; stroke-dashoffset: 0; stroke: #ca181d; stroke-width: 3"/>
    </g>
    <g id="text_21">
     <!-- QIF, 10.74±0.30 -->
     <g transform="translate(155.08125 304.888438) scale(0.14 -0.14)">
      <defs>
       <path id="DejaVuSerif-51" d="M 2700 -91 
Q 1628 -91 993 567 
Q 359 1225 359 2328 
Q 359 2894 529 3339 
Q 700 3784 1050 4134 
Q 1356 4441 1750 4595 
Q 2144 4750 2625 4750 
Q 3641 4750 4266 4084 
Q 4891 3419 4891 2328 
Q 4891 1403 4422 773 
Q 3953 144 3128 -38 
Q 3297 -247 3539 -347 
Q 3781 -447 4122 -447 
L 4219 -447 
L 4219 -1025 
Q 3691 -1000 3314 -767 
Q 2938 -534 2700 -91 
z
M 2625 244 
Q 3391 244 3781 770 
Q 4172 1297 4172 2328 
Q 4172 3363 3781 3889 
Q 3391 4416 2625 4416 
Q 1856 4416 1465 3889 
Q 1075 3363 1075 2328 
Q 1075 1297 1465 770 
Q 1856 244 2625 244 
z
" transform="scale(0.015625)"/>
      </defs>
      <use xlink:href="#DejaVuSerif-51"/>
      <use xlink:href="#DejaVuSerif-49" transform="translate(81.982422 0)"/>
      <use xlink:href="#DejaVuSerif-46" transform="translate(121.484375 0)"/>
      <use xlink:href="#DejaVuSerif-2c" transform="translate(175.244141 0)"/>
      <use xlink:href="#DejaVuSerif-20" transform="translate(207.03125 0)"/>
      <use xlink:href="#DejaVuSerif-31" transform="translate(238.818359 0)"/>
      <use xlink:href="#DejaVuSerif-30" transform="translate(302.441406 0)"/>
      <use xlink:href="#DejaVuSerif-2e" transform="translate(366.064453 0)"/>
      <use xlink:href="#DejaVuSerif-37" transform="translate(397.851562 0)"/>
      <use xlink:href="#DejaVuSerif-34" transform="translate(461.474609 0)"/>
      <use xlink:href="#DejaVuSerif-b1" transform="translate(525.097656 0)"/>
      <use xlink:href="#DejaVuSerif-30" transform="translate(608.886719 0)"/>
      <use xlink:href="#DejaVuSerif-2e" transform="translate(672.509766 0)"/>
      <use xlink:href="#DejaVuSerif-33" transform="translate(704.296875 0)"/>
      <use xlink:href="#DejaVuSerif-30" transform="translate(767.919922 0)"/>
     </g>
    </g>
   </g>
   <g id="legend_3">
    <g id="patch_9">
     <path d="M 113.08125 313.4 
L 314.2 313.4 
Q 317 313.4 317 310.6 
L 317 228.834688 
Q 317 226.034688 314.2 226.034688 
L 113.08125 226.034688 
Q 110.28125 226.034688 110.28125 228.834688 
L 110.28125 310.6 
Q 110.28125 313.4 113.08125 313.4 
z
" style="fill: #ffffff; opacity: 0.8; stroke: #cccccc; stroke-linejoin: miter"/>
    </g>
    <g id="text_22">
     <!-- Gain -->
     <g transform="translate(195.947656 243.032344) scale(0.15 -0.15)">
      <use xlink:href="#DejaVuSerif-47"/>
      <use xlink:href="#DejaVuSerif-61" transform="translate(79.882812 0)"/>
      <use xlink:href="#DejaVuSerif-69" transform="translate(139.501953 0)"/>
      <use xlink:href="#DejaVuSerif-6e" transform="translate(171.484375 0)"/>
     </g>
    </g>
    <g id="line2d_25">
     <path d="M 115.88125 258.889688 
L 129.88125 258.889688 
L 143.88125 258.889688 
" style="fill: none; stroke-dasharray: 3,4.95; stroke-dashoffset: 0; stroke: #fcbba1; stroke-width: 3"/>
    </g>
    <g id="text_23">
     <!-- Vr=-17.0, 8.21±0.25 -->
     <g transform="translate(155.08125 263.789688) scale(0.14 -0.14)">
      <use xlink:href="#DejaVuSerif-56"/>
      <use xlink:href="#DejaVuSerif-72" transform="translate(72.216797 0)"/>
      <use xlink:href="#DejaVuSerif-3d" transform="translate(120.019531 0)"/>
      <use xlink:href="#DejaVuSerif-2d" transform="translate(203.808594 0)"/>
      <use xlink:href="#DejaVuSerif-31" transform="translate(237.597656 0)"/>
      <use xlink:href="#DejaVuSerif-37" transform="translate(301.220703 0)"/>
      <use xlink:href="#DejaVuSerif-2e" transform="translate(364.84375 0)"/>
      <use xlink:href="#DejaVuSerif-30" transform="translate(396.630859 0)"/>
      <use xlink:href="#DejaVuSerif-2c" transform="translate(460.253906 0)"/>
      <use xlink:href="#DejaVuSerif-20" transform="translate(492.041016 0)"/>
      <use xlink:href="#DejaVuSerif-38" transform="translate(523.828125 0)"/>
      <use xlink:href="#DejaVuSerif-2e" transform="translate(587.451172 0)"/>
      <use xlink:href="#DejaVuSerif-32" transform="translate(619.238281 0)"/>
      <use xlink:href="#DejaVuSerif-31" transform="translate(682.861328 0)"/>
      <use xlink:href="#DejaVuSerif-b1" transform="translate(746.484375 0)"/>
      <use xlink:href="#DejaVuSerif-30" transform="translate(830.273438 0)"/>
      <use xlink:href="#DejaVuSerif-2e" transform="translate(893.896484 0)"/>
      <use xlink:href="#DejaVuSerif-32" transform="translate(925.683594 0)"/>
      <use xlink:href="#DejaVuSerif-35" transform="translate(989.306641 0)"/>
     </g>
    </g>
    <g id="line2d_26">
     <path d="M 115.88125 279.439063 
L 129.88125 279.439063 
L 143.88125 279.439063 
" style="fill: none; stroke-dasharray: 3,4.95; stroke-dashoffset: 0; stroke: #fb694a; stroke-width: 3"/>
    </g>
    <g id="text_24">
     <!-- Vr=-12.3, 10.76±0.26 -->
     <g transform="translate(155.08125 284.339063) scale(0.14 -0.14)">
      <use xlink:href="#DejaVuSerif-56"/>
      <use xlink:href="#DejaVuSerif-72" transform="translate(72.216797 0)"/>
      <use xlink:href="#DejaVuSerif-3d" transform="translate(120.019531 0)"/>
      <use xlink:href="#DejaVuSerif-2d" transform="translate(203.808594 0)"/>
      <use xlink:href="#DejaVuSerif-31" transform="translate(237.597656 0)"/>
      <use xlink:href="#DejaVuSerif-32" transform="translate(301.220703 0)"/>
      <use xlink:href="#DejaVuSerif-2e" transform="translate(364.84375 0)"/>
      <use xlink:href="#DejaVuSerif-33" transform="translate(396.630859 0)"/>
      <use xlink:href="#DejaVuSerif-2c" transform="translate(460.253906 0)"/>
      <use xlink:href="#DejaVuSerif-20" transform="translate(492.041016 0)"/>
      <use xlink:href="#DejaVuSerif-31" transform="translate(523.828125 0)"/>
      <use xlink:href="#DejaVuSerif-30" transform="translate(587.451172 0)"/>
      <use xlink:href="#DejaVuSerif-2e" transform="translate(651.074219 0)"/>
      <use xlink:href="#DejaVuSerif-37" transform="translate(682.861328 0)"/>
      <use xlink:href="#DejaVuSerif-36" transform="translate(746.484375 0)"/>
      <use xlink:href="#DejaVuSerif-b1" transform="translate(810.107422 0)"/>
      <use xlink:href="#DejaVuSerif-30" transform="translate(893.896484 0)"/>
      <use xlink:href="#DejaVuSerif-2e" transform="translate(957.519531 0)"/>
      <use xlink:href="#DejaVuSerif-32" transform="translate(989.306641 0)"/>
      <use xlink:href="#DejaVuSerif-36" transform="translate(1052.929688 0)"/>
     </g>
    </g>
    <g id="line2d_27">
     <path d="M 115.88125 299.988438 
L 129.88125 299.988438 
L 143.88125 299.988438 
" style="fill: none; stroke-dasharray: 3,4.95; stroke-dashoffset: 0; stroke: #ca181d; stroke-width: 3"/>
    </g>
    <g id="text_25">
     <!-- QIF, 10.74±0.30 -->
     <g transform="translate(155.08125 304.888438) scale(0.14 -0.14)">
      <use xlink:href="#DejaVuSerif-51"/>
      <use xlink:href="#DejaVuSerif-49" transform="translate(81.982422 0)"/>
      <use xlink:href="#DejaVuSerif-46" transform="translate(121.484375 0)"/>
      <use xlink:href="#DejaVuSerif-2c" transform="translate(175.244141 0)"/>
      <use xlink:href="#DejaVuSerif-20" transform="translate(207.03125 0)"/>
      <use xlink:href="#DejaVuSerif-31" transform="translate(238.818359 0)"/>
      <use xlink:href="#DejaVuSerif-30" transform="translate(302.441406 0)"/>
      <use xlink:href="#DejaVuSerif-2e" transform="translate(366.064453 0)"/>
      <use xlink:href="#DejaVuSerif-37" transform="translate(397.851562 0)"/>
      <use xlink:href="#DejaVuSerif-34" transform="translate(461.474609 0)"/>
      <use xlink:href="#DejaVuSerif-b1" transform="translate(525.097656 0)"/>
      <use xlink:href="#DejaVuSerif-30" transform="translate(608.886719 0)"/>
      <use xlink:href="#DejaVuSerif-2e" transform="translate(672.509766 0)"/>
      <use xlink:href="#DejaVuSerif-33" transform="translate(704.296875 0)"/>
      <use xlink:href="#DejaVuSerif-30" transform="translate(767.919922 0)"/>
     </g>
    </g>
   </g>
  </g>
 </g>
 <defs>
  <clipPath id="pe4b9c5b19f">
   <rect x="45" y="43.2" width="279" height="277.2"/>
  </clipPath>
 </defs>
</svg>
