<?xml version="1.0" encoding="utf-8" standalone="no"?>
<!DOCTYPE svg PUBLIC "-//W3C//DTD SVG 1.1//EN"
  "http://www.w3.org/Graphics/SVG/1.1/DTD/svg11.dtd">
<svg xmlns:xlink="http://www.w3.org/1999/xlink" width="360pt" height="360pt" viewBox="0 0 360 360" xmlns="http://www.w3.org/2000/svg" version="1.1">
 <metadata>
  <rdf:RDF xmlns:dc="http://purl.org/dc/elements/1.1/" xmlns:cc="http://creativecommons.org/ns#" xmlns:rdf="http://www.w3.org/1999/02/22-rdf-syntax-ns#">
   <cc:Work>
    <dc:type rdf:resource="http://purl.org/dc/dcmitype/StillImage"/>
    <dc:date>2025-11-26T15:16:46.736519</dc:date>
    <dc:format>image/svg+xml</dc:format>
    <dc:creator>
     <cc:Agent>
      <dc:title>Matplotlib v3.10.5, https://matplotlib.org/</dc:title>
     </cc:Agent>
    </dc:creator>
   </cc:Work>
  </rdf:RDF>
 </metadata>
 <defs>
  <style type="text/css">*{stroke-linejoin: round; stroke-linecap: butt}</style>
 </defs>
 <g id="figure_1">
  <g id="patch_1">
   <path d="M 0 360 
L 360 360 
L 360 0 
L 0 0 
z
" style="fill: #ffffff"/>
  </g>
  <g id="axes_1">
   <g id="patch_2">
    <path d="M 45 169.2 
L 324 169.2 
L 324 43.2 
L 45 43.2 
z
" style="fill: #ffffff"/>
   </g>
   <g id="matplotlib.axis_1">
    <g id="xtick_1">
     <g id="line2d_1">
      <defs>
       <path id="m10e9c49321" d="M 0 0 
L 0 -3.5 
" style="stroke: #000000; stroke-width: 0.8"/>
      </defs>
      <g>
       <use xlink:href="#m10e9c49321" x="57.681818" y="169.2" style="stroke: #000000; stroke-width: 0.8"/>
      </g>
     </g>
    </g>
    <g id="xtick_2">
     <g id="line2d_2">
      <g>
       <use xlink:href="#m10e9c49321" x="121.090909" y="169.2" style="stroke: #000000; stroke-width: 0.8"/>
      </g>
     </g>
    </g>
    <g id="xtick_3">
     <g id="line2d_3">
      <g>
       <use xlink:href="#m10e9c49321" x="184.5" y="169.2" style="stroke: #000000; stroke-width: 0.8"/>
      </g>
     </g>
    </g>
    <g id="xtick_4">
     <g id="line2d_4">
      <g>
       <use xlink:href="#m10e9c49321" x="247.909091" y="169.2" style="stroke: #000000; stroke-width: 0.8"/>
      </g>
     </g>
    </g>
    <g id="xtick_5">
     <g id="line2d_5">
      <g>
       <use xlink:href="#m10e9c49321" x="311.318182" y="169.2" style="stroke: #000000; stroke-width: 0.8"/>
      </g>
     </g>
    </g>
   </g>
   <g id="matplotlib.axis_2">
    <g id="ytick_1">
     <g id="line2d_6">
      <defs>
       <path id="mc365c7c378" d="M 0 0 
L 3.5 0 
" style="stroke: #000000; stroke-width: 0.8"/>
      </defs>
      <g>
       <use xlink:href="#mc365c7c378" x="45" y="163.475141" style="stroke: #000000; stroke-width: 0.8"/>
      </g>
     </g>
     <g id="text_1">
      <!-- 0.0 -->
      <g transform="translate(16.055 169.553891) scale(0.16 -0.16)">
       <defs>
        <path id="DejaVuSerif-30" d="M 2034 219 
Q 2513 219 2750 744 
Q 2988 1269 2988 2328 
Q 2988 3391 2750 3916 
Q 2513 4441 2034 4441 
Q 1556 4441 1318 3916 
Q 1081 3391 1081 2328 
Q 1081 1269 1318 744 
Q 1556 219 2034 219 
z
M 2034 -91 
Q 1275 -91 848 546 
Q 422 1184 422 2328 
Q 422 3475 848 4112 
Q 1275 4750 2034 4750 
Q 2797 4750 3222 4112 
Q 3647 3475 3647 2328 
Q 3647 1184 3222 546 
Q 2797 -91 2034 -91 
z
" transform="scale(0.015625)"/>
        <path id="DejaVuSerif-2e" d="M 603 325 
Q 603 500 722 622 
Q 841 744 1019 744 
Q 1191 744 1312 622 
Q 1434 500 1434 325 
Q 1434 153 1312 31 
Q 1191 -91 1019 -91 
Q 841 -91 722 29 
Q 603 150 603 325 
z
" transform="scale(0.015625)"/>
       </defs>
       <use xlink:href="#DejaVuSerif-30"/>
       <use xlink:href="#DejaVuSerif-2e" transform="translate(63.623047 0)"/>
       <use xlink:href="#DejaVuSerif-30" transform="translate(95.410156 0)"/>
      </g>
     </g>
    </g>
    <g id="ytick_2">
     <g id="line2d_7">
      <g>
       <use xlink:href="#mc365c7c378" x="45" y="88.628373" style="stroke: #000000; stroke-width: 0.8"/>
      </g>
     </g>
     <g id="text_2">
      <!-- 0.1 -->
      <g transform="translate(16.055 94.707123) scale(0.16 -0.16)">
       <defs>
        <path id="DejaVuSerif-31" d="M 909 0 
L 909 331 
L 1722 331 
L 1722 4213 
L 781 3603 
L 781 4013 
L 1919 4750 
L 2350 4750 
L 2350 331 
L 3163 331 
L 3163 0 
L 909 0 
z
" transform="scale(0.015625)"/>
       </defs>
       <use xlink:href="#DejaVuSerif-30"/>
       <use xlink:href="#DejaVuSerif-2e" transform="translate(63.623047 0)"/>
       <use xlink:href="#DejaVuSerif-31" transform="translate(95.410156 0)"/>
      </g>
     </g>
    </g>
    <g id="text_3">
     <!-- Value -->
     <g transform="translate(8.311563 131.246719) rotate(-90) scale(0.18 -0.18)">
      <defs>
       <path id="DejaVuSerif-56" d="M 1119 4331 
L 2497 750 
L 3872 4331 
L 3347 4331 
L 3347 4666 
L 4716 4666 
L 4716 4331 
L 4263 4331 
L 2597 0 
L 2059 0 
L 403 4331 
L -63 4331 
L -63 4666 
L 1638 4666 
L 1638 4331 
L 1119 4331 
z
" transform="scale(0.015625)"/>
       <path id="DejaVuSerif-61" d="M 2547 1044 
L 2547 1747 
L 1806 1747 
Q 1378 1747 1168 1562 
Q 959 1378 959 997 
Q 959 650 1171 447 
Q 1384 244 1747 244 
Q 2106 244 2326 466 
Q 2547 688 2547 1044 
z
M 3122 2075 
L 3122 331 
L 3634 331 
L 3634 0 
L 2547 0 
L 2547 359 
Q 2356 128 2106 18 
Q 1856 -91 1522 -91 
Q 969 -91 644 203 
Q 319 497 319 997 
Q 319 1513 691 1797 
Q 1063 2081 1741 2081 
L 2547 2081 
L 2547 2309 
Q 2547 2688 2317 2895 
Q 2088 3103 1672 3103 
Q 1328 3103 1125 2947 
Q 922 2791 872 2484 
L 575 2484 
L 575 3156 
Q 875 3284 1158 3348 
Q 1441 3413 1709 3413 
Q 2400 3413 2761 3070 
Q 3122 2728 3122 2075 
z
" transform="scale(0.015625)"/>
       <path id="DejaVuSerif-6c" d="M 1313 331 
L 1856 331 
L 1856 0 
L 184 0 
L 184 331 
L 738 331 
L 738 4531 
L 184 4531 
L 184 4863 
L 1313 4863 
L 1313 331 
z
" transform="scale(0.015625)"/>
       <path id="DejaVuSerif-75" d="M 2266 3322 
L 3341 3322 
L 3341 331 
L 3884 331 
L 3884 0 
L 2766 0 
L 2766 588 
Q 2606 256 2353 82 
Q 2100 -91 1766 -91 
Q 1213 -91 952 223 
Q 691 538 691 1209 
L 691 2988 
L 172 2988 
L 172 3322 
L 1269 3322 
L 1269 1388 
Q 1269 781 1417 556 
Q 1566 331 1947 331 
Q 2347 331 2556 625 
Q 2766 919 2766 1478 
L 2766 2988 
L 2266 2988 
L 2266 3322 
z
" transform="scale(0.015625)"/>
       <path id="DejaVuSerif-65" d="M 3469 1600 
L 991 1600 
L 991 1575 
Q 991 903 1244 561 
Q 1497 219 1991 219 
Q 2369 219 2611 417 
Q 2853 616 2950 1006 
L 3413 1006 
Q 3275 459 2904 184 
Q 2534 -91 1931 -91 
Q 1203 -91 761 389 
Q 319 869 319 1663 
Q 319 2450 753 2931 
Q 1188 3413 1894 3413 
Q 2647 3413 3050 2948 
Q 3453 2484 3469 1600 
z
M 2791 1931 
Q 2772 2513 2545 2808 
Q 2319 3103 1894 3103 
Q 1497 3103 1269 2806 
Q 1041 2509 991 1931 
L 2791 1931 
z
" transform="scale(0.015625)"/>
      </defs>
      <use xlink:href="#DejaVuSerif-56"/>
      <use xlink:href="#DejaVuSerif-61" transform="translate(63.091797 0)"/>
      <use xlink:href="#DejaVuSerif-6c" transform="translate(122.710938 0)"/>
      <use xlink:href="#DejaVuSerif-75" transform="translate(154.693359 0)"/>
      <use xlink:href="#DejaVuSerif-65" transform="translate(219.097656 0)"/>
     </g>
    </g>
   </g>
   <g id="LineCollection_1">
    <path d="M 57.681818 162.601313 
L 57.681818 162.476629 
" clip-path="url(#p55ccd3e990)" style="fill: none; stroke: #808080; stroke-opacity: 0.8; stroke-width: 1.5"/>
   </g>
   <g id="line2d_8">
    <defs>
     <path id="mc7cbe7376d" d="M 5 0 
L -5 -0 
" style="stroke: #808080; stroke-opacity: 0.8"/>
    </defs>
    <g clip-path="url(#p55ccd3e990)">
     <use xlink:href="#mc7cbe7376d" x="57.681818" y="162.601313" style="fill: #808080; fill-opacity: 0.8; stroke: #808080; stroke-opacity: 0.8"/>
    </g>
   </g>
   <g id="line2d_9">
    <g clip-path="url(#p55ccd3e990)">
     <use xlink:href="#mc7cbe7376d" x="57.681818" y="162.476629" style="fill: #808080; fill-opacity: 0.8; stroke: #808080; stroke-opacity: 0.8"/>
    </g>
   </g>
   <g id="LineCollection_2">
    <path d="M 57.681818 162.218359 
L 57.681818 162.159653 
" clip-path="url(#p55ccd3e990)" style="fill: none; stroke: #ff8c00; stroke-opacity: 0.8; stroke-width: 1.5"/>
   </g>
   <g id="line2d_10">
    <defs>
     <path id="m6622050bd4" d="M 5 0 
L -5 -0 
" style="stroke: #ff8c00; stroke-opacity: 0.8"/>
    </defs>
    <g clip-path="url(#p55ccd3e990)">
     <use xlink:href="#m6622050bd4" x="57.681818" y="162.218359" style="fill: #ff8c00; fill-opacity: 0.8; stroke: #ff8c00; stroke-opacity: 0.8"/>
    </g>
   </g>
   <g id="line2d_11">
    <g clip-path="url(#p55ccd3e990)">
     <use xlink:href="#m6622050bd4" x="57.681818" y="162.159653" style="fill: #ff8c00; fill-opacity: 0.8; stroke: #ff8c00; stroke-opacity: 0.8"/>
    </g>
   </g>
   <g id="LineCollection_3">
    <path d="M 57.681818 87.662602 
L 57.681818 87.412893 
" clip-path="url(#p55ccd3e990)" style="fill: none; stroke: #ff1493; stroke-opacity: 0.8; stroke-width: 1.5"/>
   </g>
   <g id="line2d_12">
    <defs>
     <path id="m4ccd4f1ac5" d="M 5 0 
L -5 -0 
" style="stroke: #ff1493; stroke-opacity: 0.8"/>
    </defs>
    <g clip-path="url(#p55ccd3e990)">
     <use xlink:href="#m4ccd4f1ac5" x="57.681818" y="87.662602" style="fill: #ff1493; fill-opacity: 0.8; stroke: #ff1493; stroke-opacity: 0.8"/>
    </g>
   </g>
   <g id="line2d_13">
    <g clip-path="url(#p55ccd3e990)">
     <use xlink:href="#m4ccd4f1ac5" x="57.681818" y="87.412893" style="fill: #ff1493; fill-opacity: 0.8; stroke: #ff1493; stroke-opacity: 0.8"/>
    </g>
   </g>
   <g id="LineCollection_4">
    <path d="M 121.090909 163.324443 
L 121.090909 163.285658 
" clip-path="url(#p55ccd3e990)" style="fill: none; stroke: #808080; stroke-opacity: 0.8; stroke-width: 1.5"/>
   </g>
   <g id="line2d_14">
    <g clip-path="url(#p55ccd3e990)">
     <use xlink:href="#mc7cbe7376d" x="121.090909" y="163.324443" style="fill: #808080; fill-opacity: 0.8; stroke: #808080; stroke-opacity: 0.8"/>
    </g>
   </g>
   <g id="line2d_15">
    <g clip-path="url(#p55ccd3e990)">
     <use xlink:href="#mc7cbe7376d" x="121.090909" y="163.285658" style="fill: #808080; fill-opacity: 0.8; stroke: #808080; stroke-opacity: 0.8"/>
    </g>
   </g>
   <g id="LineCollection_5">
    <path d="M 121.090909 49.536265 
L 121.090909 48.927273 
" clip-path="url(#p55ccd3e990)" style="fill: none; stroke: #ff8c00; stroke-opacity: 0.8; stroke-width: 1.5"/>
   </g>
   <g id="line2d_16">
    <g clip-path="url(#p55ccd3e990)">
     <use xlink:href="#m6622050bd4" x="121.090909" y="49.536265" style="fill: #ff8c00; fill-opacity: 0.8; stroke: #ff8c00; stroke-opacity: 0.8"/>
    </g>
   </g>
   <g id="line2d_17">
    <g clip-path="url(#p55ccd3e990)">
     <use xlink:href="#m6622050bd4" x="121.090909" y="48.927273" style="fill: #ff8c00; fill-opacity: 0.8; stroke: #ff8c00; stroke-opacity: 0.8"/>
    </g>
   </g>
   <g id="LineCollection_6">
    <path d="M 121.090909 87.974646 
L 121.090909 87.595981 
" clip-path="url(#p55ccd3e990)" style="fill: none; stroke: #ff1493; stroke-opacity: 0.8; stroke-width: 1.5"/>
   </g>
   <g id="line2d_18">
    <g clip-path="url(#p55ccd3e990)">
     <use xlink:href="#m4ccd4f1ac5" x="121.090909" y="87.974646" style="fill: #ff1493; fill-opacity: 0.8; stroke: #ff1493; stroke-opacity: 0.8"/>
    </g>
   </g>
   <g id="line2d_19">
    <g clip-path="url(#p55ccd3e990)">
     <use xlink:href="#m4ccd4f1ac5" x="121.090909" y="87.595981" style="fill: #ff1493; fill-opacity: 0.8; stroke: #ff1493; stroke-opacity: 0.8"/>
    </g>
   </g>
   <g id="LineCollection_7">
    <path d="M 184.5 163.456118 
L 184.5 163.445164 
" clip-path="url(#p55ccd3e990)" style="fill: none; stroke: #808080; stroke-opacity: 0.8; stroke-width: 1.5"/>
   </g>
   <g id="line2d_20">
    <g clip-path="url(#p55ccd3e990)">
     <use xlink:href="#mc7cbe7376d" x="184.5" y="163.456118" style="fill: #808080; fill-opacity: 0.8; stroke: #808080; stroke-opacity: 0.8"/>
    </g>
   </g>
   <g id="line2d_21">
    <g clip-path="url(#p55ccd3e990)">
     <use xlink:href="#mc7cbe7376d" x="184.5" y="163.445164" style="fill: #808080; fill-opacity: 0.8; stroke: #808080; stroke-opacity: 0.8"/>
    </g>
   </g>
   <g id="LineCollection_8">
    <path d="M 184.5 62.333821 
L 184.5 61.77666 
" clip-path="url(#p55ccd3e990)" style="fill: none; stroke: #ff8c00; stroke-opacity: 0.8; stroke-width: 1.5"/>
   </g>
   <g id="line2d_22">
    <g clip-path="url(#p55ccd3e990)">
     <use xlink:href="#m6622050bd4" x="184.5" y="62.333821" style="fill: #ff8c00; fill-opacity: 0.8; stroke: #ff8c00; stroke-opacity: 0.8"/>
    </g>
   </g>
   <g id="line2d_23">
    <g clip-path="url(#p55ccd3e990)">
     <use xlink:href="#m6622050bd4" x="184.5" y="61.77666" style="fill: #ff8c00; fill-opacity: 0.8; stroke: #ff8c00; stroke-opacity: 0.8"/>
    </g>
   </g>
   <g id="LineCollection_9">
    <path d="M 184.5 88.283533 
L 184.5 87.959776 
" clip-path="url(#p55ccd3e990)" style="fill: none; stroke: #ff1493; stroke-opacity: 0.8; stroke-width: 1.5"/>
   </g>
   <g id="line2d_24">
    <g clip-path="url(#p55ccd3e990)">
     <use xlink:href="#m4ccd4f1ac5" x="184.5" y="88.283533" style="fill: #ff1493; fill-opacity: 0.8; stroke: #ff1493; stroke-opacity: 0.8"/>
    </g>
   </g>
   <g id="line2d_25">
    <g clip-path="url(#p55ccd3e990)">
     <use xlink:href="#m4ccd4f1ac5" x="184.5" y="87.959776" style="fill: #ff1493; fill-opacity: 0.8; stroke: #ff1493; stroke-opacity: 0.8"/>
    </g>
   </g>
   <g id="LineCollection_10">
    <path d="M 247.909091 163.470631 
L 247.909091 163.467547 
" clip-path="url(#p55ccd3e990)" style="fill: none; stroke: #808080; stroke-opacity: 0.8; stroke-width: 1.5"/>
   </g>
   <g id="line2d_26">
    <g clip-path="url(#p55ccd3e990)">
     <use xlink:href="#mc7cbe7376d" x="247.909091" y="163.470631" style="fill: #808080; fill-opacity: 0.8; stroke: #808080; stroke-opacity: 0.8"/>
    </g>
   </g>
   <g id="line2d_27">
    <g clip-path="url(#p55ccd3e990)">
     <use xlink:href="#mc7cbe7376d" x="247.909091" y="163.467547" style="fill: #808080; fill-opacity: 0.8; stroke: #808080; stroke-opacity: 0.8"/>
    </g>
   </g>
   <g id="LineCollection_11">
    <path d="M 247.909091 109.293972 
L 247.909091 108.981865 
" clip-path="url(#p55ccd3e990)" style="fill: none; stroke: #ff8c00; stroke-opacity: 0.8; stroke-width: 1.5"/>
   </g>
   <g id="line2d_28">
    <g clip-path="url(#p55ccd3e990)">
     <use xlink:href="#m6622050bd4" x="247.909091" y="109.293972" style="fill: #ff8c00; fill-opacity: 0.8; stroke: #ff8c00; stroke-opacity: 0.8"/>
    </g>
   </g>
   <g id="line2d_29">
    <g clip-path="url(#p55ccd3e990)">
     <use xlink:href="#m6622050bd4" x="247.909091" y="108.981865" style="fill: #ff8c00; fill-opacity: 0.8; stroke: #ff8c00; stroke-opacity: 0.8"/>
    </g>
   </g>
   <g id="LineCollection_12">
    <path d="M 247.909091 88.744975 
L 247.909091 88.548444 
" clip-path="url(#p55ccd3e990)" style="fill: none; stroke: #ff1493; stroke-opacity: 0.8; stroke-width: 1.5"/>
   </g>
   <g id="line2d_30">
    <g clip-path="url(#p55ccd3e990)">
     <use xlink:href="#m4ccd4f1ac5" x="247.909091" y="88.744975" style="fill: #ff1493; fill-opacity: 0.8; stroke: #ff1493; stroke-opacity: 0.8"/>
    </g>
   </g>
   <g id="line2d_31">
    <g clip-path="url(#p55ccd3e990)">
     <use xlink:href="#m4ccd4f1ac5" x="247.909091" y="88.548444" style="fill: #ff1493; fill-opacity: 0.8; stroke: #ff1493; stroke-opacity: 0.8"/>
    </g>
   </g>
   <g id="LineCollection_13">
    <path d="M 311.318182 163.472727 
L 311.318182 163.469417 
" clip-path="url(#p55ccd3e990)" style="fill: none; stroke: #808080; stroke-opacity: 0.8; stroke-width: 1.5"/>
   </g>
   <g id="line2d_32">
    <g clip-path="url(#p55ccd3e990)">
     <use xlink:href="#mc7cbe7376d" x="311.318182" y="163.472727" style="fill: #808080; fill-opacity: 0.8; stroke: #808080; stroke-opacity: 0.8"/>
    </g>
   </g>
   <g id="line2d_33">
    <g clip-path="url(#p55ccd3e990)">
     <use xlink:href="#mc7cbe7376d" x="311.318182" y="163.469417" style="fill: #808080; fill-opacity: 0.8; stroke: #808080; stroke-opacity: 0.8"/>
    </g>
   </g>
   <g id="LineCollection_14">
    <path d="M 311.318182 163.301777 
L 311.318182 163.296572 
" clip-path="url(#p55ccd3e990)" style="fill: none; stroke: #ff8c00; stroke-opacity: 0.8; stroke-width: 1.5"/>
   </g>
   <g id="line2d_34">
    <g clip-path="url(#p55ccd3e990)">
     <use xlink:href="#m6622050bd4" x="311.318182" y="163.301777" style="fill: #ff8c00; fill-opacity: 0.8; stroke: #ff8c00; stroke-opacity: 0.8"/>
    </g>
   </g>
   <g id="line2d_35">
    <g clip-path="url(#p55ccd3e990)">
     <use xlink:href="#m6622050bd4" x="311.318182" y="163.296572" style="fill: #ff8c00; fill-opacity: 0.8; stroke: #ff8c00; stroke-opacity: 0.8"/>
    </g>
   </g>
   <g id="LineCollection_15">
    <path d="M 311.318182 88.710747 
L 311.318182 88.468558 
" clip-path="url(#p55ccd3e990)" style="fill: none; stroke: #ff1493; stroke-opacity: 0.8; stroke-width: 1.5"/>
   </g>
   <g id="line2d_36">
    <g clip-path="url(#p55ccd3e990)">
     <use xlink:href="#m4ccd4f1ac5" x="311.318182" y="88.710747" style="fill: #ff1493; fill-opacity: 0.8; stroke: #ff1493; stroke-opacity: 0.8"/>
    </g>
   </g>
   <g id="line2d_37">
    <g clip-path="url(#p55ccd3e990)">
     <use xlink:href="#m4ccd4f1ac5" x="311.318182" y="88.468558" style="fill: #ff1493; fill-opacity: 0.8; stroke: #ff1493; stroke-opacity: 0.8"/>
    </g>
   </g>
   <g id="line2d_38">
    <defs>
     <path id="m7e787f5dea" d="M 0 5 
C 1.326016 5 2.597899 4.473168 3.535534 3.535534 
C 4.473168 2.597899 5 1.326016 5 0 
C 5 -1.326016 4.473168 -2.597899 3.535534 -3.535534 
C 2.597899 -4.473168 1.326016 -5 0 -5 
C -1.326016 -5 -2.597899 -4.473168 -3.535534 -3.535534 
C -4.473168 -2.597899 -5 -1.326016 -5 0 
C -5 1.326016 -4.473168 2.597899 -3.535534 3.535534 
C -2.597899 4.473168 -1.326016 5 0 5 
z
" style="stroke: #808080; stroke-opacity: 0.8"/>
    </defs>
    <g clip-path="url(#p55ccd3e990)">
     <use xlink:href="#m7e787f5dea" x="57.681818" y="162.538971" style="fill-opacity: 0; stroke: #808080; stroke-opacity: 0.8"/>
    </g>
   </g>
   <g id="line2d_39">
    <defs>
     <path id="m4015666314" d="M 0 5 
C 1.326016 5 2.597899 4.473168 3.535534 3.535534 
C 4.473168 2.597899 5 1.326016 5 0 
C 5 -1.326016 4.473168 -2.597899 3.535534 -3.535534 
C 2.597899 -4.473168 1.326016 -5 0 -5 
C -1.326016 -5 -2.597899 -4.473168 -3.535534 -3.535534 
C -4.473168 -2.597899 -5 -1.326016 -5 0 
C -5 1.326016 -4.473168 2.597899 -3.535534 3.535534 
C -2.597899 4.473168 -1.326016 5 0 5 
z
" style="stroke: #ff8c00; stroke-opacity: 0.8"/>
    </defs>
    <g clip-path="url(#p55ccd3e990)">
     <use xlink:href="#m4015666314" x="57.681818" y="162.189006" style="fill-opacity: 0; stroke: #ff8c00; stroke-opacity: 0.8"/>
    </g>
   </g>
   <g id="line2d_40">
    <defs>
     <path id="m2fd2a2b482" d="M 0 5 
C 1.326016 5 2.597899 4.473168 3.535534 3.535534 
C 4.473168 2.597899 5 1.326016 5 0 
C 5 -1.326016 4.473168 -2.597899 3.535534 -3.535534 
C 2.597899 -4.473168 1.326016 -5 0 -5 
C -1.326016 -5 -2.597899 -4.473168 -3.535534 -3.535534 
C -4.473168 -2.597899 -5 -1.326016 -5 0 
C -5 1.326016 -4.473168 2.597899 -3.535534 3.535534 
C -2.597899 4.473168 -1.326016 5 0 5 
z
" style="stroke: #ff1493; stroke-opacity: 0.8"/>
    </defs>
    <g clip-path="url(#p55ccd3e990)">
     <use xlink:href="#m2fd2a2b482" x="57.681818" y="87.537747" style="fill-opacity: 0; stroke: #ff1493; stroke-opacity: 0.8"/>
    </g>
   </g>
   <g id="line2d_41">
    <g clip-path="url(#p55ccd3e990)">
     <use xlink:href="#m7e787f5dea" x="121.090909" y="163.30505" style="fill-opacity: 0; stroke: #808080; stroke-opacity: 0.8"/>
    </g>
   </g>
   <g id="line2d_42">
    <g clip-path="url(#p55ccd3e990)">
     <use xlink:href="#m4015666314" x="121.090909" y="49.231769" style="fill-opacity: 0; stroke: #ff8c00; stroke-opacity: 0.8"/>
    </g>
   </g>
   <g id="line2d_43">
    <g clip-path="url(#p55ccd3e990)">
     <use xlink:href="#m2fd2a2b482" x="121.090909" y="87.785314" style="fill-opacity: 0; stroke: #ff1493; stroke-opacity: 0.8"/>
    </g>
   </g>
   <g id="line2d_44">
    <g clip-path="url(#p55ccd3e990)">
     <use xlink:href="#m7e787f5dea" x="184.5" y="163.450641" style="fill-opacity: 0; stroke: #808080; stroke-opacity: 0.8"/>
    </g>
   </g>
   <g id="line2d_45">
    <g clip-path="url(#p55ccd3e990)">
     <use xlink:href="#m4015666314" x="184.5" y="62.055241" style="fill-opacity: 0; stroke: #ff8c00; stroke-opacity: 0.8"/>
    </g>
   </g>
   <g id="line2d_46">
    <g clip-path="url(#p55ccd3e990)">
     <use xlink:href="#m2fd2a2b482" x="184.5" y="88.121655" style="fill-opacity: 0; stroke: #ff1493; stroke-opacity: 0.8"/>
    </g>
   </g>
   <g id="line2d_47">
    <g clip-path="url(#p55ccd3e990)">
     <use xlink:href="#m7e787f5dea" x="247.909091" y="163.469089" style="fill-opacity: 0; stroke: #808080; stroke-opacity: 0.8"/>
    </g>
   </g>
   <g id="line2d_48">
    <g clip-path="url(#p55ccd3e990)">
     <use xlink:href="#m4015666314" x="247.909091" y="109.137919" style="fill-opacity: 0; stroke: #ff8c00; stroke-opacity: 0.8"/>
    </g>
   </g>
   <g id="line2d_49">
    <g clip-path="url(#p55ccd3e990)">
     <use xlink:href="#m2fd2a2b482" x="247.909091" y="88.64671" style="fill-opacity: 0; stroke: #ff1493; stroke-opacity: 0.8"/>
    </g>
   </g>
   <g id="line2d_50">
    <g clip-path="url(#p55ccd3e990)">
     <use xlink:href="#m7e787f5dea" x="311.318182" y="163.471072" style="fill-opacity: 0; stroke: #808080; stroke-opacity: 0.8"/>
    </g>
   </g>
   <g id="line2d_51">
    <g clip-path="url(#p55ccd3e990)">
     <use xlink:href="#m4015666314" x="311.318182" y="163.299175" style="fill-opacity: 0; stroke: #ff8c00; stroke-opacity: 0.8"/>
    </g>
   </g>
   <g id="line2d_52">
    <g clip-path="url(#p55ccd3e990)">
     <use xlink:href="#m2fd2a2b482" x="311.318182" y="88.589652" style="fill-opacity: 0; stroke: #ff1493; stroke-opacity: 0.8"/>
    </g>
   </g>
   <g id="patch_3">
    <path d="M 45 169.2 
L 45 43.2 
" style="fill: none; stroke: #000000; stroke-width: 0.8; stroke-linejoin: miter; stroke-linecap: square"/>
   </g>
   <g id="patch_4">
    <path d="M 324 169.2 
L 324 43.2 
" style="fill: none; stroke: #000000; stroke-width: 0.8; stroke-linejoin: miter; stroke-linecap: square"/>
   </g>
   <g id="patch_5">
    <path d="M 45 169.2 
L 324 169.2 
" style="fill: none; stroke: #000000; stroke-width: 0.8; stroke-linejoin: miter; stroke-linecap: square"/>
   </g>
   <g id="patch_6">
    <path d="M 45 43.2 
L 324 43.2 
" style="fill: none; stroke: #000000; stroke-width: 0.8; stroke-linejoin: miter; stroke-linecap: square"/>
   </g>
   <g id="text_4">
    <!-- $R = 0.1$ -->
    <g transform="translate(155.97 37.2) scale(0.18 -0.18)">
     <defs>
      <path id="Cmmi10-52" d="M 313 0 
Q 250 0 250 84 
Q 253 100 262 139 
Q 272 178 289 201 
Q 306 225 331 225 
Q 722 225 878 269 
Q 959 297 997 441 
L 1875 3956 
Q 1888 4019 1888 4044 
Q 1888 4113 1813 4122 
Q 1691 4147 1350 4147 
Q 1288 4147 1288 4231 
Q 1291 4247 1300 4286 
Q 1309 4325 1326 4348 
Q 1344 4372 1369 4372 
L 3309 4372 
Q 3541 4372 3791 4319 
Q 4041 4266 4250 4152 
Q 4459 4038 4593 3848 
Q 4728 3659 4728 3406 
Q 4728 3084 4515 2831 
Q 4303 2578 3978 2408 
Q 3653 2238 3347 2169 
Q 3597 2078 3756 1879 
Q 3916 1681 3916 1422 
Q 3916 1388 3914 1370 
Q 3913 1353 3909 1331 
L 3859 763 
Q 3853 638 3847 550 
Q 3841 463 3841 409 
Q 3841 234 3892 129 
Q 3944 25 4097 25 
Q 4297 25 4448 211 
Q 4600 397 4647 616 
Q 4675 672 4709 672 
L 4769 672 
Q 4831 672 4831 588 
Q 4784 403 4682 237 
Q 4581 72 4426 -34 
Q 4272 -141 4091 -141 
Q 3716 -141 3452 26 
Q 3188 194 3188 550 
Q 3188 684 3213 788 
L 3353 1356 
Q 3378 1434 3378 1538 
Q 3378 1803 3198 1954 
Q 3019 2106 2747 2106 
L 1959 2106 
L 1538 416 
Q 1522 363 1522 325 
Q 1522 259 1600 250 
Q 1722 225 2059 225 
Q 2125 225 2125 141 
Q 2103 50 2090 25 
Q 2078 0 2016 0 
L 313 0 
z
M 1997 2272 
L 2706 2272 
Q 3403 2272 3756 2625 
Q 3919 2788 4014 3039 
Q 4109 3291 4109 3541 
Q 4109 3778 3970 3912 
Q 3831 4047 3626 4097 
Q 3422 4147 3175 4147 
L 2747 4147 
Q 2572 4147 2515 4117 
Q 2459 4088 2413 3928 
L 1997 2272 
z
" transform="scale(0.015625)"/>
      <path id="Cmr10-3d" d="M 481 850 
Q 428 850 393 890 
Q 359 931 359 978 
Q 359 1031 393 1068 
Q 428 1106 481 1106 
L 4500 1106 
Q 4547 1106 4581 1068 
Q 4616 1031 4616 978 
Q 4616 931 4581 890 
Q 4547 850 4500 850 
L 481 850 
z
M 481 2094 
Q 428 2094 393 2131 
Q 359 2169 359 2222 
Q 359 2269 393 2309 
Q 428 2350 481 2350 
L 4500 2350 
Q 4547 2350 4581 2309 
Q 4616 2269 4616 2222 
Q 4616 2169 4581 2131 
Q 4547 2094 4500 2094 
L 481 2094 
z
" transform="scale(0.015625)"/>
      <path id="Cmr10-30" d="M 1600 -141 
Q 816 -141 533 504 
Q 250 1150 250 2041 
Q 250 2597 351 3087 
Q 453 3578 754 3920 
Q 1056 4263 1600 4263 
Q 2022 4263 2290 4056 
Q 2559 3850 2700 3523 
Q 2841 3197 2892 2823 
Q 2944 2450 2944 2041 
Q 2944 1491 2842 1011 
Q 2741 531 2444 195 
Q 2147 -141 1600 -141 
z
M 1600 25 
Q 1956 25 2131 390 
Q 2306 756 2347 1200 
Q 2388 1644 2388 2144 
Q 2388 2625 2347 3031 
Q 2306 3438 2132 3767 
Q 1959 4097 1600 4097 
Q 1238 4097 1063 3765 
Q 888 3434 847 3029 
Q 806 2625 806 2144 
Q 806 1788 823 1472 
Q 841 1156 916 820 
Q 991 484 1158 254 
Q 1325 25 1600 25 
z
" transform="scale(0.015625)"/>
      <path id="Cmmi10-3a" d="M 538 353 
Q 538 497 644 600 
Q 750 703 891 703 
Q 978 703 1062 656 
Q 1147 609 1194 525 
Q 1241 441 1241 353 
Q 1241 213 1137 106 
Q 1034 0 891 0 
Q 750 0 644 106 
Q 538 213 538 353 
z
" transform="scale(0.015625)"/>
      <path id="Cmr10-31" d="M 594 0 
L 594 225 
Q 1394 225 1394 428 
L 1394 3788 
Q 1063 3628 556 3628 
L 556 3853 
Q 1341 3853 1741 4263 
L 1831 4263 
Q 1853 4263 1873 4245 
Q 1894 4228 1894 4206 
L 1894 428 
Q 1894 225 2694 225 
L 2694 0 
L 594 0 
z
" transform="scale(0.015625)"/>
     </defs>
     <use xlink:href="#Cmmi10-52" transform="translate(0 0.6875)"/>
     <use xlink:href="#Cmr10-3d" transform="translate(93.4375 0.6875)"/>
     <use xlink:href="#Cmr10-30" transform="translate(188.681641 0.6875)"/>
     <use xlink:href="#Cmmi10-3a" transform="translate(238.681641 0.6875)"/>
     <use xlink:href="#Cmr10-31" transform="translate(266.367188 0.6875)"/>
    </g>
   </g>
   <g id="legend_1">
    <g id="patch_7">
     <path d="M 222.22 98.749375 
L 314.2 98.749375 
Q 317 98.749375 317 95.949375 
L 317 53 
Q 317 50.2 314.2 50.2 
L 222.22 50.2 
Q 219.42 50.2 219.42 53 
L 219.42 95.949375 
Q 219.42 98.749375 222.22 98.749375 
z
" style="fill: #ffffff; opacity: 0.9; stroke: #cccccc; stroke-linejoin: miter"/>
    </g>
    <g id="LineCollection_16">
     <path d="M 234.12 64.9 
L 234.12 50.9 
" style="fill: none; stroke: #808080; stroke-opacity: 0.8; stroke-width: 1.5"/>
    </g>
    <g id="line2d_53">
     <g>
      <use xlink:href="#mc7cbe7376d" x="234.12" y="64.9" style="fill: #808080; fill-opacity: 0.8; stroke: #808080; stroke-opacity: 0.8"/>
     </g>
    </g>
    <g id="line2d_54">
     <g>
      <use xlink:href="#mc7cbe7376d" x="234.12" y="50.9" style="fill: #808080; fill-opacity: 0.8; stroke: #808080; stroke-opacity: 0.8"/>
     </g>
    </g>
    <g id="line2d_55"/>
    <g id="line2d_56">
     <defs>
      <path id="m69c3cfd9c3" d="M 0 3.5 
C 0.928211 3.5 1.81853 3.131218 2.474874 2.474874 
C 3.131218 1.81853 3.5 0.928211 3.5 0 
C 3.5 -0.928211 3.131218 -1.81853 2.474874 -2.474874 
C 1.81853 -3.131218 0.928211 -3.5 0 -3.5 
C -0.928211 -3.5 -1.81853 -3.131218 -2.474874 -2.474874 
C -3.131218 -1.81853 -3.5 -0.928211 -3.5 0 
C -3.5 0.928211 -3.131218 1.81853 -2.474874 2.474874 
C -1.81853 3.131218 -0.928211 3.5 0 3.5 
z
" style="stroke: #808080; stroke-opacity: 0.8"/>
     </defs>
     <g>
      <use xlink:href="#m69c3cfd9c3" x="234.12" y="57.9" style="fill-opacity: 0; stroke: #808080; stroke-opacity: 0.8"/>
     </g>
    </g>
    <g id="text_5">
     <!-- $(N-1)m^2$ -->
     <g transform="translate(252.32 62.8) scale(0.14 -0.14)">
      <defs>
       <path id="Cmr10-28" d="M 1984 -1588 
Q 1628 -1306 1370 -942 
Q 1113 -578 948 -165 
Q 784 247 703 697 
Q 622 1147 622 1600 
Q 622 2059 703 2509 
Q 784 2959 951 3375 
Q 1119 3791 1378 4153 
Q 1638 4516 1984 4788 
Q 1984 4800 2016 4800 
L 2075 4800 
Q 2094 4800 2109 4783 
Q 2125 4766 2125 4744 
Q 2125 4716 2113 4703 
Q 1800 4397 1592 4047 
Q 1384 3697 1257 3301 
Q 1131 2906 1075 2482 
Q 1019 2059 1019 1600 
Q 1019 -434 2106 -1491 
Q 2125 -1509 2125 -1544 
Q 2125 -1559 2108 -1579 
Q 2091 -1600 2075 -1600 
L 2016 -1600 
Q 1984 -1600 1984 -1588 
z
" transform="scale(0.015625)"/>
       <path id="Cmmi10-4e" d="M 300 0 
Q 238 0 238 84 
Q 241 100 250 139 
Q 259 178 276 201 
Q 294 225 319 225 
Q 931 225 1031 616 
L 1900 4116 
Q 1722 4147 1338 4147 
Q 1275 4147 1275 4231 
Q 1278 4247 1287 4286 
Q 1297 4325 1314 4348 
Q 1331 4372 1356 4372 
L 2463 4372 
Q 2509 4372 2522 4331 
L 3944 947 
L 4653 3781 
Q 4666 3850 4666 3878 
Q 4666 4147 4172 4147 
Q 4109 4147 4109 4231 
Q 4131 4313 4143 4342 
Q 4156 4372 4219 4372 
L 5588 4372 
Q 5650 4372 5650 4288 
Q 5647 4272 5637 4233 
Q 5628 4194 5611 4170 
Q 5594 4147 5569 4147 
Q 4956 4147 4856 3756 
L 3938 56 
Q 3916 0 3872 0 
L 3794 0 
Q 3750 0 3738 44 
L 2106 3916 
L 2094 3956 
Q 2081 3969 2081 3975 
L 1234 588 
Q 1228 572 1225 548 
Q 1222 525 1216 494 
Q 1216 328 1359 276 
Q 1503 225 1716 225 
Q 1778 225 1778 141 
Q 1756 53 1740 26 
Q 1725 0 1672 0 
L 300 0 
z
" transform="scale(0.015625)"/>
       <path id="Cmsy10-a1" d="M 653 1472 
Q 600 1472 565 1512 
Q 531 1553 531 1600 
Q 531 1647 565 1687 
Q 600 1728 653 1728 
L 4325 1728 
Q 4375 1728 4408 1687 
Q 4441 1647 4441 1600 
Q 4441 1553 4408 1512 
Q 4375 1472 4325 1472 
L 653 1472 
z
" transform="scale(0.015625)"/>
       <path id="Cmr10-29" d="M 416 -1600 
Q 359 -1600 359 -1544 
Q 359 -1516 372 -1503 
Q 1466 -434 1466 1600 
Q 1466 3634 384 4691 
Q 359 4706 359 4744 
Q 359 4766 376 4783 
Q 394 4800 416 4800 
L 475 4800 
Q 494 4800 506 4788 
Q 966 4425 1272 3906 
Q 1578 3388 1720 2800 
Q 1863 2213 1863 1600 
Q 1863 1147 1786 708 
Q 1709 269 1542 -157 
Q 1375 -584 1119 -945 
Q 863 -1306 506 -1588 
Q 494 -1600 475 -1600 
L 416 -1600 
z
" transform="scale(0.015625)"/>
       <path id="Cmmi10-6d" d="M 494 109 
Q 494 147 500 166 
L 978 2075 
Q 1025 2253 1025 2388 
Q 1025 2663 838 2663 
Q 638 2663 541 2423 
Q 444 2184 353 1819 
Q 353 1800 334 1789 
Q 316 1778 300 1778 
L 225 1778 
Q 203 1778 187 1801 
Q 172 1825 172 1844 
Q 241 2122 305 2315 
Q 369 2509 505 2668 
Q 641 2828 844 2828 
Q 1084 2828 1268 2676 
Q 1453 2525 1453 2291 
Q 1644 2541 1900 2684 
Q 2156 2828 2444 2828 
Q 2747 2828 2967 2673 
Q 3188 2519 3188 2234 
Q 3384 2513 3648 2670 
Q 3913 2828 4225 2828 
Q 4556 2828 4757 2648 
Q 4959 2469 4959 2138 
Q 4959 1875 4842 1503 
Q 4725 1131 4550 672 
Q 4459 450 4459 288 
Q 4459 97 4609 97 
Q 4859 97 5025 365 
Q 5191 634 5259 941 
Q 5278 978 5313 978 
L 5388 978 
Q 5413 978 5430 961 
Q 5447 944 5447 922 
Q 5447 916 5441 903 
Q 5353 541 5136 234 
Q 4919 -72 4594 -72 
Q 4369 -72 4209 83 
Q 4050 238 4050 459 
Q 4050 572 4103 709 
Q 4284 1191 4404 1569 
Q 4525 1947 4525 2234 
Q 4525 2413 4453 2538 
Q 4381 2663 4213 2663 
Q 3863 2663 3606 2448 
Q 3350 2234 3163 1881 
Q 3150 1819 3144 1784 
L 2731 141 
Q 2709 53 2632 -9 
Q 2556 -72 2463 -72 
Q 2388 -72 2330 -22 
Q 2272 28 2272 109 
Q 2272 147 2278 166 
L 2688 1797 
Q 2753 2059 2753 2234 
Q 2753 2413 2679 2538 
Q 2606 2663 2431 2663 
Q 2197 2663 2000 2559 
Q 1803 2456 1656 2286 
Q 1509 2116 1388 1881 
L 953 141 
Q 931 53 854 -9 
Q 778 -72 684 -72 
Q 606 -72 550 -22 
Q 494 28 494 109 
z
" transform="scale(0.015625)"/>
       <path id="Cmr10-32" d="M 319 0 
L 319 172 
Q 319 188 331 206 
L 1325 1306 
Q 1550 1550 1690 1715 
Q 1831 1881 1968 2097 
Q 2106 2313 2186 2536 
Q 2266 2759 2266 3009 
Q 2266 3272 2169 3511 
Q 2072 3750 1880 3894 
Q 1688 4038 1416 4038 
Q 1138 4038 916 3870 
Q 694 3703 603 3438 
Q 628 3444 672 3444 
Q 816 3444 917 3347 
Q 1019 3250 1019 3097 
Q 1019 2950 917 2848 
Q 816 2747 672 2747 
Q 522 2747 420 2851 
Q 319 2956 319 3097 
Q 319 3338 409 3548 
Q 500 3759 670 3923 
Q 841 4088 1055 4175 
Q 1269 4263 1509 4263 
Q 1875 4263 2190 4108 
Q 2506 3953 2690 3670 
Q 2875 3388 2875 3009 
Q 2875 2731 2753 2481 
Q 2631 2231 2440 2026 
Q 2250 1822 1953 1562 
Q 1656 1303 1563 1216 
L 838 519 
L 1453 519 
Q 1906 519 2211 526 
Q 2516 534 2534 550 
Q 2609 631 2688 1141 
L 2875 1141 
L 2694 0 
L 319 0 
z
" transform="scale(0.015625)"/>
      </defs>
      <use xlink:href="#Cmr10-28" transform="translate(0 0.109375)"/>
      <use xlink:href="#Cmmi10-4e" transform="translate(38.818359 0.109375)"/>
      <use xlink:href="#Cmsy10-a1" transform="translate(136.699219 0.109375)"/>
      <use xlink:href="#Cmr10-31" transform="translate(231.943359 0.109375)"/>
      <use xlink:href="#Cmr10-29" transform="translate(281.943359 0.109375)"/>
      <use xlink:href="#Cmmi10-6d" transform="translate(320.761719 0.109375)"/>
      <use xlink:href="#Cmr10-32" transform="translate(414.857969 38.373438) scale(0.7)"/>
     </g>
    </g>
    <g id="LineCollection_17">
     <path d="M 234.12 80.437812 
L 234.12 66.437812 
" style="fill: none; stroke: #ff8c00; stroke-opacity: 0.8; stroke-width: 1.5"/>
    </g>
    <g id="line2d_57">
     <g>
      <use xlink:href="#m6622050bd4" x="234.12" y="80.437812" style="fill: #ff8c00; fill-opacity: 0.8; stroke: #ff8c00; stroke-opacity: 0.8"/>
     </g>
    </g>
    <g id="line2d_58">
     <g>
      <use xlink:href="#m6622050bd4" x="234.12" y="66.437812" style="fill: #ff8c00; fill-opacity: 0.8; stroke: #ff8c00; stroke-opacity: 0.8"/>
     </g>
    </g>
    <g id="line2d_59"/>
    <g id="line2d_60">
     <defs>
      <path id="m9d1eaffe02" d="M 0 3.5 
C 0.928211 3.5 1.81853 3.131218 2.474874 2.474874 
C 3.131218 1.81853 3.5 0.928211 3.5 0 
C 3.5 -0.928211 3.131218 -1.81853 2.474874 -2.474874 
C 1.81853 -3.131218 0.928211 -3.5 0 -3.5 
C -0.928211 -3.5 -1.81853 -3.131218 -2.474874 -2.474874 
C -3.131218 -1.81853 -3.5 -0.928211 -3.5 0 
C -3.5 0.928211 -3.131218 1.81853 -2.474874 2.474874 
C -1.81853 3.131218 -0.928211 3.5 0 3.5 
z
" style="stroke: #ff8c00; stroke-opacity: 0.8"/>
     </defs>
     <g>
      <use xlink:href="#m9d1eaffe02" x="234.12" y="73.437812" style="fill-opacity: 0; stroke: #ff8c00; stroke-opacity: 0.8"/>
     </g>
    </g>
    <g id="text_6">
     <!-- $v^2$ -->
     <g transform="translate(252.32 78.337812) scale(0.14 -0.14)">
      <defs>
       <path id="Cmmi10-76" d="M 684 722 
Q 684 866 718 1037 
Q 753 1209 787 1320 
Q 822 1431 944 1753 
Q 1066 2075 1069 2088 
Q 1153 2322 1153 2472 
Q 1153 2663 1013 2663 
Q 759 2663 595 2402 
Q 431 2141 353 1819 
Q 341 1778 300 1778 
L 225 1778 
Q 172 1778 172 1838 
L 172 1856 
Q 275 2238 487 2533 
Q 700 2828 1025 2828 
Q 1253 2828 1411 2678 
Q 1569 2528 1569 2297 
Q 1569 2178 1516 2047 
Q 1391 1722 1319 1526 
Q 1247 1331 1186 1089 
Q 1125 847 1125 641 
Q 1125 400 1236 248 
Q 1347 97 1581 97 
Q 2025 97 2381 781 
Q 2494 1003 2594 1303 
Q 2694 1603 2694 1791 
Q 2694 1984 2631 2092 
Q 2569 2200 2469 2317 
Q 2369 2434 2369 2503 
Q 2369 2628 2472 2731 
Q 2575 2834 2700 2834 
Q 2853 2834 2920 2693 
Q 2988 2553 2988 2375 
Q 2988 2163 2927 1869 
Q 2866 1575 2758 1259 
Q 2650 944 2559 763 
Q 2138 -72 1575 -72 
Q 1172 -72 928 129 
Q 684 331 684 722 
z
" transform="scale(0.015625)"/>
      </defs>
      <use xlink:href="#Cmmi10-76" transform="translate(0 0.109375)"/>
      <use xlink:href="#Cmr10-32" transform="translate(54.711641 38.373438) scale(0.7)"/>
     </g>
    </g>
    <g id="LineCollection_18">
     <path d="M 234.12 96.649375 
L 234.12 82.649375 
" style="fill: none; stroke: #ff1493; stroke-opacity: 0.8; stroke-width: 1.5"/>
    </g>
    <g id="line2d_61">
     <g>
      <use xlink:href="#m4ccd4f1ac5" x="234.12" y="96.649375" style="fill: #ff1493; fill-opacity: 0.8; stroke: #ff1493; stroke-opacity: 0.8"/>
     </g>
    </g>
    <g id="line2d_62">
     <g>
      <use xlink:href="#m4ccd4f1ac5" x="234.12" y="82.649375" style="fill: #ff1493; fill-opacity: 0.8; stroke: #ff1493; stroke-opacity: 0.8"/>
     </g>
    </g>
    <g id="line2d_63"/>
    <g id="line2d_64">
     <defs>
      <path id="m55144a955e" d="M 0 3.5 
C 0.928211 3.5 1.81853 3.131218 2.474874 2.474874 
C 3.131218 1.81853 3.5 0.928211 3.5 0 
C 3.5 -0.928211 3.131218 -1.81853 2.474874 -2.474874 
C 1.81853 -3.131218 0.928211 -3.5 0 -3.5 
C -0.928211 -3.5 -1.81853 -3.131218 -2.474874 -2.474874 
C -3.131218 -1.81853 -3.5 -0.928211 -3.5 0 
C -3.5 0.928211 -3.131218 1.81853 -2.474874 2.474874 
C -1.81853 3.131218 -0.928211 3.5 0 3.5 
z
" style="stroke: #ff1493; stroke-opacity: 0.8"/>
     </defs>
     <g>
      <use xlink:href="#m55144a955e" x="234.12" y="89.649375" style="fill-opacity: 0; stroke: #ff1493; stroke-opacity: 0.8"/>
     </g>
    </g>
    <g id="text_7">
     <!-- $(N-1)s^2$ -->
     <g transform="translate(252.32 94.549375) scale(0.14 -0.14)">
      <defs>
       <path id="Cmmi10-73" d="M 556 391 
Q 728 97 1247 97 
Q 1472 97 1675 173 
Q 1878 250 2011 403 
Q 2144 556 2144 775 
Q 2144 941 2025 1047 
Q 1906 1153 1734 1191 
L 1388 1259 
Q 1150 1319 997 1481 
Q 844 1644 844 1875 
Q 844 2159 998 2378 
Q 1153 2597 1406 2712 
Q 1659 2828 1931 2828 
Q 2222 2828 2451 2689 
Q 2681 2550 2681 2278 
Q 2681 2131 2598 2018 
Q 2516 1906 2369 1906 
Q 2284 1906 2223 1961 
Q 2163 2016 2163 2100 
Q 2163 2175 2205 2245 
Q 2247 2316 2317 2358 
Q 2388 2400 2463 2400 
Q 2406 2538 2251 2600 
Q 2097 2663 1919 2663 
Q 1756 2663 1593 2597 
Q 1431 2531 1332 2404 
Q 1234 2278 1234 2106 
Q 1234 1991 1315 1903 
Q 1397 1816 1516 1778 
L 1888 1703 
Q 2066 1666 2214 1570 
Q 2363 1475 2448 1329 
Q 2534 1184 2534 997 
Q 2534 759 2401 528 
Q 2269 297 2075 159 
Q 1734 -72 1241 -72 
Q 900 -72 615 84 
Q 331 241 331 550 
Q 331 725 432 854 
Q 534 984 709 984 
Q 813 984 883 921 
Q 953 859 953 756 
Q 953 609 843 500 
Q 734 391 588 391 
L 556 391 
z
" transform="scale(0.015625)"/>
      </defs>
      <use xlink:href="#Cmr10-28" transform="translate(0 0.109375)"/>
      <use xlink:href="#Cmmi10-4e" transform="translate(38.818359 0.109375)"/>
      <use xlink:href="#Cmsy10-a1" transform="translate(136.699219 0.109375)"/>
      <use xlink:href="#Cmr10-31" transform="translate(231.943359 0.109375)"/>
      <use xlink:href="#Cmr10-29" transform="translate(281.943359 0.109375)"/>
      <use xlink:href="#Cmmi10-73" transform="translate(320.761719 0.109375)"/>
      <use xlink:href="#Cmr10-32" transform="translate(373.842344 38.373438) scale(0.7)"/>
     </g>
    </g>
   </g>
  </g>
  <g id="axes_2">
   <g id="patch_8">
    <path d="M 45 320.4 
L 324 320.4 
L 324 194.4 
L 45 194.4 
z
" style="fill: #ffffff"/>
   </g>
   <g id="matplotlib.axis_3">
    <g id="xtick_6">
     <g id="line2d_65">
      <g>
       <use xlink:href="#m10e9c49321" x="57.681818" y="320.4" style="stroke: #000000; stroke-width: 0.8"/>
      </g>
     </g>
     <g id="text_8">
      <!-- LIF -->
      <g transform="translate(43.658068 336.0575) scale(0.16 -0.16)">
       <defs>
        <path id="DejaVuSerif-4c" d="M 353 0 
L 353 331 
L 947 331 
L 947 4331 
L 353 4331 
L 353 4666 
L 2175 4666 
L 2175 4331 
L 1581 4331 
L 1581 384 
L 3713 384 
L 3713 1166 
L 4097 1166 
L 4097 0 
L 353 0 
z
" transform="scale(0.015625)"/>
        <path id="DejaVuSerif-49" d="M 1581 331 
L 2175 331 
L 2175 0 
L 353 0 
L 353 331 
L 947 331 
L 947 4331 
L 353 4331 
L 353 4666 
L 2175 4666 
L 2175 4331 
L 1581 4331 
L 1581 331 
z
" transform="scale(0.015625)"/>
        <path id="DejaVuSerif-46" d="M 353 0 
L 353 331 
L 947 331 
L 947 4331 
L 353 4331 
L 353 4666 
L 4172 4666 
L 4172 3628 
L 3788 3628 
L 3788 4281 
L 1581 4281 
L 1581 2719 
L 3175 2719 
L 3175 3303 
L 3559 3303 
L 3559 1753 
L 3175 1753 
L 3175 2338 
L 1581 2338 
L 1581 331 
L 2328 331 
L 2328 0 
L 353 0 
z
" transform="scale(0.015625)"/>
       </defs>
       <use xlink:href="#DejaVuSerif-4c"/>
       <use xlink:href="#DejaVuSerif-49" transform="translate(66.40625 0)"/>
       <use xlink:href="#DejaVuSerif-46" transform="translate(105.908203 0)"/>
      </g>
     </g>
    </g>
    <g id="xtick_7">
     <g id="line2d_66">
      <g>
       <use xlink:href="#m10e9c49321" x="121.090909" y="320.4" style="stroke: #000000; stroke-width: 0.8"/>
      </g>
     </g>
     <g id="text_9">
      <!-- 0.25 -->
      <g transform="translate(103.278409 336.0575) scale(0.16 -0.16)">
       <defs>
        <path id="DejaVuSerif-32" d="M 819 3553 
L 469 3553 
L 469 4384 
Q 803 4563 1142 4656 
Q 1481 4750 1806 4750 
Q 2534 4750 2956 4397 
Q 3378 4044 3378 3438 
Q 3378 2753 2422 1800 
Q 2347 1728 2309 1691 
L 1131 513 
L 3078 513 
L 3078 1088 
L 3444 1088 
L 3444 0 
L 434 0 
L 434 341 
L 1850 1753 
Q 2319 2222 2519 2614 
Q 2719 3006 2719 3438 
Q 2719 3909 2473 4175 
Q 2228 4441 1797 4441 
Q 1350 4441 1106 4219 
Q 863 3997 819 3553 
z
" transform="scale(0.015625)"/>
        <path id="DejaVuSerif-35" d="M 3219 4666 
L 3219 4153 
L 1081 4153 
L 1081 2816 
Q 1244 2928 1461 2984 
Q 1678 3041 1947 3041 
Q 2703 3041 3140 2622 
Q 3578 2203 3578 1478 
Q 3578 738 3136 323 
Q 2694 -91 1894 -91 
Q 1572 -91 1234 -12 
Q 897 66 544 225 
L 544 1131 
L 897 1131 
Q 925 688 1179 453 
Q 1434 219 1894 219 
Q 2388 219 2653 544 
Q 2919 869 2919 1478 
Q 2919 2084 2655 2407 
Q 2391 2731 1894 2731 
Q 1613 2731 1398 2631 
Q 1184 2531 1019 2322 
L 750 2322 
L 750 4666 
L 3219 4666 
z
" transform="scale(0.015625)"/>
       </defs>
       <use xlink:href="#DejaVuSerif-30"/>
       <use xlink:href="#DejaVuSerif-2e" transform="translate(63.623047 0)"/>
       <use xlink:href="#DejaVuSerif-32" transform="translate(95.410156 0)"/>
       <use xlink:href="#DejaVuSerif-35" transform="translate(159.033203 0)"/>
      </g>
     </g>
    </g>
    <g id="xtick_8">
     <g id="line2d_67">
      <g>
       <use xlink:href="#m10e9c49321" x="184.5" y="320.4" style="stroke: #000000; stroke-width: 0.8"/>
      </g>
     </g>
     <g id="text_10">
      <!-- 0.5 -->
      <g transform="translate(171.7775 336.0575) scale(0.16 -0.16)">
       <use xlink:href="#DejaVuSerif-30"/>
       <use xlink:href="#DejaVuSerif-2e" transform="translate(63.623047 0)"/>
       <use xlink:href="#DejaVuSerif-35" transform="translate(95.410156 0)"/>
      </g>
     </g>
    </g>
    <g id="xtick_9">
     <g id="line2d_68">
      <g>
       <use xlink:href="#m10e9c49321" x="247.909091" y="320.4" style="stroke: #000000; stroke-width: 0.8"/>
      </g>
     </g>
     <g id="text_11">
      <!-- 0.75 -->
      <g transform="translate(230.096591 336.0575) scale(0.16 -0.16)">
       <defs>
        <path id="DejaVuSerif-37" d="M 3609 4347 
L 1784 0 
L 1319 0 
L 3059 4153 
L 903 4153 
L 903 3578 
L 538 3578 
L 538 4666 
L 3609 4666 
L 3609 4347 
z
" transform="scale(0.015625)"/>
       </defs>
       <use xlink:href="#DejaVuSerif-30"/>
       <use xlink:href="#DejaVuSerif-2e" transform="translate(63.623047 0)"/>
       <use xlink:href="#DejaVuSerif-37" transform="translate(95.410156 0)"/>
       <use xlink:href="#DejaVuSerif-35" transform="translate(159.033203 0)"/>
      </g>
     </g>
    </g>
    <g id="xtick_10">
     <g id="line2d_69">
      <g>
       <use xlink:href="#m10e9c49321" x="311.318182" y="320.4" style="stroke: #000000; stroke-width: 0.8"/>
      </g>
     </g>
     <g id="text_12">
      <!-- QIF -->
      <g transform="translate(296.048182 336.0575) scale(0.16 -0.16)">
       <defs>
        <path id="DejaVuSerif-51" d="M 2700 -91 
Q 1628 -91 993 567 
Q 359 1225 359 2328 
Q 359 2894 529 3339 
Q 700 3784 1050 4134 
Q 1356 4441 1750 4595 
Q 2144 4750 2625 4750 
Q 3641 4750 4266 4084 
Q 4891 3419 4891 2328 
Q 4891 1403 4422 773 
Q 3953 144 3128 -38 
Q 3297 -247 3539 -347 
Q 3781 -447 4122 -447 
L 4219 -447 
L 4219 -1025 
Q 3691 -1000 3314 -767 
Q 2938 -534 2700 -91 
z
M 2625 244 
Q 3391 244 3781 770 
Q 4172 1297 4172 2328 
Q 4172 3363 3781 3889 
Q 3391 4416 2625 4416 
Q 1856 4416 1465 3889 
Q 1075 3363 1075 2328 
Q 1075 1297 1465 770 
Q 1856 244 2625 244 
z
" transform="scale(0.015625)"/>
       </defs>
       <use xlink:href="#DejaVuSerif-51"/>
       <use xlink:href="#DejaVuSerif-49" transform="translate(81.982422 0)"/>
       <use xlink:href="#DejaVuSerif-46" transform="translate(121.484375 0)"/>
      </g>
     </g>
    </g>
    <g id="text_13">
     <!-- $p_{QIF}$ -->
     <g transform="translate(167.58 355.225625) scale(0.18 -0.18)">
      <defs>
       <path id="Cmmi10-70" d="M -159 -1241 
Q -219 -1241 -219 -1159 
Q -197 -1019 -134 -1019 
Q 66 -1019 145 -983 
Q 225 -947 269 -800 
L 991 2081 
Q 1038 2200 1038 2388 
Q 1038 2663 850 2663 
Q 650 2663 553 2423 
Q 456 2184 366 1819 
Q 366 1778 313 1778 
L 238 1778 
Q 222 1778 203 1801 
Q 184 1825 184 1844 
Q 253 2122 317 2315 
Q 381 2509 517 2668 
Q 653 2828 856 2828 
Q 1075 2828 1240 2704 
Q 1406 2581 1453 2369 
Q 1628 2572 1840 2700 
Q 2053 2828 2278 2828 
Q 2547 2828 2745 2684 
Q 2944 2541 3044 2308 
Q 3144 2075 3144 1806 
Q 3144 1394 2933 953 
Q 2722 513 2361 220 
Q 2000 -72 1588 -72 
Q 1400 -72 1248 34 
Q 1097 141 1013 313 
L 722 -825 
Q 706 -919 703 -934 
Q 703 -1019 1125 -1019 
Q 1191 -1019 1191 -1100 
Q 1169 -1184 1155 -1212 
Q 1141 -1241 1081 -1241 
L -159 -1241 
z
M 1594 97 
Q 1816 97 2006 280 
Q 2197 463 2316 691 
Q 2403 863 2479 1111 
Q 2556 1359 2612 1640 
Q 2669 1922 2669 2088 
Q 2669 2234 2630 2362 
Q 2591 2491 2502 2577 
Q 2413 2663 2266 2663 
Q 2031 2663 1823 2495 
Q 1616 2328 1447 2081 
L 1447 2059 
L 1094 647 
Q 1138 419 1263 258 
Q 1388 97 1594 97 
z
" transform="scale(0.015625)"/>
       <path id="Cmmi10-51" d="M 1947 -141 
Q 1466 -141 1094 79 
Q 722 300 520 692 
Q 319 1084 319 1563 
Q 319 2259 714 2950 
Q 1109 3641 1756 4077 
Q 2403 4513 3109 4513 
Q 3475 4513 3778 4381 
Q 4081 4250 4290 4017 
Q 4500 3784 4614 3471 
Q 4728 3159 4728 2791 
Q 4728 2366 4581 1936 
Q 4434 1506 4171 1136 
Q 3909 766 3559 484 
Q 3209 203 2809 38 
Q 2850 -256 2934 -425 
Q 3019 -594 3256 -594 
Q 3506 -594 3726 -412 
Q 3947 -231 4006 13 
Q 4019 72 4078 72 
Q 4147 72 4147 -13 
Q 4100 -219 4008 -430 
Q 3916 -641 3786 -823 
Q 3656 -1006 3478 -1123 
Q 3300 -1241 3084 -1241 
Q 2547 -1241 2547 -550 
Q 2547 -509 2562 -332 
Q 2578 -156 2578 -44 
Q 2269 -141 1947 -141 
z
M 1709 300 
Q 1709 44 1991 44 
Q 2275 44 2591 184 
L 2591 244 
Q 2591 503 2509 648 
Q 2428 794 2194 794 
Q 2078 794 1964 723 
Q 1850 653 1779 539 
Q 1709 425 1709 300 
z
M 1544 288 
Q 1544 456 1637 612 
Q 1731 769 1881 864 
Q 2031 959 2203 959 
Q 2481 959 2607 771 
Q 2734 584 2778 281 
Q 3188 525 3500 978 
Q 3813 1431 3977 1973 
Q 4141 2516 4141 3003 
Q 4141 3356 4023 3656 
Q 3906 3956 3664 4140 
Q 3422 4325 3066 4325 
Q 2722 4325 2403 4156 
Q 2084 3988 1813 3706 
Q 1550 3434 1342 3032 
Q 1134 2631 1021 2193 
Q 909 1756 909 1356 
Q 909 947 1068 612 
Q 1228 278 1569 128 
Q 1544 194 1544 288 
z
" transform="scale(0.015625)"/>
       <path id="Cmmi10-49" d="M 269 0 
Q 206 0 206 84 
Q 231 225 288 225 
Q 666 225 800 250 
Q 947 284 984 441 
L 1863 3956 
Q 1875 4019 1875 4038 
Q 1875 4078 1854 4095 
Q 1834 4113 1791 4122 
Q 1663 4147 1306 4147 
Q 1241 4147 1241 4231 
Q 1263 4313 1275 4342 
Q 1288 4372 1350 4372 
L 3138 4372 
Q 3200 4372 3200 4288 
Q 3197 4272 3187 4234 
Q 3178 4197 3162 4172 
Q 3147 4147 3116 4147 
Q 2741 4147 2597 4122 
Q 2456 4088 2419 3928 
L 1544 416 
Q 1528 338 1528 331 
Q 1528 316 1533 302 
Q 1538 288 1552 277 
Q 1566 266 1580 261 
Q 1594 256 1613 250 
Q 1734 225 2100 225 
Q 2163 225 2163 141 
Q 2141 50 2128 25 
Q 2116 0 2053 0 
L 269 0 
z
" transform="scale(0.015625)"/>
       <path id="Cmmi10-46" d="M 300 0 
Q 238 0 238 84 
Q 241 100 250 139 
Q 259 178 276 201 
Q 294 225 319 225 
Q 709 225 863 269 
Q 947 297 984 441 
L 1863 3956 
Q 1875 4019 1875 4044 
Q 1875 4113 1797 4122 
Q 1678 4147 1338 4147 
Q 1275 4147 1275 4231 
Q 1278 4247 1287 4286 
Q 1297 4325 1314 4348 
Q 1331 4372 1356 4372 
L 4738 4372 
Q 4800 4372 4800 4288 
L 4647 2963 
Q 4647 2944 4625 2925 
Q 4603 2906 4581 2906 
L 4525 2906 
Q 4459 2906 4459 2988 
Q 4500 3278 4500 3463 
Q 4500 3781 4362 3931 
Q 4225 4081 4015 4114 
Q 3806 4147 3438 4147 
L 2753 4147 
Q 2578 4147 2522 4117 
Q 2466 4088 2419 3928 
L 2009 2297 
L 2491 2297 
Q 2728 2297 2875 2322 
Q 3022 2347 3119 2419 
Q 3216 2491 3280 2627 
Q 3344 2763 3397 2988 
Q 3416 3047 3463 3047 
L 3519 3047 
Q 3584 3047 3584 2963 
L 3194 1381 
Q 3166 1325 3128 1325 
L 3072 1325 
Q 3009 1325 3009 1409 
Q 3025 1475 3034 1519 
Q 3044 1563 3058 1645 
Q 3072 1728 3072 1791 
Q 3072 1975 2909 2025 
Q 2747 2075 2484 2075 
L 1959 2075 
L 1544 416 
Q 1528 353 1528 353 
Q 1528 278 1575 269 
Q 1741 225 2228 225 
Q 2291 225 2291 141 
Q 2269 50 2256 25 
Q 2244 0 2181 0 
L 300 0 
z
" transform="scale(0.015625)"/>
      </defs>
      <use xlink:href="#Cmmi10-70" transform="translate(0 0.8125)"/>
      <use xlink:href="#Cmmi10-51" transform="translate(50.292969 -16.19375) scale(0.7)"/>
      <use xlink:href="#Cmmi10-49" transform="translate(105.595703 -16.19375) scale(0.7)"/>
      <use xlink:href="#Cmmi10-46" transform="translate(136.323242 -16.19375) scale(0.7)"/>
     </g>
    </g>
   </g>
   <g id="matplotlib.axis_4">
    <g id="ytick_3">
     <g id="line2d_70">
      <g>
       <use xlink:href="#mc365c7c378" x="45" y="314.825183" style="stroke: #000000; stroke-width: 0.8"/>
      </g>
     </g>
     <g id="text_14">
      <!-- 0 -->
      <g transform="translate(31.32 320.903933) scale(0.16 -0.16)">
       <use xlink:href="#DejaVuSerif-30"/>
      </g>
     </g>
    </g>
    <g id="ytick_4">
     <g id="line2d_71">
      <g>
       <use xlink:href="#mc365c7c378" x="45" y="260.192906" style="stroke: #000000; stroke-width: 0.8"/>
      </g>
     </g>
     <g id="text_15">
      <!-- 20 -->
      <g transform="translate(21.14 266.271656) scale(0.16 -0.16)">
       <use xlink:href="#DejaVuSerif-32"/>
       <use xlink:href="#DejaVuSerif-30" transform="translate(63.623047 0)"/>
      </g>
     </g>
    </g>
    <g id="ytick_5">
     <g id="line2d_72">
      <g>
       <use xlink:href="#mc365c7c378" x="45" y="205.560629" style="stroke: #000000; stroke-width: 0.8"/>
      </g>
     </g>
     <g id="text_16">
      <!-- 40 -->
      <g transform="translate(21.14 211.639379) scale(0.16 -0.16)">
       <defs>
        <path id="DejaVuSerif-34" d="M 2234 1581 
L 2234 4063 
L 641 1581 
L 2234 1581 
z
M 3609 0 
L 1484 0 
L 1484 331 
L 2234 331 
L 2234 1247 
L 197 1247 
L 197 1588 
L 2241 4750 
L 2859 4750 
L 2859 1581 
L 3750 1581 
L 3750 1247 
L 2859 1247 
L 2859 331 
L 3609 331 
L 3609 0 
z
" transform="scale(0.015625)"/>
       </defs>
       <use xlink:href="#DejaVuSerif-34"/>
       <use xlink:href="#DejaVuSerif-30" transform="translate(63.623047 0)"/>
      </g>
     </g>
    </g>
    <g id="text_17">
     <!-- Value -->
     <g transform="translate(13.396563 282.446719) rotate(-90) scale(0.18 -0.18)">
      <use xlink:href="#DejaVuSerif-56"/>
      <use xlink:href="#DejaVuSerif-61" transform="translate(63.091797 0)"/>
      <use xlink:href="#DejaVuSerif-6c" transform="translate(122.710938 0)"/>
      <use xlink:href="#DejaVuSerif-75" transform="translate(154.693359 0)"/>
      <use xlink:href="#DejaVuSerif-65" transform="translate(219.097656 0)"/>
     </g>
    </g>
   </g>
   <g id="LineCollection_19">
    <path d="M 57.681818 314.672474 
L 57.681818 314.592304 
" clip-path="url(#p151b1f4a1c)" style="fill: none; stroke: #808080; stroke-opacity: 0.8; stroke-width: 1.5"/>
   </g>
   <g id="line2d_73">
    <g clip-path="url(#p151b1f4a1c)">
     <use xlink:href="#mc7cbe7376d" x="57.681818" y="314.672474" style="fill: #808080; fill-opacity: 0.8; stroke: #808080; stroke-opacity: 0.8"/>
    </g>
   </g>
   <g id="line2d_74">
    <g clip-path="url(#p151b1f4a1c)">
     <use xlink:href="#mc7cbe7376d" x="57.681818" y="314.592304" style="fill: #808080; fill-opacity: 0.8; stroke: #808080; stroke-opacity: 0.8"/>
    </g>
   </g>
   <g id="LineCollection_20">
    <path d="M 57.681818 313.254815 
L 57.681818 312.663454 
" clip-path="url(#p151b1f4a1c)" style="fill: none; stroke: #ff8c00; stroke-opacity: 0.8; stroke-width: 1.5"/>
   </g>
   <g id="line2d_75">
    <g clip-path="url(#p151b1f4a1c)">
     <use xlink:href="#m6622050bd4" x="57.681818" y="313.254815" style="fill: #ff8c00; fill-opacity: 0.8; stroke: #ff8c00; stroke-opacity: 0.8"/>
    </g>
   </g>
   <g id="line2d_76">
    <g clip-path="url(#p151b1f4a1c)">
     <use xlink:href="#m6622050bd4" x="57.681818" y="312.663454" style="fill: #ff8c00; fill-opacity: 0.8; stroke: #ff8c00; stroke-opacity: 0.8"/>
    </g>
   </g>
   <g id="LineCollection_21">
    <path d="M 57.681818 225.433735 
L 57.681818 200.127273 
" clip-path="url(#p151b1f4a1c)" style="fill: none; stroke: #ff1493; stroke-opacity: 0.8; stroke-width: 1.5"/>
   </g>
   <g id="line2d_77">
    <g clip-path="url(#p151b1f4a1c)">
     <use xlink:href="#m4ccd4f1ac5" x="57.681818" y="225.433735" style="fill: #ff1493; fill-opacity: 0.8; stroke: #ff1493; stroke-opacity: 0.8"/>
    </g>
   </g>
   <g id="line2d_78">
    <g clip-path="url(#p151b1f4a1c)">
     <use xlink:href="#m4ccd4f1ac5" x="57.681818" y="200.127273" style="fill: #ff1493; fill-opacity: 0.8; stroke: #ff1493; stroke-opacity: 0.8"/>
    </g>
   </g>
   <g id="LineCollection_22">
    <path d="M 121.090909 314.672727 
L 121.090909 314.551657 
" clip-path="url(#p151b1f4a1c)" style="fill: none; stroke: #808080; stroke-opacity: 0.8; stroke-width: 1.5"/>
   </g>
   <g id="line2d_79">
    <g clip-path="url(#p151b1f4a1c)">
     <use xlink:href="#mc7cbe7376d" x="121.090909" y="314.672727" style="fill: #808080; fill-opacity: 0.8; stroke: #808080; stroke-opacity: 0.8"/>
    </g>
   </g>
   <g id="line2d_80">
    <g clip-path="url(#p151b1f4a1c)">
     <use xlink:href="#mc7cbe7376d" x="121.090909" y="314.551657" style="fill: #808080; fill-opacity: 0.8; stroke: #808080; stroke-opacity: 0.8"/>
    </g>
   </g>
   <g id="LineCollection_23">
    <path d="M 121.090909 313.473878 
L 121.090909 312.734452 
" clip-path="url(#p151b1f4a1c)" style="fill: none; stroke: #ff8c00; stroke-opacity: 0.8; stroke-width: 1.5"/>
   </g>
   <g id="line2d_81">
    <g clip-path="url(#p151b1f4a1c)">
     <use xlink:href="#m6622050bd4" x="121.090909" y="313.473878" style="fill: #ff8c00; fill-opacity: 0.8; stroke: #ff8c00; stroke-opacity: 0.8"/>
    </g>
   </g>
   <g id="line2d_82">
    <g clip-path="url(#p151b1f4a1c)">
     <use xlink:href="#m6622050bd4" x="121.090909" y="312.734452" style="fill: #ff8c00; fill-opacity: 0.8; stroke: #ff8c00; stroke-opacity: 0.8"/>
    </g>
   </g>
   <g id="LineCollection_24">
    <path d="M 121.090909 249.802371 
L 121.090909 237.264859 
" clip-path="url(#p151b1f4a1c)" style="fill: none; stroke: #ff1493; stroke-opacity: 0.8; stroke-width: 1.5"/>
   </g>
   <g id="line2d_83">
    <g clip-path="url(#p151b1f4a1c)">
     <use xlink:href="#m4ccd4f1ac5" x="121.090909" y="249.802371" style="fill: #ff1493; fill-opacity: 0.8; stroke: #ff1493; stroke-opacity: 0.8"/>
    </g>
   </g>
   <g id="line2d_84">
    <g clip-path="url(#p151b1f4a1c)">
     <use xlink:href="#m4ccd4f1ac5" x="121.090909" y="237.264859" style="fill: #ff1493; fill-opacity: 0.8; stroke: #ff1493; stroke-opacity: 0.8"/>
    </g>
   </g>
   <g id="LineCollection_25">
    <path d="M 184.5 314.262378 
L 184.5 313.482191 
" clip-path="url(#p151b1f4a1c)" style="fill: none; stroke: #808080; stroke-opacity: 0.8; stroke-width: 1.5"/>
   </g>
   <g id="line2d_85">
    <g clip-path="url(#p151b1f4a1c)">
     <use xlink:href="#mc7cbe7376d" x="184.5" y="314.262378" style="fill: #808080; fill-opacity: 0.8; stroke: #808080; stroke-opacity: 0.8"/>
    </g>
   </g>
   <g id="line2d_86">
    <g clip-path="url(#p151b1f4a1c)">
     <use xlink:href="#mc7cbe7376d" x="184.5" y="313.482191" style="fill: #808080; fill-opacity: 0.8; stroke: #808080; stroke-opacity: 0.8"/>
    </g>
   </g>
   <g id="LineCollection_26">
    <path d="M 184.5 313.473966 
L 184.5 312.869291 
" clip-path="url(#p151b1f4a1c)" style="fill: none; stroke: #ff8c00; stroke-opacity: 0.8; stroke-width: 1.5"/>
   </g>
   <g id="line2d_87">
    <g clip-path="url(#p151b1f4a1c)">
     <use xlink:href="#m6622050bd4" x="184.5" y="313.473966" style="fill: #ff8c00; fill-opacity: 0.8; stroke: #ff8c00; stroke-opacity: 0.8"/>
    </g>
   </g>
   <g id="line2d_88">
    <g clip-path="url(#p151b1f4a1c)">
     <use xlink:href="#m6622050bd4" x="184.5" y="312.869291" style="fill: #ff8c00; fill-opacity: 0.8; stroke: #ff8c00; stroke-opacity: 0.8"/>
    </g>
   </g>
   <g id="LineCollection_27">
    <path d="M 184.5 250.297796 
L 184.5 238.328679 
" clip-path="url(#p151b1f4a1c)" style="fill: none; stroke: #ff1493; stroke-opacity: 0.8; stroke-width: 1.5"/>
   </g>
   <g id="line2d_89">
    <g clip-path="url(#p151b1f4a1c)">
     <use xlink:href="#m4ccd4f1ac5" x="184.5" y="250.297796" style="fill: #ff1493; fill-opacity: 0.8; stroke: #ff1493; stroke-opacity: 0.8"/>
    </g>
   </g>
   <g id="line2d_90">
    <g clip-path="url(#p151b1f4a1c)">
     <use xlink:href="#m4ccd4f1ac5" x="184.5" y="238.328679" style="fill: #ff1493; fill-opacity: 0.8; stroke: #ff1493; stroke-opacity: 0.8"/>
    </g>
   </g>
   <g id="LineCollection_28">
    <path d="M 247.909091 312.466873 
L 247.909091 309.37378 
" clip-path="url(#p151b1f4a1c)" style="fill: none; stroke: #808080; stroke-opacity: 0.8; stroke-width: 1.5"/>
   </g>
   <g id="line2d_91">
    <g clip-path="url(#p151b1f4a1c)">
     <use xlink:href="#mc7cbe7376d" x="247.909091" y="312.466873" style="fill: #808080; fill-opacity: 0.8; stroke: #808080; stroke-opacity: 0.8"/>
    </g>
   </g>
   <g id="line2d_92">
    <g clip-path="url(#p151b1f4a1c)">
     <use xlink:href="#mc7cbe7376d" x="247.909091" y="309.37378" style="fill: #808080; fill-opacity: 0.8; stroke: #808080; stroke-opacity: 0.8"/>
    </g>
   </g>
   <g id="LineCollection_29">
    <path d="M 247.909091 313.947501 
L 247.909091 313.439504 
" clip-path="url(#p151b1f4a1c)" style="fill: none; stroke: #ff8c00; stroke-opacity: 0.8; stroke-width: 1.5"/>
   </g>
   <g id="line2d_93">
    <g clip-path="url(#p151b1f4a1c)">
     <use xlink:href="#m6622050bd4" x="247.909091" y="313.947501" style="fill: #ff8c00; fill-opacity: 0.8; stroke: #ff8c00; stroke-opacity: 0.8"/>
    </g>
   </g>
   <g id="line2d_94">
    <g clip-path="url(#p151b1f4a1c)">
     <use xlink:href="#m6622050bd4" x="247.909091" y="313.439504" style="fill: #ff8c00; fill-opacity: 0.8; stroke: #ff8c00; stroke-opacity: 0.8"/>
    </g>
   </g>
   <g id="LineCollection_30">
    <path d="M 247.909091 259.746495 
L 247.909091 242.716255 
" clip-path="url(#p151b1f4a1c)" style="fill: none; stroke: #ff1493; stroke-opacity: 0.8; stroke-width: 1.5"/>
   </g>
   <g id="line2d_95">
    <g clip-path="url(#p151b1f4a1c)">
     <use xlink:href="#m4ccd4f1ac5" x="247.909091" y="259.746495" style="fill: #ff1493; fill-opacity: 0.8; stroke: #ff1493; stroke-opacity: 0.8"/>
    </g>
   </g>
   <g id="line2d_96">
    <g clip-path="url(#p151b1f4a1c)">
     <use xlink:href="#m4ccd4f1ac5" x="247.909091" y="242.716255" style="fill: #ff1493; fill-opacity: 0.8; stroke: #ff1493; stroke-opacity: 0.8"/>
    </g>
   </g>
   <g id="LineCollection_31">
    <path d="M 311.318182 310.4714 
L 311.318182 306.592118 
" clip-path="url(#p151b1f4a1c)" style="fill: none; stroke: #808080; stroke-opacity: 0.8; stroke-width: 1.5"/>
   </g>
   <g id="line2d_97">
    <g clip-path="url(#p151b1f4a1c)">
     <use xlink:href="#mc7cbe7376d" x="311.318182" y="310.4714" style="fill: #808080; fill-opacity: 0.8; stroke: #808080; stroke-opacity: 0.8"/>
    </g>
   </g>
   <g id="line2d_98">
    <g clip-path="url(#p151b1f4a1c)">
     <use xlink:href="#mc7cbe7376d" x="311.318182" y="306.592118" style="fill: #808080; fill-opacity: 0.8; stroke: #808080; stroke-opacity: 0.8"/>
    </g>
   </g>
   <g id="LineCollection_32">
    <path d="M 311.318182 314.229138 
L 311.318182 313.967978 
" clip-path="url(#p151b1f4a1c)" style="fill: none; stroke: #ff8c00; stroke-opacity: 0.8; stroke-width: 1.5"/>
   </g>
   <g id="line2d_99">
    <g clip-path="url(#p151b1f4a1c)">
     <use xlink:href="#m6622050bd4" x="311.318182" y="314.229138" style="fill: #ff8c00; fill-opacity: 0.8; stroke: #ff8c00; stroke-opacity: 0.8"/>
    </g>
   </g>
   <g id="line2d_100">
    <g clip-path="url(#p151b1f4a1c)">
     <use xlink:href="#m6622050bd4" x="311.318182" y="313.967978" style="fill: #ff8c00; fill-opacity: 0.8; stroke: #ff8c00; stroke-opacity: 0.8"/>
    </g>
   </g>
   <g id="LineCollection_33">
    <path d="M 311.318182 265.173537 
L 311.318182 255.156333 
" clip-path="url(#p151b1f4a1c)" style="fill: none; stroke: #ff1493; stroke-opacity: 0.8; stroke-width: 1.5"/>
   </g>
   <g id="line2d_101">
    <g clip-path="url(#p151b1f4a1c)">
     <use xlink:href="#m4ccd4f1ac5" x="311.318182" y="265.173537" style="fill: #ff1493; fill-opacity: 0.8; stroke: #ff1493; stroke-opacity: 0.8"/>
    </g>
   </g>
   <g id="line2d_102">
    <g clip-path="url(#p151b1f4a1c)">
     <use xlink:href="#m4ccd4f1ac5" x="311.318182" y="255.156333" style="fill: #ff1493; fill-opacity: 0.8; stroke: #ff1493; stroke-opacity: 0.8"/>
    </g>
   </g>
   <g id="line2d_103">
    <g clip-path="url(#p151b1f4a1c)">
     <use xlink:href="#m7e787f5dea" x="57.681818" y="314.632389" style="fill-opacity: 0; stroke: #808080; stroke-opacity: 0.8"/>
    </g>
   </g>
   <g id="line2d_104">
    <g clip-path="url(#p151b1f4a1c)">
     <use xlink:href="#m4015666314" x="57.681818" y="312.959134" style="fill-opacity: 0; stroke: #ff8c00; stroke-opacity: 0.8"/>
    </g>
   </g>
   <g id="line2d_105">
    <g clip-path="url(#p151b1f4a1c)">
     <use xlink:href="#m2fd2a2b482" x="57.681818" y="212.780504" style="fill-opacity: 0; stroke: #ff1493; stroke-opacity: 0.8"/>
    </g>
   </g>
   <g id="line2d_106">
    <g clip-path="url(#p151b1f4a1c)">
     <use xlink:href="#m7e787f5dea" x="121.090909" y="314.612192" style="fill-opacity: 0; stroke: #808080; stroke-opacity: 0.8"/>
    </g>
   </g>
   <g id="line2d_107">
    <g clip-path="url(#p151b1f4a1c)">
     <use xlink:href="#m4015666314" x="121.090909" y="313.104165" style="fill-opacity: 0; stroke: #ff8c00; stroke-opacity: 0.8"/>
    </g>
   </g>
   <g id="line2d_108">
    <g clip-path="url(#p151b1f4a1c)">
     <use xlink:href="#m2fd2a2b482" x="121.090909" y="243.533615" style="fill-opacity: 0; stroke: #ff1493; stroke-opacity: 0.8"/>
    </g>
   </g>
   <g id="line2d_109">
    <g clip-path="url(#p151b1f4a1c)">
     <use xlink:href="#m7e787f5dea" x="184.5" y="313.872284" style="fill-opacity: 0; stroke: #808080; stroke-opacity: 0.8"/>
    </g>
   </g>
   <g id="line2d_110">
    <g clip-path="url(#p151b1f4a1c)">
     <use xlink:href="#m4015666314" x="184.5" y="313.171629" style="fill-opacity: 0; stroke: #ff8c00; stroke-opacity: 0.8"/>
    </g>
   </g>
   <g id="line2d_111">
    <g clip-path="url(#p151b1f4a1c)">
     <use xlink:href="#m2fd2a2b482" x="184.5" y="244.313238" style="fill-opacity: 0; stroke: #ff1493; stroke-opacity: 0.8"/>
    </g>
   </g>
   <g id="line2d_112">
    <g clip-path="url(#p151b1f4a1c)">
     <use xlink:href="#m7e787f5dea" x="247.909091" y="310.920326" style="fill-opacity: 0; stroke: #808080; stroke-opacity: 0.8"/>
    </g>
   </g>
   <g id="line2d_113">
    <g clip-path="url(#p151b1f4a1c)">
     <use xlink:href="#m4015666314" x="247.909091" y="313.693503" style="fill-opacity: 0; stroke: #ff8c00; stroke-opacity: 0.8"/>
    </g>
   </g>
   <g id="line2d_114">
    <g clip-path="url(#p151b1f4a1c)">
     <use xlink:href="#m2fd2a2b482" x="247.909091" y="251.231375" style="fill-opacity: 0; stroke: #ff1493; stroke-opacity: 0.8"/>
    </g>
   </g>
   <g id="line2d_115">
    <g clip-path="url(#p151b1f4a1c)">
     <use xlink:href="#m7e787f5dea" x="311.318182" y="308.531759" style="fill-opacity: 0; stroke: #808080; stroke-opacity: 0.8"/>
    </g>
   </g>
   <g id="line2d_116">
    <g clip-path="url(#p151b1f4a1c)">
     <use xlink:href="#m4015666314" x="311.318182" y="314.098558" style="fill-opacity: 0; stroke: #ff8c00; stroke-opacity: 0.8"/>
    </g>
   </g>
   <g id="line2d_117">
    <g clip-path="url(#p151b1f4a1c)">
     <use xlink:href="#m2fd2a2b482" x="311.318182" y="260.164935" style="fill-opacity: 0; stroke: #ff1493; stroke-opacity: 0.8"/>
    </g>
   </g>
   <g id="patch_9">
    <path d="M 45 320.4 
L 45 194.4 
" style="fill: none; stroke: #000000; stroke-width: 0.8; stroke-linejoin: miter; stroke-linecap: square"/>
   </g>
   <g id="patch_10">
    <path d="M 324 320.4 
L 324 194.4 
" style="fill: none; stroke: #000000; stroke-width: 0.8; stroke-linejoin: miter; stroke-linecap: square"/>
   </g>
   <g id="patch_11">
    <path d="M 45 320.4 
L 324 320.4 
" style="fill: none; stroke: #000000; stroke-width: 0.8; stroke-linejoin: miter; stroke-linecap: square"/>
   </g>
   <g id="patch_12">
    <path d="M 45 194.4 
L 324 194.4 
" style="fill: none; stroke: #000000; stroke-width: 0.8; stroke-linejoin: miter; stroke-linecap: square"/>
   </g>
   <g id="text_18">
    <!-- $R = 25$ -->
    <g transform="translate(158.49 188.4) scale(0.18 -0.18)">
     <defs>
      <path id="Cmr10-35" d="M 556 728 
Q 622 541 758 387 
Q 894 234 1080 148 
Q 1266 63 1466 63 
Q 1928 63 2103 422 
Q 2278 781 2278 1294 
Q 2278 1516 2270 1667 
Q 2263 1819 2228 1959 
Q 2169 2184 2020 2353 
Q 1872 2522 1656 2522 
Q 1441 2522 1286 2456 
Q 1131 2391 1034 2303 
Q 938 2216 863 2119 
Q 788 2022 769 2016 
L 697 2016 
Q 681 2016 657 2036 
Q 634 2056 634 2075 
L 634 4213 
Q 634 4228 654 4245 
Q 675 4263 697 4263 
L 716 4263 
Q 1147 4056 1631 4056 
Q 2106 4056 2547 4263 
L 2566 4263 
Q 2588 4263 2606 4247 
Q 2625 4231 2625 4213 
L 2625 4153 
Q 2625 4122 2613 4122 
Q 2394 3831 2064 3668 
Q 1734 3506 1381 3506 
Q 1125 3506 856 3578 
L 856 2369 
Q 1069 2541 1236 2614 
Q 1403 2688 1663 2688 
Q 2016 2688 2295 2484 
Q 2575 2281 2725 1954 
Q 2875 1628 2875 1288 
Q 2875 903 2686 575 
Q 2497 247 2172 53 
Q 1847 -141 1466 -141 
Q 1150 -141 886 21 
Q 622 184 470 459 
Q 319 734 319 1044 
Q 319 1188 412 1278 
Q 506 1369 647 1369 
Q 788 1369 883 1276 
Q 978 1184 978 1044 
Q 978 906 883 811 
Q 788 716 647 716 
Q 625 716 597 720 
Q 569 725 556 728 
z
" transform="scale(0.015625)"/>
     </defs>
     <use xlink:href="#Cmmi10-52" transform="translate(0 0.6875)"/>
     <use xlink:href="#Cmr10-3d" transform="translate(93.4375 0.6875)"/>
     <use xlink:href="#Cmr10-32" transform="translate(188.681641 0.6875)"/>
     <use xlink:href="#Cmr10-35" transform="translate(238.681641 0.6875)"/>
    </g>
   </g>
  </g>
  <g id="text_19">
   <!--    $V_r = -17$ -->
   <g transform="translate(141.36 19.3575) scale(0.16 -0.16)">
    <defs>
     <path id="DejaVuSerif-20" transform="scale(0.015625)"/>
     <path id="Cmmi10-56" d="M 1409 -72 
L 897 4006 
Q 850 4147 416 4147 
Q 353 4147 353 4231 
Q 366 4300 384 4336 
Q 403 4372 459 4372 
L 2022 4372 
Q 2056 4372 2072 4347 
Q 2088 4322 2088 4288 
Q 2063 4147 2003 4147 
Q 1503 4147 1472 3975 
L 1894 628 
L 3866 3775 
Q 3922 3881 3922 3944 
Q 3922 4056 3820 4101 
Q 3719 4147 3584 4147 
Q 3519 4147 3519 4231 
Q 3531 4281 3540 4309 
Q 3550 4338 3569 4355 
Q 3588 4372 3628 4372 
L 4863 4372 
Q 4922 4372 4922 4288 
Q 4897 4147 4838 4147 
Q 4356 4147 4084 3725 
Q 4072 3713 4063 3713 
L 1703 -72 
Q 1656 -141 1581 -141 
L 1491 -141 
Q 1419 -141 1409 -72 
z
" transform="scale(0.015625)"/>
     <path id="Cmmi10-72" d="M 494 109 
Q 494 147 500 166 
L 978 2075 
Q 1025 2253 1025 2388 
Q 1025 2663 838 2663 
Q 638 2663 541 2423 
Q 444 2184 353 1819 
Q 353 1800 334 1789 
Q 316 1778 300 1778 
L 225 1778 
Q 203 1778 187 1801 
Q 172 1825 172 1844 
Q 241 2122 305 2315 
Q 369 2509 505 2668 
Q 641 2828 844 2828 
Q 1066 2828 1233 2700 
Q 1400 2572 1441 2363 
Q 1603 2575 1811 2701 
Q 2019 2828 2266 2828 
Q 2469 2828 2623 2709 
Q 2778 2591 2778 2388 
Q 2778 2225 2676 2104 
Q 2575 1984 2406 1984 
Q 2303 1984 2233 2048 
Q 2163 2113 2163 2216 
Q 2163 2356 2266 2467 
Q 2369 2578 2503 2578 
Q 2400 2663 2253 2663 
Q 1978 2663 1775 2467 
Q 1572 2272 1409 1972 
L 953 141 
Q 931 53 854 -9 
Q 778 -72 684 -72 
Q 606 -72 550 -22 
Q 494 28 494 109 
z
" transform="scale(0.015625)"/>
     <path id="Cmr10-37" d="M 1113 166 
Q 1113 522 1175 862 
Q 1238 1203 1358 1536 
Q 1478 1869 1648 2189 
Q 1819 2509 2022 2791 
L 2606 3603 
L 1875 3603 
Q 738 3603 703 3572 
Q 619 3469 544 2981 
L 359 2981 
L 569 4325 
L 756 4325 
L 756 4306 
Q 756 4191 1147 4156 
Q 1538 4122 1913 4122 
L 3103 4122 
L 3103 3956 
Q 3103 3950 3101 3947 
Q 3100 3944 3097 3938 
L 2216 2700 
Q 1891 2219 1809 1631 
Q 1728 1044 1728 166 
Q 1728 41 1637 -50 
Q 1547 -141 1422 -141 
Q 1294 -141 1203 -50 
Q 1113 41 1113 166 
z
" transform="scale(0.015625)"/>
    </defs>
    <use xlink:href="#DejaVuSerif-20" transform="translate(0 0.6875)"/>
    <use xlink:href="#DejaVuSerif-20" transform="translate(31.787109 0.6875)"/>
    <use xlink:href="#DejaVuSerif-20" transform="translate(63.574219 0.6875)"/>
    <use xlink:href="#Cmmi10-56" transform="translate(95.361328 0.6875)"/>
    <use xlink:href="#Cmmi10-72" transform="translate(153.662109 -16.31875) scale(0.7)"/>
    <use xlink:href="#Cmr10-3d" transform="translate(209.180078 0.6875)"/>
    <use xlink:href="#Cmsy10-a1" transform="translate(304.424219 0.6875)"/>
    <use xlink:href="#Cmr10-31" transform="translate(382.109766 0.6875)"/>
    <use xlink:href="#Cmr10-37" transform="translate(432.109766 0.6875)"/>
   </g>
  </g>
 </g>
 <defs>
  <clipPath id="p55ccd3e990">
   <rect x="45" y="43.2" width="279" height="126"/>
  </clipPath>
  <clipPath id="p151b1f4a1c">
   <rect x="45" y="194.4" width="279" height="126"/>
  </clipPath>
 </defs>
</svg>
